<svg width="375" height="739" viewBox="0 0 375 739" fill="none" xmlns="http://www.w3.org/2000/svg">
<g clip-path="url(#clip0)">
<g opacity="0.7">
<path d="M307.837 537.277C292.491 563.857 301.448 597.759 327.843 612.998C354.238 628.237 388.076 619.043 403.422 592.463C418.768 565.883 409.811 531.982 383.416 516.743C357.021 501.503 323.183 510.697 307.837 537.277Z" fill="url(#paint0_linear)"/>
<path d="M309.502 537.373C294.363 563.594 303.199 597.038 329.238 612.071C355.277 627.105 388.658 618.035 403.797 591.814C418.935 565.592 410.099 532.148 384.061 517.115C358.022 502.082 324.641 511.151 309.502 537.373Z" fill="url(#paint1_linear)"/>
<mask id="mask0" mask-type="alpha" maskUnits="userSpaceOnUse" x="302" y="509" width="110" height="111">
<path d="M309.502 537.373C294.363 563.594 303.199 597.038 329.238 612.071C355.277 627.105 388.658 618.035 403.797 591.814C418.935 565.592 410.099 532.148 384.061 517.115C358.022 502.082 324.641 511.151 309.502 537.373Z" fill="url(#paint2_linear)"/>
</mask>
<g mask="url(#mask0)">
<path d="M310.103 556.797L307.905 558.21L306.677 560.337L304.415 557.237L300.362 555.745L297.168 557.177L297.786 545.247L310.642 524.565L313.439 530.116L316.587 532.896L315.499 538.038L315.041 542.931L312.318 545.341L311.586 548.915L308.914 553.543L310.103 556.797ZM361.732 624.742C341.273 626.151 324.339 619.926 310.931 606.066C297.522 592.206 293.883 578.527 300.012 565.028C299.955 577.784 301.177 585.373 303.679 587.794C304.877 588.953 305.019 586.241 306.824 586.838C307.67 587.117 310.389 585.169 311.166 585.424C312.888 585.99 314.378 586.581 315.661 587.227L315.774 587.285L315.881 587.119L318.977 585.264L321.421 582.281L320.878 583.793L322.27 583.243L323.193 581.645L324.491 580.839L326.421 580.163L327.735 580.278L330.013 580.139L328.491 578.881L328.647 578.611L330.143 579.162L329.883 578.061L330.835 577.95L331.883 577.888L332.566 578.491L332.974 578.132L333.459 576.945L333.008 576.545L332.842 575.879L332.666 574.778L331.727 574.235L331.068 574.419L331.28 573.596L330.59 573.836L329.369 573.438L328.011 574.315L325.862 575.48L321.781 575.386L320.393 576.039L319.286 576.932L319.156 577.758L319.015 578.803L317.943 579.259L318.039 579.018L317.413 578.105L316.712 578.866L314.944 580.728L313.094 582.084L311.029 582.791L310.797 582.34L310.022 582.415L309.765 581.744L310.566 581.473L311.347 581.655L311.851 581.366L312.079 580.386L312.788 580.329L313.154 579.694L312.417 578.635L311.1 577.427L309.795 578.473L308.029 578.048L308.216 577.358L308.04 576.382L306.577 575.897C306.68 575.235 306.51 574.777 306.069 574.522C305.408 574.141 305.128 573.346 305.968 573.207C306.808 573.069 306.661 573.486 306.818 573.85C306.911 574.066 307.192 574.329 307.663 574.639L307.848 574.757L308.316 575.488C309.817 575.738 310.895 575.87 311.55 575.886C312.533 575.908 312.487 575.463 313.244 574.956C313.703 574.649 314.359 574.498 315.211 574.503L315.472 574.51L315.761 573.365C317.189 572.967 318.113 572.54 318.534 572.082C318.954 571.625 319.419 571.131 319.929 570.6C322.325 569.612 323.959 568.862 324.831 568.351C326.14 567.584 327.734 567.907 329.028 568.346C329.837 568.619 330.202 568.575 330.124 568.213L330.102 568.136L330.751 567.642L331.459 567.328L332.963 565.738L331.795 563.063L332.282 562.221L331.644 559.816L331.242 558.998L331.363 557.982L331.859 557.124L332.66 556.542L333.566 556.102L333.888 554.554L335.189 553.676L335.165 552.343L334.411 550.734L331.62 549.417L330.896 548.38L331.071 547.491L330.292 545.428L330.838 543.678L330.681 541.8L329.883 539.83L328.99 536.677L327.28 536.294L325.958 537.344L325.29 536.419L324.725 536.093L324.921 534.622L323.115 532.078L324.011 530.528L322.695 528.95L323.138 525.801L325.345 522.778L325.564 521.599L326.299 520.327L324.502 519.102L325.289 518.145L326.542 518.156L329.137 518.497C330.464 518.3 331.348 517.703 331.789 516.708C332.201 515.778 332.548 515.263 332.831 515.162L332.891 515.147L334.403 513.614L335.887 514.899L337.7 516.35L338.06 515.726L338.469 516.39L339.489 515.708C340.242 516.528 341.02 517.673 341.826 519.145C343.034 521.352 345.944 522.317 347.009 522.762C348.073 523.208 348.443 523.906 349.331 524.418C350.218 524.93 350.688 524.261 351.389 524.666C352.09 525.071 351.48 526.215 351.091 526.889C350.701 527.564 351.815 528.387 351.453 529.016C351.211 529.435 350.386 530.133 348.979 531.111C346.971 534.212 345.402 536.259 344.272 537.25C343.141 538.241 342.315 539.446 341.792 540.864C342.555 542.338 343.65 543.636 345.076 544.758C347.216 546.44 349.826 547.053 350.591 546.67C351.355 546.286 352.367 546.582 353.225 547.078C354.084 547.573 356.285 546.653 357.353 545.555C358.422 544.457 358.898 544.063 360.612 544.637C362.326 545.21 360.983 545.441 360.712 546.742C360.441 548.043 359.684 548.523 358.431 549.34C357.179 550.156 358.427 552.019 359.525 551.828C360.208 551.709 360.637 551.922 360.811 552.467L360.844 552.589L360.393 553.371L359.485 553.41L358.801 553.889L358.109 555.089L357.966 556.043L358.587 556.26L358.798 557.79L358.535 559.14L359.243 560.42L360.772 561.273L360.853 561.741L360.497 562.867L360.462 563.727L360.654 564.928L360.24 565.646L360.338 566.271L360.669 566.111L361.09 565.813L360.883 566.586L360.497 566.84L361.322 566.839L361.435 567.381C362.048 568.208 362.43 568.871 362.58 569.37C362.862 570.305 362.73 571.691 362.89 572.2C363.165 573.074 363.9 573.995 363.984 574.636C364.189 576.208 363.832 577.175 362.911 577.539L362.769 577.589L363.015 578.608L363.713 579.011L363.512 579.993L364.63 579.957L365.145 580.254L366.21 580.565L366.655 580.822L368.167 581.167L368.942 580.895L369.676 580.565L370.164 580.846L370.626 581.494L371.038 581.559L372.109 581.729L372.493 582.399L372.553 582.98L373.2 582.951L373.781 583.562L373.825 584.169L373.596 584.829L374.142 585.635L374.664 586.734L374.433 587.134L373.139 586.816L372.602 586.288L371.255 585.845L370.859 586.531L370.195 586.379L369.717 585.872L370.157 585.552L369.577 584.877L368.272 584.123L367.776 584.983L367.175 585.308L366.126 584.703L365.787 584.013L366.238 583.863L366.913 583.339L367.717 583.468L368.151 583.208L367.279 582.705L366.923 582.045L366.213 583.275L366.058 582.633L365.689 583.054L364.891 582.593L363.872 582.907L363.734 584.142L363.025 584.373L362.518 583.44L361.942 584.438L362.165 585.864L362.586 586.586L362.363 587.84L362.186 589.119L361.525 588.424L361.006 588.868L359.715 589.66L359.778 590.995L359.763 593.317L360.237 594.258L360.347 595.39L360.812 595.918L360.443 596.968L360.348 597.847L358.738 598.177L357.978 599.491L357.961 599.622L357.942 599.759L359.712 601.173L359.033 603.3C362.2 603.707 364.246 604.05 365.172 604.326C366.767 604.801 367.021 605.628 367.623 605.894C368.436 606.253 367.304 607.651 367.852 607.778C368.793 607.994 365.157 609.76 366.215 609.765C367.874 609.773 369.133 609.451 370.431 609.88C371.204 610.136 372.191 610.023 372.834 610.405C375.395 611.926 373.172 613.641 372.888 614.588C372.743 615.075 372.116 616.16 372.291 618.37C372.443 620.28 368.923 622.403 361.732 624.742ZM307.157 572.735L306.064 572.401L305.139 571.321L302.996 570.947L302.884 569.49L304.111 568.627L305.689 566.697L307.382 565.069L308.537 565.435L308.821 566.677L308.755 568.06L307.532 569.257L307.089 570.944L307.157 572.735ZM322.096 562.393L321.42 562.623L319.973 562.496L319.132 561.803L317.844 561.476L316.984 560.77L315.414 559.864L315.831 559.142L315.128 557.9C315.588 557.379 316.112 557.151 316.701 557.217C317.583 557.315 317.913 557.916 318.859 558.463C319.805 559.009 320.176 558.838 320.886 558.765C321.596 558.692 321.895 559.166 321.617 559.649C321.338 560.131 321.526 560.723 321.972 561.081C322.269 561.32 322.31 561.758 322.096 562.393ZM327.689 565.152L326.521 565.003L324.894 564.064L324.437 563.303L322.82 562.369L322.942 562.157L323.757 561.847L325.138 562.088L326.442 562.435L327.082 564.032L327.689 565.152ZM389.726 566.393L388.445 567.031L387.371 564.092L385.872 566.687L384.158 566.535L381.912 563.89L381.982 562.084L380.729 563.274L379.225 564.026L377.59 563.57L375.537 564.155L371.076 563.172L369.613 562.328L368.63 562.944L367.05 564.898L364.676 563.081L364.229 560.534L362.36 561.348L361.945 559.85L363.635 556.044L365.677 552.508L364.955 550.527L365.953 548.957L367.242 546.566L368.53 550.663L367.245 552.888L367.933 555.068L367.878 553.254L369.611 552.161L370.459 550.691L371.542 550.529L371.79 553.419L373.181 554.278L373.678 553.417L374.015 554.704L375.243 554.714L373.162 556.982L374.586 558.568L376.408 558.703L378.226 559.753L377.911 556.953L378.62 557.363L379.722 556.906L381.518 559.036L382.751 559.048L382.591 557.177L383.951 557.693L384.685 559.772L385.677 558.054L387.119 559.522L389.286 560.774L388.57 562.015L390.736 563.658L389.726 566.393ZM383.764 554.564L383.033 554.142L383.178 555.579L381.873 556.151L379.625 554.853L379.57 553.904L378.644 553.149L375.362 551.255L374.097 548.634L374.783 547.445L374.528 544.703L375.717 542.645L377.365 541.837L379.068 542.143L378.448 543.217L379.204 544.6L380.273 545.655L380.066 546.78L382.198 545.383L382.296 546.823L383.189 546.959L384.293 547.537L382.545 549.796L382.607 551.908L383.522 550.579L384.003 551.332L384.625 553.073L383.764 554.564ZM364.481 586.672L364.407 586.75C364.122 586.956 363.812 586.304 363.789 585.886C363.766 585.468 364.048 585.167 364.629 584.888C365.017 584.702 365.235 584.7 365.285 584.882C365.219 585.228 365.085 585.46 364.884 585.578C364.582 585.754 364.691 586.543 364.407 586.75L364.481 586.672ZM368.175 587.757C368.255 588.322 368.172 588.652 367.927 588.748C367.682 588.843 367.168 588.695 366.387 588.301L365.544 587.372C365.183 587.066 365.014 586.847 365.037 586.714C365.06 586.582 365.288 586.458 365.723 586.341L365.901 586.034L366.49 585.734C367.353 585.873 367.813 585.996 367.87 586.103C367.926 586.211 367.976 586.458 368.019 586.845C367.933 587.183 367.898 587.404 367.916 587.506C367.933 587.608 368.02 587.692 368.175 587.757ZM391.841 601.936L386.046 603.998L384.744 602.982L382.549 602.348L380.236 601.861L378.93 602.681L376.751 604.002L376.149 602.441L375.46 602.043L374.556 601.236L373.767 599.506L374.138 597.829L373.641 598.691L372.33 598.677L370.111 597.396L367.461 596.059L366.163 594.681L366.706 593.741L366.334 591.944L364.836 591.488L365.004 589.699L365.682 589.165L366.3 589.523L367.801 589.403L368.397 589.745L369.206 590.407L370.889 590.122L372.68 589.536L374.306 589.607L375.616 589.846L377.286 590.092L378.764 590.181L379.29 589.941L380.589 590.155L379.047 587.449L378.345 585.551L377.723 583.102L379.528 581.083L383.002 580.997L385.157 582.242L389.125 583.609L391.858 585.186L393.851 591.469L393.085 595.968L391.841 601.936ZM385.817 619.46L379.527 620.439L375.237 616.717L375.148 613.772L375.508 608.911L378.937 608.006L381.273 608.994L384.606 609.655L386.092 611.777L385.245 616.067L385.817 619.46Z" fill="url(#paint3_linear)"/>
</g>
</g>
<mask id="mask1" mask-type="alpha" maskUnits="userSpaceOnUse" x="7" y="450" width="26" height="26">
<path d="M17.194 475.427C23.8714 477.216 30.7268 473.284 32.506 466.644C34.2852 460.004 30.3145 453.17 23.6371 451.381C16.9597 449.592 10.1043 453.524 8.3251 460.164C6.5459 466.804 10.5167 473.638 17.194 475.427Z" fill="white"/>
</mask>
<g mask="url(#mask1)">
<path d="M17.194 475.427C23.8714 477.216 30.7268 473.284 32.506 466.644C34.2852 460.004 30.3145 453.17 23.6371 451.381C16.9597 449.592 10.1043 453.524 8.3251 460.164C6.5459 466.804 10.5167 473.638 17.194 475.427Z" fill="url(#paint4_linear)"/>
<path fill-rule="evenodd" clip-rule="evenodd" d="M7.80322 455.737C9.85108 461.328 13.3804 464.73 18.3912 465.945C23.4019 467.159 26.681 470.171 28.2284 474.982L9.67098 476.485L5.77073 466.376L7.80322 455.737Z" fill="url(#paint5_linear)"/>
<path fill-rule="evenodd" clip-rule="evenodd" d="M7.63184 463.59C9.66246 467.588 12.8664 470.13 17.2436 471.215C21.6208 472.3 24.5905 474.557 26.1526 477.987L10.2263 478.156L6.38444 470.917L7.63184 463.59Z" fill="url(#paint6_linear)"/>
</g>
<path fill-rule="evenodd" clip-rule="evenodd" d="M32.9786 464.588C33.002 462.661 32.9058 461.283 32.69 460.456C32.1319 458.318 30.9268 456.51 30.6164 456.133C30.126 455.537 29.3696 454.714 28.3473 453.664C25.9441 451.859 23.2981 450.957 20.409 450.957C17.52 450.957 15.0247 451.802 12.9231 453.493C13.8048 456.354 16.6905 458.052 21.5805 458.586C26.4704 459.121 30.2698 461.122 32.9786 464.588Z" fill="url(#paint7_linear)"/>
<path opacity="0.2" d="M-86 603.553C12.2157 567.184 107.862 549 200.94 549C294.017 549 388.37 563.851 484 593.553V704.053H-86V603.553Z" fill="url(#paint8_linear)"/>
<path d="M-86 603.553C13.9388 573.851 111.263 559 205.974 559C300.684 559 396.693 573.851 494 603.553V1044.05H-86V603.553Z" fill="url(#paint9_linear)"/>
<path opacity="0.3" d="M140.52 754.762C184.421 752.461 219.575 742.28 219.037 732.021C218.5 721.763 182.475 715.312 138.573 717.613C94.6713 719.913 59.5179 730.095 60.0555 740.353C60.5931 750.612 96.6182 757.062 140.52 754.762Z" fill="url(#paint10_linear)"/>
<path opacity="0.3" d="M150.53 756.246C194.431 753.945 229.585 743.764 229.047 733.506C228.51 723.247 192.485 716.796 148.583 719.097C104.681 721.398 69.5279 731.579 70.0655 741.837C70.6031 752.096 106.628 758.547 150.53 756.246Z" fill="url(#paint11_linear)"/>
<path opacity="0.9" d="M144.916 746.745C166.867 745.595 184.441 740.459 184.169 735.275C183.898 730.091 165.883 726.82 143.932 727.971C121.981 729.121 104.407 734.257 104.678 739.441C104.95 744.625 122.965 747.896 144.916 746.745Z" fill="url(#paint12_linear)"/>
<path opacity="0.3" d="M-30.333 664.661C-73.9672 670.019 -110.355 666.097 -111.606 655.901C-112.858 645.705 -78.5007 633.096 -34.8665 627.739C8.76764 622.381 45.155 626.303 46.4069 636.499C47.6588 646.695 13.3012 659.304 -30.333 664.661Z" fill="url(#paint13_linear)"/>
<path opacity="0.3" d="M-39.9331 667.861C-83.5673 673.219 -119.955 669.297 -121.207 659.101C-122.458 648.905 -88.1008 636.296 -44.4666 630.939C-0.832453 625.581 35.5549 629.503 36.8068 639.699C38.0587 649.895 3.70109 662.504 -39.9331 667.861Z" fill="url(#paint14_linear)"/>
<path opacity="0.6" d="M-36.0542 657.53C-57.8713 660.209 -76.0705 658.203 -76.7031 653.05C-77.3358 647.898 -60.1625 641.549 -38.3454 638.87C-16.5283 636.191 1.67085 638.197 2.30353 643.35C2.93621 648.502 -14.2371 654.851 -36.0542 657.53Z" fill="url(#paint15_linear)"/>
<path opacity="0.3" d="M107.137 604.926C119.358 603.642 129.042 600.485 128.768 597.877C128.494 595.268 118.365 594.194 106.143 595.478C93.9225 596.763 84.2377 599.919 84.5119 602.528C84.7861 605.137 94.9155 606.211 107.137 604.926Z" fill="url(#paint16_linear)"/>
<path opacity="0.2" d="M258.969 589.353C266.544 589.882 272.802 588.637 272.947 586.571C273.091 584.505 267.067 582.401 259.492 581.871C251.916 581.341 245.658 582.587 245.514 584.653C245.369 586.719 251.393 588.823 258.969 589.353Z" fill="url(#paint17_linear)"/>
<path opacity="0.2" d="M364.791 720.196C386.189 720.569 403.598 717.291 403.675 712.873C403.752 708.456 386.468 704.572 365.071 704.198C343.673 703.825 326.264 707.103 326.187 711.521C326.11 715.938 343.394 719.822 364.791 720.196Z" fill="url(#paint18_linear)"/>
<path opacity="0.3" d="M367.417 627.829C405.597 632.517 437.436 629.085 438.531 620.163C439.626 611.242 409.563 600.209 371.384 595.521C333.204 590.833 301.365 594.265 300.269 603.187C299.174 612.108 329.237 623.141 367.417 627.829Z" fill="url(#paint19_linear)"/>
<path opacity="0.4" d="M375.817 630.629C413.997 635.317 445.836 631.885 446.931 622.963C448.027 614.042 417.964 603.009 379.784 598.321C341.604 593.633 309.765 597.065 308.669 605.987C307.574 614.908 337.637 625.941 375.817 630.629Z" fill="url(#paint20_linear)"/>
<path opacity="0.8" d="M372.423 621.589C391.513 623.933 407.437 622.178 407.991 617.669C408.544 613.16 393.517 607.605 374.427 605.261C355.338 602.917 339.413 604.672 338.86 609.181C338.306 613.69 353.333 619.245 372.423 621.589Z" fill="url(#paint21_linear)"/>
<path opacity="0.2" d="M216.952 661.136C287.254 661.136 344.244 657.201 344.244 652.347C344.244 647.493 287.254 643.559 216.952 643.559C146.651 643.559 89.6609 647.493 89.6609 652.347C89.6609 657.201 146.651 661.136 216.952 661.136Z" fill="url(#paint22_linear)"/>
<path fill-rule="evenodd" clip-rule="evenodd" d="M187.937 468.093C201.35 471.424 210.767 483.466 210.767 497.287V638.889H165.106V497.287C165.106 483.466 174.523 471.424 187.937 468.093Z" fill="url(#paint23_linear)"/>
<path opacity="0.2" d="M187.936 493.167C194.158 492.33 199.518 494.373 204.018 499.296C208.518 504.219 210.767 511.206 210.767 520.257V638.889L187.936 568.329V493.167Z" fill="#641588"/>
<path fill-rule="evenodd" clip-rule="evenodd" d="M165.652 522.762C172.211 522.762 177.527 528.079 177.527 534.637V649.492H153.777V534.637C153.777 528.079 159.094 522.762 165.652 522.762Z" fill="url(#paint24_linear)"/>
<path d="M180.073 649.086H151.156V651.921H180.073V649.086Z" fill="#6943C6"/>
<path d="M224.299 649.086H195.382V651.921H224.299V649.086Z" fill="#6943C6"/>
<path opacity="0.2" d="M174.37 526.741L154.525 538.387" stroke="#033E43" stroke-width="1.701" stroke-linecap="round"/>
<path opacity="0.1" d="M174.37 530.71L154.525 542.356" stroke="#033E43" stroke-width="1.701" stroke-linecap="round"/>
<path opacity="0.2" d="M165.298 522.772V648.952" stroke="white" stroke-width="1.701"/>
<path opacity="0.1" d="M179.506 596.355H153.424V601.458H179.506V596.355Z" fill="#E4E0DE"/>
<path opacity="0.1" d="M179.506 555.531H153.424V560.634H179.506V555.531Z" fill="#E4E0DE"/>
<path fill-rule="evenodd" clip-rule="evenodd" d="M209.878 522.762C216.437 522.762 221.753 528.079 221.753 534.637V649.492H198.003V534.637C198.003 528.079 203.32 522.762 209.878 522.762Z" fill="url(#paint25_linear)"/>
<path opacity="0.2" d="M210.658 522.772V649.519" stroke="white" stroke-width="1.701"/>
<path opacity="0.1" d="M222.031 596.355H195.949V601.458H222.031V596.355Z" fill="#E4E0DE"/>
<path opacity="0.1" d="M222.031 555.531H195.949V560.634H222.031V555.531Z" fill="#E4E0DE"/>
<path d="M173.18 643.785H202.693V652.046H173.18V643.785Z" fill="url(#paint26_linear)"/>
<path opacity="0.1" d="M173.18 643.785H179.446V652.046H173.18V643.785Z" fill="white"/>
<path d="M179.229 592.064L145.162 628.721V644.857H178.998L179.229 592.064Z" fill="url(#paint27_linear)"/>
<path d="M170.401 641.891H148.288V645.293H170.401V641.891Z" fill="url(#paint28_linear)"/>
<path d="M196.644 592.064L230.711 628.721V644.857H196.875L196.644 592.064Z" fill="url(#paint29_linear)"/>
<path d="M228.802 641.891H206.689V645.293H228.802V641.891Z" fill="url(#paint30_linear)"/>
<mask id="mask2" mask-type="alpha" maskUnits="userSpaceOnUse" x="168" y="493" width="40" height="153">
<path d="M174.672 509.488C178.305 498.688 182.727 493.288 187.936 493.288C193.146 493.288 197.567 498.688 201.201 509.488L207.431 645.883H168.442L174.672 509.488Z" fill="white"/>
</mask>
<g mask="url(#mask2)">
<path d="M174.672 509.488C178.305 498.688 182.727 493.288 187.936 493.288C193.146 493.288 197.567 498.688 201.201 509.488L207.431 645.883H168.442L174.672 509.488Z" fill="url(#paint31_linear)"/>
<path d="M181.118 491.587H195.293V645.811H181.118V491.587Z" fill="url(#paint32_linear)"/>
<path d="M187.639 497.257C190.927 497.257 193.593 495.353 193.593 493.005C193.593 490.656 190.927 488.752 187.639 488.752C184.351 488.752 181.686 490.656 181.686 493.005C181.686 495.353 184.351 497.257 187.639 497.257Z" fill="#E3DFDD"/>
</g>
<path d="M185.081 502.328H191.296C193.537 502.328 195.353 504.145 195.353 506.386V510.038C194.972 509.994 194.957 509.952 194.929 509.919C192.695 507.244 190.454 505.907 188.206 505.907C186.055 505.907 183.9 507.132 181.743 509.581C181.43 509.523 181.245 509.534 181.123 509.427C181.059 509.371 181.023 509.291 181.023 509.207V506.386C181.023 504.145 182.84 502.328 185.081 502.328Z" fill="url(#paint33_linear)"/>
<path opacity="0.4" d="M190.146 614.652L206.772 630.696L207.31 645.829H190.146V614.652Z" fill="#AFA19E"/>
<path d="M187.936 613.231C189.346 613.231 190.488 614.374 190.488 615.783V654.569H185.385V615.783C185.385 614.374 186.527 613.231 187.936 613.231Z" fill="#F6FAFC"/>
<path fill-rule="evenodd" clip-rule="evenodd" d="M228.998 619.012C230.031 619.012 230.867 619.849 230.867 620.881V647.493H227.129V620.881C227.129 619.849 227.966 619.012 228.998 619.012Z" fill="#F6FAFC"/>
<path opacity="0.2" d="M187.978 468.907V495.295" stroke="#E7ECF8" stroke-width="1.701"/>
<path fill-rule="evenodd" clip-rule="evenodd" d="M146.755 619.012C147.788 619.012 148.625 619.849 148.625 620.881V647.493H144.886V620.881C144.886 619.849 145.723 619.012 146.755 619.012Z" fill="#F6FAFC"/>
<path d="M174.129 527.071H121.965V528.772H174.129V527.071Z" fill="url(#paint34_linear)"/>
<path d="M121.965 595.111H170.727V596.812H121.965V595.111Z" fill="url(#paint35_linear)"/>
<path opacity="0.5" d="M121.965 599.08H170.727V600.781H121.965V599.08Z" fill="url(#paint36_linear)"/>
<path opacity="0.5" d="M174.129 531.04H121.965V532.741H174.129V531.04Z" fill="url(#paint37_linear)"/>
<path d="M118.298 463C118.446 463 118.567 463.12 118.567 463.269V486.915C118.567 487.064 118.446 487.184 118.298 487.184C118.149 487.184 118.029 487.064 118.029 486.915V463.269C118.029 463.12 118.149 463 118.298 463Z" fill="url(#paint38_linear)"/>
<path d="M118.018 480.369H118.54C120.744 480.369 122.532 482.156 122.532 484.361V651.162C122.532 651.603 122.174 651.961 121.733 651.961H114.825C114.384 651.961 114.027 651.603 114.027 651.162V484.361C114.027 482.156 115.814 480.369 118.018 480.369Z" fill="url(#paint39_linear)"/>
<path d="M128.202 649.543H108.357V652.378H128.202V649.543Z" fill="#CDC1BE"/>
<path opacity="0.3" d="M116.578 484.338C117.048 484.338 117.429 484.719 117.429 485.189V648.894C117.429 649.335 117.071 649.693 116.63 649.693H116.526C116.085 649.693 115.728 649.335 115.728 648.894V485.189C115.728 484.719 116.109 484.338 116.578 484.338Z" fill="white"/>
<path fill-rule="evenodd" clip-rule="evenodd" d="M93.5997 543.148C99.6209 543.955 105.701 542.629 111.839 539.17C113.106 537.323 113.958 536.35 114.396 536.249C114.834 536.148 114.653 536.882 113.853 538.449C114.381 540.699 114.476 541.885 114.14 542.008C113.647 542.188 113.079 542.338 112.437 542.458C105.747 544.812 100.585 546.252 96.9491 546.778C91.4957 547.567 84.568 541.938 93.5997 543.148Z" fill="url(#paint40_linear)"/>
<path fill-rule="evenodd" clip-rule="evenodd" d="M77.1199 540.618C78.2773 539.748 87.1894 542.511 93.5098 542.686C97.7235 542.802 103.385 541.648 110.495 539.225L112.222 543.339C103.804 546.747 98.4304 548.677 96.1013 549.13C92.6076 549.809 76.6423 548.088 74.892 546.252C73.1417 544.415 75.9626 541.488 77.1199 540.618Z" fill="url(#paint41_linear)"/>
<path fill-rule="evenodd" clip-rule="evenodd" d="M63.7363 528.957L77.0291 530.519C80.1391 530.884 82.3641 533.702 81.9986 536.812C81.9396 537.314 81.8137 537.806 81.6243 538.274L65.1465 579.047L50.6758 577.716C46.373 577.321 43.2055 573.512 43.601 569.209C43.6584 568.585 43.7905 567.971 43.9945 567.378L55.4257 534.18C56.6234 530.701 60.0826 528.527 63.7363 528.957Z" fill="url(#paint42_linear)"/>
<mask id="mask3" mask-type="alpha" maskUnits="userSpaceOnUse" x="14" y="534" width="68" height="96">
<path d="M73.3608 535.338C68.3178 534.77 63.7874 534.665 62.0361 536.136C61.8365 536.303 60.8126 536.686 59.5881 540.373C56.2464 550.433 51.3221 569.459 50.8947 572.222L50.11 573.848L41.1233 589.279C35.5875 590.831 31.436 592.372 28.6688 593.904C23.0392 597.021 15.9608 596.045 15.8328 596.639C15.6992 597.258 13.3334 603.985 14.2173 605.116C14.5919 605.596 15.945 604.124 18.2768 600.702C32.3316 599.373 41.1771 598.018 44.8133 596.639C49.5165 594.855 60.6151 579.509 61.2448 579.534C61.7231 579.552 58.5846 587.283 51.8293 602.725C49.3193 603.75 47.2006 605.264 45.4733 607.269C43.746 609.273 40.0895 613.418 34.504 619.704C32.3068 621.183 31.371 622.14 31.6964 622.576C31.8923 622.838 33.2104 629.751 34.504 629.88C35.0738 629.937 35.4979 627.968 35.7762 623.973C50.6612 615.305 59.4924 608.222 62.2697 602.725C66.4124 594.525 72.6534 577.306 73.9264 573.156C74.9639 569.943 76.2499 565.541 77.7834 559.952C80.5341 547.134 81.689 540.405 81.2481 539.767C79.7166 537.548 78.4038 535.906 73.3608 535.338Z" fill="white"/>
</mask>
<g mask="url(#mask3)">
<path d="M73.3608 535.338C68.3178 534.77 63.7874 534.665 62.0361 536.136C61.8365 536.303 60.8126 536.686 59.5881 540.373C56.2464 550.433 51.3221 569.459 50.8947 572.222L50.11 573.848L41.1233 589.279C35.5875 590.831 31.436 592.372 28.6688 593.904C23.0392 597.021 15.9608 596.045 15.8328 596.639C15.6992 597.258 13.3334 603.985 14.2173 605.116C14.5919 605.596 15.945 604.124 18.2768 600.702C32.3316 599.373 41.1771 598.018 44.8133 596.639C49.5165 594.855 60.6151 579.509 61.2448 579.534C61.7231 579.552 58.5846 587.283 51.8293 602.725C49.3193 603.75 47.2006 605.264 45.4733 607.269C43.746 609.273 40.0895 613.418 34.504 619.704C32.3068 621.183 31.371 622.14 31.6964 622.576C31.8923 622.838 33.2104 629.751 34.504 629.88C35.0738 629.937 35.4979 627.968 35.7762 623.973C50.6612 615.305 59.4924 608.222 62.2697 602.725C66.4124 594.525 72.6534 577.306 73.9264 573.156C74.9639 569.943 76.2499 565.541 77.7834 559.952C80.5341 547.134 81.689 540.405 81.2481 539.767C79.7166 537.548 78.4038 535.906 73.3608 535.338Z" fill="url(#paint43_linear)"/>
<path fill-rule="evenodd" clip-rule="evenodd" d="M27.4846 594.595L28.1233 600.059L19.2266 605.103L13.3703 607.08L12.7647 601.226L13.7521 594.595L21.4382 594.595L27.4846 594.595Z" fill="url(#paint44_linear)"/>
<path fill-rule="evenodd" clip-rule="evenodd" d="M40.3326 612.665L45.0056 619.927L38.3707 627.71L33.5439 631.571L30.9723 626.276L29.6323 619.708L36.2409 616.515L40.3326 612.665Z" fill="url(#paint45_linear)"/>
<path opacity="0.3" d="M75.2656 542.859C74.4922 548.372 73.4845 552.95 72.2423 556.592C71.0001 560.234 68.8334 564.963 65.7423 570.779" stroke="#431E30" stroke-width="0.567"/>
<path opacity="0.3" fill-rule="evenodd" clip-rule="evenodd" d="M80.7217 542.859C72.8843 546.397 66.8365 548.438 62.5786 548.982C58.3206 549.526 56.3286 549.526 56.6026 548.982C57.0882 546.633 57.4996 544.931 57.8369 543.875C58.1742 542.82 58.7743 541.358 59.6371 539.489L80.7217 542.859Z" fill="url(#paint46_linear)"/>
</g>
<mask id="mask4" mask-type="alpha" maskUnits="userSpaceOnUse" x="71" y="524" width="14" height="15">
<path d="M84.4587 526.62L81.9708 533.846C81.6146 534.88 80.4884 535.431 79.4535 535.076L76.9073 534.205L76.4193 537.399L74.7205 538.65L71.7021 535.682L73.2527 532.035L76.2833 524.934L84.4587 526.62Z" fill="white"/>
</mask>
<g mask="url(#mask4)">
<path d="M84.4587 526.62L81.9708 533.846C81.6146 534.88 80.4884 535.431 79.4535 535.076L76.9073 534.205L76.4193 537.399L74.7205 538.65L71.7021 535.682L73.2527 532.035L76.2833 524.934L84.4587 526.62Z" fill="#DDBAAA"/>
<path opacity="0.3" d="M77.5083 534.392L76.3684 534L77.3404 538.102L78.182 535.979L77.5083 534.392Z" fill="#462F41"/>
</g>
<mask id="mask5" mask-type="alpha" maskUnits="userSpaceOnUse" x="72" y="521" width="16" height="12">
<path d="M77.8506 527.29C77.5722 527.7 77.5601 528.528 77.3106 528.858C76.3048 530.188 74.5773 532.16 73.8439 532.441C72.9049 532.801 73.6877 532.875 73.1387 532.194C72.5896 531.514 72.0318 524.378 74.8827 523.849C76.0465 521.527 77.0972 521.179 81.0783 523.26C82.5963 524.053 83.7998 523.868 86.3539 524.747C88.908 525.627 84.26 528.382 77.8506 527.29Z" fill="white"/>
</mask>
<g mask="url(#mask5)">
<path d="M77.8506 527.29C77.5722 527.7 77.5601 528.528 77.3106 528.858C76.3048 530.188 74.5773 532.16 73.8439 532.441C72.9049 532.801 73.6877 532.875 73.1387 532.194C72.5896 531.514 72.0318 524.378 74.8827 523.849C76.0465 521.527 77.0972 521.179 81.0783 523.26C82.5963 524.053 83.7998 523.868 86.3539 524.747C88.908 525.627 84.26 528.382 77.8506 527.29Z" fill="#02272A"/>
<path opacity="0.8" d="M85.2595 526.997L79.4908 526.457C77.0719 526.231 74.748 527.455 73.5678 529.579L71.0318 534.142L81.9468 535.495L85.2595 526.997Z" fill="#000606"/>
<path d="M74.3102 523.422C77.4037 522.679 80.7747 523.575 84.423 526.111C87.1028 527.973 89.5475 527.791 91.7569 525.565L91.7039 526.699C86.4522 523.503 82.8192 521.538 80.8049 520.803C78.9123 520.113 76.6531 519.258 75.4996 519.967C75.4502 519.998 75.0537 521.149 74.3102 523.422Z" fill="#063C41"/>
</g>
<path d="M67.9769 549.082C67.3491 548.866 67.0599 548.053 67.3309 547.266C67.602 546.479 68.3306 546.016 68.9583 546.232C69.5861 546.448 69.8753 547.262 69.6043 548.049C69.3333 548.836 68.6047 549.299 67.9769 549.082Z" fill="#DE6350"/>
<path opacity="0.3" d="M72.9173 540.35C80.6073 542.998 88.9943 538.892 91.6502 531.179C94.3061 523.465 90.2252 515.066 82.5351 512.418C74.8451 509.77 66.458 513.876 63.8021 521.59C61.1462 529.303 65.2272 537.703 72.9173 540.35Z" fill="#FFF4DB"/>
<path opacity="0.5" d="M80.7217 515.942C75.3093 514.079 69.4082 516.963 67.5412 522.386" stroke="#FFFAF0" stroke-width="1.33739"/>
<path fill-rule="evenodd" clip-rule="evenodd" d="M114.182 522.459C114.317 522.613 111.357 524.933 105.301 529.421L104.822 530.809L95.8924 536.737C95.3762 536.882 94.9916 536.818 94.7389 536.544C94.4861 536.269 94.4954 535.828 94.7668 535.222L103.015 528.563L104.545 528.564C110.835 524.341 114.047 522.306 114.182 522.459Z" fill="url(#paint47_linear)"/>
<path fill-rule="evenodd" clip-rule="evenodd" d="M79.4249 537.478C85.4461 538.285 91.5259 536.959 97.6642 533.5C98.931 531.653 99.7833 530.68 100.221 530.579C100.659 530.478 100.478 531.212 99.6783 532.779C101.55 531.505 102.839 530.983 103.546 531.212C103.991 531.357 103.324 532.376 103.045 533.166C102.66 534.258 103.144 534.983 101.718 535.618C100.079 536.348 98.9272 536.738 98.2622 536.788C91.5725 539.142 86.4098 540.582 82.7743 541.108C77.3209 541.897 70.3932 536.268 79.4249 537.478Z" fill="url(#paint48_linear)"/>
<path fill-rule="evenodd" clip-rule="evenodd" d="M62.9451 534.948C65.4233 533.826 73.0146 536.841 79.3351 537.016C83.5487 537.132 89.2103 535.978 96.3201 533.555L98.0471 537.669C89.6292 541.077 84.2556 543.007 81.9265 543.46C78.4328 544.139 61.4518 544.047 59.7015 542.211C57.9512 540.374 60.467 536.07 62.9451 534.948Z" fill="url(#paint49_linear)"/>
<path opacity="0.2" d="M88.37 634.26C98.9142 634.076 107.446 633.004 107.426 631.866C107.406 630.729 98.8422 629.956 88.2981 630.14C77.754 630.324 69.2224 631.395 69.2423 632.533C69.2621 633.671 77.8259 634.444 88.37 634.26Z" fill="url(#paint50_linear)"/>
<path fill-rule="evenodd" clip-rule="evenodd" d="M83.071 628.993L83.8022 630.605L91.3913 631.425L95.1296 631.128L96.239 627.82L96.017 626.588L94.7881 626.052L83.8022 625.516L82.63 628.993L83.071 628.993Z" fill="#4B1FBD"/>
<mask id="mask6" mask-type="alpha" maskUnits="userSpaceOnUse" x="65" y="625" width="33" height="7">
<path d="M65.7304 627.11L68.2499 627.724L70.0989 627.528L70.1083 627.419L81.6213 628.426L81.5069 629.735C81.4674 630.185 81.7999 630.581 82.2497 630.621C82.4666 630.64 82.6712 630.571 82.829 630.445C83.1314 630.693 83.5086 630.857 83.9276 630.893L95.2904 631.888C96.3961 631.984 97.3711 631.166 97.468 630.06L97.6212 628.308C97.7181 627.203 96.9001 626.228 95.7941 626.131L84.4313 625.137C84.025 625.101 83.6368 625.19 83.3031 625.37C83.1683 625.202 82.9678 625.085 82.7356 625.065C82.2862 625.026 81.89 625.358 81.8505 625.808L81.7408 627.066L70.2279 626.059L70.2377 625.951L68.4496 625.446L65.8601 625.633L65.7304 627.11ZM94.7718 630.316C94.7299 630.793 94.3098 631.146 93.8327 631.104L84.9478 630.327C84.471 630.285 84.1182 629.865 84.1599 629.388C84.2016 628.911 84.6219 628.558 85.0992 628.6L93.9839 629.377C94.4611 629.419 94.8139 629.839 94.7718 630.316ZM85.3532 625.697L94.2382 626.474C94.715 626.516 95.0675 626.936 95.026 627.413C94.9843 627.89 94.564 628.243 94.0867 628.201L85.202 627.424C84.7248 627.382 84.3719 626.962 84.4141 626.485C84.4555 626.008 84.8759 625.655 85.3532 625.697Z" fill="white"/>
</mask>
<g mask="url(#mask6)">
<path d="M65.7304 627.11L68.2499 627.724L70.0989 627.528L70.1083 627.419L81.6213 628.426L81.5069 629.735C81.4674 630.185 81.7999 630.581 82.2497 630.621C82.4666 630.64 82.6712 630.571 82.829 630.445C83.1314 630.693 83.5086 630.857 83.9276 630.893L95.2904 631.888C96.3961 631.984 97.3711 631.166 97.468 630.06L97.6212 628.308C97.7181 627.203 96.9001 626.228 95.7941 626.131L84.4313 625.137C84.025 625.101 83.6368 625.19 83.3031 625.37C83.1683 625.202 82.9678 625.085 82.7356 625.065C82.2862 625.026 81.89 625.358 81.8505 625.808L81.7408 627.066L70.2279 626.059L70.2377 625.951L68.4496 625.446L65.8601 625.633L65.7304 627.11ZM94.7718 630.316C94.7299 630.793 94.3098 631.146 93.8327 631.104L84.9478 630.327C84.471 630.285 84.1182 629.865 84.1599 629.388C84.2016 628.911 84.6219 628.558 85.0992 628.6L93.9839 629.377C94.4611 629.419 94.8139 629.839 94.7718 630.316ZM85.3532 625.697L94.2382 626.474C94.715 626.516 95.0675 626.936 95.026 627.413C94.9843 627.89 94.564 628.243 94.0867 628.201L85.202 627.424C84.7248 627.382 84.3719 626.962 84.4141 626.485C84.4555 626.008 84.8759 625.655 85.3532 625.697Z" fill="#D6D6D6"/>
<path d="M80.3782 633.592L96.9702 636.518L99.1082 624.393L82.5161 621.467L80.3782 633.592Z" fill="url(#paint51_linear)"/>
</g>
<path opacity="0.2" d="M135.436 691.018C151.312 690.741 164.156 689.056 164.124 687.254C164.093 685.452 151.198 684.216 135.322 684.493C119.447 684.771 106.603 686.456 106.634 688.258C106.666 690.06 119.561 691.296 135.436 691.018Z" fill="url(#paint52_linear)"/>
<path d="M141.676 682.982C141.763 682.758 141.562 682.532 141.332 682.594L139.309 683.136C138.351 683.392 137.364 682.823 137.103 681.862L136.77 680.618C136.513 679.659 137.083 678.673 138.043 678.412L140.066 677.87C140.296 677.809 140.357 677.512 140.17 677.362C138.997 676.432 137.416 676.046 135.858 676.466C134.333 676.875 133.168 677.964 132.604 679.323C132.358 679.922 131.848 680.369 131.225 680.536L116.109 684.586C114.957 684.895 114.28 686.077 114.589 687.228C114.897 688.379 116.079 689.067 117.226 688.756L132.346 684.708C132.969 684.541 133.634 684.673 134.147 685.069C135.31 685.961 136.864 686.322 138.393 685.916C139.947 685.493 141.127 684.369 141.676 682.982ZM117.094 687.207C116.758 687.297 116.415 687.099 116.325 686.763C116.235 686.427 116.433 686.084 116.769 685.994L132.191 681.861C132.527 681.771 132.87 681.97 132.96 682.306C133.05 682.642 132.852 682.985 132.516 683.075L117.094 687.207Z" fill="url(#paint53_linear)"/>
<path opacity="0.3" d="M56.6879 705.144C78.7077 704.76 96.5178 702.134 96.468 699.28C96.4182 696.425 78.5273 694.423 56.5075 694.807C34.4877 695.191 16.6776 697.817 16.7274 700.671C16.7772 703.526 34.6682 705.528 56.6879 705.144Z" fill="url(#paint54_linear)"/>
<path d="M77.6188 669.784C77.5308 669.525 77.1887 669.474 77.0325 669.697L75.6599 671.657C75.0095 672.586 73.7276 672.812 72.7936 672.163L71.5873 671.318C70.6584 670.668 70.4324 669.386 71.0819 668.452L72.4545 666.491C72.6107 666.268 72.4461 665.964 72.1722 665.97C70.4624 666.018 68.7941 666.841 67.7391 668.354C66.7044 669.832 66.4843 671.642 66.9889 673.244C67.2138 673.95 67.0952 674.717 66.6729 675.32L56.4142 689.971C55.6329 691.086 55.9084 692.619 57.0242 693.4C58.1401 694.181 59.6792 693.915 60.4554 692.8L70.7192 678.148C71.1415 677.545 71.8211 677.172 72.5613 677.142C74.2349 677.069 75.8604 676.243 76.9003 674.764C77.9501 673.252 78.1579 671.402 77.6188 669.784ZM59.2024 691.541C58.9744 691.866 58.5283 691.945 58.2026 691.717C57.8768 691.489 57.7982 691.043 58.0263 690.717L68.4918 675.771C68.7199 675.445 69.166 675.366 69.4917 675.595C69.8174 675.823 69.896 676.269 69.668 676.594L59.2024 691.541Z" fill="#627489"/>
<path d="M76.8988 669.064C76.8108 668.805 76.4688 668.754 76.3125 668.977L74.9399 670.937C74.2895 671.866 73.0076 672.092 72.0736 671.443L70.8673 670.598C69.9384 669.948 69.7124 668.666 70.3619 667.732L71.7345 665.771C71.8908 665.548 71.7261 665.244 71.4523 665.25C69.7424 665.298 68.0741 666.121 67.0192 667.634C65.9844 669.112 65.7643 670.922 66.269 672.524C66.4939 673.23 66.3752 673.997 65.9529 674.6L55.6943 689.251C54.9129 690.366 55.1884 691.899 56.3043 692.68C57.4201 693.461 58.9593 693.195 59.7355 692.08L69.9992 677.428C70.4216 676.825 71.1011 676.452 71.8413 676.422C73.5149 676.349 75.1404 675.523 76.1803 674.044C77.2301 672.532 77.4379 670.682 76.8988 669.064ZM58.4824 690.821C58.2544 691.146 57.8083 691.225 57.4826 690.997C57.1569 690.769 57.0782 690.323 57.3063 689.997L67.7718 675.051C67.9999 674.725 68.446 674.646 68.7717 674.875C69.0974 675.103 69.1761 675.549 68.948 675.874L58.4824 690.821Z" fill="url(#paint55_linear)"/>
<path d="M58.2455 661.192L54.7117 661.878L59.1766 684.849L62.7105 684.162L58.2455 661.192Z" fill="url(#paint56_linear)"/>
<path d="M55.651 691.92C60.1245 691.92 63.751 688.294 63.751 683.82C63.751 679.347 60.1245 675.72 55.651 675.72C51.1775 675.72 47.551 679.347 47.551 683.82C47.551 688.294 51.1775 691.92 55.651 691.92Z" fill="url(#paint57_linear)"/>
<path d="M53.851 690.12C57.3304 690.12 60.151 687.299 60.151 683.82C60.151 680.341 57.3304 677.52 53.851 677.52C50.3716 677.52 47.551 680.341 47.551 683.82C47.551 687.299 50.3716 690.12 53.851 690.12Z" fill="#F6C79D"/>
<path d="M40.5935 689.885C45.4993 689.885 49.4762 685.908 49.4762 681.003C49.4762 676.097 45.4993 672.12 40.5935 672.12C35.6878 672.12 31.7109 676.097 31.7109 681.003C31.7109 685.908 35.6878 689.885 40.5935 689.885Z" fill="url(#paint58_linear)"/>
<path d="M37.5279 676.416L41.5741 678.431L42.2803 677.983L49.0413 668.377L48.4671 665.8L45.7372 664.934L44.2359 665.309L37.2928 675.103L37.5279 676.416Z" fill="#E0488C"/>
<path d="M27.2499 692.967L28.5269 690.384L30.0145 688.951L30.1139 689.021L37.4791 678.502L36.283 677.664C35.872 677.376 35.7722 676.81 36.06 676.399C36.1986 676.201 36.4028 676.076 36.6228 676.031C36.6276 675.597 36.7581 675.159 37.0261 674.776L44.2953 664.395C45.0027 663.385 46.3954 663.139 47.4058 663.846L49.0065 664.967C50.0168 665.674 50.2624 667.067 49.5549 668.077L42.2856 678.459C42.0256 678.83 41.6726 679.097 41.281 679.252C41.3285 679.488 41.2843 679.742 41.1356 679.953C40.8481 680.364 40.2821 680.464 39.8712 680.176L38.7217 679.371L31.3567 689.89L31.4557 689.959L30.6081 691.841L28.5993 693.911L27.2499 692.967ZM45.2622 665.958C44.8264 665.653 44.2263 665.759 43.9208 666.195L38.2367 674.312C37.9318 674.748 38.0377 675.349 38.4732 675.654C38.909 675.959 39.5094 675.853 39.815 675.417L45.4987 667.3C45.8042 666.864 45.6983 666.263 45.2622 665.958ZM42.4675 677.274L48.1516 669.157C48.4565 668.721 48.3507 668.121 47.9152 667.816C47.4793 667.51 46.8789 667.616 46.5734 668.052L40.8896 676.17C40.5841 676.605 40.69 677.206 41.1261 677.511C41.5617 677.816 42.1621 677.711 42.4675 677.274Z" fill="#FE68AC"/>
<path fill-rule="evenodd" clip-rule="evenodd" d="M28.7664 681.12H71.671C72.4663 681.12 73.111 681.765 73.111 682.56V693.36C73.111 696.541 70.5322 699.12 67.351 699.12H33.0864C29.9053 699.12 27.3264 696.541 27.3264 693.36V682.56C27.3264 681.765 27.9711 681.12 28.7664 681.12Z" fill="url(#paint59_linear)"/>
<path fill-rule="evenodd" clip-rule="evenodd" d="M29.5511 681.12H61.6557C62.451 681.12 63.0957 681.765 63.0957 682.56V693.36C63.0957 696.541 60.5169 699.12 57.3357 699.12H33.8711C30.6899 699.12 28.1111 696.541 28.1111 693.36V682.56C28.1111 681.765 28.7558 681.12 29.5511 681.12Z" fill="url(#paint60_linear)"/>
<path d="M27.3264 686.88H67.353" stroke="#A189FF" stroke-width="2.16"/>
<path opacity="0.3" d="M281.111 654.143C252.712 653.647 229.727 651.08 229.774 648.408C229.82 645.737 252.88 643.973 281.28 644.468C309.679 644.964 332.663 647.532 332.617 650.203C332.57 652.875 309.51 654.639 281.111 654.143Z" fill="url(#paint61_linear)"/>
<path fill-rule="evenodd" clip-rule="evenodd" d="M280.18 537.248L265.708 533.827C262.322 533.027 258.928 535.123 258.127 538.509C257.998 539.056 257.943 539.617 257.962 540.179L259.673 589.011L275.287 593.122C279.93 594.344 284.684 591.571 285.907 586.928C286.084 586.255 286.18 585.563 286.192 584.867L286.873 545.86C286.944 541.773 284.158 538.188 280.18 537.248Z" fill="url(#paint62_linear)"/>
<mask id="mask7" mask-type="alpha" maskUnits="userSpaceOnUse" x="253" y="538" width="30" height="113">
<path d="M268.729 539.285C274.211 540.608 278.981 542.22 280.25 544.421C280.807 545.387 279.047 550.457 279.452 555.02C279.662 557.39 279.053 564.663 276.933 564.626C276.769 564.624 276.623 564.619 276.493 564.614L276.469 564.613L276.494 564.834C277.201 571.32 277.71 576.496 278.02 580.363L278.217 581.676L278.187 582.598C278.429 586.114 278.448 588.166 278.246 588.753C278.192 588.908 278.106 589.045 277.991 589.165C277.726 598.707 277.619 606.72 277.667 613.204C277.727 621.186 277.035 631.7 275.593 644.747C280.043 646.604 282.275 648.155 282.29 649.402C282.314 651.434 278.524 650.658 275.545 649.44C273.56 648.629 272.398 648.136 272.059 647.963L271.216 647.928C270.678 647.906 270.245 647.479 270.217 646.941L270.106 644.831C270.086 644.803 270.069 644.774 270.055 644.744C267.478 608.614 265.655 590.377 264.584 590.034C263.518 589.692 264.426 607.675 267.31 643.981L267.678 643.965L267.449 647.072C267.409 647.621 266.948 648.044 266.398 648.037L265.491 648.027C265.131 648.183 263.9 648.617 261.797 649.328C258.642 650.394 254.64 650.973 254.705 648.932C254.745 647.639 257.279 646.144 262.307 644.448L262.383 644.744C258.25 628.602 255.778 617.133 254.968 610.338C254.154 603.518 253.781 593.65 253.699 586.468C253.665 586.45 253.633 586.43 253.602 586.409C253.181 586.135 253.228 583.702 253.743 579.109C253.752 578.877 253.761 578.666 253.771 578.476C253.939 575.364 254.221 572.948 254.615 571.227L254.776 571.225C255.316 567.484 256.004 563.053 256.842 557.933C257.452 547.084 258.108 541.411 258.811 540.911C261.253 539.177 263.248 537.961 268.729 539.285ZM276.431 564.258C275.518 564.445 275.497 564.562 276.369 564.608L276.469 564.613L276.431 564.258Z" fill="white"/>
</mask>
<g mask="url(#mask7)">
<path d="M268.729 539.285C274.211 540.608 278.981 542.22 280.25 544.421C280.807 545.387 279.047 550.457 279.452 555.02C279.662 557.39 279.053 564.663 276.933 564.626C276.769 564.624 276.623 564.619 276.493 564.614L276.469 564.613L276.494 564.834C277.201 571.32 277.71 576.496 278.02 580.363L278.217 581.676L278.187 582.598C278.429 586.114 278.448 588.166 278.246 588.753C278.192 588.908 278.106 589.045 277.991 589.165C277.726 598.707 277.619 606.72 277.667 613.204C277.727 621.186 277.035 631.7 275.593 644.747C280.043 646.604 282.275 648.155 282.29 649.402C282.314 651.434 278.524 650.658 275.545 649.44C273.56 648.629 272.398 648.136 272.059 647.963L271.216 647.928C270.678 647.906 270.245 647.479 270.217 646.941L270.106 644.831C270.086 644.803 270.069 644.774 270.055 644.744C267.478 608.614 265.655 590.377 264.584 590.034C263.518 589.692 264.426 607.675 267.31 643.981L267.678 643.965L267.449 647.072C267.409 647.621 266.948 648.044 266.398 648.037L265.491 648.027C265.131 648.183 263.9 648.617 261.797 649.328C258.642 650.394 254.64 650.973 254.705 648.932C254.745 647.639 257.279 646.144 262.307 644.448L262.383 644.744C258.25 628.602 255.778 617.133 254.968 610.338C254.154 603.518 253.781 593.65 253.699 586.468C253.665 586.45 253.633 586.43 253.602 586.409C253.181 586.135 253.228 583.702 253.743 579.109C253.752 578.877 253.761 578.666 253.771 578.476C253.939 575.364 254.221 572.948 254.615 571.227L254.776 571.225C255.316 567.484 256.004 563.053 256.842 557.933C257.452 547.084 258.108 541.411 258.811 540.911C261.253 539.177 263.248 537.961 268.729 539.285ZM276.431 564.258C275.518 564.445 275.497 564.562 276.369 564.608L276.469 564.613L276.431 564.258Z" fill="url(#paint63_linear)"/>
<path fill-rule="evenodd" clip-rule="evenodd" d="M258.333 633.845L267.629 633.845L268.467 649.306L255.778 653.367L251.756 647.978L259.1 640.858L258.333 633.845Z" fill="url(#paint64_linear)"/>
<path fill-rule="evenodd" clip-rule="evenodd" d="M278.786 633.916L269.495 633.591L268.118 649.014L280.658 653.515L284.865 648.27L277.775 640.898L278.786 633.916Z" fill="url(#paint65_linear)"/>
</g>
<g opacity="0.3">
<path opacity="0.3" d="M266.098 542.51C265.103 549.408 264.486 554.606 264.245 558.103C264.004 561.6 264.004 565.374 264.245 569.424" stroke="#431E30" stroke-width="0.63"/>
</g>
<mask id="mask8" mask-type="alpha" maskUnits="userSpaceOnUse" x="260" y="525" width="11" height="18">
<path d="M260.455 525.965L260.307 534.455C260.286 535.67 261.252 536.673 262.467 536.696L265.457 536.754L264.753 540.274L266.051 542.226L270.331 540.274L270.098 535.877L269.632 527.311L260.455 525.965Z" fill="white"/>
</mask>
<g mask="url(#mask8)">
<path d="M260.455 525.965L260.307 534.455C260.286 535.67 261.252 536.673 262.467 536.696L265.457 536.754L264.753 540.274L266.051 542.226L270.331 540.274L270.098 535.877L269.632 527.311L260.455 525.965Z" fill="#DDBAAA"/>
<path opacity="0.3" d="M264.759 536.721L266.098 536.745L263.524 540.659L263.452 538.122L264.759 536.721Z" fill="#462F41"/>
</g>
<mask id="mask9" mask-type="alpha" maskUnits="userSpaceOnUse" x="258" y="523" width="15" height="14">
<path d="M267.1 529.175C267.235 529.709 266.933 530.579 267.068 531.018C267.613 532.789 268.667 535.504 269.326 536.076C270.169 536.809 269.324 536.589 270.156 536.087C270.988 535.585 274.282 528.346 271.506 526.711C271.174 523.844 270.209 523.081 265.261 523.741C263.375 523.993 262.189 523.342 259.188 523.289C256.187 523.237 259.993 527.88 267.1 529.175Z" fill="white"/>
</mask>
<g mask="url(#mask9)">
<path d="M267.1 529.175C267.235 529.709 266.933 530.579 267.068 531.018C267.613 532.789 268.667 535.504 269.326 536.076C270.169 536.809 269.324 536.589 270.156 536.087C270.988 535.585 274.282 528.346 271.506 526.711C271.174 523.844 270.209 523.081 265.261 523.741C263.375 523.993 262.189 523.342 259.188 523.289C256.187 523.237 259.993 527.88 267.1 529.175Z" fill="#02272A"/>
<path opacity="0.8" d="M259.476 526.054L265.704 527.682C268.315 528.365 270.276 530.527 270.702 533.193L271.616 538.921L259.705 536.186L259.476 526.054Z" fill="#000606"/>
<path d="M272.267 526.482C269.319 524.531 265.459 524.186 260.686 525.447C257.18 526.373 254.697 525.254 253.236 522.09L252.86 523.294C259.558 521.953 264.098 521.282 266.48 521.28C268.719 521.278 271.402 521.245 272.337 522.423C272.377 522.474 272.354 523.827 272.267 526.482Z" fill="#063C41"/>
</g>
<path d="M269.828 551.914C270.566 551.927 271.177 551.187 271.193 550.263C271.209 549.338 270.624 548.578 269.887 548.565C269.149 548.552 268.538 549.291 268.522 550.216C268.506 551.141 269.091 551.901 269.828 551.914Z" fill="#DE6350"/>
<path opacity="0.23" d="M276.449 564.266C275.779 560.116 275.842 556.547 276.636 553.561" stroke="white" stroke-width="0.759426" stroke-linecap="round"/>
<path d="M258.463 541.739L250.677 556.739L244.853 551.937C243.696 551.084 242.876 550.657 242.391 550.656C239.505 550.647 237.371 551.937 238.202 552.253C239.033 552.57 241.773 551.462 241.27 553.027C240.936 554.07 241.546 554.716 243.1 554.965C248.584 563.238 251.638 566.812 252.263 565.685C252.887 564.559 254.714 561.577 257.743 556.739L258.463 541.739Z" fill="url(#paint66_linear)"/>
<mask id="mask10" mask-type="alpha" maskUnits="userSpaceOnUse" x="238" y="541" width="21" height="25">
<path d="M258.463 541.739L250.677 556.739L244.853 551.937C243.696 551.084 242.876 550.657 242.391 550.656C239.505 550.647 237.371 551.937 238.202 552.253C239.033 552.57 241.773 551.462 241.27 553.027C240.936 554.07 241.546 554.716 243.1 554.965C248.584 563.238 251.638 566.812 252.263 565.685C252.887 564.559 254.714 561.577 257.743 556.739L258.463 541.739Z" fill="url(#paint67_linear)"/>
</mask>
<g mask="url(#mask10)">
<path fill-rule="evenodd" clip-rule="evenodd" d="M246.908 551.937L244.269 558.073L237.163 556.568L237.163 550.239L244.269 547.948L246.908 551.937Z" fill="url(#paint68_linear)"/>
</g>
<path d="M275.893 569.449L271.504 585.979C269.511 586.271 268.515 586.58 268.515 586.905C268.515 587.393 270.564 587.71 270.443 587.947C269.311 590.166 268.098 591.746 268.515 592.033C268.926 592.315 269.836 591.336 271.244 589.095C270.141 591.12 269.874 592.24 270.443 592.456C271.588 592.892 273.101 591.388 274.981 587.946C278.974 577.731 281.118 572.044 281.413 570.884C281.707 569.723 281.707 562.277 281.413 548.545C280.615 544.752 279.879 542.88 279.205 542.93C278.733 542.965 276.248 542.04 274.981 547.82C274.62 549.463 274.924 556.673 275.893 569.449Z" fill="url(#paint69_linear)"/>
<mask id="mask11" mask-type="alpha" maskUnits="userSpaceOnUse" x="268" y="542" width="14" height="51">
<path d="M275.893 569.449L271.504 585.979C269.511 586.271 268.515 586.58 268.515 586.905C268.515 587.393 270.564 587.71 270.443 587.947C269.311 590.166 268.098 591.746 268.515 592.033C268.926 592.315 269.836 591.336 271.244 589.095C270.141 591.12 269.874 592.24 270.443 592.456C271.588 592.892 273.101 591.388 274.981 587.946C278.974 577.731 281.118 572.044 281.413 570.884C281.707 569.723 281.707 562.277 281.413 548.545C280.615 544.752 279.879 542.88 279.205 542.93C278.733 542.965 276.248 542.04 274.981 547.82C274.62 549.463 274.924 556.673 275.893 569.449Z" fill="url(#paint70_linear)"/>
</mask>
<g mask="url(#mask11)">
<path fill-rule="evenodd" clip-rule="evenodd" d="M272.34 580.834L277.661 584.702L274.075 591.443L270.96 593.826L266.849 592.71L266.849 585.96L269.857 581.724L272.34 580.834Z" fill="url(#paint71_linear)"/>
</g>
<path opacity="0.3" d="M266.426 546.425C257.39 546.267 250.194 538.792 250.352 529.73C250.51 520.667 257.963 513.448 266.999 513.606C276.034 513.763 283.23 521.238 283.072 530.301C282.914 539.364 275.461 546.583 266.426 546.425Z" fill="#FFF4DB"/>
<path opacity="0.5" d="M267.552 517.974C273.912 518.085 278.977 523.34 278.866 529.711" stroke="#FFFAF0" stroke-width="1.48599"/>
<path opacity="0.4" fill-rule="evenodd" clip-rule="evenodd" d="M205.73 456.62H273.14C273.488 456.62 273.77 456.902 273.77 457.25V501.98C273.77 502.328 273.488 502.61 273.14 502.61H205.73C205.382 502.61 205.1 502.328 205.1 501.98V457.25C205.1 456.902 205.382 456.62 205.73 456.62Z" fill="#EDF1FA"/>
<path opacity="0.7" fill-rule="evenodd" clip-rule="evenodd" d="M206.99 456.62H273.14C273.488 456.62 273.77 456.902 273.77 457.25V501.98C273.77 502.328 273.488 502.61 273.14 502.61H206.99C206.642 502.61 206.36 502.328 206.36 501.98V457.25C206.36 456.902 206.642 456.62 206.99 456.62Z" fill="#EDF1FA"/>
<path fill-rule="evenodd" clip-rule="evenodd" d="M273.77 458.762V501.98C273.77 502.328 273.488 502.61 273.14 502.61H245.315C244.967 502.61 244.685 502.328 244.685 501.98C244.685 501.859 244.72 501.741 244.785 501.639L272.61 458.421C272.799 458.129 273.189 458.044 273.481 458.233C273.661 458.349 273.77 458.548 273.77 458.762Z" fill="url(#paint72_linear)"/>
<path d="M214.876 477.179C214.14 477.179 213.582 476.987 213.204 476.603C212.825 476.219 212.636 475.654 212.636 474.907V471.475H213.284V474.963C213.284 475.512 213.417 475.926 213.684 476.203C213.956 476.48 214.353 476.619 214.876 476.619C215.398 476.619 215.793 476.48 216.06 476.203C216.326 475.926 216.46 475.512 216.46 474.963V471.475H217.116V474.907C217.116 475.648 216.924 476.214 216.54 476.603C216.161 476.987 215.606 477.179 214.876 477.179ZM220.329 473.123C221.262 473.123 221.729 473.638 221.729 474.667V477.115H221.081V474.707C221.081 474.344 221.009 474.08 220.865 473.915C220.726 473.75 220.502 473.667 220.193 473.667C219.835 473.667 219.55 473.776 219.337 473.995C219.123 474.214 219.017 474.51 219.017 474.883V477.115H218.369V473.219H219.009V473.859C219.137 473.619 219.315 473.438 219.545 473.315C219.774 473.187 220.035 473.123 220.329 473.123ZM226.18 475.267H223.332C223.353 475.72 223.476 476.064 223.7 476.299C223.924 476.528 224.241 476.643 224.652 476.643C225.105 476.643 225.521 476.488 225.9 476.179L226.116 476.651C225.945 476.811 225.726 476.939 225.46 477.035C225.193 477.126 224.921 477.171 224.644 477.171C224.036 477.171 223.556 476.992 223.204 476.635C222.857 476.278 222.684 475.784 222.684 475.155C222.684 474.755 222.761 474.403 222.916 474.099C223.07 473.79 223.286 473.55 223.564 473.379C223.846 473.208 224.166 473.123 224.524 473.123C225.041 473.123 225.446 473.294 225.74 473.635C226.033 473.971 226.18 474.435 226.18 475.027V475.267ZM224.532 473.627C224.19 473.627 223.916 473.734 223.708 473.947C223.505 474.16 223.385 474.462 223.348 474.851H225.612C225.601 474.456 225.502 474.155 225.316 473.947C225.129 473.734 224.868 473.627 224.532 473.627ZM230.552 477.115H229.768L228.552 475.595L227.344 477.115H226.552L228.168 475.107L226.648 473.219H227.432L228.552 474.635L229.672 473.219H230.464L228.936 475.107L230.552 477.115ZM233.18 473.123C233.522 473.123 233.823 473.208 234.084 473.379C234.346 473.55 234.548 473.79 234.692 474.099C234.836 474.403 234.908 474.758 234.908 475.163C234.908 475.568 234.836 475.923 234.692 476.227C234.548 476.526 234.346 476.758 234.084 476.923C233.828 477.088 233.527 477.171 233.18 477.171C232.876 477.171 232.61 477.104 232.38 476.971C232.156 476.838 231.986 476.648 231.868 476.403V478.555H231.22V473.219H231.868V473.891C231.986 473.646 232.156 473.456 232.38 473.323C232.61 473.19 232.876 473.123 233.18 473.123ZM233.052 476.635C233.431 476.635 233.724 476.507 233.932 476.251C234.14 475.995 234.244 475.632 234.244 475.163C234.244 474.694 234.14 474.328 233.932 474.067C233.724 473.8 233.431 473.667 233.052 473.667C232.674 473.667 232.38 473.795 232.172 474.051C231.97 474.307 231.868 474.672 231.868 475.147C231.868 475.622 231.97 475.99 232.172 476.251C232.38 476.507 232.674 476.635 233.052 476.635ZM239.141 475.267H236.293C236.314 475.72 236.437 476.064 236.661 476.299C236.885 476.528 237.202 476.643 237.613 476.643C238.066 476.643 238.482 476.488 238.861 476.179L239.077 476.651C238.906 476.811 238.687 476.939 238.421 477.035C238.154 477.126 237.882 477.171 237.605 477.171C236.997 477.171 236.517 476.992 236.165 476.635C235.818 476.278 235.645 475.784 235.645 475.155C235.645 474.755 235.722 474.403 235.877 474.099C236.031 473.79 236.247 473.55 236.525 473.379C236.807 473.208 237.127 473.123 237.485 473.123C238.002 473.123 238.407 473.294 238.701 473.635C238.994 473.971 239.141 474.435 239.141 475.027V475.267ZM237.493 473.627C237.151 473.627 236.877 473.734 236.669 473.947C236.466 474.16 236.346 474.462 236.309 474.851H238.573C238.562 474.456 238.463 474.155 238.277 473.947C238.09 473.734 237.829 473.627 237.493 473.627ZM241.743 477.171C241.359 477.171 241.026 477.088 240.743 476.923C240.461 476.758 240.242 476.526 240.087 476.227C239.938 475.923 239.863 475.568 239.863 475.163C239.863 474.758 239.941 474.403 240.095 474.099C240.255 473.79 240.477 473.55 240.759 473.379C241.047 473.208 241.383 473.123 241.767 473.123C242.029 473.123 242.285 473.171 242.535 473.267C242.786 473.358 242.989 473.48 243.143 473.635L242.927 474.115C242.559 473.816 242.186 473.667 241.807 473.667C241.407 473.667 241.095 473.798 240.871 474.059C240.647 474.32 240.535 474.688 240.535 475.163C240.535 475.632 240.647 475.995 240.871 476.251C241.095 476.507 241.407 476.635 241.807 476.635C242.186 476.635 242.559 476.486 242.927 476.187L243.143 476.667C242.978 476.822 242.77 476.944 242.519 477.035C242.269 477.126 242.01 477.171 241.743 477.171ZM245.643 476.651C245.761 476.651 245.878 476.643 245.995 476.627L245.963 477.139C245.841 477.16 245.707 477.171 245.563 477.171C245.094 477.171 244.739 477.048 244.499 476.803C244.265 476.558 244.147 476.216 244.147 475.779V473.731H243.387V473.219H244.147V472.035H244.795V473.219H245.899V473.731H244.795V475.731C244.795 476.344 245.078 476.651 245.643 476.651ZM249.914 475.267H247.066C247.087 475.72 247.21 476.064 247.434 476.299C247.658 476.528 247.975 476.643 248.386 476.643C248.839 476.643 249.255 476.488 249.634 476.179L249.85 476.651C249.679 476.811 249.461 476.939 249.194 477.035C248.927 477.126 248.655 477.171 248.378 477.171C247.77 477.171 247.29 476.992 246.938 476.635C246.591 476.278 246.418 475.784 246.418 475.155C246.418 474.755 246.495 474.403 246.65 474.099C246.805 473.79 247.021 473.55 247.298 473.379C247.581 473.208 247.901 473.123 248.258 473.123C248.775 473.123 249.181 473.294 249.474 473.635C249.767 473.971 249.914 474.435 249.914 475.027V475.267ZM248.266 473.627C247.925 473.627 247.65 473.734 247.442 473.947C247.239 474.16 247.119 474.462 247.082 474.851H249.346C249.335 474.456 249.237 474.155 249.05 473.947C248.863 473.734 248.602 473.627 248.266 473.627ZM254.325 471.475V477.115H253.677V476.403C253.559 476.648 253.386 476.838 253.157 476.971C252.933 477.104 252.669 477.171 252.365 477.171C252.023 477.171 251.722 477.086 251.461 476.915C251.199 476.744 250.997 476.507 250.853 476.203C250.709 475.894 250.637 475.536 250.637 475.131C250.637 474.731 250.709 474.379 250.853 474.075C250.997 473.771 251.199 473.536 251.461 473.371C251.722 473.206 252.023 473.123 252.365 473.123C252.669 473.123 252.933 473.19 253.157 473.323C253.386 473.456 253.559 473.646 253.677 473.891V471.475H254.325ZM252.493 476.635C252.871 476.635 253.162 476.507 253.365 476.251C253.573 475.99 253.677 475.622 253.677 475.147C253.677 474.672 253.573 474.307 253.365 474.051C253.162 473.795 252.871 473.667 252.493 473.667C252.114 473.667 251.818 473.795 251.605 474.051C251.397 474.307 251.293 474.667 251.293 475.131C251.293 475.606 251.397 475.976 251.605 476.243C251.818 476.504 252.114 476.635 252.493 476.635ZM212.676 481.475H216.244V482.019H213.324V483.979H216.084V484.523H213.324V486.571H216.244V487.115H212.676V481.475ZM219.444 483.683L219.02 483.723C218.62 483.76 218.329 483.886 218.148 484.099C217.972 484.312 217.884 484.576 217.884 484.891V487.115H217.236V483.219H217.868V483.899C218.087 483.446 218.516 483.192 219.156 483.139L219.388 483.123L219.444 483.683ZM222.264 483.683L221.84 483.723C221.44 483.76 221.15 483.886 220.968 484.099C220.792 484.312 220.704 484.576 220.704 484.891V487.115H220.056V483.219H220.688V483.899C220.907 483.446 221.336 483.192 221.976 483.139L222.208 483.123L222.264 483.683ZM224.414 487.171C224.046 487.171 223.721 487.088 223.438 486.923C223.161 486.758 222.945 486.523 222.79 486.219C222.641 485.91 222.566 485.552 222.566 485.147C222.566 484.742 222.641 484.387 222.79 484.083C222.945 483.774 223.161 483.536 223.438 483.371C223.721 483.206 224.046 483.123 224.414 483.123C224.782 483.123 225.108 483.206 225.39 483.371C225.673 483.536 225.889 483.774 226.038 484.083C226.193 484.387 226.27 484.742 226.27 485.147C226.27 485.552 226.193 485.91 226.038 486.219C225.889 486.523 225.673 486.758 225.39 486.923C225.108 487.088 224.782 487.171 224.414 487.171ZM224.414 486.635C224.798 486.635 225.092 486.51 225.294 486.259C225.502 486.003 225.606 485.632 225.606 485.147C225.606 484.672 225.502 484.307 225.294 484.051C225.086 483.79 224.793 483.659 224.414 483.659C224.036 483.659 223.742 483.79 223.534 484.051C223.326 484.307 223.222 484.672 223.222 485.147C223.222 485.627 223.324 485.995 223.526 486.251C223.734 486.507 224.03 486.635 224.414 486.635ZM229.444 483.683L229.02 483.723C228.62 483.76 228.329 483.886 228.148 484.099C227.972 484.312 227.884 484.576 227.884 484.891V487.115H227.236V483.219H227.868V483.899C228.087 483.446 228.516 483.192 229.156 483.139L229.388 483.123L229.444 483.683Z" fill="#090A2B"/>
<path d="M210.455 461.715C211.007 461.715 211.455 461.267 211.455 460.715C211.455 460.163 211.007 459.715 210.455 459.715C209.903 459.715 209.455 460.163 209.455 460.715C209.455 461.267 209.903 461.715 210.455 461.715Z" fill="#090A2B"/>
<path opacity="0.4" d="M214.235 461.715C214.787 461.715 215.235 461.267 215.235 460.715C215.235 460.163 214.787 459.715 214.235 459.715C213.683 459.715 213.235 460.163 213.235 460.715C213.235 461.267 213.683 461.715 214.235 461.715Z" fill="#090A2B"/>
<path opacity="0.4" d="M218.015 461.715C218.567 461.715 219.015 461.267 219.015 460.715C219.015 460.163 218.567 459.715 218.015 459.715C217.463 459.715 217.015 460.163 217.015 460.715C217.015 461.267 217.463 461.715 218.015 461.715Z" fill="#090A2B"/>
<g opacity="0.5">
<path opacity="0.7" fill-rule="evenodd" clip-rule="evenodd" d="M230.92 437.09H263.68C264.028 437.09 264.31 437.372 264.31 437.72V459.77C264.31 460.118 264.028 460.4 263.68 460.4H230.92C230.572 460.4 230.29 460.118 230.29 459.77V437.72C230.29 437.372 230.572 437.09 230.92 437.09Z" fill="#EDF1FA"/>
<path opacity="0.5" d="M252.97 455.36H241.63V456.62H252.97V455.36Z" fill="white"/>
<g opacity="0.5">
<path opacity="0.5" d="M239.11 450.68C241.335 446.659 243.203 445.489 244.715 447.169C246.983 449.69 249.228 450.211 250.882 448.568C251.985 447.473 252.793 446.553 253.307 445.809" stroke="white" stroke-width="0.882"/>
<path opacity="0.5" d="M254.291 445.91C254.987 445.91 255.551 445.346 255.551 444.65C255.551 443.954 254.987 443.39 254.291 443.39C253.595 443.39 253.031 443.954 253.031 444.65C253.031 445.346 253.595 445.91 254.291 445.91Z" stroke="white" stroke-width="0.882"/>
</g>
</g>
<path opacity="0.4" fill-rule="evenodd" clip-rule="evenodd" d="M218.5 542.57H238.03C238.378 542.57 238.66 542.852 238.66 543.2V555.8C238.66 556.148 238.378 556.43 238.03 556.43H218.5C218.152 556.43 217.87 556.148 217.87 555.8V543.2C217.87 542.852 218.152 542.57 218.5 542.57Z" fill="#EDF1FA"/>
<path d="M226.06 546.35H221.02V547.61H226.06V546.35Z" fill="white"/>
<path opacity="0.3" d="M229.84 549.5H221.02V550.76H229.84V549.5Z" fill="white"/>
<g opacity="0.5">
<path opacity="0.5" fill-rule="evenodd" clip-rule="evenodd" d="M229.12 516.2H244.24C244.638 516.2 244.96 516.522 244.96 516.92V527.72C244.96 528.118 244.638 528.44 244.24 528.44H229.12C228.723 528.44 228.4 528.118 228.4 527.72V516.92C228.4 516.522 228.723 516.2 229.12 516.2Z" fill="#EDF1FA"/>
<path opacity="0.5" d="M236.68 524.84C238.072 524.84 239.2 523.712 239.2 522.32C239.2 520.928 238.072 519.8 236.68 519.8C235.288 519.8 234.16 520.928 234.16 522.32C234.16 523.712 235.288 524.84 236.68 524.84Z" fill="white"/>
</g>
<g opacity="0.5">
<path opacity="0.5" fill-rule="evenodd" clip-rule="evenodd" d="M181.6 499.1H194.83C195.178 499.1 195.46 499.382 195.46 499.73V509.18C195.46 509.528 195.178 509.81 194.83 509.81H181.6C181.252 509.81 180.97 509.528 180.97 509.18V499.73C180.97 499.382 181.252 499.1 181.6 499.1Z" fill="#EDF1FA"/>
</g>
<path opacity="0.3" d="M268.144 711.775C280.373 711.775 290.287 709.995 290.287 707.799C290.287 705.603 280.373 703.823 268.144 703.823C255.914 703.823 246 705.603 246 707.799C246 709.995 255.914 711.775 268.144 711.775Z" fill="url(#paint73_linear)"/>
<path d="M271.416 693.187C271.543 693.579 271.487 694.007 271.263 694.354C270.218 695.967 270.679 698.121 272.292 699.166C272.392 699.23 272.494 699.29 272.6 699.343C273.274 699.688 273.541 700.514 273.196 701.188C273.009 701.555 272.666 701.818 272.263 701.904C270.383 702.306 269.186 704.156 269.588 706.035C269.612 706.151 269.643 706.265 269.68 706.378C269.913 707.098 269.518 707.871 268.797 708.104C268.405 708.231 267.976 708.175 267.63 707.95C266.017 706.906 263.863 707.367 262.818 708.98C262.754 709.079 262.694 709.182 262.641 709.287C262.296 709.962 261.47 710.229 260.796 709.884C260.429 709.696 260.166 709.354 260.08 708.95C259.678 707.071 257.828 705.873 255.949 706.276C255.833 706.3 255.719 706.331 255.606 706.367C254.886 706.6 254.113 706.205 253.88 705.485C253.753 705.093 253.809 704.664 254.033 704.318C255.078 702.705 254.617 700.55 253.004 699.506C252.905 699.441 252.802 699.382 252.696 699.328C252.022 698.984 251.755 698.158 252.1 697.484C252.288 697.117 252.63 696.854 253.034 696.767C254.913 696.365 256.111 694.516 255.708 692.637C255.684 692.521 255.653 692.406 255.617 692.294C255.384 691.573 255.779 690.801 256.499 690.568C256.891 690.441 257.32 690.497 257.666 690.721C259.279 691.766 261.434 691.305 262.478 689.692C262.542 689.592 262.602 689.49 262.656 689.384C263 688.71 263.826 688.443 264.5 688.788C264.867 688.975 265.13 689.318 265.216 689.721C265.619 691.601 267.468 692.798 269.347 692.396C269.463 692.371 269.578 692.341 269.69 692.304C270.411 692.071 271.183 692.466 271.416 693.187ZM264.049 697.128C262.747 696.376 261.082 696.822 260.331 698.124C259.579 699.426 260.025 701.09 261.327 701.842C262.629 702.593 264.293 702.147 265.045 700.845C265.796 699.544 265.35 697.879 264.049 697.128Z" fill="url(#paint74_linear)"/>
<path d="M269.805 692.257C269.932 692.649 269.876 693.077 269.652 693.423C268.607 695.037 269.068 697.191 270.681 698.236C270.781 698.3 270.883 698.359 270.989 698.413C271.663 698.758 271.93 699.584 271.585 700.258C271.398 700.625 271.055 700.888 270.652 700.974C268.772 701.376 267.575 703.226 267.977 705.105C268.002 705.221 268.032 705.335 268.069 705.448C268.302 706.168 267.907 706.941 267.186 707.174C266.794 707.301 266.366 707.244 266.02 707.02C264.406 705.976 262.252 706.437 261.207 708.05C261.143 708.149 261.084 708.252 261.03 708.357C260.685 709.031 259.859 709.299 259.185 708.954C258.818 708.766 258.555 708.423 258.469 708.02C258.067 706.141 256.217 704.943 254.338 705.345C254.222 705.37 254.108 705.401 253.995 705.437C253.275 705.67 252.502 705.275 252.269 704.555C252.142 704.163 252.199 703.734 252.423 703.388C253.467 701.775 253.006 699.62 251.393 698.576C251.294 698.511 251.191 698.452 251.086 698.398C250.412 698.054 250.144 697.228 250.489 696.554C250.677 696.187 251.02 695.924 251.423 695.837C253.302 695.435 254.5 693.586 254.098 691.707C254.073 691.591 254.042 691.476 254.006 691.364C253.773 690.643 254.168 689.871 254.888 689.638C255.28 689.511 255.709 689.567 256.055 689.791C257.668 690.836 259.823 690.375 260.867 688.762C260.932 688.662 260.991 688.56 261.045 688.454C261.389 687.78 262.215 687.513 262.889 687.858C263.256 688.045 263.519 688.388 263.606 688.791C264.008 690.671 265.857 691.868 267.736 691.466C267.852 691.441 267.967 691.411 268.079 691.374C268.8 691.141 269.572 691.536 269.805 692.257ZM262.438 696.198C261.136 695.446 259.472 695.892 258.72 697.194C257.969 698.495 258.415 700.16 259.716 700.912C261.018 701.663 262.683 701.217 263.434 699.915C264.186 698.614 263.74 696.949 262.438 696.198Z" fill="url(#paint75_linear)"/>
<path opacity="0.2" d="M325.795 644.112C333.303 643.981 339.364 642.407 339.332 640.596C339.301 638.785 333.189 637.423 325.681 637.554C318.173 637.685 312.112 639.26 312.144 641.07C312.175 642.881 318.287 644.243 325.795 644.112Z" fill="url(#paint76_linear)"/>
<path d="M321.313 640.42C318.53 640.371 316.294 639.204 316.318 637.812C316.342 636.421 318.618 635.332 321.401 635.381C324.184 635.429 326.421 636.597 326.396 637.988C326.372 639.38 324.096 640.468 321.313 640.42Z" stroke="#787671" stroke-width="2.88"/>
<path opacity="0.34" d="M248.12 33.9706C248.672 33.9706 249.12 33.5229 249.12 32.9706C249.12 32.4184 248.672 31.9706 248.12 31.9706C247.568 31.9706 247.12 32.4184 247.12 32.9706C247.12 33.5229 247.568 33.9706 248.12 33.9706Z" fill="white"/>
<path opacity="0.2" d="M209.539 144.985C210.892 144.985 211.989 143.888 211.989 142.535C211.989 141.182 210.892 140.085 209.539 140.085C208.186 140.085 207.089 141.182 207.089 142.535C207.089 143.888 208.186 144.985 209.539 144.985Z" fill="white"/>
<path opacity="0.2" d="M187.539 391.985C189.445 391.985 190.989 390.44 190.989 388.535C190.989 386.629 189.445 385.085 187.539 385.085C185.634 385.085 184.089 386.629 184.089 388.535C184.089 390.44 185.634 391.985 187.539 391.985Z" fill="white"/>
<path opacity="0.1" d="M17.5391 531.985C19.4445 531.985 20.9891 530.44 20.9891 528.535C20.9891 526.629 19.4445 525.085 17.5391 525.085C15.6337 525.085 14.0891 526.629 14.0891 528.535C14.0891 530.44 15.6337 531.985 17.5391 531.985Z" fill="white"/>
<path opacity="0.2" d="M52.0391 405.985C53.1161 405.985 53.9891 405.112 53.9891 404.035C53.9891 402.958 53.1161 402.085 52.0391 402.085C50.9622 402.085 50.0891 402.958 50.0891 404.035C50.0891 405.112 50.9622 405.985 52.0391 405.985Z" fill="white"/>
<path opacity="0.2" d="M314.539 434.985C315.892 434.985 316.989 433.888 316.989 432.535C316.989 431.182 315.892 430.085 314.539 430.085C313.186 430.085 312.089 431.182 312.089 432.535C312.089 433.888 313.186 434.985 314.539 434.985Z" fill="white"/>
<path opacity="0.1" d="M262.039 402.985C263.116 402.985 263.989 402.112 263.989 401.035C263.989 399.958 263.116 399.085 262.039 399.085C260.962 399.085 260.089 399.958 260.089 401.035C260.089 402.112 260.962 402.985 262.039 402.985Z" fill="white"/>
<path opacity="0.2" d="M311.039 45.9847C312.668 45.9847 313.989 44.664 313.989 43.0347C313.989 41.4055 312.668 40.0847 311.039 40.0847C309.41 40.0847 308.089 41.4055 308.089 43.0347C308.089 44.664 309.41 45.9847 311.039 45.9847Z" fill="white"/>
<path opacity="0.2" d="M329.039 173.985C330.116 173.985 330.989 173.112 330.989 172.035C330.989 170.958 330.116 170.085 329.039 170.085C327.962 170.085 327.089 170.958 327.089 172.035C327.089 173.112 327.962 173.985 329.039 173.985Z" fill="white"/>
<path opacity="0.2" d="M9.03911 193.985C10.1161 193.985 10.9891 193.112 10.9891 192.035C10.9891 190.958 10.1161 190.085 9.03911 190.085C7.96215 190.085 7.08911 190.958 7.08911 192.035C7.08911 193.112 7.96215 193.985 9.03911 193.985Z" fill="white"/>
<path opacity="0.2" d="M89.0391 3.98472C90.1161 3.98472 90.9891 3.11167 90.9891 2.03471C90.9891 0.957759 90.1161 0.0847168 89.0391 0.0847168C87.9622 0.0847168 87.0891 0.957759 87.0891 2.03471C87.0891 3.11167 87.9622 3.98472 89.0391 3.98472Z" fill="white"/>
<path opacity="0.2" d="M29.0391 313.985C30.1161 313.985 30.9891 313.112 30.9891 312.035C30.9891 310.958 30.1161 310.085 29.0391 310.085C27.9622 310.085 27.0891 310.958 27.0891 312.035C27.0891 313.112 27.9622 313.985 29.0391 313.985Z" fill="white"/>
<path d="M304.341 338.115C305.017 338.115 305.566 337.567 305.566 336.89C305.566 336.214 305.017 335.665 304.341 335.665C303.664 335.665 303.116 336.214 303.116 336.89C303.116 337.567 303.664 338.115 304.341 338.115Z" fill="white"/>
<path d="M110.685 411.362C111.361 411.362 111.91 410.813 111.91 410.137C111.91 409.46 111.361 408.912 110.685 408.912C110.008 408.912 109.46 409.46 109.46 410.137C109.46 410.813 110.008 411.362 110.685 411.362Z" fill="white"/>
<path d="M160.235 13.1458C160.911 13.1458 161.46 12.5973 161.46 11.9208C161.46 11.2443 160.911 10.6958 160.235 10.6958C159.558 10.6958 159.01 11.2443 159.01 11.9208C159.01 12.5973 159.558 13.1458 160.235 13.1458Z" fill="white"/>
</g>
<defs>
<linearGradient id="paint0_linear" x1="310.301" y1="524.847" x2="363.474" y2="606.335" gradientUnits="userSpaceOnUse">
<stop stop-color="#4B4A98"/>
<stop offset="1" stop-color="#262460"/>
</linearGradient>
<linearGradient id="paint1_linear" x1="311.933" y1="525.11" x2="364.388" y2="605.498" gradientUnits="userSpaceOnUse">
<stop stop-color="#4B4A98"/>
<stop offset="1" stop-color="#262460"/>
</linearGradient>
<linearGradient id="paint2_linear" x1="311.933" y1="525.11" x2="364.388" y2="605.498" gradientUnits="userSpaceOnUse">
<stop stop-color="#4B4A98"/>
<stop offset="1" stop-color="#262460"/>
</linearGradient>
<linearGradient id="paint3_linear" x1="296.245" y1="614.625" x2="377.847" y2="597.351" gradientUnits="userSpaceOnUse">
<stop stop-color="#87F3EC"/>
<stop offset="1" stop-color="#24CFBE"/>
</linearGradient>
<linearGradient id="paint4_linear" x1="22.9702" y1="455.634" x2="7.30127" y2="460.274" gradientUnits="userSpaceOnUse">
<stop stop-color="#F18E78"/>
<stop offset="1" stop-color="#DF5543"/>
</linearGradient>
<linearGradient id="paint5_linear" x1="43.8448" y1="486.131" x2="7.53876" y2="460.459" gradientUnits="userSpaceOnUse">
<stop stop-color="#F18E78"/>
<stop offset="1" stop-color="#DF5543"/>
</linearGradient>
<linearGradient id="paint6_linear" x1="17.1605" y1="471.311" x2="5.31772" y2="472.535" gradientUnits="userSpaceOnUse">
<stop stop-color="#F18E78"/>
<stop offset="1" stop-color="#DF5543"/>
</linearGradient>
<linearGradient id="paint7_linear" x1="40.5756" y1="460.096" x2="11.6282" y2="457.698" gradientUnits="userSpaceOnUse">
<stop stop-color="#F18E78"/>
<stop offset="1" stop-color="#DF5543"/>
</linearGradient>
<linearGradient id="paint8_linear" x1="-76.8114" y1="632.263" x2="482.437" y2="601.535" gradientUnits="userSpaceOnUse">
<stop stop-color="#92A0A2"/>
<stop offset="1" stop-color="#637B7E"/>
</linearGradient>
<linearGradient id="paint9_linear" x1="-272.209" y1="919.435" x2="493.802" y2="896.985" gradientUnits="userSpaceOnUse">
<stop stop-color="#B8C4C6"/>
<stop offset="1" stop-color="#B2AAA8"/>
</linearGradient>
<linearGradient id="paint10_linear" x1="-3.31446" y1="748.639" x2="294.302" y2="664.118" gradientUnits="userSpaceOnUse">
<stop stop-color="#8E8786"/>
<stop offset="1" stop-color="#001E25"/>
</linearGradient>
<linearGradient id="paint11_linear" x1="6.69555" y1="750.124" x2="304.312" y2="665.602" gradientUnits="userSpaceOnUse">
<stop stop-color="#445253"/>
<stop offset="1" stop-color="#656F72"/>
</linearGradient>
<linearGradient id="paint12_linear" x1="180.459" y1="734.474" x2="76.3528" y2="791.325" gradientUnits="userSpaceOnUse">
<stop stop-color="#445253"/>
<stop offset="1" stop-color="#656F72"/>
</linearGradient>
<linearGradient id="paint13_linear" x1="-139.156" y1="659.283" x2="47.1274" y2="646.744" gradientUnits="userSpaceOnUse">
<stop stop-color="#5F6F70" stop-opacity="0"/>
<stop offset="1" stop-color="#251600"/>
</linearGradient>
<linearGradient id="paint14_linear" x1="100.653" y1="636.855" x2="-207.119" y2="605.299" gradientUnits="userSpaceOnUse">
<stop stop-color="#445253"/>
<stop offset="1" stop-color="#656F72"/>
</linearGradient>
<linearGradient id="paint15_linear" x1="34.2364" y1="642.008" x2="-119.549" y2="625.877" gradientUnits="userSpaceOnUse">
<stop stop-color="#445253"/>
<stop offset="1" stop-color="#656F72"/>
</linearGradient>
<linearGradient id="paint16_linear" x1="136.484" y1="597.066" x2="84.9108" y2="605.121" gradientUnits="userSpaceOnUse">
<stop stop-color="#5F6F70" stop-opacity="0"/>
<stop offset="1" stop-color="#251600"/>
</linearGradient>
<linearGradient id="paint17_linear" x1="277.73" y1="586.905" x2="245.492" y2="586.722" gradientUnits="userSpaceOnUse">
<stop stop-color="#5F6F70" stop-opacity="0"/>
<stop offset="1" stop-color="#251600"/>
</linearGradient>
<linearGradient id="paint18_linear" x1="417.185" y1="713.109" x2="326.315" y2="715.938" gradientUnits="userSpaceOnUse">
<stop stop-color="#5F6F70" stop-opacity="0"/>
<stop offset="1" stop-color="#251600"/>
</linearGradient>
<linearGradient id="paint19_linear" x1="462.637" y1="623.123" x2="299.639" y2="612.151" gradientUnits="userSpaceOnUse">
<stop stop-color="#5F6F70" stop-opacity="0"/>
<stop offset="1" stop-color="#251600"/>
</linearGradient>
<linearGradient id="paint20_linear" x1="252.804" y1="603.498" x2="522.105" y2="575.886" gradientUnits="userSpaceOnUse">
<stop stop-color="#445253"/>
<stop offset="1" stop-color="#656F72"/>
</linearGradient>
<linearGradient id="paint21_linear" x1="403.242" y1="615.155" x2="316.615" y2="668.337" gradientUnits="userSpaceOnUse">
<stop stop-color="#445253"/>
<stop offset="1" stop-color="#6F6572"/>
</linearGradient>
<linearGradient id="paint22_linear" x1="388.63" y1="652.347" x2="89.7395" y2="657.206" gradientUnits="userSpaceOnUse">
<stop stop-color="#5F6F70" stop-opacity="0"/>
<stop offset="1" stop-color="#251600"/>
</linearGradient>
<linearGradient id="paint23_linear" x1="188.706" y1="468.093" x2="157.269" y2="583.456" gradientUnits="userSpaceOnUse">
<stop stop-color="#EE59A4"/>
<stop offset="1" stop-color="#331523"/>
</linearGradient>
<linearGradient id="paint24_linear" x1="166.069" y1="596.029" x2="147.761" y2="524.065" gradientUnits="userSpaceOnUse">
<stop stop-color="#4415B8"/>
<stop offset="1" stop-color="#A188FF"/>
</linearGradient>
<linearGradient id="paint25_linear" x1="209.461" y1="564.387" x2="224.565" y2="548.787" gradientUnits="userSpaceOnUse">
<stop stop-color="#4415B8"/>
<stop offset="1" stop-color="#A188FF"/>
</linearGradient>
<linearGradient id="paint26_linear" x1="225.374" y1="647.429" x2="179.005" y2="653.543" gradientUnits="userSpaceOnUse">
<stop stop-color="#0A078A"/>
<stop offset="1" stop-color="#023437"/>
</linearGradient>
<linearGradient id="paint27_linear" x1="162.196" y1="587.797" x2="162.196" y2="644.857" gradientUnits="userSpaceOnUse">
<stop stop-color="#FBFFFE"/>
<stop offset="1" stop-color="#CCC0BD"/>
</linearGradient>
<linearGradient id="paint28_linear" x1="174.707" y1="642.717" x2="172.299" y2="648.779" gradientUnits="userSpaceOnUse">
<stop stop-color="#FBFFFE"/>
<stop offset="1" stop-color="#AC9D98"/>
</linearGradient>
<linearGradient id="paint29_linear" x1="213.678" y1="587.797" x2="213.678" y2="644.857" gradientUnits="userSpaceOnUse">
<stop stop-color="#FBFFFE"/>
<stop offset="1" stop-color="#CCC0BD"/>
</linearGradient>
<linearGradient id="paint30_linear" x1="233.108" y1="642.717" x2="230.7" y2="648.779" gradientUnits="userSpaceOnUse">
<stop stop-color="#FBFFFE"/>
<stop offset="1" stop-color="#AC9D98"/>
</linearGradient>
<linearGradient id="paint31_linear" x1="187.937" y1="480.955" x2="187.937" y2="645.884" gradientUnits="userSpaceOnUse">
<stop stop-color="#FBFFFE"/>
<stop offset="1" stop-color="#CCC0BD"/>
</linearGradient>
<linearGradient id="paint32_linear" x1="188.206" y1="479.122" x2="201.193" y2="589.351" gradientUnits="userSpaceOnUse">
<stop stop-color="#FBFFFE"/>
<stop offset="1" stop-color="#CCC0BD"/>
</linearGradient>
<linearGradient id="paint33_linear" x1="206.367" y1="504.323" x2="184.679" y2="510.414" gradientUnits="userSpaceOnUse">
<stop stop-color="#0A078A"/>
<stop offset="1" stop-color="#023437"/>
</linearGradient>
<linearGradient id="paint34_linear" x1="148.047" y1="526.934" x2="148.047" y2="528.772" gradientUnits="userSpaceOnUse">
<stop stop-color="#FBFFFE"/>
<stop offset="1" stop-color="#CCC0BD"/>
</linearGradient>
<linearGradient id="paint35_linear" x1="146.346" y1="594.974" x2="146.346" y2="596.812" gradientUnits="userSpaceOnUse">
<stop stop-color="#FBFFFE"/>
<stop offset="1" stop-color="#CCC0BD"/>
</linearGradient>
<linearGradient id="paint36_linear" x1="146.346" y1="598.943" x2="146.346" y2="600.781" gradientUnits="userSpaceOnUse">
<stop stop-color="#FBFFFE"/>
<stop offset="1" stop-color="#CCC0BD"/>
</linearGradient>
<linearGradient id="paint37_linear" x1="148.047" y1="530.903" x2="148.047" y2="532.741" gradientUnits="userSpaceOnUse">
<stop stop-color="#FBFFFE"/>
<stop offset="1" stop-color="#CCC0BD"/>
</linearGradient>
<linearGradient id="paint38_linear" x1="118.298" y1="461.045" x2="118.298" y2="487.184" gradientUnits="userSpaceOnUse">
<stop stop-color="#FBFFFE"/>
<stop offset="1" stop-color="#D3D9F2"/>
</linearGradient>
<linearGradient id="paint39_linear" x1="118.279" y1="466.5" x2="118.279" y2="651.961" gradientUnits="userSpaceOnUse">
<stop stop-color="#FBFFFE"/>
<stop offset="1" stop-color="#CCC0BD"/>
</linearGradient>
<linearGradient id="paint40_linear" x1="77.3217" y1="554.571" x2="99.4569" y2="534.68" gradientUnits="userSpaceOnUse">
<stop stop-color="#FFFBEF"/>
<stop offset="1" stop-color="#88654E"/>
</linearGradient>
<linearGradient id="paint41_linear" x1="119.013" y1="534.589" x2="82.8707" y2="532.213" gradientUnits="userSpaceOnUse">
<stop stop-color="white"/>
<stop offset="1" stop-color="#FFE9DB"/>
</linearGradient>
<linearGradient id="paint42_linear" x1="86.1812" y1="500.785" x2="45.6964" y2="545.692" gradientUnits="userSpaceOnUse">
<stop stop-color="#FFFBEF"/>
<stop offset="1" stop-color="#88654E"/>
</linearGradient>
<linearGradient id="paint43_linear" x1="60.3803" y1="538.91" x2="21.3467" y2="613.583" gradientUnits="userSpaceOnUse">
<stop stop-color="#FFFBEF"/>
<stop offset="1" stop-color="#F7D4BD"/>
</linearGradient>
<linearGradient id="paint44_linear" x1="13.8455" y1="579.872" x2="23.4921" y2="602.473" gradientUnits="userSpaceOnUse">
<stop stop-color="#FFFBEF"/>
<stop offset="1" stop-color="#88654E"/>
</linearGradient>
<linearGradient id="paint45_linear" x1="27.5634" y1="602.028" x2="43.1204" y2="621.047" gradientUnits="userSpaceOnUse">
<stop stop-color="#FFFBEF"/>
<stop offset="1" stop-color="#88654E"/>
</linearGradient>
<linearGradient id="paint46_linear" x1="81.1603" y1="547.239" x2="59.2944" y2="550.177" gradientUnits="userSpaceOnUse">
<stop stop-color="#FFFBEF" stop-opacity="0"/>
<stop offset="1" stop-color="#A39085"/>
</linearGradient>
<linearGradient id="paint47_linear" x1="111.895" y1="527.176" x2="105.613" y2="525.382" gradientUnits="userSpaceOnUse">
<stop stop-color="#7D3D5D"/>
<stop offset="1" stop-color="#331523"/>
</linearGradient>
<linearGradient id="paint48_linear" x1="61.6782" y1="549.424" x2="86.744" y2="528.04" gradientUnits="userSpaceOnUse">
<stop stop-color="#FFFBEF"/>
<stop offset="1" stop-color="#88654E"/>
</linearGradient>
<linearGradient id="paint49_linear" x1="70.3596" y1="542.235" x2="89.9458" y2="524.456" gradientUnits="userSpaceOnUse">
<stop stop-color="white"/>
<stop offset="1" stop-color="#FFE9DB"/>
</linearGradient>
<linearGradient id="paint50_linear" x1="114.083" y1="631.75" x2="69.2907" y2="633.671" gradientUnits="userSpaceOnUse">
<stop stop-color="#5F6F70" stop-opacity="0"/>
<stop offset="1" stop-color="#251600"/>
</linearGradient>
<linearGradient id="paint51_linear" x1="97.8433" y1="631.566" x2="77.7446" y2="630.882" gradientUnits="userSpaceOnUse">
<stop stop-color="#4415B8"/>
<stop offset="1" stop-color="#A188FF"/>
</linearGradient>
<linearGradient id="paint52_linear" x1="174.148" y1="687.079" x2="106.713" y2="690.06" gradientUnits="userSpaceOnUse">
<stop stop-color="#5F6F70" stop-opacity="0"/>
<stop offset="1" stop-color="#251600"/>
</linearGradient>
<linearGradient id="paint53_linear" x1="129.137" y1="715.903" x2="132.373" y2="677.178" gradientUnits="userSpaceOnUse">
<stop stop-color="#0A078A"/>
<stop offset="1" stop-color="#023437"/>
</linearGradient>
<linearGradient id="paint54_linear" x1="110.371" y1="699.037" x2="16.8629" y2="703.525" gradientUnits="userSpaceOnUse">
<stop stop-color="#5F6F70" stop-opacity="0"/>
<stop offset="1" stop-color="#251600"/>
</linearGradient>
<linearGradient id="paint55_linear" x1="55.2506" y1="625.263" x2="75.3528" y2="670.581" gradientUnits="userSpaceOnUse">
<stop stop-color="#CED6DF"/>
<stop offset="1" stop-color="#8192A6"/>
</linearGradient>
<linearGradient id="paint56_linear" x1="55.7604" y1="639.166" x2="62.9978" y2="676.399" gradientUnits="userSpaceOnUse">
<stop stop-color="#CAE2FF"/>
<stop offset="1" stop-color="#5B5AE1"/>
</linearGradient>
<linearGradient id="paint57_linear" x1="63.751" y1="691.92" x2="68.5808" y2="662.942" gradientUnits="userSpaceOnUse">
<stop stop-color="#FF895B"/>
<stop offset="1" stop-color="#FFEC9E"/>
</linearGradient>
<linearGradient id="paint58_linear" x1="49.4762" y1="682.391" x2="8.63299" y2="649.89" gradientUnits="userSpaceOnUse">
<stop stop-color="#4415B8"/>
<stop offset="1" stop-color="#A188FF"/>
</linearGradient>
<linearGradient id="paint59_linear" x1="73.111" y1="690.337" x2="38.071" y2="680.19" gradientUnits="userSpaceOnUse">
<stop stop-color="#4415B8"/>
<stop offset="1" stop-color="#A188FF"/>
</linearGradient>
<linearGradient id="paint60_linear" x1="63.0957" y1="690.492" x2="37.0928" y2="680.637" gradientUnits="userSpaceOnUse">
<stop stop-color="#4415B8"/>
<stop offset="1" stop-color="#A188FF"/>
</linearGradient>
<linearGradient id="paint61_linear" x1="211.843" y1="648.095" x2="332.511" y2="652.876" gradientUnits="userSpaceOnUse">
<stop stop-color="#5F6F70" stop-opacity="0"/>
<stop offset="1" stop-color="#251600"/>
</linearGradient>
<linearGradient id="paint62_linear" x1="267.451" y1="499.304" x2="292.656" y2="561.577" gradientUnits="userSpaceOnUse">
<stop stop-color="#FFFBEF"/>
<stop offset="1" stop-color="#88654E"/>
</linearGradient>
<linearGradient id="paint63_linear" x1="269.088" y1="547.569" x2="275.583" y2="639.449" gradientUnits="userSpaceOnUse">
<stop stop-color="#FFFBEF"/>
<stop offset="1" stop-color="#F7D4BD"/>
</linearGradient>
<linearGradient id="paint64_linear" x1="264.821" y1="592.756" x2="255.165" y2="645.024" gradientUnits="userSpaceOnUse">
<stop stop-color="#FFFBEF"/>
<stop offset="1" stop-color="#88654E"/>
</linearGradient>
<linearGradient id="paint65_linear" x1="273.736" y1="592.625" x2="281.562" y2="645.199" gradientUnits="userSpaceOnUse">
<stop stop-color="#FFFBEF"/>
<stop offset="1" stop-color="#88654E"/>
</linearGradient>
<linearGradient id="paint66_linear" x1="259.784" y1="547.606" x2="231.371" y2="564.956" gradientUnits="userSpaceOnUse">
<stop stop-color="white"/>
<stop offset="1" stop-color="#FFE9DB"/>
</linearGradient>
<linearGradient id="paint67_linear" x1="259.784" y1="547.606" x2="231.371" y2="564.956" gradientUnits="userSpaceOnUse">
<stop stop-color="white"/>
<stop offset="1" stop-color="#FFE9DB"/>
</linearGradient>
<linearGradient id="paint68_linear" x1="233.829" y1="541.913" x2="244.366" y2="553.63" gradientUnits="userSpaceOnUse">
<stop stop-color="#FFFBEF"/>
<stop offset="1" stop-color="#88654E"/>
</linearGradient>
<linearGradient id="paint69_linear" x1="273.865" y1="583.122" x2="277.84" y2="600.561" gradientUnits="userSpaceOnUse">
<stop stop-color="white"/>
<stop offset="1" stop-color="#FFE9DB"/>
</linearGradient>
<linearGradient id="paint70_linear" x1="273.865" y1="583.122" x2="277.84" y2="600.561" gradientUnits="userSpaceOnUse">
<stop stop-color="white"/>
<stop offset="1" stop-color="#FFE9DB"/>
</linearGradient>
<linearGradient id="paint71_linear" x1="265.659" y1="573.193" x2="276.17" y2="586.816" gradientUnits="userSpaceOnUse">
<stop stop-color="#FFFBEF"/>
<stop offset="1" stop-color="#88654E"/>
</linearGradient>
<linearGradient id="paint72_linear" x1="265.256" y1="458.132" x2="251.895" y2="500.286" gradientUnits="userSpaceOnUse">
<stop stop-color="white"/>
<stop offset="1" stop-color="white" stop-opacity="0"/>
</linearGradient>
<linearGradient id="paint73_linear" x1="298.009" y1="707.799" x2="246.09" y2="709.994" gradientUnits="userSpaceOnUse">
<stop stop-color="#5F6F70" stop-opacity="0"/>
<stop offset="1" stop-color="#251600"/>
</linearGradient>
<linearGradient id="paint74_linear" x1="265.341" y1="708.677" x2="258.643" y2="663.72" gradientUnits="userSpaceOnUse">
<stop stop-color="#8B7E74"/>
<stop offset="1" stop-color="#CCC0BD"/>
</linearGradient>
<linearGradient id="paint75_linear" x1="271.67" y1="721.838" x2="248.678" y2="680.894" gradientUnits="userSpaceOnUse">
<stop stop-color="#FBFFFE"/>
<stop offset="1" stop-color="#CCC0BD"/>
</linearGradient>
<linearGradient id="paint76_linear" x1="344.073" y1="640.513" x2="312.272" y2="642.876" gradientUnits="userSpaceOnUse">
<stop stop-color="#5F6F70" stop-opacity="0"/>
<stop offset="1" stop-color="#251600"/>
</linearGradient>
<clipPath id="clip0">
<rect width="375" height="739" fill="white"/>
</clipPath>
</defs>
</svg>
