<svg width="32" height="32" viewBox="0 0 32 32" fill="none" xmlns="http://www.w3.org/2000/svg">
<g clip-path="url(#clip0_4403_264)">
<rect width="32" height="32" rx="16" fill="white"/>
<path d="M7.61471 17.5372L8.45951 11.1679L1.11743 6.06711L7.82591 8.33911L9.41055 5.90711L15.1949 2.31287L27.9513 9.34391L28.6118 20.0754L22.9337 27.9781L18.4435 28.6655L20.7667 24.4095V20.3122L19.0771 17.1148L17.3606 15.9781L14.7187 18.7007V21.582L12.6592 23.5109L10.0442 23.8284L8.88191 24.4889L6.98111 23.8809L6.18879 21.0265L7.61471 19.0181V17.5372Z" fill="white"/>
<path d="M19.3408 6.01334C17.9417 5.72278 16.4096 5.80214 16.4096 5.80214C16.4096 5.80214 15.9078 8.1279 12.791 8.7359C12.8179 8.7359 16.9113 10.1362 19.3408 6.01334Z" fill="#94A6C3"/>
<path d="M20.6092 27.1065C22.3001 25.7856 23.5673 23.9616 24.1484 21.8995C24.1753 21.8201 24.4134 21.6883 24.5708 21.582C24.8345 21.4233 25.0995 21.2915 25.152 21.0803C25.2569 20.4723 25.3107 19.8374 25.3107 19.2038C25.3107 18.9657 25.0726 18.7276 24.8345 18.4896C24.6502 18.3308 24.4646 18.1465 24.4646 18.0134C24.2009 15.6083 23.0912 13.3619 21.3209 11.7222L21.1366 11.9078C22.8531 13.5206 23.9628 15.7132 24.2009 18.0403C24.2278 18.2515 24.439 18.4627 24.6502 18.6752C24.8345 18.8339 25.0457 19.072 25.0457 19.1769C25.0457 19.7849 24.9932 20.3929 24.887 21.0009C24.8601 21.1072 24.6233 21.2121 24.4377 21.3184C24.174 21.4502 23.936 21.5833 23.8835 21.7945C23.2499 24.0409 21.7971 25.9968 19.8694 27.2665C20.2124 26.5267 21.2953 24.1216 21.8764 22.9056L21.7715 18.9939L18.4166 15.7427L16.5145 16.0076L14.4281 19.3907C14.4281 19.3907 15.4048 20.6336 14.0326 22.0864C12.686 23.5136 11.6288 23.831 11.6288 23.831L10.6521 23.3024C10.9427 22.9324 11.5238 22.3769 11.9731 22.007C12.7385 21.3721 13.5052 21.3196 13.5052 20.6323C13.5321 19.2051 12 19.6019 12 19.6019L11.4457 20.1305L11.2076 22.0864L10.0454 23.5404L9.91355 23.5136L8.01147 23.0912C8.01147 23.0912 9.17371 22.4832 9.35803 21.7958C9.54363 21.1353 8.98811 18.9414 8.96123 18.8096C8.98811 18.8364 9.51547 19.2857 9.75355 20.0256C10.176 18.862 10.7302 17.7523 10.8889 17.6473C11.0476 17.5411 13.1865 16.4044 13.1865 16.4044L12.4736 18.2784L13.0022 17.9878L14.2707 14.8684C14.2707 14.8684 15.5123 14.2604 16.4364 14.2604C18.1004 14.2336 20.5568 12.1984 19.447 8.55164C19.7644 8.68348 25.2569 11.4329 26.208 16.8243C26.9209 20.974 24.5708 24.8588 20.6092 27.1065Z" fill="#94A6C3"/>
<path d="M14.3232 6.59452C14.9299 5.88028 14.6931 4.823 14.6931 4.823L12.9241 7.43932C12.8973 7.4406 13.5577 7.46748 14.3232 6.59452Z" fill="#0A192B"/>
<path d="M8.38012 20.8947L8.59132 19.8374C8.59132 19.8374 7.71964 21.3708 7.64028 21.582C7.56092 21.8201 7.69276 22.2425 8.03708 22.2169C8.38012 22.19 8.80252 21.6883 8.80252 21.3184C8.8038 20.8422 8.38012 20.8947 8.38012 20.8947Z" fill="#0A192B"/>
<path d="M24.0691 4.08442C24.0691 4.08442 25.3901 4.1369 26.7635 4.29562C23.6736 1.86362 20.7424 1.15066 18.3654 1.15066C15.0899 1.15066 12.8717 2.4985 12.7398 2.57786L13.7702 0.939459C13.7702 0.939459 9.64991 0.542659 8.19711 4.90362C7.82719 3.97818 7.48415 2.63034 7.48415 2.63034C7.48415 2.63034 5.34526 4.50682 6.34878 7.62618C3.89118 6.72762 0.377584 5.48474 0.245744 5.45786C0.0614244 5.43098 0.00766438 5.51034 0.00766438 5.51034C0.00766438 5.51034 -0.0448156 5.5897 0.112624 5.72154C0.403184 5.95962 5.94943 10.0556 7.16415 10.8492C6.90047 11.8003 6.90047 12.2495 7.16415 12.7001C7.53407 13.3081 7.56095 13.6255 7.50719 14.0748C7.45471 14.5241 6.97855 18.4102 6.87359 18.8851C6.76735 19.3612 5.65886 21.0521 5.71134 21.5551C5.76382 22.0569 6.45119 24.1983 7.05791 24.4364C7.50719 24.5951 8.61695 24.9382 9.35551 24.9382C9.61919 24.9382 9.85727 24.8857 9.96351 24.7795C10.4128 24.3827 10.5446 24.3033 10.8621 24.3033C10.8889 24.3033 10.9145 24.3033 10.9414 24.3033C11.0733 24.3033 11.232 24.3302 11.4163 24.3302C11.8387 24.3302 12.3929 24.2508 12.7897 23.8809C13.3709 23.2998 14.3744 22.5062 14.6918 22.1363C15.0873 21.6345 15.2998 20.9471 15.1936 20.2598C15.1142 19.6249 15.4573 19.0707 15.8541 18.5151C16.3558 17.8547 17.28 16.6655 17.28 16.6655C19.1027 18.0403 20.2381 20.1279 20.2381 22.4537C20.2381 26.5766 16.6464 29.9071 12.2086 29.9071C11.5225 29.9071 10.8621 29.8278 10.2016 29.6691C12.2355 30.3833 13.952 30.6214 15.3523 30.6214C18.3373 30.6214 19.9219 29.5372 19.9219 29.5372C19.9219 29.5372 19.3677 30.2515 18.4691 31.0707C18.496 31.0707 18.496 31.0707 18.496 31.0707C23.4355 30.3833 25.8381 26.3129 25.8381 26.3129C25.8381 26.3129 25.6537 27.6339 25.4157 28.5337C31.9923 23.5903 30.8825 17.4054 30.8569 17.1942C30.9094 17.2735 31.5699 18.0671 31.9129 18.4895C32.9689 7.5993 24.0691 4.08442 24.0691 4.08442ZM13.9533 21.4758C13.8483 21.6076 13.399 22.0044 13.0816 22.295C12.7641 22.5855 12.4211 22.8761 12.1574 23.1411C12.0525 23.246 11.84 23.2998 11.5238 23.2998C11.4176 23.2998 11.3126 23.2998 11.2333 23.2998C11.1808 23.2998 11.127 23.2998 11.0745 23.2998C11.0221 23.2998 10.9952 23.2998 10.9696 23.2998C10.8902 23.2998 10.8109 23.2998 10.7315 23.2998C11.1283 22.7711 12.2905 21.5551 12.6861 21.2915C13.1609 20.974 13.399 20.6566 13.1085 20.1023C12.8179 19.5468 12.0525 19.6799 12.0525 19.6799C12.0525 19.6799 12.5017 19.4943 12.8973 19.4943C12.3955 19.3625 11.7619 19.4943 11.4713 19.7849C11.1539 20.0755 11.2064 21.1059 11.0745 21.7676C10.9427 22.455 10.4934 22.798 9.80735 23.4329C9.43743 23.7759 9.17375 23.8822 8.96255 23.8822C8.51327 23.8028 7.98591 23.671 7.61599 23.5391C7.35231 23.1961 6.95551 22.0595 6.85055 21.5833C6.92991 21.3183 7.24735 20.7641 7.40479 20.4467C7.72223 19.8387 7.90654 19.4956 7.95902 19.1782C8.06398 18.7289 8.40831 15.9539 8.54015 14.7903C8.88319 15.2396 9.35935 15.9795 9.25311 16.4556C10.0185 15.3715 9.46431 14.3142 9.20063 13.8918C8.96255 13.4694 8.64638 12.6233 8.91006 11.7247C9.17374 10.8262 10.1248 8.3417 10.1248 8.3417C10.1248 8.3417 10.4422 8.89722 10.8902 8.79098C11.3395 8.68474 14.9581 3.23962 14.9581 3.23962C14.9581 3.23962 15.9347 5.38106 14.9056 6.9401C13.8496 8.49914 12.8192 8.79098 12.8192 8.79098C12.8192 8.79098 14.272 9.05466 15.6185 8.07674C16.1728 9.3721 16.7014 10.7199 16.7283 10.9043C16.6489 11.0899 15.5929 13.6268 15.4867 13.7855C15.4342 13.838 15.0643 13.9443 14.8006 13.9967C14.3513 14.1286 14.0877 14.2079 13.9814 14.2873C13.7971 14.446 12.951 16.7718 12.5555 17.9084C12.0806 18.0403 11.6045 18.3052 11.2614 18.8339C11.447 18.702 12.0269 18.6227 12.4493 18.5689C12.8192 18.542 13.9545 19.15 14.2451 20.2867C14.2451 20.3135 14.2451 20.3135 14.2451 20.3391C14.2976 20.7628 14.1645 21.1583 13.9533 21.4758ZM11.4713 21.7932C11.7081 21.4502 11.6825 20.8678 11.7081 20.6835C11.735 20.4991 11.7875 20.1548 11.9987 20.1023C12.2099 20.0499 12.7117 20.1292 12.7117 20.4991C12.7117 20.8422 12.3417 20.9215 12.0781 21.1596C11.8937 21.3439 11.5238 21.7407 11.4713 21.7932ZM22.0083 16.7449C22.2733 15.3971 22.2989 14.2335 22.2195 13.2825C23.2499 14.6572 23.8835 16.3225 24.0678 18.0403C24.0947 18.2515 24.3059 18.4627 24.5171 18.6751C24.7014 18.8339 24.9126 19.0451 24.9126 19.1769C24.9126 19.7849 24.8601 20.3929 24.7539 21.0009C24.727 21.0803 24.4889 21.2121 24.3046 21.3183C24.0409 21.4502 23.8029 21.5833 23.7504 21.7945C23.1693 23.8297 21.9277 25.6268 20.2637 26.8953C22.7213 24.3302 23.9104 20.1023 22.0083 16.7449ZM20.3443 27.1321C22.0608 25.8111 23.3817 23.9603 23.9629 21.8726C23.9897 21.7932 24.2265 21.6614 24.3853 21.5551C24.6502 21.4233 24.9139 21.2646 24.9664 21.0534C25.0713 20.4454 25.1251 19.8105 25.1251 19.1769C25.1251 18.9388 24.887 18.7007 24.6502 18.4627C24.5184 18.3039 24.3072 18.1196 24.3072 17.9865C24.096 16.0563 23.3305 14.2335 22.1414 12.727C21.6128 9.55514 19.5008 8.57722 19.4483 8.55034C19.5008 8.6297 20.8742 10.6124 19.9232 12.9382C18.9465 15.2908 16.4365 14.9209 16.2253 14.9465C16.0141 14.9465 15.1949 16.0038 14.1657 17.9596C14.0339 17.9071 13.4784 17.7753 12.8448 17.8803C13.3197 16.5593 14.0339 14.6815 14.1657 14.5228C14.2182 14.4703 14.615 14.3641 14.8787 14.2847C15.3805 14.1529 15.6185 14.0735 15.6979 13.9673C15.7504 13.8879 16.0153 13.2799 16.279 12.6463C16.5171 12.6463 17.1238 12.5939 17.1776 12.567C17.2301 12.5145 17.7318 11.2191 17.7318 11.0604C17.7318 10.9286 16.7014 8.36474 16.3059 7.38682C16.4902 7.17562 16.6758 6.91066 16.8601 6.6201C22.2745 7.20122 26.4998 11.8003 26.4998 17.3772C26.4985 21.6614 23.9897 25.3875 20.3443 27.1321Z" fill="#0A192B"/>
<path d="M13.3197 12.8589C13.8214 12.2778 13.5577 11.1936 12.6323 11.0093C12.8704 10.4538 13.2134 9.34399 13.2134 9.34399C13.2134 9.34399 10.519 13.5731 10.2822 13.6525C10.0441 13.7318 9.80733 12.8064 9.80733 12.8064C9.30557 14.7354 10.6521 15.0003 10.8109 14.3923C11.5494 14.2067 12.8179 13.4144 13.3197 12.8589Z" fill="#0A192B"/>
<path d="M11.0221 13.8905L12.3955 11.5378C12.3955 11.5378 13.1879 11.9346 12.7923 12.5682C12.2893 13.3094 11.0221 13.8905 11.0221 13.8905Z" fill="#FFD923"/>
<path d="M28.0038 24.7794C27.6083 25.3081 27.159 25.8636 26.6304 26.3922C30.0377 19.8374 26.7891 13.8367 26.6573 13.5986C26.8953 13.8367 27.1321 14.1004 27.3433 14.3385C29.9584 17.2466 30.2758 21.6076 28.0038 24.7794Z" fill="#D82122"/>
<path d="M31.1731 16.3481C29.984 13.1493 28.2944 10.4281 24.5709 7.96919C20.9792 5.59095 17.1226 5.77527 16.9114 5.80215C16.8845 5.80215 16.8589 5.80215 16.8589 5.80215C16.9907 5.74967 17.1226 5.72279 17.2544 5.69591C18.0723 5.43223 19.1296 5.21975 20.1856 5.08791C22.985 4.69111 25.8112 5.64343 27.7389 7.67863C27.7658 7.70423 27.7658 7.70423 27.7914 7.73111C29.9853 10.0581 31.1206 12.965 31.1731 16.3481Z" fill="#D82122"/>
<path d="M23.726 3.2652C19.7913 2.52536 17.2556 2.89528 15.4329 3.58264C15.3804 3.37144 15.1948 2.94776 15.0374 2.60472C14.4832 3.2652 13.902 4.0588 13.5321 4.56056C12.5286 5.24792 12.1062 5.9084 12.1062 5.9084C12.6873 3.92568 14.3782 2.446 16.4377 2.07608C17.0188 1.97112 17.6524 1.91736 18.3398 1.91736C20.16 1.94296 21.9827 2.39224 23.726 3.2652Z" fill="#D82122"/>
<path d="M9.17249 8.33917C6.08257 8.23293 7.11297 4.63869 7.16545 4.42749C7.16545 4.45437 7.37665 7.25629 9.17249 8.33917Z" fill="#D82122"/>
<path d="M12.2099 1.86365C9.83296 3.29085 10.3078 6.70077 10.3078 6.70077C8.03712 3.23837 12.0256 1.94301 12.2099 1.86365Z" fill="#D82122"/>
<path d="M8.30073 9.29148C8.45945 9.42332 8.61817 9.6614 8.43257 10.0057C8.32633 10.1913 8.16761 10.1644 7.93081 10.0582C7.61337 9.89948 5.71257 8.78972 3.99609 7.65308C5.95065 8.34044 7.93081 9.08028 8.24825 9.239C8.24825 9.23772 8.27513 9.2646 8.30073 9.29148Z" fill="white"/>
</g>
<defs>
<clipPath id="clip0_4403_264">
<rect width="32" height="32" rx="16" fill="white"/>
</clipPath>
</defs>
</svg>
