<svg width="32" height="32" viewBox="0 0 32 32" fill="none" xmlns="http://www.w3.org/2000/svg">
<g clip-path="url(#clip0_4394_98)">
<path d="M16 32C24.8366 32 32 24.8366 32 16C32 7.16344 24.8366 0 16 0C7.16344 0 0 7.16344 0 16C0 24.8366 7.16344 32 16 32Z" fill="#6916FF"/>
<path d="M17.144 6.42398C17.0885 6.38388 17.0495 6.32477 17.0346 6.25787C17.0196 6.19097 17.0298 6.12091 17.063 6.06098C17.1096 6.03113 17.1637 6.01526 17.219 6.01526C17.2744 6.01526 17.3285 6.03113 17.375 6.06098C18.0798 6.35354 18.7177 6.7863 19.25 7.33298C19.553 7.61398 19.807 7.94198 20 8.30298C20.204 8.67098 20.371 9.05598 20.5 9.45498C20.623 9.86798 20.687 10.297 20.688 10.727C20.625 11.152 20.563 13.212 19.375 14.182C19.2238 14.2729 19.0443 14.3046 18.8711 14.271C18.6979 14.2374 18.5433 14.1408 18.437 14C18.3522 13.9004 18.3005 13.7768 18.2894 13.6464C18.2783 13.5161 18.3082 13.3855 18.375 13.273C18.8801 12.4911 19.1591 11.5847 19.1812 10.6541C19.2032 9.72351 18.9675 8.80495 18.5 7.99998C18.1 7.43398 17.646 6.90698 17.144 6.42398ZM15.3 25.006C15.425 25.127 15.425 25.248 15.363 25.309C15.301 25.37 15.175 25.43 15.113 25.369C14.4083 25.0764 13.7704 24.6437 13.238 24.097C12.936 23.8175 12.6825 23.4897 12.488 23.127C12.2844 22.7604 12.117 22.375 11.988 21.976C11.8645 21.5629 11.8012 21.1341 11.8 20.703C11.863 20.279 11.925 18.218 13.113 17.248C13.2642 17.1573 13.4435 17.1258 13.6164 17.1594C13.7894 17.193 13.9439 17.2894 14.05 17.43C14.1411 17.5294 14.1915 17.6592 14.1915 17.794C14.1915 17.9287 14.1411 18.0586 14.05 18.158C13.5452 18.9398 13.2663 19.846 13.2442 20.7764C13.2222 21.7067 13.4578 22.6251 13.925 23.43C14.33 23.997 14.791 24.525 15.3 25.006Z" fill="white" fill-opacity="0.5"/>
<path d="M20.6941 20.006C20.6035 18.8426 20.1435 17.7385 19.3811 16.855C18.6092 16.0793 17.7242 15.4252 16.7561 14.915C15.9116 14.4483 15.116 13.8982 14.3811 13.273C13.7766 12.705 13.3621 11.9643 13.1941 11.152C13.0448 10.3134 13.1514 9.44924 13.5001 8.67203C13.9177 7.80737 14.5166 7.04272 15.2561 6.43003C15.2976 6.39294 15.3262 6.34348 15.3375 6.28893C15.3489 6.23437 15.3424 6.17762 15.3191 6.12703C15.3012 6.09514 15.2764 6.0677 15.2464 6.04678C15.2165 6.02586 15.1822 6.01199 15.1461 6.00621C15.11 6.00044 15.0731 6.00291 15.0381 6.01345C15.0031 6.02398 14.971 6.0423 14.9441 6.06703C13.9481 6.50152 13.1007 7.21751 12.5061 8.12703C11.841 9.08254 11.5295 10.2398 11.6251 11.4C11.6749 11.9862 11.823 12.5599 12.0631 13.097C12.3228 13.6287 12.6598 14.119 13.0631 14.552C13.8577 15.3114 14.7639 15.9447 15.7501 16.43C16.5981 16.87 17.3951 17.399 18.1251 18.006C18.7672 18.5695 19.1883 19.3429 19.3131 20.188C19.4891 21.067 19.3791 21.978 19.0001 22.794C18.5747 23.6531 17.9537 24.4005 17.1871 24.976C17.1617 24.9906 17.1397 25.0104 17.1226 25.034C17.1054 25.0577 17.0935 25.0848 17.0875 25.1134C17.0815 25.142 17.0817 25.1716 17.088 25.2001C17.0943 25.2287 17.1066 25.2556 17.1241 25.279C17.1591 25.343 17.2241 25.389 17.2971 25.4C17.3701 25.411 17.4461 25.39 17.5001 25.34C18.4292 24.8036 19.2377 24.0812 19.8751 23.218C20.4951 22.26 20.7811 21.134 20.6941 20.006Z" fill="white"/>
</g>
<defs>
<clipPath id="clip0_4394_98">
<rect width="32" height="32" fill="white"/>
</clipPath>
</defs>
</svg>
