<svg width="32" height="32" viewBox="0 0 32 32" fill="none" xmlns="http://www.w3.org/2000/svg">
<g clip-path="url(#clip0_4411_400)">
<path d="M32 16C32 7.15517 24.8276 0 16 0C7.15517 0 0 7.15517 0 16C0 24.8276 7.15517 32 16 32C24.8276 32 32 24.8276 32 16Z" fill="url(#paint0_radial_4411_400)"/>
<path d="M26.8793 11C26.8104 11.3965 26.7414 11.5862 26.638 11.7931C26.5345 12.0344 26.4311 12.2931 26.3276 12.8448C26.2931 13.0517 26.2586 13.2241 26.2414 13.362V13.3793C26.2069 13.6034 26.1897 13.7586 26.1035 14.0172C26.0345 14.2413 25.9138 14.6034 25.6207 14.9827C25.3793 15.2931 24.9828 15.8275 24.4483 15.8965C24.3966 15.8965 24.3104 15.8965 24.2586 15.8793C22.7414 15.1034 21.4483 14.5344 21 14.4137C20.4828 14.2586 20.5517 13.1206 20.6035 12.1206C20.638 11.6724 20.6552 11.2413 20.638 10.8793C20.569 9.6034 20.3449 8.22409 19.2414 7.55168C18.5862 7.15513 17.7242 7.03444 16.9138 7.03444C17.069 6.96547 17.2242 6.86202 17.4138 6.75857C17.8966 6.48271 18.4828 6.13788 19.0862 6.06892C19.2759 6.05168 19.4655 6.03444 19.6552 5.99995C20.8449 5.86202 21.8793 5.74133 22.9655 6.12064C23.4655 6.29306 24.4655 6.84478 24.7242 7.37926C24.9138 7.74133 25.2242 8.03444 25.8276 8.6034C26.1552 8.89651 26.3621 9.06892 26.5173 9.20685C26.7414 9.37926 26.7759 9.43099 26.8449 9.55168C27.0517 9.96547 26.9828 10.3965 26.8793 11Z" fill="white"/>
<path d="M21.3793 16.2241C21.4483 16.2413 21.4828 16.3275 21.431 16.3965C21.2759 16.6378 21.0862 16.9827 20.8621 17.3792C20.7586 17.5689 20.6552 17.7585 20.569 17.8965C20.2759 18.3965 20.2586 18.8275 20.2414 19.1551C20.2241 19.5172 20.2069 19.6723 19.9828 19.8103C19.8103 19.9309 19.6207 19.9654 18.3793 20.1551C18.1552 20.1896 18.069 20.2241 17.9828 20.2758C17.9655 20.293 17.931 20.293 17.9138 20.3103C17.8448 20.3447 17.7759 20.2758 17.7759 20.2068C17.7931 20.0344 17.7931 19.8103 17.7931 19.5172V19.4654C17.7931 19.2241 17.7931 19.0172 17.7759 18.862C17.7586 18.5516 17.7586 18.4137 17.8448 18.2758C17.9483 18.1034 18.0345 18.0516 18.1552 17.9654C18.3448 17.8447 18.6034 17.6896 18.9655 17.1723C19.1724 16.8965 19.2069 16.7413 19.2414 16.6206C19.2586 16.5689 19.2586 16.5516 19.4138 16.4309C19.569 16.3103 20.069 15.9309 20.7069 16.0344C20.9138 16.0689 21.1379 16.1378 21.3793 16.2241Z" fill="white"/>
<path d="M16.4311 21.9482C16.3966 21.9827 16.3794 21.9999 16.3276 21.9999C16.1897 21.9999 16.1035 21.9655 16.0518 21.8965C15.9311 21.7413 15.9483 21.431 15.9656 21.2413L16.5 21.1034C16.5345 21.3965 16.5518 21.793 16.4311 21.9482Z" fill="white"/>
<path d="M16.4655 20.0517C16.4483 20.1206 16.4483 20.2068 16.4483 20.3103C16.4483 20.3448 16.4483 20.3792 16.4483 20.4137C16.4483 20.4999 16.4483 20.6379 16.4483 20.7068C16.2759 20.7586 16.1379 20.7586 15.9655 20.7586C15.9655 20.7068 15.9655 20.6206 15.9655 20.5689C15.9655 20.5344 15.9655 20.4827 15.9655 20.4482C15.9655 20.3965 15.9655 20.362 15.9655 20.3103C15.9655 20.2068 15.9655 20.0517 15.9828 19.9999C16.0345 19.9999 16.0862 19.9827 16.1379 19.9655C16.2414 19.9482 16.3965 19.9137 16.4828 19.931C16.4828 19.9655 16.4828 20.0172 16.4655 20.0517Z" fill="white"/>
<path d="M15.5 21.7931C15.4828 22.069 15.3966 22.3965 15.1379 22.4483C15.0172 22.4655 14.9655 22.431 14.931 22.3965C14.7586 22.2414 14.7414 21.7586 14.7586 21.4138C14.8793 21.4138 15.0172 21.3965 15.1897 21.3621C15.2931 21.3448 15.3966 21.3103 15.4828 21.2931C15.5 21.431 15.5172 21.6034 15.5 21.7931Z" fill="white"/>
<path d="M15.3793 20.8275L14.8104 21.0344C14.8448 20.8103 14.8793 20.4999 14.8966 20.293C14.9138 20.1551 14.9483 20.1034 14.9655 20.0861C14.9655 20.0861 14.9828 20.0689 15 20.0689C15 20.0689 15 20.0689 15.0173 20.0689H15.0345L15.3966 20.0516C15.3793 20.224 15.3793 20.6034 15.3793 20.8275Z" fill="white"/>
<path d="M14.4483 20.6552C14.4138 20.7414 14.3794 20.9828 14.3621 21.1552L13.6552 21.1379C13.6897 20.9138 13.7587 20.6897 13.8104 20.5172C13.8794 20.3448 13.9311 20.2069 14 20.1724C14.069 20.1379 14.2242 20.1207 14.3276 20.2069C14.4828 20.3103 14.5173 20.4655 14.4483 20.6552Z" fill="white"/>
<path d="M14.1897 22.8448C14.138 22.9138 14.069 22.9655 14 22.9655C13.9138 22.9828 13.8621 22.9483 13.8104 22.9138C13.5862 22.7069 13.6035 22.0345 13.6207 21.7069C13.9138 21.6379 14.2414 21.5862 14.3966 21.569C14.3966 21.8276 14.4138 22.5345 14.1897 22.8448Z" fill="white"/>
<path d="M13.2586 21.1034C13.2241 21.1896 13.1897 21.2758 13.1724 21.3621C13.0862 21.3965 12.8276 21.3621 12.569 21.3103L12.7414 20.1896C13.0345 20.1034 13.3793 20.0862 13.4483 20.1724C13.569 20.2931 13.3448 20.8621 13.2586 21.1034Z" fill="white"/>
<path d="M12.9311 23C12.7931 23.1724 12.5862 23.2586 12.2931 23.2414C12.0862 23.2414 12.0173 23.1552 11.9828 23.1034C11.8276 22.8448 11.9828 22.2414 12.138 21.8621L13.1035 21.9138C13.1207 21.9827 13.1207 22.069 13.1207 22.1552C13.138 22.4483 13.1035 22.7931 12.9311 23Z" fill="white"/>
<path d="M20.931 14.8447C20.0517 14.6034 20.1379 13.3275 20.2069 12.0861C20.2241 11.6551 20.2586 11.2413 20.2414 10.8965C20.1724 9.74128 19.9827 8.48266 19.0517 7.9137C18.0517 7.31025 16.4138 7.44818 15.4138 7.56887C15.0517 7.67232 14.7069 7.75852 14.431 7.74128C13.8448 7.7068 13.3793 7.46542 12.9655 7.24128C12.6552 7.06887 12.3793 6.9137 12.1034 6.9137C12.0862 6.9137 12.0689 6.9137 12.0689 6.9137C11.2931 6.96542 10.931 7.15508 10.6034 7.44818C10.5172 7.51714 10.4138 7.72404 10.0862 8.67232C9.91378 9.15508 9.89654 9.4137 9.86205 9.65508C9.82757 9.87921 9.81033 10.1206 9.68964 10.4827C9.60343 10.724 9.53447 10.9309 9.48274 11.1378C9.32757 11.6723 9.18964 12.1034 8.81033 12.6206C8.75861 12.6723 8.70688 12.7758 8.63792 12.862C8.55171 12.9999 8.44826 13.1723 8.29309 13.362C8.18964 13.4999 7.9655 14.0171 7.98274 14.1723C7.99998 14.4309 8.08619 14.5861 8.1724 14.7585C8.25861 14.9309 8.3793 15.1378 8.39654 15.4309V15.4827C8.43102 15.9309 8.36205 16.1551 7.51723 16.9137C6.98274 17.3965 6.58619 17.862 6.32757 18.2068C6.31033 18.2413 6.32757 18.2758 6.3793 18.2758C6.39654 18.2758 6.39654 18.2758 6.39654 18.2758C6.41378 18.2758 6.43102 18.2758 6.44826 18.2758C6.4655 18.2758 6.48274 18.2758 6.49999 18.2758C6.51723 18.2758 6.53447 18.2758 6.55171 18.2758C6.75861 18.293 6.9655 18.3792 7.10343 18.5344C7.12067 18.5689 7.1724 18.5689 7.20688 18.5516C7.34481 18.4999 7.49998 18.4999 7.63792 18.5171C7.81033 18.5344 7.99998 18.5861 8.12067 18.7068C8.15516 18.7413 8.20688 18.7585 8.25861 18.7413C8.39654 18.7068 8.55171 18.7068 8.68964 18.7585C8.79309 18.793 8.89654 18.862 8.9655 18.9482C9.01723 18.9999 9.10343 19.0171 9.1724 18.9827C9.20688 18.9654 9.25861 18.9309 9.31033 18.9137C9.49998 18.8447 9.70688 18.8792 9.8793 18.9482C9.9655 18.9827 10.0517 18.9999 10.1379 19.0689C10.2758 19.1723 10.3793 19.3102 10.431 19.4654C10.4655 19.5516 10.5862 19.5861 10.6552 19.5171C10.7931 19.4137 10.8965 19.3965 11 19.4309C11.0517 19.4482 11.0862 19.4827 11.1207 19.5344C11.1724 19.6034 11.2586 19.6723 11.3276 19.6378C11.6207 19.5516 11.9655 19.6034 12.2241 19.7413C12.3103 19.793 12.4138 19.862 12.4655 19.9654V19.9137C12.4655 19.8965 12.4827 19.8792 12.5 19.862L12.5517 19.8447C12.6896 19.793 13.4138 19.5861 13.6896 19.8792C13.7069 19.8965 13.7241 19.8965 13.7414 19.8792C13.7758 19.8447 13.8103 19.8102 13.8276 19.8102C14.0172 19.7068 14.3276 19.6896 14.5345 19.8792C14.569 19.9137 14.6379 19.8965 14.6724 19.862C14.6896 19.8275 14.7069 19.8102 14.7414 19.793C14.8103 19.724 14.9138 19.7068 15.0172 19.7068L15.4138 19.6896C15.5172 19.6896 15.8276 19.6551 15.9138 19.6378H15.931C15.9655 19.6378 16.0172 19.6206 16.0689 19.6034C16.2586 19.5689 16.4827 19.5171 16.6552 19.6034C16.8276 19.6896 16.8103 19.8792 16.7931 20.0516C16.7931 20.1206 16.7758 20.1896 16.7758 20.2585C16.7758 20.293 16.7758 20.3275 16.7758 20.362C16.7758 20.5171 16.7758 20.6551 16.7586 20.7585L16.7758 20.8447C16.7758 20.8447 16.7758 20.8447 16.7758 20.862C16.7931 20.9309 16.8793 20.9827 16.931 20.9309C17.0689 20.8447 17.2069 20.7413 17.2586 20.6723V20.6551C17.2586 20.6378 17.2758 20.6034 17.2931 20.5344C17.3103 20.3792 17.3448 20.0861 17.3448 19.4827C17.3448 19.4482 17.3448 19.4309 17.3448 19.4137C17.3448 19.1896 17.3448 18.9999 17.3276 18.8447C17.3103 18.5171 17.2931 18.2585 17.4655 17.9999C17.6207 17.7413 17.7758 17.6551 17.931 17.5516C18.1034 17.4482 18.2931 17.3275 18.6207 16.8792C18.7758 16.6551 18.7931 16.5689 18.8103 16.4999C18.8448 16.3275 18.8965 16.224 19.1552 16.0516C19.3621 15.8965 19.9655 15.4309 20.7931 15.5689C21.0689 15.6206 21.5 15.7585 21.9483 15.9309C21.9655 15.9309 21.9827 15.9482 22 15.9482H22.0172C22.4138 16.1034 22.7758 16.2758 23.0345 16.4137C23.0862 16.4482 23.1552 16.4309 23.2069 16.3792C23.2931 16.2758 23.3793 16.224 23.4655 16.1551C23.5 16.1378 23.5345 16.1206 23.5517 16.1034C23.569 16.1034 23.5689 16.0861 23.5689 16.0861C23.6379 16.0344 23.6379 15.8965 23.5517 15.862C22.3965 15.293 21.2931 14.9482 20.931 14.8447ZM12.6207 15.1034C12.3448 16.2758 10.5172 17.5861 9.68964 17.5861H9.6724C9.65516 17.5861 9.63792 17.5861 9.63792 17.5861C9.62067 17.5861 9.60343 17.5861 9.58619 17.5689C9.56895 17.5689 9.56895 17.5689 9.55171 17.5689C9.39654 17.5171 9.18964 17.4137 9.03447 17.2585C8.93102 17.1551 8.84481 17.0171 8.81033 16.8965C8.81033 16.8792 8.79309 16.8447 8.79309 16.8275C8.74136 16.6206 8.68964 16.3792 8.86205 15.9654C8.8793 15.9137 8.91378 15.862 8.93102 15.8102C8.93102 15.793 8.94826 15.7758 8.94826 15.7585C8.9655 15.7068 8.98274 15.6723 8.99999 15.6378C9.01723 15.5689 9.05171 15.5171 9.06895 15.4827C9.06895 15.4654 9.08619 15.4482 9.08619 15.4309C9.13792 15.293 9.13792 15.2413 9.15516 15.1896C9.15516 15.1551 9.1724 15.0861 9.18964 15.0171C9.24136 14.793 9.27585 14.6034 9.29309 14.4482C9.32757 14.1551 9.3793 13.8965 9.53447 13.6551C9.56895 13.6206 9.58619 13.5861 9.62067 13.5516C9.63792 13.5344 9.63792 13.5344 9.65516 13.5171C9.6724 13.4999 9.6724 13.4999 9.68964 13.4827C9.72412 13.4482 9.77585 13.4309 9.81033 13.4137C9.82757 13.4137 9.84481 13.3965 9.86205 13.3965C9.89654 13.3792 9.93102 13.3792 9.9655 13.362C10.1207 13.3275 10.2931 13.3275 10.5 13.3447C10.7241 13.362 10.931 13.3965 11.1034 13.4482C11.2586 13.4827 11.3965 13.5344 11.5 13.5861C11.5172 13.5861 11.5172 13.6034 11.5345 13.6034C11.5517 13.6206 11.569 13.6206 11.6034 13.6378C11.6379 13.6551 11.6552 13.6551 11.6896 13.6723C11.7241 13.6896 11.7586 13.7068 11.7931 13.724L11.8276 13.7413C11.9483 13.793 12.0689 13.862 12.1552 13.9309C12.2069 13.9654 12.2414 13.9999 12.2758 14.0344C12.2931 14.0516 12.3103 14.0516 12.3103 14.0689C12.3276 14.0861 12.3276 14.0861 12.3448 14.1034C12.7069 14.4137 12.6896 14.8447 12.6207 15.1034ZM13.4827 10.6378L13.4483 10.8447C13.3621 11.3275 13.1724 11.9827 12.4827 12.1551C11.8103 12.3102 11.6552 12.3447 11.1896 12.3792C11.1724 12.3792 11.1724 12.3792 11.1552 12.3792C10.8103 12.3792 10.1379 12.1551 10.0172 11.6206C9.94826 11.2758 10.1034 11.0171 10.3448 10.6034C10.3793 10.5344 10.431 10.4654 10.4827 10.3792C10.8276 9.81025 10.9483 9.39645 11.0517 9.06887C11.1552 8.74128 11.2414 8.48266 11.4655 8.25852C11.5172 8.2068 11.569 8.15508 11.6379 8.12059C11.6724 8.08611 11.7241 8.06887 11.7758 8.03439C11.8448 7.9999 11.9138 7.98266 11.9827 7.94818C12.1379 7.89645 12.3103 7.87921 12.4655 7.87921C12.7931 7.87921 13.1207 7.96542 13.3448 8.15508C13.4483 8.24128 13.6034 8.39645 13.6896 8.89645C13.7241 9.15508 13.6552 9.62059 13.4827 10.6378ZM18.431 12.0171C18.1896 12.4309 18.0689 12.6551 17.8621 12.8275C17.4483 13.1723 16.9827 13.2413 16.5862 13.2413C16.3103 13.2413 16.069 13.1896 15.9138 13.1723C15.5 13.1034 14.7586 12.9654 14.5 12.362C14.4483 12.2413 14.4483 12.1723 14.4483 12.0689C14.4483 11.9827 14.4483 11.8102 14.3965 11.4482V11.4309C14.3793 11.2585 14.3621 11.0689 14.3965 10.8275V10.793C14.5345 10.0689 14.5862 9.96542 14.6034 9.89646C14.6724 9.75852 14.8448 9.68956 15 9.77577C15.1379 9.84473 15.1896 10.0171 15.1379 10.1551C15.1207 10.1896 15.0862 10.3447 14.9655 10.9137V10.9482C14.931 11.1034 14.9483 11.224 14.9655 11.3792V11.3965C15.0172 11.8102 15.0172 11.9827 15.0172 12.0861C15.0172 12.1034 15.0172 12.1206 15.0172 12.1378V12.1551C15.0689 12.2758 15.1724 12.3447 15.2931 12.4137C15.3793 12.4482 15.4655 12.3792 15.4483 12.293C15.3276 11.6551 15.3276 10.9137 15.569 10.4482C15.6552 10.293 15.7931 10.0516 15.931 9.81025C15.9483 9.79301 15.9655 9.75852 15.9655 9.74128C15.9827 9.72404 15.9827 9.7068 16 9.68956C16.069 9.58611 16.1207 9.4999 16.1724 9.4137C16.1724 9.39645 16.1896 9.39646 16.1896 9.37921L16.2069 9.36197C16.2241 9.34473 16.2241 9.32749 16.2414 9.31025C16.2414 9.31025 16.2414 9.29301 16.2586 9.29301L16.2758 9.27577C16.2758 9.25852 16.2931 9.25852 16.2931 9.24128C16.3448 9.17232 16.3965 9.10335 16.431 9.03439C16.5 8.94818 16.4138 8.84473 16.3276 8.87921C16.0862 8.98266 15.931 9.10335 15.8965 9.12059C15.7758 9.22404 15.5862 9.2068 15.4827 9.06887C15.3793 8.94818 15.3965 8.75852 15.5345 8.65508C15.6896 8.53439 16.4827 7.96542 17.431 8.22404C18.1207 8.4137 18.4655 8.94818 18.6034 9.13783C18.7069 9.29301 19.0517 9.77577 19.0345 10.4654C19.0345 10.9654 18.8276 11.3447 18.431 12.0171Z" fill="white"/>
<path d="M12.2586 8.48267C12.2069 8.60336 12.1552 8.74129 12.0862 8.89646C11.9483 9.25853 11.7759 9.67232 11.6897 9.82749C11.5517 10.0861 11.4483 10.2585 11.3621 10.3792C11.2586 10.5344 11.1897 10.6551 11.1207 10.8275C11.0172 11.1206 11 11.4482 11.069 11.8103C10.8793 11.793 10.5862 11.6723 10.5517 11.4999C10.5345 11.3792 10.6035 11.2585 10.8104 10.8965C10.8448 10.8275 10.8966 10.7413 10.9483 10.6723C11.3104 10.0516 11.4655 9.58611 11.569 9.24129C11.6897 8.87922 11.7414 8.72405 11.931 8.58611C12.0517 8.53439 12.1552 8.49991 12.2586 8.48267Z" fill="white"/>
<path d="M11.8965 21.5172C11.6896 21.931 11.4483 22.3103 11.2931 22.4999C11.1552 22.1551 10.931 21.3448 11 20.7068C11 20.6896 11 20.6724 11 20.6551C11.0172 20.4482 11.069 20.2758 11.1724 20.1206C11.2414 20.0172 11.4138 19.9655 11.6034 19.9655C11.7414 19.9655 11.8965 19.9999 12.0345 20.0689C12.1034 20.1034 12.2069 20.1896 12.2069 20.4137C12.2414 20.7241 12.0862 21.1379 11.8965 21.5172Z" fill="white"/>
<path d="M22.9311 16.9138C22.9483 16.931 22.9483 16.9482 22.9483 16.9655C22.8966 17.0862 22.8104 17.1724 22.7242 17.2758C22.6207 17.3965 22.5 17.5344 22.3966 17.7586C22.2414 18.0689 22.1897 18.3448 22.1724 19.0689C22.138 19.9138 22.1724 20.3793 22.2069 20.7241C22.2242 21.0517 22.2414 21.2586 22.1897 21.5862C22.069 22.2413 21.7931 22.6724 21.4311 23.2241C20.9828 23.9138 20.5345 24.6207 19.7759 24.8448C19.7069 24.862 19.7069 24.862 19.5 24.862C19.3276 24.862 19.0345 24.862 18.5 24.8793C17.5 24.9138 17 24.931 16.5862 25.0172C16.138 25.1034 15.9138 25.2069 15.6724 25.2931C15.4655 25.3793 15.2759 25.4482 14.9138 25.5344C14.6897 25.5862 14.3621 25.6207 13.2414 25.6379C12.069 25.6379 11.3621 25.6379 10.4483 25.5344C9.17244 25.3965 8.53451 25.3103 8.10348 25.0862C7.10348 24.5517 6.67244 23.5862 5.98279 22C5.98279 21.9827 6.00003 21.9655 6.01727 21.9655C6.05175 21.9827 6.08624 22 6.12072 22.0172C6.1552 22.0344 6.18968 22.0344 6.20693 22.0344C6.27589 22.0517 6.34486 22.0517 6.41382 22.0344C6.43106 22.0344 6.43106 22.0344 6.44831 22.0172C6.46555 22.0172 6.48279 22.0172 6.48279 22.0344C6.53451 22.1551 6.60348 22.2586 6.72417 22.3276C6.84486 22.3965 6.98279 22.3965 7.10348 22.3965C7.24141 22.3965 7.37934 22.3793 7.51727 22.362C7.58624 22.362 7.6552 22.3965 7.68968 22.4482C7.81037 22.7586 7.96555 22.9655 8.20693 23C8.22417 23 8.24141 23 8.25865 23C8.31037 23 8.39658 22.9827 8.50003 22.9138C8.58624 22.8448 8.72417 22.8965 8.79313 22.9827C8.84486 23.0689 8.91382 23.1207 8.98279 23.1724C9.22417 23.4138 9.81037 23.5344 10.2931 23.5344C10.5518 23.5344 10.7931 23.5 10.9311 23.431C11.138 23.3276 11.138 23.1896 11.1207 23.1207C11.1035 23.0172 11.0862 22.8965 11.069 22.7931C11.069 22.7758 11.0862 22.7758 11.0862 22.7931C11.1207 22.862 11.1552 22.931 11.2414 22.9482C11.2586 22.9482 11.2587 22.9482 11.2759 22.9482C11.4138 22.9482 11.6207 23 11.6552 23.1207C11.6724 23.1896 11.7069 23.2413 11.7414 23.3103C11.8276 23.431 11.9828 23.5862 12.3104 23.6034H12.3276C12.7069 23.6034 13 23.4827 13.1897 23.2413C13.2069 23.2241 13.2069 23.2069 13.2242 23.1896C13.2931 23.0862 13.5 23.0862 13.5862 23.1724C13.6897 23.2586 13.8104 23.3103 13.9483 23.3103C13.9655 23.3103 14 23.3103 14.0173 23.3103C14.1897 23.2931 14.3276 23.2069 14.4483 23.0517C14.5173 22.9482 14.569 22.8276 14.6035 22.6896C14.6207 22.6551 14.6724 22.6379 14.7069 22.6724C14.7759 22.7413 14.8966 22.8103 15.069 22.8103C15.1035 22.8103 15.1552 22.8103 15.2069 22.7931C15.5345 22.7241 15.7069 22.4482 15.7759 22.1551C15.7759 22.1379 15.7931 22.1379 15.7931 22.1551C15.8793 22.2586 16.0345 22.3793 16.2931 22.3793C16.3104 22.3793 16.3276 22.3793 16.3276 22.3793C16.4655 22.3793 16.5862 22.3103 16.6724 22.2069C16.7759 22.0689 16.8104 21.862 16.8276 21.6724C16.8276 21.6207 16.8621 21.5689 16.9311 21.5344C17.2069 21.4138 17.5518 21.1551 17.6552 20.9827C17.6552 20.9827 17.6552 20.9655 17.6724 20.9655C17.6897 20.9138 17.7414 20.8793 17.7759 20.8793C18 20.8448 18.0862 20.7931 18.1724 20.7586C18.2414 20.7241 18.2931 20.7069 18.4655 20.6724C19.7242 20.4827 19.9655 20.431 20.2414 20.2586C20.6552 19.9827 20.6724 19.6034 20.6897 19.2413C20.7069 18.931 20.7242 18.5862 20.9655 18.1724C21.0518 18.0172 21.1552 17.8448 21.2587 17.6379C21.4483 17.2931 21.7069 16.8103 21.8966 16.5517C21.9311 16.5 22 16.4827 22.0518 16.5172C22.4828 16.6724 22.8621 16.8448 22.9311 16.9138Z" fill="white"/>
<path d="M10.6897 20.6723C10.6379 21.1033 10.6034 21.6895 10.6724 22.4482C10.6897 22.6551 10.7241 22.8792 10.7586 23.1033C10.7069 23.1378 10.5172 23.1895 10.2069 23.1723C9.75862 23.1551 9.31034 23.0516 9.17241 22.8964L9.15517 22.8792C9.05172 22.793 8.96552 22.724 8.96552 22.5689C8.96552 22.5171 8.98276 22.4654 9.03448 22.3792C9.06896 22.3447 9.10345 22.293 9.13793 22.224C9.20689 22.1206 9.31034 21.9999 9.41379 21.8275C9.70689 21.3447 9.81034 21.1896 9.94827 20.9999C9.96552 20.9827 9.96552 20.9654 9.98276 20.9482C10.069 20.8447 10.1552 20.7068 10.3103 20.4827C10.4138 20.3275 10.5 20.1896 10.5862 20.0861C10.7069 19.9137 10.7931 19.8275 10.8448 19.7758C10.8448 19.8447 10.8276 19.9482 10.8103 20.0516C10.7414 20.2585 10.7069 20.4482 10.6897 20.6723Z" fill="white"/>
<path d="M10.4655 13.8792C10.4655 13.8965 10.4655 13.8965 10.4655 13.8792C10.3966 13.9654 10.3276 14.0689 10.2414 14.2413C10.0173 14.724 10.0173 14.9999 10.0173 15.224C10.0173 15.3447 10.0173 15.4309 9.98277 15.5344C9.96553 15.6033 9.93105 15.6896 9.87932 15.7758C9.75863 16.0689 9.58622 16.4482 9.65519 16.9654C9.55174 16.9137 9.39657 16.793 9.36208 16.7413C9.36208 16.7068 9.34484 16.6896 9.34484 16.6551C9.31036 16.4999 9.29312 16.3964 9.37932 16.1551C9.65519 15.5344 9.68967 15.3792 9.70691 15.2068C9.70691 15.1723 9.72415 15.1378 9.72415 15.0861C9.77588 14.8447 9.81036 14.6378 9.8276 14.4654C9.86208 14.2068 9.89657 14.0344 9.98277 13.9137C10.0173 13.862 10.1035 13.8447 10.2242 13.8447C10.2759 13.8447 10.3276 13.8447 10.3966 13.862H10.4138C10.4655 13.8792 10.4655 13.8792 10.4655 13.8792Z" fill="white"/>
<path d="M10.1207 20.0344C10.1035 19.8792 10.0862 19.7413 10.0173 19.5861C10.0173 19.5861 10 19.5517 10 19.5344C9.98279 19.5172 9.98279 19.4999 9.96555 19.4827L9.94831 19.4654C9.93107 19.4482 9.93107 19.4482 9.91383 19.4482L9.89659 19.431C9.87934 19.431 9.87934 19.4137 9.8621 19.4137H9.84486C9.75865 19.3792 9.67245 19.3448 9.569 19.3275C9.55176 19.3275 9.53452 19.3275 9.53452 19.3275C9.51728 19.3275 9.51727 19.3275 9.50003 19.3275H9.48279C9.46555 19.3275 9.44831 19.3448 9.41383 19.3448C9.39659 19.3448 9.39659 19.362 9.37934 19.362L9.3621 19.3792C9.34486 19.3965 9.34486 19.3965 9.32762 19.4137L9.31038 19.431V19.4482C9.2759 19.4999 9.24141 19.5517 9.20693 19.6034C9.12072 19.7241 9.03452 19.862 8.94831 19.9827C8.8621 20.1034 8.79314 20.2068 8.70693 20.3275C8.65521 20.3965 8.62072 20.4482 8.569 20.5172C8.569 20.5344 8.55176 20.5344 8.55176 20.5517C8.60348 20.5689 8.65521 20.5689 8.70693 20.5861C8.82762 20.6034 8.94831 20.6206 9.05176 20.6379C9.29314 20.6723 9.55176 20.6896 9.79314 20.6723C9.81038 20.6723 9.81038 20.6723 9.82762 20.6723C9.87934 20.5861 9.96555 20.4827 10.0518 20.3448C10.1035 20.2758 10.1552 20.2068 10.1897 20.1379C10.138 20.1206 10.1207 20.0689 10.1207 20.0344Z" fill="white"/>
<path d="M9.24138 21.0517C9.22414 21.2413 9.01725 21.7241 8.68966 22.1896C8.4138 22.5689 8.24138 22.6723 8.2069 22.6723C8.06897 22.6551 7.94828 22.3275 7.84483 21.9999C7.81035 21.862 7.75862 21.7413 7.74138 21.6206C7.67242 21.3792 7.65518 21.0344 7.67242 20.8275C7.94828 20.9827 8.43104 21.0172 9.12069 21.0172C9.15518 21.0344 9.2069 21.0344 9.24138 21.0517Z" fill="white"/>
<path d="M8.75865 19.5C8.63796 19.6897 8.51727 19.8621 8.39658 20.0345C8.32761 20.1207 8.27589 20.2069 8.20692 20.2931C8.17244 20.3448 8.12072 20.3966 8.08623 20.4483C7.98279 20.431 7.89658 20.3966 7.79313 20.3793C7.70692 20.3621 7.63796 20.3276 7.55175 20.2931C7.53451 20.2931 7.51727 20.2759 7.50003 20.2759C7.48279 20.2586 7.46554 20.2241 7.4483 20.2069C7.48279 20.1552 7.50003 20.0862 7.53451 20.0345C7.58623 19.931 7.63796 19.8276 7.70692 19.7241C7.81037 19.5517 7.93106 19.3621 8.12072 19.2414C8.13796 19.2414 8.13796 19.2241 8.1552 19.2241C8.22417 19.1897 8.29313 19.1552 8.37934 19.1379C8.39658 19.1379 8.4483 19.1379 8.48279 19.1379H8.50003C8.50003 19.1379 8.50003 19.1379 8.51727 19.1379C8.53451 19.1379 8.55175 19.1552 8.58623 19.1552C8.58623 19.1552 8.60348 19.1552 8.60348 19.1724C8.62072 19.1897 8.63796 19.1897 8.6552 19.2069C8.62072 19.1897 8.68968 19.2586 8.68968 19.2414C8.72417 19.3448 8.74141 19.3966 8.75865 19.5Z" fill="white"/>
<path d="M7.82762 18.9999C7.60349 19.1724 7.44831 19.4137 7.32762 19.6724C7.25866 19.8103 7.18969 19.9482 7.12073 20.0861C7.12073 20.1034 7.10349 20.1206 7.10349 20.1206C7.03452 20.1034 6.96555 20.0861 6.91383 20.0689C6.84486 20.0517 6.7759 20.0172 6.70693 19.9999C6.67245 19.9827 6.65521 19.9655 6.62073 19.9482C6.68969 19.8275 6.75866 19.7068 6.84487 19.5861C6.94831 19.431 7.069 19.2586 7.18969 19.1206C7.24142 19.0689 7.29314 18.9999 7.34486 18.9655C7.41383 18.931 7.4828 18.931 7.569 18.9482C7.65521 18.9482 7.74142 18.9482 7.81038 18.9827C7.79314 18.9827 7.81038 18.9999 7.82762 18.9999Z" fill="white"/>
<path d="M7.48275 21.931C7.46551 21.9483 7.46551 21.9483 7.44827 21.9655H7.43102C7.3793 21.9655 7.32758 21.9828 7.27585 21.9828C7.1724 21.9828 7.06896 22 6.96551 21.9828C6.91378 21.9828 6.86206 21.9655 6.82758 21.931C6.79309 21.8793 6.77585 21.7759 6.75861 21.7069C6.68964 21.3276 6.68964 20.9483 6.72413 20.569C6.91378 20.6379 7.12068 20.6897 7.32758 20.7241C7.27585 21.069 7.36206 21.569 7.39654 21.7069C7.44827 21.7759 7.46551 21.8621 7.48275 21.931Z" fill="white"/>
<path d="M6.86209 18.8793C6.68967 19.0862 6.5345 19.3103 6.39657 19.5517C6.34485 19.6379 6.27588 19.7414 6.22416 19.8448C6.15519 19.8276 6.08623 19.7931 6.0345 19.7586C5.98278 19.7241 5.93105 19.6896 5.89657 19.6552C5.87933 19.6379 5.84485 19.6207 5.8276 19.6034C5.8276 19.6034 5.81036 19.6034 5.81036 19.5862C5.82761 19.5345 5.86209 19.5 5.86209 19.4655C5.89657 19.3793 5.93105 19.3103 5.98278 19.2414C6.06898 19.1034 6.15519 18.9655 6.25864 18.8276C6.29312 18.7758 6.3276 18.7241 6.39657 18.7069C6.44829 18.6896 6.51726 18.7069 6.56898 18.7069C6.67243 18.7241 6.77588 18.7931 6.86209 18.8793Z" fill="white"/>
<path d="M5.5345 19.7931C5.55174 19.7758 5.5345 19.7758 5.5345 19.7931C5.60346 19.862 5.65519 19.9138 5.72415 19.9655C5.75863 19.9827 5.77588 20.0172 5.81036 20.0345C5.81036 20.0345 5.81036 20.0345 5.81036 20.0517C5.74139 20.3448 5.68967 20.6552 5.68967 20.9655C5.68967 20.9827 5.67243 20.9827 5.67243 20.9655C5.58622 20.6034 5.48277 20.0172 5.5345 19.7931Z" fill="white"/>
<path d="M6.37931 20.431C6.34483 20.6896 6.32758 20.9483 6.34483 21.2069C6.34483 21.3448 6.36207 21.4827 6.37931 21.6379C6.34483 21.6379 6.31034 21.6379 6.27586 21.6379H6.25862H6.24138C6.20689 21.6207 6.20689 21.6207 6.17241 21.6034C6.13793 21.5862 6.10345 21.5345 6.06896 21.4827C6 21.3621 5.98276 21.2241 5.98276 21.0862C5.96552 20.8276 6 20.5517 6.05172 20.2931C6.0862 20.3103 6.13793 20.3276 6.18965 20.3448C6.25862 20.3793 6.31034 20.4138 6.37931 20.431Z" fill="white"/>
<mask id="mask0_4411_400" style="mask-type:luminance" maskUnits="userSpaceOnUse" x="0" y="0" width="32" height="32">
<path d="M32 16C32 7.15517 24.8276 0 16 0C7.15517 0 0 7.15517 0 16C0 24.8276 7.15517 32 16 32C24.8276 32 32 24.8276 32 16Z" fill="white"/>
</mask>
<g mask="url(#mask0_4411_400)">
<g opacity="0.8">
<path opacity="0.8" d="M13.1724 33.8793C12 33.8793 10.8966 33.8103 9.96553 33.7414L9.70691 33.7241L9.44829 33.6896C9.3276 33.6724 9.18967 33.6551 9.0345 33.6379C8.13795 33.5345 6.46553 33.362 4.6207 32.5L4.3276 32.362L4.06898 32.2069C0.517255 30.2069 -0.79309 27.2241 -1.51723 25.6207C-1.56895 25.5172 -1.62068 25.3965 -1.6724 25.2758C-2.03447 24.5345 -2.25861 23.8793 -2.44826 23.2586L-2.48274 23.1207L-2.51723 22.9827C-3.03447 21.1552 -3.15516 19.5862 -2.93102 18.0172C-2.68964 16.4483 -2.12068 15.0345 -1.10343 13.5345L-0.586193 12.6896C-0.482745 12.5172 -0.413779 12.3276 -0.362055 12.1379C0.0344967 10.1724 0.931049 8.77584 1.37932 8.10343C1.50001 7.29308 1.70691 6.49998 1.98277 5.72412L2.01726 5.60343L2.06898 5.48274C2.06898 5.4655 2.08622 5.43101 2.10346 5.37929C2.31036 4.77584 2.77588 3.37929 3.96553 1.89653L4.41381 1.37929L4.87932 0.965496C6.05174 -0.103469 7.46553 -0.896573 8.98277 -1.34485C9.8276 -1.60347 10.7069 -1.75864 11.6035 -1.81037H11.6897H11.8104C11.9655 -1.81037 12.1207 -1.82761 12.2586 -1.82761C12.8104 -1.82761 13.3621 -1.77588 13.9138 -1.68968C14.2586 -1.63795 14.6035 -1.67243 14.931 -1.81037C15.8793 -2.20692 16.8621 -2.46554 17.8793 -2.60347C17.9655 -2.62071 18.0345 -2.62071 18.1035 -2.63795C18.2586 -2.65519 18.5173 -2.68968 18.8276 -2.72416C19.3621 -2.77588 20.1897 -2.84485 21.069 -2.84485C22.8104 -2.84485 24.3104 -2.62071 25.6552 -2.15519L25.7759 -2.12071L25.8793 -2.08623C28.8448 -0.965538 30.3448 0.603427 31.431 1.9655L31.4828 2.03446L31.6379 2.17239C32.6207 2.93101 33.4483 3.87929 34.1035 4.93101L34.3104 5.2586L34.4828 5.60343C35.931 8.5517 35.4655 11.2931 35.2931 12.3103L35.2759 12.362C35.1552 13.1207 34.9483 13.862 34.6897 14.5862C34.5862 15.2758 34.431 15.9655 34.2069 16.6207C33.8276 17.7931 33.2586 18.9138 32.5345 19.9138C32.1207 20.5 31.6379 21.0689 31.1207 21.5689C30.931 21.7414 30.8104 21.9827 30.7759 22.2414C30.7586 22.3965 30.7242 22.5517 30.7069 22.7069C30.2759 24.9827 29.2931 26.5689 28.8793 27.2069L27.6552 28.9655C26.1724 30.8103 24.4138 32.0172 22.2931 32.6724L21.7759 32.8276L21.2242 32.931C20.5862 33.0517 19.9483 33.1034 19.2931 33.1034C19.2069 33.1034 19.1207 33.1034 19.0173 33.1034H18.9828H18.8793H18.7586C18.5173 33.1034 18.2759 33.1551 18.0345 33.2241C16.6207 33.6724 15.069 33.8793 13.1724 33.8793Z" stroke="url(#paint1_linear_4411_400)" stroke-width="1.0554" stroke-miterlimit="10"/>
<path opacity="0.8" d="M13.1724 32.6551C12.0517 32.6551 10.9655 32.5862 10.069 32.5172L9.86208 32.5L9.65518 32.4655C9.51725 32.4482 9.36208 32.431 9.20691 32.4138C8.3276 32.3275 6.87932 32.1551 5.25863 31.3965L5.01725 31.2758L4.79311 31.1551C1.63794 29.4137 0.482769 26.8103 -0.206886 25.2586C-0.25861 25.1551 -0.310334 25.0172 -0.3793 24.8965C-0.706886 24.2413 -0.913782 23.6206 -1.0862 23.0689L-1.12068 22.9482L-1.15516 22.8448C-1.60344 21.2069 -1.72413 19.8275 -1.51723 18.4655C-1.31033 17.1206 -0.793093 15.862 0.103459 14.5517L0.775873 13.4655C0.896562 13.2758 0.982769 13.0517 1.01725 12.8275C1.34484 10.9655 2.22415 9.65513 2.6207 9.05168L2.67242 8.98272L2.68967 8.94823C2.68967 8.93099 2.70691 8.91375 2.70691 8.89651C2.72415 8.8103 2.75863 8.74134 2.77587 8.67237C2.87932 7.91375 3.06898 7.15513 3.3276 6.43099L3.36208 6.32754L3.39656 6.2241C3.4138 6.18961 3.4138 6.15513 3.44829 6.05168C3.63794 5.48272 4.03449 4.29306 5.06898 3.0172L5.44829 2.56892L5.8276 2.2241C6.84484 1.29306 8.06898 0.603406 9.37932 0.224096C10.1379 -4.20966e-05 10.8966 -0.137973 11.6897 -0.172456H11.7586H11.8621C12 -0.172456 12.1207 -0.189697 12.2414 -0.189697C12.8104 -0.189697 13.3621 -0.34487 13.9138 -0.241421C14.3448 -0.155214 14.7759 -0.206939 15.1724 -0.379352C15.9138 -0.706939 16.9138 -0.827628 18.0517 -0.982801C18.1379 -1.00004 18.2069 -1.00004 18.2586 -1.01728C18.4138 -1.03452 18.6552 -1.06901 18.931 -1.08625C19.431 -1.13797 20.2069 -1.1897 21.0517 -1.1897C22.6379 -1.1897 23.9828 -0.982801 25.1724 -0.586249L25.2759 -0.551766L25.3621 -0.517283C27.9828 0.482717 29.2759 1.79306 30.2931 3.08616C30.3448 3.15513 30.4138 3.2241 30.431 3.25858L30.4483 3.27582L30.6379 3.44823L30.6552 3.48272C31.5345 4.15513 32.2759 4.98272 32.8448 5.91375L33.0173 6.18961L33.1552 6.48272C34.3966 9.0172 34.0173 11.3448 33.8448 12.3275L33.8276 12.3793C33.7069 13.1034 33.5173 13.7931 33.2586 14.4827C33.1724 15.1379 33.0173 15.7931 32.8104 16.4138C32.4655 17.4482 31.9655 18.431 31.3276 19.3275C30.8966 19.9482 30.3793 20.5172 29.8276 21.0172C29.569 21.2586 29.3966 21.5689 29.3621 21.931C29.3276 22.1896 29.2931 22.431 29.2586 22.6896C28.8793 24.7069 28.0173 26.0862 27.6035 26.7069L26.6035 28.1551C25.2759 29.862 23.7069 30.9655 21.8104 31.5517L21.3793 31.6896L20.9138 31.7758C20.3621 31.8793 19.7931 31.931 19.2414 31.9138C19.1552 31.9138 19.069 31.9138 18.9828 31.9138H18.9655H18.9138C18.9138 31.9138 18.8966 31.9138 18.8621 31.9138H18.7586H18.6552H18.4655C18.2069 31.931 17.9483 31.9655 17.6897 32.0517C16.431 32.4655 14.9655 32.6551 13.1724 32.6551Z" stroke="url(#paint2_linear_4411_400)" stroke-width="1.0554" stroke-miterlimit="10"/>
<path opacity="0.8" d="M13.1724 31.2241C12.1035 31.2241 11.0517 31.1551 10.1724 31.0862L10 31.0689L9.82759 31.0517C9.67242 31.0344 9.5 31.0172 9.32759 31C8.5 30.9137 7.24138 30.7758 5.82759 30.1034L5.63793 30.0172L5.46552 29.9137C2.75862 28.3965 1.75862 26.1551 1.10345 24.6724C1.05173 24.5517 0.982762 24.3965 0.931038 24.2758C0.637934 23.6896 0.448279 23.1379 0.293107 22.6206L0.258624 22.5344L0.241383 22.4482C-0.155169 21.0344 -0.258617 19.8275 -0.0862036 18.6896C0.0862102 17.5344 0.551727 16.4482 1.34483 15.2931L1.44828 15.1551L1.55173 15.0172C1.62069 14.931 1.67242 14.8448 1.74138 14.7758L2.13793 14.0344C2.27587 13.7931 2.36207 13.5344 2.39655 13.2586C2.65518 11.6034 3.44828 10.4137 3.81035 9.86202C3.82759 9.82754 3.86207 9.79306 3.87931 9.77581L3.96552 9.65513C4 9.58616 4.03449 9.49995 4.06897 9.3965C4.10345 9.29306 4.15518 9.13788 4.18966 8.99995C4.27586 8.29306 4.44828 7.6034 4.68966 6.93099L4.72414 6.84478L4.75862 6.75857C4.77587 6.68961 4.81035 6.63788 4.84483 6.51719C5.01724 5.98271 5.34483 4.99995 6.22414 3.93099L6.51724 3.56892L6.82759 3.29306C7.68966 2.49995 8.72414 1.93099 9.84483 1.58616C10.5 1.39651 11.1552 1.27582 11.8448 1.24133H11.8966H11.9828C12.0862 1.24133 12.1897 1.24133 12.3103 1.24133C12.8966 1.24133 13.4655 1.3103 14.0345 1.46547C14.5172 1.58616 15.0345 1.53444 15.4828 1.3103C16.2069 0.965471 17.1724 0.586161 18.2931 0.44823C18.3621 0.430988 18.431 0.430988 18.4828 0.413747C18.6207 0.396505 18.8448 0.362023 19.1207 0.344781C19.5862 0.293057 20.3276 0.241333 21.1035 0.241333C22.5172 0.241333 23.7069 0.413747 24.7586 0.775816L24.8276 0.810298L24.8966 0.844781C27.3103 1.75857 28.3793 2.94823 29.2069 3.99995C29.3966 4.22409 29.4138 4.25857 29.5345 4.37926L29.6897 4.51719L29.7414 4.58616C30.1379 4.89651 30.9483 5.53444 31.6552 6.68961L31.7931 6.91375L31.9138 7.13788C32.9655 9.25857 32.6379 11.1896 32.4828 12.1206L32.4655 12.1724C32.3621 12.8448 32.1724 13.5172 31.8966 14.1551V14.2068C31.8276 14.8103 31.6897 15.4137 31.5 15.9827C31.2069 16.8965 30.7759 17.7413 30.2069 18.5172C29.7414 19.1896 29.1724 19.7931 28.5345 20.3103C28.3793 20.431 28.2586 20.5862 28.1724 20.7586C28.0862 20.931 28.0345 21.1206 28.0172 21.3103C28 21.6896 27.9483 22.0689 27.8793 22.4482C27.5517 24.1896 26.7931 25.3965 26.4138 26L25.6379 27.1379C24.4828 28.6896 23.1035 29.6896 21.431 30.2068L21.0862 30.3103L20.7069 30.3793C20.2414 30.4655 19.7586 30.5 19.2759 30.5C19.2069 30.5 19.1207 30.5 19.0345 30.5H19.0172H18.931C18.9138 30.5 18.8793 30.5 18.7931 30.5H18.7069H18.6379L18.2414 30.5172C17.9655 30.5344 17.6897 30.5689 17.431 30.6724C16.2414 31.0517 14.8793 31.2241 13.1724 31.2241Z" stroke="url(#paint3_linear_4411_400)" stroke-width="0.9894" stroke-miterlimit="10"/>
<path opacity="0.8" d="M13.1724 29.7931C12.1552 29.7931 11.138 29.7241 10.2931 29.6552L10.1724 29.6379L10.0518 29.6207C9.87934 29.6034 9.68969 29.5689 9.51728 29.5517C8.74141 29.4655 7.67245 29.3448 6.46555 28.7931L6.32762 28.7241L6.18969 28.6552C3.89659 27.3621 3.05176 25.4655 2.43107 24.0862C2.3621 23.9483 2.29314 23.7931 2.24141 23.6552C1.98279 23.1207 1.81038 22.6207 1.67245 22.1896L1.65521 22.1207L1.60348 22.0689C0.931069 19.6896 1.18969 18.0172 2.50003 16.1034L2.569 16L2.63797 15.8965C2.72417 15.7931 2.81038 15.6724 2.89659 15.5689C3.01728 15.4138 3.13797 15.2414 3.2759 15.0862C3.3621 14.9827 3.43107 14.8621 3.48279 14.7414L3.63797 14.3621C3.70693 14.1896 3.74141 14.0172 3.75865 13.8448C3.89659 12.3103 4.63797 11.2069 5.00003 10.6552C5.03452 10.6207 5.069 10.5517 5.08624 10.5345L5.17245 10.3965L5.20693 10.3621C5.25865 10.2758 5.34486 10.0689 5.41383 9.86205C5.44831 9.72412 5.51728 9.49998 5.58624 9.31033V9.29309C5.65521 8.65516 5.81038 8.01722 6.03452 7.41378L6.05176 7.36205L6.069 7.31033C6.10348 7.20688 6.13796 7.12067 6.17245 6.99998C6.32762 6.53447 6.58624 5.74136 7.29314 4.86205L7.51728 4.58619L7.74141 4.37929C9.41383 2.86205 11.2759 2.74136 11.8966 2.68964H11.9311H12C12.0862 2.68964 12.1724 2.68964 12.2587 2.68964C13 2.68964 13.7242 2.84481 14.4138 3.13791C14.5345 3.18964 14.6724 3.20688 14.7931 3.20688C14.9311 3.20688 15.0518 3.1724 15.1724 3.10343C15.8104 2.74136 16.9655 2.06895 18.4483 1.89653C18.5173 1.87929 18.5862 1.87929 18.638 1.87929C18.7759 1.86205 18.9828 1.84481 19.2242 1.81033C19.6724 1.77585 20.3449 1.72412 21.069 1.72412C22.3276 1.72412 23.3621 1.87929 24.2414 2.1724L24.2931 2.18964L24.3449 2.20688C26.4138 2.98274 27.2931 3.9655 28.0345 4.89653C28.2242 5.15516 28.3276 5.2586 28.5345 5.4655L28.6552 5.56895L28.7414 5.6724L28.8104 5.72412C29.1552 5.99998 29.8104 6.49998 30.3966 7.44826L30.5 7.62067L30.5862 7.79309C31.4311 9.51722 31.1552 11.0689 31.0173 11.8965V11.9483C30.9138 12.5517 30.7414 13.1552 30.5 13.7241L30.4828 13.7758C30.4828 13.7931 30.4828 13.7931 30.4655 13.8276C30.4483 13.8793 30.4483 13.931 30.4483 13.9827L30.4311 14.0517C30.3793 14.5689 30.2587 15.0689 30.0862 15.5517C29.8276 16.3276 29.4656 17.0517 28.9828 17.7069C28.5173 18.3793 27.9828 18.931 27.3966 19.3621C27.138 19.5517 26.9311 19.7931 26.7759 20.0862C26.6207 20.3793 26.5518 20.6896 26.5518 21.0172C26.5518 21.4138 26.5 21.8276 26.4311 22.2241C26.1552 23.7069 25.5345 24.7069 25.138 25.3103L24.569 26.1552C23.569 27.5517 22.3793 28.4483 20.9483 28.8965L20.8793 28.9138C20.7587 28.9483 20.638 28.9827 20.5173 29L20.4311 29.0172C20.0345 29.0862 19.638 29.1207 19.2414 29.1207C19.1724 29.1207 19.1035 29.1207 19.0345 29.1207H19.0173C18.9828 29.1207 18.9483 29.1207 18.9138 29.1207C18.8793 29.1207 18.8104 29.1207 18.6724 29.1207H18.6207H18.569C18.3793 29.1207 18.138 29.1379 17.9311 29.1379C17.638 29.1552 17.3621 29.2069 17.0862 29.3103C16.0518 29.6207 14.7931 29.7931 13.1724 29.7931Z" stroke="url(#paint4_linear_4411_400)" stroke-width="0.9235" stroke-miterlimit="10"/>
<path opacity="0.8" d="M13.1724 28.3621C12.1897 28.3621 11.2241 28.2931 10.3966 28.2241H10.3103L10.2241 28.2069C10.0345 28.1724 9.82759 28.1552 9.63793 28.1379C8.91379 28.0517 8.01724 27.9655 7.05172 27.5L6.94828 27.4483L6.86207 27.3966C4.98276 26.3448 4.27586 24.7586 3.72414 23.4828C3.65517 23.3276 3.58621 23.1724 3.51724 23C3.2931 22.5517 3.13793 22.1035 3.01724 21.7241L3 21.6724L2.98276 21.6207C2.43103 19.6552 2.62069 18.4138 3.68965 16.8621L3.74138 16.7931L3.7931 16.7241C3.87931 16.6035 3.96552 16.5 4.05172 16.3793C4.32759 16.0173 4.60345 15.6552 5 15.2241C5.08621 15.1379 5.13793 15 5.15517 14.8793L5.17241 14.4828L5.15517 14.3276V14.1724C5.18965 12.8966 5.82759 11.9483 6.17241 11.431C6.2069 11.3793 6.25862 11.3104 6.27586 11.2759L6.32759 11.1897L6.37931 11.1207C6.44828 11.0172 6.60345 10.6552 6.74138 10.3276C6.7931 10.1897 6.86207 9.9138 6.94828 9.68966C6.96552 9.6207 6.96552 9.60346 6.98276 9.44828C7.03448 8.9138 7.17241 8.37932 7.34483 7.87932L7.36207 7.84484L7.37931 7.81035C7.43103 7.67242 7.46552 7.56897 7.51724 7.43104C7.65517 7.01725 7.86207 6.4138 8.39655 5.74139L8.55172 5.55173L8.7069 5.4138C9.87931 4.36208 11.1379 4.15518 12 4.10346H12.0345H12.069C12.1379 4.10346 12.1897 4.10346 12.2586 4.10346C12.9828 4.10346 13.8621 4.44828 14.3276 4.67242C14.431 4.72415 14.5517 4.75863 14.6724 4.75863C14.7931 4.75863 14.9138 4.74139 15.0345 4.7069C15.3276 4.60346 15.6034 4.48277 15.8621 4.34484C16.4483 4.00001 17.4138 3.44828 18.6207 3.31035C18.6897 3.29311 18.7414 3.29311 18.7931 3.29311C18.9138 3.27587 19.1034 3.25863 19.3448 3.22415C19.7586 3.18966 20.3793 3.13794 21.0517 3.13794C22.1379 3.13794 23.0345 3.25863 23.7586 3.51725L23.7931 3.53449L23.8276 3.55173C25.5517 4.2069 26.2414 4.94828 26.8966 5.79311C27.1034 6.06897 27.2586 6.25863 27.569 6.53449L27.6379 6.60346L27.7069 6.67242C27.7759 6.74139 27.8448 6.79311 27.9138 6.84484C28.2069 7.06897 28.7069 7.46553 29.1379 8.18966L29.2069 8.29311L29.2586 8.4138C29.8965 9.7069 29.6897 10.931 29.569 11.6552V11.7069C29.4828 12.2069 29.3448 12.6897 29.1379 13.1552C29.0862 13.2759 29.0517 13.3966 29.0172 13.5345C29 13.6207 28.9828 13.7069 28.9828 13.7759L28.9655 13.8448C28.9138 14.2586 28.8276 14.6724 28.6897 15.069C28.4828 15.7069 28.1724 16.3104 27.7931 16.8448C27.2069 17.6724 26.5345 18.2586 25.7241 18.6379C25.5345 18.7241 25.3621 18.8621 25.2414 19.0517C25.1207 19.2241 25.0517 19.4483 25.0345 19.6552C25.0345 19.7414 25.0345 19.8104 25.0345 19.8621C25.069 20.4828 25.1207 21.1897 24.9828 21.931C24.7586 23.1379 24.2414 23.9483 23.8621 24.5517C23.8621 24.5517 22.1034 27 20.5 27.5L20.3276 27.5517L20.1379 27.5862C19.8276 27.6379 19.5172 27.6724 19.1897 27.6724C19.1379 27.6724 19.069 27.6724 19 27.6724C18.9655 27.6724 18.9138 27.6724 18.8621 27.6724C18.7931 27.6724 18.6897 27.6724 18.5345 27.6897H18.5H18.4655C17.8448 27.7069 17.2759 27.7241 17.1034 27.7586C17.0172 27.7759 16.931 27.7931 16.8448 27.8276C16 28.1897 14.8103 28.3621 13.1724 28.3621Z" stroke="url(#paint5_linear_4411_400)" stroke-width="0.8575" stroke-miterlimit="10"/>
<path opacity="0.8" d="M13.1724 26.9483C12.2414 26.9483 11.3103 26.8793 10.5172 26.8276H10.4827H10.4483C10.2241 26.7931 10.0172 26.7758 9.82757 26.7586C9.15516 26.6896 8.44826 26.6034 7.68964 26.2586L7.63792 26.2414L7.58619 26.2241C6.12067 25.3965 5.56895 24.1724 5.05171 22.9827C4.98274 22.8103 4.89654 22.6379 4.81033 22.4655C4.63792 22.1207 4.49998 21.7414 4.39654 21.3793V21.362V21.3448C3.94826 19.7758 4.06895 18.9827 4.89654 17.7758L4.91378 17.7414L4.93102 17.7069C5.03447 17.5862 5.12067 17.4655 5.20688 17.362C5.60343 16.8448 5.94826 16.3965 6.72412 15.6724C6.77585 15.6207 6.82757 15.5517 6.84481 15.4655C6.86205 15.3965 6.86205 15.3103 6.82757 15.2414L6.68964 14.8448C6.65516 14.7241 6.63792 14.5862 6.63792 14.4655V14.362V14.2758C6.6724 13.4138 7.12067 12.7414 7.41378 12.2931C7.4655 12.2241 7.49998 12.1551 7.53447 12.1034L7.56895 12.0517L7.60343 12C7.7586 11.7931 8.01723 11.1896 8.15516 10.8276C8.18964 10.7069 8.27585 10.4138 8.36205 10.1896C8.41378 10.0172 8.44826 9.8448 8.4655 9.67239C8.51723 9.24135 8.60343 8.81032 8.7586 8.41377V8.39653V8.37928C8.82757 8.20687 8.87929 8.06894 8.91378 7.93101C9.03447 7.56894 9.1724 7.15515 9.55171 6.68963L9.62067 6.60342L9.68964 6.53446C10.5172 5.77584 11.431 5.63791 12.1207 5.58618H12.1379H12.1552C12.1896 5.58618 12.2414 5.58618 12.2758 5.58618C12.9655 5.58618 13.4827 5.86204 13.8276 6.0517L13.9138 6.08618H13.931C14.0345 6.13791 14.1034 6.18963 14.1896 6.22411C14.3965 6.32756 14.6552 6.36204 14.8793 6.29308C15.3621 6.17239 16.1034 5.87929 16.5862 5.60342H16.6034C17.1207 5.29308 17.9138 4.8448 18.8448 4.74135C18.8965 4.72411 18.9655 4.72411 19.0172 4.72411C19.1207 4.70687 19.3103 4.68963 19.5172 4.67239C19.8965 4.63791 20.4827 4.58618 21.0862 4.58618C22.0172 4.58618 22.7586 4.68963 23.3276 4.87928H23.3448H23.3621C24.7414 5.39653 25.2586 5.94825 25.8103 6.67239C26.0345 6.96549 26.2586 7.24135 26.6724 7.60342L26.7069 7.63791L26.7414 7.67239C26.8448 7.77584 26.9655 7.87928 27.1034 7.98273C27.3448 8.17239 27.6896 8.43101 27.9827 8.93101L28.0172 8.98273L28.0517 9.03446C28.4827 9.93101 28.3448 10.7758 28.2414 11.4138V11.4655C28.1724 11.862 28.0689 12.2414 27.8965 12.6207C27.8103 12.8276 27.7414 13.0517 27.7069 13.2758C27.6896 13.4138 27.6724 13.5172 27.6552 13.6034L27.6379 13.6724C27.6034 14 27.5345 14.3103 27.431 14.6207C27.2758 15.1207 27.0345 15.5862 26.7241 16.0172C26.2069 16.7758 25.6207 17.2414 24.8448 17.4827C24.4655 17.6034 24.1552 17.8448 23.9483 18.1724L23.8793 18.2586L23.8103 18.3448C23.6207 18.5689 23.6724 19.431 23.7069 19.9483C23.7414 20.5172 23.7758 21.1034 23.6724 21.6551C23.5 22.6034 23.0862 23.2414 22.7241 23.7931C22.7241 23.7931 21.3793 25.7414 20.1552 26.1034L20.0689 26.1379L19.9827 26.1551C19.7586 26.1896 19.5172 26.2241 19.2758 26.2241C19.2241 26.2241 19.1724 26.2241 19.1034 26.2241C19.0517 26.2241 19 26.2241 18.931 26.2241C18.8448 26.2241 18.7241 26.2241 18.5172 26.2414H18.5H18.4827C17.6724 26.2758 17.1724 26.2931 16.8965 26.3448C16.7069 26.3793 16.5345 26.431 16.3621 26.5C15.6207 26.7931 14.6207 26.9483 13.1724 26.9483Z" stroke="url(#paint6_linear_4411_400)" stroke-width="0.8575" stroke-miterlimit="10"/>
</g>
</g>
</g>
<defs>
<radialGradient id="paint0_radial_4411_400" cx="0" cy="0" r="1" gradientUnits="userSpaceOnUse" gradientTransform="translate(16.0006 17.6716) rotate(90) scale(17.9733)">
<stop offset="0.1667" stop-color="#073183"/>
<stop offset="1" stop-color="#0054F9"/>
</radialGradient>
<linearGradient id="paint1_linear_4411_400" x1="-2.24071" y1="-3.59742" x2="34.4193" y2="34.8793" gradientUnits="userSpaceOnUse">
<stop offset="0.2057" stop-color="#89D0FF"/>
<stop offset="0.3984" stop-color="#EBBF9A"/>
<stop offset="0.6015" stop-color="#EB8280"/>
<stop offset="0.8411" stop-color="#A281FF"/>
</linearGradient>
<linearGradient id="paint2_linear_4411_400" x1="-0.819127" y1="-1.94189" x2="32.9773" y2="33.6745" gradientUnits="userSpaceOnUse">
<stop offset="0.2057" stop-color="#89D0FF"/>
<stop offset="0.3984" stop-color="#EBBF9A"/>
<stop offset="0.6015" stop-color="#EB80DA"/>
<stop offset="0.8411" stop-color="#A281FF"/>
</linearGradient>
<linearGradient id="paint3_linear_4411_400" x1="0.616642" y1="-0.510461" x2="31.549" y2="32.245" gradientUnits="userSpaceOnUse">
<stop offset="0.2057" stop-color="#89D0FF"/>
<stop offset="0.3984" stop-color="#EBBF9A"/>
<stop offset="0.6015" stop-color="#EB8280"/>
<stop offset="0.8411" stop-color="#A281FF"/>
</linearGradient>
<linearGradient id="paint4_linear_4411_400" x1="2.05048" y1="0.925966" x2="30.1124" y2="30.8115" gradientUnits="userSpaceOnUse">
<stop offset="0.2057" stop-color="#89D0FF"/>
<stop offset="0.3984" stop-color="#EBBF9A"/>
<stop offset="0.6015" stop-color="#EB80E7"/>
<stop offset="0.8411" stop-color="#A281FF"/>
</linearGradient>
<linearGradient id="paint5_linear_4411_400" x1="3.4759" y1="2.36515" x2="28.6727" y2="29.3786" gradientUnits="userSpaceOnUse">
<stop offset="0.2057" stop-color="#89D0FF"/>
<stop offset="0.3984" stop-color="#EBBF9A"/>
<stop offset="0.6015" stop-color="#EB80D3"/>
<stop offset="0.8411" stop-color="#A281FF"/>
</linearGradient>
<linearGradient id="paint6_linear_4411_400" x1="4.91985" y1="3.78696" x2="27.2491" y2="27.9393" gradientUnits="userSpaceOnUse">
<stop offset="0.2057" stop-color="#89D0FF"/>
<stop offset="0.3984" stop-color="#EBBF9A"/>
<stop offset="0.6015" stop-color="#A280EB"/>
<stop offset="0.8411" stop-color="#A281FF"/>
</linearGradient>
<clipPath id="clip0_4411_400">
<rect width="32" height="32" fill="white"/>
</clipPath>
</defs>
</svg>
