<svg width="32" height="32" viewBox="0 0 32 32" fill="none" xmlns="http://www.w3.org/2000/svg">
<g clip-path="url(#clip0_4427_14)">
<path fill-rule="evenodd" clip-rule="evenodd" d="M22.464 18.7521C28.0704 19.5713 32 21.4657 32 23.6417C32 26.5857 24.832 28.9921 16 28.9921C7.168 28.9921 0 26.5857 0 23.6417C0 21.4657 3.904 19.5713 9.536 18.7521C11.6608 19.1617 13.8368 19.3665 16 19.3665C18.1248 19.3793 20.2368 19.1745 22.3232 18.7777L22.464 18.7393V18.7521Z" fill="black"/>
<path fill-rule="evenodd" clip-rule="evenodd" d="M20.032 9.97131C25.1264 10.5345 28.7744 12.1345 28.7744 14.0417C28.7744 16.4097 23.0528 18.3169 15.9616 18.3169C8.8832 18.3169 3.1488 16.3969 3.1488 14.0417C3.1488 12.1601 6.8224 10.5473 11.8912 9.97131C13.2352 10.1761 14.5792 10.2913 15.936 10.2785C17.2416 10.2785 18.56 10.1761 19.8656 9.98411L20.0192 9.97131H20.032Z" fill="black"/>
<path d="M15.9872 9.43366C21.2891 9.43366 25.5872 7.99524 25.5872 6.22086C25.5872 4.44648 21.2891 3.00806 15.9872 3.00806C10.6853 3.00806 6.38721 4.44648 6.38721 6.22086C6.38721 7.99524 10.6853 9.43366 15.9872 9.43366Z" fill="black"/>
</g>
<defs>
<clipPath id="clip0_4427_14">
<rect width="32" height="32" fill="white"/>
</clipPath>
</defs>
</svg>
