<svg width="32" height="32" viewBox="0 0 32 32" fill="none" xmlns="http://www.w3.org/2000/svg">
<g clip-path="url(#clip0_4398_194)">
<path d="M16 32C24.8366 32 32 24.8366 32 16C32 7.16344 24.8366 0 16 0C7.16344 0 0 7.16344 0 16C0 24.8366 7.16344 32 16 32Z" fill="#0B0609"/>
<path d="M15.261 14.1284C15.075 14.2979 14.8949 14.4748 14.6994 14.6326C14.6254 14.6805 14.5383 14.7041 14.4502 14.7C11.8605 14.7034 9.27083 14.7053 6.68114 14.706C6.49451 14.7064 6.42754 14.6433 6.44751 14.4643C6.45652 14.3836 6.42902 14.2938 6.45532 14.2215C6.49182 14.1548 6.54416 14.0982 6.60774 14.0565C6.62724 14.0403 6.6712 14.0532 6.70398 14.0532C9.49036 14.0531 12.2767 14.053 15.0631 14.053C15.1115 14.053 15.1598 14.053 15.2082 14.053L15.261 14.1284Z" fill="#F46825"/>
<path d="M15.3131 11.8743C15.2268 11.8743 15.1406 11.8743 15.0544 11.8743C12.3004 11.8739 9.54644 11.8734 6.79247 11.8728C6.4853 11.8727 6.3202 11.6021 6.46322 11.3268C6.4766 11.308 6.49358 11.2921 6.51319 11.2799C6.53279 11.2678 6.55462 11.2597 6.57739 11.2561C6.65067 11.2479 6.72449 11.2459 6.7981 11.25C9.30618 11.2493 11.8143 11.2544 14.3223 11.2411C14.6432 11.2394 14.8917 11.3052 15.0911 11.5609C15.1592 11.6483 15.2684 11.7038 15.3588 11.7739L15.3131 11.8743Z" fill="#F46825"/>
<path d="M15.3818 10.3451C15.1721 10.5434 15.0073 10.7131 14.826 10.8629C14.7527 10.9122 14.6657 10.937 14.5774 10.9336C11.9474 10.9366 9.31742 10.9333 6.68744 10.9385C6.48182 10.9389 6.42138 10.8569 6.44946 10.676C6.47208 10.5303 6.3506 10.3118 6.65775 10.3121C9.51714 10.3155 12.3765 10.3162 15.2359 10.3143C15.2851 10.3215 15.3339 10.3318 15.3818 10.3451Z" fill="#F46825"/>
<path d="M15.2641 8.12127C15.1393 8.12705 15.0605 8.13388 14.9817 8.13389C12.2519 8.1342 9.52218 8.13329 6.79242 8.13117C6.68409 8.13104 6.49453 8.11686 6.48233 8.07174C6.44139 7.92024 6.45694 7.75129 6.4682 7.59022C6.47016 7.56214 6.55371 7.52703 6.60371 7.51803C6.67698 7.50975 6.75084 7.50792 6.82444 7.51256C9.29187 7.51213 11.7595 7.529 14.2266 7.49754C14.7393 7.491 14.9547 7.79475 15.2641 8.12127Z" fill="#F46825"/>
<path d="M17.2867 14.053C17.3671 14.053 17.4476 14.053 17.5281 14.053C19.954 14.0532 22.38 14.0543 24.8059 14.0563C24.9042 14.0564 25.0813 14.0838 25.0872 14.1202C25.1093 14.2964 25.1091 14.4747 25.0869 14.6508C25.0848 14.6731 24.9744 14.7003 24.9141 14.7004C22.6111 14.7029 20.3081 14.7026 18.0051 14.6992C17.9253 14.697 17.8484 14.6682 17.7869 14.6173C17.6042 14.4553 17.4341 14.2792 17.2592 14.1085L17.2867 14.053Z" fill="#F46825"/>
<path d="M14.3328 14.9864C14.0126 15.3518 13.7634 15.6341 13.236 15.6249C11.0893 15.5876 8.94171 15.6096 6.79444 15.6092C6.48684 15.6091 6.32015 15.336 6.46356 15.0614C6.49106 15.0239 6.53223 14.9986 6.57818 14.9912C6.64327 14.9836 6.70891 14.9821 6.77428 14.9867C9.19199 14.9866 11.6097 14.9865 14.0274 14.9864C14.109 14.9864 14.1905 14.9864 14.3328 14.9864Z" fill="#F46825"/>
<path d="M14.3349 7.19867C14.2016 7.19867 14.1284 7.19867 14.0552 7.19867C11.6198 7.1985 9.18449 7.19729 6.74915 7.19503C6.65288 7.19486 6.48217 7.16324 6.47379 7.12104C6.44586 6.9615 6.44785 6.79816 6.47965 6.63934C6.48623 6.60349 6.63492 6.57502 6.71839 6.57455C7.62034 6.56947 8.52233 6.57027 9.42431 6.57026C10.6871 6.57024 11.951 6.60227 13.2121 6.55637C13.7433 6.53704 14.0131 6.81419 14.3349 7.19867Z" fill="#F46825"/>
<path d="M18.2215 14.9864C18.2933 14.9864 18.3651 14.9864 18.437 14.9864C20.5672 14.9865 22.6973 14.9897 24.8275 14.9822C25.0482 14.9814 25.1349 15.0339 25.1245 15.2667C25.1152 15.4752 25.1177 15.6169 24.832 15.6152C22.8903 15.6041 20.9485 15.6123 19.0068 15.6024C18.8768 15.6017 18.7323 15.525 18.6209 15.4465C18.4672 15.3256 18.3211 15.1954 18.1835 15.0566L18.2215 14.9864Z" fill="#F46825"/>
<path d="M20.0542 13.7695C19.031 13.7695 18.0848 13.7721 17.1387 13.7627C17.1017 13.7528 17.0677 13.7338 17.04 13.7073C17.0123 13.6808 16.9917 13.6478 16.9801 13.6113C16.9129 13.1442 16.9399 13.1189 17.4156 13.1189C17.9714 13.1189 18.5276 13.1293 19.0831 13.114C19.3075 13.1078 19.4727 13.1684 19.6161 13.3393C19.7305 13.4755 19.87 13.5907 20.0542 13.7695Z" fill="#F46825"/>
<path d="M13.0052 13.7701C13.125 13.5594 13.2277 13.3641 13.3472 13.1797C13.3732 13.1395 13.4592 13.1215 13.5177 13.1211C14.1224 13.1171 14.7271 13.1219 15.3317 13.117C15.4835 13.1157 15.5391 13.1806 15.5302 13.3221C15.5276 13.3627 15.5303 13.4036 15.5303 13.4443C15.5299 13.7694 15.5299 13.7698 15.2098 13.77C14.4749 13.7703 13.74 13.7703 13.0052 13.7701Z" fill="#F46825"/>
<path d="M7.56759 13.7696C7.25645 13.7696 6.94524 13.7657 6.63421 13.7714C6.49633 13.7739 6.44572 13.7202 6.44717 13.5836C6.45312 13.0252 6.40471 13.1257 6.89673 13.1203C7.41251 13.1146 7.92852 13.1249 8.44415 13.1146C8.62863 13.111 8.70015 13.1753 8.68026 13.3552C8.6731 13.4285 8.67285 13.5022 8.67951 13.5755C8.69144 13.7259 8.62262 13.7762 8.47639 13.7727C8.17361 13.7656 7.87054 13.7706 7.56759 13.7706V13.7696Z" fill="#F46825"/>
<path d="M13.1251 12.1835C13.4065 12.1835 13.705 12.1834 14.0035 12.1835C14.4365 12.1836 14.8695 12.1894 15.3023 12.1814C15.4714 12.1783 15.5315 12.2382 15.5342 12.4072C15.5405 12.7987 15.5477 12.8066 15.1594 12.8159C14.6206 12.8287 14.0814 12.8253 13.5425 12.8348C13.3913 12.8375 13.3349 12.7862 13.3107 12.6286C13.2879 12.4805 13.1949 12.3431 13.1251 12.1835Z" fill="#F46825"/>
<path d="M7.5508 12.8131C7.25695 12.8131 6.96298 12.808 6.66931 12.8151C6.49778 12.8192 6.43066 12.7475 6.44737 12.5808C6.45464 12.5082 6.42666 12.4242 6.45456 12.3636C6.48671 12.2938 6.56189 12.1946 6.62012 12.1934C7.24885 12.1807 7.87773 12.1802 8.50676 12.1919C8.56506 12.193 8.63068 12.296 8.67463 12.3635C8.69708 12.398 8.67915 12.4587 8.67916 12.5076C8.6792 12.8322 8.67917 12.8325 8.35958 12.833C8.09001 12.8334 7.82045 12.8334 7.55088 12.833L7.5508 12.8131Z" fill="#F46825"/>
<path d="M7.56815 9.06338C7.26589 9.06338 6.96348 9.05775 6.66144 9.0657C6.50509 9.06981 6.43078 9.01825 6.4475 8.85541C6.45378 8.7823 6.45396 8.7088 6.44803 8.63566C6.43953 8.50522 6.49014 8.43696 6.62821 8.4358C7.24889 8.43057 7.86955 8.42359 8.4902 8.41485C8.62365 8.41289 8.68834 8.46449 8.67949 8.60235C8.67307 8.68363 8.67336 8.76529 8.68036 8.84652C8.69828 9.02231 8.61535 9.07271 8.45034 9.06765C8.15652 9.05864 7.86224 9.06512 7.56815 9.06512L7.56815 9.06338Z" fill="#F46825"/>
<path d="M13.0024 8.43425C13.2312 8.43425 13.4165 8.43418 13.6017 8.43426C14.1505 8.43451 14.6996 8.44606 15.2479 8.43025C15.5113 8.42265 15.5362 8.55301 15.5354 8.76186C15.5346 8.96288 15.5104 9.07889 15.2578 9.07041C14.7014 9.05172 14.144 9.06172 13.587 9.06704C13.4318 9.06852 13.3399 9.04969 13.2991 8.86065C13.2697 8.72441 13.1314 8.61153 13.0024 8.43425Z" fill="#F46825"/>
<path d="M13.1296 10.0101C13.203 9.82454 13.2544 9.66859 13.3272 9.52328C13.3562 9.46525 13.4319 9.39214 13.4873 9.39136C14.116 9.38242 14.7448 9.38292 15.3736 9.39287C15.4082 9.40235 15.4398 9.42024 15.4658 9.44494C15.4918 9.46964 15.5112 9.50039 15.5224 9.53443C15.6014 9.93523 15.5363 10.0096 15.1344 10.0099C14.5382 10.0104 13.942 10.0105 13.3458 10.0101C13.2666 10.0102 13.1874 10.0101 13.1296 10.0101Z" fill="#F46825"/>
<path d="M18.1172 12.1849C18.3868 12.185 18.6576 12.2002 18.9257 12.1805C19.1618 12.1632 19.2363 12.2574 19.2054 12.4746C19.2 12.5232 19.1998 12.5723 19.2048 12.621C19.2149 12.7572 19.1497 12.8135 19.017 12.8132C18.3961 12.8118 17.7752 12.8117 17.1542 12.8129C17.0167 12.8131 16.9656 12.7428 16.9718 12.6133C16.9759 12.5319 16.9758 12.4504 16.9714 12.369C16.9633 12.2317 17.0268 12.1812 17.1614 12.1832C17.4799 12.1881 17.7986 12.1848 18.1172 12.1849Z" fill="#F46825"/>
<path d="M18.086 11.8737C17.7909 11.8737 17.4956 11.8683 17.2007 11.8758C17.0341 11.8801 16.9697 11.821 16.968 11.6487C16.9641 11.2492 16.9563 11.249 17.366 11.2492C17.8988 11.2494 18.432 11.2605 18.9645 11.2454C19.1982 11.2387 19.2179 11.3549 19.2055 11.5318C19.1942 11.694 19.2637 11.8919 18.9713 11.8761C18.677 11.8603 18.3812 11.8727 18.086 11.8727L18.086 11.8737Z" fill="#F46825"/>
<path d="M18.0767 7.19773C17.7818 7.19805 17.4867 7.19254 17.1919 7.20032C17.0384 7.20437 16.9575 7.15901 16.9728 6.99307C16.9803 6.91203 16.9515 6.81964 16.9816 6.75091C17.0126 6.67997 17.0944 6.58205 17.1556 6.58086C17.7781 6.56873 18.4007 6.56909 19.0234 6.58194C19.0843 6.58319 19.1688 6.68057 19.196 6.75109C19.2262 6.82946 19.1981 6.92855 19.2044 7.01798C19.2146 7.1619 19.1414 7.20084 19.0108 7.1989C18.6995 7.19425 18.3881 7.1974 18.0767 7.19773Z" fill="#F46825"/>
<path d="M18.0827 10.9355C17.7795 10.9355 17.4762 10.9316 17.1731 10.9372C17.0266 10.9398 16.9433 10.8796 16.9759 10.736C17.0086 10.5921 16.8449 10.3338 17.1235 10.3232C17.7699 10.2985 18.418 10.3132 19.0651 10.3241C19.1121 10.3249 19.1808 10.4173 19.1977 10.4786C19.2207 10.5622 19.1988 10.6571 19.2049 10.7466C19.2144 10.8848 19.1518 10.9369 19.0169 10.9351C18.7055 10.9309 18.3941 10.9338 18.0827 10.9338V10.9355Z" fill="#F46825"/>
<path d="M18.1042 10.009C17.8009 10.009 17.4973 10.0007 17.1944 10.0113C16.8979 10.0217 16.9852 9.81041 16.9718 9.6553C16.9575 9.4907 16.9783 9.37565 17.2 9.38052C17.7981 9.39366 18.3967 9.38959 18.9949 9.3839C19.1561 9.38237 19.2061 9.44164 19.2073 9.59972C19.2105 10.0067 19.2174 10.0069 18.8173 10.0078C18.5796 10.0084 18.3419 10.0079 18.1042 10.0079V10.009Z" fill="#F46825"/>
<path d="M7.56014 9.38373C7.85518 9.38373 8.15056 9.39225 8.44514 9.38063C8.63108 9.3733 8.68441 9.44584 8.68291 9.62384C8.67965 10.0103 8.68784 10.0108 8.29274 10.0105C7.76003 10.0101 7.2269 9.99598 6.69476 10.013C6.38901 10.0227 6.46098 9.82634 6.44629 9.65566C6.42973 9.46322 6.48298 9.36943 6.69982 9.38163C6.98576 9.39772 7.27329 9.38559 7.56014 9.38559V9.38373Z" fill="#F46825"/>
<path d="M18.1022 9.06385C17.7919 9.06385 17.4815 9.05913 17.1713 9.0659C17.023 9.06914 16.9603 9.0117 16.9713 8.86509C16.9765 8.79194 16.9766 8.71853 16.9717 8.64537C16.9626 8.50309 17.0209 8.43466 17.1691 8.43531C17.7815 8.438 18.394 8.4382 19.0064 8.4359C19.1523 8.43534 19.2171 8.49639 19.2047 8.64265C19.1985 8.70758 19.1986 8.77296 19.2051 8.83786C19.2238 9.00595 19.1578 9.07212 18.984 9.0659C18.6904 9.05539 18.3962 9.06301 18.1022 9.06301V9.06385Z" fill="#F46825"/>
<path d="M18.0739 8.13395C17.7791 8.13395 17.4842 8.1286 17.1896 8.13613C17.0347 8.14009 16.9568 8.09014 16.9719 7.92646C16.9777 7.85314 16.978 7.7795 16.9727 7.70614C16.9649 7.57279 17.0212 7.5121 17.1584 7.5127C17.7808 7.51543 18.4032 7.5095 19.0253 7.52197C19.0857 7.52318 19.1668 7.61972 19.1968 7.68968C19.2265 7.75873 19.1979 7.85071 19.2048 7.93178C19.2174 8.07895 19.1571 8.13785 19.0074 8.13466C18.6963 8.12805 18.3851 8.13267 18.0739 8.13267V8.13395Z" fill="#F46825"/>
<path d="M25.8964 20.1429C25.568 20.4853 25.3506 20.7854 24.8394 20.7792C22.3475 20.7486 19.8549 20.7659 17.3625 20.7661C17.0217 20.7661 16.8744 20.551 17.008 20.2388C17.0366 20.1932 17.0821 20.1608 17.1346 20.1486C17.1992 20.1379 17.265 20.1355 17.3303 20.1412C20.0768 20.1416 22.8233 20.1422 25.5698 20.1429C25.6565 20.1429 25.7432 20.1429 25.8964 20.1429Z" fill="#F46825"/>
<path d="M25.8736 21.6863C25.7591 21.6933 25.6877 21.7015 25.6163 21.7015C22.8475 21.7026 20.0787 21.7023 17.31 21.7005C17.212 21.7003 17.0398 21.6725 17.0296 21.6283C17.0037 21.4693 17.0005 21.3074 17.0201 21.1474C17.0216 21.1228 17.0937 21.0893 17.1365 21.0834C17.218 21.0759 17.2999 21.074 17.3817 21.0776C19.8392 21.0777 22.297 21.0969 24.754 21.0631C25.2774 21.056 25.5679 21.2898 25.8736 21.6863Z" fill="#F46825"/>
<path d="M15.198 23.9601C15.0116 24.1298 14.8314 24.307 14.6354 24.4647C14.5608 24.5117 14.4734 24.5344 14.3853 24.5295C12.0917 24.5329 9.79806 24.5318 7.50446 24.5263C7.37903 24.5155 7.25973 24.4673 7.16199 24.388C6.99378 24.2613 6.84726 24.106 6.69165 23.9626L6.72411 23.9062H15.1449C15.1626 23.9242 15.1803 23.9422 15.198 23.9601Z" fill="#F46825"/>
<path d="M25.7845 17.9625C25.6404 17.9625 25.559 17.9625 25.4776 17.9625C22.7723 17.9631 20.0669 17.9636 17.3616 17.9641C17.0066 17.9642 16.8965 17.813 17.0063 17.4616C17.019 17.4345 17.0374 17.4105 17.0601 17.3912C17.0829 17.3718 17.1095 17.3576 17.1383 17.3494C17.2191 17.3364 17.3013 17.3334 17.3829 17.3405C19.8258 17.3406 22.2691 17.3587 24.7116 17.3269C25.2276 17.3202 25.4711 17.5986 25.7845 17.9625Z" fill="#F46825"/>
<path d="M24.8196 17.0284C23.9272 17.0284 23.0348 17.0284 22.1424 17.0284C20.5288 17.0284 18.9152 17.0273 17.3017 17.0251C17.2052 17.0249 17.0343 16.9936 17.0259 16.9514C16.9961 16.7927 16.9986 16.6296 17.0331 16.4719C17.0418 16.4315 17.2025 16.4039 17.2935 16.4036C18.5057 16.3987 19.718 16.3995 20.9302 16.3995C21.9131 16.3994 22.8961 16.4101 23.8787 16.3942C24.1575 16.3897 24.3648 16.4626 24.5421 16.6744C24.6339 16.7841 24.7621 16.8635 24.8739 16.9566C24.8558 16.9806 24.8377 17.0045 24.8196 17.0284Z" fill="#F46825"/>
<path d="M14.2526 24.8826C14.0746 25.0485 13.9033 25.2227 13.7146 25.3755C13.6382 25.4213 13.5495 25.4424 13.4606 25.4358C11.7797 25.4392 10.0987 25.4412 8.4178 25.4325C8.29139 25.4212 8.17107 25.3731 8.07171 25.2941C7.91318 25.1677 7.76127 25.0332 7.61658 24.8911L7.65759 24.8333H14.2078L14.2526 24.8826Z" fill="#F46825"/>
<path d="M12.4443 23.5289C12.6342 23.3524 12.8197 23.1707 13.0171 23.003C13.0785 22.9642 13.1507 22.9459 13.2233 22.9507C13.8958 22.9469 14.5683 22.9521 15.2408 22.9453C15.4103 22.9436 15.471 23.0035 15.4755 23.1721C15.487 23.5995 15.4933 23.5995 15.0761 23.5995C14.2155 23.5996 13.3549 23.5996 12.4942 23.5995L12.4443 23.5289Z" fill="#F46825"/>
<path d="M9.38444 23.5989C8.45962 23.5989 7.5348 23.5974 6.60998 23.6005C6.47615 23.601 6.40975 23.5542 6.41568 23.4167C6.42052 23.3433 6.42005 23.2697 6.41429 23.1964C6.39468 23.0047 6.47355 22.9413 6.66809 22.9446C7.29026 22.9552 7.91289 22.9564 8.53498 22.9436C8.62776 22.9371 8.72077 22.9524 8.80663 22.9882C8.89249 23.024 8.96884 23.0792 9.02963 23.1496C9.16325 23.2788 9.30487 23.3994 9.45366 23.5108L9.38444 23.5989Z" fill="#F46825"/>
<path d="M24.9971 23.8827C25.2915 23.8829 25.586 23.8882 25.8802 23.8806C26.0314 23.8767 26.0917 23.9372 26.0759 24.083C26.0749 24.0992 26.0749 24.1156 26.0758 24.1318C26.0805 24.5316 26.0805 24.5317 25.6879 24.5317C25.1564 24.5318 24.6247 24.5233 24.0935 24.5361C23.8937 24.5409 23.8246 24.4709 23.8471 24.2822C23.8543 24.2173 23.8543 24.1517 23.8473 24.0868C23.8305 23.9212 23.911 23.8761 24.065 23.8801C24.3755 23.8882 24.6864 23.8825 24.9971 23.8827Z" fill="#F46825"/>
<path d="M24.9389 23.599C24.6525 23.5991 24.3659 23.5925 24.0798 23.6017C23.918 23.6069 23.8409 23.5658 23.8445 23.3853C23.8546 22.8678 23.8134 22.9529 24.2733 22.9492C24.7969 22.9449 25.3207 22.9554 25.8442 22.9453C26.0307 22.9418 26.0991 23.0085 26.0771 23.1871C26.0695 23.2438 26.0696 23.3013 26.0772 23.3581C26.1069 23.5616 26.0086 23.61 25.8225 23.6022C25.5284 23.5898 25.2335 23.5989 24.9389 23.599Z" fill="#F46825"/>
<path d="M18.0842 24.5318C17.7973 24.5319 17.5102 24.5241 17.2237 24.5348C17.052 24.5412 16.981 24.4781 16.9949 24.3087C17.0002 24.2271 17.0005 24.1453 16.9958 24.0637C16.99 23.9249 17.0587 23.8799 17.1915 23.8807C17.7979 23.8846 18.4045 23.8847 19.011 23.881C19.1476 23.8801 19.208 23.933 19.2019 24.0684C19.1969 24.15 19.1972 24.2318 19.2028 24.3134C19.2179 24.4884 19.1353 24.5398 18.9693 24.5344C18.6745 24.5247 18.3792 24.5316 18.0842 24.5318Z" fill="#F46825"/>
<path d="M18.1098 22.9482C18.4037 22.9485 18.6979 22.9548 18.9916 22.946C19.1541 22.9412 19.2146 23.0085 19.2038 23.1626C19.1981 23.2357 19.198 23.3092 19.2037 23.3823C19.2189 23.5571 19.1346 23.6039 18.9701 23.6019C18.3904 23.5948 17.8105 23.5932 17.2309 23.6029C17.0447 23.6061 16.9924 23.5361 16.9914 23.3607C16.9891 22.948 16.982 22.948 17.3993 22.9478C17.6361 22.9478 17.8729 22.9479 18.1098 22.9482Z" fill="#F46825"/>
<path d="M18.1015 18.8945C17.8063 18.8942 17.511 18.8891 17.2161 18.8963C17.0627 18.9001 16.997 18.8503 16.9909 18.6878C16.975 18.2664 16.9871 18.2461 17.4184 18.2451C17.9267 18.244 18.4352 18.2527 18.9432 18.2409C19.1507 18.2361 19.213 18.3124 19.2093 18.5117C19.2024 18.8941 19.2116 18.8943 18.8393 18.8946C18.5934 18.8949 18.3474 18.8948 18.1015 18.8945Z" fill="#F46825"/>
<path d="M23.5413 18.2805C23.6312 18.2737 23.7013 18.2639 23.7714 18.2639C24.4427 18.2634 25.1144 18.2772 25.7853 18.2591C26.0641 18.2516 26.0804 18.382 26.0825 18.6003C26.0845 18.8148 26.0387 18.9049 25.7992 18.8979C25.2266 18.8812 24.6531 18.8916 24.08 18.8954C23.9436 18.8963 23.8689 18.8784 23.8306 18.7102C23.7978 18.5663 23.6586 18.4466 23.5413 18.2805Z" fill="#F46825"/>
<path d="M23.6797 19.8355C23.7296 19.664 23.7883 19.4952 23.8556 19.3298C23.8748 19.299 23.9007 19.273 23.9315 19.2538C23.9622 19.2347 23.997 19.2228 24.033 19.2191C24.6554 19.2117 25.2779 19.2109 25.9 19.2238C25.9597 19.225 26.0457 19.3217 26.0685 19.3908C26.0954 19.4856 26.0955 19.5859 26.0688 19.6807C26.0531 19.7401 25.9767 19.8271 25.927 19.8275C25.1747 19.8325 24.4223 19.8253 23.6699 19.82C23.6656 19.82 23.6613 19.8081 23.6797 19.8355Z" fill="#F46825"/>
<path d="M23.6896 22.015C24.4082 22.015 25.1449 22.0176 25.8815 22.0128C26.0335 22.0118 26.0892 22.0721 26.0772 22.2173C26.0705 22.2984 26.0985 22.39 26.0693 22.4595C26.0392 22.5311 25.9596 22.6321 25.8998 22.6333C25.2775 22.6462 24.6549 22.6449 24.0325 22.6364C23.9961 22.6315 23.9613 22.6182 23.9309 22.5977C23.9005 22.5771 23.8752 22.5498 23.857 22.5179C23.7926 22.3532 23.7367 22.1854 23.6896 22.015Z" fill="#F46825"/>
<path d="M18.0882 22.6624C17.8181 22.6624 17.547 22.6484 17.2781 22.6667C17.043 22.6826 16.9653 22.5872 16.9927 22.3692C16.998 22.3122 16.9986 22.255 16.9943 22.1979C16.9884 22.0614 17.0549 22.0115 17.1883 22.0122C17.794 22.0155 18.3998 22.0166 19.0054 22.0119C19.1572 22.0107 19.2002 22.0771 19.2064 22.2179C19.2246 22.6313 19.2183 22.6428 18.7998 22.6436C18.5626 22.644 18.3254 22.644 18.0883 22.6437L18.0882 22.6624Z" fill="#F46825"/>
<path d="M14.3781 22.0133C14.656 22.0133 14.9342 22.0215 15.2117 22.0104C15.3965 22.003 15.4814 22.0582 15.476 22.2566C15.4637 22.7049 15.541 22.6631 15.0728 22.6613C14.5499 22.6593 14.0268 22.6389 13.5041 22.6471C13.2233 22.6515 13.2682 22.4731 13.2633 22.3041C13.2585 22.1387 13.2511 21.9953 13.4956 22.0101C13.7888 22.0277 14.0838 22.0143 14.3781 22.0143V22.0133Z" fill="#F46825"/>
<path d="M14.3929 21.0782C14.6871 21.0782 14.9815 21.0837 15.2755 21.0759C15.4324 21.0717 15.5053 21.1276 15.4926 21.2877C15.488 21.361 15.4878 21.4344 15.492 21.5077C15.4975 21.6376 15.4458 21.7039 15.307 21.7032C14.6859 21.7003 14.0647 21.6998 13.4436 21.7018C13.3024 21.7022 13.2687 21.6296 13.2628 21.5023C13.2432 21.0795 13.2393 21.0796 13.6574 21.0792C13.9025 21.079 14.1477 21.079 14.3929 21.0792V21.0782Z" fill="#F46825"/>
<path d="M24.9731 24.8161C25.2675 24.8161 25.5622 24.8243 25.8562 24.813C26.0319 24.8062 26.0947 24.874 26.0769 25.0414C26.0691 25.1139 26.0981 25.199 26.0691 25.2585C26.0349 25.3289 25.9572 25.427 25.8966 25.4283C25.2753 25.4407 24.6537 25.435 24.0322 25.4367C23.8953 25.437 23.8408 25.3725 23.8486 25.2402C23.8536 25.1588 23.8535 25.0771 23.8484 24.9957C23.839 24.8543 23.9084 24.8121 24.0409 24.8144C24.3516 24.8199 24.6624 24.8161 24.9731 24.8161Z" fill="#F46825"/>
<path d="M14.3846 20.7639C14.0905 20.7639 13.7962 20.7562 13.5024 20.7667C13.3219 20.7731 13.2598 20.7089 13.2613 20.5272C13.2643 20.1442 13.2555 20.1437 13.6488 20.1432C14.1799 20.1424 14.7113 20.155 15.2417 20.1366C15.518 20.127 15.4896 20.2889 15.4943 20.4657C15.4991 20.6478 15.4904 20.7853 15.2422 20.7696C14.9574 20.7516 14.6706 20.7654 14.3846 20.7654V20.7639Z" fill="#F46825"/>
<path d="M14.3599 19.8365C14.0657 19.8365 13.7715 19.8319 13.4775 19.8384C13.3194 19.8419 13.2654 19.7791 13.2623 19.6219C13.2543 19.2156 13.2478 19.2155 13.6492 19.215C14.1885 19.2144 14.728 19.2235 15.2669 19.2097C15.5159 19.2033 15.4964 19.353 15.4919 19.512C15.4875 19.6693 15.5378 19.8528 15.2667 19.8415C14.9649 19.829 14.6622 19.8387 14.3599 19.8387V19.8365Z" fill="#F46825"/>
<path d="M7.50501 22.6421C7.21922 22.6421 6.93317 22.6343 6.64774 22.6443C6.36352 22.6543 6.42265 22.4559 6.41534 22.2929C6.40831 22.136 6.40927 22.0064 6.6366 22.0109C7.22427 22.0224 7.81244 22.0214 8.40015 22.0109C8.60516 22.0072 8.63545 22.1132 8.61613 22.2696C8.59775 22.4186 8.70687 22.6426 8.41133 22.6422C8.10922 22.6418 7.80712 22.6418 7.50501 22.6421Z" fill="#F46825"/>
<path d="M14.3499 17.0268C14.0546 17.0268 13.7593 17.0215 13.4642 17.029C13.3128 17.0328 13.2681 16.9708 13.2637 16.8259C13.251 16.402 13.2455 16.4018 13.6668 16.4014C14.1835 16.401 14.7004 16.4106 15.2168 16.3975C15.5093 16.3902 15.463 16.5804 15.474 16.7587C15.4862 16.9538 15.4239 17.0432 15.2108 17.0316C14.9246 17.0161 14.6369 17.0278 14.3499 17.0278V17.0268Z" fill="#F46825"/>
<path d="M7.50302 20.763C7.20829 20.763 6.91343 20.7575 6.61887 20.7646C6.35556 20.7709 6.42303 20.5811 6.41738 20.4391C6.41161 20.2941 6.38527 20.1384 6.6234 20.1417C7.22093 20.1499 7.81867 20.1469 8.41629 20.1426C8.56425 20.1415 8.61364 20.2004 8.61926 20.3456C8.63545 20.7635 8.64093 20.7634 8.21529 20.7638C7.97787 20.7641 7.74044 20.7641 7.50302 20.7639V20.763Z" fill="#F46825"/>
<path d="M7.49428 17.0269C7.20768 17.0268 6.92091 17.0209 6.63455 17.0292C6.4778 17.0337 6.4184 16.9788 6.41408 16.8186C6.40304 16.4095 6.40253 16.4024 6.80368 16.402C7.31956 16.4014 7.83594 16.4156 8.35113 16.3968C8.63862 16.3864 8.61078 16.5542 8.61906 16.7417C8.62781 16.94 8.58837 17.0472 8.35378 17.0315C8.06847 17.0124 7.78088 17.027 7.49428 17.0269Z" fill="#F46825"/>
<path d="M18.0964 19.2133C18.3909 19.2133 18.6858 19.2233 18.9797 19.21C19.2025 19.2 19.2184 19.3298 19.2049 19.4905C19.1924 19.6379 19.2746 19.8411 18.9982 19.8398C18.4011 19.8369 17.8039 19.8354 17.2068 19.8406C16.9324 19.843 17.0034 19.6469 16.9942 19.4965C16.9847 19.3414 16.9846 19.2007 17.2131 19.2104C17.507 19.2229 17.8019 19.2134 18.0964 19.2133Z" fill="#F46825"/>
<path d="M7.49769 19.8363C7.21108 19.8363 6.92412 19.8274 6.63799 19.8389C6.38882 19.849 6.41196 19.6854 6.4164 19.5289C6.42057 19.3816 6.3686 19.2083 6.62846 19.2127C7.21788 19.2227 7.80761 19.2189 8.39714 19.2134C8.55009 19.212 8.61558 19.2573 8.61976 19.4213C8.63035 19.8364 8.63756 19.8364 8.2101 19.837C7.97263 19.8374 7.73516 19.8374 7.49769 19.8371V19.8363Z" fill="#F46825"/>
<path d="M14.3595 18.892C14.0571 18.892 13.7546 18.8884 13.4523 18.8937C13.3155 18.8961 13.2565 18.8417 13.265 18.7058C13.2697 18.6244 13.2698 18.5428 13.2653 18.4614C13.2584 18.3287 13.316 18.2654 13.4512 18.2657C14.0561 18.2668 14.6609 18.2634 15.2658 18.2664C15.5535 18.2679 15.4545 18.4924 15.4719 18.6444C15.4909 18.8105 15.4359 18.9043 15.2422 18.8966C14.9484 18.885 14.6538 18.8936 14.3595 18.8936L14.3595 18.892Z" fill="#F46825"/>
<path d="M7.51302 18.8921C7.22615 18.8922 6.93861 18.8802 6.65264 18.8962C6.4375 18.9082 6.39999 18.7993 6.41671 18.6279C6.43186 18.4726 6.34453 18.2616 6.63699 18.2643C7.22706 18.2698 7.81722 18.2674 8.40734 18.2651C8.54764 18.2645 8.62533 18.3142 8.61646 18.4653C8.61184 18.5469 8.61188 18.6287 8.61657 18.7103C8.62433 18.8503 8.55552 18.8957 8.42277 18.8935C8.1196 18.8885 7.81628 18.8919 7.51302 18.8921Z" fill="#F46825"/>
<path d="M14.3696 17.9622C14.0744 17.9622 13.7792 17.957 13.4843 17.9644C13.3312 17.9682 13.2492 17.9226 13.265 17.7566C13.2709 17.6832 13.2711 17.6095 13.2656 17.536C13.2574 17.4026 13.3132 17.3417 13.4508 17.3422C14.0574 17.3444 14.6641 17.3419 15.2707 17.3422C15.5468 17.3423 15.4575 17.5533 15.4713 17.6991C15.4859 17.8525 15.4615 17.9733 15.2548 17.9658C14.9601 17.9552 14.6647 17.9631 14.3696 17.9631V17.9622Z" fill="#F46825"/>
<path d="M7.52284 17.9623C7.23641 17.9623 6.94973 17.9552 6.66364 17.965C6.49072 17.9709 6.41276 17.9225 6.41256 17.7333C6.41214 17.3429 6.40289 17.3426 6.80011 17.3424C7.31569 17.3421 7.83183 17.357 8.34661 17.3369C8.62743 17.3259 8.61619 17.4788 8.62014 17.6734C8.62407 17.8671 8.59538 17.983 8.35727 17.9667C8.08033 17.9477 7.80108 17.9623 7.52284 17.9623Z" fill="#F46825"/>
<path d="M18.0927 24.816C18.3876 24.8162 18.6827 24.8243 18.9772 24.8131C19.1529 24.8065 19.2023 24.8774 19.2039 25.0425C19.2079 25.4367 19.2144 25.437 18.8175 25.4376C18.3096 25.4383 17.8013 25.4245 17.2942 25.444C17.0203 25.4545 16.9928 25.3254 16.9907 25.1036C16.9886 24.8838 17.0475 24.7936 17.2821 24.8112C17.5509 24.8314 17.8224 24.8159 18.0927 24.816Z" fill="#F46825"/>
<path d="M7.51889 21.08C7.81381 21.0799 8.10919 21.09 8.4035 21.0767C8.63924 21.0661 8.62334 21.2154 8.61625 21.3656C8.60912 21.5168 8.67829 21.7084 8.40097 21.7043C7.81125 21.6957 7.22144 21.6954 6.63152 21.7034C6.35562 21.7068 6.42443 21.5141 6.41584 21.3628C6.40706 21.2082 6.40382 21.0665 6.63427 21.0768C6.92859 21.0901 7.22397 21.08 7.51889 21.08Z" fill="#F46825"/>
</g>
<defs>
<clipPath id="clip0_4398_194">
<rect width="32" height="32" fill="white"/>
</clipPath>
</defs>
</svg>
