<svg width="32" height="32" viewBox="0 0 32 32" fill="none" xmlns="http://www.w3.org/2000/svg">
<g clip-path="url(#clip0_4417_545)">
<rect width="32" height="32" rx="16" fill="white"/>
<path d="M16 0C7.168 0 0 7.168 0 15.9872C0 20.224 1.6896 24.2944 4.6848 27.3024C10.944 33.5616 21.0688 33.5616 27.3024 27.3024C33.5488 21.0432 33.5616 10.9184 27.3024 4.6848C24.2944 1.6768 20.2368 0 15.9872 0H16ZM16 30.4C8.0512 30.4 1.6128 23.9488 1.6128 16C1.6128 8.0512 8.0512 1.6128 16 1.6128C23.9488 1.6128 30.4 8.0512 30.4 16.0128C30.4 23.9744 23.9488 30.4 16 30.4Z" fill="#231F20"/>
<path d="M7.38559 23.2832C6.14399 20.6592 6.04159 17.4464 7.14239 14.7584C7.78239 13.2096 8.78079 11.8272 10.0864 10.7648C11.9168 9.24162 14.208 8.40962 16.5632 8.38402C16.5632 7.89762 16.5632 7.42402 16.576 6.95042V6.66882C16.576 6.66882 16.3584 6.66882 16.2816 6.66882C13.2736 6.78402 10.4064 8.00002 8.24319 10.0992C6.32319 11.9936 5.10719 14.592 4.79999 17.2672C4.46719 20.1472 5.28639 23.168 7.10399 25.4592L7.12959 25.4976C7.85919 26.4192 8.74239 27.264 9.79199 27.8272C11.5328 28.7744 13.4784 29.312 15.4624 29.376C12.0448 28.7744 8.88319 26.4192 7.39839 23.2832H7.38559Z" fill="#231F20"/>
<path d="M24.7296 25.1904C24.3968 25.216 24.064 25.2416 23.7184 25.2672C20.8896 25.4336 17.7536 25.3568 15.2576 23.8336C14.5664 23.424 13.952 22.8864 13.4272 22.272C11.6224 20.1216 11.6864 16.896 13.9904 15.1424C16 13.6064 19.0208 13.9008 20.6336 15.8592C20.7744 16.0384 21.0944 16.4352 21.0944 16.4352C21.0944 16.4352 21.632 16.1536 21.7856 16.0768L21.8368 16.0512L21.8752 16.0384L21.9648 16L22.0032 15.9744L22.4 15.7696L22.6304 15.6672L22.6176 15.6544C22.144 14.8736 21.5296 14.1952 20.7872 13.6576C19.3664 12.6592 17.6384 12.224 15.9232 12.48C13.1712 12.8896 10.8928 15.0144 10.4448 17.7664C9.9712 20.608 11.4048 23.3344 13.7472 24.9344C16.1792 26.5728 19.2512 26.8032 22.144 26.7008C22.8224 26.6752 24.2048 26.56 24.2048 26.5216C24.768 26.0608 25.2928 25.5744 25.7792 25.0368C25.792 25.024 24.8832 25.1648 24.7424 25.1776L24.7296 25.1904Z" fill="#231F20"/>
<path d="M19.9552 27.7504C19.6096 27.7376 19.264 27.7248 18.9184 27.6864C16.0768 27.4176 13.1584 26.3424 11.2896 24.0896C9.54881 22.016 8.81921 19.072 9.66401 16.4608C10.9568 12.5184 15.2064 10.3808 19.1488 11.6736C19.264 11.712 19.4048 11.7504 19.52 11.8016C19.52 11.8016 19.8528 11.072 19.8912 10.9952V10.9824L19.904 10.9568L19.9296 10.9056C20.032 10.6752 20.1472 10.432 20.2496 10.2144C17.856 9.35681 15.2832 9.31841 12.9408 10.3936C8.28161 12.5184 6.22081 18.0096 8.34561 22.6688C8.62721 23.2704 8.96001 23.8464 9.35681 24.384C10.3808 25.7408 11.7888 26.8032 13.312 27.5968C15.7056 28.8384 19.1616 28.992 19.4176 28.9408C20.608 28.6592 22.3232 27.84 22.6688 27.584C22.144 27.6864 21.2608 27.712 20.7488 27.7248C20.48 27.7504 20.2112 27.7504 19.9552 27.7504Z" fill="#231F20"/>
</g>
<defs>
<clipPath id="clip0_4417_545">
<rect width="32" height="32" rx="16" fill="white"/>
</clipPath>
</defs>
</svg>
