<svg width="32" height="32" viewBox="0 0 32 32" fill="none" xmlns="http://www.w3.org/2000/svg">
<g clip-path="url(#clip0_4389_39)">
<path d="M16 0C24.8358 0 32 7.16416 32 16C32 24.8358 24.8358 32 16 32C7.16416 32 0 24.8358 0 16C0 7.16416 7.16416 0 16 0Z" fill="#F0B90B"/>
<path d="M5.12 16.0051L7.83743 13.2877L10.5549 16.0051L7.83743 18.7226L5.12 16.0051ZM24.1626 13.2698L13.2698 24.1626L15.9872 26.88L26.88 15.9872L24.1626 13.2698ZM9.19552 20.0806L20.0883 9.18783L22.8058 11.9053L11.913 22.7981L9.19552 20.0806ZM9.1904 11.936L16.0064 5.12L18.7238 7.83743L11.9078 14.6534L9.1904 11.936Z" fill="white"/>
</g>
<defs>
<clipPath id="clip0_4389_39">
<rect width="32" height="32" fill="white"/>
</clipPath>
</defs>
</svg>
