<svg width="32" height="32" viewBox="0 0 32 32" fill="none" xmlns="http://www.w3.org/2000/svg">
<g clip-path="url(#clip0_4419_608)">
<rect width="32" height="32" rx="16" fill="white"/>
<path d="M16 32C24.8366 32 32 24.8366 32 16C32 7.16344 24.8366 0 16 0C7.16344 0 0 7.16344 0 16C0 24.8366 7.16344 32 16 32Z" fill="white"/>
<path d="M25.344 13.8496V9.53601H23.1936V7.37281H18.88V5.22241H14.5664V7.37281H10.2528V9.53601H8.0896V22.464H10.2528V24.6272H14.5664V26.7776H18.8672V24.6272H23.1936V22.464H25.344V18.1504H21.0304V20.3136H18.88V22.464H14.5664V20.3136H12.4032V11.6864H14.5664V9.53601H18.88V11.6864H21.0304V13.8496H25.344Z" fill="#3A3A3A"/>
<path d="M21.0304 11.6864H19.5968V13.8368H21.0304V11.6864Z" fill="#1682FE"/>
<path d="M18.8672 9.53601H17.4336V11.6864H18.8672V9.53601Z" fill="#1682FE"/>
<path d="M14.5536 5.22241H13.12V7.37281H14.5536V5.22241Z" fill="#1682FE"/>
<path d="M21.0304 18.1632H18.88V20.3264H21.0304V18.1632Z" fill="#FF5A5A"/>
<path d="M18.8672 20.3136H17.4336V22.464H18.8672V20.3136Z" fill="#FF5A5A"/>
<path d="M14.5536 24.6272H13.12V26.7776H14.5536V24.6272Z" fill="#FF5A5A"/>
<path d="M10.24 22.464H8.8064V24.6144H10.24V22.464Z" fill="#F4BB3B"/>
<path d="M8.0896 16H6.656V22.464H8.0896V16Z" fill="#F4BB3B"/>
<path d="M8.0896 9.53601H6.656V16H8.0896V9.53601Z" fill="#60D8A4"/>
<path d="M10.24 7.3728H8.8064V9.5232H10.24V7.3728Z" fill="#1682FE"/>
</g>
<defs>
<clipPath id="clip0_4419_608">
<rect width="32" height="32" rx="16" fill="white"/>
</clipPath>
</defs>
</svg>
