<svg width="32" height="32" viewBox="0 0 32 32" fill="none" xmlns="http://www.w3.org/2000/svg">
<g clip-path="url(#clip0_4396_104)">
<path d="M16 32C24.8366 32 32 24.8366 32 16C32 7.16344 24.8366 0 16 0C7.16344 0 0 7.16344 0 16C0 24.8366 7.16344 32 16 32Z" fill="url(#paint0_linear_4396_104)"/>
<path fill-rule="evenodd" clip-rule="evenodd" d="M9.93157 8.4646H16.0269C19.7338 8.4646 22.5447 10.4576 23.5905 13.3568H25.4887V15.1091H23.9898C24.0193 15.3856 24.0346 15.6684 24.0346 15.9552V15.9987C24.0346 16.3212 24.0154 16.6387 23.9783 16.9497H25.4887V18.702H23.5533C22.4807 21.5616 19.6916 23.5353 16.0269 23.5353H9.93157V18.702H7.81445V16.9497H9.93285V15.1104H7.81445V13.358H9.93285L9.93157 8.4646ZM11.6353 18.702V21.9635H16.0257C18.7354 21.9635 20.7489 20.6579 21.6858 18.702H11.6353ZM22.2093 16.9497H11.6365V15.1104H22.2119C22.2516 15.3996 22.2708 15.6966 22.2708 15.9987V16.0422C22.2708 16.3507 22.2503 16.654 22.2093 16.9497ZM16.0269 10.0352C18.7495 10.0352 20.7681 11.3753 21.6999 13.358H11.6365V10.0352H16.0269Z" fill="white"/>
</g>
<defs>
<linearGradient id="paint0_linear_4396_104" x1="16" y1="-3.2" x2="16" y2="35.2" gradientUnits="userSpaceOnUse">
<stop stop-color="#F9A606"/>
<stop offset="1" stop-color="#FBCC5F"/>
</linearGradient>
<clipPath id="clip0_4396_104">
<rect width="32" height="32" fill="white"/>
</clipPath>
</defs>
</svg>
