<svg width="32" height="32" viewBox="0 0 32 32" fill="none" xmlns="http://www.w3.org/2000/svg">
<g clip-path="url(#clip0_4421_17)">
<rect width="32" height="32" rx="16" fill="#DAF1FE"/>
<path fill-rule="evenodd" clip-rule="evenodd" d="M15.9161 18.9548C15.2022 18.9548 14.6211 18.3168 14.8583 17.6434C14.9091 17.4993 14.9667 17.3713 15.0309 17.2781C15.3369 16.8347 15.7834 16.3508 16.3704 15.8262C16.82 15.4266 17.1541 15.08 17.3727 14.7865C17.5912 14.493 17.7005 14.1589 17.7005 13.7842C17.7005 13.2597 17.4882 12.8351 17.0636 12.5103C16.6389 12.1856 16.0707 12.0233 15.3588 12.0233C14.5401 12.0233 13.5902 12.5547 12.97 12.9725C12.5619 13.2474 12.0227 13.2823 11.61 13.0143V13.0143C11.026 12.635 10.9299 11.8187 11.4586 11.3654C11.8196 11.0559 12.2246 10.7489 12.5674 10.5901C13.4167 10.1967 14.4158 10 15.5649 10C16.9637 10 18.0783 10.3029 18.9088 10.9086C19.7394 11.5143 20.1546 12.348 20.1546 13.4096C20.1546 13.9216 20.0703 14.3712 19.9017 14.7584C19.7331 15.1456 19.5302 15.4734 19.2929 15.7419C19.0556 16.0104 18.7434 16.3196 18.3562 16.6693C17.8816 17.0939 17.5288 17.4686 17.2977 17.7933C17.2656 17.8384 17.2357 17.8935 17.2081 17.9548C16.9642 18.4956 16.5093 18.9548 15.9161 18.9548V18.9548Z" fill="url(#paint0_linear_4421_17)"/>
<path fill-rule="evenodd" clip-rule="evenodd" d="M15.7709 23.4322C15.3338 23.4322 14.9747 23.2917 14.6937 23.0107C14.4127 22.7297 14.2722 22.3831 14.2722 21.9709C14.2722 21.5588 14.4127 21.2154 14.6937 20.9406C14.9747 20.6658 15.3338 20.5284 15.7709 20.5284C16.1956 20.5284 16.5484 20.6658 16.8294 20.9406C17.1104 21.2154 17.2509 21.5588 17.2509 21.9709C17.2509 22.3831 17.1104 22.7297 16.8294 23.0107C16.5484 23.2917 16.1956 23.4322 15.7709 23.4322Z" fill="url(#paint1_linear_4421_17)"/>
</g>
<defs>
<linearGradient id="paint0_linear_4421_17" x1="29.0969" y1="14.3163" x2="16.2588" y2="4.17764" gradientUnits="userSpaceOnUse">
<stop stop-color="#55E7D9"/>
<stop offset="1" stop-color="#54B4FF"/>
</linearGradient>
<linearGradient id="paint1_linear_4421_17" x1="20.1605" y1="21.9281" x2="15.9942" y2="18.6266" gradientUnits="userSpaceOnUse">
<stop stop-color="#55E7D9"/>
<stop offset="1" stop-color="#54B4FF"/>
</linearGradient>
<clipPath id="clip0_4421_17">
<rect width="32" height="32" fill="white"/>
</clipPath>
</defs>
</svg>
