<svg width="100" height="100" viewBox="0 0 100 100" fill="none" xmlns="http://www.w3.org/2000/svg">
<g clip-path="url(#clip0_252_18)">
<circle cx="50" cy="50" r="50" fill="#FFF0DE"/>
<circle cx="50" cy="50" r="49" stroke="#FFB35A" stroke-opacity="0.5" stroke-width="2"/>
<path d="M78 30.75C78 32.7188 76.4359 34.5344 73.8 36C70.6172 37.7609 65.8703 39.0078 60.4234 39.3797C60.0187 39.1828 59.6141 38.9969 59.1875 38.8328C54.8781 37.0281 49.1469 36 43 36C42.0922 36 41.2063 36.0219 40.3203 36.0656L40.2 36C37.5641 34.5344 36 32.7188 36 30.75C36 25.9156 45.4062 22 57 22C68.5938 22 78 25.9156 78 30.75ZM39.5766 39.6203C40.6922 39.5438 41.8406 39.5 43 39.5C49.8031 39.5 55.8406 40.8453 59.6797 42.9344C62.3922 44.4109 64 46.2484 64 48.25C64 48.6875 63.9234 49.1141 63.7703 49.5297C63.2672 50.9734 61.9109 52.2969 59.9422 53.4125C59.9312 53.4234 59.9094 53.4234 59.8984 53.4344C59.8656 53.4562 59.8328 53.4672 59.8 53.4891C55.9719 55.6109 49.8687 56.9891 43 56.9891C36.4813 56.9891 30.6516 55.7531 26.7906 53.8062C26.5828 53.7078 26.3859 53.5984 26.1891 53.4891C23.5641 52.0344 22 50.2188 22 48.25C22 44.4438 27.8406 41.1953 36 40.0031C37.1484 39.8391 38.3406 39.7078 39.5766 39.6203ZM67.5 48.25C67.5 45.8547 66.3406 43.8859 64.8641 42.4094C67.9594 41.9281 70.7922 41.1625 73.1984 40.1672C74.9813 39.4234 76.6438 38.5047 78 37.3781V41.25C78 43.3609 76.1953 45.3078 73.2094 46.8172C71.6125 47.6266 69.6656 48.3156 67.4781 48.8406C67.4891 48.6437 67.5 48.4578 67.5 48.2609V48.25ZM64 58.75C64 60.7188 62.4359 62.5344 59.8 64C59.6031 64.1094 59.4063 64.2078 59.1984 64.3172C55.3484 66.2641 49.5187 67.5 43 67.5C36.1313 67.5 30.0281 66.1219 26.2 64C23.5641 62.5344 22 60.7188 22 58.75V54.8781C23.3672 56.0047 25.0188 56.9234 26.8016 57.6672C31.1219 59.4719 36.8531 60.5 43 60.5C49.1469 60.5 54.8781 59.4719 59.1984 57.6672C60.0516 57.3172 60.8719 56.9125 61.6484 56.475C62.3156 56.1031 62.9391 55.6875 63.5297 55.25C63.6938 55.1297 63.8469 54.9984 64 54.8781V55.25V55.8734V58.75ZM67.5 58.75V55.25V52.4172C69.5781 51.9578 71.4922 51.3781 73.1984 50.6672C74.9813 49.9234 76.6438 49.0047 78 47.8781V51.75C78 52.8984 77.4531 54.0469 76.3703 55.1297C74.5875 56.9125 71.4484 58.3781 67.4781 59.3297C67.4891 59.1437 67.5 58.9469 67.5 58.75ZM43 71C49.1469 71 54.8781 69.9719 59.1984 68.1672C60.9813 67.4234 62.6438 66.5047 64 65.3781V69.25C64 74.0844 54.5938 78 43 78C31.4062 78 22 74.0844 22 69.25V65.3781C23.3672 66.5047 25.0188 67.4234 26.8016 68.1672C31.1219 69.9719 36.8531 71 43 71Z" fill="#FFB35A"/>
</g>
<defs>
<clipPath id="clip0_252_18">
<rect width="100" height="100" fill="white"/>
</clipPath>
</defs>
</svg>
