<svg width="32" height="32" viewBox="0 0 32 32" fill="none" xmlns="http://www.w3.org/2000/svg">
<g clip-path="url(#clip0_4408_359)">
<rect width="32" height="32" rx="16" fill="white"/>
<path d="M0 0V32H32V0H0ZM11.187 3.712H14.1789V6.784H11.187V3.712ZM3.64228 3.712H6.76423V6.784H3.64228V3.712ZM6.63415 11.136V14.208H3.5122V11.136H6.63415ZM5.85366 28.032H4.55285V26.88H5.72358V28.032H5.85366ZM6.76423 21.888H3.64228V18.944H6.76423V21.888ZM13.3984 28.032H12.2276V26.88H13.3984V28.032ZM13.3984 20.864H12.2276V19.712H13.3984V20.864ZM14.3089 14.336H11.187V11.264H14.3089V14.336ZM20.9431 28.032H19.7724V26.88H20.9431V28.032ZM20.9431 20.864H19.7724V19.712H20.9431V20.864ZM20.9431 13.312H19.7724V12.16H20.9431V13.312ZM21.9837 6.784H18.8618V3.712H21.9837V6.784ZM28.6179 28.032H27.4472V26.88H28.6179V28.032ZM28.6179 20.864H27.4472V19.712H28.6179V20.864ZM28.6179 13.312H27.4472V12.16H28.6179V13.312ZM28.6179 5.888H27.4472V4.736H28.6179V5.888Z" fill="#202944"/>
</g>
<defs>
<clipPath id="clip0_4408_359">
<rect width="32" height="32" rx="16" fill="white"/>
</clipPath>
</defs>
</svg>
