<svg width="32" height="32" viewBox="0 0 32 32" fill="none" xmlns="http://www.w3.org/2000/svg">
<g clip-path="url(#clip0_4389_49)">
<path d="M16 32C24.8366 32 32 24.8366 32 16C32 7.16344 24.8366 0 16 0C7.16344 0 0 7.16344 0 16C0 24.8366 7.16344 32 16 32Z" fill="#1969EE"/>
<path d="M14.9568 4.2304C15.5417 3.9232 16.4326 3.9232 17.0176 4.2304L22.9901 7.35872C23.3421 7.54304 23.5366 7.81824 23.5712 8.1024H23.5763V23.8246C23.5686 24.1344 23.3728 24.4416 22.9901 24.6426L17.0176 27.7709C16.4326 28.0781 15.5417 28.0781 14.9568 27.7709L8.98558 24.6426C8.60414 24.4429 8.4211 24.1331 8.41214 23.8246C8.41086 23.7939 8.41086 23.7683 8.41214 23.7478V8.20224C8.41214 8.1856 8.41214 8.16768 8.41214 8.15104V8.10112H8.4147C8.44158 7.8144 8.6259 7.5456 8.98558 7.35744L14.9568 4.2304ZM22.6355 16.873L17.0176 19.8157C16.4326 20.1216 15.5417 20.1216 14.9568 19.8157L9.35038 16.8794V23.7926L14.9568 26.7136C15.2729 26.8813 15.6019 27.0451 15.9232 27.0656L15.9872 27.0682C16.3213 27.0694 16.6464 26.9005 16.9766 26.7405L22.6355 23.767V16.873ZM7.43934 23.4816C7.43934 24.0845 7.50974 24.48 7.65054 24.759C7.76702 24.9907 7.9411 25.1674 8.25854 25.3824L8.27645 25.3939C8.34685 25.4413 8.42366 25.4899 8.5171 25.5475L8.62718 25.6141L8.96638 25.8176L8.47998 26.615L8.09981 26.3872L8.03581 26.3488C7.92573 26.281 7.83486 26.2234 7.75038 26.167C6.84285 25.5603 6.50494 24.8998 6.49854 23.5238V23.4816H7.43934ZM15.5174 12.6592C15.4739 12.6746 15.4329 12.6912 15.3958 12.7104L9.42461 15.8387C9.41821 15.8413 9.41182 15.8451 9.4067 15.849L9.40158 15.8515L9.41054 15.8566L9.42461 15.8643L15.3971 18.9926C15.4342 19.0118 15.4752 19.0298 15.5187 19.0438V12.6592H15.5174ZM16.4569 12.6592V19.0426C16.5005 19.0272 16.5414 19.0106 16.5785 18.9914L22.551 15.863C22.5574 15.8592 22.5625 15.8566 22.5689 15.8528L22.5741 15.8502L22.5651 15.8451L22.551 15.8374L16.5785 12.7104C16.5414 12.6912 16.5005 12.6733 16.4569 12.6592ZM22.6355 9.21728L17.2787 12.023L22.6355 14.8288V9.21728ZM9.35165 9.22368V14.8224L14.6957 12.023L9.35165 9.22368ZM16.5785 5.05344C16.2675 4.89088 15.7056 4.89088 15.3958 5.05344L9.42461 8.18176C9.41821 8.18432 9.41182 8.18816 9.4067 8.192L9.40158 8.19456L9.41054 8.19968L9.42461 8.20736L15.3958 11.3357C15.7069 11.4982 16.2688 11.4982 16.5785 11.3357L22.5497 8.20736C22.5561 8.2048 22.5613 8.20096 22.5677 8.19712L22.5728 8.19456L22.5638 8.18944L22.5497 8.18176L16.5785 5.05344ZM23.5187 5.39648L23.8989 5.62432L23.9629 5.66272C24.0729 5.73056 24.1638 5.78816 24.2483 5.84448C25.1558 6.4512 25.4937 7.11168 25.5001 8.48768V8.52992H24.5606C24.5606 7.92704 24.4902 7.53152 24.3494 7.25248C24.2329 7.0208 24.0589 6.84416 23.7401 6.62912L23.7222 6.61632C23.6518 6.56896 23.575 6.52032 23.4816 6.46272L23.3715 6.39616L23.0323 6.19264L23.5187 5.39648Z" fill="white"/>
</g>
<defs>
<clipPath id="clip0_4389_49">
<rect width="32" height="32" fill="white"/>
</clipPath>
</defs>
</svg>
