<svg width="32" height="32" viewBox="0 0 32 32" fill="none" xmlns="http://www.w3.org/2000/svg">
<g clip-path="url(#clip0_4424_46)">
<path fill-rule="evenodd" clip-rule="evenodd" d="M32 16C32 7.168 24.832 0 16 0C7.168 0 0 7.168 0 16C0 24.832 7.168 32 16 32C24.832 32 32 24.832 32 16Z" fill="black"/>
<path d="M8.9088 6.88636L7.8336 7.96156L9.1904 9.31836L10.5472 10.6752L10.432 11.008C10.2912 11.4432 10.2272 11.8144 10.2272 12.288C10.2272 13.8624 11.0464 15.2064 12.5056 16C13.0944 16.32 14.1056 16.6784 15.2192 16.9728C17.3952 17.536 17.7408 17.6256 18.1632 17.8304C18.752 18.112 19.0464 18.4064 19.1616 18.8672C19.2128 19.072 19.2128 19.5072 19.1616 19.7248C19.0208 20.2496 18.5856 20.7616 18.0352 21.0432C17.2928 21.4272 16 21.5424 15.0272 21.2864C14.6688 21.1968 14.1568 20.9408 13.9008 20.736C13.376 20.3008 12.9664 19.5584 12.7872 18.688C12.7616 18.5472 12.736 18.432 12.736 18.432C12.7232 18.4192 9.6896 18.7136 9.6768 18.7392C9.664 18.752 9.6768 18.8672 9.6896 19.0208C9.7792 19.6992 10.0224 20.5184 10.304 21.0816L10.4704 21.4144L9.152 22.7328L7.8336 24.0512L8.9088 25.1264L9.984 26.2016L11.3408 24.8448L12.6976 23.488L12.928 23.5904C14.1696 24.1152 16.0256 24.2688 17.8304 24.0128C18.2656 23.9488 18.8928 23.808 19.2128 23.68L19.4048 23.6032L20.7104 24.9088L22.0032 26.2016L23.0784 25.1264L24.1536 24.0512L22.9504 22.848L21.7472 21.6448L21.9008 21.3376C22.2208 20.7104 22.3488 20.1728 22.3744 19.4304C22.4256 18.0224 22.0544 16.96 21.2224 16.0896C20.352 15.1808 19.3792 14.7456 16.6272 14.0544C14.6816 13.568 13.8496 13.2352 13.5168 12.8128C13.184 12.4032 13.1584 11.8144 13.44 11.392C13.6064 11.1488 14.016 10.88 14.464 10.7392C14.9632 10.5728 15.808 10.496 16.4352 10.56C17.7536 10.7008 18.4192 11.264 18.7136 12.4928C18.752 12.6464 18.7776 12.7744 18.7904 12.7744C18.7904 12.7872 20.9408 12.7104 21.5808 12.672L21.952 12.6592L21.9264 12.4032C21.888 11.8784 21.7856 11.4048 21.5936 10.9184L21.4912 10.6368L22.8224 9.29276L24.1536 7.96156L23.0784 6.88636L22.0032 5.81116L20.6464 7.16796L19.2896 8.52476L18.9568 8.39676C18.1504 8.08956 17.3696 7.96156 16.2176 7.92316C14.9632 7.88476 13.8496 8.05116 13.0048 8.39676L12.6848 8.52476L11.328 7.16796L9.9712 5.81116L8.896 6.88636H8.9088Z" fill="white"/>
</g>
<defs>
<clipPath id="clip0_4424_46">
<rect width="32" height="32" fill="white"/>
</clipPath>
</defs>
</svg>
