<svg width="32" height="32" viewBox="0 0 32 32" fill="none" xmlns="http://www.w3.org/2000/svg">
<g clip-path="url(#clip0_4392_68)">
<path fill-rule="evenodd" clip-rule="evenodd" d="M0 23.6751C0.436674 23.8816 1.00981 24.1973 1.41919 24.4402C1.5693 24.5313 1.73987 24.6102 1.90362 24.7013C1.99232 24.7499 2.04691 24.7742 2.12878 24.8227C2.16972 24.847 2.20384 24.8713 2.24478 24.8895C2.29254 24.9138 2.31983 24.926 2.36759 24.9503L7.62132 27.8284C7.69638 27.8649 7.76461 27.9074 7.84648 27.9499L12.6158 30.567C12.6704 30.5973 12.6908 30.6034 12.7386 30.6337L15.0175 31.8785C15.1198 31.9271 15.1608 31.9878 15.2768 31.9939V16.1457L14.5535 15.7753C14.4853 15.7449 14.4443 15.7207 14.3761 15.6842L13.8098 15.3928C13.0047 15.0163 12.2542 14.5548 11.4422 14.1783C11.3603 14.1419 11.333 14.1176 11.2444 14.0812L10.5211 13.7108C10.3437 13.6136 9.53859 13.1825 9.39531 13.1522V15.6539L12.3565 17.178C12.4384 17.2205 12.493 17.2508 12.568 17.2873C12.6499 17.3237 12.6908 17.3662 12.7932 17.3844V28.1138C12.2746 27.8041 11.722 27.5248 11.1898 27.2394L9.90021 26.529C9.37484 26.2133 8.80853 25.9521 8.28316 25.6425C8.22175 25.606 8.18763 25.5939 8.12623 25.5575L6.98678 24.932C6.86397 24.8713 6.77527 24.8227 6.65928 24.7499C6.24307 24.5009 5.79275 24.2823 5.36972 24.0394C5.25373 23.9726 5.15821 23.9301 5.04222 23.8633C4.4145 23.4869 3.73902 23.1468 3.09765 22.8007C3.04307 22.7704 2.99531 22.74 2.94755 22.7096L2.44947 22.4364V9.55746C2.35394 9.50281 2.25842 9.45424 2.14925 9.39959C2.04009 9.34494 1.95821 9.30243 1.84904 9.24171L0.313859 8.46448C0.197868 8.40983 0.109168 8.34911 0 8.30054V23.6751Z" fill="#060606"/>
<path fill-rule="evenodd" clip-rule="evenodd" d="M16.7506 16.1214V22.2117L17.658 21.7563C18.0743 21.562 18.4563 21.3252 18.8725 21.1309C18.9476 21.0945 18.9749 21.0823 19.0295 21.0459C19.0841 21.0155 19.1386 20.9973 19.1932 20.973V17.3844C19.2751 17.3662 19.3024 17.3541 19.3638 17.3176C19.4252 17.2812 19.4662 17.269 19.5276 17.2387C19.8482 17.0747 20.1621 16.8804 20.4896 16.7347C20.9331 16.5404 21.3561 16.2975 21.7792 16.0728C21.8883 16.0182 21.977 15.9696 22.093 15.9089L22.7344 15.5871C22.8026 15.5506 22.8231 15.5385 22.8913 15.5021C23.1711 15.3745 23.4303 15.2045 23.7169 15.0709L24.0308 14.907C24.0853 14.8766 24.1399 14.8584 24.1945 14.8341L26.2892 13.7533C26.7327 13.5468 27.1421 13.2979 27.5787 13.0914L28.2269 12.7514C28.4453 12.636 28.6568 12.5328 28.8751 12.4114C28.9911 12.3506 29.0866 12.3081 29.189 12.2474L29.5301 12.0774V22.4668C29.4346 22.485 29.4073 22.5153 29.3254 22.5578L28.725 22.8857C28.6636 22.9222 28.6158 22.9525 28.5408 22.995C28.4589 23.0375 28.4043 23.074 28.3361 23.1104C28.261 23.1468 28.2201 23.1772 28.145 23.2136L27.5378 23.5355C26.9919 23.8148 26.4802 24.1305 25.9344 24.4098L24.3378 25.2903C24.2627 25.3328 24.2218 25.351 24.1467 25.3935C23.4303 25.8246 22.6661 26.1829 21.9429 26.6019C21.8133 26.6808 21.6768 26.7476 21.5472 26.8205L19.548 27.9134C19.4866 27.9438 19.4184 27.9802 19.357 28.0167C18.7634 28.3628 18.1425 28.6603 17.5489 29.0064L16.7369 29.4497V32C16.8734 31.9696 17.0917 31.8239 17.2146 31.7571C17.3783 31.666 17.5352 31.5931 17.699 31.496C18.1561 31.2227 18.6542 30.9981 19.1114 30.7248C19.2001 30.6763 19.2683 30.6337 19.3502 30.5912L20.5578 29.9294C20.6397 29.8869 20.7011 29.8504 20.783 29.8079L27.2103 26.2861C27.299 26.2375 27.374 26.195 27.4491 26.1525L31.7408 23.8026C31.8227 23.7541 31.9045 23.7115 31.9864 23.6751V8.32483C31.8636 8.34912 31.8431 8.38555 31.7476 8.43413C31.6589 8.47663 31.5975 8.50699 31.5156 8.5495L30.0896 9.28422C29.6052 9.51496 29.1548 9.80035 28.6636 10.0189L24.8495 11.9742C24.6789 12.0592 24.5425 12.1381 24.3787 12.2231L23.676 12.5874C23.1779 12.8121 22.4546 13.1947 21.9975 13.4497C21.9156 13.4983 21.8474 13.5165 21.7655 13.5651L20.2167 14.3666C20.1485 14.3969 20.1621 14.3969 20.0939 14.4334L19.6094 14.6702C19.3229 14.8038 19.0704 14.9677 18.7838 15.1013C18.7156 15.1317 18.7156 15.1438 18.661 15.1681L18.1766 15.4049C17.8559 15.5446 17.0099 16.0728 16.7506 16.1214Z" fill="#060606"/>
<path fill-rule="evenodd" clip-rule="evenodd" d="M0.948364 7.28046C1.04389 7.29867 1.09847 7.34725 1.18717 7.38975C1.50785 7.54156 1.79442 7.72372 2.12193 7.86945L4.71468 9.20531C5.94964 9.87325 7.23237 10.4683 8.47416 11.1362L8.70615 11.2516C8.79485 11.2941 8.85625 11.3306 8.93813 11.367L10.3505 12.0956C10.4119 12.126 10.4051 12.126 10.4528 12.1503C11.1147 12.5085 11.8106 12.8121 12.4656 13.1825L14.5671 14.2573C14.649 14.2998 14.7104 14.3362 14.7923 14.3787C15.0379 14.5123 15.9181 14.986 16.0068 14.986C16.1364 14.986 16.887 14.5609 17.078 14.4577L17.4464 14.2634C17.5693 14.1966 17.6784 14.1541 17.8012 14.0873C17.9309 14.0205 18.0264 13.9719 18.156 13.9051L18.8725 13.5287C18.9953 13.4619 19.1044 13.4133 19.2204 13.3465L20.3053 12.8C20.3735 12.7696 20.4213 12.7393 20.4827 12.7089C20.5441 12.6725 20.585 12.6543 20.6601 12.6178L21.3833 12.2474C21.4993 12.1867 21.629 12.0956 21.7654 12.0653C21.745 11.9924 21.7313 11.9985 21.6631 11.962L19.3501 10.778C18.429 11.2091 17.5556 11.7131 16.6413 12.1564C16.5663 12.1928 16.5049 12.2292 16.4366 12.2717C16.2934 12.3507 16.1637 12.4175 16.0136 12.4903L14.6217 11.7738C14.1373 11.5552 13.6938 11.2698 13.2093 11.0452C13.1002 10.9905 12.991 10.9298 12.8955 10.8812L10.0708 9.43605C10.0162 9.40569 9.96841 9.3814 9.91382 9.35104C9.85242 9.31461 9.81148 9.30247 9.75007 9.27211L6.13387 7.41404C6.06564 7.37761 6.05881 7.35939 5.96329 7.34118C6.03834 7.24402 6.12704 7.23795 6.24986 7.17116C6.3522 7.11044 6.44772 7.08008 6.55689 7.02543L9.70231 5.51347C9.77054 5.47704 9.77054 5.47097 9.83877 5.44061C9.907 5.41025 9.94112 5.3981 10.0025 5.36167C10.1117 5.30095 10.2209 5.25844 10.33 5.20987L14.2533 3.32751C14.3215 3.29715 14.342 3.27894 14.4102 3.2425L16.0068 2.48349C16.0955 2.48349 17.3032 3.10892 17.5829 3.23643C17.6511 3.26679 17.6989 3.28501 17.7671 3.32144C17.849 3.36395 17.8695 3.38216 17.965 3.4186L22.3044 5.50133C22.6865 5.71385 23.8464 6.25427 24.2558 6.43643C24.7198 6.64288 25.1633 6.89184 25.6273 7.09829L28.2064 8.34307C28.2951 8.38558 28.3224 8.39772 28.4042 8.44023C28.7113 8.60417 28.7181 8.46452 29.2162 8.22163L30.1373 7.75408C30.301 7.67514 30.9219 7.32296 31.0652 7.2926C31.0379 7.21366 30.956 7.1833 30.8742 7.1408L29.9394 6.68539C29.4686 6.47287 28.9978 6.21176 28.527 6.01139L27.5923 5.55598C27.2716 5.41025 26.9509 5.27666 26.6507 5.10664L21.936 2.84175C21.8405 2.79924 21.7859 2.77495 21.704 2.72638L19.8072 1.81556C19.7185 1.77305 19.6639 1.74269 19.5752 1.70019C19.5275 1.6759 19.507 1.66983 19.4661 1.65161L16.9757 0.449336C16.8187 0.364326 16.0887 0 16 0C15.9249 0 15.3995 0.279317 15.2835 0.327894L9.88653 2.92676C9.79783 2.96319 9.7296 2.99355 9.64772 3.03605L5.86777 4.85161C5.77907 4.89412 5.73813 4.92448 5.63578 4.96698L5.29463 5.13093C5.2264 5.16129 5.2264 5.17343 5.17182 5.19772C5.09677 5.24023 5.01489 5.25844 4.93301 5.30702L4.20977 5.65313C4.11425 5.69564 4.06649 5.73207 3.97779 5.7685L2.87928 6.30285C2.83834 6.32106 2.83834 6.31499 2.80423 6.33321C2.6473 6.41214 2.48355 6.46679 2.33344 6.55787C2.24474 6.60645 2.19016 6.62467 2.09463 6.66717L1.03706 7.18937C0.955187 7.23188 0.975656 7.19545 0.948364 7.28046Z" fill="#060606"/>
</g>
<defs>
<clipPath id="clip0_4392_68">
<rect width="32" height="32" fill="white"/>
</clipPath>
</defs>
</svg>
