<?xml version="1.0" encoding="UTF-8"?>
<svg xmlns:xodm="http://www.corel.com/coreldraw/odm/2003" xmlns="http://www.w3.org/2000/svg" xmlns:xlink="http://www.w3.org/1999/xlink" version="1.1" id="Layer_1" x="0px" y="0px" viewBox="0 0 2500 2500" xml:space="preserve">
<g id="Layer_x0020_1">
	<g id="_1942632006000">
		<circle fill-rule="evenodd" clip-rule="evenodd" fill="#6747ED" cx="1250" cy="1250" r="1250"></circle>
		<g>
			<path id="Fill-19" fill-rule="evenodd" clip-rule="evenodd" fill="#FFFFFF" d="M1217,1418.7c-183.8,0-335.1-151.4-335.1-335.1     c0-183.8,151.4-335.1,335.1-335.1c183.8,0,335.1,151.3,335.1,335.1C1557.5,1267.4,1406.2,1418.7,1217,1418.7L1217,1418.7z      M1217,575.5c281.1,0,502.7,227,502.7,502.7c0,275.7-227,502.7-502.7,502.7c-281.1,0-502.7-227-502.7-502.7     C714.3,802.5,941.3,575.5,1217,575.5L1217,575.5z M1698,1607.9c32.4,32.4,32.4,86.5,0,118.9L1362.9,2062     c-32.4,32.4-86.5,32.4-118.9,0c-32.4-32.4-32.4-86.5,0-118.9l335.1-335.1C1611.6,1575.5,1665.6,1575.5,1698,1607.9z M1892.6,662     c0,48.6-37.8,86.5-86.5,86.5s-86.5-37.8-86.5-86.5c0-48.7,37.8-86.5,86.5-86.5S1892.6,613.3,1892.6,662z"></path>
		</g>
	</g>
</g>
</svg>
