<svg width="32" height="32" viewBox="0 0 32 32" fill="none" xmlns="http://www.w3.org/2000/svg">
<g clip-path="url(#clip0_4406_339)">
<path d="M7.5264 29.4144L5.3632 25.664C5.2992 25.5232 5.2992 25.3568 5.3632 25.2288L7.7696 21.056C7.8592 20.928 8 20.8384 8.1536 20.8384H12.9664C13.12 20.8512 13.2608 20.928 13.3504 21.056L15.7568 25.2288C15.8208 25.3696 15.8208 25.536 15.7568 25.6768L13.3504 29.8368C13.2608 29.9648 13.12 30.0416 12.9664 30.0544H8.64C8.192 30.0288 7.7824 29.7856 7.5264 29.4144ZM23.1424 20.8384L18.3552 12.5312C18.24 12.352 18.048 12.2368 17.8304 12.224H8.2432C8.0256 12.2368 7.8336 12.352 7.7184 12.5312L2.9312 20.8384C2.8416 21.0304 2.8416 21.248 2.9312 21.44L4.3392 23.872L6.7968 19.6096C6.9376 19.4048 7.1552 19.2768 7.3984 19.264H13.7088C13.952 19.2768 14.1824 19.4048 14.3104 19.6096L17.472 25.088C17.5872 25.3056 17.5872 25.5744 17.472 25.792L15.0144 30.0544H17.8176C18.0352 30.0416 18.2272 29.9264 18.3424 29.7472L23.1296 21.44C23.232 21.248 23.232 21.0176 23.1296 20.8256L23.1424 20.8384ZM31.8336 15.3472L24.4864 2.59836C24.2304 2.21436 23.808 1.97116 23.3472 1.94556H8.64C8.1792 1.97116 7.7568 2.21436 7.5008 2.59836L0.1536 15.3472C-0.0512 15.7568 -0.0512 16.2432 0.1536 16.6528L1.8432 19.5712L6.72 11.0976C6.8864 10.8416 7.168 10.6752 7.4752 10.6624H18.5728C18.88 10.6752 19.1616 10.8416 19.328 11.0976L24.8832 20.7232C25.024 20.992 25.024 21.312 24.8832 21.5936L19.9936 30.0672H23.36C23.8208 30.0416 24.2432 29.7984 24.4992 29.4144L31.8464 16.6656C32.0512 16.256 32.0512 15.7696 31.8464 15.36H31.8336V15.3472Z" fill="url(#paint0_linear_4406_339)"/>
</g>
<defs>
<linearGradient id="paint0_linear_4406_339" x1="22.6366" y1="4.44514" x2="9.38864" y2="27.5235" gradientUnits="userSpaceOnUse">
<stop stop-color="#FE01FA"/>
<stop offset="0.3216" stop-color="#FF0F6F"/>
<stop offset="0.5216" stop-color="#FF3D3D"/>
<stop offset="0.7098" stop-color="#FF851F"/>
<stop offset="1" stop-color="#FFDB01"/>
</linearGradient>
<clipPath id="clip0_4406_339">
<rect width="32" height="32" rx="16" fill="white"/>
</clipPath>
</defs>
</svg>
