<svg width="32" height="32" viewBox="0 0 32 32" fill="none" xmlns="http://www.w3.org/2000/svg">
<g clip-path="url(#clip0_4412_440)">
<rect width="32" height="32" rx="16" fill="#1AA5B9"/>
<path d="M23.7952 23.7696C23.7952 23.7696 20.2752 19.6608 19.1104 18.2912C18.9824 18.1376 18.9312 17.92 18.9824 17.728C19.0208 17.6256 19.0976 17.4976 19.1744 17.4208L19.712 16.8192L25.7152 23.7568H23.808L23.7952 23.7696ZM20.0832 23.7696L15.7312 18.688L15.5136 18.4064C15.3088 18.1632 15.3088 17.8048 15.5264 17.5616L23.6416 8.10238H25.6512L17.4848 17.4336C17.2672 17.664 17.2672 18.0352 17.472 18.2656L22.1824 23.744H20.0832V23.7696ZM15.0144 16.3072C13.3376 18.2528 8.61439 23.7696 8.61439 23.7696H6.51519L12.9408 16.32C13.1456 16.0768 13.1456 15.7312 12.9408 15.488L6.56639 8.10238H8.58879L15.0016 15.552C15.168 15.7696 15.1936 16.0896 15.0144 16.2944V16.3072ZM14.9376 20.5312L14.3104 21.2608L12.16 23.7696H10.2144L14.336 18.9696C14.336 18.9696 14.7968 19.52 14.9504 19.6992C15.1552 19.9424 15.1552 20.3008 14.9376 20.5312ZM12.1344 8.11518C12.1344 8.11518 15.5904 12.2496 16.8448 13.5296C17.0496 13.7344 17.0112 13.9904 16.832 14.208C16.1664 14.9888 16.1536 15.0016 16.1536 15.0016L10.2144 8.11518H12.16H12.1344ZM17.3184 11.3536L17.9456 10.624L20.096 8.11518H22.0416L17.92 12.9152C17.92 12.9152 17.4592 12.3648 17.3056 12.1856C17.1008 11.9424 17.1008 11.584 17.3184 11.3536ZM16.0128 -0.0128174C7.18079 -0.0128174 0.0127869 7.15518 0.0127869 15.9872C0.0127869 24.8192 7.18079 31.9872 16.0128 31.9872C24.8448 31.9872 32.0128 24.8192 32.0128 15.9872C32.0128 7.15518 24.8448 -0.0128174 16.0128 -0.0128174Z" fill="black"/>
</g>
<defs>
<clipPath id="clip0_4412_440">
<rect width="32" height="32" rx="16" fill="white"/>
</clipPath>
</defs>
</svg>
