<svg width="32" height="32" viewBox="0 0 32 32" fill="none" xmlns="http://www.w3.org/2000/svg">
<g clip-path="url(#clip0_4413_454)">
<rect width="32" height="32" rx="16" fill="white"/>
<path fill-rule="evenodd" clip-rule="evenodd" d="M16 0C24.8352 0 32 7.1648 32 16C32 24.8352 24.8352 32 16 32C7.1648 32 0 24.8352 0 16C0 7.1648 7.1648 0 16 0Z" fill="#B41514"/>
<path d="M15.872 26.4001C15.448 26.4001 15.0334 26.2743 14.6809 26.0387C14.3283 25.8031 14.0535 25.4683 13.8912 25.0765C13.7289 24.6848 13.6865 24.2537 13.7692 23.8378C13.8519 23.4219 14.0561 23.0399 14.356 22.74C14.6558 22.4402 15.0378 22.236 15.4537 22.1533C15.8696 22.0705 16.3007 22.113 16.6925 22.2753C17.0842 22.4375 17.4191 22.7123 17.6547 23.0649C17.8903 23.4175 18.016 23.832 18.016 24.2561C18.016 24.8247 17.7901 25.37 17.388 25.7721C16.986 26.1742 16.4406 26.4001 15.872 26.4001Z" fill="white"/>
<path d="M15.872 11.616C15.448 11.616 15.0334 11.4903 14.6809 11.2547C14.3283 11.0191 14.0535 10.6842 13.8912 10.2925C13.7289 9.90071 13.6865 9.46963 13.7692 9.05373C13.8519 8.63784 14.0561 8.25581 14.356 7.95597C14.6558 7.65612 15.0378 7.45193 15.4537 7.3692C15.8696 7.28647 16.3007 7.32893 16.6925 7.49121C17.0842 7.65348 17.4191 7.92828 17.6547 8.28086C17.8903 8.63344 18.016 9.04796 18.016 9.472C18.016 10.0406 17.7901 10.586 17.388 10.988C16.986 11.3901 16.4406 11.616 15.872 11.616Z" fill="white"/>
<path d="M7.104 20.672V17.696H24.64V20.672H7.104Z" fill="white"/>
<path d="M15.872 16.224C10.8704 16.224 6.8 12.256 6.6304 7.29602H9.8016C9.968 10.5056 12.624 13.056 15.872 13.056C19.12 13.056 21.776 10.5056 21.9424 7.29602H25.1136C24.944 12.256 20.8736 16.224 15.872 16.224Z" fill="white"/>
</g>
<defs>
<clipPath id="clip0_4413_454">
<rect width="32" height="32" rx="16" fill="white"/>
</clipPath>
</defs>
</svg>
