<svg width="32" height="32" viewBox="0 0 32 32" fill="none" xmlns="http://www.w3.org/2000/svg">
<g clip-path="url(#clip0_4393_78)">
<path d="M16 32C24.8366 32 32 24.8366 32 16C32 7.16344 24.8366 0 16 0C7.16344 0 0 7.16344 0 16C0 24.8366 7.16344 32 16 32Z" fill="white"/>
<path d="M16 32C24.8366 32 32 24.8366 32 16C32 7.16344 24.8366 0 16 0C7.16344 0 0 7.16344 0 16C0 24.8366 7.16344 32 16 32Z" fill="#375BD2"/>
<path d="M16 9.99505L21.2148 12.9975V18.9629L16.0395 21.9654L10.8247 19.0025V12.9975L16 9.99505ZM16 5.60986L14.1037 6.71604L8.9284 9.71851L7.0321 10.8247V21.2148L8.9284 22.321L14.1037 25.2839L16 26.3901L17.8963 25.2839L23.0716 22.2815L24.9679 21.1753V10.7852L23.0716 9.679L17.8963 6.71604L16 5.60986Z" fill="white"/>
</g>
<defs>
<clipPath id="clip0_4393_78">
<rect width="32" height="32" fill="white"/>
</clipPath>
</defs>
</svg>
