<svg width="32" height="32" viewBox="0 0 32 32" fill="none" xmlns="http://www.w3.org/2000/svg">
<g clip-path="url(#clip0_4400_254)">
<path fill-rule="evenodd" clip-rule="evenodd" d="M3.2 0H28.8C30.5664 0 32 1.4336 32 3.2V28.8C32 30.5664 30.5664 32 28.8 32H3.2C1.4336 32 0 30.5664 0 28.8V3.2C0 1.4336 1.4336 0 3.2 0Z" fill="#1C68F3"/>
<path fill-rule="evenodd" clip-rule="evenodd" d="M27.52 11.52V17.92H8.31996H7.48796C8.35836 21.7984 11.8272 24.704 15.9744 24.704C19.4048 24.704 22.3744 22.72 23.7824 19.84H27.5072V25.216C27.5072 26.4832 26.4704 27.52 25.2032 27.52H6.77116C5.50396 27.52 4.46716 26.4832 4.46716 25.216V11.52H27.5072H27.52ZM21.5936 19.84C20.3776 21.632 18.3168 22.7968 15.9872 22.7968C13.6576 22.7968 11.6096 21.6192 10.3808 19.84H21.5936ZM11.072 13.056C9.26716 13.056 7.76956 14.3872 7.52636 16.128H9.48476C9.70236 15.4624 10.3296 14.976 11.072 14.976C11.8144 14.976 12.4416 15.4624 12.6592 16.128H14.6176C14.3744 14.3872 12.8768 13.056 11.072 13.056ZM20.928 13.056C19.1232 13.056 17.6256 14.3872 17.3824 16.128H19.3408C19.5584 15.4624 20.1856 14.976 20.928 14.976C21.6704 14.976 22.2976 15.4624 22.5152 16.128H24.4736C24.2304 14.3872 22.7328 13.056 20.928 13.056ZM25.216 4.47998C26.4832 4.47998 27.52 5.51678 27.52 6.78398V9.59998H4.47996V6.78398C4.47996 5.51678 5.51676 4.47998 6.78396 4.47998H25.216Z" fill="white"/>
</g>
<defs>
<clipPath id="clip0_4400_254">
<rect width="32" height="32" rx="16" fill="white"/>
</clipPath>
</defs>
</svg>
