<svg width="32" height="32" viewBox="0 0 32 32" fill="none" xmlns="http://www.w3.org/2000/svg">
<g clip-path="url(#clip0_4391_59)">
<path d="M16 32C24.8064 32 32 24.7936 32 16C32 7.1936 24.7936 0 16 0C7.1936 0 0 7.2064 0 16C0 24.8064 7.2064 32 16 32Z" fill="url(#paint0_linear_4391_59)"/>
<path d="M20.6336 19.456L25.1648 16.8448C25.408 16.704 25.5488 16.448 25.5488 16.1664V10.944C25.5488 10.6624 25.3952 10.4064 25.1648 10.2656L20.6336 7.65443C20.3904 7.51363 20.096 7.51363 19.8528 7.65443L15.3216 10.2656C15.0784 10.4064 14.9376 10.6624 14.9376 10.944V20.288L11.7632 22.1184L8.58881 20.288V16.6272L11.7632 14.7968L13.8624 16V13.5424L12.16 12.5568C12.0448 12.4928 11.904 12.4544 11.776 12.4544C11.6352 12.4544 11.5072 12.4928 11.392 12.5568L6.86081 15.168C6.61761 15.3088 6.47681 15.5648 6.47681 15.8464V21.0688C6.47681 21.3504 6.63041 21.6064 6.86081 21.7472L11.392 24.3584C11.6352 24.4992 11.9296 24.4992 12.1728 24.3584L16.704 21.7472C16.9472 21.6064 17.088 21.3504 17.088 21.0688V11.7248L17.1392 11.6864L20.2624 9.88163L23.4368 11.712V15.3728L20.2624 17.2032L18.176 16V18.4576L19.8784 19.4432C20.1216 19.584 20.416 19.584 20.6592 19.4432L20.6336 19.456Z" fill="white"/>
</g>
<defs>
<linearGradient id="paint0_linear_4391_59" x1="-5.85259" y1="2.59855" x2="27.1458" y2="22.8353" gradientUnits="userSpaceOnUse">
<stop stop-color="#A229C5"/>
<stop offset="1" stop-color="#7B3FE4"/>
</linearGradient>
<clipPath id="clip0_4391_59">
<rect width="32" height="32" fill="white"/>
</clipPath>
</defs>
</svg>
