<svg width="32" height="32" viewBox="0 0 32 32" fill="none" xmlns="http://www.w3.org/2000/svg">
<g clip-path="url(#clip0_4422_2)">
<ellipse cx="16" cy="16.5" rx="10" ry="9.5" fill="white"/>
<path d="M8.9088 4.8385C9.5232 4.1473 10.0736 3.5585 10.6112 3.0593C1.6128 2.7649 4.224 9.2801 1.28 15.8849C-2.0992 23.5009 1.6768 26.4065 7.3088 27.3153C6.528 26.3809 5.8752 25.3313 5.4016 24.2049C1.7664 19.6097 3.2384 11.2513 8.9088 4.8385Z" fill="#EFE812"/>
<path d="M30.5664 12.9536C29.504 15.7312 27.968 18.3168 26.0224 20.5696C24.4608 22.464 22.592 24.0896 20.5056 25.3568C18.1248 26.8672 15.3472 27.6736 12.5184 27.6736C12.4672 27.6736 12.4032 27.6736 12.352 27.6736C12.2624 27.6736 12.16 27.6736 12.0576 27.6736C10.4704 27.6736 8.8832 27.5584 7.3088 27.3152C8.2304 28.416 9.3824 29.312 10.6752 29.952C18.816 33.8944 19.328 26.5856 27.9424 22.8736C32.7808 20.7872 32.7936 16.7168 30.5536 12.9664L30.5664 12.9536Z" fill="#EDE70A"/>
<path d="M20.4928 5.35046C21.6704 5.55526 22.8096 5.96486 23.8464 6.54086C26.5856 8.07686 28.8896 10.2785 30.5536 12.9537C32.0256 8.81926 31.3344 5.58086 28.1344 4.99206C24.6016 4.35206 21.8496 4.13446 19.2 2.29126C15.936 0.0256591 13.0816 0.768059 10.5984 3.07206L11.136 3.09766C14.5792 3.30246 17.8688 3.98086 20.4672 5.35046L20.48 5.36326L20.4928 5.35046Z" fill="#EDE70A"/>
<path d="M8.9088 4.83842C3.2384 11.2512 1.7664 19.6096 5.4144 24.2048C4.6848 22.4896 4.3136 20.6336 4.3136 18.7648C4.3136 16.3072 4.9664 13.888 6.208 11.7632C9.28 6.64322 15.4368 4.42882 20.5056 5.35042C17.8816 3.96802 14.592 3.30242 11.1744 3.09762L10.6368 3.07202C10.0864 3.58402 9.5232 4.14722 8.9088 4.83842Z" fill="#DEC21C"/>
<path d="M23.8592 6.54088C22.8096 5.96488 21.6704 5.56808 20.5056 5.36328C23.9488 7.18088 26.24 10.2529 26.24 15.1169C26.2016 19.2897 24.0384 23.1553 20.5056 25.3697C22.6048 24.1025 24.4736 22.4769 26.0352 20.5825C27.9808 18.3297 29.5168 15.7569 30.5792 12.9665C28.9152 10.3041 26.6112 8.08968 23.872 6.55368L23.8592 6.54088Z" fill="#E5CB22"/>
<path d="M20.4928 5.35041C15.4368 4.41601 9.2672 6.64321 6.1952 11.7376C4.9536 13.8624 4.3008 16.2944 4.3008 18.752C4.3008 20.6208 4.6848 22.4768 5.4144 24.2048C5.888 25.3312 6.528 26.3808 7.3216 27.3152C8.8832 27.5456 10.4704 27.6736 12.0576 27.6736C12.1472 27.6736 12.2496 27.6736 12.352 27.6736C12.4032 27.6736 12.4672 27.6736 12.5184 27.6736C15.3472 27.6736 18.112 26.8672 20.5056 25.3568C24.0384 23.1424 26.2016 19.2768 26.24 15.104C26.24 10.24 23.9488 7.16801 20.5056 5.35041H20.4928ZM19.9296 23.04C18.5728 23.9104 16.9984 24.3712 15.3856 24.3712C12.5312 24.3712 9.8816 22.9248 8.3328 20.544C5.824 16.6656 7.0656 11.6608 10.8288 8.98561C15.0528 5.99041 20.4672 7.16801 22.4384 11.4816C24.3584 15.68 23.8336 20.544 19.9424 23.04H19.9296Z" fill="#CCA727"/>
</g>
<defs>
<clipPath id="clip0_4422_2">
<rect width="32" height="32" fill="white"/>
</clipPath>
</defs>
</svg>
