<svg width="32" height="32" viewBox="0 0 32 32" fill="none" xmlns="http://www.w3.org/2000/svg">
<g clip-path="url(#clip0_4404_282)">
<rect width="32" height="32" rx="16" fill="white"/>
<path d="M7.25226 1.89566L16.054 11.4214L21.9592 8.21118C21.9592 8.21118 14.8289 -0.588823 12.9344 0.0319769C11.1521 0.652777 7.25226 1.89566 7.25226 1.89566Z" fill="black"/>
<path d="M22.1824 8.21113C22.1824 8.21113 23.5197 6.03641 24.1877 3.13721C24.1877 3.13721 30.8732 5.62169 28.3107 11.8348L22.1824 8.21113Z" fill="black"/>
<path d="M28.3107 11.8349L28.8679 18.3578L31.4303 18.0467C31.4303 18.0467 32.0983 17.8394 31.9875 16.7002C31.8752 15.4573 31.6535 12.8691 31.6535 12.8691C31.6535 12.8691 31.7657 12.2483 30.2052 12.041C28.3107 11.7325 28.3107 11.8349 28.3107 11.8349Z" fill="black"/>
<path d="M28.8678 18.3578L23.7429 22.1888L26.0822 26.4333C26.0822 26.4333 26.6394 28.0896 28.3107 26.2259C29.8698 24.3623 30.5392 24.0512 30.427 22.9133C30.3161 21.7754 29.9821 19.0835 28.8678 18.3578Z" fill="black"/>
<path d="M23.6306 22.1888L16.6111 19.2909L10.4828 30.7827C10.4828 30.7827 10.0365 31.6109 11.597 31.7146C13.1575 31.9219 15.72 32.4391 17.0574 31.1962C18.3948 30.0583 23.6306 22.1888 23.6306 22.1888Z" fill="black"/>
<path d="M16.6111 19.1859L15.9431 11.5238L0.789923 12.4569C0.789923 12.4569 -0.101199 12.5606 0.00967166 14.1132C0.121928 16.1843 0.343669 18.4614 0.343669 18.4614C0.343669 18.4614 0.232799 19.3932 2.23817 19.4969C4.24354 19.6006 16.3894 19.6006 16.6111 19.1859Z" fill="black"/>
</g>
<defs>
<clipPath id="clip0_4404_282">
<rect width="32" height="32" rx="16" fill="white"/>
</clipPath>
</defs>
</svg>
