<svg width="32" height="32" viewBox="0 0 32 32" fill="none" xmlns="http://www.w3.org/2000/svg">
<path d="M10.047 13.1493C10.2455 13.1629 10.4724 13.1374 10.6988 13.1196C10.937 13.1019 11.1729 13.0568 11.3987 12.9756C11.5379 12.9253 11.6665 12.8435 11.7216 12.6983C11.8224 12.4305 11.8455 12.1484 11.7661 11.8752C11.6428 11.4509 11.3317 11.1641 10.9945 10.9016C10.7012 10.6734 10.3693 10.5816 10.0073 10.6432C9.38266 10.7487 8.74681 11.3022 8.66977 11.9528C8.63599 12.2396 8.61999 12.5134 8.78533 12.7712C8.89673 12.9454 9.01229 13.0912 9.24162 13.109C9.49999 13.1297 9.75718 13.1528 10.047 13.1493ZM21.8455 13.1534C21.9853 13.1635 22.2087 13.1356 22.4316 13.1208C22.6289 13.1084 22.8167 13.0628 22.9364 12.8749C23.1047 12.623 23.1743 12.318 23.132 12.018C23.0573 11.4799 22.7433 11.103 22.2887 10.8364C21.9249 10.6236 21.5367 10.5567 21.129 10.7036C20.892 10.789 20.7006 10.9484 20.521 11.1167C20.2034 11.4153 19.9604 11.7573 19.9243 12.213C19.8917 12.6325 20.0612 12.885 20.4576 13.0023C20.8843 13.1279 21.3228 13.1439 21.8455 13.1534ZM23.9948 14.9727C23.9942 14.7084 23.9978 14.4423 23.9148 14.1893C23.8099 13.8693 23.8372 13.8651 23.5219 13.893C23.0905 13.9309 22.7041 14.1128 22.3225 14.303C21.7815 14.5739 21.2689 14.8927 20.7652 15.2263C20.3575 15.4959 19.935 15.7472 19.583 16.0915C19.3044 16.3635 19.0555 16.6568 18.9927 17.0622C18.9732 17.1878 19.0147 17.2613 19.1498 17.2939C19.2772 17.3247 19.4052 17.3502 19.5391 17.3502C20.041 17.349 20.5311 17.2601 21.0147 17.1422C21.6369 16.9899 22.2419 16.783 22.8132 16.4873C23.1924 16.2906 23.551 16.0648 23.8419 15.7442C23.9178 15.6601 23.9747 15.5742 23.9723 15.4509C23.9705 15.2915 23.9865 15.1321 23.9948 14.9727ZM8.09318 14.9312C8.09911 15.0438 8.11985 15.2358 8.1157 15.4266C8.11155 15.6056 8.19866 15.7247 8.31659 15.8385C8.80607 16.3102 9.40696 16.5881 10.0315 16.8239C10.4375 16.9768 10.8535 17.0959 11.2778 17.189C11.7027 17.2832 12.1311 17.3508 12.5661 17.3632C12.7219 17.3673 12.8766 17.3502 13.0259 17.2998C13.1527 17.2571 13.1918 17.1955 13.1717 17.0693C13.1543 16.9594 13.1201 16.8529 13.0704 16.7534C12.8754 16.3659 12.5744 16.0696 12.2265 15.829C11.327 15.2068 10.4138 14.6041 9.40518 14.1679C9.09822 14.0352 8.78296 13.9268 8.43866 13.9309C8.32192 13.9321 8.27096 13.9801 8.22888 14.079C8.1234 14.3279 8.1151 14.5905 8.09259 14.9318L8.09318 14.9312ZM4.92044 2.00734C4.84636 1.99727 4.83036 2.0192 4.76518 2.16616C4.51985 2.71668 4.44933 3.30275 4.4191 3.89475C4.40073 4.26097 4.43096 4.6266 4.46355 4.99223C4.48548 5.24527 4.5157 5.49712 4.55362 5.74779C4.65381 6.3938 4.78273 7.03503 4.93999 7.66957C5.05318 8.11994 5.17881 8.56734 5.3074 9.01297C5.41407 9.38275 5.53318 9.74897 5.64814 10.1158C5.65644 10.1413 5.66592 10.1727 5.70148 10.1727C5.73051 10.1727 5.73703 10.1448 5.75007 10.1253C5.99896 9.73179 6.24903 9.34008 6.53051 8.96794C6.88073 8.50453 7.24162 8.04942 7.64636 7.63164C7.97348 7.29386 8.30533 6.96023 8.6674 6.65979C9.00177 6.37771 9.34984 6.1123 9.71036 5.86453C9.77733 5.81949 9.77318 5.78512 9.7234 5.73297C9.48044 5.4752 9.24518 5.20912 8.99451 4.95964C8.57454 4.53451 8.13723 4.12685 7.6837 3.73771C7.35546 3.45507 7.01436 3.18773 6.66148 2.93653C6.29105 2.67656 5.90161 2.44479 5.49644 2.2432C5.31138 2.1486 5.1187 2.06971 4.92044 2.00734ZM23.1966 6.79549C23.2547 6.89505 23.3607 6.94364 23.4384 7.02364C23.7833 7.37801 24.1436 7.71579 24.4647 8.09327C24.9876 8.70861 25.466 9.36032 25.8964 10.0435C25.9296 10.0956 25.9367 10.1762 26.0049 10.181C26.0233 10.1822 26.0547 10.0838 26.0713 10.0281C26.2064 9.57179 26.3533 9.11905 26.4843 8.66157C26.6324 8.14186 26.7699 7.61979 26.8849 7.09297C27.0111 6.51638 27.1195 5.93623 27.1859 5.3472C27.2298 4.95608 27.2547 4.56379 27.2701 4.17149C27.2831 3.82186 27.2393 3.47342 27.2013 3.12557C27.1942 3.10305 27.1824 3.08112 27.1794 3.05801C27.138 2.73431 27.0454 2.41926 26.905 2.12468C26.8375 1.97831 26.8221 1.97653 26.668 2.03816C26.1299 2.25149 25.6221 2.5229 25.1474 2.85001C24.4019 3.3626 23.7216 3.95697 23.071 4.58394C22.6917 4.94897 22.3302 5.3312 21.977 5.72171C21.9237 5.78157 21.9107 5.81416 21.9877 5.87045C22.2763 6.08201 22.5667 6.2906 22.8446 6.51638C22.9607 6.6106 23.0573 6.7309 23.1966 6.7949V6.79549ZM23.0289 2.81327C23.3619 2.49327 23.6843 2.1632 24.0351 1.86157C24.671 1.3146 25.3495 0.830455 26.1181 0.484973C26.6182 0.260381 27.1373 0.0968253 27.6884 0.0541587C27.7673 0.0482327 27.8147 0.062455 27.8621 0.138307C28.0636 0.463048 28.1921 0.815048 28.2899 1.18186C28.4914 1.93801 28.5216 2.70957 28.492 3.48408C28.4658 4.11674 28.4061 4.74755 28.313 5.37386C28.2407 5.87046 28.1501 6.36349 28.0612 6.85653C28.0268 7.04379 27.9747 7.22808 27.9498 7.41771C27.9385 7.45623 27.9249 7.49357 27.9166 7.53208C27.7756 8.17321 27.6199 8.81101 27.4496 9.44497C27.2574 10.1934 27.0419 10.9357 26.8037 11.6708C26.7326 11.8859 26.78 12.0512 26.863 12.2367C27.1018 12.767 27.4052 13.2666 27.6084 13.8136C27.753 14.2023 27.8958 14.5916 28.0144 14.9887C28.2087 15.6382 28.3551 16.2983 28.4618 16.9673C28.5831 17.7307 28.6558 18.5011 28.6793 19.2737C28.6834 19.4112 28.7391 19.5487 28.6881 19.6873C28.5027 19.6589 28.3184 19.6239 28.1323 19.6044C27.5243 19.5404 26.9175 19.5113 26.3041 19.573C25.5966 19.6441 24.9145 19.8041 24.2597 20.0755C23.4087 20.4281 22.6573 20.9383 21.9889 21.5712C21.8081 21.7425 21.6339 21.9208 21.4496 22.1033C21.3785 21.89 21.3115 21.6868 21.2434 21.4841C21.0478 20.901 20.7527 20.3623 20.4861 19.8112C20.406 19.6456 20.3044 19.4914 20.1838 19.3525C19.7572 18.8607 19.2772 18.4305 18.7219 18.0885C17.8668 17.5611 16.9252 17.3318 15.9296 17.33C15.4135 17.3282 14.9074 17.4325 14.4144 17.5872C13.4395 17.8918 12.6561 18.4737 11.9889 19.2346C11.7453 19.5125 11.5835 19.8355 11.3963 20.146C11.1427 20.5644 10.9104 20.994 10.7166 21.4444L10.4298 22.1093L10.3089 21.9759C9.16103 20.7054 7.78859 19.8343 6.0677 19.57C5.4277 19.4716 4.7877 19.4663 4.14533 19.5179C3.82711 19.5439 3.51303 19.599 3.19836 19.6524C3.20429 19.2933 3.23392 18.9365 3.26296 18.5786C3.30029 18.1093 3.36725 17.6447 3.44607 17.1819C3.51244 16.7902 3.59777 16.4008 3.69081 16.0139C3.83834 15.3937 4.01894 14.7819 4.23185 14.181C4.27273 14.0672 4.33436 13.9534 4.22651 13.8408C4.22296 13.8373 4.23185 13.8219 4.23836 13.8017C4.30829 13.8948 4.34385 13.8788 4.38059 13.7792C4.5957 13.1949 4.84696 12.6254 5.10711 12.0601C5.13259 12.0032 5.15155 11.9487 5.12725 11.8882C4.89027 11.2925 4.68494 10.6846 4.51214 10.0672C4.37581 9.59734 4.25545 9.12299 4.15125 8.64497C4.07777 8.2989 3.99896 7.95342 3.92251 7.60794C3.90414 7.32112 3.83362 7.0426 3.79214 6.75934C3.72696 6.32201 3.6677 5.88468 3.62207 5.44557C3.57584 4.99363 3.54185 4.54053 3.52014 4.08675C3.49722 3.64465 3.49346 3.20177 3.50888 2.75934C3.52962 2.21416 3.56636 1.66897 3.70444 1.13801C3.7797 0.850011 3.87748 0.568529 4.03807 0.313714C4.22177 0.0203809 4.3717 -0.0347302 4.71362 0.0180105C5.31392 0.111048 5.84251 0.371196 6.34385 0.694159C7.01348 1.12438 7.60844 1.64705 8.17259 2.20527L8.85288 2.87608C8.86651 2.89505 8.87896 2.91579 8.89496 2.93357C9.19125 3.25712 9.49229 3.57653 9.78385 3.90423C10.1975 4.36883 10.6075 4.83638 11.0117 5.30986C11.0935 5.40586 11.1598 5.42127 11.2713 5.37505C11.9803 5.08636 12.7173 4.87149 13.4704 4.73386C14.1222 4.6112 14.783 4.56853 15.4437 4.54542C16.3913 4.51283 17.3353 4.55608 18.2704 4.71253C19.1089 4.85297 19.9296 5.06394 20.7255 5.36675C20.9044 5.4349 20.9033 5.43786 21.0188 5.27431C21.3723 4.7821 21.7431 4.30259 22.1305 3.83668C22.4185 3.48527 22.7261 3.15046 23.0289 2.81208V2.81327Z" fill="#F4A817"/>
<path d="M28.688 19.6868C28.739 19.5481 28.6827 19.4106 28.6792 19.2731C28.6557 18.5005 28.583 17.7302 28.4617 16.9668C28.3565 16.298 28.207 15.637 28.0143 14.9881C27.8958 14.5911 27.7529 14.2017 27.6083 13.813C27.4051 13.266 27.1017 12.7665 26.8629 12.2361C26.7799 12.0506 26.7325 11.8853 26.8036 11.6702C27.0419 10.9351 27.2573 10.1928 27.4495 9.44439C27.616 8.80972 27.779 8.17387 27.9165 7.5315C27.9248 7.49298 27.9384 7.45505 27.9497 7.41713C28.3239 7.96144 28.6604 8.53066 28.9571 9.12083C29.3444 9.87984 29.669 10.6692 29.9278 11.4811C30.7078 13.9539 30.898 16.575 30.483 19.1345C30.1494 21.1273 29.4792 22.9999 28.4421 24.7351C27.3879 26.4992 26.0409 28.002 24.3829 29.2228C23.4683 29.8962 22.4776 30.4595 21.4312 30.901C20.8185 31.161 20.1879 31.3767 19.5443 31.5463C18.8451 31.7294 18.1352 31.8556 17.4152 31.9285C16.5334 32.0174 15.651 32.0222 14.7698 31.9469C14.0344 31.8824 13.3053 31.759 12.5897 31.5777C11.6108 31.3337 10.6616 30.9834 9.75886 30.533C7.60182 29.4556 5.82286 27.9273 4.39175 25.9902C3.64273 24.9732 3.02047 23.8688 2.53871 22.7013C2.25979 22.0324 2.02657 21.3454 1.84064 20.645C1.64919 19.9161 1.50861 19.1747 1.4199 18.4263C1.29046 17.3346 1.26843 16.2328 1.35412 15.1368C1.42167 14.2444 1.5639 13.3626 1.78316 12.4951C2.21347 10.7645 2.93098 9.11835 3.90582 7.62513C3.90997 7.6192 3.91649 7.61327 3.92182 7.60735C3.99827 7.95283 4.07649 8.29831 4.15056 8.64439C4.25249 9.1232 4.37753 9.59609 4.51145 10.0666C4.68422 10.6839 4.88955 11.2915 5.12656 11.8871C5.15027 11.9481 5.13249 12.0026 5.10642 12.0589C4.8419 12.6224 4.59954 13.1961 4.3799 13.7786C4.34316 13.8782 4.3076 13.8942 4.23767 13.8011C4.23116 13.8213 4.22227 13.8367 4.22582 13.8402C4.33367 13.9528 4.27205 14.0666 4.23175 14.1804C4.01865 14.7813 3.83785 15.3931 3.69012 16.0133C3.59708 16.4002 3.51175 16.7896 3.44538 17.1813C3.36656 17.6435 3.2996 18.1087 3.26167 18.578C3.23323 18.9359 3.20301 19.2927 3.19767 19.6518C3.16748 20.0944 3.21114 20.539 3.32686 20.9673C3.4999 21.6056 3.7796 22.1964 4.12686 22.7564C4.82612 23.8835 5.72686 24.834 6.72301 25.698C8.10171 26.8918 9.64329 27.8832 11.3014 28.6426C11.6291 28.7931 11.9538 28.9472 12.2934 29.0734C12.5429 29.1659 12.7935 29.2524 13.0448 29.3395C13.2012 29.3934 13.36 29.4503 13.5189 29.4995C14.1091 29.6814 14.7129 29.8035 15.3257 29.8628C16.0232 29.9303 16.7189 29.89 17.4116 29.7733C18.0298 29.6682 18.6396 29.5185 19.2362 29.3253C19.851 29.1257 20.4531 28.8892 21.0395 28.6171C21.8695 28.2346 22.6692 27.7894 23.4317 27.2856C24.1532 26.8123 24.8353 26.2816 25.4715 25.6986C25.7429 25.4485 26.0143 25.1979 26.2489 24.9105C26.2798 24.9045 26.2928 24.8814 26.304 24.8553H26.3112L26.3141 24.8482C26.326 24.8382 26.3402 24.8293 26.3503 24.8174C26.7846 24.3285 27.1918 23.8201 27.5248 23.2548C27.7103 22.9407 27.907 22.6343 28.0617 22.3036C28.3426 21.701 28.5417 21.0716 28.64 20.4121C28.6762 20.1715 28.6963 19.9303 28.6875 19.6868H28.688ZM23.0288 2.81209C22.7254 3.15046 22.4184 3.48527 22.1298 3.83668C21.7452 4.30483 21.3695 4.7795 21.0187 5.27431C20.9026 5.43787 20.9043 5.4349 20.7254 5.36676C19.9309 5.06791 19.1087 4.84876 18.2709 4.71253C17.3346 4.55609 16.3912 4.51283 15.4442 4.54542C14.7829 4.56913 14.1227 4.61061 13.4709 4.73387C12.7165 4.8755 11.9811 5.08172 11.2712 5.37505C11.1592 5.42127 11.0934 5.40587 11.0116 5.30987C10.608 4.83639 10.198 4.36883 9.78434 3.90424C9.49219 3.57653 9.19175 3.25713 8.89486 2.93357C8.87886 2.91579 8.86642 2.89505 8.85279 2.87609C9.71412 2.36725 10.6269 1.95091 11.5757 1.63402C13.3885 1.03243 15.3048 0.806596 17.2077 0.970311C17.9402 1.02957 18.6632 1.15402 19.3766 1.33179C20.6299 1.64612 21.8349 2.12852 22.9589 2.76587C22.9832 2.78009 23.0057 2.79668 23.0288 2.81209Z" fill="#F00500"/>
<path d="M10.047 13.1493C10.2455 13.1629 10.4724 13.1374 10.6988 13.1196C10.937 13.1019 11.1729 13.0568 11.3987 12.9756C11.5379 12.9253 11.6665 12.8435 11.7216 12.6983C11.8224 12.4305 11.8455 12.1484 11.7661 11.8752C11.6428 11.4509 11.3317 11.1641 10.9945 10.9016C10.7012 10.6734 10.3693 10.5816 10.0073 10.6432C9.38266 10.7487 8.74681 11.3022 8.66977 11.9528C8.63599 12.2396 8.61999 12.5134 8.78533 12.7712C8.89673 12.9454 9.01229 13.0912 9.24162 13.109C9.49999 13.1297 9.75718 13.1528 10.047 13.1493ZM21.8455 13.1534C21.9853 13.1635 22.2087 13.1356 22.4316 13.1208C22.6289 13.1084 22.8167 13.0628 22.9364 12.8749C23.1047 12.623 23.1743 12.318 23.132 12.018C23.0573 11.4799 22.7433 11.103 22.2887 10.8364C21.9249 10.6236 21.5367 10.5567 21.129 10.7036C20.892 10.789 20.7006 10.9484 20.521 11.1167C20.2034 11.4153 19.9604 11.7573 19.9243 12.213C19.8917 12.6325 20.0612 12.885 20.4576 13.0023C20.8843 13.1279 21.3228 13.1439 21.8455 13.1534ZM23.9948 14.9727C23.9942 14.7084 23.9978 14.4423 23.9148 14.1893C23.8099 13.8693 23.8372 13.8651 23.5219 13.893C23.0905 13.9309 22.7041 14.1128 22.3225 14.303C21.7815 14.5739 21.2689 14.8927 20.7652 15.2263C20.3575 15.4959 19.935 15.7472 19.583 16.0915C19.3044 16.3635 19.0555 16.6568 18.9927 17.0622C18.9732 17.1878 19.0147 17.2613 19.1498 17.2939C19.2772 17.3247 19.4052 17.3502 19.5391 17.3502C20.041 17.349 20.5311 17.2601 21.0147 17.1422C21.6369 16.9899 22.2419 16.783 22.8132 16.4873C23.1924 16.2906 23.551 16.0648 23.8419 15.7442C23.9178 15.6601 23.9747 15.5742 23.9723 15.4509C23.9705 15.2915 23.9865 15.1321 23.9948 14.9727ZM8.09318 14.9312C8.09911 15.0438 8.11985 15.2358 8.1157 15.4266C8.11155 15.6056 8.19866 15.7247 8.31659 15.8385C8.80607 16.3102 9.40696 16.5881 10.0315 16.8239C10.4375 16.9768 10.8535 17.0959 11.2778 17.189C11.7027 17.2832 12.1311 17.3508 12.5661 17.3632C12.7219 17.3673 12.8766 17.3502 13.0259 17.2998C13.1527 17.2571 13.1918 17.1955 13.1717 17.0693C13.1543 16.9594 13.1201 16.8529 13.0704 16.7534C12.8754 16.3659 12.5744 16.0696 12.2265 15.829C11.327 15.2068 10.4138 14.6041 9.40518 14.1679C9.09822 14.0352 8.78296 13.9268 8.43866 13.9309C8.32192 13.9321 8.27096 13.9801 8.22888 14.079C8.1234 14.3279 8.1151 14.5905 8.09259 14.9318L8.09318 14.9312ZM4.92044 2.00734C4.84636 1.99727 4.83036 2.0192 4.76518 2.16616C4.51985 2.71668 4.44933 3.30275 4.4191 3.89475C4.40073 4.26097 4.43096 4.6266 4.46355 4.99223C4.48548 5.24527 4.5157 5.49712 4.55362 5.74779C4.65381 6.3938 4.78273 7.03503 4.93999 7.66957C5.05318 8.11994 5.17881 8.56734 5.3074 9.01297C5.41407 9.38275 5.53318 9.74897 5.64814 10.1158C5.65644 10.1413 5.66592 10.1727 5.70148 10.1727C5.73051 10.1727 5.73703 10.1448 5.75007 10.1253C5.99896 9.73179 6.24903 9.34008 6.53051 8.96794C6.88073 8.50453 7.24162 8.04942 7.64636 7.63164C7.97348 7.29386 8.30533 6.96023 8.6674 6.65979C9.00177 6.37771 9.34984 6.1123 9.71036 5.86453C9.77733 5.81949 9.77318 5.78512 9.7234 5.73297C9.48044 5.4752 9.24518 5.20912 8.99451 4.95964C8.57454 4.53451 8.13723 4.12685 7.6837 3.73771C7.35546 3.45507 7.01436 3.18773 6.66148 2.93653C6.29105 2.67656 5.90161 2.44479 5.49644 2.2432C5.31138 2.1486 5.1187 2.06971 4.92044 2.00734ZM23.1966 6.79549C23.2547 6.89505 23.3607 6.94364 23.4384 7.02364C23.7833 7.37801 24.1436 7.71579 24.4647 8.09327C24.9876 8.70861 25.466 9.36032 25.8964 10.0435C25.9296 10.0956 25.9367 10.1762 26.0049 10.181C26.0233 10.1822 26.0547 10.0838 26.0713 10.0281C26.2064 9.57179 26.3533 9.11905 26.4843 8.66157C26.6324 8.14186 26.7699 7.61979 26.8849 7.09297C27.0111 6.51638 27.1195 5.93623 27.1859 5.3472C27.2298 4.95608 27.2547 4.56379 27.2701 4.17149C27.2831 3.82186 27.2393 3.47342 27.2013 3.12557C27.1942 3.10305 27.1824 3.08112 27.1794 3.05801C27.138 2.73431 27.0454 2.41926 26.905 2.12468C26.8375 1.97831 26.8221 1.97653 26.668 2.03816C26.1299 2.25149 25.6221 2.5229 25.1474 2.85001C24.4019 3.3626 23.7216 3.95697 23.071 4.58394C22.6917 4.94897 22.3302 5.3312 21.977 5.72171C21.9237 5.78157 21.9107 5.81416 21.9877 5.87045C22.2763 6.08201 22.5667 6.2906 22.8446 6.51638C22.9607 6.6106 23.0573 6.7309 23.1966 6.7949V6.79549ZM23.0289 2.81327C23.3619 2.49327 23.6843 2.1632 24.0351 1.86157C24.671 1.3146 25.3495 0.830455 26.1181 0.484973C26.6182 0.260381 27.1373 0.0968253 27.6884 0.0541587C27.7673 0.0482327 27.8147 0.062455 27.8621 0.138307C28.0636 0.463048 28.1921 0.815048 28.2899 1.18186C28.4914 1.93801 28.5216 2.70957 28.492 3.48408C28.4658 4.11674 28.4061 4.74755 28.313 5.37386C28.2407 5.87046 28.1501 6.36349 28.0612 6.85653C28.0268 7.04379 27.9747 7.22808 27.9498 7.41771C27.9385 7.45623 27.9249 7.49357 27.9166 7.53208C27.7756 8.17321 27.6199 8.81101 27.4496 9.44497C27.2574 10.1934 27.0419 10.9357 26.8037 11.6708C26.7326 11.8859 26.78 12.0512 26.863 12.2367C27.1018 12.767 27.4052 13.2666 27.6084 13.8136C27.753 14.2023 27.8958 14.5916 28.0144 14.9887C28.2087 15.6382 28.3551 16.2983 28.4618 16.9673C28.5831 17.7307 28.6558 18.5011 28.6793 19.2737C28.6834 19.4112 28.7391 19.5487 28.6881 19.6873C28.5027 19.6589 28.3184 19.6239 28.1323 19.6044C27.5243 19.5404 26.9175 19.5113 26.3041 19.573C25.5966 19.6441 24.9145 19.8041 24.2597 20.0755C23.4087 20.4281 22.6573 20.9383 21.9889 21.5712C21.8081 21.7425 21.6339 21.9208 21.4496 22.1033C21.3785 21.89 21.3115 21.6868 21.2434 21.4841C21.0478 20.901 20.7527 20.3623 20.4861 19.8112C20.406 19.6456 20.3044 19.4914 20.1838 19.3525C19.7572 18.8607 19.2772 18.4305 18.7219 18.0885C17.8668 17.5611 16.9252 17.3318 15.9296 17.33C15.4135 17.3282 14.9074 17.4325 14.4144 17.5872C13.4395 17.8918 12.6561 18.4737 11.9889 19.2346C11.7453 19.5125 11.5835 19.8355 11.3963 20.146C11.1427 20.5644 10.9104 20.994 10.7166 21.4444L10.4298 22.1093L10.3089 21.9759C9.16103 20.7054 7.78859 19.8343 6.0677 19.57C5.4277 19.4716 4.7877 19.4663 4.14533 19.5179C3.82711 19.5439 3.51303 19.599 3.19836 19.6524C3.20429 19.2933 3.23392 18.9365 3.26296 18.5786C3.30029 18.1093 3.36725 17.6447 3.44607 17.1819C3.51244 16.7902 3.59777 16.4008 3.69081 16.0139C3.83834 15.3937 4.01894 14.7819 4.23185 14.181C4.27273 14.0672 4.33436 13.9534 4.22651 13.8408C4.22296 13.8373 4.23185 13.8219 4.23836 13.8017C4.30829 13.8948 4.34385 13.8788 4.38059 13.7792C4.5957 13.1949 4.84696 12.6254 5.10711 12.0601C5.13259 12.0032 5.15155 11.9487 5.12725 11.8882C4.89027 11.2925 4.68494 10.6846 4.51214 10.0672C4.37581 9.59734 4.25545 9.12299 4.15125 8.64497C4.07777 8.2989 3.99896 7.95342 3.92251 7.60794C3.90414 7.32112 3.83362 7.0426 3.79214 6.75934C3.72696 6.32201 3.6677 5.88468 3.62207 5.44557C3.57584 4.99363 3.54185 4.54053 3.52014 4.08675C3.49722 3.64465 3.49346 3.20177 3.50888 2.75934C3.52962 2.21416 3.56636 1.66897 3.70444 1.13801C3.7797 0.850011 3.87748 0.568529 4.03807 0.313714C4.22177 0.0203809 4.3717 -0.0347302 4.71362 0.0180105C5.31392 0.111048 5.84251 0.371196 6.34385 0.694159C7.01348 1.12438 7.60844 1.64705 8.17259 2.20527L8.85288 2.87608C8.86651 2.89505 8.87896 2.91579 8.89496 2.93357C9.19125 3.25712 9.49229 3.57653 9.78385 3.90423C10.1975 4.36883 10.6075 4.83638 11.0117 5.30986C11.0935 5.40586 11.1598 5.42127 11.2713 5.37505C11.9803 5.08636 12.7173 4.87149 13.4704 4.73386C14.1222 4.6112 14.783 4.56853 15.4437 4.54542C16.3913 4.51283 17.3353 4.55608 18.2704 4.71253C19.1089 4.85297 19.9296 5.06394 20.7255 5.36675C20.9044 5.4349 20.9033 5.43786 21.0188 5.27431C21.3723 4.7821 21.7431 4.30259 22.1305 3.83668C22.4185 3.48527 22.7261 3.15046 23.0289 2.81208V2.81327Z" fill="#F4A817"/>
<path d="M28.688 19.6868C28.739 19.5481 28.6827 19.4106 28.6792 19.2731C28.6557 18.5005 28.583 17.7302 28.4617 16.9668C28.3565 16.298 28.207 15.637 28.0143 14.9881C27.8958 14.5911 27.7529 14.2017 27.6083 13.813C27.4051 13.266 27.1017 12.7665 26.8629 12.2361C26.7799 12.0506 26.7325 11.8853 26.8036 11.6702C27.0419 10.9351 27.2573 10.1928 27.4495 9.44439C27.616 8.80972 27.779 8.17387 27.9165 7.5315C27.9248 7.49298 27.9384 7.45505 27.9497 7.41713C28.3239 7.96144 28.6604 8.53066 28.9571 9.12083C29.3444 9.87984 29.669 10.6692 29.9278 11.4811C30.7078 13.9539 30.898 16.575 30.483 19.1345C30.1494 21.1273 29.4792 22.9999 28.4421 24.7351C27.3879 26.4992 26.0409 28.002 24.3829 29.2228C23.4683 29.8962 22.4776 30.4595 21.4312 30.901C20.8185 31.161 20.1879 31.3767 19.5443 31.5463C18.8451 31.7294 18.1352 31.8556 17.4152 31.9285C16.5334 32.0174 15.651 32.0222 14.7698 31.9469C14.0344 31.8824 13.3053 31.759 12.5897 31.5777C11.6108 31.3337 10.6616 30.9834 9.75886 30.533C7.60182 29.4556 5.82286 27.9273 4.39175 25.9902C3.64273 24.9732 3.02047 23.8688 2.53871 22.7013C2.25979 22.0324 2.02657 21.3454 1.84064 20.645C1.64919 19.9161 1.50861 19.1747 1.4199 18.4263C1.29046 17.3346 1.26843 16.2328 1.35412 15.1368C1.42167 14.2444 1.5639 13.3626 1.78316 12.4951C2.21347 10.7645 2.93098 9.11835 3.90582 7.62513C3.90997 7.6192 3.91649 7.61327 3.92182 7.60735C3.99827 7.95283 4.07649 8.29831 4.15056 8.64439C4.25249 9.1232 4.37753 9.59609 4.51145 10.0666C4.68422 10.6839 4.88955 11.2915 5.12656 11.8871C5.15027 11.9481 5.13249 12.0026 5.10642 12.0589C4.8419 12.6224 4.59954 13.1961 4.3799 13.7786C4.34316 13.8782 4.3076 13.8942 4.23767 13.8011C4.23116 13.8213 4.22227 13.8367 4.22582 13.8402C4.33367 13.9528 4.27205 14.0666 4.23175 14.1804C4.01865 14.7813 3.83785 15.3931 3.69012 16.0133C3.59708 16.4002 3.51175 16.7896 3.44538 17.1813C3.36656 17.6435 3.2996 18.1087 3.26167 18.578C3.23323 18.9359 3.20301 19.2927 3.19767 19.6518C3.16748 20.0944 3.21114 20.539 3.32686 20.9673C3.4999 21.6056 3.7796 22.1964 4.12686 22.7564C4.82612 23.8835 5.72686 24.834 6.72301 25.698C8.10171 26.8918 9.64329 27.8832 11.3014 28.6426C11.6291 28.7931 11.9538 28.9472 12.2934 29.0734C12.5429 29.1659 12.7935 29.2524 13.0448 29.3395C13.2012 29.3934 13.36 29.4503 13.5189 29.4995C14.1091 29.6814 14.7129 29.8035 15.3257 29.8628C16.0232 29.9303 16.7189 29.89 17.4116 29.7733C18.0298 29.6682 18.6396 29.5185 19.2362 29.3253C19.851 29.1257 20.4531 28.8892 21.0395 28.6171C21.8695 28.2346 22.6692 27.7894 23.4317 27.2856C24.1532 26.8123 24.8353 26.2816 25.4715 25.6986C25.7429 25.4485 26.0143 25.1979 26.2489 24.9105C26.2798 24.9045 26.2928 24.8814 26.304 24.8553H26.3112L26.3141 24.8482C26.326 24.8382 26.3402 24.8293 26.3503 24.8174C26.7846 24.3285 27.1918 23.8201 27.5248 23.2548C27.7103 22.9407 27.907 22.6343 28.0617 22.3036C28.3426 21.701 28.5417 21.0716 28.64 20.4121C28.6762 20.1715 28.6963 19.9303 28.6875 19.6868H28.688ZM23.0288 2.81209C22.7254 3.15046 22.4184 3.48527 22.1298 3.83668C21.7452 4.30483 21.3695 4.7795 21.0187 5.27431C20.9026 5.43787 20.9043 5.4349 20.7254 5.36676C19.9309 5.06791 19.1087 4.84876 18.2709 4.71253C17.3346 4.55609 16.3912 4.51283 15.4442 4.54542C14.7829 4.56913 14.1227 4.61061 13.4709 4.73387C12.7165 4.8755 11.9811 5.08172 11.2712 5.37505C11.1592 5.42127 11.0934 5.40587 11.0116 5.30987C10.608 4.83639 10.198 4.36883 9.78434 3.90424C9.49219 3.57653 9.19175 3.25713 8.89486 2.93357C8.87886 2.91579 8.86642 2.89505 8.85279 2.87609C9.71412 2.36725 10.6269 1.95091 11.5757 1.63402C13.3885 1.03243 15.3048 0.806596 17.2077 0.970311C17.9402 1.02957 18.6632 1.15402 19.3766 1.33179C20.6299 1.64612 21.8349 2.12852 22.9589 2.76587C22.9832 2.78009 23.0057 2.79668 23.0288 2.81209Z" fill="#F00500"/>
<path d="M25.7506 25.3271L25.7548 25.3218L25.7489 25.3212L25.7506 25.3271ZM25.8229 25.256L25.8265 25.2501L25.8206 25.2495L25.8229 25.256ZM25.9432 25.1487L25.9385 25.1552L25.9456 25.1564L25.9432 25.1487ZM25.7228 25.3656C25.7198 25.3644 25.7157 25.3621 25.7133 25.3626C25.7014 25.3662 25.7014 25.3715 25.7115 25.3769C25.7145 25.3781 25.7192 25.3769 25.7216 25.3745C25.7234 25.3733 25.7228 25.3686 25.7228 25.3656ZM17.8229 29.6092H17.7133C17.7548 29.6352 17.7874 29.6269 17.8229 29.6092ZM17.4644 29.6619C17.5509 29.6886 17.6066 29.6678 17.6712 29.6358C17.5966 29.6109 17.5444 29.6518 17.4644 29.6619ZM16.2051 25.0972V25.093H15.1865C14.9826 25.093 14.985 25.093 14.9927 25.2981C14.9951 25.3514 15.0206 25.3757 15.0579 25.4006C15.1586 25.4663 15.2724 25.5025 15.3814 25.5499C15.4573 25.5825 15.4982 25.5754 15.5284 25.4847C15.5877 25.3087 15.5942 25.3146 15.7809 25.3265C15.8425 25.3306 15.8757 25.3585 15.9029 25.4041C15.9657 25.5096 16.028 25.6151 16.092 25.72C16.1903 25.8829 16.3497 25.8924 16.4742 25.7449L16.6354 25.5535C16.8131 25.3425 16.8131 25.3425 17.0247 25.5226C17.0537 25.5475 17.0739 25.5855 17.1243 25.5736C17.2088 25.5516 17.2842 25.5031 17.3394 25.4354C17.3946 25.3676 17.4267 25.284 17.4312 25.1967C17.4336 25.1061 17.3969 25.0948 17.3198 25.096C16.9483 25.0989 16.5767 25.0972 16.2051 25.0972ZM19.6706 24.0625H18.6591C18.6099 24.0625 18.5838 24.0921 18.5702 24.1289C18.5358 24.2172 18.4748 24.2355 18.3841 24.2326C18.121 24.2255 17.8567 24.2296 17.593 24.2278C17.4579 24.2266 17.2967 24.2681 17.1942 24.2089C17.0875 24.1466 17.0306 23.9902 16.9684 23.8669C16.9246 23.781 16.8736 23.7372 16.777 23.7543C16.7166 23.7644 16.6946 23.7425 16.6958 23.6773C16.6988 23.3775 16.6982 23.0776 16.6958 22.7778C16.6958 22.7262 16.7089 22.7007 16.761 22.6841C16.9933 22.6071 17.2031 22.4862 17.3969 22.3392C17.7767 22.0506 18.0428 21.685 18.1311 21.2074C18.1921 20.8785 18.1607 20.5461 18.1714 20.2154C18.185 19.8166 17.7814 19.4095 17.3832 19.4089H15.1651C14.7148 19.4089 14.4173 19.7069 14.4173 20.1573C14.4173 20.3695 14.428 20.5816 14.4149 20.7926C14.3889 21.2269 14.5678 21.5724 14.8582 21.8729C15.2096 22.2361 15.6416 22.4761 16.1003 22.6746C16.1447 22.6942 16.1874 22.7013 16.1868 22.7683C16.1838 23.0717 16.185 23.3751 16.1868 23.6791C16.1868 23.7265 16.1761 23.7632 16.1216 23.7496C15.9995 23.72 15.9557 23.8 15.9083 23.8859C15.8549 23.9831 15.7933 24.0755 15.7394 24.1727C15.7151 24.2166 15.6854 24.232 15.6351 24.232C15.1634 24.2308 14.6917 24.2326 14.2206 24.2071C14.1832 24.2053 14.1471 24.2071 14.1465 24.1555C14.1453 24.0791 14.0949 24.0696 14.0339 24.0696C13.7062 24.0678 13.3785 24.0649 13.0502 24.0637C13.0265 24.0637 12.9891 24.0465 12.9826 24.0886C12.9767 24.1271 12.969 24.1686 13.0034 24.2012C13.0609 24.2563 13.1148 24.3161 13.177 24.3659C13.254 24.4275 13.2854 24.501 13.292 24.6006C13.3014 24.7386 13.3257 24.8761 13.3524 25.013C13.3749 25.1262 13.4093 25.1606 13.5219 25.1256C13.5966 25.1031 13.6807 25.0924 13.6937 25.2151C13.7115 25.3822 13.766 25.541 13.8194 25.6986C13.8911 25.9114 13.9746 26.1194 14.1074 26.2984C14.2614 26.1407 14.2763 25.9558 14.2691 25.7532C14.2561 25.3781 14.2656 25.0029 14.2656 24.6255C14.3195 24.6314 14.38 24.6343 14.4374 24.6462C14.9358 24.7481 15.4413 24.7855 15.9474 24.8044C16.7619 24.8307 17.5769 24.7707 18.3788 24.6255C18.47 24.6101 18.4854 24.6296 18.4831 24.7167C18.4748 25.1001 18.4771 25.4835 18.4706 25.8675C18.4677 26.0447 18.5915 26.1532 18.6721 26.3055L19.0472 25.3289C19.1171 25.1463 19.1171 25.1446 19.3103 25.1452C19.3654 25.1452 19.4099 25.1452 19.4259 25.0782C19.5053 24.7422 19.5871 24.4074 19.67 24.0625H19.6706ZM26.1477 24.952L26.1672 24.9283L26.1542 24.9188L26.1441 24.9484L26.1222 24.9745C26.089 24.9727 26.0736 24.9893 26.0748 25.0219L26.0451 25.0296L26.0529 25.0421C26.0606 25.0361 26.0677 25.029 26.0748 25.0225C26.0859 25.0188 26.096 25.0126 26.1043 25.0044C26.1126 24.9962 26.1189 24.9861 26.1228 24.9751L26.1477 24.952ZM26.0043 25.0966C26.012 25.0918 26.0268 25.0906 26.012 25.0776L26.0001 25.0924L25.9906 25.1061L26.0043 25.0966ZM25.8857 25.2175L25.8988 25.2044C25.8869 25.1896 25.8834 25.2021 25.8786 25.2103C25.8759 25.2155 25.8731 25.2206 25.8703 25.2258L25.8851 25.2175H25.8857ZM26.2496 24.9111C26.0149 25.1979 25.7429 25.4486 25.4721 25.6986C24.836 26.2816 24.1539 26.8123 23.4324 27.2856C22.6699 27.7895 21.8701 28.2346 21.0401 28.6172C20.4538 28.8892 19.8516 29.1257 19.2369 29.3253C18.6395 29.5179 18.0315 29.669 17.4117 29.7733C16.7195 29.8901 16.0238 29.9303 15.3257 29.8628C14.7131 29.803 14.1082 29.6813 13.5201 29.4995C13.3613 29.4503 13.2019 29.3935 13.046 29.3395C12.7942 29.2534 12.5433 29.1645 12.2934 29.0729C11.9545 28.9472 11.6297 28.7932 11.302 28.6426C9.64393 27.8831 8.10235 26.8914 6.72367 25.6975C5.72693 24.8341 4.82678 23.8835 4.12811 22.7564C3.78026 22.1964 3.50056 21.6056 3.32811 20.9668C3.21225 20.5387 3.1684 20.0943 3.19833 19.6518C3.51241 19.5985 3.82648 19.5434 4.1453 19.5173C4.78767 19.4658 5.42707 19.4711 6.06767 19.5695C7.78856 19.8338 9.161 20.7049 10.3089 21.9754L10.4297 22.1087L10.7166 21.4438C10.9103 20.9935 11.1432 20.5638 11.3957 20.1455C11.5835 19.8349 11.7453 19.512 11.9883 19.2341C12.6561 18.4732 13.4401 17.8912 14.4143 17.5866C14.9074 17.4326 15.4134 17.3277 15.9296 17.3289C16.9251 17.3318 17.8668 17.56 18.7219 18.0874C19.2766 18.4299 19.7571 18.8601 20.1838 19.352C20.3047 19.4912 20.4054 19.6447 20.486 19.8106C20.7527 20.3618 21.0472 20.9004 21.2434 21.4835L21.4502 22.1028C21.6339 21.9209 21.8081 21.7419 21.9894 21.5706C22.6573 20.9378 23.4087 20.4275 24.2597 20.0749C24.9128 19.808 25.6017 19.6386 26.3041 19.5724C26.9174 19.5108 27.5243 19.5398 28.1323 19.6038C28.3183 19.6228 28.5026 19.6583 28.6881 19.6868C28.697 19.9298 28.6769 20.1715 28.6407 20.4121C28.5405 21.0673 28.3457 21.7045 28.0623 22.3037C27.9083 22.6343 27.7109 22.9407 27.5254 23.2548C27.1924 23.8201 26.7853 24.3286 26.3509 24.8175C26.3409 24.8293 26.3272 24.8382 26.3148 24.8483C26.2952 24.7985 26.3592 24.7712 26.3533 24.7149C26.3035 24.76 26.2478 24.7872 26.2425 24.8548L26.2431 24.8542C26.2294 24.8601 26.2069 24.8631 26.2046 24.872C26.1974 24.9016 26.2265 24.8957 26.2425 24.9022L26.2496 24.9111Z" fill="#FFFEFE"/>
<path d="M4.92042 2.00677C5.1142 2.06425 5.30857 2.14958 5.49642 2.24262C5.90234 2.44232 6.2899 2.67699 6.66146 2.93595C7.01701 3.18366 7.35242 3.45744 7.68368 3.73714C8.14116 4.12292 8.57079 4.53714 8.9939 4.95906C9.24516 5.20855 9.47983 5.47462 9.72338 5.7324C9.77316 5.78455 9.77672 5.81892 9.71034 5.86395C9.34768 6.10929 9.00397 6.37951 8.66738 6.65862C8.3059 6.95966 7.97346 7.29269 7.64635 7.63107C7.2416 8.04944 6.88072 8.50336 6.53049 8.96736C6.24901 9.33951 5.99894 9.73181 5.75005 10.1247C5.7376 10.1448 5.73049 10.1721 5.70146 10.1721C5.6659 10.1721 5.65642 10.1407 5.64812 10.1152C5.53316 9.74781 5.41405 9.38218 5.30738 9.01299C5.17708 8.56717 5.0546 8.1191 4.93997 7.66899C4.78251 7.0343 4.65359 6.39286 4.5536 5.74662C4.51555 5.49599 4.48551 5.24421 4.46353 4.99166C4.43153 4.62603 4.40072 4.2604 4.41909 3.89418C4.44931 3.30158 4.51983 2.7161 4.76516 2.16558C4.83034 2.01803 4.84634 1.99669 4.92042 2.00677Z" fill="#F28F1F"/>
<path d="M27.2013 3.125C27.2392 3.47285 27.2831 3.82189 27.27 4.17093C27.2564 4.56373 27.2283 4.95589 27.1859 5.34663C27.1156 5.93334 27.0151 6.51604 26.8848 7.09241C26.7699 7.61981 26.6324 8.1413 26.4842 8.661C26.3539 9.11907 26.2057 9.57122 26.0712 10.0275C26.0546 10.0832 26.0238 10.1816 26.0048 10.1804C25.9367 10.1751 25.929 10.0951 25.8964 10.0435C25.466 9.36013 24.9876 8.70822 24.4647 8.0927C24.1435 7.71522 23.7832 7.37744 23.4383 7.02307C23.3613 6.94367 23.2546 6.89448 23.1965 6.79433C23.2179 6.76589 23.2451 6.74041 23.2605 6.709C23.4111 6.389 23.5823 6.08085 23.7642 5.77863C24.0349 5.3192 24.3492 4.88698 24.7029 4.48796C25.0786 4.07256 25.5029 3.71285 26.0066 3.45922C26.3835 3.26959 26.7764 3.13922 27.2013 3.125Z" fill="#F28B20"/>
<path d="M8.09253 14.9317C8.11505 14.5904 8.12275 14.3273 8.22883 14.0796C8.27031 13.98 8.32186 13.9314 8.4386 13.9303C8.78231 13.9267 9.09757 14.0352 9.40453 14.1679C10.4137 14.604 11.3263 15.2067 12.2265 15.8289C12.5743 16.0695 12.8753 16.3658 13.0697 16.7534C13.1201 16.8541 13.1539 16.959 13.1716 17.0692C13.1924 17.1954 13.1527 17.2565 13.0259 17.2997C12.8776 17.348 12.7218 17.3695 12.566 17.3632C12.1318 17.346 11.7003 17.2876 11.2771 17.1889C10.8537 17.0972 10.4374 16.9752 10.0315 16.8239C9.4069 16.588 8.80601 16.3107 8.31653 15.8384C8.19801 15.7246 8.11149 15.6055 8.11505 15.4266C8.11979 15.2357 8.09846 15.0443 8.09312 14.9317H8.09253Z" fill="#1F1712"/>
<path d="M23.9948 14.9726C23.9865 15.1326 23.9705 15.2914 23.9723 15.4508C23.9741 15.5741 23.9178 15.66 23.8419 15.7442C23.5515 16.0642 23.1924 16.2905 22.8132 16.4873C22.2419 16.7836 21.6369 16.9898 21.0147 17.1421C20.5305 17.26 20.041 17.3495 19.5391 17.3495C19.4052 17.3501 19.2772 17.3246 19.1498 17.2938C19.0147 17.2612 18.9732 17.1871 18.9921 17.0627C19.0549 16.6568 19.3038 16.3634 19.5824 16.0908C19.9349 15.7471 20.3575 15.4959 20.7652 15.2257C21.2689 14.8926 21.7815 14.5738 22.3225 14.3036C22.7035 14.1128 23.0899 13.9302 23.5219 13.8929C23.8366 13.8651 23.8099 13.8692 23.9148 14.1892C23.9978 14.4422 23.9942 14.7083 23.9948 14.9726Z" fill="#1F1713"/>
<path d="M27.2013 3.12491C26.7764 3.13973 26.3835 3.2695 26.0073 3.45913C25.5024 3.71276 25.0787 4.07247 24.7035 4.48787C24.3499 4.88689 24.0355 5.31911 23.7649 5.77854C23.5824 6.08076 23.4111 6.38891 23.26 6.70891C23.2452 6.74032 23.2185 6.7658 23.1966 6.79424C23.0573 6.73024 22.9607 6.60995 22.8446 6.51573C22.5667 6.28995 22.2763 6.08076 21.9877 5.8698C21.9107 5.8135 21.9237 5.78091 21.977 5.72165C22.3283 5.32953 22.6931 4.94984 23.071 4.58328C23.7216 3.95632 24.4013 3.36254 25.1468 2.84936C25.6214 2.52228 26.1316 2.24993 26.6674 2.0375C26.8221 1.97587 26.8375 1.97765 26.9044 2.12402C27.0407 2.4215 27.1421 2.73024 27.1794 3.05736C27.1824 3.08047 27.1942 3.10239 27.2013 3.12491Z" fill="#F2991D"/>
<path d="M21.8449 13.1534C21.3222 13.1439 20.8849 13.1279 20.4582 13.0023C20.0612 12.8849 19.8911 12.6325 19.9243 12.2135C19.9598 11.7572 20.2028 11.4153 20.521 11.1172C20.7006 10.9483 20.8914 10.7889 21.129 10.7036C21.5367 10.5566 21.9249 10.6242 22.2881 10.8369C22.7433 11.103 23.0573 11.4799 23.1326 12.018C23.1749 12.3179 23.1053 12.623 22.937 12.8749C22.8161 13.0627 22.6289 13.1083 22.4316 13.1208C22.2081 13.135 21.9853 13.1634 21.8449 13.1534ZM10.047 13.1492C9.75777 13.1528 9.5 13.1297 9.24103 13.1089C9.01229 13.0911 8.89614 12.9454 8.78474 12.7711C8.62 12.5134 8.63659 12.2396 8.66977 11.9534C8.74681 11.3015 9.38266 10.7486 10.0073 10.6426C10.3693 10.5815 10.7012 10.6734 10.9945 10.9015C11.3317 11.164 11.6428 11.4509 11.7661 11.8751C11.8455 12.1483 11.823 12.4304 11.7216 12.6983C11.6665 12.8434 11.5379 12.9252 11.3987 12.9756C11.1735 13.0568 10.9364 13.1018 10.6988 13.1196C10.4724 13.1374 10.2455 13.1629 10.047 13.1492Z" fill="#FFFEFE"/>
<path d="M26.2419 24.8547C26.2479 24.7871 26.3036 24.7599 26.3528 24.7148C26.3587 24.7711 26.2947 24.7978 26.3148 24.8482L26.3119 24.8553L26.2419 24.8547Z" fill="#F6D9A7"/>
<path d="M26.2419 24.8547L26.3042 24.8559C26.2935 24.8814 26.2805 24.9045 26.2496 24.911L26.2425 24.9021V24.8541L26.2419 24.8547Z" fill="#FFFEFE"/>
<path d="M19.67 24.0624C19.5871 24.4073 19.5053 24.7421 19.4259 25.0781C19.4099 25.1451 19.3654 25.1451 19.3103 25.1451C19.1165 25.1445 19.1171 25.1463 19.0472 25.3288L18.6721 26.3054C18.5915 26.1531 18.4677 26.0447 18.4706 25.8669C18.4765 25.4835 18.4748 25.1001 18.4825 24.7161C18.4848 24.629 18.47 24.6094 18.3788 24.6254C17.5769 24.7706 16.7619 24.8306 15.9474 24.8044C15.4413 24.7854 14.9358 24.7481 14.4374 24.6461C14.3794 24.6343 14.3195 24.6313 14.2656 24.6254C14.2656 25.0029 14.2561 25.378 14.2691 25.7525C14.2763 25.9552 14.2614 26.1407 14.1074 26.2983C13.974 26.1199 13.8911 25.9107 13.8188 25.6986C13.7654 25.541 13.7109 25.3821 13.6931 25.215C13.6807 25.0924 13.596 25.103 13.5219 25.1261C13.4093 25.1605 13.3749 25.1261 13.3524 25.0136C13.3235 24.8773 13.3033 24.7393 13.292 24.6005C13.2916 24.5552 13.2811 24.5106 13.2611 24.4699C13.241 24.4293 13.2121 24.3937 13.1764 24.3659C13.1142 24.3161 13.0608 24.2562 13.0028 24.2011C12.969 24.1685 12.9767 24.127 12.9826 24.0885C12.9885 24.0464 13.0271 24.0636 13.0508 24.0636C13.3785 24.0648 13.7062 24.0678 14.0339 24.0696C14.0949 24.0696 14.1453 24.079 14.1465 24.1555C14.1471 24.207 14.1826 24.2053 14.2205 24.207C14.6917 24.2325 15.1628 24.2307 15.6345 24.2319C15.6848 24.2319 15.7151 24.2165 15.7394 24.1727C15.7927 24.0761 15.8549 23.983 15.9083 23.8859C15.9557 23.7999 15.9995 23.7199 16.121 23.7496C16.1761 23.7632 16.1862 23.7259 16.1862 23.6784C16.185 23.3756 16.1832 23.0716 16.1862 22.7682C16.1874 22.7013 16.1447 22.6941 16.1003 22.6746C15.6416 22.4761 15.209 22.2361 14.8576 21.8722C14.5672 21.5724 14.3894 21.2263 14.4149 20.7925C14.4274 20.5816 14.4167 20.3694 14.4167 20.1573C14.4167 19.7069 14.7148 19.4088 15.1651 19.4088H17.3832C17.7814 19.4088 18.185 19.8165 18.1714 20.2147C18.1607 20.546 18.1915 20.8784 18.1311 21.2073C18.0422 21.685 17.7767 22.0506 17.3963 22.3392C17.2049 22.4887 16.99 22.6052 16.7604 22.6841C16.7088 22.7013 16.6952 22.7261 16.6952 22.7777C16.698 23.0774 16.698 23.377 16.6952 23.6767C16.6952 23.7419 16.7165 23.7644 16.777 23.7537C16.8736 23.7371 16.9245 23.781 16.9684 23.8669C17.0306 23.9901 17.0881 24.1466 17.1936 24.2088C17.2961 24.2681 17.4579 24.2266 17.593 24.2278C17.8567 24.2296 18.1204 24.2254 18.3841 24.2325C18.4742 24.2355 18.5358 24.2171 18.5696 24.1288C18.5838 24.0921 18.6099 24.0619 18.6585 24.0619C18.9939 24.063 19.3293 24.0624 19.67 24.0624Z" fill="#1D1919"/>
<path d="M16.2052 25.0972C16.5768 25.0972 16.9483 25.0989 17.3193 25.096C17.3963 25.0948 17.4336 25.1061 17.4313 25.1967C17.4268 25.284 17.3946 25.3676 17.3394 25.4354C17.2842 25.5031 17.2089 25.5516 17.1243 25.5736C17.0739 25.5855 17.0532 25.5475 17.0248 25.5226C16.8132 25.3425 16.8132 25.3425 16.6354 25.5535L16.4742 25.7449C16.3498 25.893 16.1904 25.8829 16.092 25.72C16.028 25.6151 15.9658 25.5096 15.9024 25.4041C15.8751 25.3585 15.8425 25.3306 15.7809 25.3271C15.5942 25.3146 15.5883 25.3087 15.5285 25.4853C15.4988 25.5754 15.4573 25.5825 15.3815 25.5499C15.2725 25.5025 15.1587 25.4669 15.0579 25.4006C15.0206 25.3763 14.9951 25.3514 14.9928 25.2981C14.9856 25.093 14.9827 25.093 15.1865 25.093H16.2052V25.0972Z" fill="#171413"/>
<path d="M17.465 29.6618C17.5444 29.6518 17.5965 29.6109 17.6712 29.6358C17.6066 29.6678 17.5509 29.6885 17.465 29.6618ZM17.8223 29.6091C17.7867 29.6269 17.7553 29.6352 17.7133 29.6091H17.8223ZM26.243 24.8541L26.2424 24.9021C26.2264 24.8956 26.1974 24.9009 26.2045 24.8719C26.2069 24.863 26.2294 24.8601 26.243 24.8541ZM26.0741 25.0224C26.0741 24.9892 26.089 24.9726 26.1221 24.9744C26.1184 24.9855 26.1128 24.9956 26.1046 25.0039C26.0964 25.0123 26.0864 25.0186 26.0753 25.0224H26.0741Z" fill="#F6D9A7"/>
<path d="M26.0747 25.0225L26.0528 25.042L26.0445 25.0302C26.0546 25.0272 26.0652 25.0242 26.0747 25.0225ZM25.7239 25.3656C25.7233 25.3685 25.7239 25.3733 25.7221 25.3739C25.7198 25.3762 25.7144 25.378 25.7121 25.3768C25.7002 25.3715 25.7014 25.3656 25.7132 25.362C25.7162 25.362 25.7203 25.3644 25.7239 25.3656Z" fill="#F7DDB0"/>
<path d="M26.1447 24.9483C26.1476 24.9389 26.1506 24.9288 26.1547 24.9187L26.1672 24.9282L26.1482 24.9519L26.1447 24.9483Z" fill="#F6D9A7"/>
<path d="M26.1222 24.9744L26.1453 24.9478L26.1489 24.9513L26.1228 24.975L26.1222 24.9744Z" fill="#F6D9A7"/>
<path d="M26.0007 25.0924L26.0126 25.077C26.0274 25.0907 26.0126 25.0918 26.0043 25.0966L26.0007 25.0924Z" fill="#F7DDB0"/>
<path d="M26.0049 25.096L25.9901 25.106L26.0007 25.0924L26.0049 25.096ZM25.9432 25.1487L25.9462 25.1564L25.9385 25.1552L25.9432 25.1487ZM25.8781 25.2103C25.8834 25.2014 25.8875 25.189 25.8988 25.2044L25.8858 25.2174L25.8781 25.2103Z" fill="#F7DDB0"/>
</svg>
