<svg width="32" height="32" viewBox="0 0 32 32" fill="none" xmlns="http://www.w3.org/2000/svg">
<g clip-path="url(#clip0_4409_361)">
<path d="M32 0H0V32H32V0Z" fill="#0A0326"/>
<path d="M11.1104 12.4416C10.9824 12.288 10.816 12.2112 10.624 12.2112H6.65602C6.61762 12.2112 6.59202 12.1984 6.56642 12.1728C6.54082 12.1472 6.52802 12.1216 6.52802 12.096V9.43356C6.52802 9.40796 6.54082 9.38236 6.56642 9.35676C6.59202 9.33116 6.61762 9.31836 6.65602 9.31836H10.8544C11.9168 9.31836 12.8256 9.75356 13.5936 10.6112L14.6176 11.8528L12.6336 14.2592L11.1232 12.4288L11.1104 12.4416ZM18.4448 10.624C19.2128 9.76636 20.1344 9.34396 21.1968 9.34396H25.3824C25.4208 9.34396 25.4464 9.35676 25.4592 9.36956C25.472 9.38236 25.4848 9.40796 25.4848 9.44636V12.1088C25.4848 12.1344 25.472 12.16 25.4592 12.1856C25.4464 12.2112 25.4208 12.224 25.3824 12.224H21.4144C21.2224 12.224 21.056 12.3008 20.928 12.4544L17.9968 16L20.9408 19.5712C21.0688 19.712 21.2352 19.7888 21.4144 19.7888H25.3824C25.4208 19.7888 25.4464 19.8016 25.4592 19.8272C25.472 19.8528 25.4848 19.8784 25.4848 19.9168V22.5792C25.4848 22.6048 25.472 22.6304 25.4592 22.656C25.4464 22.6816 25.4208 22.6944 25.3824 22.6944H21.1968C20.1344 22.6944 19.2128 22.2592 18.4576 21.4016L16.0256 18.4448L13.5936 21.4016C12.8256 22.2592 11.904 22.6944 10.8416 22.6944H6.65602C6.61762 22.6944 6.59202 22.6816 6.57922 22.656C6.56642 22.6304 6.55362 22.6048 6.55362 22.5664V19.904C6.55362 19.8784 6.56642 19.8528 6.57922 19.8272C6.59202 19.8016 6.61762 19.7888 6.65602 19.7888H10.624C10.8032 19.7888 10.9696 19.712 11.1104 19.5584L13.9776 16.0768L18.432 10.6496L18.4448 10.624Z" fill="#00D1FF"/>
</g>
<defs>
<clipPath id="clip0_4409_361">
<rect width="32" height="32" rx="16" fill="white"/>
</clipPath>
</defs>
</svg>
