<svg width="32" height="32" viewBox="0 0 32 32" fill="none" xmlns="http://www.w3.org/2000/svg">
<rect width="32" height="32" rx="16" fill="white"/>
<path d="M7.81934 14.0499L7.59627 14.3845C5.03088 18.3999 5.58857 23.6422 9.04627 26.9884C10.9424 28.9961 13.6194 29.9999 16.2963 29.9999C16.2963 29.9999 16.2963 29.9999 7.81934 14.0499Z" fill="#00A3FF"/>
<path opacity="0.6" d="M16.2963 18.8462L7.81934 13.9385C16.2963 30 16.2963 30 16.2963 30C16.2963 26.5423 16.2963 22.5269 16.2963 18.8462Z" fill="#00A3FF"/>
<path opacity="0.6" d="M24.7732 14.0499L24.9963 14.3845C27.5617 18.3999 27.004 23.6422 23.5463 26.9884C21.5386 28.9961 18.9732 29.9999 16.2963 29.9999C16.2963 29.9999 16.2963 29.9999 24.7732 14.0499Z" fill="#00A3FF"/>
<path opacity="0.2" d="M16.2963 18.8462L24.7732 13.9385C16.2963 30 16.2963 30 16.2963 30C16.2963 26.5423 16.2963 22.5269 16.2963 18.8462Z" fill="#00A3FF"/>
<path opacity="0.2" d="M16.2963 8.02698V16.3924L23.6578 12.2654L16.2963 8.02698Z" fill="#00A3FF"/>
<path opacity="0.6" d="M16.2963 8.02698L8.93473 12.2654L16.2963 16.3924V8.02698Z" fill="#00A3FF"/>
<path d="M16.2963 1L8.93473 12.2654L16.2963 8.02693V1Z" fill="#00A3FF"/>
<path opacity="0.6" d="M16.2963 8.02693L23.6578 12.2654L16.2963 1V8.02693Z" fill="#00A3FF"/>
</svg>
