<svg width="32" height="32" viewBox="0 0 32 32" fill="none" xmlns="http://www.w3.org/2000/svg">
<g clip-path="url(#clip0_4430_106)">
<rect width="32" height="32" rx="16" fill="black"/>
<mask id="mask0_4430_106" style="mask-type:luminance" maskUnits="userSpaceOnUse" x="0" y="0" width="32" height="32">
<path d="M0 0H32V32H0V0Z" fill="white"/>
</mask>
<g mask="url(#mask0_4430_106)">
<mask id="mask1_4430_106" style="mask-type:luminance" maskUnits="userSpaceOnUse" x="0" y="0" width="32" height="32">
<path d="M0 0H32V32H0V0Z" fill="white"/>
</mask>
<g mask="url(#mask1_4430_106)">
<path d="M19.1752 1.27335L20.027 3.26789C21.6986 7.18403 24.8179 10.3034 28.734 11.9749L30.7286 12.8267C31.251 13.0495 31.6745 13.3683 32.0019 13.7486C31.009 6.62605 25.3759 0.992948 18.2533 0C18.6327 0.326501 18.9524 0.750953 19.1752 1.27335ZM1.27335 12.8267L3.26789 11.9749C7.18422 10.3033 10.3038 7.18404 11.9759 3.26789L12.8267 1.27335C13.0321 0.78374 13.3476 0.348024 13.7486 0C6.62605 0.992948 0.992948 6.62605 0 13.7486C0.326501 13.3683 0.750953 13.0495 1.27335 12.8267ZM30.7295 19.1733L28.734 20.0251C24.8177 21.6969 21.6984 24.8166 20.027 28.7331L19.1752 30.7266C18.9699 31.2166 18.6545 31.6527 18.2533 32.001C25.3759 31.007 31.009 25.3739 32.0019 18.2514C31.6541 18.6527 31.2193 18.9682 30.7295 19.1733ZM12.8267 30.7266L11.9759 28.7331C10.304 24.8166 7.18435 21.697 3.26789 20.0251L1.27335 19.1733C0.783569 18.9682 0.347789 18.6527 0 18.2514C0.992948 25.3739 6.62605 31.007 13.7486 32.001C13.3477 31.6524 13.0323 31.2164 12.8267 30.7266Z" fill="#999999"/>
</g>
<path d="M8.7416 14.4361L9.72399 14.0165C11.654 13.1928 13.1914 11.6557 14.0156 9.72587L14.4342 8.74253C15.0219 7.36642 16.9742 7.36642 17.5619 8.74253L17.9806 9.72587C18.8047 11.6557 20.3422 13.1928 22.2722 14.0165L23.2555 14.4361C24.6316 15.0238 24.6316 16.9752 23.2555 17.5629L22.2722 17.9825C20.3419 18.8063 18.8044 20.3438 17.9806 22.2741L17.5619 23.2565C16.9742 24.6326 15.0219 24.6326 14.4342 23.2565L14.0156 22.2741C13.1918 20.3438 11.6543 18.8063 9.72399 17.9825L8.7416 17.5629C7.36453 16.9752 7.36453 15.0238 8.7416 14.4361Z" fill="white"/>
</g>
</g>
<defs>
<clipPath id="clip0_4430_106">
<rect width="32" height="32" rx="16" fill="white"/>
</clipPath>
</defs>
</svg>
