<svg width="32" height="32" viewBox="0 0 32 32" fill="none" xmlns="http://www.w3.org/2000/svg">
<g clip-path="url(#clip0_4416_467)">
<rect width="32" height="32" rx="16" fill="white"/>
<path d="M17.76 0.160034C17.9714 0.180997 18.1828 0.20196 18.388 0.346021C18.38 1.82252 18.3615 3.17629 18.3923 4.52895C18.3976 4.76043 18.5615 5.12393 18.7415 5.1927C19.5941 5.51849 20.4776 5.76322 21.3574 6.03911C21.8183 4.48351 22.2692 2.96177 22.72 1.44003C22.8986 1.53943 23.0771 1.63883 23.3019 1.81053C23.1091 2.67965 22.87 3.47647 22.6309 4.27329C22.695 4.32777 22.759 4.38223 22.8231 4.43671C23.4287 3.81115 24.0344 3.18559 24.64 2.56003C24.8463 2.6849 25.0525 2.80977 25.225 3.01627C24.0916 4.19258 22.9919 5.28726 21.8922 6.38193C21.9013 6.46102 21.9103 6.54011 21.9193 6.6192C22.2825 6.65096 22.8053 6.85298 22.9828 6.68661C24.0589 5.67775 25.0563 4.58486 26.08 3.52003C26.2341 3.64643 26.3882 3.77283 26.5668 4.00484C25.5338 5.2132 24.4764 6.31595 23.3814 7.45785C23.6294 7.67065 23.823 7.83686 23.8846 7.88966C25.0777 6.77408 26.2188 5.70706 27.36 4.64003C27.5141 4.76643 27.6682 4.89283 27.8173 5.12192C26.682 6.26407 25.5517 7.30352 24.4032 8.35979C24.8298 8.89131 25.0727 9.19382 25.3634 9.55597C25.6045 8.97587 25.8195 8.45835 26.0749 7.84389C26.2804 8.13249 26.4074 8.3108 26.5965 8.57626C27.3595 7.7673 28.0797 7.00367 28.8 6.24003C28.9565 6.46903 29.113 6.69803 29.2195 6.98019C28.486 7.69462 27.7679 8.3254 27.1416 9.03707C26.9694 9.23277 27.0719 9.67019 27.0483 9.99669C27.3196 9.93375 27.6628 9.95414 27.8493 9.79309C28.5667 9.17358 29.234 8.49598 29.92 7.84004C30.0268 7.96406 30.1335 8.08808 30.2301 8.31926C29.6192 8.95773 29.0184 9.48904 28.4177 10.0203C28.4814 10.0911 28.5452 10.1619 28.6089 10.2326C29.366 10.0751 30.123 9.91756 30.88 9.76003C30.9334 9.8318 30.9869 9.90356 31.0381 10.0877C29.8534 10.6914 28.6785 11.2023 27.4848 11.6647C27.0017 11.8518 26.7786 12.1467 26.8989 12.6324C27.0564 13.2674 27.2677 13.8891 27.4808 14.6C28.9836 14.6 30.4951 14.6 32.0256 14.6275C32.0768 14.6879 32.1152 14.7095 32.16 14.72C32.16 14.84 32.16 14.96 32.0882 15.1646C30.5333 15.2491 29.0502 15.2491 27.5012 15.2491C27.5209 15.6516 27.5344 15.929 27.5534 16.32C29.135 16.32 30.6475 16.32 32.16 16.32C32.16 16.4907 32.16 16.6614 32.085 16.8965C30.5249 16.961 29.0398 16.961 27.5088 16.961C27.4518 17.4615 27.4026 17.8942 27.3449 18.4C29.0197 18.4 30.5899 18.4 32.16 18.4C32.16 18.6223 32.16 18.8445 32.122 19.084C32.046 19.1181 32.008 19.1351 31.8969 19.1495C30.4708 19.1308 29.1175 19.0944 27.7652 19.1167C27.5184 19.1208 27.1522 19.3033 27.0514 19.5073C26.5036 20.6157 26.0218 21.7566 25.4815 22.9666C26.4903 24.0068 27.5757 25.1259 28.6431 26.2922C28.475 26.4691 28.3248 26.5988 28.1405 26.6867C27.053 25.596 25.9996 24.5471 24.9075 23.4598C24.6828 23.7157 24.5008 23.923 24.1207 24.3558C25.2956 25.4286 26.4343 26.4684 27.5464 27.5529C27.3669 27.7328 27.214 27.8679 27.0356 27.9549C25.9298 26.8323 24.8496 25.7578 23.742 24.6561C23.3401 24.9883 23.0063 25.2641 22.3882 25.7751C23.6268 26.8863 24.7676 27.9099 25.8608 28.9562C25.6427 29.0801 25.4723 29.1811 25.2743 29.2354C24.3065 28.2464 23.3779 27.2921 22.4154 26.3732C22.2429 26.2085 21.8846 26.0576 21.691 26.1254C20.5968 26.5091 19.5266 26.9613 18.4 27.4095C18.4 28.9698 18.4 30.5649 18.4 32.16C18.2293 32.16 18.0587 32.16 17.8076 32.0865C17.7272 30.4921 17.7272 28.9713 17.7272 27.3752C17.3182 27.4362 17.068 27.4735 16.7391 27.5226C16.7391 29.0527 16.7391 30.5321 16.7159 32.0313C16.6657 32.0828 16.6482 32.1191 16.64 32.16C16.4693 32.16 16.2987 32.16 16.0729 32.0855C16.0178 30.5308 16.0178 29.0508 16.0178 27.5557C15.4983 27.5152 15.0802 27.4826 14.56 27.4421C14.56 29.0354 14.56 30.5977 14.56 32.16C14.3378 32.16 14.1156 32.16 13.8491 32.0974C13.8301 30.5772 13.8713 29.1195 13.8576 27.6623C13.8561 27.5023 13.5659 27.2822 13.3645 27.1981C12.5831 26.8719 11.7467 26.6592 11.0024 26.2679C10.4325 25.9684 10.1191 26.0846 9.71254 26.508C8.7935 27.4651 7.82452 28.3742 6.82881 29.2845C6.65747 29.1553 6.53317 29.0446 6.42537 28.8844C7.5102 27.7456 8.57855 26.6564 9.68263 25.5308C9.38692 25.3083 9.18088 25.1533 8.71084 24.7998C7.67806 25.9385 6.64562 27.077 5.56551 28.1864C5.3782 28.0531 5.23855 27.9488 5.12476 27.7969C6.2459 26.7082 7.34118 25.6671 8.47274 24.5916C7.99891 24.1647 7.67452 23.8724 7.36988 23.598C6.3159 24.6214 5.23067 25.6751 4.09751 26.7126C3.91863 26.5452 3.78767 26.3941 3.68061 26.1942C4.82276 25.096 5.94099 24.0466 7.10435 22.955C6.71402 22.5187 6.49115 22.2697 6.27211 21.9626C5.98072 21.1982 5.64456 20.5055 5.40518 19.7807C5.25425 19.3238 5.04134 19.169 4.5622 19.1788C3.15768 19.2076 1.75208 19.1836 0.296175 19.1474C0.216966 19.1431 0.188485 19.1716 0.160004 19.2C0.160004 18.9778 0.160004 18.7556 0.214217 18.5293C1.81737 18.5252 3.36632 18.5252 4.8847 18.5252C5.00386 17.8774 4.97395 17.5469 4.37051 17.5599C2.96737 17.59 1.56355 17.5886 0.160004 17.6C0.160004 17.3778 0.160004 17.1556 0.234987 16.8661C1.78681 16.7988 3.26364 16.7988 4.74578 16.7988C4.74578 16.2685 4.74578 15.8377 4.74578 15.36C3.17848 15.36 1.66924 15.36 0.160004 15.36C0.160004 15.1894 0.160004 15.0187 0.233575 14.7678C1.65904 14.685 3.01099 14.6741 4.36278 14.6842C4.89535 14.6882 5.10758 14.5097 4.84893 13.92C3.29554 13.92 1.72777 13.92 0.160004 13.92C0.160004 13.7494 0.160004 13.5787 0.226283 13.3909C1.26999 13.3111 2.24741 13.2485 3.3861 13.1755C2.41663 12.6245 1.58977 12.1547 0.779818 11.622C0.857616 11.4079 0.918503 11.2567 1.03684 11.1231C2.38692 11.8423 3.67954 12.5439 4.97369 13.2973C5.04128 13.4055 5.10733 13.4617 5.17339 13.5179C5.20433 13.4255 5.23528 13.333 5.26586 13.1807C5.35888 12.7719 5.45226 12.4231 5.54287 12.0846C5.46765 12.0356 5.42758 11.9951 5.37961 11.9804C3.96223 11.5483 2.54407 11.1186 1.12409 10.634C1.21579 10.3636 1.30945 10.1478 1.44324 9.97703C2.29283 10.2694 3.10228 10.5166 3.91173 10.7639C3.94526 10.7014 3.9788 10.639 4.01234 10.5766C3.34965 9.88187 2.68697 9.18714 2.05376 8.44458C2.18848 8.25525 2.29371 8.11376 2.44658 7.99836C3.58219 9.14603 4.67016 10.2676 5.75618 11.3872C6.40161 10.7635 6.35488 10.3201 5.77776 9.79025C4.82137 8.91227 3.93808 7.95468 3.03135 6.97414C3.15143 6.77613 3.26417 6.63461 3.42841 6.51337C4.51508 7.66276 5.55024 8.79187 6.59477 9.93121C7.37742 9.06945 7.38435 9.06247 6.83275 8.51483C5.89399 7.58281 4.94553 6.66054 4.01962 5.68646C4.18077 5.46277 4.32345 5.28679 4.49737 5.15488C5.61769 6.28279 6.70679 7.36664 7.83545 8.48985C8.19386 8.14841 8.51088 7.8464 9.03639 7.34576C7.83914 6.24344 6.70647 5.20059 5.59328 4.11055C5.76456 3.93183 5.91636 3.8003 6.10246 3.71042C7.24139 4.85139 8.34604 5.95071 9.46636 7.06563C9.74882 6.86874 9.98232 6.70598 10.4927 6.35019C9.23748 5.20445 8.06653 4.13568 6.94278 3.04287C7.1614 2.91664 7.33283 2.81444 7.53542 2.7564C8.25136 3.50313 8.93614 4.2057 9.62092 4.90827C9.69397 4.85785 9.76703 4.80744 9.84009 4.75702C9.49321 3.80357 9.14633 2.85013 8.81952 1.84651C9.09187 1.68628 9.34416 1.57623 9.59762 1.5293C10.0358 3.08832 10.4728 4.58423 10.9311 6.15275C11.4398 5.92207 11.8543 5.73409 12.2449 5.55697C11.4504 4.13676 10.6879 2.77388 9.94971 1.36255C10.209 1.25379 10.4439 1.19349 10.6935 1.18931C11.1242 2.0266 11.5401 2.80777 11.9561 3.58894C12.0084 3.55997 12.0607 3.531 12.113 3.50203C12.113 2.55526 12.113 1.60848 12.1735 0.648097C12.4226 0.591693 12.6113 0.548906 12.8006 0.579388C12.8011 2.18319 12.8011 3.71373 12.8011 5.36453C13.2672 5.19642 13.7902 5.42392 13.7825 4.71146C13.7661 3.19441 13.7665 1.67719 13.76 0.160034C13.9307 0.160034 14.1013 0.160034 14.3479 0.190955C14.4459 0.261864 14.4773 0.292135 14.5292 0.387331C14.5404 1.94688 14.5404 3.43179 14.5404 4.97662C14.9014 4.95112 15.154 4.93327 15.52 4.90741C15.52 3.29077 15.52 1.7254 15.52 0.160034C15.6907 0.160034 15.8613 0.160034 16.1 0.234934C16.168 1.83961 16.168 3.3694 16.168 4.90293C16.7284 4.90293 17.1409 4.90293 17.6387 4.90293C17.6387 3.33942 17.6387 1.82645 17.6664 0.29453C17.7272 0.243376 17.7491 0.204862 17.76 0.160034ZM5.96992 12.8641C5.94636 12.8857 5.93543 12.9124 5.90479 13.0599C5.34054 13.7562 5.39311 14.5658 5.45621 15.5268C4.97493 22.394 11.0539 27.2195 16.154 26.7977C16.2305 25.6798 16.3077 24.5509 16.3831 23.4481C16.7852 23.35 17.1328 23.3021 17.4527 23.181C19.1114 22.5531 20.2599 21.4605 20.4913 19.6255C20.6222 18.5868 20.5192 18.5269 19.4919 18.6301C18.5553 18.7241 17.6162 18.7929 16.6125 18.8784C16.6125 18.0032 16.6125 17.2466 16.6125 16.4896C16.2079 16.4526 15.8651 16.4214 15.5175 16.2964C15.5119 16.2337 15.5062 16.1709 15.5142 15.9987C15.6375 15.7068 15.7608 15.4149 15.8372 15.2343C16.6017 15.7686 17.3161 16.4239 18.153 16.8217C20.1724 17.7815 22.3278 17.7094 24.4755 17.3466C24.7868 17.294 25.1113 17.0546 25.3381 16.8149C26.1541 15.9525 26.5531 14.9046 26.5613 13.7143C26.5616 13.6572 26.5109 13.5998 26.4571 13.4856C26.3382 13.7404 26.2496 13.9302 26.1305 14.1853C25.9551 13.8161 25.8205 13.5328 25.6699 13.1256C25.5426 12.0663 24.8649 11.5654 23.8882 11.3626C23.6836 11.3202 23.4831 11.2574 23.2092 11.1219C23.1209 11.0684 23.0325 11.0149 22.9034 10.9366C23.3161 10.7565 23.6838 10.5959 24.0515 10.4354C23.1368 10.2025 22.2457 10.0829 21.356 10.0922C19.7091 10.1093 18.0629 10.2019 16.2618 10.2495C16.2104 10.246 16.1589 10.2426 16.0971 10.0957C16.2688 8.60802 16.4405 7.12031 16.6196 5.56804C13.0924 5.4421 10.28 6.69452 8.04226 9.22724C7.12869 10.2612 6.33329 11.3959 6.05507 12.8459C6.05507 12.8459 6.01409 12.8611 5.96992 12.8641Z" fill="#FFFDFB"/>
<path d="M27.0611 28.0029C27.214 27.8678 27.3669 27.7327 27.5916 27.5351C27.8337 27.2245 28.0042 26.9765 28.1746 26.7285C28.3248 26.5988 28.475 26.469 28.6922 26.2705C28.9879 25.848 29.2165 25.4943 29.4963 25.1189C29.636 24.9408 29.7245 24.7846 29.8583 24.6053C30.0616 24.2932 30.2196 24.0042 30.3903 23.665C30.4987 23.4426 30.5943 23.2705 30.7086 23.0407C30.7797 22.7959 30.8322 22.6089 30.9368 22.3985C31.0507 22.1703 31.1125 21.9654 31.1981 21.7077C31.3136 21.3807 31.4054 21.1065 31.5134 20.773C31.5711 20.5264 31.6127 20.339 31.6828 20.0988C31.7974 19.7479 31.8837 19.4499 31.97 19.1519C32.008 19.135 32.046 19.118 32.122 19.1505C32.16 23.5082 32.16 27.8164 32.16 32.1599C27.9434 32.1599 23.7267 32.1599 19.3898 32.1163C19.3534 31.9863 19.4371 31.9 19.5811 31.8264C19.8277 31.7787 20.0139 31.7183 20.256 31.669C20.5295 31.6179 20.7472 31.5557 21.0207 31.4909C21.2602 31.3924 21.4438 31.2965 21.684 31.2003C21.9643 31.0973 22.1879 30.9946 22.4672 30.8868C22.6881 30.8189 22.8534 30.756 23.074 30.6935C23.3684 30.5494 23.6075 30.405 23.9 30.2513C24.0845 30.1351 24.2157 30.0281 24.4021 29.9199C24.7387 29.7065 25.0203 29.4943 25.3018 29.2821C25.4723 29.1811 25.6427 29.08 25.9148 28.9562C26.3647 28.6233 26.7129 28.3131 27.0611 28.0029Z" fill="black"/>
<path d="M12.6701 0.0460841C12.4814 0.0888713 12.2927 0.131658 11.9862 0.176665C11.4286 0.343639 10.9887 0.508394 10.5488 0.673149C10.3139 0.733453 10.079 0.793756 9.7655 0.915875C9.61342 0.987175 9.53997 0.996658 9.46652 1.00614C9.21423 1.11619 8.96195 1.22625 8.6323 1.39823C8.1614 1.72417 7.76786 1.98819 7.37433 2.2522C7.2029 2.3544 7.03147 2.4566 6.75886 2.58147C6.41787 2.80567 6.17805 3.0072 5.93824 3.20873C5.78643 3.34027 5.63463 3.4718 5.40917 3.65215C5.00241 4.01757 4.66931 4.33418 4.3362 4.65078C4.19352 4.82676 4.05084 5.00273 3.84054 5.24852C3.59761 5.55657 3.42229 5.79482 3.24697 6.03306C3.13424 6.17457 3.0215 6.31609 2.85167 6.53549C2.61939 6.91299 2.4442 7.21262 2.26902 7.51224C2.16378 7.65373 2.05855 7.79522 1.87731 8.01051C1.62526 8.54685 1.44921 9.00938 1.27317 9.47191C1.17952 9.68773 1.08586 9.90355 0.948081 10.1964C0.885788 10.3974 0.867625 10.5214 0.849461 10.6454C0.788574 10.7966 0.727687 10.9479 0.597665 11.1925C0.362378 11.6906 0.196226 12.0953 0.0300751 12.5C0.0300751 8.24504 0.0300751 3.99006 0.0300751 -0.300001C4.24669 -0.300001 8.46339 -0.300001 12.8 -0.256358C12.8366 -0.126449 12.7533 -0.0401826 12.6701 0.0460841Z" fill="black"/>
<path d="M2.4967 27.0692C2.62766 27.2203 2.75862 27.3714 2.94513 27.594C3.31341 28.0005 3.62615 28.3356 3.9389 28.6707C4.07855 28.775 4.2182 28.8793 4.42297 29.057C4.74169 29.3403 4.99528 29.5501 5.24888 29.76C5.37317 29.8707 5.49747 29.9815 5.69068 30.1603C6.16573 30.4559 6.57187 30.6834 6.99824 30.9608C7.1697 31.0905 7.32092 31.1701 7.4966 31.2984C7.72156 31.422 7.92206 31.497 8.1452 31.6244C8.41603 31.746 8.66421 31.8153 8.93884 31.9332C9.1102 32.0045 9.25511 32.0271 9.42192 32.1016C9.72663 32.2062 10.0094 32.259 10.3277 32.3643C10.5613 32.4449 10.7594 32.4729 10.9879 32.5544C11.2177 32.6272 11.4171 32.6467 11.6421 32.7251C11.6585 32.8514 11.6492 32.9188 11.64 32.9862C7.43822 32.9862 3.23644 32.9862 -1 32.9862C-1 28.7162 -1 24.4462 -1 20.1012C-0.971519 19.9977 -0.943038 19.9693 -0.861123 20.036C-0.701418 20.4382 -0.595147 20.7451 -0.501026 21.1061C-0.453368 21.3689 -0.393558 21.5776 -0.327765 21.8426C-0.218708 22.1354 -0.115635 22.3719 -0.0236296 22.6642C0.0743588 22.9069 0.183415 23.0938 0.285555 23.3345C0.378435 23.6027 0.478229 23.817 0.587874 24.086C0.699026 24.3174 0.800328 24.4941 0.911423 24.7252C1.07321 25.0098 1.22521 25.2399 1.39721 25.5197C1.51797 25.7044 1.61873 25.8394 1.74039 26.0239C2.00643 26.4054 2.25157 26.7373 2.4967 27.0692Z" fill="black"/>
<path d="M29.6315 5.91701C29.5006 5.7659 29.3696 5.6148 29.1831 5.3922C28.8148 4.98564 28.5021 4.65057 28.1893 4.31549C28.0497 4.2112 27.91 4.10691 27.7053 3.92917C27.3865 3.64587 27.133 3.43602 26.8794 3.22617C26.7551 3.11543 26.6308 3.00469 26.4376 2.82586C25.9625 2.53029 25.5564 2.30281 25.13 2.02533C24.9585 1.89568 24.8073 1.81604 24.6316 1.68779C24.4067 1.56416 24.2062 1.48915 23.983 1.36176C23.7122 1.24014 23.464 1.17088 23.1894 1.05296C23.018 0.98166 22.8731 0.959033 22.7063 0.884592C22.4016 0.77998 22.1188 0.727182 21.8005 0.621884C21.5669 0.541303 21.3688 0.513225 21.1403 0.431797C20.9105 0.358933 20.7111 0.339419 20.4862 0.26103C20.4698 0.134773 20.479 0.0673877 20.4882 0C24.69 0 28.8918 0 33.1282 0C33.1282 4.26995 33.1282 8.53999 33.1282 12.885C33.0998 12.9884 33.0713 13.0169 32.9894 12.9501C32.8297 12.548 32.7234 12.241 32.6293 11.88C32.5816 11.6173 32.5218 11.4086 32.456 11.1436C32.3469 10.8508 32.2439 10.6143 32.1519 10.322C32.0539 10.0793 31.9448 9.89239 31.8427 9.65165C31.7498 9.38347 31.65 9.16912 31.5404 8.90012C31.4292 8.66877 31.3279 8.49207 31.2168 8.26095C31.055 7.97641 30.903 7.74629 30.731 7.46646C30.6103 7.28175 30.5095 7.14676 30.3878 6.96223C30.1218 6.5808 29.8767 6.2489 29.6315 5.91701Z" fill="black"/>
<path d="M10.56 31.2236C10.4151 31.201 10.2702 31.1784 10.1477 31.0729C10.42 30.1862 10.6388 29.3707 10.9311 28.5825C11.1198 28.0735 10.9621 27.843 10.6393 27.7708C9.76083 28.5834 8.94941 29.3341 8.138 30.0847C7.73187 29.8572 7.32573 29.6298 6.89772 29.3526C7.82451 28.3742 8.7935 27.4651 9.71253 26.508C10.1191 26.0846 10.4324 25.9684 11.0024 26.2679C11.7467 26.6592 12.5831 26.8719 13.3645 27.1981C13.5659 27.2822 13.8561 27.5023 13.8576 27.6623C13.8713 29.1195 13.8301 30.5773 13.7824 32.0974C13.4857 32.16 13.2114 32.16 12.8686 32.16C12.8092 32.0927 12.8185 32.0253 12.8113 31.8246C12.7964 30.9253 12.8218 30.1582 12.7855 29.3939C12.7739 29.1498 12.5988 28.9134 12.4985 28.6735C12.2719 28.8348 11.9782 28.9503 11.8312 29.1658C11.3774 29.8313 10.9796 30.5349 10.56 31.2236Z" fill="#FB934D"/>
<path d="M25.2743 29.2354C25.0203 29.4944 24.7387 29.7066 24.3762 29.8723C23.6599 29.1861 23.0368 28.5332 22.3793 27.9171C22.2433 27.7897 21.9422 27.7092 21.7861 27.7737C21.6646 27.8239 21.5577 28.159 21.6035 28.3229C21.845 29.187 22.137 30.037 22.4115 30.8919C22.1879 30.9946 21.9643 31.0974 21.6655 31.1463C21.1298 30.2304 20.6692 29.3681 20.2226 28.5321C19.7029 28.5131 19.4908 28.687 19.5097 29.1831C19.5433 30.0588 19.5202 30.9368 19.5208 31.8138C19.4371 31.9001 19.3534 31.9864 19.3148 32.1164C19.0857 32.16 18.8114 32.16 18.4685 32.16C18.4 30.5649 18.4 28.9697 18.4 27.4094C19.5266 26.9613 20.5968 26.5091 21.691 26.1254C21.8846 26.0575 22.2428 26.2085 22.4154 26.3732C23.3778 27.2921 24.3065 28.2464 25.2743 29.2354Z" fill="#FB924B"/>
<path d="M22.6628 1.43836C22.2692 2.96176 21.8183 4.4835 21.3574 6.0391C20.4776 5.76321 19.5941 5.51848 18.7415 5.19269C18.5615 5.12392 18.3976 4.76042 18.3923 4.52894C18.3615 3.17629 18.38 1.82251 18.3909 0.394568C18.7023 0.334093 19.0046 0.34816 19.321 0.495278C19.333 1.87224 19.3121 3.11664 19.3443 4.35966C19.3509 4.61551 19.5551 4.86625 19.6682 5.11934C19.8788 4.96049 20.1684 4.84603 20.2869 4.63534C20.9085 3.53032 21.4867 2.40094 22.08 1.28003C22.2552 1.33224 22.4303 1.38446 22.6628 1.43836Z" fill="#F6B74F"/>
<path d="M32.0066 14.6C30.4951 14.6 28.9836 14.6 27.4808 14.6C27.2677 13.889 27.0564 13.2674 26.8989 12.6324C26.7786 12.1466 27.0017 11.8518 27.4848 11.6647C28.6785 11.2023 29.8534 10.6914 31.0379 10.14C31.0932 10.2521 31.1464 10.4242 31.1763 10.7077C30.1074 11.3943 29.051 11.9515 28.0248 12.5596C27.8062 12.6891 27.6975 13.0039 27.5382 13.2333C27.7788 13.3403 28.0162 13.5311 28.2604 13.5401C29.506 13.5859 30.7533 13.5847 32 13.6C32.0533 13.872 32.1067 14.144 32.1211 14.496C32.0822 14.5759 32.0066 14.6 32.0066 14.6Z" fill="#F8A84B"/>
<path d="M17.6387 0.313492C17.6387 1.82646 17.6387 3.33942 17.6387 4.90294C17.1409 4.90294 16.7284 4.90294 16.168 4.90294C16.168 3.3694 16.168 1.83962 16.164 0.234941C16.592 0.160041 17.024 0.160041 17.5348 0.199133C17.6136 0.238225 17.6387 0.313492 17.6387 0.313492Z" fill="#F6B549"/>
<path d="M32.16 18.328C30.5899 18.4 29.0197 18.4 27.3449 18.4C27.4026 17.8941 27.4518 17.4614 27.5088 16.9609C29.0398 16.9609 30.5249 16.9609 32.085 16.9604C32.16 17.392 32.16 17.824 32.16 18.328Z" fill="#F99F47"/>
<path d="M14.632 32.16C14.56 30.5977 14.56 29.0354 14.56 27.442C15.0802 27.4825 15.4983 27.5151 16.0178 27.5556C16.0178 29.0507 16.0178 30.5308 16.0089 32.0854C15.568 32.16 15.136 32.16 14.632 32.16Z" fill="#FC904A"/>
<path d="M0.160004 15.432C1.66924 15.36 3.17848 15.36 4.74578 15.36C4.74578 15.8377 4.74578 16.2685 4.74578 16.7988C3.26364 16.7988 1.78681 16.7988 0.234987 16.7994C0.160004 16.368 0.160004 15.936 0.160004 15.432Z" fill="#F9A146"/>
<path d="M28.7862 6.1877C28.0797 7.00359 27.3595 7.76722 26.5965 8.57617C26.4074 8.31072 26.2804 8.13241 26.0749 7.84381C25.8195 8.45827 25.6044 8.97578 25.3633 9.55589C25.0727 9.19374 24.8298 8.89123 24.4032 8.35971C25.5517 7.30344 26.682 6.26399 27.8261 5.17224C28.1508 5.45845 28.4616 5.79695 28.7862 6.1877Z" fill="#F7B14E"/>
<path d="M31.9963 13.5361C30.7533 13.5848 29.506 13.5859 28.2604 13.5401C28.0162 13.5311 27.7788 13.3403 27.5382 13.2333C27.6975 13.0039 27.8062 12.6891 28.0248 12.5596C29.051 11.9515 30.1074 11.3944 31.1765 10.7695C31.3074 10.947 31.4148 11.1739 31.4673 11.4763C30.7335 11.9207 30.0545 12.2897 29.3755 12.6586C29.3905 12.7058 29.4054 12.7529 29.4203 12.8C30.2269 12.8 31.0335 12.8 31.84 12.8C31.8909 13.0241 31.9417 13.2481 31.9963 13.5361Z" fill="#FEF8F0"/>
<path d="M22.0665 1.2254C21.4867 2.40092 20.9085 3.5303 20.2869 4.63532C20.1684 4.84601 19.8788 4.96047 19.6682 5.11932C19.5551 4.86623 19.3509 4.61549 19.3443 4.35964C19.3121 3.11661 19.333 1.87222 19.3475 0.554154C19.5616 0.494333 19.7631 0.508664 19.9887 0.656132C20.0127 1.63939 20.0127 2.48951 20.0127 3.33963C20.0665 3.34492 20.1202 3.35021 20.174 3.35549C20.596 2.557 21.018 1.7585 21.44 0.960002C21.6443 1.03026 21.8486 1.10053 22.0665 1.2254Z" fill="#FFFDFB"/>
<path d="M32.16 16.25C30.6475 16.32 29.135 16.32 27.5534 16.32C27.5344 15.929 27.5208 15.6516 27.5012 15.249C29.0502 15.249 30.5333 15.249 32.0882 15.2245C32.16 15.5266 32.16 15.8533 32.16 16.25Z" fill="#F9A955"/>
<path d="M26.0636 3.46699C25.0563 4.58486 24.0589 5.67775 22.9828 6.68661C22.8053 6.85298 22.2825 6.65097 21.9193 6.6192C21.9103 6.54011 21.9013 6.46102 21.8922 6.38193C22.9919 5.28726 24.0916 4.19258 25.2357 3.06897C25.5357 3.16467 25.7914 3.28931 26.0636 3.46699Z" fill="#F7B44D"/>
<path d="M12.8006 0.579388C12.8832 0.419852 12.9665 0.333586 13.0049 0.203677C13.1822 0.160034 13.4044 0.160034 13.6933 0.160034C13.7665 1.67719 13.7661 3.19441 13.7825 4.71146C13.7902 5.42392 13.2672 5.19642 12.8011 5.36454C12.8011 3.71373 12.8011 2.18319 12.8006 0.579388Z" fill="#F6B446"/>
<path d="M16.7391 32.0115C16.7391 30.5321 16.7391 29.0527 16.7391 27.5225C17.068 27.4735 17.3182 27.4361 17.7271 27.3751C17.7271 28.9713 17.7271 30.4921 17.7436 32.0864C17.4857 32.16 17.2114 32.16 16.8547 32.1223C16.7613 32.0602 16.7502 32.0359 16.7391 32.0115Z" fill="#FC9856"/>
<path d="M15.4514 0.160034C15.52 1.7254 15.52 3.29077 15.52 4.90741C15.154 4.93327 14.9014 4.95112 14.5404 4.97662C14.5404 3.43179 14.5404 1.94688 14.5419 0.349785C14.5435 0.237596 14.56 0.160034 14.56 0.160034C14.8343 0.160034 15.1086 0.160034 15.4514 0.160034Z" fill="#F6B951"/>
<path d="M27.3463 4.58746C26.2188 5.707 25.0777 6.77402 23.8846 7.8896C23.823 7.83679 23.6294 7.67058 23.3814 7.45779C24.4764 6.31589 25.5338 5.21313 26.5756 4.05518C26.8175 4.1783 27.075 4.35663 27.3463 4.58746Z" fill="#F7B14B"/>
<path d="M29.9193 7.78468C29.234 8.49591 28.5667 9.17351 27.8493 9.79302C27.6628 9.95408 27.3196 9.93368 27.0483 9.99662C27.0719 9.67012 26.9694 9.2327 27.1416 9.037C27.7679 8.32533 28.486 7.69455 29.2248 7.03662C29.4928 7.26977 29.7057 7.49958 29.9193 7.78468Z" fill="#F8B152"/>
<path d="M0.160004 13.9867C1.72777 13.92 3.29554 13.92 4.84893 13.92C5.10758 14.5097 4.89535 14.6882 4.36278 14.6842C3.01099 14.6741 1.65904 14.685 0.233575 14.7038C0.160004 14.4978 0.160004 14.2756 0.160004 13.9867Z" fill="#F9AE5C"/>
<path d="M0.160004 17.6666C1.56355 17.5886 2.96737 17.59 4.37051 17.5598C4.97395 17.5468 5.00386 17.8774 4.8847 18.5251C3.36632 18.5251 1.81737 18.5251 0.214217 18.4626C0.160004 18.1778 0.160004 17.9555 0.160004 17.6666Z" fill="#F99F47"/>
<path d="M0.160004 13.0133C0.326155 12.5553 0.492307 12.1506 0.710683 11.7153C1.58977 12.1546 2.41663 12.6245 3.3861 13.1754C2.24741 13.2484 1.26999 13.3111 0.226283 13.3269C0.160004 13.2089 0.160004 13.1378 0.160004 13.0133Z" fill="#F8AE58"/>
<path d="M24.6221 2.50649C24.0344 3.18557 23.4287 3.81113 22.8231 4.43669C22.759 4.38222 22.695 4.32775 22.6309 4.27328C22.87 3.47645 23.109 2.67963 23.3541 1.82141C23.7747 1.991 24.1895 2.22198 24.6221 2.50649Z" fill="#F6B64B"/>
<path d="M21.3774 0.958232C21.018 1.75846 20.596 2.55696 20.174 3.35546C20.1202 3.35017 20.0665 3.34488 20.0127 3.3396C20.0127 2.48947 20.0127 1.63935 20.0063 0.7146C20.4383 0.745476 20.8766 0.850987 21.3774 0.958232Z" fill="#F6BB53"/>
<path d="M30.8833 9.70022C30.123 9.9175 29.366 10.075 28.6089 10.2325C28.5452 10.1618 28.4814 10.091 28.4177 10.0203C29.0184 9.48898 29.6192 8.95767 30.23 8.37317C30.4555 8.76014 30.671 9.20031 30.8833 9.70022Z" fill="#F8AF50"/>
<path d="M31.8397 12.7351C31.0334 12.8 30.2269 12.8 29.4203 12.8C29.4054 12.7529 29.3904 12.7058 29.3755 12.6586C30.0545 12.2897 30.7335 11.9207 31.4662 11.5359C31.6264 11.9034 31.7329 12.2868 31.8397 12.7351Z" fill="#F8A84B"/>
<path d="M14.52 0.160034C14.56 0.160034 14.5435 0.237596 14.5308 0.275142C14.4773 0.292135 14.4459 0.261864 14.4119 0.190955C14.4 0.160034 14.48 0.160034 14.52 0.160034Z" fill="#FEFCFA"/>
<path d="M17.6664 0.29453C17.6387 0.313485 17.6136 0.238218 17.6068 0.199126C17.6 0.160034 17.68 0.160034 17.72 0.160034C17.7491 0.204863 17.7272 0.243376 17.6664 0.29453Z" fill="#FEFCFA"/>
<path d="M15.5223 16.39C15.8651 16.4213 16.2079 16.4526 16.6124 16.4895C16.6124 17.2465 16.6124 18.0032 16.6124 18.8784C17.6162 18.7929 18.5553 18.724 19.4919 18.63C20.5192 18.5269 20.6222 18.5867 20.4913 19.6254C20.2599 21.4605 19.1114 22.5531 17.4526 23.181C17.1328 23.302 16.7852 23.35 16.3831 23.4481C16.3077 24.5509 16.2304 25.6797 16.154 26.7977C11.0539 27.2194 4.97492 22.3939 5.50149 15.4971C5.78558 16.081 5.95431 16.7347 6.27733 17.3002C7.01407 18.59 8.10411 19.3727 9.6643 19.1945C11.8784 18.9417 13.9143 18.2912 15.3804 16.4111C15.4599 16.4087 15.4911 16.3994 15.5223 16.39ZM14.5213 19.5457C13.6841 19.625 12.8469 19.7042 12.0152 19.7829C12.0946 21.2986 13.4684 22.6152 15.1562 22.8706C16.9238 23.1381 18.8095 22.3209 19.3547 20.9122C18.6318 20.9122 17.9653 20.9122 17.2989 20.9122C17.3059 20.8163 17.313 20.7205 17.32 20.6246C17.8132 20.6246 18.3064 20.625 18.7997 20.6245C19.8934 20.6234 20.1009 20.3633 19.8975 19.145C18.1608 19.2749 16.4152 19.4054 14.5213 19.5457Z" fill="#F8B641"/>
<path d="M15.3321 16.4042C13.9143 18.2913 11.8784 18.9417 9.66431 19.1945C8.10412 19.3727 7.01408 18.5901 6.27733 17.3002C5.95432 16.7347 5.78558 16.0811 5.51256 15.4244C5.3931 14.5658 5.34053 13.7562 5.94355 12.9981C6.01798 12.9218 6.02857 12.8967 6.01409 12.8611C6.01409 12.8611 6.05507 12.8459 6.11753 12.8092C7.06205 12.3563 7.90529 11.753 8.83373 11.5604C11.223 11.0647 13.6501 10.7508 16.1268 10.3684C16.2665 10.336 16.3414 10.2995 16.4164 10.2631C18.0629 10.2019 19.7091 10.1093 21.356 10.0922C22.2457 10.0829 23.1368 10.2025 24.0515 10.4353C23.6838 10.5959 23.3161 10.7564 22.9034 10.9366C23.0325 11.0149 23.1209 11.0684 23.1624 11.1751C21.491 11.2198 19.8658 11.1853 18.2419 11.2172C17.6938 11.2279 17.1322 11.3543 16.6072 11.5227C16.0178 11.7118 15.7974 12.1715 15.9724 12.7894C16.405 14.3168 17.2878 15.462 18.8191 15.993C20.4506 16.5586 22.1267 16.7617 23.8531 16.4994C24.5028 16.4008 24.9671 16.1115 25.1469 15.4864C25.3588 14.7501 25.509 13.996 25.6859 13.2495C25.8205 13.5328 25.9551 13.8161 26.1305 14.1853C26.2496 13.9302 26.3382 13.7404 26.4571 13.4856C26.5109 13.5998 26.5616 13.6572 26.5612 13.7143C26.5531 14.9046 26.1541 15.9525 25.3381 16.8149C25.1113 17.0546 24.7868 17.294 24.4755 17.3466C22.3278 17.7094 20.1724 17.7815 18.153 16.8217C17.3161 16.4239 16.6017 15.7686 15.8372 15.2343C15.7608 15.4149 15.6375 15.7068 15.47 16.078C15.3946 16.2395 15.3633 16.3219 15.3321 16.4042ZM13.2784 16.8934C14.5247 15.993 15.2186 14.7968 15.1993 13.2374C15.1846 12.0483 14.7738 11.5834 13.5822 11.7203C11.9508 11.9076 10.3287 12.2168 8.72344 12.5688C8.14742 12.6951 7.6094 13.0612 7.09483 13.3831C6.55249 13.7223 6.26427 14.2398 6.52687 14.8859C6.84387 15.6658 7.16901 16.4501 7.58098 17.1816C7.96249 17.859 8.61947 18.1218 9.40957 18.0953C10.7716 18.0494 12.0289 17.6867 13.2784 16.8934Z" fill="#06BFAB"/>
<path d="M25.6779 13.1875C25.509 13.9959 25.3588 14.75 25.147 15.4864C24.9672 16.1114 24.5028 16.4007 23.8531 16.4994C22.1267 16.7616 20.4506 16.5586 18.8191 15.9929C17.2878 15.4619 16.405 14.3167 15.9724 12.7893C15.7974 12.1714 16.0178 11.7118 16.6072 11.5227C17.1322 11.3542 17.6938 11.2279 18.2419 11.2171C19.8658 11.1853 21.491 11.2197 23.1982 11.2161C23.4831 11.2573 23.6836 11.3201 23.8882 11.3626C24.8649 11.5653 25.5426 12.0662 25.6779 13.1875Z" fill="#000202"/>
<path d="M16.062 10.3642C13.6501 10.7507 11.223 11.0646 8.83374 11.5603C7.90529 11.753 7.06205 12.3563 6.12752 12.7897C6.33329 11.3958 7.12869 10.2612 8.04226 9.22717C10.28 6.69444 13.0924 5.44202 16.6196 5.56797C16.4405 7.12023 16.2688 8.60794 16.0867 10.1971C16.0764 10.2985 16.062 10.3642 16.062 10.3642Z" fill="#F7BB3D"/>
<path d="M30.8847 22.4219C30.8322 22.6089 30.7797 22.7959 30.6477 23.0252C29.6295 22.7863 28.6946 22.4911 27.7486 22.2371C27.5732 22.19 27.2046 22.2726 27.1834 22.3588C27.1335 22.5621 27.1617 22.8773 27.2948 23.0176C27.9881 23.7476 28.724 24.4371 29.4451 25.1407C29.2165 25.4943 28.9879 25.848 28.7102 26.2233C27.5757 25.1258 26.4903 24.0067 25.4815 22.9665C26.0218 21.7565 26.5036 20.6156 27.0514 19.5072C27.1522 19.3032 27.5184 19.1207 27.7652 19.1166C29.1175 19.0943 30.4708 19.1307 31.8969 19.1494C31.8837 19.4499 31.7974 19.7479 31.6095 20.0981C30.5252 20.1501 29.5417 20.1312 28.5601 20.1655C28.3591 20.1725 28.165 20.3787 27.9676 20.4931C28.0969 20.6878 28.1817 20.9592 28.3629 21.0642C29.1887 21.5423 30.0416 21.9737 30.8847 22.4219Z" fill="#FA9C4B"/>
<path d="M0.671128 20.2259C0.564857 19.9189 0.458586 19.612 0.349609 19.2426C1.75208 19.1835 3.15768 19.2076 4.5622 19.1788C5.04134 19.1689 5.25425 19.3237 5.40518 19.7807C5.64456 20.5054 5.98072 21.1982 6.24786 22.0156C5.92804 22.2708 5.6363 22.4148 5.3079 22.5154C5.11308 22.3692 4.91836 22.1471 4.80247 22.1826C3.77306 22.4975 2.7576 22.8581 1.73803 23.2052C1.63823 22.9909 1.53844 22.7765 1.50089 22.4915C2.35714 21.9985 3.16219 21.5949 3.93687 21.1395C4.11489 21.0349 4.18858 20.7528 4.31028 20.5523C4.10364 20.4368 3.89968 20.2278 3.68991 20.2218C2.68451 20.1931 1.67754 20.2192 0.671128 20.2259Z" fill="#FA9D4A"/>
<path d="M4.49738 5.15482C4.79924 4.79415 5.13235 4.47754 5.51963 4.1593C6.70648 5.20052 7.83915 6.24337 9.0364 7.3457C8.51089 7.84633 8.19387 8.14835 7.83546 8.48979C6.7068 7.36657 5.6177 6.28273 4.49738 5.15482Z" fill="#F7B24E"/>
<path d="M5.12475 27.7968C4.78615 27.5094 4.4734 27.1743 4.15305 26.784C5.23066 25.675 6.31589 24.6213 7.36987 23.5979C7.67451 23.8724 7.9989 24.1646 8.47273 24.5916C7.34117 25.6671 6.24589 26.7081 5.12475 27.7968Z" fill="#FB984E"/>
<path d="M27.0356 27.9549C26.7129 28.3132 26.3647 28.6234 25.9625 28.9335C24.7676 27.9098 23.6268 26.8863 22.3882 25.775C23.0063 25.2641 23.3401 24.9882 23.742 24.656C24.8496 25.7578 25.9298 26.8323 27.0356 27.9549Z" fill="#FB954C"/>
<path d="M5.34455 22.5589C5.63629 22.4148 5.92802 22.2708 6.24402 22.0736C6.49114 22.2696 6.71401 22.5187 7.10433 22.9549C5.94098 24.0466 4.82274 25.0959 3.6806 26.1941C3.41155 25.911 3.16642 25.5792 2.94788 25.1715C3.7645 24.2501 4.55452 23.4045 5.34455 22.5589Z" fill="#FA994B"/>
<path d="M2.44659 7.99835C2.57414 7.67264 2.74933 7.37301 2.97426 7.052C3.93809 7.95467 4.82139 8.91226 5.77777 9.79023C6.35489 10.32 6.40162 10.7634 5.75619 11.3872C4.67017 10.2676 3.5822 9.14602 2.44659 7.99835Z" fill="#F7AC49"/>
<path d="M6.10245 3.71043C6.30797 3.46725 6.54778 3.26572 6.84158 3.06555C8.06652 4.13569 9.23747 5.20447 10.4927 6.35021C9.98231 6.706 9.74881 6.86876 9.46635 7.06565C8.34603 5.95072 7.24138 4.8514 6.10245 3.71043Z" fill="#F7B652"/>
<path d="M6.42538 28.8843C6.1553 28.7239 5.9017 28.5141 5.63065 28.2598C6.64563 27.0769 7.67807 25.9385 8.71084 24.7997C9.18089 25.1533 9.38693 25.3082 9.68264 25.5307C8.57856 26.6563 7.51021 27.7455 6.42538 28.8843Z" fill="#FB9D59"/>
<path d="M28.1405 26.6867C28.0042 26.9766 27.8337 27.2246 27.6181 27.4904C26.4343 26.4684 25.2956 25.4286 24.1207 24.3558C24.5008 23.923 24.6828 23.7157 24.9075 23.4598C25.9996 24.5471 27.053 25.596 28.1405 26.6867Z" fill="#FBA05B"/>
<path d="M9.59763 1.52925C9.6699 1.45664 9.74335 1.44716 9.87108 1.42432C10.6879 2.77383 11.4504 4.13671 12.2449 5.55692C11.8543 5.73405 11.4398 5.92202 10.9311 6.1527C10.4728 4.58418 10.0358 3.08828 9.59763 1.52925Z" fill="#F6B64F"/>
<path d="M3.42841 6.51332C3.55222 6.2548 3.72754 6.01656 3.952 5.75623C4.94553 6.6605 5.89398 7.58276 6.83275 8.51479C7.38434 9.06242 7.37741 9.06941 6.59477 9.93116C5.55023 8.79182 4.51507 7.66271 3.42841 6.51332Z" fill="#F7AE49"/>
<path d="M1.03683 11.123C0.997546 10.9814 1.01571 10.8573 1.07995 10.7109C2.54407 11.1186 3.96223 11.5482 5.3796 11.9804C5.42757 11.995 5.46764 12.0356 5.54286 12.0845C5.45225 12.423 5.35887 12.7719 5.21738 13.1905C5.10357 13.2553 5.03786 13.2503 4.97216 13.2454C3.67953 12.5438 2.38691 11.8423 1.03683 11.123Z" fill="#F8AB4F"/>
<path d="M7.53542 2.75642C7.89779 2.44824 8.29132 2.18422 8.74215 1.90845C9.14632 2.85014 9.4932 3.80359 9.84008 4.75703C9.76702 4.80745 9.69397 4.85787 9.62091 4.90828C8.93613 4.20572 8.25136 3.50315 7.53542 2.75642Z" fill="#F6B852"/>
<path d="M10.6935 1.18926C11.1186 0.968382 11.5585 0.803627 12.0557 0.650269C12.113 1.60844 12.113 2.55521 12.113 3.50198C12.0607 3.53095 12.0084 3.55992 11.9561 3.58889C11.5401 2.80772 11.1242 2.02655 10.6935 1.18926Z" fill="#F6BD5A"/>
<path d="M1.44324 9.97696C1.57914 9.46934 1.75518 9.00681 1.97775 8.51831C2.68697 9.18707 3.34965 9.8818 4.01234 10.5765C3.9788 10.6389 3.94526 10.7014 3.91172 10.7638C3.10227 10.5165 2.29282 10.2693 1.44324 9.97696Z" fill="#F8B052"/>
<path d="M4.97369 13.2973C5.03787 13.2504 5.10358 13.2553 5.21775 13.2504C5.23528 13.333 5.20433 13.4254 5.17338 13.5179C5.10733 13.4616 5.04128 13.4054 4.97369 13.2973Z" fill="#FEFCFA"/>
<path d="M15.3804 16.4111C15.3633 16.3219 15.3946 16.2395 15.4633 16.1327C15.5062 16.1709 15.5119 16.2337 15.5199 16.3432C15.4911 16.3994 15.4599 16.4087 15.3804 16.4111Z" fill="#FEFCFA"/>
<path d="M22.4852 4.72792C22.4938 4.72279 22.4765 4.73305 22.4852 4.72792Z" fill="#FFFDF9"/>
<path d="M16.1268 10.3684C16.062 10.3643 16.0764 10.2985 16.0919 10.2689C16.1589 10.2426 16.2104 10.246 16.3391 10.2562C16.3414 10.2995 16.2665 10.336 16.1268 10.3684Z" fill="#FEFCFA"/>
<path d="M5.99202 12.8625C6.02859 12.8967 6.018 12.9218 5.95973 12.9403C5.93544 12.9123 5.94637 12.8856 5.99202 12.8625Z" fill="#FEFCFA"/>
<path d="M29.4963 25.119C28.724 24.4372 27.9881 23.7477 27.2948 23.0177C27.1617 22.8774 27.1335 22.5622 27.1834 22.3589C27.2046 22.2727 27.5732 22.1901 27.7486 22.2372C28.6946 22.4912 29.6295 22.7864 30.6291 23.083C30.5943 23.2706 30.4987 23.4427 30.3289 23.6573C29.7569 23.5697 29.259 23.4395 28.56 23.2567C29.0798 23.8258 29.4464 24.2272 29.813 24.6285C29.7245 24.7847 29.636 24.9409 29.4963 25.119Z" fill="#FFFBF8"/>
<path d="M30.9368 22.3985C30.0416 21.9737 29.1887 21.5424 28.3629 21.0642C28.1817 20.9593 28.0969 20.6879 27.9677 20.4932C28.165 20.3788 28.3591 20.1725 28.5601 20.1655C29.5417 20.1312 30.5252 20.1501 31.5812 20.1509C31.6127 20.3391 31.5711 20.5265 31.442 20.7713C30.8184 20.8288 30.2823 20.8288 29.7463 20.8288C29.729 20.8827 29.7118 20.9366 29.6946 20.9904C30.1879 21.2472 30.6811 21.5039 31.1743 21.7607C31.1125 21.9655 31.0507 22.1703 30.9368 22.3985Z" fill="#FFFDFB"/>
<path d="M22.4672 30.8868C22.137 30.037 21.845 29.187 21.6035 28.3229C21.5577 28.1589 21.6646 27.8239 21.7861 27.7736C21.9422 27.7091 22.2433 27.7896 22.3793 27.9171C23.0368 28.5331 23.6599 29.186 24.321 29.8735C24.2157 30.0281 24.0845 30.1351 23.8491 30.2301C23.4438 29.9545 23.1427 29.691 22.6585 29.2672C22.8197 29.9053 22.9191 30.2992 23.0186 30.6931C22.8534 30.756 22.6881 30.8189 22.4672 30.8868Z" fill="#FFFBF8"/>
<path d="M19.5811 31.8265C19.5202 30.9368 19.5433 30.0589 19.5098 29.1831C19.4908 28.687 19.7029 28.5132 20.2226 28.5321C20.6692 29.3682 21.1298 30.2304 21.6089 31.1467C21.4438 31.2966 21.2602 31.3925 21.0106 31.4369C20.7396 31.0361 20.5344 30.6869 20.3292 30.3376C20.2862 30.3627 20.2432 30.3877 20.2001 30.4128C20.2001 30.8279 20.2001 31.243 20.2001 31.6581C20.0139 31.7184 19.8277 31.7788 19.5811 31.8265Z" fill="#FFFBF8"/>
<path d="M31.198 21.7079C30.6811 21.504 30.1879 21.2472 29.6946 20.9905C29.7118 20.9366 29.729 20.8827 29.7462 20.8289C30.2823 20.8289 30.8184 20.8289 31.4259 20.8306C31.4054 21.1066 31.3136 21.3808 31.198 21.7079Z" fill="#FAA860"/>
<path d="M29.8583 24.6054C29.4464 24.2272 29.0798 23.8258 28.56 23.2567C29.259 23.4395 29.7569 23.5697 30.3162 23.7076C30.2196 24.0043 30.0616 24.2933 29.8583 24.6054Z" fill="#FBA45D"/>
<path d="M20.256 31.6691C20.2001 31.2429 20.2001 30.8278 20.2001 30.4127C20.2432 30.3877 20.2862 30.3626 20.3292 30.3375C20.5344 30.6868 20.7396 31.0361 20.9548 31.4394C20.7472 31.5557 20.5295 31.6179 20.256 31.6691Z" fill="#FCA269"/>
<path d="M23.074 30.6935C22.9191 30.2993 22.8197 29.9053 22.6585 29.2672C23.1427 29.691 23.4438 29.9545 23.7958 30.2393C23.6075 30.405 23.3684 30.5495 23.074 30.6935Z" fill="#FC9A5B"/>
<path d="M0.658966 20.28C1.67753 20.2193 2.6845 20.1931 3.6899 20.2219C3.89967 20.2279 4.10363 20.4369 4.31027 20.5524C4.18857 20.7528 4.11488 21.035 3.93686 21.1396C3.16218 21.5949 2.35713 21.9986 1.50779 22.4378C1.34341 22.2677 1.23435 22.0807 1.19151 21.826C1.66171 21.5422 2.06568 21.3262 2.46966 21.1101C2.45706 21.0601 2.44446 21.0102 2.43186 20.9602C1.89666 20.9602 1.36145 20.9602 0.826244 20.9602C0.766435 20.7515 0.706625 20.5428 0.658966 20.28Z" fill="#FFF7F0"/>
<path d="M5.30789 22.5155C4.55452 23.4045 3.7645 24.2501 2.92698 25.122C2.77872 25.0133 2.67796 24.8783 2.57879 24.6432C2.89522 24.1892 3.21008 23.8353 3.52493 23.4815C3.48329 23.4219 3.44164 23.3623 3.4 23.3027C2.95387 23.4834 2.50775 23.664 2.06162 23.8447C1.96032 23.668 1.85902 23.4913 1.74786 23.2599C2.75759 22.8581 3.77305 22.4976 4.80245 22.1826C4.91835 22.1471 5.11307 22.3693 5.30789 22.5155Z" fill="#FFFBF8"/>
<path d="M8.15823 30.1347C8.94941 29.3341 9.76083 28.5834 10.6393 27.7708C10.9621 27.843 11.1198 28.0735 10.9311 28.5825C10.6388 29.3707 10.42 30.1862 10.1212 31.0242C9.82421 30.9892 9.57602 30.9199 9.36244 30.782C9.54634 30.3799 9.69562 30.0464 9.84489 29.7129C9.78548 29.6771 9.72606 29.6413 9.66665 29.6056C9.32181 29.8783 8.97697 30.1509 8.63213 30.4236C8.48091 30.344 8.32969 30.2644 8.15823 30.1347Z" fill="#FFFBF9"/>
<path d="M10.5819 31.2754C10.9796 30.5348 11.3774 29.8312 11.8312 29.1658C11.9782 28.9502 12.2719 28.8347 12.4985 28.6735C12.5988 28.9134 12.7739 29.1497 12.7855 29.3938C12.8218 30.1581 12.7964 30.9253 12.7857 31.7657C12.5771 31.8206 12.3777 31.8011 12.152 31.6607C12.1256 31.1641 12.1256 30.7882 12.1256 30.4123C12.0644 30.3985 12.0032 30.3848 11.942 30.371C11.7787 30.7426 11.6155 31.1141 11.4523 31.4856C11.1695 31.4328 10.8866 31.38 10.5819 31.2754Z" fill="#FFFCFA"/>
<path d="M2.07141 23.8991C2.50774 23.664 2.95387 23.4834 3.4 23.3027C3.44164 23.3623 3.48329 23.4219 3.52493 23.4815C3.21008 23.8353 2.89522 24.1892 2.55878 24.5935C2.38519 24.4138 2.2332 24.1836 2.07141 23.8991Z" fill="#FBA057"/>
<path d="M0.832245 21.0164C1.36147 20.9601 1.89667 20.9601 2.43188 20.9601C2.44448 21.0101 2.45708 21.0601 2.46968 21.1101C2.0657 21.3261 1.66172 21.5421 1.2026 21.7702C1.04437 21.5457 0.941301 21.3092 0.832245 21.0164Z" fill="#FAA051"/>
<path d="M8.6566 30.4722C8.97698 30.1509 9.32182 29.8782 9.66665 29.6055C9.72607 29.6413 9.78548 29.677 9.8449 29.7128C9.69562 30.0463 9.54634 30.3798 9.33981 30.7296C9.08206 30.6708 8.88156 30.5958 8.6566 30.4722Z" fill="#FC9C5C"/>
<path d="M11.4877 31.5381C11.6155 31.1141 11.7787 30.7426 11.942 30.3711C12.0032 30.3848 12.0644 30.3986 12.1256 30.4123C12.1256 30.7882 12.1256 31.1641 12.1216 31.6074C11.9194 31.6468 11.7213 31.6187 11.4877 31.5381Z" fill="#FDA56E"/>
<path d="M14.5955 19.5409C16.4152 19.4054 18.1608 19.2749 19.8975 19.145C20.1009 20.3633 19.8934 20.6234 18.7997 20.6245C18.3064 20.625 17.8132 20.6246 17.32 20.6246C17.313 20.7205 17.3059 20.8164 17.2989 20.9123C17.9653 20.9123 18.6318 20.9123 19.3547 20.9123C18.8095 22.3209 16.9238 23.1382 15.1562 22.8706C13.4684 22.6152 12.0946 21.2987 12.0152 19.7829C12.8469 19.7042 13.6841 19.625 14.5955 19.5409Z" fill="#FFFCFA"/>
<path d="M13.2291 16.9249C12.0289 17.6867 10.7716 18.0494 9.40957 18.0952C8.61947 18.1218 7.9625 17.859 7.58098 17.1815C7.16901 16.45 6.84388 15.6658 6.52687 14.8858C6.26427 14.2398 6.55249 13.7222 7.09484 13.383C7.6094 13.0611 8.14742 12.695 8.72345 12.5687C10.3287 12.2168 11.9508 11.9076 13.5822 11.7202C14.7738 11.5833 15.1846 12.0482 15.1993 13.2373C15.2186 14.7967 14.5247 15.993 13.2291 16.9249Z" fill="#000202"/>
</g>
<defs>
<clipPath id="clip0_4416_467">
<rect width="32" height="32" rx="16" fill="white"/>
</clipPath>
</defs>
</svg>
