<svg width="32" height="32" viewBox="0 0 32 32" fill="none" xmlns="http://www.w3.org/2000/svg">
<g clip-path="url(#clip0_4410_366)">
<path d="M31.4624 20.0064L25.3056 29.0944L25.2544 29.056C23.04 32.0256 15.8976 30.7968 9.15202 26.0224C2.44482 21.2864 -1.42078 15.2576 0.499215 12.0064L0.448015 11.968L6.60482 3.02084C8.74242 -0.0511636 15.9616 1.13924 22.7712 5.96484C29.7216 10.5088 33.472 16.9216 31.4624 20.0064Z" fill="url(#paint0_linear_4410_366)"/>
<path fill-rule="evenodd" clip-rule="evenodd" d="M30.528 19.4816C28.6464 22.1568 22.1056 20.8128 15.8208 16.4096C9.40803 11.9936 5.65763 6.38722 7.52643 3.71202C9.39523 1.03682 15.9488 2.38082 22.2336 6.78402C28.5056 11.2 32.256 16.8064 30.528 19.4816ZM24.64 15.4624C23.7056 16.7936 20.4928 16.1408 17.28 13.9904C14.208 11.8528 12.3392 9.04962 13.2736 7.71842C14.208 6.38722 17.4208 7.04002 20.6336 9.19042C23.7056 11.328 25.5744 14.1312 24.64 15.4624Z" fill="white"/>
</g>
<defs>
<linearGradient id="paint0_linear_4410_366" x1="12.7533" y1="7.78837" x2="19.2813" y2="24.198" gradientUnits="userSpaceOnUse">
<stop stop-color="#29AFE5"/>
<stop offset="0.3608" stop-color="#9181C3"/>
<stop offset="1" stop-color="#FA52A0"/>
</linearGradient>
<clipPath id="clip0_4410_366">
<rect width="32" height="32" fill="white"/>
</clipPath>
</defs>
</svg>
