<svg width="32" height="32" viewBox="0 0 32 32" fill="none" xmlns="http://www.w3.org/2000/svg">
<g clip-path="url(#clip0_4401_259)">
<rect width="32" height="32" rx="16" fill="white"/>
<path d="M15.7762 0.0395411C15.7341 0.048763 14.8425 0.0843332 14.7385 0.0803809C14.7161 0.0790635 14.6858 0.0843332 14.6727 0.0909202C14.6608 0.0975073 14.5528 0.109364 14.433 0.118586C14.3131 0.127808 14.1894 0.139665 14.1564 0.146252C14.1235 0.154156 14.0168 0.16733 13.9194 0.17787C13.822 0.188409 13.7061 0.2029 13.6626 0.210805C13.5362 0.233201 13.3426 0.263502 13.2096 0.283263C13.1424 0.292485 13.0713 0.306976 13.0516 0.314881C13.0331 0.322785 12.9686 0.334642 12.908 0.341229C12.8488 0.349133 12.7895 0.36099 12.7764 0.367577C12.7645 0.374164 12.6987 0.388656 12.6315 0.400513C12.5643 0.411052 12.4998 0.425544 12.4866 0.432131C12.4748 0.438718 12.43 0.44794 12.3866 0.453209C12.3444 0.457161 12.297 0.469018 12.2812 0.476923C12.2667 0.484827 12.2127 0.499319 12.1614 0.508541C12.1113 0.517763 12.0165 0.540159 11.9507 0.55992C11.8861 0.578364 11.7913 0.602077 11.7413 0.612616C11.6926 0.623156 11.6452 0.637647 11.6359 0.644234C11.628 0.650821 11.5872 0.662678 11.5451 0.6719C11.5029 0.679805 11.4529 0.695614 11.4331 0.706153C11.4134 0.716692 11.3831 0.724597 11.3647 0.724597C11.3462 0.724597 11.3094 0.736453 11.2817 0.750945C11.2554 0.765436 11.2172 0.777293 11.1974 0.777293C11.1764 0.777293 11.1342 0.790467 11.1026 0.804959C11.0697 0.81945 11.0223 0.836577 10.9973 0.843164C10.9196 0.862925 10.8221 0.895861 10.7642 0.923526C10.7339 0.9367 10.6983 0.948557 10.6852 0.948557C10.6707 0.948557 10.6483 0.956462 10.6338 0.965684C10.6193 0.976223 10.5785 0.990714 10.5443 0.999936C10.5087 1.00784 10.4666 1.02365 10.4521 1.03419C10.4363 1.04341 10.4007 1.05659 10.3744 1.06054C10.3467 1.06581 10.3191 1.07766 10.3099 1.0882C10.302 1.09874 10.2848 1.10665 10.273 1.10665C10.2519 1.10665 10.1097 1.15934 10.0438 1.1936C10.0228 1.20414 9.99907 1.21204 9.99117 1.21204C9.98195 1.21204 9.9543 1.22258 9.92928 1.23707C9.90426 1.25025 9.84105 1.27659 9.79101 1.29635C9.73965 1.31612 9.67512 1.34246 9.64615 1.35696C9.61718 1.37013 9.58031 1.38462 9.5645 1.38857C9.55002 1.39384 9.52895 1.4057 9.52105 1.41624C9.51183 1.42678 9.49603 1.436 9.48417 1.436C9.47364 1.436 9.42755 1.45313 9.38409 1.47421C9.33932 1.49397 9.28006 1.52163 9.25109 1.53349C9.22212 1.54535 9.1892 1.56115 9.17866 1.56906C9.16813 1.57565 9.14442 1.5875 9.12599 1.59673C9.06278 1.62571 8.82969 1.74032 8.80994 1.75086C8.7994 1.75745 8.7757 1.76931 8.75726 1.77721C8.73882 1.78512 8.71512 1.79697 8.70459 1.80488C8.69405 1.81146 8.67035 1.82332 8.65191 1.83122C8.63348 1.83781 8.60977 1.84967 8.59924 1.85626C8.56631 1.87733 8.33586 2.00381 8.23051 2.05914C8.17652 2.0868 8.12253 2.11842 8.11068 2.12896C8.10014 2.1395 8.08039 2.1474 8.06985 2.1474C8.058 2.1474 8.04088 2.15663 8.03166 2.1698C8.02113 2.18166 7.99611 2.19878 7.97372 2.20932C7.95265 2.21986 7.91051 2.24226 7.88154 2.25938C7.85257 2.27783 7.81438 2.29891 7.79594 2.30813C7.77751 2.31735 7.7459 2.33579 7.72352 2.3516C7.66294 2.39244 7.63397 2.40957 7.605 2.42274C7.5892 2.42933 7.56944 2.44382 7.56022 2.45568C7.55101 2.46754 7.5352 2.47676 7.52599 2.47676C7.51545 2.47676 7.49043 2.49125 7.46936 2.50969C7.44697 2.52814 7.42722 2.54263 7.42327 2.54263C7.41537 2.54263 7.24813 2.65197 7.22179 2.67305C7.2152 2.67832 7.19413 2.6915 7.1757 2.70072C7.15858 2.70994 7.14146 2.7218 7.13751 2.72575C7.12829 2.73629 6.99134 2.82983 6.90969 2.87989C6.84648 2.91941 6.83331 2.92863 6.74903 2.99714C6.72796 3.01558 6.70557 3.03007 6.70031 3.03007C6.69636 3.03007 6.64368 3.06696 6.58574 3.11175C6.52648 3.15786 6.43957 3.22373 6.38952 3.26062C6.3408 3.29619 6.29339 3.33176 6.28417 3.33966C6.27364 3.34625 6.25125 3.36601 6.23413 3.38182C6.2157 3.39895 6.19858 3.41212 6.19463 3.41212C6.18936 3.41212 6.14064 3.45033 6.08401 3.49775C6.02738 3.54518 5.97734 3.58339 5.97339 3.58339C5.96944 3.58339 5.95496 3.59393 5.94179 3.60578C5.9115 3.63608 5.80088 3.73094 5.74031 3.77705C5.71529 3.79681 5.68368 3.82316 5.67315 3.8337C5.66129 3.84423 5.63627 3.86531 5.61652 3.8798C5.59808 3.8943 5.57306 3.91537 5.55989 3.92723C5.53224 3.95358 5.38738 4.08269 5.30047 4.1591C5.14245 4.30006 4.96862 4.46605 4.69471 4.74271C4.26541 5.17746 4.24039 5.20249 4.24039 5.21435C4.24039 5.22093 4.22722 5.23674 4.21273 5.25123C4.19693 5.26441 4.12187 5.3474 4.04549 5.43435C3.9678 5.5213 3.88878 5.60957 3.86771 5.63065C3.84664 5.65173 3.8045 5.70311 3.77553 5.74263C3.74524 5.78347 3.71627 5.81904 3.71232 5.82299C3.70706 5.82694 3.67413 5.86515 3.63858 5.90862C3.60434 5.95342 3.56747 5.99689 3.55957 6.00743C3.48977 6.08911 3.37389 6.24193 3.3673 6.26037C3.36203 6.27355 3.35413 6.28409 3.34887 6.28409C3.3436 6.28409 3.30541 6.32888 3.2659 6.38421C3.2264 6.43954 3.1645 6.52122 3.12763 6.56733C3.09208 6.61344 3.04994 6.67404 3.03545 6.70171C3.02096 6.72805 2.99463 6.76626 2.97751 6.7847C2.96039 6.80315 2.92615 6.85057 2.89981 6.8901C2.87479 6.92962 2.84714 6.96782 2.83792 6.97573C2.83002 6.98232 2.80368 7.02316 2.77998 7.064C2.75627 7.10615 2.73257 7.14041 2.72599 7.14041C2.72072 7.14041 2.70887 7.15753 2.69965 7.17993C2.69043 7.20101 2.67989 7.21945 2.67463 7.21945C2.66936 7.21945 2.65882 7.23526 2.65092 7.25502C2.64171 7.2761 2.61405 7.31826 2.58903 7.35119C2.56401 7.38413 2.54294 7.42101 2.54294 7.43287C2.54162 7.44473 2.53109 7.46317 2.51924 7.47239C2.50607 7.48162 2.48631 7.50533 2.47578 7.52509C2.42047 7.62521 2.36516 7.71612 2.34936 7.73324C2.34014 7.7451 2.3138 7.78989 2.2901 7.83205C2.26771 7.87552 2.24138 7.92032 2.23348 7.93085C2.22426 7.94139 2.20977 7.96511 2.20055 7.98355C2.19265 8.00199 2.17027 8.0402 2.15315 8.06918C2.13471 8.09817 2.11101 8.13901 2.10047 8.1614C2.08994 8.18248 2.06623 8.22464 2.0478 8.25362C2.03068 8.2826 2.00566 8.32871 1.9938 8.35506C1.98195 8.38273 1.96747 8.40512 1.96088 8.40512C1.9543 8.40512 1.94903 8.41039 1.94903 8.41698C1.94903 8.43542 1.92796 8.48022 1.8845 8.55663C1.86343 8.5922 1.82788 8.6607 1.80417 8.70813C1.78047 8.75556 1.75677 8.80298 1.75018 8.81352C1.71331 8.87808 1.60664 9.10204 1.60006 9.13234C1.59479 9.1521 1.58294 9.17449 1.57241 9.18372C1.56187 9.19162 1.55397 9.20479 1.55397 9.21138C1.55397 9.21929 1.52763 9.27989 1.49471 9.34839C1.46179 9.41558 1.43545 9.47882 1.43545 9.48936C1.43545 9.4999 1.42623 9.5157 1.4157 9.52493C1.40516 9.53415 1.39594 9.54864 1.39594 9.55654C1.39594 9.56577 1.38409 9.59475 1.36961 9.62373C1.35512 9.65272 1.34327 9.6817 1.34327 9.68829C1.34327 9.69619 1.32878 9.73176 1.31166 9.76865C1.29455 9.80422 1.26689 9.86745 1.25109 9.90698C1.23397 9.9465 1.21027 10.0031 1.1971 10.0321C1.18393 10.0611 1.16944 10.1046 1.16417 10.1283C1.15891 10.1507 1.14837 10.177 1.13784 10.185C1.12862 10.1929 1.11677 10.2205 1.1115 10.2482C1.10623 10.2745 1.09438 10.3101 1.08516 10.3285C1.06409 10.3668 1.0338 10.4524 1.00878 10.5407C0.998249 10.5749 0.982446 10.6197 0.971911 10.6395C0.949524 10.6816 0.915286 10.7778 0.888948 10.8687C0.87973 10.9016 0.862611 10.9451 0.850759 10.9675C0.838907 10.9886 0.829689 11.0228 0.829689 11.0439C0.829689 11.0637 0.817837 11.1019 0.803352 11.1282C0.788866 11.1559 0.777014 11.1928 0.777014 11.2112C0.777014 11.2297 0.769113 11.26 0.758578 11.2784C0.74936 11.2968 0.737508 11.3351 0.732241 11.364C0.726973 11.3917 0.713804 11.4325 0.704586 11.4549C0.694051 11.476 0.676932 11.53 0.666397 11.5735C0.655862 11.617 0.633475 11.6973 0.617673 11.7514C0.603187 11.8054 0.5808 11.8857 0.570265 11.9292C0.55973 11.9727 0.539977 12.0491 0.525492 12.1005C0.512323 12.1505 0.500471 12.2059 0.500471 12.223C0.500471 12.2401 0.49257 12.2691 0.482035 12.2889C0.472817 12.3086 0.459648 12.36 0.45438 12.4035C0.449113 12.447 0.437261 12.497 0.428043 12.5155C0.418825 12.5339 0.406973 12.5866 0.401706 12.634C0.396438 12.6815 0.384586 12.7434 0.374051 12.7724C0.364833 12.8013 0.350348 12.8777 0.341129 12.9436C0.331911 13.0082 0.320059 13.0688 0.313475 13.0767C0.308208 13.0846 0.293722 13.1584 0.283187 13.2387C0.272652 13.3204 0.2608 13.3929 0.255533 13.3994C0.251582 13.406 0.23973 13.4785 0.230512 13.5602C0.219977 13.6418 0.205492 13.7407 0.19759 13.7802C0.189689 13.8197 0.177837 13.9172 0.171253 13.9975C0.164669 14.0766 0.152817 14.1741 0.146232 14.2136C0.138331 14.2531 0.126479 14.377 0.118578 14.4903C0.111994 14.6036 0.100142 14.7287 0.0922405 14.7682C0.0751212 14.8684 0.0527344 15.5679 0.0527344 16.0277C0.0527344 16.4822 0.0724875 17.0223 0.0988249 17.2779C0.10936 17.3794 0.121212 17.5269 0.126479 17.6073C0.13043 17.6863 0.142282 17.7878 0.1515 17.8312C0.160718 17.8747 0.17257 17.9814 0.177837 18.0684C0.183105 18.1553 0.192323 18.237 0.200224 18.2502C0.206808 18.2633 0.21866 18.3318 0.225245 18.4017C0.233146 18.4715 0.246315 18.5624 0.25685 18.6019C0.267385 18.6428 0.28187 18.7218 0.288455 18.7798C0.295039 18.8377 0.306891 18.901 0.313475 18.9207C0.321376 18.9405 0.334545 19.009 0.342446 19.0722C0.350348 19.1355 0.36615 19.2119 0.375368 19.2409C0.385903 19.2698 0.397755 19.3278 0.401706 19.37C0.406973 19.4121 0.417508 19.4661 0.426726 19.4885C0.437261 19.5122 0.447796 19.5649 0.453064 19.6071C0.457014 19.6493 0.468866 19.7006 0.479401 19.7191C0.488619 19.7388 0.500471 19.7876 0.505738 19.8271C0.511006 19.8666 0.522858 19.9167 0.533393 19.9391C0.542611 19.9602 0.557097 20.0168 0.566315 20.0642C0.575533 20.1117 0.586068 20.1551 0.592652 20.163C0.59792 20.1696 0.609771 20.2144 0.61899 20.2619C0.626891 20.3093 0.638743 20.3501 0.64401 20.3541C0.649278 20.358 0.666397 20.4081 0.680883 20.4661C0.725656 20.6386 0.740142 20.6874 0.757261 20.7295C0.766479 20.7506 0.778331 20.7954 0.782282 20.8283C0.787549 20.86 0.799401 20.8955 0.808619 20.9074C0.817837 20.9179 0.829689 20.9535 0.834957 20.9864C0.840224 21.0194 0.852076 21.0576 0.862611 21.0734C0.871829 21.0892 0.884998 21.1248 0.888948 21.1524C0.894216 21.1801 0.910018 21.2222 0.923187 21.2446C0.937673 21.267 0.948208 21.2973 0.948208 21.3118C0.948208 21.325 0.960059 21.3593 0.974545 21.3882C0.989031 21.4172 1.00088 21.4502 1.00088 21.4633C1.00088 21.4765 1.0101 21.5015 1.02064 21.5174C1.04039 21.549 1.08648 21.6715 1.10623 21.7479C1.1115 21.7716 1.12599 21.8045 1.13652 21.8204C1.14706 21.8362 1.15891 21.8678 1.16417 21.8915C1.16944 21.9139 1.18524 21.9547 1.19973 21.9824C1.2129 22.0101 1.22475 22.0404 1.22475 22.0509C1.22475 22.0614 1.2366 22.0838 1.25109 22.1023C1.26557 22.1207 1.27743 22.1458 1.27743 22.1576C1.27743 22.1695 1.28928 22.2011 1.30376 22.2288C1.31825 22.2551 1.3301 22.2867 1.3301 22.2986C1.3301 22.3104 1.34195 22.3341 1.35644 22.3526C1.37092 22.371 1.38278 22.3947 1.38278 22.4053C1.38278 22.4237 1.43808 22.5555 1.4631 22.5937C1.46969 22.6042 1.48154 22.6279 1.48944 22.6464C1.49734 22.6648 1.51578 22.703 1.52895 22.7333C1.54343 22.7636 1.55397 22.7926 1.55397 22.7992C1.55397 22.8058 1.56582 22.8255 1.58031 22.844C1.59479 22.8624 1.60664 22.8848 1.60664 22.894C1.60664 22.9085 1.68434 23.0732 1.74623 23.1931C1.75413 23.2076 1.77652 23.2524 1.79759 23.2919C1.81734 23.3314 1.84105 23.3736 1.85027 23.3841C1.85948 23.3947 1.87397 23.4263 1.88187 23.4526C1.89109 23.479 1.90689 23.508 1.91743 23.5159C1.92664 23.5251 1.93586 23.5409 1.93586 23.5514C1.93586 23.562 1.95035 23.5896 1.96878 23.6134C1.98722 23.6371 2.00171 23.6661 2.00171 23.6779C2.00171 23.6911 2.00697 23.7003 2.01356 23.7003C2.02014 23.7003 2.03463 23.7227 2.0478 23.7491C2.08994 23.8439 2.12022 23.8979 2.13339 23.8979C2.14129 23.8979 2.14656 23.9098 2.14656 23.9229C2.14656 23.9374 2.16105 23.9664 2.17948 23.9875C2.19792 24.0099 2.21241 24.0336 2.21241 24.0415C2.21241 24.0507 2.22426 24.0745 2.23874 24.0955C2.25323 24.1179 2.27693 24.1522 2.29142 24.1746C2.3059 24.1957 2.31775 24.2207 2.31775 24.2312C2.31775 24.2418 2.33092 24.2602 2.34541 24.2747C2.36121 24.2879 2.37833 24.3116 2.38492 24.3261C2.3915 24.3406 2.41125 24.3761 2.42969 24.4051C2.44681 24.4341 2.4692 24.4723 2.47841 24.4908C2.48763 24.5092 2.50212 24.529 2.51134 24.5342C2.52055 24.5395 2.53767 24.5632 2.54821 24.5869C2.56928 24.6317 2.5864 24.6594 2.65619 24.7595C2.67989 24.7938 2.69965 24.8267 2.69965 24.832C2.69965 24.8372 2.7115 24.853 2.72599 24.8662C2.74047 24.8794 2.75496 24.9018 2.76022 24.9176C2.76549 24.9321 2.78788 24.969 2.81158 24.998C2.83529 25.0269 2.87479 25.0836 2.90113 25.1231C2.92747 25.1626 2.96961 25.2246 2.99463 25.2614C3.02096 25.297 3.04862 25.3392 3.05784 25.3523C3.06706 25.3668 3.09471 25.3985 3.1171 25.4248C3.1408 25.4498 3.16055 25.4762 3.16055 25.4828C3.16055 25.488 3.16714 25.4999 3.17372 25.5091C3.20664 25.5473 3.31331 25.6896 3.33175 25.716C3.34228 25.7331 3.36467 25.7621 3.38047 25.7805C3.39627 25.7989 3.46212 25.8793 3.52533 25.9597C3.58854 26.0387 3.64648 26.1099 3.65438 26.1178C3.66228 26.1243 3.68467 26.152 3.7031 26.177C3.72286 26.2021 3.76105 26.2495 3.79134 26.2824C3.82031 26.3154 3.84533 26.3457 3.84533 26.3496C3.84533 26.3536 3.87035 26.3839 3.90195 26.4168C4.00072 26.5248 4.13504 26.675 4.13504 26.6803C4.13504 26.6948 4.32599 26.8937 4.71446 27.2824C5.08714 27.6552 5.20171 27.7658 5.35183 27.8963C5.36895 27.9108 5.42031 27.9556 5.4664 27.9964C5.51249 28.0372 5.57438 28.0899 5.60335 28.115C5.63232 28.14 5.65866 28.1637 5.66261 28.169C5.67973 28.1914 6.28022 28.6709 6.3566 28.7236C6.39479 28.7486 6.4343 28.7776 6.44483 28.7882C6.45537 28.7974 6.47775 28.8158 6.49487 28.8277C6.51199 28.8409 6.5594 28.8777 6.60022 28.9107C6.64236 28.9436 6.67924 28.97 6.68187 28.97C6.68845 28.97 6.75825 29.0174 6.87413 29.103C6.91364 29.132 6.96763 29.1702 6.99529 29.1873C7.02162 29.2045 7.04664 29.2255 7.05191 29.2334C7.05586 29.24 7.06903 29.2466 7.07957 29.2466C7.0901 29.2466 7.12697 29.269 7.16253 29.2954C7.22179 29.3415 7.26656 29.3718 7.34426 29.4153C7.36138 29.4245 7.37455 29.4376 7.37455 29.4456C7.37455 29.4521 7.3864 29.4574 7.39957 29.4574C7.41405 29.4574 7.42854 29.4627 7.4338 29.4693C7.44171 29.4838 7.55627 29.5628 7.56813 29.5628C7.57208 29.5628 7.59446 29.576 7.61685 29.5918C7.63924 29.6089 7.68006 29.6326 7.7064 29.6471C7.73273 29.6603 7.76697 29.6827 7.78146 29.6959C7.79463 29.709 7.82228 29.7235 7.84072 29.7288C7.85915 29.7327 7.88154 29.7459 7.88944 29.7565C7.89866 29.767 7.92368 29.7828 7.94607 29.7933C7.96845 29.8039 8.01059 29.8276 8.03957 29.8447C8.06854 29.8632 8.11331 29.8869 8.13833 29.8987C8.16335 29.9106 8.18706 29.9238 8.19101 29.929C8.19496 29.9343 8.21866 29.9488 8.24368 29.962C8.2687 29.9738 8.32006 30.0015 8.35562 30.0213C8.39249 30.041 8.44516 30.07 8.47413 30.0871C8.5031 30.1029 8.54129 30.1214 8.55973 30.1293C8.57817 30.1372 8.61636 30.1583 8.64533 30.1754C8.6743 30.1938 8.71249 30.2136 8.73092 30.2215C8.74936 30.2281 8.77306 30.2413 8.7836 30.2479C8.79413 30.2558 8.81784 30.2676 8.83627 30.2755C8.85471 30.2821 8.94952 30.3282 9.04697 30.3756C9.14442 30.4231 9.25109 30.4731 9.28401 30.4889C9.31693 30.5034 9.35249 30.5206 9.36302 30.5271C9.38409 30.5377 9.41965 30.5548 9.48813 30.5825C9.51051 30.5917 9.56055 30.6154 9.60138 30.6339C9.6422 30.6536 9.68039 30.6694 9.68566 30.6694C9.69487 30.6694 9.78706 30.7103 9.8766 30.7551C9.89504 30.7643 9.93059 30.7761 9.95562 30.7814C9.98064 30.7867 10.0109 30.7985 10.0215 30.8078C10.032 30.817 10.0662 30.8315 10.0965 30.8394C10.1268 30.8486 10.1558 30.8605 10.1597 30.867C10.1637 30.8749 10.1782 30.8802 10.19 30.8802C10.2032 30.8802 10.2348 30.8921 10.2624 30.9052C10.2888 30.9184 10.327 30.9342 10.3467 30.9395C10.3678 30.9435 10.402 30.9566 10.4231 30.9658C10.4455 30.9764 10.5192 31.0027 10.5877 31.0264C10.6562 31.0488 10.7273 31.0752 10.7457 31.0844C10.7642 31.0936 10.8024 31.1055 10.83 31.1094C10.8577 31.1147 10.8932 31.1266 10.909 31.1371C10.9248 31.1463 10.9564 31.1569 10.9801 31.1621C11.0052 31.1661 11.0434 31.178 11.0657 31.1872C11.0894 31.1977 11.1619 31.2214 11.2264 31.2412C11.2922 31.2609 11.3634 31.2833 11.3844 31.2899C11.4068 31.2978 11.4595 31.3123 11.5029 31.3229C11.5464 31.3334 11.5938 31.3479 11.6083 31.3545C11.6359 31.3663 11.736 31.3953 11.8717 31.4283C11.9151 31.4388 11.9691 31.4546 11.9902 31.4612C12.0126 31.4691 12.0718 31.4836 12.1219 31.4941C12.1732 31.5034 12.2378 31.5205 12.2667 31.531C12.2957 31.5416 12.3392 31.5508 12.3615 31.5521C12.3852 31.5521 12.4274 31.56 12.4537 31.5705C12.4814 31.5811 12.5459 31.5969 12.5959 31.6048C12.6473 31.6127 12.7066 31.6246 12.7289 31.6325C12.7737 31.6456 12.9146 31.6733 13.1161 31.7049C13.1846 31.7168 13.2596 31.7313 13.2834 31.7379C13.3057 31.7444 13.3927 31.7589 13.4743 31.7695C13.5559 31.7787 13.6415 31.7932 13.6639 31.7998C13.6876 31.8077 13.764 31.8169 13.8351 31.8222C13.9075 31.8274 13.9984 31.8393 14.0379 31.8498C14.0787 31.8591 14.1788 31.8709 14.2618 31.8749C14.3448 31.8801 14.4751 31.892 14.5515 31.9012C14.6279 31.9118 14.8386 31.9262 15.019 31.9341C15.2007 31.9421 15.3772 31.9539 15.4114 31.9605C15.4931 31.9776 16.5808 31.9776 16.6216 31.9618C16.6387 31.9552 16.8152 31.9434 17.0141 31.9341C17.2129 31.9262 17.4328 31.9104 17.5013 31.9012C17.5698 31.892 17.6922 31.8801 17.7713 31.8749C17.8516 31.8696 17.9464 31.8577 17.982 31.8485C18.0188 31.8393 18.1071 31.8274 18.1795 31.8222C18.2519 31.8169 18.3415 31.8064 18.377 31.7958C18.4139 31.7866 18.4876 31.7747 18.5416 31.7695C18.5956 31.7655 18.6707 31.7537 18.7062 31.7431C18.7431 31.7339 18.8103 31.722 18.8577 31.7168C18.9051 31.7128 18.9815 31.697 19.0289 31.6838C19.0763 31.6707 19.154 31.6562 19.2027 31.6509C19.2514 31.6456 19.2949 31.6377 19.2988 31.6311C19.3028 31.6259 19.3423 31.6167 19.3871 31.6114C19.4331 31.6061 19.5029 31.5916 19.5424 31.5784C19.582 31.5653 19.6465 31.5508 19.686 31.5455C19.7255 31.5402 19.7755 31.5284 19.7979 31.5192C19.8203 31.5099 19.8677 31.4981 19.9046 31.4928C19.9401 31.4875 19.9862 31.4757 20.006 31.4651C20.0257 31.4546 20.0547 31.4467 20.0718 31.4467C20.0889 31.4467 20.1495 31.4322 20.2075 31.4151C20.2654 31.398 20.3392 31.3769 20.3721 31.3677C20.542 31.3229 20.5788 31.3123 20.6025 31.3018C20.617 31.2952 20.6565 31.2833 20.6894 31.2768C20.7224 31.2689 20.7658 31.2544 20.7882 31.2425C20.8093 31.232 20.8409 31.2227 20.858 31.2227C20.8764 31.2227 20.9146 31.2122 20.9436 31.1977C20.9739 31.1845 21.0213 31.1674 21.0503 31.1595C21.1293 31.1384 21.2294 31.1042 21.2741 31.0844C21.2965 31.0739 21.3347 31.0594 21.3597 31.0528C21.419 31.0357 21.5638 30.9817 21.6257 30.954C21.6534 30.9421 21.6824 30.9329 21.6929 30.9329C21.7021 30.9329 21.7219 30.9237 21.7364 30.9132C21.7495 30.9026 21.7732 30.8934 21.7877 30.8934C21.8022 30.8934 21.8443 30.8776 21.8799 30.8605C21.9168 30.842 21.9563 30.8275 21.9681 30.8275C21.98 30.8275 21.9945 30.8223 21.9984 30.8143C22.0024 30.8078 22.0313 30.7959 22.0616 30.7867C22.0919 30.7788 22.1261 30.7643 22.1367 30.7551C22.1472 30.7458 22.1749 30.7327 22.1959 30.7274C22.2183 30.7234 22.2539 30.7076 22.275 30.6958C22.2973 30.6826 22.3342 30.6681 22.3579 30.6628C22.3803 30.6589 22.4001 30.6497 22.4001 30.6431C22.4001 30.6378 22.4264 30.626 22.458 30.6181C22.4896 30.6101 22.5212 30.5957 22.5304 30.5851C22.5383 30.5746 22.566 30.5627 22.5897 30.5588C22.6147 30.5535 22.641 30.5416 22.6503 30.5311C22.6595 30.5206 22.6871 30.5087 22.7108 30.5034C22.7359 30.4995 22.7635 30.4876 22.7727 30.4797C22.7872 30.4652 22.8978 30.4099 23.0124 30.3598C23.0927 30.3243 23.2257 30.2571 23.2889 30.2202C23.3258 30.1991 23.364 30.178 23.3745 30.1741C23.4061 30.1622 23.4443 30.1438 23.4707 30.1293C23.4825 30.1227 23.5036 30.1095 23.5168 30.1029C23.5286 30.095 23.5602 30.0792 23.5852 30.0661C23.6103 30.0542 23.634 30.0397 23.6353 30.0331C23.6379 30.0278 23.6471 30.0239 23.6564 30.0239C23.6656 30.0239 23.6959 30.0094 23.7222 29.991C23.7485 29.9725 23.7788 29.958 23.788 29.958C23.7973 29.958 23.8157 29.9462 23.8289 29.9317C23.842 29.9172 23.8631 29.9053 23.875 29.9053C23.8868 29.9053 23.9145 29.8908 23.9355 29.8724C23.9566 29.854 23.9843 29.8395 23.9961 29.8395C24.008 29.8395 24.0224 29.8329 24.0264 29.8263C24.0317 29.8184 24.0567 29.8013 24.083 29.7868C24.1094 29.7723 24.1555 29.7446 24.1844 29.7275C24.2292 29.6998 24.3372 29.6353 24.4254 29.5826C24.4386 29.5747 24.4675 29.5562 24.4899 29.5391C24.5123 29.5233 24.5373 29.5101 24.5452 29.5101C24.5531 29.5101 24.5597 29.5048 24.5597 29.4969C24.5597 29.4903 24.5795 29.4759 24.6032 29.4666C24.6256 29.4561 24.6532 29.439 24.6638 29.4271C24.673 29.4139 24.6888 29.4047 24.6967 29.4034C24.7046 29.4034 24.7375 29.3823 24.7704 29.3586C24.8034 29.3336 24.8666 29.2914 24.9127 29.2651C24.9574 29.24 24.9943 29.2124 24.9943 29.2071C24.9943 29.2005 25.0075 29.1913 25.0246 29.186C25.0522 29.1781 25.1378 29.1202 25.1523 29.0991C25.1615 29.0872 25.2564 29.0227 25.2656 29.0227C25.2695 29.0227 25.3051 28.9976 25.3433 28.966C25.4789 28.8593 25.6382 28.746 25.6514 28.746C25.6593 28.746 25.6659 28.7407 25.6659 28.7341C25.6659 28.7236 25.8568 28.5747 25.8713 28.5747C25.874 28.5747 25.8871 28.5642 25.9003 28.551C25.9135 28.5392 25.953 28.5049 25.9872 28.4759C26.0215 28.447 26.0702 28.4074 26.0939 28.3864C26.1176 28.3666 26.14 28.3508 26.1439 28.3508C26.1505 28.3508 26.2177 28.2941 26.2954 28.2217C26.381 28.1426 26.5179 28.0346 26.5337 28.0346C26.5416 28.0346 26.5482 28.0267 26.5482 28.0162C26.5482 28.0069 26.5614 27.9898 26.5785 27.978C26.5943 27.9674 26.6246 27.9437 26.6443 27.9239C26.6654 27.9042 26.7273 27.8475 26.7826 27.7961C26.9946 27.5999 27.2264 27.3785 27.3159 27.285C27.4305 27.1677 27.657 26.9306 27.7808 26.7975C27.8308 26.7449 27.8967 26.675 27.9283 26.6447C27.9586 26.6131 27.9836 26.5815 27.9836 26.5736C27.9836 26.5657 27.9889 26.5591 27.9941 26.5591C27.9994 26.5591 28.0494 26.5038 28.1034 26.4379C28.1561 26.3707 28.2259 26.2903 28.2549 26.2587C28.2852 26.2284 28.3128 26.1942 28.3181 26.1836C28.322 26.1731 28.3313 26.1639 28.3392 26.1639C28.3457 26.1639 28.3523 26.1573 28.3523 26.1507C28.3523 26.1388 28.5354 25.9096 28.5617 25.8872C28.5657 25.8833 28.5907 25.8503 28.6144 25.8148C28.6394 25.7779 28.6684 25.7436 28.6776 25.7383C28.6868 25.7331 28.6947 25.7212 28.6947 25.7133C28.6947 25.7054 28.7066 25.687 28.721 25.6712C28.7632 25.629 28.8646 25.4959 28.9344 25.3932C28.9686 25.3431 29.0213 25.268 29.0503 25.2285C29.0792 25.189 29.1372 25.106 29.178 25.0441C29.2188 24.9822 29.2636 24.9216 29.2768 24.9084C29.2899 24.8952 29.3005 24.8794 29.3005 24.8715C29.3005 24.8649 29.3255 24.8241 29.3571 24.7806C29.3874 24.7384 29.4308 24.6726 29.4519 24.637C29.4743 24.6001 29.4954 24.5698 29.502 24.5698C29.5072 24.5698 29.5112 24.5619 29.5112 24.5527C29.5112 24.5448 29.5283 24.5118 29.548 24.4829C29.5678 24.4526 29.602 24.3999 29.6231 24.3643C29.6455 24.33 29.6758 24.28 29.6916 24.2549C29.7087 24.2286 29.7443 24.1693 29.7706 24.1219C29.7969 24.0745 29.8246 24.0349 29.8299 24.0323C29.8351 24.0297 29.8404 24.0191 29.8404 24.0073C29.8404 23.9967 29.8549 23.9691 29.8733 23.9453C29.8917 23.9216 29.9062 23.894 29.9062 23.8847C29.9062 23.8755 29.9141 23.8571 29.9247 23.8465C29.9471 23.8215 30.1103 23.5185 30.1222 23.4803C30.1275 23.4658 30.142 23.4434 30.1564 23.4302C30.1709 23.4171 30.1828 23.396 30.1828 23.3841C30.1828 23.371 30.1946 23.3459 30.2091 23.3275C30.2236 23.309 30.2355 23.2853 30.2355 23.2748C30.2355 23.2642 30.2473 23.2405 30.2618 23.2221C30.2763 23.2036 30.2881 23.1799 30.2881 23.1694C30.2881 23.1588 30.3 23.1351 30.3145 23.1167C30.3289 23.0982 30.3408 23.0745 30.3408 23.064C30.3408 23.0535 30.3527 23.0311 30.3658 23.0126C30.3803 22.9955 30.3961 22.9652 30.4001 22.9454C30.4053 22.927 30.4172 22.9046 30.4277 22.8954C30.4382 22.8875 30.4461 22.8664 30.4461 22.8506C30.4461 22.8348 30.4567 22.8071 30.4712 22.79C30.4843 22.7728 30.5001 22.7386 30.5054 22.7149C30.5107 22.6912 30.5225 22.6675 30.5331 22.6635C30.5436 22.6595 30.5515 22.6451 30.5515 22.6306C30.5515 22.6069 30.5699 22.5634 30.645 22.4198C30.6582 22.3934 30.67 22.3644 30.67 22.3565C30.67 22.3434 30.6871 22.3025 30.7635 22.1379C30.778 22.1089 30.7885 22.0759 30.7885 22.0654C30.7885 22.0549 30.7978 22.0338 30.8083 22.0193C30.8188 22.0061 30.828 21.9864 30.828 21.9758C30.828 21.9666 30.8425 21.9297 30.861 21.8928C30.8794 21.8572 30.8939 21.8204 30.8939 21.8125C30.8939 21.8032 30.9018 21.7822 30.911 21.7637C30.9202 21.7453 30.936 21.7031 30.9452 21.6675C30.9558 21.6333 30.9676 21.6056 30.9729 21.6056C30.9795 21.6056 30.9913 21.574 30.9992 21.5358C31.0085 21.4989 31.0229 21.4581 31.0322 21.4475C31.0414 21.437 31.0532 21.4041 31.0585 21.3751C31.0638 21.3461 31.0743 21.3145 31.0822 21.3039C31.0914 21.2934 31.1046 21.2578 31.1138 21.2249C31.1309 21.1564 31.1652 21.0523 31.1915 20.993C31.2007 20.9706 31.2152 20.9206 31.2244 20.881C31.2323 20.8415 31.2455 20.8007 31.2534 20.7915C31.26 20.7836 31.2731 20.7414 31.2824 20.6992C31.2929 20.6584 31.3087 20.6004 31.3206 20.5714C31.3311 20.5425 31.3403 20.5043 31.3416 20.4858C31.3416 20.4661 31.3469 20.4463 31.3548 20.4384C31.3614 20.4318 31.3745 20.3896 31.3824 20.3475C31.3903 20.304 31.4035 20.2566 31.4127 20.2421C31.422 20.2276 31.4338 20.1841 31.4391 20.1446C31.4443 20.1064 31.4575 20.0603 31.468 20.0445C31.4786 20.0274 31.4917 19.9786 31.4957 19.9365C31.4996 19.8943 31.5102 19.8482 31.5194 19.8324C31.5286 19.8179 31.5405 19.7705 31.5457 19.727C31.551 19.6848 31.5668 19.619 31.5787 19.5834C31.5918 19.5465 31.6063 19.4819 31.6103 19.4385C31.6142 19.395 31.6261 19.341 31.6366 19.3199C31.6458 19.2975 31.659 19.2395 31.6643 19.1908C31.6695 19.1407 31.6814 19.0815 31.6906 19.0591C31.6998 19.0353 31.7117 18.9695 31.7169 18.9115C31.7222 18.8535 31.7327 18.7916 31.7406 18.7732C31.7472 18.7547 31.7617 18.6744 31.7709 18.594C31.7788 18.5136 31.7933 18.4359 31.7999 18.4227C31.8078 18.4083 31.821 18.3239 31.8289 18.233C31.8368 18.1421 31.8499 18.042 31.8565 18.0091C31.8631 17.9761 31.8776 17.8549 31.8881 17.739C31.8987 17.6231 31.9131 17.49 31.9197 17.4426C31.9263 17.3952 31.9355 17.2358 31.9408 17.0869C31.9448 16.938 31.9553 16.7957 31.9645 16.7707C31.9869 16.7048 31.9869 15.3413 31.9645 15.2491C31.9553 15.2122 31.9448 15.0673 31.9408 14.9263C31.9355 14.7854 31.9276 14.6273 31.921 14.5772C31.9145 14.5258 31.9026 14.4231 31.8947 14.3467C31.8868 14.2703 31.875 14.1609 31.8671 14.1029C31.8605 14.045 31.8486 13.9475 31.8407 13.8856C31.8328 13.8236 31.8183 13.7196 31.8078 13.655C31.7959 13.5891 31.7801 13.4772 31.7709 13.4047C31.7604 13.3323 31.7472 13.2585 31.7406 13.24C31.7327 13.2216 31.7235 13.1597 31.7182 13.103C31.713 13.0451 31.7011 12.9831 31.6919 12.9647C31.6827 12.9463 31.6708 12.8896 31.6656 12.8409C31.6603 12.7908 31.6485 12.7249 31.6379 12.6959C31.6274 12.6656 31.6142 12.6024 31.6103 12.555C31.6063 12.5076 31.5931 12.4562 31.5826 12.439C31.5721 12.4219 31.5615 12.3784 31.5576 12.3402C31.5536 12.302 31.5392 12.2362 31.526 12.1927C31.4996 12.1084 31.468 11.9872 31.4417 11.8699C31.4338 11.8304 31.4193 11.783 31.4114 11.7645C31.4035 11.7461 31.3877 11.6934 31.3759 11.646C31.364 11.5985 31.3429 11.5221 31.3285 11.4747C31.3153 11.4273 31.2968 11.3627 31.2889 11.3298C31.2797 11.2968 31.2652 11.2521 31.2547 11.231C31.2455 11.2086 31.231 11.1625 31.2231 11.1256C31.2152 11.09 31.2034 11.0544 31.1981 11.0465C31.1915 11.04 31.1796 11.0004 31.1704 10.9609C31.1612 10.9214 31.1467 10.8792 31.1375 10.8687C31.1283 10.8581 31.1164 10.8252 31.1112 10.7975C31.1072 10.7686 31.0941 10.733 31.0835 10.7185C31.073 10.704 31.0651 10.679 31.0651 10.6645C31.0651 10.65 31.0506 10.6078 31.0322 10.5723C31.015 10.5354 30.9992 10.4959 30.9992 10.4827C30.9992 10.4695 30.9874 10.4366 30.9729 10.4076C30.9584 10.3786 30.9466 10.3483 30.9466 10.3391C30.9466 10.3299 30.9373 10.3048 30.9268 10.2851C30.9163 10.264 30.9005 10.2232 30.8926 10.1929C30.8847 10.1626 30.8741 10.1349 30.8689 10.1309C30.8636 10.127 30.8478 10.094 30.8346 10.0585C30.8215 10.0216 30.8017 9.96363 30.7885 9.92937C30.7754 9.8938 30.7596 9.85955 30.7503 9.85033C30.7424 9.84242 30.7359 9.82661 30.7359 9.81607C30.7359 9.79631 30.6964 9.70541 30.6424 9.60134C30.6292 9.57499 30.6173 9.54073 30.6173 9.52756C30.6173 9.51307 30.6081 9.49463 30.5976 9.4854C30.5871 9.4775 30.5752 9.45642 30.5699 9.44193C30.566 9.42612 30.5357 9.35893 30.5041 9.29174C30.4725 9.22587 30.4461 9.16264 30.4461 9.1521C30.4461 9.14156 30.4382 9.12575 30.4277 9.11784C30.4172 9.10862 30.4053 9.08623 30.4001 9.06778C30.3961 9.04802 30.3803 9.01772 30.3658 9.00059C30.3527 8.98215 30.3408 8.95712 30.3408 8.94395C30.3408 8.93077 30.3355 8.91628 30.3276 8.91233C30.321 8.90838 30.3052 8.88203 30.2934 8.85568C30.2473 8.75029 30.2144 8.68705 30.1933 8.65675C30.1801 8.63962 30.1696 8.61591 30.1696 8.60537C30.1696 8.59351 30.1617 8.57507 30.1512 8.56453C30.1406 8.55267 30.1024 8.4868 30.0669 8.4183C30.03 8.34979 29.9852 8.2668 29.9668 8.23386C29.9484 8.20092 29.9234 8.15613 29.9128 8.13505C29.901 8.11266 29.8746 8.06918 29.8536 8.03625C29.8325 8.00331 29.8061 7.95852 29.7943 7.93744C29.7838 7.91505 29.7614 7.87552 29.7443 7.84917C29.7285 7.82283 29.6916 7.76091 29.6626 7.71348C29.6336 7.66474 29.6007 7.61072 29.5902 7.59096C29.5796 7.5712 29.5494 7.52509 29.5243 7.48952C29.4993 7.45263 29.469 7.40784 29.4585 7.3894C29.4177 7.31826 29.3584 7.22867 29.3242 7.18388C29.3031 7.15753 29.2873 7.12855 29.2873 7.11933C29.2873 7.10879 29.2807 7.10088 29.2741 7.10088C29.2662 7.10088 29.2557 7.09034 29.2517 7.07717C29.2465 7.06531 29.2294 7.03633 29.2122 7.01393C29.1951 6.99154 29.182 6.96651 29.182 6.9586C29.182 6.94938 29.1767 6.94279 29.1701 6.94279C29.1596 6.94279 29.1464 6.92435 29.0832 6.82423C29.0713 6.80578 29.0187 6.73069 28.995 6.69907C28.9897 6.69117 28.9673 6.66482 28.9449 6.63847C28.9238 6.61212 28.9054 6.58577 28.9054 6.5805C28.9054 6.57523 28.8712 6.52781 28.8303 6.47643C28.7408 6.36577 28.6947 6.30121 28.6947 6.28409C28.6947 6.27618 28.6894 6.27091 28.6829 6.27091C28.6723 6.27091 28.5696 6.14444 28.5143 6.06276C28.4972 6.03905 28.4603 5.99425 28.43 5.96395C28.401 5.93365 28.3576 5.88227 28.3365 5.85066C28.3141 5.81904 28.2865 5.78215 28.2746 5.77029C28.2391 5.73209 28.1087 5.58322 28.0481 5.50945C28.0165 5.47124 27.9652 5.41196 27.9349 5.38034C27.9033 5.3474 27.8782 5.3171 27.8782 5.31315C27.8782 5.3092 27.8506 5.27758 27.8164 5.24333C27.7808 5.20776 27.7057 5.13003 27.6478 5.06943C27.4226 4.83098 27.2145 4.62283 27.021 4.43839C26.7484 4.18018 26.7036 4.13802 26.6378 4.084C26.6075 4.05897 26.5495 4.00891 26.51 3.97334C26.4692 3.93909 26.4086 3.88507 26.3731 3.85477C26.3388 3.82579 26.2875 3.77836 26.2585 3.7507C26.2295 3.72435 26.2019 3.70195 26.1979 3.70195C26.194 3.70195 26.1716 3.68614 26.1479 3.6677C26.0689 3.60183 25.9767 3.5241 25.953 3.50039C25.9398 3.48853 25.9253 3.47799 25.9214 3.47799C25.9135 3.47799 25.8226 3.40685 25.7726 3.36074C25.7541 3.34362 25.7054 3.30936 25.6659 3.28433C25.6264 3.25798 25.5843 3.23032 25.5737 3.21978C25.5632 3.21056 25.5421 3.19211 25.5276 3.17894C25.5118 3.16577 25.4736 3.1381 25.442 3.1157C25.4091 3.09463 25.3591 3.05774 25.3288 3.03402C25.2985 3.01031 25.2682 2.99055 25.259 2.99055C25.2511 2.99055 25.234 2.98001 25.2208 2.96684C25.1826 2.92995 25.0562 2.83773 25.0101 2.81402C24.9877 2.80216 24.968 2.78767 24.968 2.78108C24.968 2.77449 24.9508 2.76264 24.9285 2.75342C24.9074 2.74419 24.8889 2.73234 24.8889 2.72575C24.8889 2.71916 24.881 2.71389 24.8718 2.71389C24.8626 2.71389 24.8205 2.68754 24.777 2.65461C24.7336 2.62167 24.6848 2.59137 24.669 2.58742C24.6519 2.58347 24.6387 2.57425 24.6387 2.56766C24.6387 2.56107 24.6243 2.54922 24.6071 2.54263C24.5887 2.53604 24.5452 2.51101 24.5097 2.48598C24.4755 2.46095 24.4333 2.43592 24.4175 2.43197C24.4017 2.4267 24.3885 2.41747 24.3885 2.41089C24.3885 2.40562 24.3688 2.39113 24.3464 2.37795C24.3227 2.3661 24.2792 2.34238 24.2503 2.32394C24.2213 2.30681 24.1792 2.28442 24.1568 2.27388C24.1344 2.26334 24.1094 2.24489 24.0988 2.23435C24.0896 2.2225 24.0751 2.21328 24.0672 2.21328C24.0541 2.21328 23.954 2.15136 23.9184 2.12106C23.9092 2.11447 23.8947 2.10788 23.8842 2.10788C23.8736 2.10788 23.8513 2.09603 23.8341 2.08285C23.8157 2.06968 23.7815 2.0486 23.7564 2.03674C23.7314 2.0262 23.7011 2.01039 23.6906 2.00381C23.6801 1.99722 23.6616 1.988 23.6511 1.98273C23.6406 1.97878 23.6024 1.9577 23.5655 1.93662C23.5299 1.91554 23.4562 1.87602 23.4035 1.84967C23.3522 1.82332 23.3061 1.79697 23.3021 1.7917C23.2982 1.78643 23.2797 1.77721 23.26 1.77194C23.2389 1.76799 23.2139 1.75613 23.2034 1.74691C23.1928 1.73637 23.1678 1.72583 23.1494 1.72188C23.1309 1.71661 23.102 1.7008 23.0848 1.68631C23.0677 1.67182 23.044 1.65996 23.0322 1.65996C23.0203 1.65996 22.9966 1.6481 22.9795 1.63361C22.9624 1.61912 22.9439 1.60726 22.9373 1.60726C22.9308 1.60726 22.8675 1.5796 22.7978 1.54666C22.5805 1.4439 22.5634 1.436 22.5423 1.436C22.5304 1.436 22.5146 1.42678 22.5054 1.41624C22.4962 1.4057 22.4804 1.39648 22.4699 1.39648C22.4593 1.39648 22.4238 1.38199 22.3895 1.36354C22.3553 1.3451 22.3184 1.33061 22.3079 1.33061C22.296 1.33061 22.275 1.3227 22.2605 1.31216C22.246 1.30162 22.1815 1.27264 22.1169 1.24761C22.0511 1.22126 21.9813 1.19228 21.9589 1.18042C21.9378 1.16857 21.9102 1.15934 21.8996 1.15934C21.8878 1.15934 21.8733 1.15407 21.8667 1.14749C21.8588 1.1409 21.8206 1.12641 21.7811 1.11323C21.7416 1.10006 21.6968 1.08162 21.6824 1.07239C21.6679 1.06185 21.6442 1.05395 21.6297 1.05395C21.6152 1.05395 21.5915 1.04605 21.577 1.03551C21.5625 1.02628 21.5296 1.01311 21.5046 1.00784C21.4796 1.00257 21.4361 0.986762 21.4098 0.973588C21.3821 0.959096 21.3505 0.948557 21.3373 0.948557C21.3229 0.948557 21.2913 0.938018 21.2636 0.923526C21.2373 0.910352 21.1925 0.894543 21.1661 0.889273C21.1385 0.884004 21.1095 0.874782 21.1016 0.868195C21.0924 0.861608 21.0516 0.847116 21.0094 0.835259C20.9673 0.82472 20.9265 0.810229 20.9199 0.804959C20.912 0.798372 20.8778 0.78915 20.8435 0.78388C20.8093 0.778611 20.775 0.766754 20.7671 0.757532C20.7592 0.74831 20.7224 0.736453 20.6855 0.731184C20.6486 0.725914 20.5946 0.710105 20.5643 0.696931C20.5341 0.683757 20.4932 0.6719 20.4708 0.6719C20.4498 0.6719 20.4142 0.662678 20.3918 0.650821C20.3708 0.640282 20.3194 0.624473 20.2799 0.616569C20.2404 0.609982 20.193 0.59549 20.1745 0.586268C20.1561 0.577046 20.11 0.566507 20.0705 0.561237C20.031 0.555968 19.9836 0.544111 19.9652 0.534889C19.9467 0.52435 19.898 0.512493 19.8585 0.507223C19.819 0.501954 19.7716 0.490097 19.7531 0.480875C19.7347 0.471653 19.6847 0.459796 19.6412 0.454527C19.5978 0.449257 19.5451 0.4374 19.5227 0.426861C19.5016 0.417639 19.4331 0.403147 19.3726 0.395243C19.312 0.388656 19.2554 0.376799 19.2475 0.370212C19.2396 0.363625 19.1803 0.351768 19.1145 0.342546C19.0499 0.334642 18.9894 0.322785 18.9815 0.316198C18.9736 0.309611 18.909 0.297754 18.8392 0.28985C18.7681 0.281945 18.6944 0.268771 18.6746 0.260867C18.6562 0.25428 18.5719 0.239788 18.4889 0.230566C18.406 0.221344 18.3138 0.206853 18.2848 0.198948C18.2559 0.191044 18.1795 0.181822 18.1136 0.176552C18.0491 0.1726 17.9741 0.163378 17.949 0.156791C17.924 0.150204 17.791 0.135712 17.6527 0.125173C17.5158 0.114634 17.367 0.100142 17.3235 0.0922376C17.2353 0.0777461 16.6585 0.0527152 16.4122 0.0527152C16.3201 0.0527152 16.2489 0.0474455 16.2437 0.0395411C16.2345 0.0237321 15.8447 0.0237321 15.7762 0.0395411ZM13.3202 8.2523C13.3426 8.26811 13.3439 8.28787 13.3413 8.46309C13.34 8.5698 13.3334 8.66992 13.3281 8.68573C13.3215 8.70154 13.3097 8.79508 13.3005 8.89257C13.2847 9.06515 13.2768 9.12443 13.2491 9.24827C13.2412 9.2812 13.2359 9.32863 13.2346 9.35498C13.2346 9.38133 13.2228 9.42875 13.2083 9.46037C13.1938 9.49199 13.182 9.54205 13.182 9.57104C13.182 9.60002 13.1701 9.64745 13.1556 9.67643C13.1411 9.70541 13.1293 9.74625 13.1293 9.76865C13.1293 9.78973 13.1174 9.83452 13.1029 9.86614C13.0885 9.89775 13.0766 9.93596 13.0766 9.95177C13.0753 9.96626 13.0648 10.0031 13.0503 10.0321C13.0358 10.0611 13.0239 10.094 13.0239 10.1046C13.0239 10.1151 13.0094 10.1533 12.991 10.1902C12.9739 10.2258 12.9581 10.2653 12.9581 10.2759C12.9581 10.2864 12.9462 10.3127 12.9317 10.3351C12.9173 10.3562 12.9054 10.3852 12.9054 10.3971C12.9054 10.4089 12.8817 10.4642 12.8527 10.5196C12.8238 10.5749 12.8001 10.625 12.8001 10.6316C12.8001 10.6487 12.7777 10.6974 12.7408 10.7567C12.7237 10.7857 12.7026 10.8239 12.6934 10.8423C12.6855 10.8608 12.6736 10.8845 12.6671 10.895C12.5788 11.0505 12.5578 11.0874 12.5485 11.0926C12.5433 11.0966 12.5327 11.115 12.5248 11.1348C12.513 11.1651 12.3997 11.339 12.38 11.3561C12.376 11.3601 12.3536 11.3891 12.3326 11.422C12.3102 11.4536 12.2852 11.4892 12.2759 11.501C12.2667 11.5116 12.2193 11.5709 12.1719 11.6328C11.9454 11.9213 11.6057 12.2717 11.391 12.4364C11.3673 12.4549 11.3304 12.4865 11.3067 12.5076C11.2475 12.5616 11.0789 12.6867 11.0644 12.6867C11.0578 12.6867 11.0394 12.7012 11.0223 12.7197C11.0052 12.7381 10.9841 12.7526 10.9736 12.7526C10.9643 12.7526 10.9564 12.7579 10.9564 12.7631C10.9564 12.7697 10.9314 12.7882 10.9024 12.8066C10.8722 12.8237 10.8327 12.8488 10.8129 12.8606C10.7945 12.8738 10.7615 12.8936 10.7392 12.9054C10.7181 12.9173 10.6931 12.9357 10.6825 12.9449C10.6733 12.9555 10.6575 12.9634 10.6483 12.9634C10.6391 12.9634 10.6167 12.9752 10.5982 12.9884C10.5811 13.0029 10.5495 13.0187 10.5311 13.0227C10.5113 13.0279 10.4955 13.0372 10.4955 13.0424C10.4955 13.053 10.3296 13.1373 10.1663 13.2097C10.1268 13.2282 10.0715 13.2532 10.0452 13.2677C10.0188 13.2809 9.98854 13.2927 9.97932 13.2927C9.9701 13.2927 9.94113 13.3033 9.91611 13.3178C9.89109 13.3309 9.84895 13.3467 9.82393 13.352C9.79891 13.3573 9.76862 13.3691 9.75808 13.3784C9.74755 13.3876 9.71463 13.3994 9.68566 13.4034C9.65668 13.4087 9.61981 13.4218 9.60401 13.4324C9.58689 13.4429 9.54607 13.4548 9.51183 13.46C9.47627 13.464 9.43677 13.4759 9.42228 13.4851C9.4078 13.493 9.36961 13.5048 9.33668 13.5101C9.30376 13.5154 9.25636 13.5285 9.23134 13.5391C9.20631 13.5496 9.13784 13.5641 9.08121 13.5707C9.02327 13.576 8.97323 13.5878 8.96796 13.5957C8.96401 13.6023 8.89553 13.6155 8.81784 13.6221C8.73882 13.63 8.66245 13.6432 8.64796 13.6511C8.63216 13.659 8.5031 13.6708 8.35562 13.6761C8.21076 13.6827 8.05405 13.6919 8.00664 13.6959C7.925 13.7038 7.91973 13.7024 7.90393 13.6735C7.89076 13.6484 7.88813 13.0754 7.89076 10.9504C7.89471 8.57507 7.89734 8.25757 7.91446 8.24703C7.92631 8.23913 8.94821 8.23386 10.6154 8.23386C12.8567 8.23386 13.2992 8.23649 13.3202 8.2523ZM24.1041 8.26284C24.1225 8.28919 24.1252 8.56848 24.1252 10.9728C24.1252 13.4482 24.1238 13.655 24.1028 13.6774C24.083 13.6998 23.9816 13.7011 21.4124 13.7011H18.7418L18.7352 13.7367C18.7313 13.7578 18.7273 16.2187 18.726 19.2066C18.726 23.1865 18.722 24.6449 18.7115 24.6581C18.6904 24.6818 13.3742 24.6844 13.3202 24.6594L13.2873 24.6449V18.9853C13.2873 15.1977 13.2913 13.2993 13.3005 13.2466C13.3084 13.2031 13.3202 13.0872 13.3268 12.9897C13.3347 12.8922 13.3492 12.7882 13.3597 12.7592C13.3703 12.7302 13.3795 12.6762 13.3795 12.6406C13.3795 12.6037 13.39 12.551 13.4006 12.522C13.4124 12.4931 13.4269 12.4311 13.4335 12.385C13.4401 12.3389 13.4532 12.2875 13.4638 12.2717C13.4743 12.2546 13.4875 12.2098 13.4927 12.1716C13.498 12.1321 13.5085 12.0912 13.5178 12.0807C13.527 12.0702 13.5388 12.0333 13.5428 11.999C13.548 11.9661 13.5612 11.9305 13.5704 11.9226C13.581 11.9134 13.5902 11.891 13.5902 11.8712C13.5902 11.8528 13.6047 11.8093 13.6231 11.7751C13.6415 11.7408 13.656 11.7039 13.656 11.6921C13.656 11.6723 13.6718 11.6367 13.7495 11.4668C13.764 11.4378 13.7745 11.4036 13.7745 11.3917C13.7745 11.3798 13.7798 11.368 13.7864 11.3627C13.7943 11.3588 13.8246 11.3048 13.8549 11.2428C13.8852 11.1822 13.9155 11.1282 13.9207 11.1243C13.9273 11.1203 13.9326 11.1058 13.9326 11.0913C13.9326 11.0782 13.9444 11.0558 13.9589 11.0439C13.9734 11.0307 13.9852 11.0123 13.9852 11.0031C13.9852 10.9925 13.9971 10.9701 14.0116 10.9517C14.0261 10.9332 14.0379 10.9108 14.0379 10.9016C14.0379 10.8937 14.0498 10.8753 14.0643 10.8621C14.0787 10.8489 14.0906 10.8331 14.0906 10.8252C14.0906 10.8068 14.1722 10.6843 14.1854 10.6843C14.1907 10.6843 14.1959 10.6737 14.1959 10.6605C14.1959 10.6474 14.2104 10.6223 14.2289 10.6052C14.2473 10.5881 14.2618 10.567 14.2618 10.5578C14.2618 10.5486 14.2697 10.5354 14.2789 10.5301C14.2881 10.5248 14.3118 10.4945 14.3316 10.4642C14.4949 10.2113 15.1875 9.4854 15.2652 9.4854C15.2771 9.4854 15.2916 9.47355 15.2955 9.45906C15.2995 9.44456 15.3087 9.43271 15.314 9.43271C15.3206 9.43271 15.3495 9.41163 15.3785 9.3866C15.447 9.326 15.5115 9.27857 15.5497 9.26276C15.5655 9.25486 15.5787 9.24432 15.5787 9.23905C15.5787 9.23246 15.6089 9.21006 15.6458 9.18899C15.684 9.16659 15.7235 9.14024 15.7367 9.1297C15.763 9.10599 15.821 9.07174 15.8789 9.04407C15.9013 9.03353 15.921 9.01904 15.921 9.01245C15.921 9.00586 15.9342 8.99796 15.9513 8.99269C15.9671 8.98874 16.0106 8.96502 16.0488 8.93999C16.0857 8.91496 16.137 8.88861 16.1634 8.87939C16.1884 8.87149 16.216 8.85568 16.2239 8.84514C16.2331 8.83592 16.2503 8.8267 16.2621 8.8267C16.274 8.8267 16.2977 8.81484 16.3161 8.80035C16.3345 8.78586 16.3582 8.774 16.3701 8.774C16.382 8.774 16.4057 8.76346 16.4228 8.74897C16.4399 8.73579 16.4728 8.71999 16.4965 8.71603C16.5189 8.71076 16.5452 8.69759 16.5531 8.68837C16.5624 8.67783 16.5887 8.66597 16.6137 8.6607C16.6374 8.65675 16.6638 8.64489 16.673 8.63435C16.6809 8.62513 16.7085 8.61328 16.7362 8.60801C16.7625 8.60274 16.8047 8.58824 16.8297 8.57507C16.8547 8.56058 16.8876 8.55004 16.9021 8.55004C16.9166 8.55004 16.9416 8.54213 16.9561 8.5316C16.9706 8.52106 17.0154 8.50656 17.0575 8.49866C17.0983 8.49076 17.1457 8.47626 17.1615 8.46704C17.1787 8.4565 17.2182 8.44465 17.2511 8.44069C17.284 8.43674 17.3288 8.42488 17.3499 8.41435C17.3722 8.40381 17.4275 8.39063 17.4736 8.38536C17.521 8.38141 17.575 8.36824 17.5948 8.3577C17.6145 8.34847 17.6738 8.3353 17.7278 8.33135C17.7805 8.3274 17.8503 8.31422 17.8806 8.305C17.928 8.28919 18.0873 8.2747 18.4455 8.25494C18.4692 8.25362 18.4916 8.24835 18.4968 8.24308C18.5021 8.23781 19.761 8.23386 21.2952 8.23386H24.0843L24.1041 8.26284Z" fill="#1B5AFD"/>
</g>
<defs>
<clipPath id="clip0_4401_259">
<rect width="32" height="32" rx="16" fill="white"/>
</clipPath>
</defs>
</svg>
