<svg width="32" height="32" viewBox="0 0 32 32" fill="none" xmlns="http://www.w3.org/2000/svg">
<g clip-path="url(#clip0_4407_344)">
<rect width="32" height="32" rx="16" fill="white"/>
<path d="M13.001 7.27803C12.6541 7.22811 12.6374 7.21147 12.8026 7.19611C13.1162 7.14619 13.8419 7.21275 14.3539 7.32795C15.5418 7.60827 16.6144 8.33531 17.7536 9.60507L18.0506 9.95195L18.4794 9.88539C20.311 9.58843 22.1926 9.81883 23.7606 10.5459C24.1894 10.7443 24.8666 11.1398 24.9485 11.2396C24.9818 11.2729 25.0304 11.4867 25.0637 11.7017C25.1789 12.4774 25.1302 13.0547 24.8819 13.5001C24.7501 13.7471 24.7501 13.8137 24.832 14.0287C24.8986 14.1939 25.0957 14.3091 25.2774 14.3091C25.673 14.3091 26.0864 13.6819 26.2835 12.8076L26.3654 12.4607L26.5139 12.6259C27.3562 13.5667 28.0154 14.8697 28.1152 15.7951L28.1485 16.0422L28 15.8271C27.753 15.447 27.5213 15.1999 27.2077 14.9849C26.647 14.6047 26.0518 14.4895 24.4851 14.4076C23.0656 14.3257 22.2566 14.2092 21.4656 13.9455C20.1126 13.5001 19.4189 12.9228 17.8189 10.7929C17.1098 9.85211 16.6643 9.34011 16.2176 8.91131C15.2461 7.97051 14.272 7.47643 13.001 7.27803Z" fill="#FF007A"/>
<path d="M25.2967 9.37342C25.3299 8.74622 25.4119 8.33406 25.5936 7.9539C25.6602 7.80542 25.7255 7.67358 25.7421 7.67358C25.7587 7.67358 25.7255 7.78878 25.6755 7.92062C25.5437 8.28414 25.5271 8.79486 25.609 9.37342C25.7242 10.1158 25.7741 10.2157 26.5664 11.0233C26.9299 11.4035 27.3587 11.8809 27.5239 12.0793L27.8042 12.4429L27.5239 12.1792C27.177 11.8489 26.3847 11.2217 26.2042 11.1398C26.089 11.0733 26.0723 11.0733 25.9891 11.1565C25.9226 11.223 25.9072 11.3216 25.9072 11.8003C25.8906 12.5427 25.792 13.0048 25.5437 13.4835C25.4119 13.7305 25.3952 13.6819 25.5104 13.4016C25.5923 13.1865 25.609 13.088 25.609 12.3789C25.609 10.9427 25.4439 10.5971 24.4378 10.0185C24.1907 9.87006 23.7607 9.65502 23.5136 9.53982C23.2499 9.42462 23.0515 9.32478 23.0682 9.32478C23.1015 9.2915 24.0755 9.57182 24.4544 9.73694C25.0317 9.96734 25.1315 9.98398 25.1968 9.96734C25.2467 9.9187 25.28 9.78686 25.2967 9.37342Z" fill="#FF007A"/>
<path d="M13.6781 11.8336C12.9843 10.8762 12.5389 9.3914 12.6387 8.28548L12.672 7.9386L12.8371 7.97188C13.1341 8.0218 13.6461 8.21892 13.8931 8.36868C14.5536 8.7642 14.8505 9.30948 15.1309 10.6624C15.2128 11.0592 15.3293 11.52 15.3779 11.6698C15.4598 11.9168 15.7734 12.4954 16.0384 12.8576C16.2201 13.1213 16.1049 13.2532 15.6915 13.2212C15.0643 13.1533 14.2221 12.576 13.6781 11.8336Z" fill="#FF007A"/>
<path d="M24.4544 19.0119C21.1865 17.6922 20.032 16.553 20.032 14.6215C20.032 14.3412 20.0486 14.1095 20.0486 14.1095C20.0653 14.1095 20.1805 14.2081 20.3289 14.3245C20.9894 14.8532 21.7318 15.0836 23.7952 15.3805C24.9997 15.5623 25.6934 15.6941 26.3206 15.9092C28.3174 16.5697 29.5552 17.9226 29.8521 19.7543C29.9341 20.2829 29.8854 21.289 29.7536 21.8177C29.6384 22.2298 29.3081 22.9889 29.2262 23.0055C29.2096 23.0055 29.1763 22.9236 29.1763 22.7905C29.143 22.0967 28.7961 21.4375 28.2189 20.9255C27.5238 20.3329 26.6329 19.8861 24.4544 19.0119Z" fill="#FF007A"/>
<path d="M22.144 19.5558C22.1107 19.3088 22.0288 18.9951 21.9789 18.862L21.897 18.615L22.0454 18.7967C22.2605 19.0438 22.4256 19.342 22.5741 19.7542C22.6893 20.0678 22.6893 20.1663 22.6893 20.6783C22.6893 21.1737 22.6726 21.2889 22.5741 21.5692C22.409 22.0147 22.2106 22.3283 21.8803 22.6751C21.2864 23.2857 20.5107 23.6159 19.4048 23.7644C19.2064 23.7811 18.6458 23.831 18.1504 23.863C16.9126 23.9296 16.087 24.0614 15.3446 24.3251C15.2461 24.3583 15.1462 24.3916 15.1296 24.375C15.0963 24.3417 15.6083 24.0447 16.0205 23.8463C16.5978 23.566 17.1917 23.4175 18.496 23.1859C19.1398 23.0873 19.799 22.9542 19.9654 22.8889C21.6 22.3782 22.4077 21.1084 22.144 19.5558Z" fill="#FF007A"/>
<path d="M23.6455 22.2131C23.2167 21.2723 23.1181 20.3814 23.3485 19.5391C23.3818 19.4572 23.4151 19.374 23.4471 19.374C23.4791 19.374 23.5789 19.4239 23.6788 19.4892C23.8772 19.6211 24.2893 19.8527 25.3453 20.43C26.6816 21.1558 27.442 21.7177 27.9693 22.3603C28.4314 22.9209 28.7117 23.5647 28.8435 24.3571C28.9255 24.8025 28.8768 25.8751 28.7616 26.3206C28.3981 27.7235 27.5738 28.846 26.3693 29.4899C26.1876 29.5884 26.0391 29.655 26.0224 29.655C26.0058 29.655 26.0724 29.4899 26.1709 29.2915C26.5664 28.4492 26.6164 27.6415 26.3194 26.7327C26.1376 26.1721 25.7588 25.495 24.9997 24.3558C24.0922 23.0387 23.8772 22.6918 23.6455 22.2131Z" fill="#FF007A"/>
<path d="M11.351 27.264C12.5722 26.2413 14.0736 25.5143 15.4598 25.2839C16.0538 25.1853 17.0445 25.2173 17.5885 25.3658C18.4627 25.5975 19.255 26.0916 19.6685 26.7021C20.064 27.296 20.2458 27.808 20.4275 28.946C20.4941 29.3914 20.576 29.8535 20.5926 29.952C20.7245 30.546 20.9881 31.008 21.3184 31.2564C21.8304 31.6352 22.7213 31.6519 23.5955 31.3229C23.744 31.273 23.8758 31.2244 23.8758 31.241C23.9091 31.2743 23.4637 31.5712 23.1667 31.7197C22.7546 31.9348 22.4243 32 21.9789 32C21.1865 32 20.5094 31.5879 19.9654 30.7623C19.8502 30.5972 19.6185 30.1184 19.4201 29.673C18.8429 28.3367 18.5459 27.9399 17.8688 27.4944C17.2749 27.1156 16.5158 27.0324 15.9385 27.3127C15.1795 27.6762 14.9811 28.649 15.5097 29.2442C15.7248 29.4912 16.1203 29.6896 16.4505 29.7396C17.0611 29.8215 17.5897 29.344 17.5897 28.7335C17.5897 28.338 17.4413 28.1063 17.0457 27.9245C16.5171 27.6928 15.9398 27.9578 15.9565 28.4685C15.9565 28.6836 16.055 28.8154 16.2701 28.914C16.4019 28.9792 16.4019 28.9792 16.3033 28.9639C15.8246 28.8653 15.7094 28.2714 16.0883 27.8912C16.5504 27.4292 17.5245 27.6276 17.8534 28.2701C17.9853 28.5338 18.0019 29.0624 17.8867 29.3927C17.6064 30.1184 16.8141 30.4986 16.0051 30.2836C15.4598 30.1351 15.2294 29.9866 14.5689 29.3095C13.4131 28.1216 12.9677 27.89 11.3178 27.6429L11.0042 27.593L11.351 27.264Z" fill="#FF007A"/>
<path fill-rule="evenodd" clip-rule="evenodd" d="M2.67009 0.70912C6.51521 5.37984 12.4403 12.6413 12.7373 13.0381C12.9843 13.3683 12.8858 13.6819 12.4736 13.9123C12.2432 14.0442 11.7645 14.176 11.5328 14.176C11.2691 14.176 10.9555 14.0442 10.7405 13.8291C10.592 13.6806 9.94817 12.7398 8.49665 10.4794C7.39073 8.74624 6.44993 7.31136 6.43329 7.29472C6.36673 7.26144 6.36673 7.26144 8.38017 10.8595C9.65121 13.12 10.0634 13.929 10.0634 14.0288C10.0634 14.2438 9.99681 14.359 9.73313 14.656C9.28769 15.1514 9.08929 15.712 8.94081 16.8845C8.77569 18.1875 8.33025 19.113 7.05921 20.6797C6.31681 21.6038 6.20161 21.769 6.01985 22.1491C5.78817 22.6112 5.72289 22.8749 5.68961 23.4701C5.65633 24.0973 5.72289 24.4928 5.90465 25.0867C6.06977 25.6154 6.25153 25.961 6.69697 26.6381C7.07713 27.232 7.30753 27.6774 7.30753 27.8426C7.30753 27.9744 7.34081 27.9744 7.93473 27.8426C9.35425 27.5123 10.5255 26.9517 11.1693 26.2579C11.5661 25.8291 11.6647 25.5974 11.6647 25.0035C11.6647 24.6234 11.648 24.5414 11.5495 24.3098C11.3843 23.9462 11.0707 23.6493 10.3949 23.1872C9.50401 22.5766 9.12385 22.0813 9.02529 21.4208C8.94337 20.8602 9.04193 20.48 9.53729 19.4406C10.0493 18.368 10.1811 17.9226 10.2631 16.8333C10.313 16.1395 10.3949 15.8592 10.5933 15.6454C10.8083 15.4138 10.9888 15.3318 11.5008 15.2653C12.3431 15.1501 12.8871 14.935 13.3159 14.5229C13.696 14.176 13.8599 13.8291 13.8765 13.3184L13.8931 12.9382L13.6781 12.7078C12.9024 11.817 2.15809 0 2.10945 0C2.09281 0 2.35649 0.3136 2.67009 0.70912ZM7.73633 24.1779C7.91809 23.8643 7.81825 23.4688 7.52129 23.2704C7.24097 23.0886 6.81217 23.1718 6.81217 23.4189C6.81217 23.4854 6.84545 23.5507 6.94401 23.584C7.09249 23.6659 7.10913 23.7491 6.99393 23.9309C6.87873 24.1126 6.87873 24.2778 7.02721 24.393C7.25761 24.5734 7.57121 24.4749 7.73633 24.1779Z" fill="#FF007A"/>
<path fill-rule="evenodd" clip-rule="evenodd" d="M14.4205 15.497C14.0249 15.6122 13.6448 16.041 13.5296 16.4711C13.463 16.7347 13.4963 17.2135 13.6115 17.3619C13.7933 17.5936 13.9584 17.6589 14.4205 17.6589C15.328 17.6589 16.1037 17.2634 16.1869 16.7847C16.2688 16.3891 15.9232 15.8439 15.4445 15.5968C15.1961 15.4637 14.6841 15.4138 14.4205 15.497ZM15.4765 16.3213C15.6083 16.1229 15.5584 15.9091 15.3113 15.7607C14.8659 15.4803 14.1888 15.7107 14.1888 16.1408C14.1888 16.3559 14.5357 16.5863 14.8659 16.5863C15.0809 16.5863 15.3779 16.4544 15.4765 16.3213Z" fill="#FF007A"/>
</g>
<defs>
<clipPath id="clip0_4407_344">
<rect width="32" height="32" rx="16" fill="white"/>
</clipPath>
</defs>
</svg>
