<svg width="32" height="32" viewBox="0 0 32 32" fill="none" xmlns="http://www.w3.org/2000/svg">
<g clip-path="url(#clip0_4418_591)">
<rect width="32" height="32" rx="16" fill="white"/>
<path d="M16 0C24.8381 0 32 7.1619 32 16C32 24.8381 24.8381 32 16 32C7.1619 32 0 24.8381 0 16C0 7.1619 7.1619 0 16 0Z" fill="white"/>
<path d="M16 30.9333C24.2475 30.9333 30.9333 24.2474 30.9333 16C30.9333 7.75253 24.2475 1.06665 16 1.06665C7.75255 1.06665 1.06667 7.75253 1.06667 16C1.06667 24.2474 7.75255 30.9333 16 30.9333Z" fill="#216C58" stroke="#216C58" stroke-width="0.7"/>
<path d="M29.8667 16C29.8667 23.6952 23.6952 29.8666 16 29.8666C8.30476 29.8666 2.13333 23.6952 2.13333 16C2.13333 8.30473 8.30476 2.1333 16 2.1333C23.6952 2.1333 29.8667 8.30473 29.8667 16Z" fill="#216C58"/>
<path d="M15.6952 22.7047H14.0952V24.3047H15.6952V22.7047Z" fill="#216C58"/>
<path d="M18.3619 22.7047H16.7619V24.3047H18.3619V22.7047Z" fill="#216C58"/>
<path d="M11.4286 6.09521H21.5619C21.8667 6.09521 22.0952 6.39998 22.0952 6.62855V6.93331C22.0952 7.23807 21.8667 7.46664 21.5619 7.46664H11.4286C11.1238 7.46664 10.8952 7.23807 10.8952 6.93331V6.62855C10.8952 6.39998 11.2 6.09521 11.4286 6.09521Z" fill="white"/>
<path d="M16 8V26.1333C16 26.4381 15.7714 26.6667 15.4667 26.6667H15.1619C14.8571 26.6667 14.6286 26.4381 14.6286 26.1333V8H16Z" fill="white"/>
<path d="M18.1333 8V26.1333C18.1333 26.4381 17.9048 26.6667 17.6 26.6667H17.2952C16.9905 26.6667 16.7619 26.4381 16.7619 26.1333V8H18.1333Z" fill="white"/>
<path d="M14.8571 12.4952C15.2381 12.3428 15.6952 12.2667 16.3048 12.2667C17.1429 12.2667 17.7524 12.419 18.2095 12.7238C18.5143 12.9524 18.7429 13.1809 18.8952 13.5619C19.0476 13.8667 19.2762 14.1714 19.7333 14.1714H22.1714C22.6286 14.1714 23.0095 13.7905 22.9333 13.3333C22.8571 12.5714 22.5524 11.9619 22.0952 11.3524C21.5619 10.5905 20.7238 10.0571 19.7333 9.67617C18.7429 9.29522 17.6 9.06665 16.3048 9.06665C15.0095 9.06665 13.8667 9.29522 12.8762 9.67617C11.8857 10.0571 11.0476 10.6667 10.4381 11.3524C9.82857 12.1143 9.52381 12.9524 9.52381 13.9428C9.52381 15.1619 9.98095 16.1524 10.8952 16.8381C11.8095 17.5238 12.9524 18.0571 14.4 18.3619L16.3048 18.7428C16.9143 18.8952 17.4476 19.0476 17.8286 19.2C18.2095 19.3524 18.5143 19.5047 18.7429 19.7333C18.8952 19.8857 19.0476 20.1143 19.0476 20.419C19.0476 20.7238 18.9714 20.9524 18.7429 21.2571C18.5143 21.4857 18.2095 21.7143 17.7524 21.8667C17.3714 22.019 16.8381 22.0952 16.2286 22.0952C15.619 22.0952 15.0857 22.019 14.6286 21.8667C14.1714 21.7143 13.7905 21.4857 13.5619 21.1809C13.4095 20.9524 13.2571 20.7238 13.181 20.4952C13.1048 20.1143 12.8 19.8095 12.3429 19.8095H9.90476C9.44762 19.8095 9.06667 20.1905 9.14286 20.6476C9.21905 21.5619 9.52381 22.3238 10.0571 23.0095C10.6667 23.7714 11.5048 24.3809 12.5714 24.7619C13.6381 25.1428 14.8571 25.3714 16.3048 25.3714C17.7524 25.3714 18.9714 25.219 19.9619 24.7619C21.0286 24.3809 21.7905 23.8476 22.3238 23.0857C22.8571 22.3238 23.1619 21.4857 23.1619 20.4952C23.1619 19.8095 23.0095 19.2 22.7048 18.6667C22.4 18.1333 22.019 17.6762 21.5619 17.2952C21.1048 16.9143 20.4952 16.6095 19.8857 16.3047C19.2762 16.0762 18.5143 15.8476 17.7524 15.6952L16.2286 15.3905C15.8476 15.3143 15.5429 15.2381 15.2381 15.1619C14.9333 15.0857 14.6286 14.9333 14.4 14.7809C14.1714 14.6286 14.019 14.4762 13.8667 14.3238C13.7905 14.1714 13.7143 14.019 13.7143 13.7905C13.7143 13.5619 13.7905 13.2571 13.9429 13.1047C14.2476 12.8 14.4762 12.6476 14.8571 12.4952Z" fill="white" stroke="#216C58" stroke-width="0.7"/>
<path d="M16 11.5048H14.6286V13.3333H16V11.5048Z" fill="white"/>
<path d="M16 18.1333H14.6286V20.0381H16V18.1333Z" fill="white"/>
<path d="M16 23.6952H14.6286V25.5238H16V23.6952Z" fill="white"/>
<path d="M18.2095 11.5048H16.8381V13.3333H18.2095V11.5048Z" fill="white"/>
<path d="M18.2095 18.1333H16.8381V20.0381H18.2095V18.1333Z" fill="white"/>
<path d="M18.2095 23.6952H16.8381V25.5238H18.2095V23.6952Z" fill="white"/>
<path fill-rule="evenodd" clip-rule="evenodd" d="M29.4095 16.7619C29.181 16.7619 29.0286 16.9143 29.0286 17.1428C28.419 23.8476 22.8571 29.1047 16 29.1047C9.14286 29.1047 3.58095 23.8476 2.97143 17.1428C2.97143 16.9143 2.74286 16.7619 2.59048 16.7619C2.36191 16.7619 2.20953 16.9904 2.20953 17.219C2.81905 24.3047 8.76191 29.8666 16 29.8666C23.2381 29.8666 29.181 24.3047 29.7905 17.219C29.8667 16.9904 29.6381 16.7619 29.4095 16.7619ZM2.59048 15.2381C2.81905 15.2381 2.97143 15.0857 2.97143 14.8571C3.58095 8.15235 9.14286 2.9714 16 2.9714C22.8571 2.9714 28.419 8.22854 29.0286 14.8571C29.0286 15.0857 29.2571 15.2381 29.4095 15.2381C29.6381 15.2381 29.7905 15.0095 29.7905 14.7809C29.181 7.69521 23.2381 2.1333 16 2.1333C8.76191 2.1333 2.81905 7.69521 2.20953 14.7809C2.13333 15.0095 2.36191 15.2381 2.59048 15.2381Z" fill="white"/>
</g>
<defs>
<clipPath id="clip0_4418_591">
<rect width="32" height="32" rx="16" fill="white"/>
</clipPath>
</defs>
</svg>
