<svg width="32" height="32" viewBox="0 0 32 32" fill="none" xmlns="http://www.w3.org/2000/svg">
<path d="M16 0C7.17693 0 0 7.17724 0 16C0 24.8228 7.17693 32 16 32C24.8221 32 32 24.8218 32 16C32 7.17822 24.8221 0 16 0ZM17.415 30.3281C7.55083 31.3148 -0.566191 22.2385 2.11715 12.149C2.7597 9.76769 4.01349 7.59907 5.75223 5.86161C7.49746 4.11813 9.66456 2.86483 12.0386 2.226C22.1271 -0.457143 31.2036 7.65788 30.2189 17.5222C29.5488 24.2305 24.1238 29.6575 17.415 30.3281ZM19.5632 9.31906H25.4096L18.8378 23.9281V23.9026L13.0088 23.8977L9.40771 15.8962H15.2202L15.9145 17.438L19.5632 9.31906ZM15.7553 12.4642H7.02446L6.38543 11.0351H7.28959L6.51751 9.31906H12.2406L13.0127 11.0341H16.4011L15.7553 12.4642ZM14.8113 15.0387H7.97329L7.33232 13.6086H15.4513L14.8103 15.0377L14.8113 15.0387Z" fill="#ED0A4B"/>
</svg>
