<svg width="32" height="32" viewBox="0 0 32 32" fill="none" xmlns="http://www.w3.org/2000/svg">
<g clip-path="url(#clip0_4398_116)">
<path fill-rule="evenodd" clip-rule="evenodd" d="M16 0C24.8346 0 32 7.16288 32 16C32 24.8346 24.8346 32 16 32C7.16288 32 0 24.8358 0 16C0 7.16288 7.16288 0 16 0Z" fill="white"/>
<path fill-rule="evenodd" clip-rule="evenodd" d="M26.0928 6.71622L25.2147 7.5943C29.5603 12.3482 29.5603 19.6301 25.2147 24.3828L26.0928 25.2609C30.9274 20.0154 30.9274 11.9399 26.0928 6.69446V6.71622Z" fill="#5A5564"/>
<path fill-rule="evenodd" clip-rule="evenodd" d="M7.61212 6.79295C12.3635 2.44735 19.648 2.44735 24.4006 6.79295L25.2787 5.91487C20.0345 1.07775 11.9552 1.07775 6.71228 5.91359L7.61212 6.79295Z" fill="#5A5564"/>
<path fill-rule="evenodd" clip-rule="evenodd" d="M6.79298 24.3904C2.4525 19.6403 2.4525 12.3635 6.79298 7.61087L5.91362 6.73279C1.07778 11.9782 1.07778 20.055 5.91362 25.2979L6.79298 24.3904Z" fill="#5A5564"/>
<path fill-rule="evenodd" clip-rule="evenodd" d="M24.3904 25.2019C19.6391 29.5488 12.3559 29.5488 7.60324 25.2019L6.72388 26.0825C11.968 30.9171 20.0474 30.9171 25.2903 26.0825L24.3904 25.2019Z" fill="#5A5564"/>
<path fill-rule="evenodd" clip-rule="evenodd" d="M18.6624 13.7626C18.6624 15.5187 15.9155 15.3062 15.0413 15.3062V12.2112C15.9155 12.2112 18.6624 11.936 18.6624 13.7626ZM19.3792 18.569C19.3792 20.489 16.0883 20.2701 15.0387 20.2701V16.8627C16.0883 16.8627 19.3792 16.5632 19.3792 18.569ZM21.5475 13.0688C21.3721 11.2346 19.7913 10.6202 17.7894 10.432V7.90527H16.2432V10.3834C15.8349 10.3834 15.4201 10.3834 15.0067 10.3962V7.90527H13.4694V10.4474H12.4851H10.336V12.1024C10.336 12.1024 11.4777 12.0819 11.4611 12.1024C11.8886 12.0563 12.2765 12.3571 12.3392 12.7821V19.744C12.3289 19.8899 12.2624 20.0256 12.1536 20.1229C12.0435 20.2176 11.8989 20.265 11.7542 20.2573C11.7734 20.2726 10.6291 20.2573 10.6291 20.2573L10.3219 22.103H12.3366H13.4438V24.6874H14.9913V22.1414H16.2265V24.6746H17.7753V22.1222C20.3878 21.9622 22.2105 21.3197 22.4384 18.8723C22.624 16.905 21.6973 16.0256 20.2189 15.671C21.1174 15.2154 21.6819 14.409 21.5475 13.0688Z" fill="#F09242"/>
<path fill-rule="evenodd" clip-rule="evenodd" d="M15.9974 1.248C7.85536 1.25312 1.2608 7.85408 1.26208 15.9949C1.26336 24.1357 7.86304 30.7341 16.0051 30.7341C24.1459 30.7354 30.7482 24.137 30.7507 15.9962C30.7392 7.85536 24.1395 1.25824 15.9974 1.25568V1.248ZM15.9974 32C7.1616 31.9987 -0.00127983 24.8346 1.71524e-07 16C1.71524e-07 7.16288 7.16288 0.00128 15.9987 0C24.8333 0 31.9987 7.1616 32 15.9974C31.9898 24.832 24.8307 31.9898 15.9974 32Z" fill="#282138"/>
</g>
<defs>
<clipPath id="clip0_4398_116">
<rect width="32" height="32" fill="white"/>
</clipPath>
</defs>
</svg>
