<svg width="32" height="32" viewBox="0 0 32 32" fill="none" xmlns="http://www.w3.org/2000/svg">
<g clip-path="url(#clip0_4415_462)">
<rect width="32" height="32" rx="16" fill="white"/>
<path d="M16 32C24.8366 32 32 24.8366 32 16C32 7.16344 24.8366 0 16 0C7.16344 0 0 7.16344 0 16C0 24.8366 7.16344 32 16 32Z" fill="#0657F9"/>
<path fill-rule="evenodd" clip-rule="evenodd" d="M9.3312 6.29754L8.064 7.57754L11.136 10.7007L14.208 13.8239V16.7423V19.6607H16H17.792V16.7423V13.8239L20.864 10.7007L23.936 7.57754L22.6688 6.28474L21.4016 4.99194L18.7136 7.71834C17.2416 9.21594 16.0128 10.4447 16 10.4447C15.9744 10.4447 14.7584 9.22874 13.2864 7.73114C11.8144 6.23354 10.6112 5.01754 10.5984 5.01754C10.5856 5.01754 10.0096 5.59354 9.3184 6.29754H9.3312ZM8.0128 13.6063C7.5648 14.3999 7.1552 15.7951 7.04 16.9215C6.9888 17.4719 7.0144 18.6751 7.0912 19.2255C7.872 24.2943 12.5824 27.7503 17.5488 26.8671C20.8256 26.2911 23.5136 23.9487 24.5504 20.7615C24.896 19.7119 25.0112 19.0079 25.0112 17.8559C25.0112 16.6143 24.8704 15.7951 24.4736 14.6559C24.3328 14.2591 23.9872 13.4911 23.936 13.4911C23.9232 13.4911 23.296 14.1055 22.5664 14.8607C21.3248 16.1279 21.2224 16.2303 21.248 16.3327C21.2608 16.3967 21.2992 16.5631 21.3248 16.7167C21.4144 17.1519 21.4528 17.7535 21.4272 18.2399C21.3888 18.7647 21.3248 19.0847 21.1712 19.5711C20.672 21.1583 19.3536 22.5151 17.7664 23.0655C17.1648 23.2703 16.8192 23.3215 16.0384 23.3343C15.2448 23.3343 14.9504 23.2959 14.336 23.0911C12.6592 22.5407 11.3024 21.1071 10.816 19.4047C10.6624 18.8543 10.6112 18.4959 10.6112 17.8303C10.6112 17.2159 10.6368 17.0495 10.7904 16.3327C10.8032 16.2687 10.5088 15.9487 9.4464 14.8735L8.0896 13.4911L8.0128 13.6191V13.6063Z" fill="white"/>
</g>
<defs>
<clipPath id="clip0_4415_462">
<rect width="32" height="32" rx="16" fill="white"/>
</clipPath>
</defs>
</svg>
