<svg width="14" height="16" viewBox="0 0 14 16" fill="none" xmlns="http://www.w3.org/2000/svg">
<path d="M12 10.4904H6C5.725 10.4904 5.5 10.2662 5.5 9.9923V2.02307C5.5 1.74913 5.725 1.52499 6 1.52499H10.3781L12.5 3.63871V9.9923C12.5 10.2662 12.275 10.4904 12 10.4904ZM6 11.9846H12C13.1031 11.9846 14 11.0912 14 9.9923V3.63871C14 3.24336 13.8406 2.86357 13.5594 2.58341L11.4406 0.469692C11.1594 0.189524 10.7781 0.0307617 10.3813 0.0307617H6C4.89687 0.0307617 4 0.924187 4 2.02307V9.9923C4 11.0912 4.89687 11.9846 6 11.9846ZM2 4.01538C0.896875 4.01538 0 4.9088 0 6.00768V13.9769C0 15.0758 0.896875 15.9692 2 15.9692H8C9.10312 15.9692 10 15.0758 10 13.9769V12.9808H8.5V13.9769C8.5 14.2509 8.275 14.475 8 14.475H2C1.725 14.475 1.5 14.2509 1.5 13.9769V6.00768C1.5 5.73374 1.725 5.50961 2 5.50961H3V4.01538H2Z" fill="#232D42"/>
</svg>
