<svg width="42" height="42" viewBox="0 0 42 42" fill="none" xmlns="http://www.w3.org/2000/svg">
<path d="M3.93673 21.8261C3.93673 12.4787 11.5724 4.90489 20.9959 4.90489C26.1711 4.90489 30.8049 7.19087 33.9379 10.8029C34.6432 11.6245 35.8899 11.714 36.71 11.0144C37.5302 10.3148 37.6286 9.07823 36.9233 8.26472C33.0767 3.81477 27.3685 1 20.9959 1C9.39895 1 0 10.3229 0 21.8261V25.0801C0 26.1621 0.877563 27.0326 1.96837 27.0326C3.05917 27.0326 3.93673 26.1621 3.93673 25.0801V21.8261ZM41.5407 17.5226C41.3193 16.465 40.2695 15.7898 39.2115 16.0175C38.1535 16.2453 37.4646 17.2785 37.6942 18.3279C37.932 19.4587 38.0633 20.6302 38.0633 21.8342V25.0883C38.0633 26.1703 38.9408 27.0407 40.0316 27.0407C41.1224 27.0407 42 26.1703 42 25.0883V21.8261C42 20.3536 41.8442 18.9137 41.5489 17.5226H41.5407ZM20.9959 7.50814C19.4376 7.50814 17.9285 7.7522 16.5261 8.20777C15.2794 8.61453 14.9924 10.1358 15.8453 11.1283C16.4277 11.8035 17.3872 12.0069 18.2566 11.771C19.126 11.5351 20.0445 11.413 20.9959 11.413C26.7944 11.413 31.4939 16.0745 31.4939 21.8261V23.8517C31.4939 25.9018 31.3708 27.9437 31.133 29.9775C30.9936 31.1653 31.9039 32.2391 33.1178 32.2391C34.0855 32.2391 34.9139 31.5395 35.0287 30.5877C35.2994 28.3586 35.4388 26.1133 35.4388 23.8599V21.8261C35.4388 13.9187 28.976 7.50814 21.0041 7.50814H20.9959ZM12.3597 13.097C11.6134 12.2347 10.2847 12.1696 9.57938 13.0645C7.68483 15.4806 6.56122 18.5232 6.56122 21.8261V23.8517C6.56122 25.8204 6.34798 27.7892 5.9215 29.7009C5.64265 30.97 6.56942 32.2391 7.88166 32.2391C8.74282 32.2391 9.51377 31.6696 9.7024 30.8317C10.2273 28.5457 10.498 26.2109 10.498 23.8517V21.8261C10.498 19.6133 11.1951 17.5632 12.3761 15.8792C12.9666 15.0332 13.0322 13.878 12.3597 13.097ZM20.9959 14.0163C16.6491 14.0163 13.1224 17.5144 13.1224 21.8261V23.8517C13.1224 26.7723 12.7452 29.6684 11.9906 32.4832C11.679 33.6465 12.5401 34.8424 13.754 34.8424C14.5331 34.8424 15.222 34.338 15.4271 33.5895C16.2882 30.4168 16.7311 27.1465 16.7311 23.8517V21.8261C16.7311 19.4913 18.6421 17.5958 20.9959 17.5958C23.3497 17.5958 25.2607 19.4913 25.2607 21.8261V23.8517C25.2607 26.8048 24.9736 29.7416 24.4077 32.6296C24.1863 33.7604 25.0393 34.8424 26.1957 34.8424C27.0322 34.8424 27.754 34.2729 27.918 33.4594C28.5495 30.3029 28.8694 27.0895 28.8694 23.8517V21.8261C28.8694 17.5144 25.3427 14.0163 20.9959 14.0163ZM22.9643 21.8261C22.9643 20.7441 22.0867 19.8736 20.9959 19.8736C19.9051 19.8736 19.0275 20.7441 19.0275 21.8261V23.8517C19.0275 28.7247 18.1254 33.557 16.362 38.1046L15.8782 39.3492C15.4845 40.358 15.993 41.4888 17.01 41.8711C18.0269 42.2535 19.167 41.7573 19.5524 40.7485L20.0363 39.5038C21.9719 34.5088 22.9643 29.2047 22.9643 23.8517V21.8261Z" fill="#1749B9"/>
</svg>
