<svg width="50" height="40" viewBox="0 0 50 40" fill="none" xmlns="http://www.w3.org/2000/svg">
<path d="M2.5 5C3.88281 5 5 6.11719 5 7.5V32.5C5 33.8828 3.88281 35 2.5 35C1.11719 35 0 33.8828 0 32.5V7.5C0 6.11719 1.11719 5 2.5 5ZM19.2656 10.7344C20.2422 11.7109 20.2422 13.2969 19.2656 14.2734L16.0391 17.5H33.9687L30.7344 14.2656C29.7578 13.2891 29.7578 11.7031 30.7344 10.7266C31.7109 9.75 33.2969 9.75 34.2734 10.7266L41.7734 18.2266C42.75 19.2031 42.75 20.7891 41.7734 21.7656L34.2734 29.2656C33.2969 30.2422 31.7109 30.2422 30.7344 29.2656C29.7578 28.2891 29.7578 26.7031 30.7344 25.7266L33.9609 22.5H16.0312L19.2656 25.7344C20.2422 26.7109 20.2422 28.2969 19.2656 29.2734C18.2891 30.25 16.7031 30.25 15.7266 29.2734L8.22656 21.7734C7.25 20.7969 7.25 19.2109 8.22656 18.2344L15.7266 10.7344C16.7031 9.75781 18.2891 9.75781 19.2656 10.7344ZM50 7.5V32.5C50 33.8828 48.8828 35 47.5 35C46.1172 35 45 33.8828 45 32.5V7.5C45 6.11719 46.1172 5 47.5 5C48.8828 5 50 6.11719 50 7.5Z" fill="#1749B9"/>
</svg>
