<svg width="42" height="42" viewBox="0 0 42 42" fill="none" xmlns="http://www.w3.org/2000/svg">
<path d="M14.5714 11.8125V15.75H27.4286V11.8125C27.4286 8.18672 24.5518 5.25 21 5.25C17.4482 5.25 14.5714 8.18672 14.5714 11.8125ZM9.42857 15.75V11.8125C9.42857 5.29102 14.6116 0 21 0C27.3884 0 32.5714 5.29102 32.5714 11.8125V15.75H33.8571C36.6937 15.75 39 18.1043 39 21V36.75C39 39.6457 36.6937 42 33.8571 42H8.14286C5.30625 42 3 39.6457 3 36.75V21C3 18.1043 5.30625 15.75 8.14286 15.75H9.42857Z" fill="#1749B9"/>
</svg>
