<svg width="14" height="14" viewBox="0 0 14 14" fill="none" xmlns="http://www.w3.org/2000/svg">
<path d="M0 1.53496C0 0.712099 0.671875 0.0444946 1.5 0.0444946H4.5C5.32812 0.0444946 6 0.712099 6 1.53496V4.51589C6 5.33875 5.32812 6.00636 4.5 6.00636H1.5C0.671875 6.00636 0 5.33875 0 4.51589V1.53496ZM2 2.03178V4.01907H4V2.03178H2ZM0 9.48411C0 8.66125 0.671875 7.99365 1.5 7.99365H4.5C5.32812 7.99365 6 8.66125 6 9.48411V12.465C6 13.2879 5.32812 13.9555 4.5 13.9555H1.5C0.671875 13.9555 0 13.2879 0 12.465V9.48411ZM2 9.98094V11.9682H4V9.98094H2ZM9.5 0.0444946H12.5C13.3281 0.0444946 14 0.712099 14 1.53496V4.51589C14 5.33875 13.3281 6.00636 12.5 6.00636H9.5C8.67188 6.00636 8 5.33875 8 4.51589V1.53496C8 0.712099 8.67188 0.0444946 9.5 0.0444946ZM12 2.03178H10V4.01907H12V2.03178ZM8 8.49047C8 8.21722 8.225 7.99365 8.5 7.99365H10.5C10.775 7.99365 11 8.21722 11 8.49047C11 8.76372 11.225 8.98729 11.5 8.98729H12.5C12.775 8.98729 13 8.76372 13 8.49047C13 8.21722 13.225 7.99365 13.5 7.99365C13.775 7.99365 14 8.21722 14 8.49047V11.4714C14 11.7447 13.775 11.9682 13.5 11.9682H11.5C11.225 11.9682 11 11.7447 11 11.4714C11 11.1981 10.775 10.9746 10.5 10.9746C10.225 10.9746 10 11.1981 10 11.4714V13.4587C10 13.7319 9.775 13.9555 9.5 13.9555H8.5C8.225 13.9555 8 13.7319 8 13.4587V8.49047ZM11.5 13.9555C11.3674 13.9555 11.2402 13.9032 11.1464 13.81C11.0527 13.7168 11 13.5905 11 13.4587C11 13.3269 11.0527 13.2006 11.1464 13.1074C11.2402 13.0142 11.3674 12.9619 11.5 12.9619C11.6326 12.9619 11.7598 13.0142 11.8536 13.1074C11.9473 13.2006 12 13.3269 12 13.4587C12 13.5905 11.9473 13.7168 11.8536 13.81C11.7598 13.9032 11.6326 13.9555 11.5 13.9555ZM13.5 13.9555C13.3674 13.9555 13.2402 13.9032 13.1464 13.81C13.0527 13.7168 13 13.5905 13 13.4587C13 13.3269 13.0527 13.2006 13.1464 13.1074C13.2402 13.0142 13.3674 12.9619 13.5 12.9619C13.6326 12.9619 13.7598 13.0142 13.8536 13.1074C13.9473 13.2006 14 13.3269 14 13.4587C14 13.5905 13.9473 13.7168 13.8536 13.81C13.7598 13.9032 13.6326 13.9555 13.5 13.9555Z" fill="#232D42"/>
</svg>
