<svg width="496" height="512" viewBox="0 0 496 512" fill="none" xmlns="http://www.w3.org/2000/svg">
<path d="M248 8C111 8 0 119 0 256C0 393 111 504 248 504C385 504 496 393 496 256C496 119 385 8 248 8ZM363 176.7C359.3 215.9 343.1 311.1 334.9 355C331.4 373.6 324.6 379.8 318 380.4C303.6 381.7 292.7 370.9 278.7 361.7C256.9 347.4 244.5 338.5 223.4 324.5C198.9 308.4 214.8 299.5 228.7 285C232.4 281.2 295.8 223.5 297 218.3C297.2 217.6 297.3 215.2 295.8 213.9C294.3 212.6 292.2 213.1 290.7 213.4C288.5 213.867 253.633 236.9 186.1 282.5C176.233 289.3 167.267 292.6 159.2 292.4C150.3 292.2 133.3 287.4 120.6 283.3C105.1 278.3 92.7 275.6 93.8 267C94.3333 262.533 100.5 257.967 112.3 253.3C184.567 221.833 232.767 201.067 256.9 191C325.8 162.4 340.1 157.4 349.4 157.2C351.5 157.2 356 157.7 359 160.1C360.958 161.821 362.206 164.21 362.5 166.8C363.041 170.07 363.208 173.392 363 176.7Z" fill="white"/>
</svg>
