<svg width="1440" height="840" viewBox="0 0 1440 840" fill="none" xmlns="http://www.w3.org/2000/svg">
<g clip-path="url(#clip0_126_4930)">
<path d="M1440 0H0V900H1440V0Z" fill="url(#paint0_linear_126_4930)"/>
<path d="M1440 0H0V900H1440V0Z" fill="url(#paint1_linear_126_4930)"/>
<mask id="mask0_126_4930" style="mask-type:luminance" maskUnits="userSpaceOnUse" x="0" y="0" width="1440" height="900">
<path d="M1440 0H0V900H1440V0Z" fill="white"/>
</mask>
<g mask="url(#mask0_126_4930)">
<g style="mix-blend-mode:lighten">
<path d="M720 700.89C764.541 700.89 800.65 664.782 800.65 620.24C800.65 575.698 764.541 539.59 720 539.59C675.458 539.59 639.35 575.698 639.35 620.24C639.35 664.782 675.458 700.89 720 700.89Z" fill="white"/>
</g>
<path d="M961.76 610.801C961.56 611.011 963.23 618.301 960.46 620.011L969.02 618.221C969.02 618.221 966.18 615.011 966.13 611.321C966.13 611.321 965.76 606.571 961.77 610.811L961.76 610.801Z" fill="#242D42"/>
<path d="M1500.65 465.721C1500.65 465.721 1409.65 408.351 1377.95 410.261C1346.24 412.171 1288.7 500.891 1242.94 514.621C1197.18 528.351 1006.26 614.391 1006.26 614.391C1006.26 614.391 1519.88 579.561 1518.5 577.991C1517.13 576.421 1500.65 465.721 1500.65 465.721Z" fill="url(#paint2_linear_126_4930)"/>
<path d="M1317.15 500.601C1338.42 488.191 1359.09 444.651 1377.8 410.271C1346.06 412.451 1288.63 500.911 1242.94 514.621C1197.18 528.351 1006.26 614.391 1006.26 614.391C1006.26 614.391 1087.2 608.901 1184.74 602.181C1230.22 565.201 1294.88 513.601 1317.15 500.601Z" fill="url(#paint3_linear_126_4930)"/>
<path d="M-51.49 423.78C-47.83 420.78 31.01 346.43 65.97 359.97C100.93 373.5 223.95 549.04 224.46 548.36C224.97 547.68 -30.57 604.83 -30.4 600.69C-30.22 596.56 -51.5 423.78 -51.5 423.78H-51.49Z" fill="url(#paint4_linear_126_4930)"/>
<path d="M0.709961 577.98C0.709961 577.98 235.96 485.78 299.13 496.77C362.3 507.76 362.3 561.31 392.51 566.8C422.72 572.29 426.84 566.8 444.69 570.92C462.54 575.04 606.72 631.41 606.72 631.41C606.72 631.41 170.55 650.96 0.709961 577.99V577.98Z" fill="url(#paint5_linear_126_4930)"/>
<path d="M432.17 588.71C460.3 595.4 463.65 587.06 480.34 592.3C488.36 594.82 524.09 613.82 559.03 632.88C588.88 632.21 606.72 631.41 606.72 631.41C606.72 631.41 462.54 575.04 444.69 570.92C431.83 567.95 426.09 569.97 412.59 569.28C418.39 579.38 424.36 586.85 432.17 588.71Z" fill="url(#paint6_linear_126_4930)"/>
<path d="M296.28 496.36C229.21 488.43 0.709961 577.98 0.709961 577.98C27.84 589.64 61.78 598.931 99.64 606.321C143.93 576.461 235.36 517.491 296.28 496.351V496.36Z" fill="url(#paint7_linear_126_4930)"/>
<path d="M627.28 630.6C627.28 630.6 656.16 601.71 701.47 600.05C746.78 598.39 756.4 598.78 793.47 577.99C830.55 557.19 847.02 531.13 888.22 543.48C929.42 555.82 1129.9 600.05 1129.9 600.05C1129.9 600.05 777.58 679.3 627.28 630.6Z" fill="url(#paint8_linear_126_4930)"/>
<path d="M762.18 609.03C791.96 605.07 798.34 605.06 821.19 580.42C833.87 566.75 842.239 551.59 851.979 542.8C832.899 548.8 817.51 564.49 793.46 577.98C756.38 598.78 746.77 598.38 701.46 600.04C656.15 601.7 627.27 630.59 627.27 630.59C652.17 638.66 682.629 643.21 716.099 645.2C719.099 639.78 735.38 612.59 762.18 609.03Z" fill="url(#paint9_linear_126_4930)"/>
<path d="M1384.85 553.71C1384.85 553.71 1294.19 539.34 1242.94 514.62C1191.69 489.9 1161.48 459.38 1129.9 465.72C1098.32 472.06 1002.2 557.36 961 564.83C919.8 572.3 781.53 631.41 781.53 631.41C781.53 631.41 1048.88 717.77 1057.12 718.5C1065.36 719.23 1384.85 553.71 1384.85 553.71Z" fill="url(#paint10_linear_126_4930)"/>
<path d="M873.38 654.1C873.38 654.1 979.62 581.71 1011.27 572.56C1035.26 565.63 1083.47 503.97 1115.98 471.13C1076.08 491.37 997.27 558.25 961 564.83C919.8 572.3 781.53 631.41 781.53 631.41C781.53 631.41 843.61 651.46 908.86 672.32C887.69 661.46 873.38 654.1 873.38 654.1Z" fill="url(#paint11_linear_126_4930)"/>
<path d="M334.83 613.56C334.83 613.56 387.02 595.9 424.09 597.83C461.17 599.76 492.75 598.77 517.47 585.53C542.19 572.29 571.02 555.98 594.37 564.82C617.72 573.66 705.55 622.13 833.28 628.11C833.28 628.11 440.56 657.6 334.84 613.56H334.83Z" fill="url(#paint12_linear_126_4930)"/>
<path d="M428.74 623.77C428.74 623.77 461.26 602.59 484.37 604.9C507.47 607.21 527.16 606.03 542.56 590.15C554.79 577.55 568.63 562.64 581.09 562.32C560.63 561.83 537.67 574.7 517.47 585.52C492.75 598.76 461.17 599.75 424.09 597.82C387.01 595.89 334.83 613.55 334.83 613.55C359.11 623.67 398.54 629.9 444.87 633.51C438.73 630.66 433.31 627.42 428.75 623.77H428.74Z" fill="url(#paint13_linear_126_4930)"/>
<path d="M343.19 593.1C343.43 593.1 347.94 600.6 347.47 601.38C347 602.16 345.85 601.56 345.85 601.56C345.85 601.56 348.05 604.55 347.61 605.04C347.17 605.53 346.26 605.19 346.26 605.19C346.26 605.19 348.92 607.74 348.3 608.2C347.68 608.66 346.63 608 346.63 608C346.63 608 350.53 612.25 349.88 612.93C349.23 613.61 348.06 613.13 348.06 613.13C348.06 613.13 351.73 616.99 351.18 617.59C350.63 618.19 348.57 617.36 348.57 617.36C348.57 617.36 349.33 618.5 348.31 618.9C347.29 619.3 346.38 618.13 346.38 618.13C346.38 618.13 346.69 619.39 345.17 619.29C343.65 619.19 342.75 618.07 342.75 618.07C342.75 618.07 342.62 619.42 341.53 619.43C340.44 619.44 340.25 618.18 340.25 618.18C340.25 618.18 339.47 619.72 338.43 619.39C337.39 619.06 337.49 617.99 337.49 617.99C337.49 617.99 335.66 620.04 334.63 618.81C333.6 617.58 336.35 615.21 336.35 615.21C336.35 615.21 334.94 616.04 334.64 615.35C334.34 614.66 337.58 608.73 337.58 608.73C337.58 608.73 336.92 609.83 336.42 608.86C335.92 607.89 338.56 605.09 338.56 605.09C338.56 605.09 337.69 606.25 337.28 605.62C336.87 604.99 339.49 601.23 339.49 601.23C339.49 601.23 338.75 602.2 338.2 601.37C337.65 600.54 340.91 593.16 343.18 593.07L343.19 593.1Z" fill="#242D42"/>
<path d="M311.68 577.21C312.03 577.24 317.44 589.05 316.61 590.12C315.78 591.19 314.18 590.12 314.18 590.12C314.18 590.12 316.93 594.89 316.19 595.55C315.45 596.21 314.18 595.55 314.18 595.55C314.18 595.55 317.68 599.74 316.69 600.32C315.7 600.9 314.27 599.74 314.27 599.74C314.27 599.74 319.32 606.65 318.25 607.55C317.18 608.45 315.54 607.55 315.54 607.55C315.54 607.55 320.31 613.85 319.41 614.65C318.51 615.45 315.6 613.89 315.6 613.89C315.6 613.89 316.53 615.7 314.97 616.11C313.41 616.52 312.26 614.65 312.26 614.65C312.26 614.65 312.51 616.55 310.29 616.17C308.07 615.78 306.92 613.97 306.92 613.97C306.92 613.97 306.5 615.94 304.9 615.78C303.3 615.62 303.22 613.72 303.22 613.72C303.22 613.72 301.82 615.86 300.34 615.2C298.86 614.54 299.19 612.98 299.19 612.98C299.19 612.98 296.15 615.69 294.83 613.72C293.51 611.75 297.96 608.7 297.96 608.7C297.96 608.7 295.74 609.69 295.41 608.62C295.08 607.55 300.84 599.35 300.84 599.35C300.84 599.35 299.69 600.86 299.11 599.35C298.53 597.84 302.89 594.14 302.89 594.14C302.89 594.14 301.41 595.7 300.92 594.72C300.43 593.74 304.9 588.61 304.9 588.61C304.9 588.61 303.65 589.91 302.97 588.61C302.29 587.31 308.32 576.96 311.69 577.2L311.68 577.21Z" fill="#242D42"/>
<path d="M331.15 572.43C331.57 572.45 338.57 586.46 337.62 587.78C336.67 589.1 334.7 587.88 334.7 587.88C334.7 587.88 338.21 593.51 337.35 594.33C336.49 595.15 334.92 594.41 334.92 594.41C334.92 594.41 339.3 599.32 338.14 600.05C336.98 600.78 335.2 599.46 335.2 599.46C335.2 599.46 341.57 607.57 340.32 608.71C339.07 609.85 337.05 608.82 337.05 608.82C337.05 608.82 343.05 616.21 342 617.21C340.94 618.21 337.38 616.45 337.38 616.45C337.38 616.45 338.57 618.59 336.71 619.15C334.85 619.71 333.38 617.51 333.38 617.51C333.38 617.51 333.75 619.79 331.07 619.42C328.38 619.04 326.92 616.91 326.92 616.91C326.92 616.91 326.49 619.3 324.56 619.17C322.63 619.04 322.45 616.76 322.45 616.76C322.45 616.76 320.85 619.39 319.04 618.66C317.23 617.93 317.56 616.03 317.56 616.03C317.56 616.03 314.01 619.42 312.34 617.1C310.67 614.78 315.9 610.93 315.9 610.93C315.9 610.93 313.27 612.21 312.83 610.93C312.39 609.65 318.99 599.55 318.99 599.55C318.99 599.55 317.67 601.41 316.91 599.62C316.15 597.83 321.25 593.2 321.25 593.2C321.25 593.2 319.53 595.14 318.9 593.97C318.27 592.8 323.45 586.45 323.45 586.45C323.45 586.45 322 588.07 321.13 586.53C320.26 584.99 327.09 572.28 331.16 572.44L331.15 572.43Z" fill="#242D42"/>
<path d="M405.55 583.54C405.9 583.53 412.54 594.7 411.84 595.85C411.14 597 409.43 596.11 409.43 596.11C409.43 596.11 412.68 600.56 412.01 601.29C411.34 602.02 410.01 601.51 410.01 601.51C410.01 601.51 413.94 605.31 413.01 605.98C412.09 606.66 410.54 605.67 410.54 605.67C410.54 605.67 416.3 612 415.33 613.01C414.36 614.02 412.63 613.3 412.63 613.3C412.63 613.3 418.05 619.05 417.23 619.94C416.41 620.83 413.36 619.59 413.36 619.59C413.36 619.59 414.48 621.29 412.97 621.87C411.46 622.45 410.12 620.71 410.12 620.71C410.12 620.71 410.57 622.58 408.32 622.43C406.07 622.28 404.73 620.61 404.73 620.61C404.73 620.61 404.52 622.62 402.92 622.62C401.31 622.62 401.03 620.76 401.03 620.76C401.03 620.76 399.87 623.04 398.33 622.54C396.79 622.04 396.95 620.46 396.95 620.46C396.95 620.46 394.21 623.48 392.7 621.66C391.19 619.84 395.27 616.34 395.27 616.34C395.27 616.34 393.17 617.56 392.73 616.53C392.29 615.5 397.14 606.73 397.14 606.73C397.14 606.73 396.16 608.35 395.42 606.91C394.69 605.47 398.63 601.33 398.63 601.33C398.63 601.33 397.33 603.04 396.73 602.11C396.13 601.18 400.04 595.61 400.04 595.61C400.04 595.61 398.94 597.04 398.12 595.82C397.3 594.6 402.19 583.66 405.57 583.55L405.55 583.54Z" fill="#242D42"/>
<path d="M1090.41 571.78C1090.73 571.74 1097.75 581.42 1097.2 582.54C1096.65 583.66 1095.01 582.98 1095.01 582.98C1095.01 582.98 1098.36 586.79 1097.81 587.51C1097.26 588.24 1095.99 587.87 1095.99 587.87C1095.99 587.87 1099.9 591.02 1099.12 591.72C1098.34 592.42 1096.83 591.64 1096.83 591.64C1096.83 591.64 1102.64 596.96 1101.84 597.97C1101.04 598.98 1099.39 598.46 1099.39 598.46C1099.39 598.46 1104.83 603.28 1104.16 604.16C1103.49 605.04 1100.59 604.16 1100.59 604.16C1100.59 604.16 1101.76 605.62 1100.42 606.28C1099.08 606.93 1097.71 605.46 1097.71 605.46C1097.71 605.46 1098.28 607.13 1096.2 607.18C1094.13 607.23 1092.76 605.81 1092.76 605.81C1092.76 605.81 1092.74 607.67 1091.27 607.81C1089.8 607.95 1089.38 606.26 1089.38 606.26C1089.38 606.26 1088.51 608.44 1087.05 608.12C1085.6 607.79 1085.61 606.32 1085.61 606.32C1085.61 606.32 1083.36 609.32 1081.81 607.78C1080.27 606.24 1083.72 602.69 1083.72 602.69C1083.72 602.69 1081.89 603.98 1081.4 603.08C1080.91 602.18 1084.62 593.73 1084.62 593.73C1084.62 593.73 1083.85 595.3 1083.06 594.04C1082.27 592.78 1085.53 588.66 1085.53 588.66C1085.53 588.66 1084.48 590.34 1083.85 589.54C1083.22 588.74 1086.34 583.3 1086.34 583.3C1086.34 583.3 1085.45 584.7 1084.6 583.65C1083.75 582.6 1087.31 572.17 1090.4 571.78H1090.41Z" fill="#242D42"/>
<path d="M1121.39 552.27C1121.84 552.21 1132.03 565.83 1131.27 567.43C1130.51 569.03 1128.17 568.1 1128.17 568.1C1128.17 568.1 1133.01 573.44 1132.25 574.49C1131.49 575.54 1129.67 575.05 1129.67 575.05C1129.67 575.05 1135.31 579.45 1134.2 580.46C1133.09 581.47 1130.94 580.39 1130.94 580.39C1130.94 580.39 1139.31 587.83 1138.2 589.29C1137.08 590.74 1134.73 590.04 1134.73 590.04C1134.73 590.04 1142.58 596.78 1141.64 598.05C1140.7 599.32 1136.56 598.12 1136.56 598.12C1136.56 598.12 1138.25 600.18 1136.36 601.14C1134.47 602.1 1132.48 600.03 1132.48 600.03C1132.48 600.03 1133.32 602.4 1130.37 602.51C1127.42 602.63 1125.45 600.63 1125.45 600.63C1125.45 600.63 1125.45 603.27 1123.37 603.5C1121.29 603.73 1120.65 601.33 1120.65 601.33C1120.65 601.33 1119.45 604.45 1117.38 604.02C1115.3 603.59 1115.29 601.5 1115.29 601.5C1115.29 601.5 1112.15 605.81 1109.92 603.65C1107.69 601.49 1112.53 596.37 1112.53 596.37C1112.53 596.37 1109.96 598.25 1109.24 596.97C1108.52 595.69 1113.62 583.61 1113.62 583.61C1113.62 583.61 1112.56 585.85 1111.41 584.09C1110.26 582.32 1114.81 576.38 1114.81 576.38C1114.81 576.38 1113.35 578.79 1112.44 577.66C1111.54 576.53 1115.85 568.74 1115.85 568.74C1115.85 568.74 1114.61 570.75 1113.38 569.27C1112.15 567.79 1117 552.88 1121.38 552.26L1121.39 552.27Z" fill="#242D42"/>
<path d="M1153.54 556.021C1153.94 556.021 1161.19 569.03 1160.35 570.32C1159.51 571.62 1157.58 570.54 1157.58 570.54C1157.58 570.54 1161.16 575.74 1160.37 576.56C1159.58 577.38 1158.07 576.74 1158.07 576.74C1158.07 576.74 1162.45 581.211 1161.37 581.961C1160.29 582.711 1158.55 581.521 1158.55 581.521C1158.55 581.521 1164.95 588.951 1163.81 590.081C1162.67 591.211 1160.71 590.331 1160.71 590.331C1160.71 590.331 1166.73 597.091 1165.77 598.091C1164.81 599.081 1161.35 597.56 1161.35 597.56C1161.35 597.56 1162.58 599.541 1160.83 600.151C1159.08 600.761 1157.6 598.73 1157.6 598.73C1157.6 598.73 1158.05 600.881 1155.48 600.641C1152.91 600.401 1151.43 598.44 1151.43 598.44C1151.43 598.44 1151.13 600.73 1149.29 600.69C1147.45 600.65 1147.18 598.49 1147.18 598.49C1147.18 598.49 1145.78 601.06 1144.03 600.44C1142.28 599.82 1142.51 598.01 1142.51 598.01C1142.51 598.01 1139.28 601.39 1137.6 599.25C1135.92 597.11 1140.71 593.24 1140.71 593.24C1140.71 593.24 1138.26 594.57 1137.79 593.38C1137.32 592.19 1143.15 582.3 1143.15 582.3C1143.15 582.3 1141.97 584.121 1141.18 582.461C1140.39 580.791 1145.03 576.17 1145.03 576.17C1145.03 576.17 1143.48 578.09 1142.83 577.01C1142.18 575.93 1146.83 569.67 1146.83 569.67C1146.83 569.67 1145.52 571.271 1144.63 569.841C1143.73 568.411 1149.68 556.041 1153.55 556.021H1153.54Z" fill="#242D42"/>
<path d="M528.01 630.431C528.01 630.431 530.36 622.691 523.38 623.231C523.38 623.231 522.6 617.551 515.62 617.941C515.62 617.941 512.13 613.241 505.53 617.921C505.53 617.921 505.92 611.731 500.1 613.291C500.1 613.291 497.77 607.471 493.11 609.801C488.45 612.131 489.62 617.951 489.62 617.951C489.62 617.951 485.74 612.131 483.02 614.461L480.3 616.791C480.3 616.791 479.14 612.911 474.09 614.461C474.09 614.461 474.48 609.091 470.21 609.251C465.94 609.411 465.16 613.681 465.16 613.681C465.16 613.681 460.11 609.411 455.85 613.681C455.85 613.681 451.97 606.691 444.6 612.901C444.6 612.901 438.39 607.471 434.51 612.901C434.51 612.901 429.08 609.411 425.58 614.061C425.58 614.061 415.28 611.451 412.77 617.941C412.77 617.941 404.13 616.131 403.6 622.271" fill="#242D42"/>
<path d="M971.069 619.96C970.189 620.04 963.739 620.18 965.569 616.39C967.399 612.59 971.069 614.42 971.069 614.42C971.069 614.42 966.189 610.76 971.069 609.84L975.949 608.92C975.949 608.92 973.509 602.78 978.089 602.04C982.669 601.3 983.889 602.04 983.889 602.04C983.889 602.04 983.579 602.73 987.249 601.71C990.909 600.69 991.519 604.65 991.519 604.65C991.519 604.65 992.739 600.95 997.319 602.04C1001.9 603.13 1001.59 607.4 1001.59 607.4C1001.59 607.4 1002.71 604.96 1006.27 606.18C1009.83 607.4 1009.83 610.76 1009.83 610.76C1009.83 610.76 1024.12 607.69 1022.36 615.29L971.079 619.95L971.069 619.96Z" fill="#242D42"/>
<path d="M997.31 609.93C997.31 609.93 996.7 601.69 1001.89 601.08C1007.08 600.47 1008.91 602.55 1008.91 602.55C1008.91 602.55 1010.44 597.73 1013.79 597.73C1017.14 597.73 1018.98 599.56 1018.98 599.56C1018.98 599.56 1020.2 592.24 1027.52 592.24C1034.84 592.24 1036.06 596.36 1036.06 596.36C1036.06 596.36 1039.72 592.57 1043.38 594.69C1047.04 596.81 1047.27 599.08 1047.27 599.08C1047.27 599.08 1049.18 597.11 1053.14 598.94C1057.11 600.77 1057.72 602.54 1057.72 602.54C1057.72 602.54 1058.33 600.46 1063.21 601.07C1068.09 601.68 1067.79 605.34 1067.79 605.34C1067.79 605.34 1069.32 600.12 1073.59 603.03C1077.86 605.95 1077.52 609.02 1077.52 609.02L997.28 620.98L997.3 609.92L997.31 609.93Z" fill="#242D42"/>
<path d="M947.66 592.68C945.85 593.87 941.06 603.94 941.79 605.06C942.52 606.18 944.19 605.25 944.19 605.25C944.19 605.25 941.1 609.75 941.78 610.46C942.46 611.17 943.77 610.62 943.77 610.62C943.77 610.62 939.99 614.49 940.92 615.14C941.85 615.79 943.36 614.76 943.36 614.76C943.36 614.76 937.84 621.2 938.82 622.17C939.81 623.15 941.5 622.38 941.5 622.38C941.5 622.38 936.3 628.23 937.13 629.09C937.96 629.95 940.95 628.63 940.95 628.63C940.95 628.63 939.89 630.35 941.4 630.87C942.91 631.4 944.19 629.64 944.19 629.64C944.19 629.64 943.8 631.5 946.02 631.29C948.24 631.08 949.52 629.38 949.52 629.38C949.52 629.38 949.78 631.36 951.38 631.32C952.97 631.28 953.2 629.42 953.2 629.42C953.2 629.42 954.42 631.64 955.93 631.1C957.44 630.56 957.24 629 957.24 629C957.24 629 960.04 631.92 961.49 630.07C962.94 628.22 958.79 624.87 958.79 624.87C958.79 624.87 960.91 626.02 961.32 624.99C961.73 623.96 956.67 615.41 956.67 615.41C956.67 615.41 957.69 616.99 958.38 615.54C959.06 614.1 955.04 610.1 955.04 610.1C955.04 610.1 956.38 611.76 956.95 610.82C957.51 609.88 953.49 604.47 953.49 604.47C953.49 604.47 954.62 605.85 955.39 604.62C956.16 603.39 950.46 590.84 947.66 592.68Z" fill="#242D42"/>
<path d="M1471.81 536.59C1471.81 536.59 1462.2 912.83 1458.08 910.09C1453.97 907.35 -31.7998 925.19 -31.7998 925.19L-16.3298 560.55C-5.06981 564.56 302.32 628.46 689.91 631.31C700.11 631.39 710.37 631.42 720.69 631.41C734.13 631.39 747.55 631.27 760.94 631.02C1128.08 624.45 1471.81 536.6 1471.81 536.6V536.59Z" fill="url(#paint14_linear_126_4930)"/>
<path d="M827.12 837.32C827.12 837.32 505.11 815.35 532.57 810.55C560.03 805.75 638.99 756.99 649.84 739.99C660.69 722.99 606.03 714.43 599.85 688.45C595.43 669.86 646.61 644.39 677.56 631.32C687.76 631.4 698.02 631.43 708.34 631.42C721.78 631.4 735.2 631.28 748.59 631.03C726.27 644.74 685.39 672.62 688.28 691.33C692.26 716.98 814.07 731.6 837.42 754.26C860.76 776.92 827.12 837.34 827.12 837.34V837.32Z" fill="#16CCD5"/>
<path d="M1199.36 690.59C1198.51 691.31 1201.69 719.54 1190.5 724.82L1223.59 721.71C1223.59 721.71 1214.22 708.36 1215.63 694.4C1215.63 694.4 1216.26 676.3 1199.36 690.6V690.59Z" fill="#242D42"/>
<path d="M1206.08 551.361C1199.05 555.641 1179.51 593.25 1182.14 597.6C1184.77 601.95 1191.22 598.631 1191.22 598.631C1191.22 598.631 1178.89 615.321 1181.38 618.091C1183.87 620.871 1188.92 618.941 1188.92 618.941C1188.92 618.941 1174.05 633.161 1177.51 635.731C1180.97 638.301 1186.82 634.601 1186.82 634.601C1186.82 634.601 1164.98 658.321 1168.6 662.16C1172.22 666 1178.76 663.311 1178.76 663.311C1178.76 663.311 1158.24 684.861 1161.28 688.241C1164.33 691.611 1175.86 686.991 1175.86 686.991C1175.86 686.991 1171.61 693.371 1177.29 695.571C1182.96 697.771 1188.07 691.271 1188.07 691.271C1188.07 691.271 1186.34 698.291 1194.82 697.781C1203.3 697.271 1208.37 690.98 1208.37 690.98C1208.37 690.98 1209.11 698.551 1215.16 698.611C1221.21 698.671 1222.32 691.631 1222.32 691.631C1222.32 691.631 1226.65 700.231 1232.47 698.391C1238.29 696.551 1237.72 690.571 1237.72 690.571C1237.72 690.571 1247.96 702.021 1253.72 695.191C1259.48 688.361 1244.15 675.091 1244.15 675.091C1244.15 675.091 1252.04 679.721 1253.73 675.861C1255.41 672.001 1237.34 638.871 1237.34 638.871C1237.34 638.871 1241.01 644.991 1243.8 639.601C1246.59 634.211 1231.85 618.511 1231.85 618.511C1231.85 618.511 1236.73 624.991 1238.99 621.501C1241.26 618.021 1226.67 596.941 1226.67 596.941C1226.67 596.941 1230.79 602.341 1233.89 597.761C1236.99 593.181 1216.97 544.751 1206.09 551.371L1206.08 551.361Z" fill="url(#paint15_linear_126_4930)"/>
<path d="M156.76 450C155.03 449.83 118.42 503.22 121.54 509.17C124.67 515.12 133.44 511.24 133.44 511.24C133.44 511.24 115.86 532.3 118.93 536.16C122 540.02 128.82 537.88 128.82 537.88C128.82 537.88 108.08 555.49 112.44 559.15C116.8 562.82 124.81 558.39 124.81 558.39C124.81 558.39 94.13 587.99 98.61 593.34C103.09 598.69 111.93 595.65 111.93 595.65C111.93 595.65 83.1501 622.5 86.9101 627.19C90.6701 631.88 106.25 626.68 106.25 626.68C106.25 626.68 100.15 634.77 107.46 638.12C114.78 641.47 122.02 633.29 122.02 633.29C122.02 633.29 119.19 642.42 130.42 642.41C141.65 642.4 148.84 634.5 148.84 634.5C148.84 634.5 149.22 644.55 157.21 645.1C165.2 645.65 167.21 636.44 167.21 636.44C167.21 636.44 172.25 648.13 180.08 646.16C187.91 644.19 187.62 636.24 187.62 636.24C187.62 636.24 200.24 652.15 208.38 643.59C216.52 635.02 197.32 616.31 197.32 616.31C197.32 616.31 207.38 623.05 209.9 618.08C212.43 613.11 191.16 567.97 191.16 567.97C191.16 567.97 195.53 576.34 199.64 569.44C203.75 562.54 185.51 540.67 185.51 540.67C185.51 540.67 191.44 549.6 194.71 545.18C197.98 540.76 180.36 511.79 180.36 511.79C180.36 511.79 185.37 519.24 189.82 513.43C194.27 507.62 173.51 451.69 156.75 450.03L156.76 450Z" fill="url(#paint16_linear_126_4930)"/>
<path d="M1392.05 662.76C1392.05 662.76 1395.82 714.14 1377.61 730.81L1443.45 717.86C1443.45 717.86 1426.46 686.82 1429.44 658.87C1429.44 658.87 1414.32 640.88 1392.05 662.76Z" fill="#242D42"/>
<path d="M1385.74 386.52C1382.42 385.51 1341.25 456.89 1346.05 466.78C1350.85 476.67 1363.48 463.58 1363.48 463.58C1363.48 463.58 1332.16 503.24 1335.59 510.87C1339.02 518.5 1351.73 514.3 1351.73 514.3C1351.73 514.3 1315.5 541.1 1331.41 554.33C1331.41 554.33 1305.55 583.33 1321.06 598.44C1321.06 598.44 1286.49 645.3 1291.69 653.3C1296.89 661.3 1323.52 647.24 1323.52 647.24C1323.52 647.24 1311.78 665.44 1326.12 667.5C1340.46 669.56 1353.43 659.5 1353.43 659.5C1353.43 659.5 1346.24 674.79 1360.05 674.73C1373.86 674.67 1381.37 662.47 1381.37 662.47C1381.37 662.47 1382.94 673.64 1396 672.47C1409.06 671.3 1416.51 664.01 1416.51 664.01C1416.51 664.01 1431.69 676.1 1449.38 667.04C1467.07 657.98 1468.97 672.18 1494.66 657.93C1507.99 650.53 1473.79 603.07 1473.79 603.07C1473.79 603.07 1479.61 603.5 1486.67 598.1C1493.73 592.7 1452.99 552.53 1452.99 552.53C1452.99 552.53 1472.28 558.98 1473.74 552.2C1475.2 545.42 1439.51 509.27 1439.51 509.27C1439.51 509.27 1451.31 518.67 1454.85 506.61C1458.39 494.55 1426.22 465.07 1426.22 465.07C1426.22 465.07 1436.73 471.24 1439.28 463.9C1441.82 456.56 1407.03 393.01 1385.74 386.53V386.52Z" fill="url(#paint17_linear_126_4930)"/>
<path d="M1351.99 670.19C1351.27 663.64 1355.4 654.52 1355.4 654.52C1355.4 654.52 1331.84 673.3 1326.7 665.03C1321.56 656.77 1350.73 600.63 1350.73 600.63C1335.84 585.7 1357.96 550.43 1357.96 550.43C1342.8 537.64 1374.47 503.57 1374.47 503.57C1374.47 503.57 1363.1 509.75 1359.59 501.69C1356.09 493.63 1382.64 445.87 1382.64 445.87C1382.64 445.87 1371.79 461.9 1366.92 451.5C1363.97 445.19 1375.29 411.78 1385.34 386.61C1380 389.7 1341.39 457.17 1346.05 466.76C1350.85 476.65 1363.48 463.56 1363.48 463.56C1363.48 463.56 1332.16 503.22 1335.59 510.85C1339.02 518.47 1351.73 514.28 1351.73 514.28C1351.73 514.28 1315.5 541.08 1331.41 554.31C1331.41 554.31 1305.55 583.31 1321.06 598.42C1321.06 598.42 1286.49 645.28 1291.69 653.28C1296.89 661.28 1323.52 647.22 1323.52 647.22C1323.52 647.22 1311.78 665.42 1326.12 667.48C1340.46 669.54 1353.43 659.48 1353.43 659.48C1353.43 659.48 1350.52 665.69 1351.98 670.18L1351.99 670.19Z" fill="url(#paint18_linear_126_4930)"/>
<path d="M81.1499 666.04C81.1499 666.04 78.5599 725.25 100.06 743.78L23.9199 731.13C23.9199 731.13 42.3999 694.86 38.0299 662.84C38.0299 662.84 54.7999 641.64 81.1499 666.04Z" fill="#242D42"/>
<path d="M79.0202 348.22C82.8102 346.94 132.56 427.62 127.38 439.14C122.2 450.67 107.23 436.05 107.23 436.05C107.23 436.05 144.58 480.59 140.9 489.47C137.22 498.35 122.46 493.96 122.46 493.96C122.46 493.96 165.03 523.54 147.18 539.29C147.18 539.29 177.9 571.75 160.57 589.66C160.57 589.66 201.91 642.36 196.21 651.73C190.5 661.1 159.41 645.85 159.41 645.85C159.41 645.85 173.53 666.38 157.11 669.23C140.69 672.08 125.43 660.96 125.43 660.96C125.43 660.96 134.21 678.3 118.34 678.7C102.46 679.1 93.4102 665.33 93.4102 665.33C93.4102 665.33 91.9802 678.23 76.9302 677.33C61.8802 676.43 53.0602 668.3 53.0602 668.3C53.0602 668.3 36.0202 682.71 15.3802 672.9C-5.2598 663.09 -6.9698 679.48 -36.9898 663.96C-52.5598 655.91 -14.8498 600.17 -14.8498 600.17C-14.8498 600.17 -21.5298 600.86 -29.8198 594.9C-38.1198 588.93 7.3602 541.36 7.3602 541.36C7.3602 541.36 -14.5998 549.44 -16.5098 541.69C-18.4198 533.94 21.3902 491.17 21.3902 491.17C21.3902 491.17 8.1402 502.38 3.6602 488.64C-0.819801 474.9 35.1602 439.9 35.1602 439.9C35.1602 439.9 23.2802 447.35 20.1102 439C16.9402 430.64 54.7802 356.4 79.0402 348.22H79.0202Z" fill="url(#paint19_linear_126_4930)"/>
<path d="M160.58 589.67C177.9 571.76 147.19 539.3 147.19 539.3C165.04 523.55 122.47 493.97 122.47 493.97C122.47 493.97 137.23 498.37 140.91 489.48C144.59 480.6 107.24 436.06 107.24 436.06C107.24 436.06 122.21 450.68 127.39 439.15C132.57 427.62 82.82 346.95 79.03 348.23C78.03 348.57 77.01 349.03 75.96 349.58C90.05 377.71 107.25 417.5 104.01 425.24C98.86 437.53 84.76 420.18 84.76 420.18C84.76 420.18 119.84 472.39 116.17 481.89C112.5 491.39 98.43 485.32 98.43 485.32C98.43 485.32 138.74 521.46 121.4 537.37C121.4 537.37 150.31 575.71 133.44 594.04C133.44 594.04 153.46 625.81 162.64 647.36C170.74 650.95 191.63 659.27 196.21 651.75C201.92 642.38 160.57 589.68 160.57 589.68L160.58 589.67Z" fill="url(#paint20_linear_126_4930)"/>
<path d="M1284.4 729.31C1283.18 730.42 1289.36 771.93 1273.1 780.31L1321.8 773.98C1321.8 773.98 1307.27 754.76 1308.62 734.07C1308.62 734.07 1308.6 707.31 1284.4 729.3V729.31Z" fill="#242D42"/>
<path d="M1284.63 523.2C1282.69 523.2 1247.59 586.44 1251.7 592.73C1255.8 599.02 1265.16 593.77 1265.16 593.77C1265.16 593.77 1247.83 619.05 1251.65 623.02C1255.47 626.99 1262.83 623.89 1262.83 623.89C1262.83 623.89 1241.62 645.66 1246.86 649.28C1252.1 652.9 1260.54 647.13 1260.54 647.13C1260.54 647.13 1229.54 683.29 1235.08 688.77C1240.62 694.25 1250.14 689.94 1250.14 689.94C1250.14 689.94 1220.96 722.84 1225.64 727.66C1230.32 732.48 1247.1 725.06 1247.1 725.06C1247.1 725.06 1241.16 734.7 1249.66 737.65C1258.15 740.6 1265.35 730.74 1265.35 730.74C1265.35 730.74 1263.16 741.2 1275.65 740C1288.14 738.8 1295.31 729.26 1295.31 729.26C1295.31 729.26 1296.8 740.39 1305.74 740.17C1314.68 739.94 1315.95 729.48 1315.95 729.48C1315.95 729.48 1322.79 741.95 1331.29 738.93C1339.79 735.92 1338.63 727.1 1338.63 727.1C1338.63 727.1 1354.35 743.47 1362.5 733.08C1370.65 722.69 1347.31 703.9 1347.31 703.9C1347.31 703.9 1359.21 710.33 1361.49 704.54C1363.77 698.75 1335.35 650.78 1335.35 650.78C1335.35 650.78 1341.09 659.63 1344.93 651.52C1348.77 643.41 1326.18 621 1326.18 621C1326.18 621 1333.72 630.31 1336.89 625.04C1340.05 619.78 1317.41 589.41 1317.41 589.41C1317.41 589.41 1323.77 597.17 1328.11 590.24C1332.45 583.31 1303.46 523.28 1284.64 523.2H1284.63Z" fill="#007A80"/>
<path d="M306.24 651.95C306.92 652.58 303.21 675.96 312.33 680.78L284.9 676.94C284.9 676.94 293.2 666.18 292.55 654.5C292.55 654.5 292.71 639.41 306.24 651.95Z" fill="#242D42"/>
<path d="M305.88 535.791C306.98 535.791 326.42 571.661 324.07 575.181C321.72 578.701 316.47 575.691 316.47 575.691C316.47 575.691 326.11 590.051 323.93 592.261C321.75 594.471 317.62 592.691 317.62 592.691C317.62 592.691 329.46 605.091 326.49 607.101C323.52 609.111 318.79 605.811 318.79 605.811C318.79 605.811 336.07 626.381 332.92 629.441C329.77 632.501 324.42 630.011 324.42 630.011C324.42 630.011 340.69 648.731 338.03 651.421C335.37 654.111 325.94 649.831 325.94 649.831C325.94 649.831 329.24 655.301 324.43 656.921C319.62 658.541 315.62 652.931 315.62 652.931C315.62 652.931 316.8 658.841 309.76 658.091C302.72 657.341 298.73 651.921 298.73 651.921C298.73 651.921 297.83 658.191 292.79 658.011C287.75 657.831 287.09 651.931 287.09 651.931C287.09 651.931 283.16 658.921 278.39 657.181C273.61 655.431 274.31 650.471 274.31 650.471C274.31 650.471 265.35 659.611 260.82 653.711C256.28 647.811 269.55 637.341 269.55 637.341C269.55 637.341 262.8 640.901 261.55 637.621C260.3 634.341 276.59 607.441 276.59 607.441C276.59 607.441 273.3 612.401 271.18 607.811C269.06 603.221 281.93 590.701 281.93 590.701C281.93 590.701 277.62 595.911 275.87 592.921C274.12 589.931 287.05 572.931 287.05 572.931C287.05 572.931 283.42 577.271 281.01 573.341C278.6 569.411 295.28 535.711 305.9 535.771L305.88 535.791Z" fill="url(#paint21_linear_126_4930)"/>
<path d="M199.01 669.71C197.7 670.71 200.41 712.6 183.51 719.6L232.56 717.34C232.56 717.34 219.68 696.98 222.74 676.47C222.74 676.47 224.94 649.8 199 669.71H199.01Z" fill="#242D42"/>
<path d="M218.75 464.71C216.82 464.54 176.59 524.65 180.16 531.26C183.73 537.87 193.49 533.42 193.49 533.42C193.49 533.42 174.11 557.18 177.6 561.45C181.09 565.72 188.67 563.24 188.67 563.24C188.67 563.24 165.73 583.17 170.64 587.22C175.56 591.26 184.45 586.21 184.45 586.21C184.45 586.21 150.55 619.67 155.62 625.59C160.69 631.51 170.53 628 170.53 628C170.53 628 138.72 658.36 142.98 663.55C147.24 668.74 164.58 662.74 164.58 662.74C164.58 662.74 157.86 671.85 166.08 675.5C174.3 679.15 182.29 669.91 182.29 669.91C182.29 669.91 179.24 680.15 191.79 679.99C204.33 679.83 212.27 670.92 212.27 670.92C212.27 670.92 212.83 682.14 221.76 682.66C230.69 683.18 232.83 672.86 232.83 672.86C232.83 672.86 238.61 685.85 247.33 683.55C256.05 681.25 255.63 672.37 255.63 672.37C255.63 672.37 269.93 689.99 278.92 680.31C287.9 670.64 266.21 649.97 266.21 649.97C266.21 649.97 277.53 657.37 280.29 651.79C283.05 646.21 258.71 596.04 258.71 596.04C258.71 596.04 263.7 605.34 268.2 597.58C272.7 589.82 252.05 565.61 252.05 565.61C252.05 565.61 258.79 575.51 262.38 570.53C265.97 565.55 245.93 533.41 245.93 533.41C245.93 533.41 251.62 541.67 256.52 535.12C261.42 528.57 237.51 466.35 218.77 464.7L218.75 464.71Z" fill="url(#paint22_linear_126_4930)"/>
<path d="M977.09 775.68C976.16 775.56 973.27 775.06 970.93 771.66C970.93 771.66 976.03 769.52 979.21 773.67C979.21 773.67 976.02 768.26 979.21 764.23C979.21 764.23 982.18 768.051 981.55 773.151C981.55 773.151 983.46 768.881 986.86 769.961C986.86 769.961 987.08 776.94 977.09 775.68Z" fill="#1BCBD4"/>
<path d="M1111.58 760.75C1110.65 760.63 1107.76 760.13 1105.42 756.73C1105.42 756.73 1110.52 754.59 1113.7 758.74C1113.7 758.74 1110.51 753.33 1113.7 749.3C1113.7 749.3 1116.67 753.12 1116.04 758.22C1116.04 758.22 1117.95 753.95 1121.35 755.03C1121.35 755.03 1121.57 762.01 1111.58 760.75Z" fill="#0A797E"/>
<path d="M1036.01 657.201C1035.29 657.111 1033.04 656.721 1031.23 654.081C1031.23 654.081 1035.18 652.421 1037.66 655.641C1037.66 655.641 1035.19 651.451 1037.66 648.311C1037.66 648.311 1039.97 651.281 1039.47 655.231C1039.47 655.231 1040.95 651.921 1043.59 652.751C1043.59 652.751 1043.76 658.171 1036.01 657.191V657.201Z" fill="#0A797E"/>
<path d="M881.69 706.51C880.97 706.42 878.72 706.03 876.91 703.39C876.91 703.39 880.86 701.73 883.34 704.95C883.34 704.95 880.87 700.76 883.34 697.62C883.34 697.62 885.65 700.59 885.15 704.54C885.15 704.54 886.63 701.23 889.27 702.06C889.27 702.06 889.44 707.48 881.69 706.5V706.51Z" fill="#0A797E"/>
<path d="M837.25 656.14C836.53 656.05 834.28 655.66 832.47 653.02C832.47 653.02 836.42 651.36 838.9 654.58C838.9 654.58 836.43 650.39 838.9 647.25C838.9 647.25 841.21 650.22 840.71 654.17C840.71 654.17 842.19 650.86 844.83 651.69C844.83 651.69 845 657.11 837.25 656.13V656.14Z" fill="#0A797E"/>
<path d="M577.61 668.05C576.89 667.96 574.64 667.57 572.83 664.93C572.83 664.93 576.78 663.27 579.26 666.49C579.26 666.49 576.79 662.3 579.26 659.16C579.26 659.16 581.57 662.13 581.07 666.08C581.07 666.08 582.55 662.77 585.19 663.6C585.19 663.6 585.36 669.02 577.61 668.04V668.05Z" fill="#0A797E"/>
<path d="M495.16 755.94C494.07 755.8 490.65 755.21 487.9 751.21C487.9 751.21 493.91 748.69 497.66 753.58C497.66 753.58 493.91 747.21 497.66 742.46C497.66 742.46 501.16 746.96 500.41 752.97C500.41 752.97 502.66 747.94 506.67 749.21C506.67 749.21 506.93 757.44 495.16 755.96V755.94Z" fill="#0A797E"/>
<path d="M391.92 679.09C390.83 678.95 387.41 678.36 384.66 674.36C384.66 674.36 390.67 671.84 394.42 676.73C394.42 676.73 390.67 670.36 394.42 665.61C394.42 665.61 397.92 670.11 397.17 676.12C397.17 676.12 399.42 671.09 403.43 672.36C403.43 672.36 403.69 680.59 391.92 679.11V679.09Z" fill="#0A797E"/>
<path d="M1184.93 788.05C1184.93 788.05 1172.47 782.56 1170.18 782.1C1167.89 781.64 1184.48 776.38 1192.9 782.1L1184.83 771.57C1184.83 771.57 1195.13 775.4 1198.81 779.81L1195.18 756.01C1195.18 756.01 1206.8 767 1207.26 776.61C1207.26 776.61 1208.63 760.59 1218.7 756.01C1218.7 756.01 1221.9 765.62 1218.7 775.69C1218.7 775.69 1226.48 766.54 1235.18 766.54C1235.18 766.54 1227.04 772.8 1224.93 779.05L1184.94 788.05H1184.93Z" fill="#007A80"/>
<path d="M1373.81 734.81H1353.27C1353.27 734.81 1356.82 728.55 1373.81 728.55L1359.22 720.5C1359.22 720.5 1370.66 716.06 1380.73 720.47L1369.74 699.62C1369.74 699.62 1383.01 700.62 1388.96 711.61C1388.96 711.61 1388.04 697.7 1394.91 690.69C1394.91 690.69 1400.4 698.79 1398.57 709.32C1398.57 709.32 1404.52 701.37 1414.59 699.62C1414.59 699.62 1415.51 711.61 1404.98 722.13L1373.8 734.8L1373.81 734.81Z" fill="#007A80"/>
<path d="M1419.64 718.02C1419.64 718.02 1406.11 714.4 1394.47 718.02C1394.47 718.02 1400.71 706.94 1417.81 707.95C1417.81 707.95 1399.96 704.57 1394.47 699.63C1394.47 699.63 1404.51 693.53 1423.31 699.63C1423.31 699.63 1411.41 686.9 1408.89 676.37C1408.89 676.37 1422.35 677.7 1429.72 690.7C1429.72 690.7 1421.18 669.98 1423.85 661.74C1423.85 661.74 1436.16 669.54 1439.68 687.36C1439.68 687.36 1440.7 680.04 1450.31 676.83C1450.31 676.83 1456.68 686.81 1446.86 703.33L1419.64 718.02Z" fill="#007A80"/>
<path d="M1467.69 689.88V900H-10.8398V728.43C-6.02984 724.58 93.2601 685.06 235.9 714.94C338.94 736.52 519.93 801.85 738.92 820.49C739.07 820.51 739.46 820.53 740.06 820.58C740.23 820.6 740.41 820.62 740.58 820.62C740.78 820.64 740.98 820.66 741.18 820.67C741.52 820.7 741.89 820.73 742.29 820.77C812.85 826.61 887.34 827.56 964.4 820.64C978.19 819.39 992.06 817.91 1006.01 816.14C1341.42 773.73 1467.69 689.88 1467.69 689.88Z" fill="#007A80"/>
<path d="M1381.14 794.8C1379.7 794.62 1375.2 793.84 1371.58 788.57C1371.58 788.57 1379.49 785.25 1384.43 791.69C1384.43 791.69 1379.49 783.3 1384.43 777.04C1384.43 777.04 1389.04 782.97 1388.06 790.88C1388.06 790.88 1391.03 784.26 1396.3 785.92C1396.3 785.92 1396.64 796.75 1381.14 794.8Z" fill="#0C989F"/>
<path d="M205.28 775.76C204.19 775.62 200.77 775.03 198.02 771.03C198.02 771.03 204.03 768.51 207.78 773.4C207.78 773.4 204.03 767.03 207.78 762.28C207.78 762.28 211.28 766.78 210.53 772.79C210.53 772.79 212.78 767.76 216.79 769.03C216.79 769.03 217.05 777.26 205.28 775.78V775.76Z" fill="#0C989F"/>
<path d="M35.72 755.961C34.63 755.821 31.21 755.23 28.46 751.23C28.46 751.23 34.47 748.71 38.22 753.6C38.22 753.6 34.47 747.23 38.22 742.48C38.22 742.48 41.72 746.98 40.97 752.99C40.97 752.99 43.22 747.96 47.23 749.23C47.23 749.23 47.49 757.46 35.72 755.98V755.961Z" fill="#0C989F"/>
<path d="M51.8404 712.29L34.1104 707.03C34.1104 707.03 42.8104 698.1 56.0804 702.33L40.0604 685.97C40.0604 685.97 55.1604 688.26 60.6604 696.96C60.6604 696.96 57.0004 679.11 62.4904 672.7C62.4904 672.7 70.7303 685.97 70.2703 695.13C70.2703 695.13 76.1303 676.49 87.2104 676.66C87.2104 676.66 86.7504 688.72 78.9704 696.5C78.9704 696.5 87.2803 690.99 97.8503 688.26L84.8704 707.81L51.8503 712.29H51.8404Z" fill="#007A80"/>
<path d="M93.2599 707.6L76.1499 700.6C76.1499 700.6 85.6999 692.58 98.4799 698.13L84.1799 680.25C84.1799 680.25 98.9799 684.04 103.58 693.24C103.58 693.24 101.72 675.11 107.83 669.29C107.83 669.29 114.7 683.32 113.33 692.38C113.33 692.38 121.03 674.42 132.03 675.7C132.03 675.7 130.37 687.65 121.85 694.62C121.85 694.62 130.67 689.97 141.46 688.31L126.58 706.46L93.2799 707.61L93.2599 707.6Z" fill="#007A80"/>
<path d="M231.87 723.32L216.43 713.15C216.43 713.15 227.34 707.13 238.82 715.03L228.24 694.73C228.24 694.73 242.03 701.3 244.76 711.22C244.76 711.22 246.44 693.07 253.55 688.54C253.55 688.54 257.58 703.63 254.49 712.26C254.49 712.26 265.51 696.13 276.06 699.5C276.06 699.5 272.12 710.91 262.42 716.1C262.42 716.1 271.97 713.24 282.88 713.69L264.78 728.63L231.88 723.33L231.87 723.32Z" fill="#007A80"/>
<path d="M411.9 764.26L397.14 753.12C397.14 753.12 408.42 747.81 419.36 756.43L410.1 735.49C410.1 735.49 423.44 742.93 425.53 753C425.53 753 428.36 735 435.76 730.93C435.76 730.93 438.82 746.25 435.18 754.66C435.18 754.66 447.21 739.27 457.52 743.31C457.52 743.31 452.86 754.44 442.84 759C442.84 759 452.55 756.75 463.41 757.91L444.39 771.66L411.9 764.27V764.26Z" fill="#007A80"/>
</g>
<path d="M737.62 780.35C737.5 782.17 737.19 783.54 736.63 784.06C734.18 786.32 723.62 785.57 721.93 784.06C721.47 783.65 721.3 781.98 721.31 779.74C721.32 773.75 722.58 763.73 722.87 763.32C726.46 758.24 733.81 762 735.22 762.57C735.57 762.7 735.98 763.94 736.37 765.76H736.38C736.69 767.25 736.99 769.14 737.21 771.12C737.59 774.31 737.79 777.77 737.61 780.35H737.62Z" fill="url(#paint23_linear_126_4930)"/>
<path d="M737.62 780.35C737.5 782.17 737.19 783.54 736.63 784.06C734.18 786.32 723.62 785.57 721.93 784.06C721.47 783.65 721.3 781.98 721.31 779.74C723.24 780.91 728.57 783.23 737.62 780.35Z" fill="url(#paint24_linear_126_4930)"/>
<path d="M722.88 763.32C722.88 763.32 729.31 767 735.23 762.57C733.81 762.01 726.46 758.24 722.88 763.32Z" fill="url(#paint25_linear_126_4930)"/>
<path d="M703.91 780.35C704.03 782.17 704.34 783.54 704.9 784.06C707.35 786.32 717.91 785.57 719.6 784.06C720.06 783.65 720.23 781.98 720.22 779.74C720.21 773.75 718.95 763.73 718.66 763.32C715.07 758.24 707.72 762 706.31 762.57C705.96 762.7 705.55 763.94 705.16 765.76H705.15C704.84 767.25 704.54 769.14 704.32 771.12C703.94 774.31 703.74 777.77 703.92 780.35H703.91Z" fill="url(#paint26_linear_126_4930)"/>
<path d="M703.91 780.35C704.03 782.17 704.34 783.54 704.9 784.06C707.35 786.32 717.91 785.57 719.6 784.06C720.06 783.65 720.23 781.98 720.22 779.74C718.29 780.91 712.96 783.23 703.91 780.35Z" fill="url(#paint27_linear_126_4930)"/>
<path d="M718.66 763.32C715.07 758.24 707.72 762 706.31 762.57C706.31 762.57 709.8 766.19 718.66 763.32Z" fill="url(#paint28_linear_126_4930)"/>
<path d="M732.299 762.39L731.209 748.57L725.439 752.97V762.39C725.439 762.39 729.369 764.05 732.299 762.39Z" fill="url(#paint29_linear_126_4930)"/>
<path d="M716.091 762.39V752.97L710.201 750.13L709.23 762.39C709.23 762.39 712.701 764.39 716.091 762.39Z" fill="url(#paint30_linear_126_4930)"/>
<path d="M735.23 751.47C736.09 753.51 736.7 754.79 736.7 754.79L748 749.89C747.83 748.53 747.52 747.18 747.11 745.84C745.81 741.57 743.5 737.5 741.2 734.16C739.76 732.07 738.32 730.26 737.15 728.88C735.58 727.04 734.48 725.96 734.48 725.96C725.41 725.96 732.02 743.89 735.22 751.48L735.23 751.47Z" fill="url(#paint31_linear_126_4930)"/>
<path d="M704.75 752.45C703.89 754.49 703.281 755.77 703.281 755.77L691.98 750.87C692.15 749.51 692.46 748.16 692.87 746.82C694.17 742.55 696.481 738.48 698.781 735.14C700.221 733.05 701.661 731.24 702.831 729.86C704.401 728.02 705.5 726.94 705.5 726.94C714.57 726.94 707.96 744.87 704.76 752.46L704.75 752.45Z" fill="url(#paint32_linear_126_4930)"/>
<path d="M734.04 742.1C733.83 743.49 733.51 744.73 733.12 745.83C729.8 755.11 721.1 754.83 721.1 754.83C712.93 755.45 709.03 751.13 707.29 745.83C706.89 744.62 706.6 743.36 706.4 742.1C705.34 735.42 706.68 728.64 706.68 728.64L707.62 725.95L733.44 728.64C734.5 734.24 734.58 738.65 734.04 742.1Z" fill="url(#paint33_linear_126_4930)"/>
<path d="M745.56 748.57C745.56 748.57 752.72 754.6 748.95 763.83C748.95 763.83 746.32 765.15 745.56 761.38C745.56 761.38 745.37 765.34 743.11 764.96C740.85 764.58 741.62 760.25 741.62 760.25C741.62 760.25 740.45 764.4 738.95 763.64C737.45 762.89 738.95 758.74 738.95 758.74C738.95 758.74 737.83 762.32 736.14 760.81C734.45 759.3 736.71 754.78 736.71 754.78L745.57 748.56L745.56 748.57Z" fill="url(#paint34_linear_126_4930)"/>
<path d="M735.23 751.47C736.09 753.51 736.7 754.79 736.7 754.79L748 749.89C747.83 748.53 747.52 747.18 747.11 745.84C744.02 747.12 738.44 749.86 735.22 751.47H735.23Z" fill="url(#paint35_linear_126_4930)"/>
<path d="M734.26 732.46C734.26 734.5 735.91 736.15 737.94 736.15C739.37 736.15 740.61 735.34 741.22 734.16C739.78 732.07 738.34 730.26 737.17 728.88C735.52 729.23 734.27 730.71 734.27 732.47L734.26 732.46Z" fill="url(#paint36_linear_126_4930)"/>
<path d="M694.43 749.55C694.43 749.55 687.27 755.58 691.04 764.81C691.04 764.81 693.67 766.13 694.43 762.36C694.43 762.36 694.62 766.32 696.88 765.94C699.14 765.56 698.37 761.23 698.37 761.23C698.37 761.23 699.54 765.38 701.04 764.62C702.54 763.87 701.04 759.72 701.04 759.72C701.04 759.72 702.16 763.3 703.85 761.79C705.55 760.28 703.28 755.76 703.28 755.76L694.42 749.54L694.43 749.55Z" fill="url(#paint37_linear_126_4930)"/>
<path d="M706.49 723.55C706.49 723.55 694.24 717.14 694.43 705.46C694.62 693.78 703.85 686.8 715.35 685.3L724.74 676.63L722.13 684.54C722.13 684.54 726.46 682.09 729.1 681.15L727.22 686.05C727.22 686.05 746.25 686.24 747.76 707.72C747.76 707.72 745.5 720.91 733.44 723.55H706.49Z" fill="url(#paint38_linear_126_4930)"/>
<path d="M706.679 728.64C706.679 728.64 703.849 726.569 706.489 723.549L734.539 723.27C734.539 723.27 737.579 727.13 733.439 728.64H706.679Z" fill="url(#paint39_linear_126_4930)"/>
<path d="M734.04 742.1C733.83 743.49 733.51 744.73 733.12 745.83H707.29C706.89 744.62 706.6 743.36 706.4 742.1H734.03H734.04Z" fill="#FDB05A"/>
<path d="M704.75 752.45C703.89 754.49 703.281 755.77 703.281 755.77L691.98 750.87C692.15 749.51 692.46 748.16 692.87 746.82C695.96 748.1 701.54 750.84 704.76 752.45H704.75Z" fill="url(#paint40_linear_126_4930)"/>
<path d="M705.729 733.44C705.729 735.48 704.079 737.13 702.049 737.13C700.619 737.13 699.38 736.32 698.77 735.14C700.21 733.05 701.65 731.24 702.82 729.86C704.47 730.21 705.719 731.69 705.719 733.45L705.729 733.44Z" fill="url(#paint41_linear_126_4930)"/>
<path d="M694.43 710.55C695 709.95 706.3 704.33 723.07 704.71C739.84 705.09 746.97 710.55 746.97 710.55C746.97 710.55 750.27 711.1 750.05 707.62C749.83 704.14 744.35 696.87 718.82 697.02C693.3 697.17 690.47 703.96 690.85 707.16C691.23 710.36 694.43 710.55 694.43 710.55Z" fill="url(#paint42_linear_126_4930)"/>
<path d="M707.6 694.13C705.7 694.98 703.46 694.38 702.26 692.68C697.32 685.7 686.44 667.93 697.87 660.77C709.96 653.2 710.35 681.15 710.17 690.25C710.14 691.93 709.13 693.44 707.6 694.13Z" fill="url(#paint43_linear_126_4930)"/>
<path d="M734.6 695.49C732.74 695.17 731.3 693.7 731.02 691.84C729.75 683.18 727.58 659.45 741.8 658.32C756.33 657.17 743.78 684.19 739.22 693.17C738.35 694.88 736.47 695.81 734.59 695.49H734.6Z" fill="url(#paint44_linear_126_4930)"/>
<g opacity="0.75">
<path d="M245.99 175.33C244.16 173.5 242.86 165.46 242.86 165.46C242.86 165.46 241.57 173.5 239.73 175.33C237.9 177.16 229.86 178.46 229.86 178.46C229.86 178.46 237.9 179.75 239.73 181.59C241.56 183.42 242.86 191.46 242.86 191.46C242.86 191.46 244.15 183.42 245.99 181.59C247.82 179.76 255.86 178.46 255.86 178.46C255.86 178.46 247.82 177.17 245.99 175.33Z" fill="white"/>
<path d="M1175.4 356.52C1174.34 355.46 1173.6 350.82 1173.6 350.82C1173.6 350.82 1172.85 355.46 1171.8 356.52C1170.74 357.58 1166.1 358.32 1166.1 358.32C1166.1 358.32 1170.74 359.07 1171.8 360.12C1172.86 361.18 1173.6 365.82 1173.6 365.82C1173.6 365.82 1174.35 361.18 1175.4 360.12C1176.46 359.06 1181.1 358.32 1181.1 358.32C1181.1 358.32 1176.46 357.57 1175.4 356.52Z" fill="white"/>
<path d="M1337.62 175.33C1335.79 173.5 1334.49 165.46 1334.49 165.46C1334.49 165.46 1333.2 173.5 1331.36 175.33C1329.53 177.16 1321.49 178.46 1321.49 178.46C1321.49 178.46 1329.53 179.75 1331.36 181.59C1333.19 183.42 1334.49 191.46 1334.49 191.46C1334.49 191.46 1335.78 183.42 1337.62 181.59C1339.45 179.76 1347.49 178.46 1347.49 178.46C1347.49 178.46 1339.45 177.17 1337.62 175.33Z" fill="white"/>
<path d="M652.2 459.87C650.37 458.04 649.07 450 649.07 450C649.07 450 647.78 458.04 645.94 459.87C644.11 461.7 636.07 463 636.07 463C636.07 463 644.11 464.29 645.94 466.13C647.77 467.96 649.07 476 649.07 476C649.07 476 650.36 467.96 652.2 466.13C654.03 464.3 662.07 463 662.07 463C662.07 463 654.03 461.71 652.2 459.87Z" fill="white"/>
<path d="M101.81 272.35C100.75 271.29 100.01 266.65 100.01 266.65C100.01 266.65 99.2598 271.29 98.2098 272.35C97.1498 273.41 92.5098 274.15 92.5098 274.15C92.5098 274.15 97.1498 274.9 98.2098 275.95C99.2698 277.01 100.01 281.65 100.01 281.65C100.01 281.65 100.76 277.01 101.81 275.95C102.87 274.89 107.51 274.15 107.51 274.15C107.51 274.15 102.87 273.4 101.81 272.35Z" fill="white"/>
<path d="M100.01 112.59C100.838 112.59 101.51 111.918 101.51 111.09C101.51 110.261 100.838 109.59 100.01 109.59C99.1813 109.59 98.5098 110.261 98.5098 111.09C98.5098 111.918 99.1813 112.59 100.01 112.59Z" fill="white"/>
<path d="M752.68 246.36C753.508 246.36 754.18 245.689 754.18 244.86C754.18 244.032 753.508 243.36 752.68 243.36C751.851 243.36 751.18 244.032 751.18 244.86C751.18 245.689 751.851 246.36 752.68 246.36Z" fill="white"/>
<path d="M432.229 78.2305C433.058 78.2305 433.729 77.5589 433.729 76.7305C433.729 75.902 433.058 75.2305 432.229 75.2305C431.401 75.2305 430.729 75.902 430.729 76.7305C430.729 77.5589 431.401 78.2305 432.229 78.2305Z" fill="white"/>
<path d="M900.229 430.28C901.058 430.28 901.729 429.609 901.729 428.78C901.729 427.952 901.058 427.28 900.229 427.28C899.401 427.28 898.729 427.952 898.729 428.78C898.729 429.609 899.401 430.28 900.229 430.28Z" fill="white"/>
<path d="M312.04 352.33C312.868 352.33 313.54 351.659 313.54 350.83C313.54 350.002 312.868 349.33 312.04 349.33C311.212 349.33 310.54 350.002 310.54 350.83C310.54 351.659 311.212 352.33 312.04 352.33Z" fill="white"/>
<path d="M1032.23 194.46C1033.06 194.46 1033.73 193.788 1033.73 192.96C1033.73 192.132 1033.06 191.46 1032.23 191.46C1031.4 191.46 1030.73 192.132 1030.73 192.96C1030.73 193.788 1031.4 194.46 1032.23 194.46Z" fill="white"/>
<path d="M1181.1 275.65C1181.93 275.65 1182.6 274.979 1182.6 274.15C1182.6 273.322 1181.93 272.65 1181.1 272.65C1180.27 272.65 1179.6 273.322 1179.6 274.15C1179.6 274.979 1180.27 275.65 1181.1 275.65Z" fill="white"/>
<path d="M1271.82 111.09C1272.65 111.09 1273.32 110.418 1273.32 109.59C1273.32 108.761 1272.65 108.09 1271.82 108.09C1270.99 108.09 1270.32 108.761 1270.32 109.59C1270.32 110.418 1270.99 111.09 1271.82 111.09Z" fill="white"/>
</g>
</g>
<defs>
<linearGradient id="paint0_linear_126_4930" x1="720" y1="-46.82" x2="720" y2="524.33" gradientUnits="userSpaceOnUse">
<stop stop-color="#2293EF"/>
<stop offset="0.55" stop-color="#2FBFEC"/>
<stop offset="1" stop-color="#3CE6EA"/>
</linearGradient>
<linearGradient id="paint1_linear_126_4930" x1="720" y1="-182" x2="720" y2="669.5" gradientUnits="userSpaceOnUse">
<stop offset="0.00558659" stop-color="#184284"/>
<stop offset="0.396485" stop-color="#2263B1"/>
<stop offset="1" stop-color="#3DBABF"/>
</linearGradient>
<linearGradient id="paint2_linear_126_4930" x1="1262.38" y1="527.551" x2="1262.38" y2="322.151" gradientUnits="userSpaceOnUse">
<stop stop-color="#009AA2"/>
<stop offset="0.2" stop-color="#0DAAB2"/>
<stop offset="0.73" stop-color="#2FD5DA"/>
<stop offset="1" stop-color="#3CE6EA"/>
</linearGradient>
<linearGradient id="paint3_linear_126_4930" x1="1182.07" y1="567.971" x2="1209.89" y2="412.521" gradientUnits="userSpaceOnUse">
<stop stop-color="#009AA2"/>
<stop offset="0.2" stop-color="#0DAAB2"/>
<stop offset="0.73" stop-color="#2FD5DA"/>
<stop offset="1" stop-color="#3CE6EA"/>
</linearGradient>
<linearGradient id="paint4_linear_126_4930" x1="86.49" y1="571.32" x2="86.49" y2="392.35" gradientUnits="userSpaceOnUse">
<stop stop-color="#009AA2"/>
<stop offset="0.2" stop-color="#0DAAB2"/>
<stop offset="0.73" stop-color="#2FD5DA"/>
<stop offset="1" stop-color="#3CE6EA"/>
</linearGradient>
<linearGradient id="paint5_linear_126_4930" x1="307.09" y1="568.47" x2="325.09" y2="375.38" gradientUnits="userSpaceOnUse">
<stop stop-color="#009AA2"/>
<stop offset="0.2" stop-color="#0DAAB2"/>
<stop offset="0.73" stop-color="#2FD5DA"/>
<stop offset="1" stop-color="#3CE6EA"/>
</linearGradient>
<linearGradient id="paint6_linear_126_4930" x1="509.65" y1="633.69" x2="509.65" y2="547.3" gradientUnits="userSpaceOnUse">
<stop stop-color="#009AA2"/>
<stop offset="0.2" stop-color="#0DAAB2"/>
<stop offset="0.73" stop-color="#2FD5DA"/>
<stop offset="1" stop-color="#3CE6EA"/>
</linearGradient>
<linearGradient id="paint7_linear_126_4930" x1="148.5" y1="607.731" x2="148.5" y2="457.78" gradientUnits="userSpaceOnUse">
<stop stop-color="#009AA2"/>
<stop offset="0.2" stop-color="#0DAAB2"/>
<stop offset="0.73" stop-color="#2FD5DA"/>
<stop offset="1" stop-color="#3CE6EA"/>
</linearGradient>
<linearGradient id="paint8_linear_126_4930" x1="878.59" y1="635.55" x2="878.59" y2="448.31" gradientUnits="userSpaceOnUse">
<stop stop-color="#009AA2"/>
<stop offset="0.2" stop-color="#0DAAB2"/>
<stop offset="0.73" stop-color="#2FD5DA"/>
<stop offset="1" stop-color="#3CE6EA"/>
</linearGradient>
<linearGradient id="paint9_linear_126_4930" x1="739.63" y1="665" x2="739.63" y2="531.5" gradientUnits="userSpaceOnUse">
<stop stop-color="#009AA2"/>
<stop offset="0.53" stop-color="#1EC0C6"/>
<stop offset="1" stop-color="#3CE6EA"/>
</linearGradient>
<linearGradient id="paint10_linear_126_4930" x1="1083.19" y1="589.73" x2="1083.19" y2="410.76" gradientUnits="userSpaceOnUse">
<stop stop-color="#009AA2"/>
<stop offset="0.2" stop-color="#0DAAB2"/>
<stop offset="0.73" stop-color="#2FD5DA"/>
<stop offset="1" stop-color="#3CE6EA"/>
</linearGradient>
<linearGradient id="paint11_linear_126_4930" x1="948.75" y1="648.84" x2="948.75" y2="506.87" gradientUnits="userSpaceOnUse">
<stop stop-color="#009AA2"/>
<stop offset="0.2" stop-color="#0DAAB2"/>
<stop offset="0.73" stop-color="#2FD5DA"/>
<stop offset="1" stop-color="#3CE6EA"/>
</linearGradient>
<linearGradient id="paint12_linear_126_4930" x1="584.05" y1="604.45" x2="584.05" y2="499.8" gradientUnits="userSpaceOnUse">
<stop stop-color="#009AA2"/>
<stop offset="0.2" stop-color="#0DAAB2"/>
<stop offset="0.73" stop-color="#2FD5DA"/>
<stop offset="1" stop-color="#3CE6EA"/>
</linearGradient>
<linearGradient id="paint13_linear_126_4930" x1="457.96" y1="679.27" x2="457.96" y2="547.54" gradientUnits="userSpaceOnUse">
<stop stop-color="#009AA2"/>
<stop offset="0.2" stop-color="#0DAAB2"/>
<stop offset="0.73" stop-color="#2FD5DA"/>
<stop offset="1" stop-color="#3CE6EA"/>
</linearGradient>
<linearGradient id="paint14_linear_126_4930" x1="720" y1="568.45" x2="720" y2="882.91" gradientUnits="userSpaceOnUse">
<stop stop-color="#0A797E"/>
<stop offset="0.41" stop-color="#20AAAF"/>
<stop offset="0.8" stop-color="#34D5D9"/>
<stop offset="1" stop-color="#3CE6EA"/>
</linearGradient>
<linearGradient id="paint15_linear_126_4930" x1="1207.06" y1="697.598" x2="1235.42" y2="447.119" gradientUnits="userSpaceOnUse">
<stop stop-color="#242D42"/>
<stop offset="0.2" stop-color="#1E3D50"/>
<stop offset="0.59" stop-color="#106876"/>
<stop offset="0.99" stop-color="#009AA2"/>
</linearGradient>
<linearGradient id="paint16_linear_126_4930" x1="155.179" y1="565.416" x2="175.46" y2="363.598" gradientUnits="userSpaceOnUse">
<stop stop-color="#242D42"/>
<stop offset="0.2" stop-color="#1E3D50"/>
<stop offset="0.59" stop-color="#106876"/>
<stop offset="0.99" stop-color="#009AA2"/>
</linearGradient>
<linearGradient id="paint17_linear_126_4930" x1="1397.16" y1="676.973" x2="1363.96" y2="360.457" gradientUnits="userSpaceOnUse">
<stop stop-color="#242D42"/>
<stop offset="0.47" stop-color="#135E6D"/>
<stop offset="0.99" stop-color="#009AA2"/>
</linearGradient>
<linearGradient id="paint18_linear_126_4930" x1="1337.06" y1="734.521" x2="1338.48" y2="475.535" gradientUnits="userSpaceOnUse">
<stop stop-color="#009AA2"/>
<stop offset="0.46" stop-color="#19BAC0"/>
<stop offset="1" stop-color="#3CE6EA"/>
</linearGradient>
<linearGradient id="paint19_linear_126_4930" x1="77.3782" y1="659.336" x2="107.765" y2="313.446" gradientUnits="userSpaceOnUse">
<stop stop-color="#242D42"/>
<stop offset="0.47" stop-color="#135E6D"/>
<stop offset="0.99" stop-color="#009AA2"/>
</linearGradient>
<linearGradient id="paint20_linear_126_4930" x1="152.797" y1="588.217" x2="88.4823" y2="323.786" gradientUnits="userSpaceOnUse">
<stop stop-color="#009AA2"/>
<stop offset="0.2" stop-color="#0DAAB2"/>
<stop offset="0.73" stop-color="#2FD5DA"/>
<stop offset="1" stop-color="#3CE6EA"/>
</linearGradient>
<linearGradient id="paint21_linear_126_4930" x1="298.953" y1="648.543" x2="285.37" y2="447.752" gradientUnits="userSpaceOnUse">
<stop stop-color="#242D42"/>
<stop offset="0.2" stop-color="#1E3D50"/>
<stop offset="0.59" stop-color="#106876"/>
<stop offset="0.99" stop-color="#009AA2"/>
</linearGradient>
<linearGradient id="paint22_linear_126_4930" x1="206.804" y1="732.239" x2="227.613" y2="471.522" gradientUnits="userSpaceOnUse">
<stop stop-color="#242D42"/>
<stop offset="0.2" stop-color="#1E3D50"/>
<stop offset="0.59" stop-color="#106876"/>
<stop offset="0.99" stop-color="#009AA2"/>
</linearGradient>
<linearGradient id="paint23_linear_126_4930" x1="729.5" y1="749.68" x2="729.5" y2="775.87" gradientUnits="userSpaceOnUse">
<stop stop-color="#182941"/>
<stop offset="1" stop-color="#0094F2"/>
</linearGradient>
<linearGradient id="paint24_linear_126_4930" x1="729.47" y1="770.75" x2="729.47" y2="786.11" gradientUnits="userSpaceOnUse">
<stop stop-color="#182941"/>
<stop offset="1" stop-color="#0094F2"/>
</linearGradient>
<linearGradient id="paint25_linear_126_4930" x1="729.05" y1="758.36" x2="729.05" y2="764.66" gradientUnits="userSpaceOnUse">
<stop stop-color="#61799F"/>
<stop offset="1" stop-color="#EFF4F6"/>
</linearGradient>
<linearGradient id="paint26_linear_126_4930" x1="712.03" y1="749.68" x2="712.03" y2="775.87" gradientUnits="userSpaceOnUse">
<stop stop-color="#182941"/>
<stop offset="1" stop-color="#0094F2"/>
</linearGradient>
<linearGradient id="paint27_linear_126_4930" x1="712.07" y1="770.75" x2="712.07" y2="786.11" gradientUnits="userSpaceOnUse">
<stop stop-color="#182941"/>
<stop offset="1" stop-color="#0094F2"/>
</linearGradient>
<linearGradient id="paint28_linear_126_4930" x1="712.48" y1="758.55" x2="712.48" y2="764.34" gradientUnits="userSpaceOnUse">
<stop stop-color="#61799F"/>
<stop offset="1" stop-color="#EFF4F6"/>
</linearGradient>
<linearGradient id="paint29_linear_126_4930" x1="725.449" y1="755.85" x2="732.299" y2="755.85" gradientUnits="userSpaceOnUse">
<stop stop-color="#F98314"/>
<stop offset="0.87" stop-color="#FEAC4A"/>
<stop offset="1" stop-color="#FFB353"/>
</linearGradient>
<linearGradient id="paint30_linear_126_4930" x1="709.23" y1="756.7" x2="716.091" y2="756.7" gradientUnits="userSpaceOnUse">
<stop stop-color="#F98314"/>
<stop offset="0.87" stop-color="#FEAC4A"/>
<stop offset="1" stop-color="#FFB353"/>
</linearGradient>
<linearGradient id="paint31_linear_126_4930" x1="738.95" y1="726.36" x2="738.95" y2="745.4" gradientUnits="userSpaceOnUse">
<stop stop-color="#DB4B3A"/>
<stop offset="0.37" stop-color="#E95E4A"/>
<stop offset="1" stop-color="#FF7B64"/>
</linearGradient>
<linearGradient id="paint32_linear_126_4930" x1="701.03" y1="726.36" x2="701.03" y2="745.4" gradientUnits="userSpaceOnUse">
<stop stop-color="#DB4B3A"/>
<stop offset="0.37" stop-color="#E95E4A"/>
<stop offset="1" stop-color="#FF7B64"/>
</linearGradient>
<linearGradient id="paint33_linear_126_4930" x1="720.18" y1="750.3" x2="720.18" y2="723.7" gradientUnits="userSpaceOnUse">
<stop stop-color="#DB4B3A"/>
<stop offset="0.37" stop-color="#E95E4A"/>
<stop offset="1" stop-color="#FF7B64"/>
</linearGradient>
<linearGradient id="paint34_linear_126_4930" x1="738.57" y1="748.46" x2="743.75" y2="759.91" gradientUnits="userSpaceOnUse">
<stop stop-color="#182941"/>
<stop offset="1" stop-color="#0094F2"/>
</linearGradient>
<linearGradient id="paint35_linear_126_4930" x1="735.23" y1="750.31" x2="748.01" y2="750.31" gradientUnits="userSpaceOnUse">
<stop stop-color="#F98314"/>
<stop offset="0.87" stop-color="#FEAC4A"/>
<stop offset="1" stop-color="#FFB353"/>
</linearGradient>
<linearGradient id="paint36_linear_126_4930" x1="734.26" y1="732.51" x2="741.21" y2="732.51" gradientUnits="userSpaceOnUse">
<stop stop-color="#F98314"/>
<stop offset="0.87" stop-color="#FEAC4A"/>
<stop offset="1" stop-color="#FFB353"/>
</linearGradient>
<linearGradient id="paint37_linear_126_4930" x1="702.03" y1="747.97" x2="696.3" y2="760.79" gradientUnits="userSpaceOnUse">
<stop stop-color="#182941"/>
<stop offset="1" stop-color="#0094F2"/>
</linearGradient>
<linearGradient id="paint38_linear_126_4930" x1="721.09" y1="723.09" x2="721.09" y2="696.47" gradientUnits="userSpaceOnUse">
<stop stop-color="#DFE1EA"/>
<stop offset="0.13" stop-color="#E4E5ED"/>
<stop offset="0.6" stop-color="#F2F2F5"/>
<stop offset="1" stop-color="#F7F7F9"/>
</linearGradient>
<linearGradient id="paint39_linear_126_4930" x1="720.489" y1="730.45" x2="720.489" y2="722.07" gradientUnits="userSpaceOnUse">
<stop stop-color="#DB4B3A"/>
<stop offset="0.37" stop-color="#E95E4A"/>
<stop offset="1" stop-color="#FF7B64"/>
</linearGradient>
<linearGradient id="paint40_linear_126_4930" x1="691.98" y1="751.3" x2="704.75" y2="751.3" gradientUnits="userSpaceOnUse">
<stop stop-color="#F98314"/>
<stop offset="0.87" stop-color="#FEAC4A"/>
<stop offset="1" stop-color="#FFB353"/>
</linearGradient>
<linearGradient id="paint41_linear_126_4930" x1="698.78" y1="733.49" x2="705.729" y2="733.49" gradientUnits="userSpaceOnUse">
<stop stop-color="#F98314"/>
<stop offset="0.87" stop-color="#FEAC4A"/>
<stop offset="1" stop-color="#FFB353"/>
</linearGradient>
<linearGradient id="paint42_linear_126_4930" x1="720.44" y1="714.7" x2="720.44" y2="697.89" gradientUnits="userSpaceOnUse">
<stop stop-color="#242D42"/>
<stop offset="0.36" stop-color="#39455E"/>
<stop offset="1" stop-color="#67789C"/>
</linearGradient>
<linearGradient id="paint43_linear_126_4930" x1="701.52" y1="723.09" x2="701.52" y2="696.47" gradientUnits="userSpaceOnUse">
<stop stop-color="#DFE1EA"/>
<stop offset="0.13" stop-color="#E4E5ED"/>
<stop offset="0.6" stop-color="#F2F2F5"/>
<stop offset="1" stop-color="#F7F7F9"/>
</linearGradient>
<linearGradient id="paint44_linear_126_4930" x1="739.35" y1="0.000105687" x2="739.35" y2="696.47" gradientUnits="userSpaceOnUse">
<stop stop-color="#DFE1EA"/>
<stop offset="0.13" stop-color="#E4E5ED"/>
<stop offset="0.6" stop-color="#F2F2F5"/>
<stop offset="1" stop-color="#F7F7F9"/>
</linearGradient>
<clipPath id="clip0_126_4930">
<rect width="1440" height="840" fill="white"/>
</clipPath>
</defs>
</svg>
