<svg width="1000" height="1000" viewBox="0 0 1000 1000" fill="none" xmlns="http://www.w3.org/2000/svg">
<g clip-path="url(#clip0_126_4140)">
<path d="M986.806 579.749C992.835 533.182 993.699 485.69 991.629 440.229C988.635 374.327 974.848 302.255 949.163 241.258C911.681 152.203 835.833 67.2487 740.188 44.0354C650.232 22.1888 549.664 39.654 476.086 97.1144C427.772 134.838 395.535 187.254 357.169 233.821C310.965 289.915 239.538 314.254 177.276 347.255C111.537 382.085 51.4046 428.913 23.3685 500.101C2.045 554.225 2.48715 623.965 13.2594 680.581C28.614 761.235 72.8085 827.679 143.733 868.579C231.76 919.346 328.55 947.564 430.304 951.242C535.897 955.061 641.59 933.897 740.41 896.475C877.194 844.682 968.155 723.732 986.806 579.749Z" fill="url(#paint0_linear_126_4140)"/>
<path d="M204.287 265.496C189.756 271.566 171.668 275.887 159.308 266.119C148.817 257.819 146.968 242.604 148.335 229.299C151.39 199.434 166.463 171.538 187.405 150.013C208.326 128.487 234.835 112.972 262.69 101.797C272.98 97.6571 283.793 94.0394 294.866 94.3409C305.96 94.6423 317.476 99.5262 323.144 109.073C358.113 168.121 247.054 247.629 204.287 265.516V265.496Z" fill="url(#paint1_linear_126_4140)"/>
<path d="M499.34 1000C704.171 1000 870.22 969.325 870.22 931.486C870.22 893.646 704.171 862.971 499.34 862.971C294.508 862.971 128.459 893.646 128.459 931.486C128.459 969.325 294.508 1000 499.34 1000Z" fill="url(#paint2_linear_126_4140)"/>
<path d="M676.118 738.564L694.105 910.885C694.105 910.885 614.941 945.213 549.483 919.306C549.483 919.306 554.628 879.974 581.921 862.71L591.95 745.86C591.95 745.86 629.05 726.907 676.138 738.584L676.118 738.564Z" fill="url(#paint3_linear_126_4140)"/>
<path d="M591.929 745.84C591.929 745.84 628.547 717.823 676.117 738.564C676.117 738.564 640.886 774.781 591.929 745.84Z" fill="url(#paint4_linear_126_4140)"/>
<path d="M694.105 910.885C694.105 910.885 614.941 945.213 549.483 919.306C549.483 919.306 554.628 879.974 581.921 862.71C659.216 864.519 694.126 910.905 694.126 910.905L694.105 910.885Z" fill="url(#paint5_linear_126_4140)"/>
<path d="M608.087 688.178C608.087 688.178 622.316 683.556 655.678 684.923L659.175 740.413C659.175 740.413 645.529 757.858 608.69 746.784L608.087 688.199V688.178Z" fill="url(#paint6_linear_126_4140)"/>
<path d="M766.094 484.866L668.822 510.692L568.596 519.696C568.596 519.696 568.435 730.244 703.35 706.468C838.265 682.672 766.094 484.886 766.094 484.886V484.866Z" fill="url(#paint7_linear_126_4140)"/>
<path d="M695.391 661.388C667.134 666.372 639.278 670.311 612.006 673.306C631.923 698.288 660.964 713.924 703.329 706.448C745.695 698.971 767.641 674.331 777.811 644.063C751.161 650.575 723.628 656.403 695.391 661.388Z" fill="url(#paint8_linear_126_4140)"/>
<path d="M634.696 639.742C663.389 639.742 686.649 616.482 686.649 587.789C686.649 559.095 663.389 535.835 634.696 535.835C606.004 535.835 582.744 559.095 582.744 587.789C582.744 616.482 606.004 639.742 634.696 639.742Z" fill="white"/>
<path d="M638.997 554.607C631.36 555.953 619.583 567.389 613.091 580.895C607.423 592.612 606.258 602.42 606.68 612.007C606.78 618.84 613.312 623.985 620.025 622.799L646.594 618.117C648.483 617.775 649.789 615.986 649.468 614.077C649.146 612.168 647.337 610.881 645.428 611.223L618.799 615.926C616.166 616.388 613.734 614.419 613.634 611.766C613.272 601.254 614.84 593.316 619.382 583.849C626.496 569.64 635.017 563.812 638.233 562.123C641.388 560.415 643.981 561.561 644.584 565.078C646.252 564.214 648.724 563.189 651.196 562.686C649.628 557.24 644.966 553.542 638.997 554.587V554.607Z" fill="#00BE65"/>
<path d="M656.462 599.466C660.401 593.979 665.928 580.895 664.14 570.786C663.517 567.228 660.743 560.917 651.88 562.485C635.4 565.399 618.096 588.693 629.813 596.511C631.24 597.416 633.491 598.26 636.646 597.717C645.811 596.109 652.202 583.93 652.061 569.519C652.503 569.399 652.925 569.319 653.367 569.238C655.538 568.856 656.804 569.459 657.246 571.971C658.432 578.744 655.055 590.562 648.805 598.24C646.836 600.772 648.805 603.043 650.091 603.646C654.654 606.198 657.909 609.233 659.577 612.971C660.301 614.499 661.808 615.423 663.436 615.142C665.828 614.72 666.391 612.389 666.129 610.901C665.526 607.505 660.663 602.219 656.462 599.466ZM635.48 590.964C629.069 592.09 635.038 579.267 645.027 572.695C644.122 584.271 639.138 590.321 635.48 590.964Z" fill="#00CDD6"/>
<path d="M635.479 590.964L636.665 597.697C645.83 596.089 652.221 583.91 652.08 569.499C649.588 570.122 647.216 571.268 645.046 572.715C644.142 584.292 639.157 590.341 635.5 590.984L635.479 590.964Z" fill="url(#paint9_linear_126_4140)"/>
<path d="M551.874 474.114L557.642 506.854C559.893 519.616 570.826 529.002 583.769 529.343C642.333 530.851 700.616 520.561 755.12 499.136C767.179 494.393 774.233 481.812 771.982 469.069L766.214 436.33C763.28 419.648 745.976 409.72 730.059 415.548C681.583 433.295 630.355 442.339 578.744 442.238C561.802 442.198 548.94 457.453 551.874 474.134V474.114Z" fill="url(#paint10_linear_126_4140)"/>
<path style="mix-blend-mode:multiply" opacity="0.5" d="M554.265 487.66L557.642 506.854C558.928 514.109 563.008 520.259 568.675 524.299C569.137 539.774 572.132 591.708 590.843 636.486L646.573 618.117L613.734 544.337L637.57 460.688L592.973 441.997C588.712 442.118 584.432 442.218 580.151 442.218L554.245 487.66H554.265Z" fill="url(#paint11_linear_126_4140)"/>
<path style="mix-blend-mode:multiply" opacity="0.5" d="M743.645 554.426L597.938 651.54C608.308 671.135 622.336 688.158 641.348 698.328C735.867 642.837 743.645 554.426 743.645 554.426Z" fill="url(#paint12_linear_126_4140)"/>
<path d="M474.036 946.961C270.448 977.691 203.865 911.106 203.865 911.106C82.2344 744.654 248.723 566.103 243.558 561.541C212.065 533.765 211.401 503.296 213.431 488.564C214.215 482.937 215.381 479.601 215.381 479.601C270.428 356.681 544.438 382.286 591.808 432.23C599.084 439.907 604.912 447.765 606.781 456.347C616.568 500.945 584.915 536.659 584.915 536.659C584.915 536.659 626.376 623 649.428 726.727C672.48 830.453 677.605 916.231 474.016 946.961H474.036Z" fill="url(#paint13_radial_126_4140)"/>
<g style="mix-blend-mode:screen" opacity="0.5">
<path d="M238.955 911.106C138.045 744.654 276.176 566.103 271.895 561.54C245.768 533.765 245.205 503.296 246.894 488.564C247.537 482.937 248.522 479.601 248.522 479.601C271.674 417.297 341.513 393.159 409.885 391.008C327.485 393.159 243.316 417.297 215.401 479.601C215.401 479.601 214.215 482.937 213.451 488.564C211.421 503.296 212.085 533.765 243.578 561.54C248.743 566.103 82.2544 744.654 203.885 911.106C203.885 911.106 248.642 955.824 376.905 955.041C274.809 954.257 238.975 911.106 238.975 911.106H238.955Z" fill="#A275FF"/>
</g>
<g style="mix-blend-mode:multiply" opacity="0.5">
<path d="M649.448 726.727C626.396 623 584.935 536.659 584.935 536.659C584.935 536.659 616.569 500.945 606.801 456.347C604.912 447.765 599.104 439.907 591.829 432.23C569.52 408.715 497.008 390.606 420.738 390.848C483.322 390.968 542.509 408.956 560.838 432.23C566.867 439.907 571.711 447.765 573.258 456.347C581.378 500.945 555.11 536.659 555.11 536.659C555.11 536.659 589.497 623 608.63 726.727C627.743 830.453 632.004 916.231 463.104 946.961C443.91 950.458 426.205 952.669 409.865 953.895C429.561 952.669 450.904 950.458 474.037 946.961C677.625 916.231 672.5 830.453 649.448 726.727Z" fill="#A275FF"/>
</g>
<path d="M467.626 546.186C408.72 544.899 406.167 538.508 367.761 562.827C329.354 587.166 301.178 579.468 284.537 544.899C267.896 510.331 273.021 516.722 234.614 505.206C223.44 501.849 216.969 495.699 213.452 488.564C214.235 482.937 215.401 479.601 215.401 479.601C270.448 356.681 544.459 382.286 591.829 432.23C599.104 439.907 603.907 448.047 606.801 456.347C609.776 521.927 517.307 547.271 467.626 546.186Z" fill="url(#paint14_linear_126_4140)"/>
<path d="M457.355 545.904C480.347 516.581 477.694 474.034 450.12 447.886C420.838 420.11 374.593 421.336 346.819 450.599C319.044 479.882 320.27 526.128 349.532 553.903C354.134 558.265 359.199 561.842 364.484 564.776C365.57 564.133 366.635 563.55 367.74 562.847C403.775 540.036 408.257 544.256 457.335 545.924L457.355 545.904Z" fill="url(#paint15_linear_126_4140)"/>
<path d="M384.783 512.059C425.13 512.059 457.837 479.351 457.837 439.003C457.837 398.655 425.13 365.946 384.783 365.946C344.436 365.946 311.728 398.655 311.728 439.003C311.728 479.351 344.436 512.059 384.783 512.059Z" fill="url(#paint16_linear_126_4140)"/>
<path d="M384.783 499.196C418.026 499.196 444.975 472.247 444.975 439.003C444.975 405.759 418.026 378.809 384.783 378.809C351.54 378.809 324.591 405.759 324.591 439.003C324.591 472.247 351.54 499.196 384.783 499.196Z" fill="url(#paint17_linear_126_4140)"/>
<g style="mix-blend-mode:multiply" opacity="0.5">
<path d="M395.556 480.505C394.872 480.505 394.209 480.224 393.747 479.701L340.91 420.573C340.368 419.97 340.167 419.146 340.368 418.362C340.569 417.578 341.152 416.955 341.915 416.694L396.621 397.641C397.284 397.42 398.008 397.48 398.611 397.822L428.054 414.563C429.179 415.206 429.601 416.613 429.018 417.759L397.706 479.219C397.344 479.922 396.661 480.425 395.857 480.525C395.757 480.525 395.656 480.545 395.556 480.545V480.505ZM346.94 420.05L395.013 473.853L423.672 417.598L397.184 402.545L346.94 420.05Z" fill="#ED8F4F"/>
<path d="M396.48 446.017C396.138 446.017 395.797 445.936 395.475 445.796L341.714 421.156C340.508 420.593 339.966 419.166 340.528 417.96C341.091 416.754 342.518 416.211 343.724 416.774L396.058 440.751L425.26 414.845C426.265 413.96 427.792 414.041 428.676 415.046C429.561 416.051 429.48 417.578 428.475 418.462L398.108 445.414C397.666 445.816 397.083 446.017 396.5 446.017H396.48Z" fill="#ED8F4F"/>
<path d="M395.555 480.505C395.555 480.505 395.515 480.505 395.495 480.505C394.169 480.465 393.103 479.36 393.144 478.033L395.013 399.852C395.053 398.525 396.138 397.46 397.485 397.5C398.811 397.54 399.876 398.646 399.836 399.972L397.967 478.154C397.927 479.46 396.862 480.505 395.555 480.505Z" fill="#ED8F4F"/>
</g>
<mask id="mask0_126_4140" style="mask-type:luminance" maskUnits="userSpaceOnUse" x="213" y="390" width="394" height="187">
<path d="M467.626 546.186C408.72 544.899 406.167 538.508 367.761 562.827C329.354 587.166 301.178 579.468 284.537 544.899C267.896 510.331 273.021 516.722 234.614 505.206C223.44 501.849 216.969 495.699 213.452 488.564C214.235 482.937 215.401 479.601 215.401 479.601C270.448 356.681 544.459 382.286 591.829 432.23C599.104 439.907 603.907 448.047 606.801 456.347C609.776 521.927 517.307 547.271 467.626 546.186Z" fill="white"/>
</mask>
<g mask="url(#mask0_126_4140)">
<path d="M487.2 573.941C527.547 573.941 560.255 541.233 560.255 500.885C560.255 460.537 527.547 427.828 487.2 427.828C446.853 427.828 414.146 460.537 414.146 500.885C414.146 541.233 446.853 573.941 487.2 573.941Z" fill="url(#paint18_linear_126_4140)"/>
<path d="M487.201 561.078C520.444 561.078 547.393 534.129 547.393 500.885C547.393 467.64 520.444 440.691 487.201 440.691C453.958 440.691 427.009 467.64 427.009 500.885C427.009 534.129 453.958 561.078 487.201 561.078Z" fill="url(#paint19_linear_126_4140)"/>
<g style="mix-blend-mode:multiply" opacity="0.5">
<path d="M518.914 536.398L510.433 528.359C505.73 533.142 499.46 536.74 494.576 537.684L490.858 530.348C495.742 529.243 501.469 526.389 505.931 521.686C511.579 515.737 511.96 508.441 507.177 503.899C502.555 499.518 496.606 500.081 488.205 503.899C476.729 509.265 467.866 510.893 460.571 503.98C453.617 497.367 453.014 487.419 459.084 478.495L450.603 470.456L455.526 465.251L463.666 472.968C468.61 468.105 473.212 465.934 476.95 464.849L480.488 472.205C477.815 473.009 472.71 474.697 467.605 480.063C461.475 486.514 463.023 492.624 466.379 495.8C470.74 499.94 475.865 498.895 485.813 494.473C497.53 489.167 506.032 488.946 513.488 496.041C520.12 502.332 521.949 512.823 515.176 522.812L523.898 531.092L518.894 536.378L518.914 536.398Z" fill="#ED8F4F"/>
</g>
<g style="mix-blend-mode:multiply" opacity="0.5">
<path d="M491.019 543.151C491.019 543.151 490.858 543.151 490.778 543.151C479.945 542.045 469.253 536.961 460.692 528.841C454.944 523.374 450.422 516.762 447.608 509.728C447.106 508.482 447.729 507.075 448.955 506.592C450.201 506.09 451.608 506.713 452.09 507.939C454.642 514.33 458.762 520.36 464.008 525.344C471.806 532.74 481.473 537.363 491.26 538.347C492.586 538.488 493.551 539.674 493.41 541C493.29 542.246 492.225 543.171 491.019 543.171V543.151Z" fill="#ED8F4F"/>
</g>
<g style="mix-blend-mode:multiply" opacity="0.5">
<path d="M527.195 505.005C526.029 505.005 525.004 504.161 524.803 502.955C523.296 493.247 518.171 483.821 510.373 476.425C504.926 471.26 498.475 467.381 491.702 465.21C490.436 464.809 489.733 463.442 490.135 462.176C490.537 460.91 491.903 460.206 493.169 460.608C500.646 463 507.74 467.26 513.709 472.908C522.271 481.028 527.918 491.438 529.586 502.191C529.787 503.517 528.883 504.743 527.576 504.944C527.456 504.944 527.335 504.964 527.195 504.964V505.005Z" fill="#ED8F4F"/>
</g>
<path d="M324.129 594.964C364.476 594.964 397.184 562.255 397.184 521.907C397.184 481.559 364.476 448.851 324.129 448.851C283.782 448.851 251.074 481.559 251.074 521.907C251.074 562.255 283.782 594.964 324.129 594.964Z" fill="url(#paint20_linear_126_4140)"/>
<path d="M324.129 582.101C357.372 582.101 384.321 555.151 384.321 521.907C384.321 488.663 357.372 461.713 324.129 461.713C290.885 461.713 263.937 488.663 263.937 521.907C263.937 555.151 290.885 582.101 324.129 582.101Z" fill="url(#paint21_linear_126_4140)"/>
<g style="mix-blend-mode:multiply" opacity="0.5">
<path d="M356.566 523.535C354.677 519.757 352.004 516.903 348.527 514.973C345.07 513.044 341.192 512.361 336.871 512.943C338.9 510.331 339.986 507.457 340.126 504.281C340.267 501.106 339.564 497.99 338.016 494.915C336.006 490.916 333.112 488.022 329.294 486.213C325.495 484.404 321.898 483.902 318.501 484.706C316.813 485.108 314.803 485.771 312.452 486.715L309.377 480.586L302.906 483.841L305.84 489.69C305.338 489.931 304.835 490.192 304.313 490.454L300.273 492.484L297.339 486.635L290.867 489.891L293.802 495.739L282.286 501.528L286.446 509.808L294.585 505.728L319.506 555.35L311.367 559.43L315.527 567.711L328.711 561.078L327.043 561.922L329.977 567.771L336.449 564.515L333.514 558.667L338.016 556.395C338.378 556.215 338.72 556.034 339.061 555.873L341.996 561.721L348.467 558.466L345.412 552.376C347 551.431 348.366 550.527 349.512 549.683C352.165 547.713 354.335 545.382 356.044 542.709C357.752 540.015 358.676 536.981 358.817 533.564C358.958 530.147 358.194 526.811 356.566 523.555V523.535ZM304.574 500.663L310.804 497.528C312.975 496.443 314.964 495.699 316.773 495.297C322.119 494.091 325.978 495.84 328.329 500.523C329.957 503.759 330.238 506.693 329.193 509.306C328.631 510.713 327.525 512.099 325.877 513.426C324.47 514.571 322.682 515.697 320.491 516.802L314.261 519.938L304.574 500.663ZM347.542 535.956C347.02 538.508 345.734 540.598 343.704 542.246C343.041 542.789 342.217 543.372 341.252 543.995C339.584 545.06 337.494 546.246 334.941 547.572C334.419 547.854 333.856 548.135 333.293 548.416L329.535 550.306L318.401 528.138L324.109 525.264C326.5 524.058 328.611 523.133 330.459 522.47C331.685 522.028 332.771 521.706 333.756 521.505C336.228 521.003 338.579 521.284 340.85 522.349C343.121 523.414 344.91 525.243 346.216 527.856C347.643 530.71 348.105 533.423 347.583 535.956H347.542Z" fill="#ED8F4F"/>
</g>
</g>
<path d="M213.431 970.175C253.778 970.175 286.486 937.466 286.486 897.118C286.486 856.77 253.778 824.062 213.431 824.062C173.084 824.062 140.376 856.77 140.376 897.118C140.376 937.466 173.084 970.175 213.431 970.175Z" fill="url(#paint22_linear_126_4140)"/>
<path d="M213.431 957.312C246.675 957.312 273.624 930.362 273.624 897.118C273.624 863.874 246.675 836.924 213.431 836.924C180.188 836.924 153.239 863.874 153.239 897.118C153.239 930.362 180.188 957.312 213.431 957.312Z" fill="url(#paint23_linear_126_4140)"/>
<g style="mix-blend-mode:multiply" opacity="0.5">
<path d="M207.583 844.722C206.678 845.325 188.671 905.7 188.671 905.7C188.671 905.7 216.004 923.728 216.305 922.823C216.607 921.919 238.232 900.595 238.232 900.595L207.603 844.722H207.583Z" fill="#ED8F4F"/>
</g>
<g style="mix-blend-mode:multiply" opacity="0.5">
<path d="M187.606 913.699C187.606 913.699 216.607 934.762 216.908 933.857C217.21 932.953 240.945 908.634 240.945 908.634L218.395 949.534L187.606 913.699Z" fill="#ED8F4F"/>
</g>
<path d="M382.612 943.323L369.428 943.424C356.285 936.852 335.343 932.591 311.728 932.591C288.114 932.591 265.182 937.274 252.199 944.389L240.342 944.489C240.342 944.489 236.322 954.94 240.683 964.145C240.925 964.668 241.186 965.17 241.507 965.693C248.863 977.691 277.502 986.635 311.728 986.635C349.753 986.635 380.884 975.601 383.577 961.593C384.703 957.593 385.989 950.076 382.612 943.323Z" fill="url(#paint24_linear_126_4140)"/>
<path d="M311.728 975.219C351.52 975.219 383.778 963.117 383.778 948.187C383.778 933.258 351.52 921.155 311.728 921.155C271.936 921.155 239.679 933.258 239.679 948.187C239.679 963.117 271.936 975.219 311.728 975.219Z" fill="url(#paint25_linear_126_4140)"/>
<path d="M311.729 970.938C345.238 970.938 372.403 960.752 372.403 948.187C372.403 935.622 345.238 925.436 311.729 925.436C278.219 925.436 251.054 935.622 251.054 948.187C251.054 960.752 278.219 970.938 311.729 970.938Z" fill="url(#paint26_linear_126_4140)"/>
<g style="mix-blend-mode:multiply" opacity="0.5">
<path d="M332.027 944.791C331.866 943.826 331.404 940.912 318.12 939.947C317.135 939.887 316.291 940.61 316.21 941.595C316.13 942.58 316.874 943.424 317.858 943.504C323.244 943.886 326.239 944.65 327.646 945.193C325.696 945.936 321.194 946.82 314.341 947.001L314 932.39H323.084C324.189 932.39 324.973 931.687 324.872 930.822C324.752 929.978 323.807 929.295 322.742 929.295H300.655C299.59 929.295 298.645 929.978 298.545 930.822C298.424 931.687 299.228 932.39 300.313 932.39H309.297L308.955 947.001C302.182 946.8 297.741 945.896 295.811 945.152C297.238 944.61 300.213 943.866 305.559 943.504C306.543 943.444 307.287 942.58 307.207 941.615C307.146 940.63 306.302 939.887 305.317 939.967C292.053 940.892 291.591 943.806 291.43 944.75C291.309 945.514 291.53 946.278 292.073 946.921C294.103 949.313 301.861 950.358 308.875 950.579L308.553 964.286C308.513 965.813 309.679 967.099 311.146 967.099H312.151C313.618 967.099 314.783 965.853 314.743 964.306L314.422 950.579C321.496 950.378 329.314 949.373 331.364 946.981C331.907 946.338 332.128 945.574 332.007 944.811L332.027 944.791Z" fill="#ED8F4F"/>
</g>
<path d="M377.588 610.138C359.179 610.138 342.759 608.59 328.51 606.259C265.243 595.948 230.233 569.278 228.786 568.133C225.148 565.319 224.485 560.073 227.299 556.436C230.112 552.798 235.338 552.135 238.975 554.948C239.558 555.39 273.001 580.533 332.208 589.959C387.135 598.702 476.227 595.305 588.613 529.464C592.572 527.133 597.697 528.479 600.028 532.439C602.359 536.418 601.013 541.523 597.054 543.854C508.765 595.567 433.902 610.138 377.608 610.138H377.588Z" fill="#242D42"/>
<path d="M606.921 456.347C610.177 500.422 567.008 527.394 529.606 538.066C510.152 543.714 489.954 546.668 469.735 546.628C449.658 546.567 429.38 543.995 409.382 545.663C394.45 547.231 381.025 555.672 368.584 563.57C346.879 577.679 318.541 586.583 297.7 566.043C286.385 555.21 281.522 540.337 274.548 526.912C272.257 522.591 269.584 518.37 265.283 515.898C261.062 513.506 256.118 512.22 251.335 510.753C241.769 507.638 231.378 506.13 222.998 500.161C218.837 497.207 215.461 493.187 213.311 488.605L213.532 488.504C223.621 508.12 248.803 505.467 266.167 514.35C275.231 519.737 278.447 530.69 283.21 539.453C294.223 564.234 311.568 581.217 340.327 574.001C355.139 570.323 367.258 561.4 380.522 554.044C389.426 549.22 399.052 545.181 409.242 544.296C419.391 543.372 429.48 544.276 439.549 544.678C459.626 545.764 479.865 546.809 499.741 543.091C545.865 535.011 607.002 511.034 606.901 456.307L606.921 456.347Z" fill="#C1AAFF"/>
<path d="M543.434 707.312C555.392 704.136 566.586 699.514 576.635 691.354C588.071 682.069 596.27 669.608 594.763 654.474C593.376 640.626 585.277 629.995 572.917 623.644C561.24 617.654 547.956 615.805 535.134 613.012C532.441 612.429 529.406 611.826 527.075 613.313C524.643 614.841 523.879 618.177 524.522 620.991C526.974 631.522 538.992 634.698 547.916 637.732C535.978 647.339 520.422 653.57 505.168 653.851C501.309 653.931 497.31 654.534 494.135 656.725C490.959 658.916 488.869 663.016 489.995 666.714C491.401 671.256 496.627 673.205 501.189 674.532C499.963 679.376 502.857 684.541 507.017 687.314C511.177 690.068 516.342 690.831 521.327 691.032C526.391 691.213 531.476 690.892 536.48 690.027C534.048 692.278 530.853 693.484 527.818 694.831C524.783 696.177 521.708 697.826 519.88 700.599C518.051 703.373 517.99 707.553 520.563 709.643C522.894 711.553 526.311 711.09 529.265 710.528C534.089 709.603 538.832 708.578 543.434 707.352V707.312Z" fill="url(#paint27_linear_126_4140)"/>
<path d="M714.504 526.248C714.504 526.248 742.963 517.144 743.646 554.426C743.646 554.426 713.841 641.39 604.048 687.475C604.048 687.475 564.878 663.759 562.688 606.359C562.688 606.359 654.714 572.615 714.525 526.228L714.504 526.248Z" fill="url(#paint28_linear_126_4140)"/>
<path d="M562.688 606.379C564.878 663.779 604.048 687.495 604.048 687.495C612.127 684.099 619.724 680.461 626.959 676.682C598.461 644.505 589.88 611.705 587.307 596.531C572.314 602.862 562.688 606.399 562.688 606.399V606.379Z" fill="url(#paint29_linear_126_4140)"/>
<path d="M715.983 595.48C720.533 590.662 716.704 579.658 707.432 570.901C698.159 562.145 686.954 558.952 682.405 563.77C677.855 568.588 681.684 579.592 690.956 588.349C700.229 597.105 711.434 600.298 715.983 595.48Z" fill="url(#paint30_linear_126_4140)"/>
<path d="M501.168 674.512C501.168 674.512 520.401 675.356 541.785 667.879C541.785 667.879 525.325 683.114 501.168 674.512Z" fill="url(#paint31_linear_126_4140)"/>
<path d="M536.459 689.987C534.028 692.238 530.832 693.444 527.797 694.791C526.411 695.414 525.044 696.097 523.758 696.921C542.288 694.63 554.206 684.681 554.206 684.681C546.408 688.319 536.459 690.007 536.459 690.007V689.987Z" fill="url(#paint32_linear_126_4140)"/>
<path d="M761.291 746.141L789.548 918.462C789.548 918.462 710.384 952.79 644.926 926.883C644.926 926.883 650.071 887.551 677.363 870.287L677.122 756.773C677.122 756.773 714.222 734.484 761.311 746.161L761.291 746.141Z" fill="url(#paint33_linear_126_4140)"/>
<path d="M677.102 756.753C677.102 756.753 713.719 725.4 761.29 746.141C761.29 746.141 726.059 785.694 677.102 756.753Z" fill="url(#paint34_linear_126_4140)"/>
<path d="M789.548 918.462C789.548 918.462 710.384 952.79 644.926 926.883C644.926 926.883 650.071 887.551 677.363 870.287C754.659 872.096 789.568 918.482 789.568 918.482L789.548 918.462Z" fill="url(#paint35_linear_126_4140)"/>
<path d="M684.057 708.216C684.057 708.216 699.512 691.133 732.874 692.5L744.349 747.99C744.349 747.99 730.703 768.772 693.864 757.698L684.057 708.236V708.216Z" fill="url(#paint36_linear_126_4140)"/>
<path d="M432.174 324.363C423.331 325.931 417.02 333.669 417.1 342.653C417.301 362.73 420.798 382.628 427.491 401.56C430.485 410.021 439.067 415.146 447.91 413.579C458.803 411.649 465.475 400.575 462.099 390.044C457.074 374.367 454.2 358.068 453.557 341.607C453.115 330.553 443.066 322.434 432.174 324.343V324.363Z" fill="url(#paint37_linear_126_4140)"/>
<path d="M827.492 254.663C836.335 253.096 844.917 258.221 847.912 266.682C854.604 285.614 858.101 305.511 858.302 325.589C858.382 334.553 852.072 342.311 843.229 343.878C832.336 345.808 822.287 337.668 821.845 326.614C821.202 310.154 818.328 293.854 813.304 278.178C809.927 267.647 816.6 256.572 827.492 254.643V254.663Z" fill="url(#paint38_linear_126_4140)"/>
<path d="M470.077 39.9957C423.491 48.2158 424.717 149.671 449.638 314.616L583.226 291.061C550.226 127.543 512.101 32.5795 470.097 39.9957H470.077Z" fill="url(#paint39_linear_126_4140)"/>
<path d="M478.94 90.3615C454.843 94.6022 460.973 176.763 482.558 308.827L550.267 296.889C525.386 165.428 500.666 86.5428 478.94 90.3816V90.3615Z" fill="url(#paint40_linear_126_4140)"/>
<path d="M694.607 0.402495C648.021 8.6226 649.247 110.078 674.168 275.022L807.757 251.468C774.757 87.9497 736.631 -6.99359 694.607 0.402495Z" fill="url(#paint41_linear_126_4140)"/>
<path d="M703.491 50.7682C679.394 55.0089 685.524 137.17 707.109 269.234L774.817 257.296C749.937 125.835 725.217 46.9496 703.491 50.7883V50.7682Z" fill="url(#paint42_linear_126_4140)"/>
<path d="M649.347 178.411C655.055 189.465 658.19 203.353 650.714 214.929C662.21 210.267 672.379 202.428 679.795 192.5C683.674 205.262 687.472 219.391 681.925 231.51C679.112 237.66 674.108 242.604 668.561 246.483C657.788 254 644.926 257.899 632.104 260.693C602.721 267.084 569.379 267.425 545.563 249.056C549.201 251.608 593.054 222.828 597.496 219.974C616.186 207.975 633.551 193.967 649.367 178.391L649.347 178.411Z" fill="url(#paint43_linear_126_4140)"/>
<path d="M617.835 221.521C514.714 239.71 442.323 317.912 456.13 396.214C463.566 438.4 494.536 471.984 537.625 491.157C553.221 498.091 570.204 501.266 587.266 500.864C612.469 500.262 638.797 497.709 665.707 492.966C692.598 488.223 718.222 481.631 742.118 473.551C758.297 468.084 773.169 459.302 785.448 447.444C819.393 414.684 836.999 372.538 829.563 330.352C815.756 252.05 720.975 203.333 617.855 221.501L617.835 221.521Z" fill="url(#paint44_linear_126_4140)"/>
<path d="M616.648 447.102C616.648 447.102 640.946 468.768 656.964 443.384L653.246 422.281" stroke="#242D42" stroke-width="4" stroke-miterlimit="10" stroke-linecap="round"/>
<path d="M696.093 433.094C696.093 433.094 680.679 461.774 656.943 443.404" stroke="#242D42" stroke-width="4" stroke-miterlimit="10" stroke-linecap="round"/>
<path d="M501.309 454.016C500.787 454.116 500.224 454.016 499.762 453.674C498.837 453.011 498.596 451.725 499.259 450.8L509.449 436.249C510.112 435.325 511.398 435.083 512.323 435.747C513.247 436.41 513.488 437.696 512.825 438.621L502.636 453.172C502.314 453.634 501.832 453.935 501.309 454.016Z" fill="url(#paint45_linear_126_4140)"/>
<path d="M519.175 450.86C518.653 450.961 518.09 450.86 517.628 450.519C516.703 449.856 516.462 448.569 517.125 447.645L527.315 433.094C527.978 432.169 529.264 431.928 530.189 432.591C531.113 433.255 531.355 434.541 530.691 435.465L520.502 450.016C520.18 450.479 519.698 450.78 519.175 450.86Z" fill="url(#paint46_linear_126_4140)"/>
<path d="M537.043 447.725C536.52 447.826 535.957 447.725 535.495 447.384C534.571 446.72 534.329 445.434 534.993 444.51L545.182 429.958C545.845 429.034 547.132 428.793 548.056 429.456C548.981 430.119 549.222 431.406 548.559 432.33L538.369 446.881C538.048 447.343 537.565 447.645 537.043 447.725Z" fill="url(#paint47_linear_126_4140)"/>
<path d="M806.873 400.133C806.35 400.233 805.787 400.133 805.325 399.791L790.774 389.602C789.85 388.938 789.609 387.652 790.272 386.728C790.935 385.803 792.221 385.562 793.146 386.225L807.697 396.415C808.621 397.078 808.862 398.364 808.199 399.289C807.877 399.751 807.395 400.053 806.873 400.133Z" fill="url(#paint48_linear_126_4140)"/>
<path d="M788.986 403.288C788.463 403.389 787.901 403.288 787.438 402.947L772.888 392.757C771.963 392.094 771.722 390.807 772.385 389.883C773.048 388.958 774.335 388.717 775.259 389.381L789.81 399.57C790.734 400.233 790.975 401.52 790.312 402.444C789.991 402.907 789.508 403.208 788.986 403.288Z" fill="url(#paint49_linear_126_4140)"/>
<path d="M771.119 406.444C770.596 406.544 770.033 406.444 769.571 406.102L755.021 395.912C754.096 395.249 753.855 393.963 754.518 393.038C755.181 392.114 756.468 391.873 757.392 392.536L771.943 402.726C772.867 403.389 773.108 404.675 772.445 405.6C772.124 406.062 771.641 406.363 771.119 406.444Z" fill="url(#paint50_linear_126_4140)"/>
<path d="M432.675 322.675C435.509 353.867 441.016 384.678 449.155 414.925C453.296 430.32 468.911 439.626 484.487 436.229C593.818 412.353 705.661 392.636 816.579 377.663C832.376 375.533 843.872 361.444 842.505 345.567C839.812 314.354 834.466 283.524 826.447 253.236C822.608 238.685 808.52 229.219 793.608 231.229C679.775 246.564 568.234 266.24 456.009 290.759C441.317 293.975 431.309 307.682 432.675 322.675Z" fill="url(#paint51_linear_126_4140)"/>
<path d="M813.907 357.827C758.437 365.303 702.104 374.086 646.474 383.894C590.844 393.702 534.892 404.735 480.227 416.674L479.805 416.754C474.76 417.638 469.776 414.543 468.47 409.72C460.652 380.678 455.306 350.792 452.592 320.866C452.15 315.902 455.446 311.36 460.27 310.315C515.86 298.175 572.173 287.041 627.662 277.253C683.152 267.466 739.887 258.663 796.261 251.066C801.165 250.402 805.807 253.538 807.093 258.361C814.771 287.403 819.976 317.309 822.548 347.275C822.97 352.259 819.353 356.882 814.308 357.766L813.886 357.827H813.907Z" fill="url(#paint52_linear_126_4140)"/>
<g opacity="0.5">
<path d="M636.766 275.686C633.732 276.208 630.677 276.711 627.662 277.233C615.423 279.384 603.123 281.635 590.823 283.926L500.987 412.232C516.583 408.916 532.239 405.66 547.975 402.505L636.787 275.686H636.766Z" fill="#FFFFFD"/>
<path d="M703.29 264.672C695.733 265.858 688.197 267.084 680.66 268.31L592.813 393.762C600.511 392.295 608.208 390.868 615.926 389.441L703.29 264.672Z" fill="#FFFFFD"/>
</g>
<path d="M646.695 385.2C619.864 389.923 612.529 402.223 613.895 410.102C616.086 422.804 642.092 430.863 654.372 428.712C666.35 426.602 687.191 410.142 686.005 397.4C685.222 388.999 674.55 380.296 646.695 385.22V385.2Z" fill="url(#paint53_linear_126_4140)"/>
<path d="M759.442 775.967L734.501 782.217L744.027 841.065L769.913 836.241L759.442 775.967Z" fill="#EFF3F5"/>
<path d="M284.476 376.196C279.632 371.353 276.216 350.109 276.216 350.109C276.216 350.109 272.799 371.353 267.956 376.196C263.112 381.04 241.869 384.456 241.869 384.456C241.869 384.456 263.112 387.873 267.956 392.717C272.799 397.56 276.216 418.804 276.216 418.804C276.216 418.804 279.632 397.56 284.476 392.717C289.32 387.873 310.563 384.456 310.563 384.456C310.563 384.456 289.32 381.04 284.476 376.196Z" fill="url(#paint54_linear_126_4140)"/>
<path d="M327.083 332.985C324.53 330.433 322.702 319.158 322.702 319.158C322.702 319.158 320.893 330.413 318.32 332.985C315.748 335.558 304.493 337.367 304.493 337.367C304.493 337.367 315.748 339.175 318.32 341.748C320.893 344.321 322.702 355.576 322.702 355.576C322.702 355.576 324.51 344.321 327.083 341.748C329.655 339.175 340.91 337.367 340.91 337.367C340.91 337.367 329.655 335.558 327.083 332.985Z" fill="url(#paint55_linear_126_4140)"/>
<path d="M124.078 821.991C126.63 819.439 128.459 808.164 128.459 808.164C128.459 808.164 130.268 819.419 132.84 821.991C135.413 824.564 146.667 826.373 146.667 826.373C146.667 826.373 135.413 828.182 132.84 830.754C130.268 833.327 128.459 844.582 128.459 844.582C128.459 844.582 126.65 833.327 124.078 830.754C121.505 828.182 110.25 826.373 110.25 826.373C110.25 826.373 121.505 824.564 124.078 821.991Z" fill="url(#paint56_linear_126_4140)"/>
</g>
<defs>
<linearGradient id="paint0_linear_126_4140" x1="499.339" y1="1093.38" x2="499.339" y2="146.877" gradientUnits="userSpaceOnUse">
<stop offset="0.04" stop-color="#009AA2"/>
<stop offset="0.13" stop-color="#0AA7AE"/>
<stop offset="0.34" stop-color="#20C2C8"/>
<stop offset="0.55" stop-color="#2FD6DB"/>
<stop offset="0.77" stop-color="#38E2E6"/>
<stop offset="0.99" stop-color="#3CE6EA"/>
</linearGradient>
<linearGradient id="paint1_linear_126_4140" x1="238.915" y1="1093.38" x2="238.915" y2="146.877" gradientUnits="userSpaceOnUse">
<stop offset="0.04" stop-color="#009AA2"/>
<stop offset="0.13" stop-color="#0AA7AE"/>
<stop offset="0.34" stop-color="#20C2C8"/>
<stop offset="0.55" stop-color="#2FD6DB"/>
<stop offset="0.77" stop-color="#38E2E6"/>
<stop offset="0.99" stop-color="#3CE6EA"/>
</linearGradient>
<linearGradient id="paint2_linear_126_4140" x1="499.339" y1="791.583" x2="499.339" y2="1024.4" gradientUnits="userSpaceOnUse">
<stop stop-color="#61799F"/>
<stop offset="1" stop-color="#EFF4F6"/>
</linearGradient>
<linearGradient id="paint3_linear_126_4140" x1="596.713" y1="812.847" x2="717.12" y2="933.271" gradientUnits="userSpaceOnUse">
<stop stop-color="#182941"/>
<stop offset="1" stop-color="#0094F2"/>
</linearGradient>
<linearGradient id="paint4_linear_126_4140" x1="632.345" y1="710.608" x2="636.324" y2="785.312" gradientUnits="userSpaceOnUse">
<stop stop-color="#61799F"/>
<stop offset="1" stop-color="#EFF4F6"/>
</linearGradient>
<linearGradient id="paint5_linear_126_4140" x1="593.155" y1="886.144" x2="691.013" y2="983.999" gradientUnits="userSpaceOnUse">
<stop stop-color="#182941"/>
<stop offset="1" stop-color="#0094F2"/>
</linearGradient>
<linearGradient id="paint6_linear_126_4140" x1="633.651" y1="678.953" x2="633.651" y2="758.863" gradientUnits="userSpaceOnUse">
<stop stop-color="#F98314"/>
<stop offset="0.23" stop-color="#F98719"/>
<stop offset="0.52" stop-color="#FA9228"/>
<stop offset="0.83" stop-color="#FDA642"/>
<stop offset="1" stop-color="#FFB353"/>
</linearGradient>
<linearGradient id="paint7_linear_126_4140" x1="704.042" y1="710.494" x2="669.85" y2="516.585" gradientUnits="userSpaceOnUse">
<stop stop-color="#DB4B3A"/>
<stop offset="0.37" stop-color="#E95E4A"/>
<stop offset="1" stop-color="#FF7B64"/>
</linearGradient>
<linearGradient id="paint8_linear_126_4140" x1="703.497" y1="707.407" x2="695.498" y2="662.042" gradientUnits="userSpaceOnUse">
<stop stop-color="#DB4B3A"/>
<stop offset="0.37" stop-color="#E95E4A"/>
<stop offset="1" stop-color="#FF7B64"/>
</linearGradient>
<linearGradient id="paint9_linear_126_4140" x1="641.336" y1="572.258" x2="646.349" y2="590.966" gradientUnits="userSpaceOnUse">
<stop stop-color="#006831"/>
<stop offset="0.02" stop-color="#007036"/>
<stop offset="0.13" stop-color="#00914A"/>
<stop offset="0.23" stop-color="#00AB58"/>
<stop offset="0.32" stop-color="#00B962"/>
<stop offset="0.4" stop-color="#00BE65"/>
<stop offset="0.9" stop-color="#00CDD6" stop-opacity="0"/>
</linearGradient>
<linearGradient id="paint10_linear_126_4140" x1="671.268" y1="524.621" x2="650.641" y2="407.646" gradientUnits="userSpaceOnUse">
<stop stop-color="#DB4B3A"/>
<stop offset="0.37" stop-color="#E95E4A"/>
<stop offset="1" stop-color="#FF7B64"/>
</linearGradient>
<linearGradient id="paint11_linear_126_4140" x1="600.429" y1="640.325" x2="600.429" y2="455.624" gradientUnits="userSpaceOnUse">
<stop stop-color="#DB4B3A"/>
<stop offset="0.37" stop-color="#E95E4A"/>
<stop offset="1" stop-color="#FF7B64"/>
</linearGradient>
<linearGradient id="paint12_linear_126_4140" x1="670.791" y1="701.182" x2="670.791" y2="564.515" gradientUnits="userSpaceOnUse">
<stop stop-color="#DB4B3A"/>
<stop offset="0.37" stop-color="#E95E4A"/>
<stop offset="1" stop-color="#FF7B64"/>
</linearGradient>
<radialGradient id="paint13_radial_126_4140" cx="0" cy="0" r="1" gradientUnits="userSpaceOnUse" gradientTransform="translate(296.073 606.399) scale(482.301 482.313)">
<stop offset="0.01" stop-color="#A275FF"/>
<stop offset="0.12" stop-color="#9E72F9"/>
<stop offset="0.26" stop-color="#926CE9"/>
<stop offset="0.42" stop-color="#8062D0"/>
<stop offset="0.59" stop-color="#6553AC"/>
<stop offset="0.76" stop-color="#44417E"/>
<stop offset="0.94" stop-color="#1B2B46"/>
<stop offset="0.96" stop-color="#182941"/>
</radialGradient>
<linearGradient id="paint14_linear_126_4140" x1="410.167" y1="528.298" x2="410.167" y2="399.229" gradientUnits="userSpaceOnUse">
<stop stop-color="#242D42"/>
<stop offset="0.36" stop-color="#39455E"/>
<stop offset="1" stop-color="#67789C"/>
</linearGradient>
<linearGradient id="paint15_linear_126_4140" x1="399.816" y1="501.95" x2="399.816" y2="411.086" gradientUnits="userSpaceOnUse">
<stop stop-color="#F69300"/>
<stop offset="0.18" stop-color="#F69605"/>
<stop offset="0.41" stop-color="#F89E14"/>
<stop offset="0.65" stop-color="#FAAD2E"/>
<stop offset="0.92" stop-color="#FDC151"/>
<stop offset="1" stop-color="#FFC85E"/>
</linearGradient>
<linearGradient id="paint16_linear_126_4140" x1="311.728" y1="439.003" x2="457.857" y2="439.003" gradientUnits="userSpaceOnUse">
<stop stop-color="#F2A800"/>
<stop offset="0.19" stop-color="#F2AB05"/>
<stop offset="0.43" stop-color="#F5B314"/>
<stop offset="0.7" stop-color="#F9C22E"/>
<stop offset="0.99" stop-color="#FED551"/>
<stop offset="1" stop-color="#FFD754"/>
</linearGradient>
<linearGradient id="paint17_linear_126_4140" x1="324.591" y1="439.003" x2="444.975" y2="439.003" gradientUnits="userSpaceOnUse">
<stop stop-color="#FFD754"/>
<stop offset="0.01" stop-color="#FED551"/>
<stop offset="0.3" stop-color="#F9C22E"/>
<stop offset="0.57" stop-color="#F5B314"/>
<stop offset="0.81" stop-color="#F2AB05"/>
<stop offset="1" stop-color="#F2A800"/>
</linearGradient>
<linearGradient id="paint18_linear_126_4140" x1="414.125" y1="500.885" x2="560.255" y2="500.885" gradientUnits="userSpaceOnUse">
<stop stop-color="#FFD754"/>
<stop offset="0.01" stop-color="#FED551"/>
<stop offset="0.3" stop-color="#F9C22E"/>
<stop offset="0.57" stop-color="#F5B314"/>
<stop offset="0.81" stop-color="#F2AB05"/>
<stop offset="1" stop-color="#F2A800"/>
</linearGradient>
<linearGradient id="paint19_linear_126_4140" x1="426.989" y1="500.885" x2="547.393" y2="500.885" gradientUnits="userSpaceOnUse">
<stop stop-color="#F2A800"/>
<stop offset="0.19" stop-color="#F2AB05"/>
<stop offset="0.43" stop-color="#F5B314"/>
<stop offset="0.7" stop-color="#F9C22E"/>
<stop offset="0.99" stop-color="#FED551"/>
<stop offset="1" stop-color="#FFD754"/>
</linearGradient>
<linearGradient id="paint20_linear_126_4140" x1="251.074" y1="521.907" x2="397.204" y2="521.907" gradientUnits="userSpaceOnUse">
<stop stop-color="#F2A800"/>
<stop offset="0.19" stop-color="#F2AB05"/>
<stop offset="0.43" stop-color="#F5B314"/>
<stop offset="0.7" stop-color="#F9C22E"/>
<stop offset="0.99" stop-color="#FED551"/>
<stop offset="1" stop-color="#FFD754"/>
</linearGradient>
<linearGradient id="paint21_linear_126_4140" x1="263.937" y1="521.907" x2="384.341" y2="521.907" gradientUnits="userSpaceOnUse">
<stop stop-color="#FFD754"/>
<stop offset="0.01" stop-color="#FED551"/>
<stop offset="0.3" stop-color="#F9C22E"/>
<stop offset="0.57" stop-color="#F5B314"/>
<stop offset="0.81" stop-color="#F2AB05"/>
<stop offset="1" stop-color="#F2A800"/>
</linearGradient>
<linearGradient id="paint22_linear_126_4140" x1="140.376" y1="897.118" x2="286.506" y2="897.118" gradientUnits="userSpaceOnUse">
<stop stop-color="#FFD754"/>
<stop offset="0.01" stop-color="#FED551"/>
<stop offset="0.3" stop-color="#F9C22E"/>
<stop offset="0.57" stop-color="#F5B314"/>
<stop offset="0.81" stop-color="#F2AB05"/>
<stop offset="1" stop-color="#F2A800"/>
</linearGradient>
<linearGradient id="paint23_linear_126_4140" x1="153.239" y1="897.118" x2="273.644" y2="897.118" gradientUnits="userSpaceOnUse">
<stop stop-color="#F2A800"/>
<stop offset="0.19" stop-color="#F2AB05"/>
<stop offset="0.43" stop-color="#F5B314"/>
<stop offset="0.7" stop-color="#F9C22E"/>
<stop offset="0.98" stop-color="#FED551"/>
<stop offset="0.99" stop-color="#FFD754"/>
</linearGradient>
<linearGradient id="paint24_linear_126_4140" x1="238.654" y1="959.623" x2="384.783" y2="959.623" gradientUnits="userSpaceOnUse">
<stop stop-color="#F2A800"/>
<stop offset="0.19" stop-color="#F2AB05"/>
<stop offset="0.43" stop-color="#F5B314"/>
<stop offset="0.7" stop-color="#F9C22E"/>
<stop offset="0.98" stop-color="#FED551"/>
<stop offset="0.99" stop-color="#FFD754"/>
</linearGradient>
<linearGradient id="paint25_linear_126_4140" x1="239.679" y1="948.187" x2="383.778" y2="948.187" gradientUnits="userSpaceOnUse">
<stop stop-color="#FFD754"/>
<stop offset="0.01" stop-color="#FED551"/>
<stop offset="0.3" stop-color="#F9C22E"/>
<stop offset="0.57" stop-color="#F5B314"/>
<stop offset="0.81" stop-color="#F2AB05"/>
<stop offset="1" stop-color="#F2A800"/>
</linearGradient>
<linearGradient id="paint26_linear_126_4140" x1="251.054" y1="948.187" x2="372.403" y2="948.187" gradientUnits="userSpaceOnUse">
<stop stop-color="#F2A800"/>
<stop offset="0.19" stop-color="#F2AB05"/>
<stop offset="0.43" stop-color="#F5B314"/>
<stop offset="0.7" stop-color="#F9C22E"/>
<stop offset="0.98" stop-color="#FED551"/>
<stop offset="0.99" stop-color="#FFD754"/>
</linearGradient>
<linearGradient id="paint27_linear_126_4140" x1="635.162" y1="645.403" x2="519.914" y2="662.893" gradientUnits="userSpaceOnUse">
<stop stop-color="#182941"/>
<stop offset="1" stop-color="#0094F2"/>
</linearGradient>
<linearGradient id="paint28_linear_126_4140" x1="679.937" y1="625.915" x2="630.837" y2="560.436" gradientUnits="userSpaceOnUse">
<stop stop-color="#DB4B3A"/>
<stop offset="1" stop-color="#FF7B64"/>
</linearGradient>
<linearGradient id="paint29_linear_126_4140" x1="641.852" y1="634.979" x2="583.147" y2="643.902" gradientUnits="userSpaceOnUse">
<stop stop-color="#F98314"/>
<stop offset="1" stop-color="#FFB353"/>
</linearGradient>
<linearGradient id="paint30_linear_126_4140" x1="701.338" y1="610.288" x2="706.411" y2="572.634" gradientUnits="userSpaceOnUse">
<stop stop-color="#F98314"/>
<stop offset="1" stop-color="#FFB353"/>
</linearGradient>
<linearGradient id="paint31_linear_126_4140" x1="554.527" y1="656.203" x2="493.591" y2="685.082" gradientUnits="userSpaceOnUse">
<stop stop-color="#182941"/>
<stop offset="1" stop-color="#0094F2"/>
</linearGradient>
<linearGradient id="paint32_linear_126_4140" x1="565.159" y1="678.632" x2="504.222" y2="707.512" gradientUnits="userSpaceOnUse">
<stop stop-color="#182941"/>
<stop offset="1" stop-color="#0094F2"/>
</linearGradient>
<linearGradient id="paint33_linear_126_4140" x1="577.217" y1="710.628" x2="701.524" y2="834.931" gradientUnits="userSpaceOnUse">
<stop stop-color="#182941"/>
<stop offset="1" stop-color="#0094F2"/>
</linearGradient>
<linearGradient id="paint34_linear_126_4140" x1="715.689" y1="724.234" x2="723.648" y2="785.996" gradientUnits="userSpaceOnUse">
<stop stop-color="#61799F"/>
<stop offset="1" stop-color="#EFF4F6"/>
</linearGradient>
<linearGradient id="paint35_linear_126_4140" x1="625.029" y1="830.151" x2="733.418" y2="938.537" gradientUnits="userSpaceOnUse">
<stop stop-color="#182941"/>
<stop offset="1" stop-color="#0094F2"/>
</linearGradient>
<linearGradient id="paint36_linear_126_4140" x1="704.918" y1="687.877" x2="724.836" y2="775.525" gradientUnits="userSpaceOnUse">
<stop stop-color="#F98314"/>
<stop offset="0.23" stop-color="#F98719"/>
<stop offset="0.52" stop-color="#FA9228"/>
<stop offset="0.83" stop-color="#FDA642"/>
<stop offset="1" stop-color="#FFB353"/>
</linearGradient>
<linearGradient id="paint37_linear_126_4140" x1="448.055" y1="421.062" x2="430.291" y2="320.317" gradientUnits="userSpaceOnUse">
<stop stop-color="#242D42"/>
<stop offset="0.36" stop-color="#39455E"/>
<stop offset="1" stop-color="#67789C"/>
</linearGradient>
<linearGradient id="paint38_linear_126_4140" x1="845.617" y1="350.95" x2="827.852" y2="250.205" gradientUnits="userSpaceOnUse">
<stop stop-color="#242D42"/>
<stop offset="0.36" stop-color="#39455E"/>
<stop offset="1" stop-color="#67789C"/>
</linearGradient>
<linearGradient id="paint39_linear_126_4140" x1="516.412" y1="302.846" x2="470.064" y2="39.9984" gradientUnits="userSpaceOnUse">
<stop stop-color="#DFE1EA"/>
<stop offset="0.13" stop-color="#E4E5ED"/>
<stop offset="0.6" stop-color="#F2F2F5"/>
<stop offset="1" stop-color="#F7F7F9"/>
</linearGradient>
<linearGradient id="paint40_linear_126_4140" x1="534.298" y1="404.283" x2="493.08" y2="170.532" gradientUnits="userSpaceOnUse">
<stop stop-color="#8D95A3"/>
<stop offset="1" stop-color="#DFE2EB"/>
</linearGradient>
<linearGradient id="paint41_linear_126_4140" x1="740.955" y1="263.252" x2="694.607" y2="0.404485" gradientUnits="userSpaceOnUse">
<stop stop-color="#DFE1EA"/>
<stop offset="0.13" stop-color="#E4E5ED"/>
<stop offset="0.6" stop-color="#F2F2F5"/>
<stop offset="1" stop-color="#F7F7F9"/>
</linearGradient>
<linearGradient id="paint42_linear_126_4140" x1="758.849" y1="364.69" x2="717.631" y2="130.938" gradientUnits="userSpaceOnUse">
<stop stop-color="#8D95A3"/>
<stop offset="1" stop-color="#DFE2EB"/>
</linearGradient>
<linearGradient id="paint43_linear_126_4140" x1="659.734" y1="484.206" x2="620.059" y2="259.202" gradientUnits="userSpaceOnUse">
<stop stop-color="#DFE1EA"/>
<stop offset="0.13" stop-color="#E4E5ED"/>
<stop offset="0.6" stop-color="#F2F2F5"/>
<stop offset="1" stop-color="#F7F7F9"/>
</linearGradient>
<linearGradient id="paint44_linear_126_4140" x1="664.358" y1="485.431" x2="624.383" y2="258.725" gradientUnits="userSpaceOnUse">
<stop stop-color="#DFE1EA"/>
<stop offset="0.13" stop-color="#E4E5ED"/>
<stop offset="0.6" stop-color="#F2F2F5"/>
<stop offset="1" stop-color="#F7F7F9"/>
</linearGradient>
<linearGradient id="paint45_linear_126_4140" x1="509.992" y1="467.243" x2="500.206" y2="411.744" gradientUnits="userSpaceOnUse">
<stop stop-color="#8D95A3"/>
<stop offset="1" stop-color="#DFE2EB"/>
</linearGradient>
<linearGradient id="paint46_linear_126_4140" x1="527.884" y1="464.088" x2="518.098" y2="408.589" gradientUnits="userSpaceOnUse">
<stop stop-color="#8D95A3"/>
<stop offset="1" stop-color="#DFE2EB"/>
</linearGradient>
<linearGradient id="paint47_linear_126_4140" x1="545.757" y1="460.936" x2="535.971" y2="405.437" gradientUnits="userSpaceOnUse">
<stop stop-color="#8D95A3"/>
<stop offset="1" stop-color="#DFE2EB"/>
</linearGradient>
<linearGradient id="paint48_linear_126_4140" x1="803.194" y1="415.542" x2="793.408" y2="360.043" gradientUnits="userSpaceOnUse">
<stop stop-color="#8D95A3"/>
<stop offset="1" stop-color="#DFE2EB"/>
</linearGradient>
<linearGradient id="paint49_linear_126_4140" x1="785.322" y1="418.693" x2="775.536" y2="363.195" gradientUnits="userSpaceOnUse">
<stop stop-color="#8D95A3"/>
<stop offset="1" stop-color="#DFE2EB"/>
</linearGradient>
<linearGradient id="paint50_linear_126_4140" x1="767.449" y1="421.845" x2="757.663" y2="366.346" gradientUnits="userSpaceOnUse">
<stop stop-color="#8D95A3"/>
<stop offset="1" stop-color="#DFE2EB"/>
</linearGradient>
<linearGradient id="paint51_linear_126_4140" x1="650.524" y1="406.973" x2="624.177" y2="257.558" gradientUnits="userSpaceOnUse">
<stop stop-color="#DB4B3A"/>
<stop offset="0.37" stop-color="#E95E4A"/>
<stop offset="1" stop-color="#FF7B64"/>
</linearGradient>
<linearGradient id="paint52_linear_126_4140" x1="672.765" y1="533.112" x2="629.276" y2="286.475" gradientUnits="userSpaceOnUse">
<stop stop-color="#009AA2"/>
<stop offset="0.6" stop-color="#22C6CB"/>
<stop offset="1" stop-color="#3CE6EA"/>
</linearGradient>
<linearGradient id="paint53_linear_126_4140" x1="650.751" y1="408.259" x2="641.073" y2="353.374" gradientUnits="userSpaceOnUse">
<stop stop-color="#242D42"/>
<stop offset="0.36" stop-color="#39455E"/>
<stop offset="1" stop-color="#67789C"/>
</linearGradient>
<linearGradient id="paint54_linear_126_4140" x1="331.102" y1="439.344" x2="236.481" y2="344.725" gradientUnits="userSpaceOnUse">
<stop stop-color="#F2A800"/>
<stop offset="0.19" stop-color="#F2AB05"/>
<stop offset="0.43" stop-color="#F5B314"/>
<stop offset="0.7" stop-color="#F9C22E"/>
<stop offset="0.99" stop-color="#FED551"/>
<stop offset="1" stop-color="#FFD754"/>
</linearGradient>
<linearGradient id="paint55_linear_126_4140" x1="377.367" y1="391.993" x2="304.17" y2="318.798" gradientUnits="userSpaceOnUse">
<stop stop-color="#F2A800"/>
<stop offset="0.19" stop-color="#F2AB05"/>
<stop offset="0.43" stop-color="#F5B314"/>
<stop offset="0.7" stop-color="#F9C22E"/>
<stop offset="0.99" stop-color="#FED551"/>
<stop offset="1" stop-color="#FFD754"/>
</linearGradient>
<linearGradient id="paint56_linear_126_4140" x1="73.8136" y1="881.02" x2="147.011" y2="807.824" gradientUnits="userSpaceOnUse">
<stop stop-color="#F2A800"/>
<stop offset="0.19" stop-color="#F2AB05"/>
<stop offset="0.43" stop-color="#F5B314"/>
<stop offset="0.7" stop-color="#F9C22E"/>
<stop offset="0.99" stop-color="#FED551"/>
<stop offset="1" stop-color="#FFD754"/>
</linearGradient>
<clipPath id="clip0_126_4140">
<rect width="1000" height="1000" fill="white"/>
</clipPath>
</defs>
</svg>
