<svg width="500" height="500" viewBox="0 0 500 500" fill="none" xmlns="http://www.w3.org/2000/svg">
<g clip-path="url(#clip0_41_22277)">
<path d="M166.557 78.5605C149.049 93.9545 134.388 112.959 114.289 124.77C93.4974 136.987 68.5095 140.5 47.645 152.592C25.635 165.348 9.4011 187.676 4.05604 212.548C-1.29007 237.419 4.33323 264.445 19.1582 285.119C44.7873 320.86 92.2077 333.824 123.255 364.975C144.409 386.201 157.14 415.101 180.123 434.333C200.308 451.225 227.172 459.152 253.487 458.607C279.802 458.062 305.553 449.461 328.423 436.432C349.121 424.64 368.216 409.024 391.253 402.962C402.047 400.122 413.312 399.509 424.186 397.001C450.571 390.917 474.042 373.174 487.09 349.449C500.137 325.725 502.553 296.402 493.561 270.862C484.322 244.615 464.336 223.704 451.062 199.247C438.58 176.252 432.178 150.38 420.02 127.21C390.755 71.4331 330.687 40.3617 270.917 40.3669C233.46 40.37 196.109 52.5789 166.557 78.5605Z" fill="url(#paint0_radial_41_22277)"/>
<path d="M60.058 344.754C53.7391 346.019 50.8564 352.803 51.9222 359.306C52.9892 365.809 57.1031 372.02 61.4189 377.757C69.2817 388.208 78.2187 398.036 88.0103 406.998C92.5081 411.114 97.2946 415.12 102.764 417.658C108.235 420.196 114.546 421.086 119.192 418.825C124.111 416.432 126.379 410.856 126.125 405.156C125.873 399.458 123.428 393.64 120.469 388.166C111.587 371.739 88.4548 351.868 70.4751 346.08C67.8277 345.227 65.0694 344.528 62.468 344.528C61.6459 344.528 60.8404 344.598 60.058 344.754Z" fill="url(#paint1_linear_41_22277)"/>
<mask id="mask0_41_22277" style="mask-type:luminance" maskUnits="userSpaceOnUse" x="-11" y="-12" width="523" height="523">
<path d="M-11 -12H512V511H-11V-12Z" fill="white"/>
</mask>
<g mask="url(#mask0_41_22277)">
<mask id="mask1_41_22277" style="mask-type:luminance" maskUnits="userSpaceOnUse" x="252" y="77" width="215" height="266">
<path d="M252.558 77.5345H466.057V342.056H252.558V77.5345Z" fill="white"/>
</mask>
<g mask="url(#mask1_41_22277)">
<g opacity="0.5">
<path d="M466.057 118.93L254.832 77.5345L252.558 78.3305V300.661L463.782 342.056L466.057 341.259V118.93Z" fill="url(#paint2_linear_41_22277)"/>
</g>
</g>
<mask id="mask2_41_22277" style="mask-type:luminance" maskUnits="userSpaceOnUse" x="252" y="77" width="215" height="266">
<path d="M252.558 77.5345H466.057V342.056H252.558V77.5345Z" fill="white"/>
</mask>
<g mask="url(#mask2_41_22277)">
<g opacity="0.5">
<path d="M254.832 77.5345L252.558 78.3305V300.661L463.782 342.056L466.057 341.259L254.832 299.865V77.5345Z" fill="url(#paint3_linear_41_22277)"/>
</g>
</g>
<mask id="mask3_41_22277" style="mask-type:luminance" maskUnits="userSpaceOnUse" x="252" y="77" width="215" height="43">
<path d="M252.558 77.5344H466.057V119.748H252.558V77.5344Z" fill="white"/>
</mask>
<g mask="url(#mask3_41_22277)">
<g opacity="0.5">
<path d="M252.558 78.3304L463.782 119.748L466.057 118.93L254.832 77.5344L252.558 78.3304Z" fill="url(#paint4_linear_41_22277)"/>
</g>
</g>
<mask id="mask4_41_22277" style="mask-type:luminance" maskUnits="userSpaceOnUse" x="41" y="76" width="214" height="297">
<path d="M41.0936 76.9927H254.832V372.125H41.0936V76.9927Z" fill="white"/>
</mask>
<g mask="url(#mask4_41_22277)">
<g opacity="0.5">
<path d="M252.318 76.9927L41.0941 149.252V371.583L43.6066 372.125L254.832 299.865V77.5345L252.318 76.9927Z" fill="url(#paint5_linear_41_22277)"/>
</g>
</g>
</g>
<path d="M43.6063 149.794V372.125L254.831 299.865V77.5356L43.6063 149.794Z" fill="url(#paint6_linear_41_22277)"/>
<mask id="mask5_41_22277" style="mask-type:luminance" maskUnits="userSpaceOnUse" x="-11" y="-12" width="523" height="523">
<path d="M-11 -12H512V511H-11V-12Z" fill="white"/>
</mask>
<g mask="url(#mask5_41_22277)">
<mask id="mask6_41_22277" style="mask-type:luminance" maskUnits="userSpaceOnUse" x="41" y="149" width="3" height="224">
<path d="M41.0936 149.252H43.6067V372.125H41.0936V149.252Z" fill="white"/>
</mask>
<g mask="url(#mask6_41_22277)">
<g opacity="0.5">
<path d="M43.6066 149.794L41.0941 149.252V371.583L43.6066 372.125V149.794Z" fill="url(#paint7_linear_41_22277)"/>
</g>
</g>
<mask id="mask7_41_22277" style="mask-type:luminance" maskUnits="userSpaceOnUse" x="43" y="77" width="212" height="296">
<path d="M43.6068 77.5346H254.832V372.125H43.6068V77.5346Z" fill="white"/>
</mask>
<g mask="url(#mask7_41_22277)">
<g opacity="0.649994">
<path d="M254.831 299.865L43.6064 372.125V149.794L254.831 77.5346V299.865Z" fill="url(#paint8_linear_41_22277)"/>
</g>
</g>
</g>
<path d="M41.093 149.252L43.6065 149.917L254.832 77.5345L252.318 76.9927L41.093 149.252Z" fill="url(#paint9_linear_41_22277)"/>
<mask id="mask8_41_22277" style="mask-type:luminance" maskUnits="userSpaceOnUse" x="-11" y="-12" width="523" height="523">
<path d="M-11 -12H512V511H-11V-12Z" fill="white"/>
</mask>
<g mask="url(#mask8_41_22277)">
<path d="M466.056 334.524L254.831 292.966L43.6063 365.367V372.265L254.831 413.661L466.056 341.422V334.524Z" fill="#007A7F"/>
<path d="M466.057 334.524L254.832 292.966L43.6065 365.367L254.832 406.762L466.057 334.524Z" fill="#009BA3"/>
<path d="M57.7862 161.133V356.318L89.7823 364.801V167.192L57.7862 161.133Z" fill="#B0B4BB"/>
<path d="M149.71 340.262V148.536L89.7819 167.192V364.801L149.71 340.262Z" fill="#8D94A1"/>
<path d="M89.7821 263.055V266.516L149.711 247.86V244.4L89.7821 263.055Z" fill="#72757C"/>
<path d="M89.7821 230.524V233.985L149.711 215.329V211.869L89.7821 230.524Z" fill="#72757C"/>
<path d="M89.7821 199.377V202.839L149.711 184.182V180.722L89.7821 199.377Z" fill="#72757C"/>
<path d="M89.7823 167.192L57.7862 161.133L115.861 143.394L149.711 148.537L89.7823 167.192Z" fill="#A6ABB4"/>
<path d="M259.932 95.281V290.467L294.76 299.01V101.402L259.932 95.281Z" fill="#B0B4BB"/>
<path d="M332.746 281.959V90.2334L294.759 101.402V299.011L332.746 281.959Z" fill="#8D94A1"/>
<path d="M294.759 101.402L259.932 95.2806L300.258 84.5664L332.746 90.2336L294.759 101.402Z" fill="#A6ABB4"/>
<path d="M334.658 135.456V345.775L378.333 354.508V141.767L334.658 135.456Z" fill="#B0B4BB"/>
<path d="M432.599 335.459V127.488L378.333 141.767V354.508L432.599 335.459Z" fill="#8D94A1"/>
<path d="M378.333 141.767L334.658 135.455L387.07 122.095L432.598 127.488L378.333 141.767Z" fill="#A6ABB4"/>
<path d="M391.499 136.337L384.33 135.337L405.672 129.686L413.701 130.495L391.499 136.337Z" fill="#8D94A1"/>
<path d="M405.43 132.736L402.873 133.395L403.929 125.482L406.241 125.493L405.43 132.736Z" fill="#7E828B"/>
<path d="M408.473 124.926C408.473 126.646 406.962 128.008 405.1 127.968C403.238 127.928 401.728 126.501 401.728 124.78C401.728 123.061 403.238 121.699 405.1 121.739C406.962 121.778 408.473 123.205 408.473 124.926Z" fill="#B6BBC3"/>
<path d="M345.15 134.108C345.121 129.99 346.41 128.226 347.918 128.268C349.428 128.309 350.845 129.71 350.615 134.258C350.615 134.258 350.482 135.457 348.095 135.424C345.237 135.383 345.15 134.108 345.15 134.108Z" fill="#8D94A1"/>
<path d="M350.6 133.346C350.6 133.346 350.864 133.274 350.944 133.495C351.023 133.715 351.02 134.31 350.998 134.489C350.977 134.666 350.109 135.605 347.939 135.525C345.768 135.447 344.809 134.716 344.79 134.417C344.771 134.119 344.655 133.214 344.838 133.11C344.974 133.033 345.224 133.16 345.224 133.16C345.224 133.16 346.6 133.873 348.202 133.837C349.806 133.8 350.6 133.346 350.6 133.346Z" fill="#7E828B"/>
<path d="M375.257 138.3C375.228 134.182 376.517 132.419 378.025 132.461C379.534 132.501 380.952 133.902 380.722 138.45C380.722 138.45 380.588 139.65 378.202 139.616C375.344 139.575 375.257 138.3 375.257 138.3Z" fill="#8D94A1"/>
<path d="M380.707 137.539C380.707 137.539 380.972 137.467 381.051 137.687C381.131 137.907 381.128 138.502 381.106 138.68C381.085 138.859 380.217 139.797 378.046 139.718C375.876 139.639 374.916 138.908 374.898 138.61C374.879 138.312 374.763 137.406 374.946 137.303C375.082 137.225 375.332 137.353 375.332 137.353C375.332 137.353 376.707 138.065 378.31 138.03C379.913 137.993 380.707 137.539 380.707 137.539Z" fill="#7E828B"/>
<path d="M415.805 128.011C415.776 123.893 417.065 122.129 418.573 122.171C420.082 122.212 421.5 123.612 421.27 128.16C421.27 128.16 421.136 129.36 418.75 129.327C415.892 129.286 415.805 128.011 415.805 128.011Z" fill="#8D94A1"/>
<path d="M421.255 127.249C421.255 127.249 421.52 127.177 421.599 127.398C421.679 127.617 421.676 128.212 421.654 128.391C421.633 128.569 420.765 129.507 418.594 129.428C416.424 129.349 415.464 128.618 415.446 128.32C415.427 128.022 415.311 127.116 415.494 127.013C415.63 126.935 415.88 127.063 415.88 127.063C415.88 127.063 417.255 127.775 418.858 127.74C420.461 127.703 421.255 127.249 421.255 127.249Z" fill="#7E828B"/>
<path d="M385.131 124.494C385.102 120.375 386.389 118.612 387.899 118.654C389.408 118.695 390.825 120.095 390.595 124.643C390.595 124.643 390.461 125.843 388.075 125.809C385.218 125.769 385.131 124.494 385.131 124.494Z" fill="#8D94A1"/>
<path d="M390.58 123.732C390.58 123.732 390.844 123.66 390.924 123.881C391.003 124.1 391 124.696 390.978 124.873C390.957 125.052 390.089 125.99 387.918 125.911C385.748 125.833 384.789 125.101 384.77 124.803C384.751 124.505 384.635 123.599 384.818 123.496C384.954 123.418 385.204 123.546 385.204 123.546C385.204 123.546 386.58 124.258 388.182 124.223C389.786 124.186 390.58 123.732 390.58 123.732Z" fill="#7E828B"/>
<path d="M359.85 152.743C360.455 157.956 357.723 162.17 354.227 162.095C354.227 162.095 335.333 168.846 323.711 170.642C320.156 171.191 316.029 169.736 314.946 167.808C311.574 161.8 312.78 131.589 312.459 128.183C312.034 123.71 309.004 123.184 307.698 123.167C307.33 123.163 307.1 123.199 307.1 123.199C303.667 123.125 300.882 118.947 300.882 113.863C300.882 108.776 303.667 104.717 307.1 104.791C307.1 104.791 324.901 105.682 330.446 110.536C334.909 114.443 331.177 144.033 333.122 146.51C335.18 149.127 344.685 146.329 349.619 144.754C351.339 144.209 352.457 143.807 352.457 143.807C355.953 143.883 359.093 146.221 359.85 152.743Z" fill="#C1C5CB"/>
<path d="M350.653 144.492C350.653 144.492 356.313 143.826 358.159 151.16C360.188 159.219 355.928 161.865 355.928 161.865L354.711 162.077C354.711 162.077 355.36 163.281 356.982 162.999C358.606 162.716 361.771 158.262 360.716 152.049C359.661 145.836 354.873 143.234 352.642 143.066L350.774 143.86L350.653 144.492Z" fill="#818792"/>
<path d="M306.831 104.784L307.967 104.862C307.967 104.862 307.805 104.011 307.264 103.788C306.724 103.566 303.207 103.278 301.259 106.728C299.312 110.177 298.662 116.405 300.988 120.265C303.315 124.124 307.427 124.159 307.427 124.159L308.076 124.174V123.01L307.318 122.993C307.318 122.993 304.181 122.45 302.45 118.867C301.093 116.061 301.097 110.692 302.882 107.767C304.667 104.844 306.831 104.784 306.831 104.784Z" fill="#818792"/>
<path d="M307.1 123.199C303.821 119.07 304.42 108.399 309.601 105.816C310.438 105.41 311.342 105.173 312.241 105.165C306.663 106.598 305.948 113.225 306.077 118.085C306.215 119.803 306.201 121.673 307.1 123.199Z" fill="#8D94A1"/>
<path d="M309.969 123.526C308.581 118.214 311.246 108.49 316.861 106.464C317.781 106.188 318.76 106.145 319.653 106.382C312.973 106.171 309.819 118.214 309.969 123.526Z" fill="#8D94A1"/>
<path d="M311.755 125.417C314.019 119.608 320.943 110.698 327.486 109.892C328.598 109.822 329.753 110.054 330.636 110.693C329.639 110.266 328.562 110.175 327.552 110.4C324.462 111.105 322.036 113.352 319.79 115.504C316.846 118.542 313.954 121.782 311.755 125.417Z" fill="#8D94A1"/>
<path d="M312.296 125.957C316.034 126.336 331.564 126.104 332.799 122.22C331.672 127.477 316.367 127.636 312.296 125.957Z" fill="#8D94A1"/>
<path d="M312.674 132.949C315.936 134.152 319.452 134.025 322.857 133.801C325.405 133.581 327.979 133.234 330.385 132.347C331.195 132.061 331.937 131.652 332.583 131.049C332.123 131.805 331.369 132.358 330.607 132.81C325.592 135.318 317.561 136 312.674 132.949Z" fill="#8D94A1"/>
<path d="M312.674 140.038C315.936 141.241 319.452 141.114 322.857 140.89C325.405 140.67 327.979 140.323 330.385 139.436C331.195 139.15 331.937 138.741 332.583 138.138C332.123 138.894 331.369 139.447 330.607 139.899C325.592 142.407 317.561 143.089 312.674 140.038Z" fill="#8D94A1"/>
<path d="M312.674 148.819C316.001 150.018 319.591 149.697 323.032 149.325C325.613 148.987 328.211 148.514 330.634 147.541C331.449 147.226 332.2 146.8 332.854 146.186C329.391 150.734 317.324 151.99 312.674 148.819Z" fill="#8D94A1"/>
<path d="M348.597 145.36C353.011 147.086 355.407 159.141 351.951 162.573C353.756 158.279 352.297 153.405 350.963 149.174C350.379 147.816 349.935 146.166 348.597 145.36Z" fill="#8D94A1"/>
<path d="M343.945 146.424C348.334 149.645 349.626 160.745 345.73 164.661C346.174 163.969 346.493 163.253 346.633 162.462C347.145 160.142 347.083 157.723 346.865 155.366C346.503 152.24 345.953 148.97 343.945 146.424Z" fill="#8D94A1"/>
<path d="M338.426 147.681C341.567 151.044 341.798 161.159 339.632 165.166C339.2 165.926 338.649 166.669 337.886 167.084C338.5 166.481 338.904 165.744 339.164 164.957C340.394 160.956 340.068 156.634 339.676 152.511C339.4 150.89 339.383 149.075 338.426 147.681Z" fill="#8D94A1"/>
<path d="M334.423 147.595C336.651 152.919 336.088 163.088 332.22 167.578C331.518 168.302 330.64 168.907 329.662 169.076C334.928 166.885 335.421 152.518 334.423 147.595Z" fill="#8D94A1"/>
<path d="M333.557 146.941C334.699 154.07 328.616 167.81 321.343 170.092C320.053 170.455 318.652 170.46 317.435 169.977C318.715 170.229 320.023 170.103 321.177 169.607C327.515 167.01 333.558 153.552 333.557 146.941Z" fill="#8D94A1"/>
<path d="M333.232 147.093C331.227 152.068 320.737 164.459 314.997 163.727C314.408 163.589 313.928 163.19 313.648 162.701C314.027 163.128 314.519 163.396 315.044 163.453C316.688 163.491 318.122 162.453 319.426 161.532C321.18 160.196 322.827 158.699 324.405 157.131C327.482 153.941 330.782 150.803 333.232 147.093Z" fill="#8D94A1"/>
<path d="M225.236 374.202L120.656 358.835L248.47 317.06L348.514 330.077L225.236 374.202Z" fill="#A6ABB4"/>
<path d="M225.236 192.166L120.656 177.492L248.823 138.838L348.514 152.542L225.236 192.166Z" fill="#A6ABB4"/>
<path d="M225.236 374.202V192.167L120.656 177.492V358.835L225.236 374.202Z" fill="#9CA3AE"/>
<path d="M348.515 152.541V330.078L225.236 374.202V192.166L348.515 152.541Z" fill="#8D94A1"/>
<path d="M120.655 278.546V292.042L225.235 307.409L348.515 262.247V248.75L225.235 293.913L120.655 278.546Z" fill="#878E98"/>
<path d="M120.655 222.136V235.632L225.235 250.999L348.515 205.837V192.34L225.235 237.502L120.655 222.136Z" fill="#878E98"/>
<path d="M148.182 203.594L128.905 200.756V191.535L148.182 194.373V203.594Z" fill="#878E98"/>
<path d="M174.232 207.011L154.954 204.173V194.953L174.232 197.791V207.011Z" fill="#878E98"/>
<path d="M148.124 217.162L128.846 214.324V205.104L148.124 207.942V217.162Z" fill="#878E98"/>
<path d="M174.232 221.454L154.954 218.616V209.395L174.232 212.233V221.454Z" fill="#878E98"/>
<path d="M201.663 212.669C201.663 215.588 198.837 217.892 195.35 217.818C191.864 217.742 189.037 215.316 189.037 212.397C189.037 209.479 191.864 207.175 195.35 207.25C198.837 207.324 201.663 209.751 201.663 212.669Z" fill="#878E98"/>
<path d="M219.468 214.864C219.468 217.782 216.642 220.087 213.156 220.013C209.669 219.937 206.842 217.511 206.842 214.592C206.842 211.674 209.669 209.37 213.156 209.445C216.642 209.519 219.468 211.946 219.468 214.864Z" fill="#878E98"/>
<path d="M147.371 261.346L128.093 258.509V249.288L147.371 252.126V261.346Z" fill="#878E98"/>
<path d="M173.42 264.764L154.142 261.926V252.706L173.42 255.543V264.764Z" fill="#878E98"/>
<path d="M147.312 274.915L128.034 272.077V262.857L147.312 265.694V274.915Z" fill="#878E98"/>
<path d="M173.42 279.206L154.142 276.369V267.148L173.42 269.986V279.206Z" fill="#878E98"/>
<path d="M200.851 270.422C200.851 273.341 198.025 275.645 194.539 275.571C191.052 275.495 188.225 273.069 188.225 270.15C188.225 267.232 191.052 264.928 194.539 265.003C198.025 265.077 200.851 267.504 200.851 270.422Z" fill="#878E98"/>
<path d="M218.657 272.617C218.657 275.535 215.831 277.84 212.344 277.765C208.858 277.69 206.031 275.263 206.031 272.345C206.031 269.427 208.858 267.122 212.344 267.198C215.831 267.272 218.657 269.699 218.657 272.617Z" fill="#878E98"/>
<path d="M173.394 379.007L173.907 387.585L244.751 401.187L289.472 384.703L289.56 377.714L173.394 379.007Z" fill="#8D94A1"/>
<path d="M244.352 391.722L173.394 379.007L217.942 363.6L289.559 377.714L244.352 391.722Z" fill="#9CA3AE"/>
<path d="M261.712 272.996V375.888C261.712 378.867 249.286 382.399 233.958 382.07C218.631 381.74 206.204 377.673 206.204 374.692V271.802L261.712 272.996Z" fill="#8D94A1"/>
<path d="M261.712 272.997C261.712 275.977 249.286 278.126 233.958 277.796C218.63 277.466 206.204 274.783 206.204 271.803C206.204 268.823 218.63 266.674 233.958 267.004C249.286 267.334 261.712 270.017 261.712 272.997Z" fill="#A6ABB4"/>
<path d="M261.712 345.441V360.669C261.712 363.648 249.286 365.796 233.958 365.467C218.631 365.136 206.204 362.453 206.204 359.473V344.247C206.204 347.227 218.631 349.91 233.958 350.239C249.286 350.569 261.712 348.421 261.712 345.441Z" fill="#818792"/>
<path d="M261.712 316.025V331.253C261.712 334.232 249.286 336.38 233.958 336.051C218.631 335.72 206.204 333.037 206.204 330.057V314.83C206.204 317.81 218.631 320.493 233.958 320.823C249.286 321.152 261.712 319.005 261.712 316.025Z" fill="#818792"/>
<path d="M261.712 286.609V301.836C261.712 304.815 249.286 306.964 233.958 306.634C218.631 306.304 206.204 303.621 206.204 300.641V285.414C206.204 288.394 218.631 291.077 233.958 291.407C249.286 291.736 261.712 289.589 261.712 286.609Z" fill="#818792"/>
<mask id="mask9_41_22277" style="mask-type:luminance" maskUnits="userSpaceOnUse" x="252" y="280" width="7" height="7">
<path d="M252.623 280.164H258.465V286.514H252.623V280.164Z" fill="white"/>
</mask>
<g mask="url(#mask9_41_22277)">
<g opacity="0.300003">
<path d="M258.466 283.402C258.466 285.155 257.158 286.548 255.544 286.513C253.931 286.478 252.623 285.03 252.623 283.277C252.623 281.523 253.931 280.13 255.544 280.165C257.158 280.199 258.466 281.649 258.466 283.402Z" fill="#818792"/>
</g>
</g>
<mask id="mask10_41_22277" style="mask-type:luminance" maskUnits="userSpaceOnUse" x="252" y="309" width="7" height="7">
<path d="M252.623 309.05H258.465V315.399H252.623V309.05Z" fill="white"/>
</mask>
<g mask="url(#mask10_41_22277)">
<g opacity="0.300003">
<path d="M258.466 312.287C258.466 314.04 257.158 315.433 255.544 315.398C253.931 315.363 252.623 313.915 252.623 312.162C252.623 310.409 253.931 309.015 255.544 309.05C257.158 309.084 258.466 310.534 258.466 312.287Z" fill="#818792"/>
</g>
</g>
<mask id="mask11_41_22277" style="mask-type:luminance" maskUnits="userSpaceOnUse" x="252" y="339" width="7" height="8">
<path d="M252.623 339.998H258.465V346.347H252.623V339.998Z" fill="white"/>
</mask>
<g mask="url(#mask11_41_22277)">
<g opacity="0.300003">
<path d="M258.466 343.236C258.466 344.989 257.158 346.382 255.544 346.346C253.931 346.312 252.623 344.863 252.623 343.11C252.623 341.357 253.931 339.964 255.544 339.998C257.158 340.033 258.466 341.482 258.466 343.236Z" fill="#818792"/>
</g>
</g>
<mask id="mask12_41_22277" style="mask-type:luminance" maskUnits="userSpaceOnUse" x="252" y="368" width="7" height="7">
<path d="M252.623 368.089H258.465V374.44H252.623V368.089Z" fill="white"/>
</mask>
<g mask="url(#mask12_41_22277)">
<g opacity="0.300003">
<path d="M258.466 371.327C258.466 373.08 257.158 374.474 255.544 374.438C253.931 374.403 252.623 372.955 252.623 371.202C252.623 369.449 253.931 368.055 255.544 368.09C257.158 368.124 258.466 369.574 258.466 371.327Z" fill="#818792"/>
</g>
</g>
<path d="M141.084 380.505L52.0755 363.743L114.771 340.984L199.243 353.668L141.084 380.505Z" fill="#8D94A1"/>
<path d="M141.084 323.749L52.0755 310.448L114.771 287.689L199.243 300.372L141.084 323.749Z" fill="#A6ABB4"/>
<path d="M199.244 300.372V353.668L141.084 380.505V323.749L199.244 300.372Z" fill="#8D94A1"/>
<path d="M52.0752 310.448L141.084 323.749V380.505L52.0752 363.744V310.448Z" fill="#9CA3AE"/>
<path d="M60.994 314.775L70.9907 316.269L71.3024 323.661L127.109 332.01L125.532 325.684L127.301 324.684L137.077 326.144V374.659L135.308 375.66L125.264 365.784L70.6769 356.98L70.5754 362.998L68.7616 363.128L59.2242 315.775L60.994 314.775Z" fill="#8D94A1"/>
<path d="M59.2245 315.776L69.2211 317.269L69.5329 325.699L125.339 334.049L125.532 325.684L135.307 327.145V375.659L123.629 373.46L123.495 367.822L68.9073 359.018L68.762 363.128L59.2245 361.332V315.776Z" fill="#B6BBC3"/>
<path d="M124.405 346.337L69.8426 337.776L70.0884 333.203L124.622 341.022L124.405 346.337Z" fill="#8D94A1"/>
<path d="M124.081 354.265L69.518 345.705L69.7638 341.132L124.297 348.951L124.081 354.265Z" fill="#8D94A1"/>
<path d="M123.864 362.196L69.3015 353.636L69.5474 349.063L124.081 356.882L123.864 362.196Z" fill="#8D94A1"/>
<path d="M146.477 329.443C146.52 330.517 145.703 331.402 144.65 331.421C143.598 331.44 142.71 330.584 142.666 329.51C142.622 328.435 143.439 327.551 144.491 327.532C145.544 327.514 146.433 328.369 146.477 329.443Z" fill="#B6BBC3"/>
<path d="M152.103 327.395C152.147 328.469 151.329 329.354 150.276 329.373C149.224 329.391 148.336 328.536 148.292 327.461C148.248 326.387 149.065 325.502 150.117 325.484C151.17 325.466 152.059 326.32 152.103 327.395Z" fill="#B6BBC3"/>
<path d="M157.783 325.401C157.827 326.475 157.009 327.36 155.957 327.379C154.905 327.398 154.017 326.542 153.973 325.468C153.929 324.394 154.746 323.509 155.798 323.49C156.85 323.472 157.739 324.327 157.783 325.401Z" fill="#B6BBC3"/>
<path d="M180.119 314.233L180.336 321.885L181.397 322.254L194.598 309.043L193.536 308.674L180.119 314.233Z" fill="#9CA3AE"/>
<path d="M181.181 314.949L181.398 322.254L194.844 316.666L194.598 309.043L181.181 314.949Z" fill="#B6BBC3"/>
<path d="M180.473 325.316L180.69 332.967L181.751 333.337L194.952 320.126L193.89 319.756L180.473 325.316Z" fill="#9CA3AE"/>
<path d="M181.535 326.031L181.752 333.336L195.198 327.748L194.952 320.125L181.535 326.031Z" fill="#B6BBC3"/>
<path d="M166.074 343.653C164.86 343.627 165.143 342.127 165.143 340.116C165.143 338.105 164.86 336.346 166.074 336.372C167.287 336.398 168.271 338.049 168.271 340.06C168.271 342.07 167.287 343.679 166.074 343.653ZM170.516 341.094L172.313 336.072L170.683 335.871L168.856 336.742C168.777 336.56 168.693 336.385 168.603 336.219L168.837 331.858L167.415 331.694L166.684 334.634C166.627 334.628 166.132 334.325 166.074 334.324C166.015 334.323 167.349 331.822 167.291 331.826L165.301 331.783L162.789 333.798L164.818 336.777C164.727 336.938 163.864 335.962 163.864 335.962L161.825 335.846L161.204 340.483L162.693 340.926C162.717 341.16 162.749 341.389 162.791 341.613L161.549 343.069L163.287 346.836L165.277 346.879C165.277 346.879 165.524 345.49 165.629 345.562L165.102 348.05L167.467 348.073L167.363 345.312C167.469 345.243 167.571 345.167 167.671 345.082L168.86 346.955L170.851 346.998L170.418 341.777C170.459 341.556 170.492 341.328 170.516 341.094Z" fill="#9CA3AE"/>
<path d="M168.064 343.696C166.851 343.67 165.866 342.018 165.866 340.008C165.866 337.997 166.851 336.388 168.064 336.415C169.277 336.441 170.262 338.091 170.262 340.103C170.262 342.113 169.277 343.722 168.064 343.696ZM171.445 341.114L172.933 340.735L172.313 336.072L170.846 336.785C170.768 336.603 170.683 336.428 170.593 336.262L171.349 333.983L168.837 331.859L168.238 334.377C168.18 334.372 168.123 334.368 168.064 334.367C168.006 334.366 167.948 334.367 167.89 334.37L167.291 331.826L164.78 333.84L165.535 336.153C165.445 336.315 165.36 336.486 165.282 336.665L163.815 335.889L163.195 340.525L164.683 340.969C164.707 341.203 164.74 341.432 164.782 341.656L163.539 343.112L165.278 346.879L166.467 345.056C166.566 345.146 166.669 345.226 166.773 345.299L166.671 348.057L169.457 348.116L169.354 345.355C169.459 345.286 169.562 345.209 169.661 345.125L170.851 346.998L172.589 343.307L171.346 341.797C171.388 341.576 171.421 341.348 171.445 341.114Z" fill="#B6BBC3"/>
<path d="M151.473 361.293C149.514 361.252 149.97 358.83 149.97 355.584C149.97 352.339 149.514 349.498 151.473 349.539C153.433 349.582 155.02 352.248 155.02 355.493C155.02 358.739 153.433 361.335 151.473 361.293ZM158.645 357.164L161.544 349.056L158.915 348.731L155.965 350.137C155.838 349.843 155.701 349.561 155.555 349.295L155.935 342.255L153.639 341.989L152.46 346.735C152.367 346.726 151.567 346.236 151.473 346.234C151.379 346.232 153.531 342.196 153.438 342.202L150.225 342.133L146.171 345.386L149.446 350.193C149.3 350.454 147.908 348.878 147.908 348.878L144.615 348.691L143.614 356.175L146.015 356.892C146.056 357.269 146.108 357.64 146.174 358.001L144.169 360.352L146.975 366.431L150.188 366.5C150.188 366.5 150.586 364.258 150.757 364.375L149.905 368.392L153.723 368.429L153.556 363.971C153.725 363.86 153.891 363.737 154.052 363.6L155.972 366.625L159.184 366.694L158.486 358.266C158.553 357.907 158.605 357.539 158.645 357.164Z" fill="#9CA3AE"/>
<path d="M154.686 361.363C152.727 361.321 151.139 358.656 151.139 355.41C151.139 352.164 152.727 349.567 154.686 349.609C156.645 349.652 158.233 352.317 158.233 355.563C158.233 358.808 156.645 361.405 154.686 361.363ZM160.144 357.197L162.546 356.583L161.545 349.056L159.178 350.206C159.051 349.913 158.914 349.631 158.768 349.364L159.988 345.683L155.934 342.255L154.968 346.321C154.874 346.312 154.78 346.306 154.686 346.303C154.592 346.301 154.498 346.303 154.405 346.309L153.438 342.202L149.384 345.455L150.605 349.188C150.458 349.449 150.321 349.725 150.195 350.014L147.828 348.761L146.827 356.245L149.228 356.961C149.269 357.339 149.321 357.709 149.387 358.07L147.382 360.421L150.187 366.501L152.108 363.558C152.269 363.702 152.434 363.833 152.604 363.951L152.436 368.401L156.936 368.499L156.769 364.041C156.938 363.93 157.103 363.806 157.265 363.669L159.185 366.694L161.99 360.735L159.985 358.298C160.051 357.94 160.103 357.572 160.144 357.197Z" fill="#B6BBC3"/>
<path d="M80.6499 195.565C76.4398 195.527 74.6009 194.238 74.6009 192.762C74.6009 191.288 75.9931 189.923 80.6499 190.222C80.6499 190.222 81.8811 190.371 81.9135 192.705C81.9511 195.501 80.6499 195.565 80.6499 195.565Z" fill="#8D94A1"/>
<path d="M79.7191 190.221C79.7191 190.221 79.6376 189.962 79.8614 189.887C80.0842 189.812 80.693 189.826 80.876 189.849C81.058 189.873 82.0423 190.737 82.0214 192.859C82.0015 194.982 81.2808 195.908 80.9775 195.922C80.6731 195.936 79.7495 196.035 79.6376 195.854C79.5549 195.72 79.6784 195.477 79.6784 195.477C79.6784 195.477 80.3687 194.144 80.2871 192.575C80.2055 191.006 79.7191 190.221 79.7191 190.221Z" fill="#7E828B"/>
<path d="M80.6499 220.747C76.4398 220.709 74.6009 219.42 74.6009 217.944C74.6009 216.47 75.9931 215.105 80.6499 215.404C80.6499 215.404 81.8811 215.553 81.9135 217.887C81.9511 220.683 80.6499 220.747 80.6499 220.747Z" fill="#8D94A1"/>
<path d="M79.7191 215.403C79.7191 215.403 79.6376 215.144 79.8614 215.069C80.0842 214.994 80.693 215.008 80.876 215.031C81.058 215.055 82.0423 215.919 82.0214 218.041C82.0015 220.164 81.2808 221.09 80.9775 221.104C80.6731 221.118 79.7495 221.217 79.6376 221.036C79.5549 220.902 79.6784 220.66 79.6784 220.66C79.6784 220.66 80.3687 219.326 80.2871 217.757C80.2055 216.188 79.7191 215.403 79.7191 215.403Z" fill="#7E828B"/>
<path d="M80.6499 245.502C76.4398 245.464 74.6009 244.176 74.6009 242.7C74.6009 241.225 75.9931 239.86 80.6499 240.159C80.6499 240.159 81.8811 240.309 81.9135 242.642C81.9511 245.438 80.6499 245.502 80.6499 245.502Z" fill="#8D94A1"/>
<path d="M79.7191 240.159C79.7191 240.159 79.6376 239.899 79.8614 239.825C80.0842 239.75 80.693 239.763 80.876 239.786C81.058 239.81 82.0423 240.675 82.0214 242.797C82.0015 244.919 81.2808 245.847 80.9775 245.859C80.6731 245.873 79.7495 245.972 79.6376 245.791C79.5549 245.657 79.6784 245.415 79.6784 245.415C79.6784 245.415 80.3687 244.081 80.2871 242.512C80.2055 240.943 79.7191 240.159 79.7191 240.159Z" fill="#7E828B"/>
<path d="M66.8694 309.604C66.8401 305.486 68.1287 303.723 69.6371 303.765C71.1465 303.805 72.5638 305.206 72.3337 309.754C72.3337 309.754 72.2008 310.954 69.8138 310.92C66.9562 310.88 66.8694 309.604 66.8694 309.604Z" fill="#8D94A1"/>
<path d="M72.3186 308.843C72.3186 308.843 72.5832 308.771 72.6627 308.992C72.7422 309.211 72.7391 309.807 72.7171 309.985C72.6962 310.163 71.828 311.101 69.6575 311.022C67.4871 310.944 66.5279 310.212 66.5091 309.914C66.4902 309.616 66.3741 308.71 66.5572 308.607C66.6932 308.529 66.9432 308.657 66.9432 308.657C66.9432 308.657 68.3187 309.369 69.9211 309.334C71.5246 309.297 72.3186 308.843 72.3186 308.843Z" fill="#7E828B"/>
<path d="M79.9343 305.495C79.905 301.377 81.1937 299.613 82.702 299.655C84.2114 299.696 85.6288 301.097 85.3986 305.645C85.3986 305.645 85.2658 306.844 82.8788 306.811C80.0211 306.77 79.9343 305.495 79.9343 305.495Z" fill="#8D94A1"/>
<path d="M85.384 304.733C85.384 304.733 85.6486 304.661 85.7281 304.882C85.8076 305.102 85.8045 305.697 85.7825 305.876C85.7616 306.053 84.8934 306.992 82.7229 306.912C80.5525 306.834 79.5933 306.103 79.5745 305.805C79.5556 305.506 79.4395 304.601 79.6226 304.497C79.7586 304.42 80.0086 304.547 80.0086 304.547C80.0086 304.547 81.3841 305.26 82.9865 305.224C84.59 305.187 85.384 304.733 85.384 304.733Z" fill="#7E828B"/>
<path d="M91.2686 301.877C91.2393 297.759 92.528 295.995 94.0363 296.037C95.5457 296.078 96.963 297.478 96.7329 302.026C96.7329 302.026 96.6001 303.226 94.2131 303.193C91.3554 303.152 91.2686 301.877 91.2686 301.877Z" fill="#8D94A1"/>
<path d="M96.7179 301.115C96.7179 301.115 96.9825 301.043 97.062 301.264C97.1415 301.484 97.1383 302.079 97.1164 302.258C97.0955 302.436 96.2273 303.374 94.0568 303.294C91.8864 303.216 90.9272 302.485 90.9084 302.187C90.8895 301.888 90.7734 300.983 90.9565 300.879C91.0925 300.802 91.3425 300.929 91.3425 300.929C91.3425 300.929 92.7169 301.642 94.3204 301.606C95.9239 301.569 96.7179 301.115 96.7179 301.115Z" fill="#7E828B"/>
<path d="M79.7192 190.221C84.8038 194.596 76.6889 198.866 82.8561 202.807C89.0233 206.749 81.558 230.077 84.4795 252.677C87.401 275.277 77.147 303.205 79.9346 305.059C82.7222 306.912 85.5611 305.604 85.4533 304.225" stroke="#72757C" stroke-width="4" stroke-miterlimit="10" stroke-linecap="round"/>
<path d="M79.7191 215.403C82.3686 216.049 78.4744 221.441 78.4744 226.44C78.4744 231.44 86.1834 260.966 80.0967 265.121C74.0111 269.275 85.7775 296.032 87.6436 297.104C89.5107 298.177 88.9532 299.545 91.3423 300.93C93.7303 302.315 96.7323 300.792 96.7323 300.792" stroke="#72757C" stroke-width="4" stroke-miterlimit="10" stroke-linecap="round"/>
<path d="M79.7191 240.159C81.9899 241.196 80.0988 244.838 79.6375 245.791C79.1772 246.743 74.0916 255.099 77.0131 259.605C79.9345 264.112 75.2275 268.296 78.4743 273.656C81.7201 279.016 77.4461 294.001 77.1208 299.92C76.7965 305.838 73.9378 308.029 72.6627 308.992C71.3866 309.954 66.0845 310.474 66.1932 308.996" stroke="#72757C" stroke-width="4" stroke-miterlimit="10" stroke-linecap="round"/>
<path d="M247.513 142.508C247.484 138.39 248.772 136.626 250.281 136.668C251.79 136.709 253.207 138.109 252.977 142.657C252.977 142.657 252.844 143.857 250.457 143.824C247.6 143.783 247.513 142.508 247.513 142.508Z" fill="#8D94A1"/>
<path d="M252.962 141.746C252.962 141.746 253.227 141.674 253.306 141.895C253.386 142.115 253.383 142.71 253.361 142.888C253.34 143.066 252.472 144.005 250.301 143.925C248.131 143.847 247.172 143.116 247.153 142.818C247.134 142.519 247.018 141.614 247.201 141.51C247.337 141.433 247.587 141.56 247.587 141.56C247.587 141.56 248.961 142.273 250.565 142.237C252.168 142.2 252.962 141.746 252.962 141.746Z" fill="#7E828B"/>
<path d="M263.932 144.819C263.903 140.701 265.191 138.937 266.7 138.979C268.21 139.02 269.627 140.42 269.397 144.968C269.397 144.968 269.263 146.168 266.877 146.135C264.019 146.094 263.932 144.819 263.932 144.819Z" fill="#8D94A1"/>
<path d="M269.382 144.057C269.382 144.057 269.646 143.985 269.726 144.206C269.805 144.425 269.802 145.02 269.78 145.199C269.759 145.377 268.891 146.315 266.721 146.236C264.55 146.157 263.591 145.426 263.572 145.128C263.553 144.83 263.437 143.924 263.62 143.821C263.756 143.743 264.006 143.871 264.006 143.871C264.006 143.871 265.382 144.583 266.984 144.548C268.588 144.511 269.382 144.057 269.382 144.057Z" fill="#7E828B"/>
<path d="M282.137 147.221C282.108 143.103 283.396 141.339 284.905 141.381C286.414 141.422 287.831 142.822 287.601 147.37C287.601 147.37 287.468 148.57 285.082 148.537C282.224 148.496 282.137 147.221 282.137 147.221Z" fill="#8D94A1"/>
<path d="M287.586 146.459C287.586 146.459 287.851 146.387 287.93 146.608C288.01 146.827 288.007 147.423 287.985 147.601C287.964 147.779 287.096 148.718 284.925 148.638C282.755 148.56 281.796 147.828 281.777 147.53C281.758 147.232 281.642 146.326 281.825 146.223C281.961 146.145 282.211 146.273 282.211 146.273C282.211 146.273 283.586 146.985 285.189 146.95C286.792 146.913 287.586 146.459 287.586 146.459Z" fill="#7E828B"/>
<path d="M289.776 108.283C286.325 108.41 284.767 107.421 284.71 106.21C284.652 104.999 285.74 103.826 289.566 103.897C289.566 103.897 290.581 103.974 290.698 105.889C290.839 108.182 289.776 108.283 289.776 108.283Z" fill="#8D94A1"/>
<path d="M288.804 103.931C288.804 103.931 288.728 103.721 288.908 103.652C289.088 103.582 289.586 103.571 289.737 103.583C289.888 103.596 290.728 104.268 290.794 106.011C290.861 107.755 290.306 108.542 290.057 108.564C289.809 108.587 289.056 108.702 288.958 108.558C288.885 108.451 288.977 108.248 288.977 108.248C288.977 108.248 289.489 107.127 289.362 105.842C289.234 104.557 288.804 103.931 288.804 103.931Z" fill="#7E828B"/>
<path d="M277.847 105.725C274.396 105.852 272.838 104.863 272.781 103.652C272.723 102.441 273.811 101.268 277.637 101.339C277.637 101.339 278.652 101.416 278.769 103.331C278.91 105.624 277.847 105.725 277.847 105.725Z" fill="#8D94A1"/>
<path d="M276.875 101.373C276.875 101.373 276.799 101.163 276.979 101.094C277.159 101.024 277.657 101.013 277.808 101.025C277.959 101.038 278.799 101.71 278.865 103.453C278.931 105.197 278.377 105.984 278.128 106.006C277.88 106.029 277.127 106.144 277.029 106C276.956 105.893 277.048 105.69 277.048 105.69C277.048 105.69 277.56 104.569 277.433 103.284C277.305 101.999 276.875 101.373 276.875 101.373Z" fill="#7E828B"/>
<path d="M266.404 103.257C262.954 103.383 261.396 102.395 261.339 101.184C261.281 99.9724 262.369 98.7998 266.195 98.871C266.195 98.871 267.21 98.9473 267.327 100.863C267.468 103.155 266.404 103.257 266.404 103.257Z" fill="#8D94A1"/>
<path d="M265.432 98.9052C265.432 98.9052 265.356 98.6949 265.536 98.6259C265.716 98.5558 266.215 98.5443 266.366 98.5568C266.516 98.5694 267.356 99.242 267.422 100.985C267.489 102.728 266.935 103.516 266.686 103.538C266.438 103.561 265.685 103.676 265.586 103.532C265.513 103.425 265.605 103.222 265.605 103.222C265.605 103.222 266.118 102.101 265.99 100.816C265.862 99.5307 265.432 98.9052 265.432 98.9052Z" fill="#7E828B"/>
<path d="M133.002 159.021L133.453 165.105C133.484 165.507 133.802 165.838 134.211 165.891L135.22 166.024L146.931 154.9L145.275 154.542C145.125 154.509 144.97 154.518 144.826 154.564L133.571 158.184C133.207 158.301 132.973 158.644 133.002 159.021Z" fill="#9CA3AE"/>
<path d="M134.087 159.573L134.531 165.419C134.566 165.882 135.046 166.19 135.488 166.035L147.197 161.937C147.486 161.836 147.67 161.562 147.652 161.259L147.314 155.557C147.287 155.092 146.811 154.776 146.366 154.926L134.55 158.882C134.253 158.981 134.063 159.264 134.087 159.573Z" fill="#B6BBC3"/>
<path d="M139.095 161.562C139.167 162.599 138.634 163.466 137.904 163.498C137.174 163.532 136.523 162.719 136.451 161.683C136.378 160.646 136.911 159.779 137.641 159.746C138.371 159.713 139.023 160.526 139.095 161.562Z" fill="#72757C"/>
<path d="M142.582 160.317C142.654 161.353 142.12 162.22 141.39 162.253C140.66 162.286 140.009 161.474 139.937 160.437C139.864 159.4 140.398 158.533 141.128 158.501C141.858 158.467 142.509 159.28 142.582 160.317Z" fill="#72757C"/>
<path d="M145.971 159.235C146.043 160.271 145.51 161.138 144.78 161.171C144.05 161.204 143.399 160.392 143.327 159.355C143.254 158.318 143.787 157.451 144.517 157.419C145.249 157.385 145.899 158.198 145.971 159.235Z" fill="#72757C"/>
<path d="M135.286 304.914C135.286 306.952 129.453 308.478 122.262 308.323C115.067 308.168 109.238 306.392 109.238 304.353C109.238 304.322 109.238 304.29 109.241 304.256C109.287 302.33 108.973 272.326 108.661 265.099C108.399 259.11 104.626 262.005 103.335 260.811C99.5345 259.217 96.7313 253.962 96.7313 247.781C96.7313 240.421 100.712 234.536 105.618 234.641C105.618 234.641 128.463 233.944 131.65 244.24C137.173 262.082 135.286 304.914 135.286 304.914Z" fill="#B6BBC3"/>
<path d="M105.618 234.642C105.618 234.642 105.254 233.484 104.604 233.391C103.956 233.297 96.1064 234.306 96.3815 248.277C96.597 259.286 102.982 262.491 102.982 262.491L105.416 262.571L105.092 261.373L104.198 261.354C104.198 261.354 97.9494 255.982 98.599 246.791C99.2486 237.6 105.618 234.642 105.618 234.642Z" fill="#818792"/>
<path d="M108.391 303.343V305.883C108.391 305.883 110.339 308.887 121.484 309.445C132.628 310.002 136.631 306.279 136.631 306.279L136.74 303.531L135.442 303.185C135.442 303.185 131.497 306.182 121.375 305.816C112.773 305.506 109.176 303.201 109.176 303.201L108.391 303.343Z" fill="#8D94A1"/>
<path d="M111.746 234.853C102.362 235.673 102.154 250.803 104.306 257.601C104.693 258.829 105.265 260.017 106.227 260.922C105.105 260.198 104.384 258.986 103.829 257.788C100.714 250.848 101.447 234.562 111.746 234.853Z" fill="#8D94A1"/>
<path d="M122.782 236.837C114.147 237.573 109.547 247.679 108.295 255.249C108.009 257.137 107.835 259.212 107.688 261.112C106.908 253.28 108.948 244.445 115.355 239.333C117.463 237.775 120.091 236.398 122.782 236.837Z" fill="#8D94A1"/>
<path d="M131.649 244.239C124.753 243.863 114.98 254.546 110.854 259.678C110.015 260.648 109.306 261.71 108.499 262.716C109.105 261.584 109.734 260.458 110.438 259.379C114.02 253.649 124.287 242.702 131.649 244.239Z" fill="#8D94A1"/>
<path d="M108.824 270.024C115.199 272.41 122.685 272.078 129.209 270.452L130.833 269.902L132.391 269.182C133.299 268.726 134.451 267.881 135.225 267.206C130.131 273.845 115.546 274.173 108.824 270.024Z" fill="#8D94A1"/>
<path d="M109.149 278.284C113.324 279.954 117.927 280.316 122.38 280.437C126.29 280.465 130.245 280.063 133.901 278.615C134.405 278.367 134.918 278.131 135.441 277.898C134.98 278.225 134.508 278.548 134.026 278.863C127.048 282.703 115.986 282.266 109.149 278.284Z" fill="#8D94A1"/>
<path d="M108.987 287.644C116.923 291.562 127.528 292.884 135.442 288.267C134.987 288.626 134.522 288.983 134.046 289.33C126.72 294.047 115.834 292.662 108.987 287.644Z" fill="#8D94A1"/>
<path d="M108.662 297.477C109.909 299.451 112.727 300.028 114.835 300.683C121.756 302.403 129.302 301.9 135.604 298.375C134.659 299.133 133.622 299.779 132.545 300.36C127.04 303.12 120.43 303.333 114.612 301.452C112.488 300.624 109.594 299.754 108.662 297.477Z" fill="#8D94A1"/>
<path d="M108.662 263.117C115.557 263.287 127.295 260.692 132.244 255.738C133.068 254.889 133.601 253.774 133.656 252.545C133.846 253.766 133.385 255.052 132.644 256.059C127.801 261.917 115.914 264.522 108.662 263.117Z" fill="#8D94A1"/>
<path d="M307.698 123.167C307.501 123.194 307.302 123.203 307.1 123.199C307.1 123.199 307.33 123.163 307.698 123.167Z" fill="#B6BBC3"/>
<path d="M288.005 103.956C290.385 104.324 284.759 108.541 287.68 111.566C290.602 114.592 274.371 123.024 277.292 127.531C280.214 132.039 279.349 143.552 272.316 144.671C265.282 145.789 262.577 143.191 263.659 142.051" stroke="#72757C" stroke-width="4" stroke-miterlimit="10" stroke-linecap="round"/>
<path d="M276.978 101.094C278.287 100.825 273.289 111.151 278.484 112.638C283.677 114.126 285.625 128.134 281.837 131.967C278.05 135.801 268.636 129.144 264.417 134.237C260.197 139.331 254.571 142.173 251.109 142.098C247.645 142.024 247.321 140.747 247.321 140.747" stroke="#72757C" stroke-width="4" stroke-miterlimit="10" stroke-linecap="round"/>
<path d="M264.633 98.6912C266.365 98.5563 263.876 102.166 265.066 104.414C266.257 106.662 261.604 115.449 266.148 118.615C270.693 121.782 262.145 125.513 264.957 129.382C267.771 133.251 279.348 144.716 282.703 145.847C286.057 146.977 287.68 145.848 287.68 145.848" stroke="#72757C" stroke-width="4" stroke-miterlimit="10" stroke-linecap="round"/>
<path d="M166.17 154.036L180.097 147.447L187.578 148.482L174.071 154.704L166.17 154.036Z" fill="#AFB2B9"/>
<path d="M204.582 174.532L166.17 169.898V154.036L174.071 154.705L177.399 138.375L204.582 140.674V174.532Z" fill="#B6BBC3"/>
<path d="M204.582 174.532L233.309 164.066L232.966 132.657L204.582 140.674V174.532Z" fill="#9CA3AE"/>
<path d="M204.582 140.674L232.966 132.657L203.932 130.899L177.399 138.375L204.582 140.674Z" fill="#AFB2B9"/>
<path d="M223.224 140.367L224.789 139.953L225.113 160.478L223.409 161.155L223.224 140.367Z" fill="#8D94A1"/>
<path d="M228.174 138.649L229.739 138.234L230.063 158.759L228.359 159.437L228.174 138.649Z" fill="#8D94A1"/>
<path d="M218.274 142.057L219.839 141.643L220.163 162.514L218.459 163.192L218.274 142.057Z" fill="#8D94A1"/>
<path d="M213.486 143.57L215.051 143.156L215.375 164.373L213.671 165.051L213.486 143.57Z" fill="#8D94A1"/>
<path d="M207.724 145.163L209.289 144.749L209.613 166.312L207.909 166.99L207.724 145.163Z" fill="#8D94A1"/>
<path d="M214.392 125.185L211.176 124.684L213.979 107.338L215.792 107.621L214.392 125.185Z" fill="#818792"/>
<path d="M218.444 106.539C218.22 108.126 216.504 109.174 214.608 108.878C212.714 108.583 211.359 107.057 211.583 105.47C211.807 103.882 213.525 102.835 215.419 103.13C217.313 103.426 218.668 104.953 218.444 106.539Z" fill="#818792"/>
<path d="M206.303 109.119C206.303 109.119 222.597 120.509 213.67 134.045C208.525 141.848 194.017 141.368 191.192 138.896L206.303 109.119Z" fill="#8D94A1"/>
</g>
<path d="M185.837 113.563C180.371 121 181.251 131.398 187.803 136.788C194.355 142.177 204.098 140.517 209.565 133.079C215.032 125.643 214.152 115.244 207.599 109.855C205.002 107.718 201.903 106.688 198.768 106.688C193.994 106.689 189.136 109.073 185.837 113.563Z" fill="url(#paint10_radial_41_22277)"/>
<mask id="mask13_41_22277" style="mask-type:luminance" maskUnits="userSpaceOnUse" x="-11" y="-12" width="523" height="523">
<path d="M-11 -12H512V511H-11V-12Z" fill="white"/>
</mask>
<g mask="url(#mask13_41_22277)">
<mask id="mask14_41_22277" style="mask-type:luminance" maskUnits="userSpaceOnUse" x="43" y="149" width="215" height="258">
<path d="M43.6068 149.12H257.107V406.72H43.6068V149.12Z" fill="white"/>
</mask>
<g mask="url(#mask14_41_22277)">
<g opacity="0.5">
<path d="M257.106 190.516L45.8814 149.12L43.6064 149.916V365.325L254.831 406.72L257.106 405.924V190.516Z" fill="url(#paint11_linear_41_22277)"/>
</g>
</g>
<mask id="mask15_41_22277" style="mask-type:luminance" maskUnits="userSpaceOnUse" x="43" y="149" width="215" height="258">
<path d="M43.6068 149.12H257.107V406.72H43.6068V149.12Z" fill="white"/>
</mask>
<g mask="url(#mask15_41_22277)">
<g opacity="0.5">
<path d="M45.8814 149.12L43.6064 149.916V365.325L254.831 406.72L257.106 405.924L45.8814 364.528V149.12Z" fill="url(#paint12_linear_41_22277)"/>
</g>
</g>
<mask id="mask16_41_22277" style="mask-type:luminance" maskUnits="userSpaceOnUse" x="43" y="149" width="215" height="43">
<path d="M43.6068 149.121H257.107V191.333H43.6068V149.121Z" fill="white"/>
</mask>
<g mask="url(#mask16_41_22277)">
<g opacity="0.5">
<path d="M43.6064 149.917L254.831 191.333L257.106 190.516L45.8814 149.121L43.6064 149.917Z" fill="url(#paint13_linear_41_22277)"/>
</g>
</g>
<mask id="mask17_41_22277" style="mask-type:luminance" maskUnits="userSpaceOnUse" x="43" y="161" width="130" height="142">
<path d="M43.6068 161.942H172.637V302.992H43.6068V161.942Z" fill="white"/>
</mask>
<g mask="url(#mask17_41_22277)">
<g opacity="0.25">
<path d="M43.6068 229.645V260.344L136.978 166.973L111.309 161.943L43.6068 229.645Z" fill="white"/>
<path d="M172.637 173.962L160.19 171.522L43.6071 288.105V302.992L172.637 173.962Z" fill="white"/>
</g>
</g>
<mask id="mask18_41_22277" style="mask-type:luminance" maskUnits="userSpaceOnUse" x="45" y="368" width="208" height="43">
<path d="M45.8307 368.026H252.608V410.959H45.8307V368.026Z" fill="white"/>
</mask>
<g mask="url(#mask18_41_22277)">
<g opacity="0.5">
<path d="M45.8307 370.435V368.026L252.607 408.552V410.959L45.8307 370.435Z" fill="#007A7F"/>
</g>
</g>
</g>
<path d="M254.831 191.353V413.682L264.613 415.615L475.838 343.356V121.026L466.057 119.092L254.831 191.353Z" fill="url(#paint14_linear_41_22277)"/>
<path d="M264.613 193.286V415.615L475.838 343.356V121.026L264.613 193.286Z" fill="url(#paint15_linear_41_22277)"/>
<path d="M254.831 413.682L264.613 415.615V193.286L254.831 191.353V413.682Z" fill="url(#paint16_linear_41_22277)"/>
<path d="M451.586 178.05L288.678 233.781C285.766 234.776 283.81 237.514 283.81 240.591V281.482C283.81 284.101 286.385 285.943 288.864 285.095L451.771 229.364C454.683 228.369 456.64 225.63 456.64 222.552V181.663C456.64 179.482 454.855 177.841 452.827 177.841C452.419 177.841 452.001 177.907 451.586 178.05Z" fill="url(#paint17_linear_41_22277)"/>
<path d="M451.586 141.995L288.678 197.726C285.766 198.723 283.81 201.46 283.81 204.538V223.073C283.81 225.691 286.385 227.533 288.864 226.685L451.771 170.954C454.683 169.958 456.64 167.222 456.64 164.143V145.609C456.64 143.428 454.855 141.787 452.827 141.787C452.419 141.787 452.001 141.854 451.586 141.995Z" fill="url(#paint18_linear_41_22277)"/>
<mask id="mask19_41_22277" style="mask-type:luminance" maskUnits="userSpaceOnUse" x="-11" y="-12" width="523" height="523">
<path d="M-11 -12H512V511H-11V-12Z" fill="white"/>
</mask>
<g mask="url(#mask19_41_22277)">
<path d="M453.745 177.979C453.813 178.266 453.854 178.565 453.854 178.877V219.767C453.854 222.844 451.898 225.582 448.986 226.579L286.078 282.309C285.341 282.561 284.603 282.552 283.919 282.379C284.426 284.499 286.681 285.841 288.864 285.094L451.772 229.364C454.684 228.367 456.64 225.63 456.64 222.553V181.662C456.64 179.822 455.361 178.389 453.745 177.979Z" fill="#009BA3"/>
<path d="M453.855 141.957V161.357C453.855 164.436 451.898 167.173 448.985 168.169L286.078 223.9C285.341 224.152 284.603 224.144 283.919 223.97C283.953 224.108 284.011 224.232 284.06 224.363C284.109 224.501 284.152 224.644 284.216 224.772C284.279 224.898 284.36 225.011 284.435 225.128C284.511 225.246 284.587 225.366 284.676 225.475C284.76 225.579 284.856 225.672 284.951 225.766C285.054 225.868 285.16 225.968 285.274 226.058C285.373 226.137 285.479 226.209 285.586 226.277C285.715 226.36 285.849 226.434 285.987 226.501C286.096 226.553 286.206 226.604 286.319 226.646C286.475 226.703 286.635 226.745 286.798 226.782C286.908 226.806 287.016 226.835 287.127 226.851C287.315 226.876 287.507 226.876 287.7 226.871C287.795 226.87 287.888 226.88 287.984 226.87C288.276 226.842 288.57 226.786 288.864 226.685L451.771 170.954C454.683 169.959 456.64 167.221 456.64 164.143V145.609C456.64 143.811 455.417 142.404 453.855 141.957Z" fill="#009BA3"/>
<path d="M315.983 247.555L315.053 248.845L313.73 247.702L313.939 244.212L315.175 242.525L316.231 243.42L315.983 247.555ZM315.559 254.612L314.323 256.299L313.267 255.404L313.477 251.912L315.004 249.807L315.786 250.483L315.559 254.612ZM313.558 248.563L314.633 249.452L313.402 251.138L308.528 252.823L307.475 251.926L308.684 250.248L313.558 248.563ZM314.797 242.158L313.567 243.857L309.265 245.344L307.136 243.558L313.723 241.282L314.797 242.158ZM306.258 250.917L306.661 244.216L308.797 245.999L308.588 249.481L307.046 251.613L306.258 250.917ZM306.084 260.894L308.522 257.528L312.825 256.041L313.9 256.931L312.67 258.617L306.084 260.894ZM308.312 253.697L308.102 257.188L305.677 260.55L306.059 253.845L306.989 252.578L308.312 253.697Z" fill="white"/>
<path d="M324.575 244.561L323.647 245.852L322.325 244.708L322.447 242.726L323.677 241.04L324.73 241.936L324.575 244.561ZM324.02 253.53L322.818 255.201L321.749 254.317L322.074 248.942L323.599 246.838L324.382 247.513L324.02 253.53ZM329.178 237.188L327.924 238.893L319.473 241.815L318.419 240.906L319.628 239.24L328.08 236.317L329.178 237.188Z" fill="white"/>
<path d="M334.008 234.269L332.799 235.935L333.853 236.843L338.573 235.213L341.011 231.848L334.008 234.269ZM339.956 249.185L337.828 247.399L333.109 249.03L331.899 250.709L332.953 251.607L339.956 249.185ZM333.386 237.491L332.329 236.595L331.095 238.282L330.854 242.414L331.643 243.111L333.183 240.98L333.386 237.491ZM330.661 245.342L331.591 244.074L332.915 245.194L332.712 248.683L331.478 250.37L330.421 249.474L330.661 245.342Z" fill="white"/>
<path d="M356.32 232.979L356.533 229.444L358.978 226.113L358.573 232.832L357.644 234.121L356.32 232.979ZM358.375 235.76L357.993 242.465L355.857 240.68L356.067 237.189L357.594 235.085L358.375 235.76ZM358.596 225.769L356.158 229.133L351.855 230.62L349.727 228.835L358.596 225.769ZM348.847 236.193L349.251 229.493L351.388 231.276L351.179 234.758L349.637 236.89L348.847 236.193ZM357.541 243.107L348.672 246.172L351.11 242.807L355.413 241.32L357.541 243.107ZM350.903 238.974L350.693 242.461L348.268 245.823L348.65 239.123L349.579 237.856L350.903 238.974Z" fill="white"/>
<path d="M360.284 242.158L360.44 239.581L362.723 238.793L362.567 241.369L360.284 242.158Z" fill="white"/>
<path d="M372.961 227.227L373.174 223.691L375.619 220.361L375.214 227.079L374.284 228.369L372.961 227.227ZM375.017 230.008L374.634 236.712L372.498 234.927L372.707 231.437L374.235 229.332L375.017 230.008ZM375.237 220.016L372.798 223.38L368.496 224.868L366.367 223.082L375.237 220.016ZM365.489 230.441L365.892 223.74L368.029 225.524L367.819 229.006L366.278 231.138L365.489 230.441ZM374.181 237.354L365.312 240.42L367.751 237.054L372.053 235.566L374.181 237.354ZM367.543 233.221L367.333 236.709L364.908 240.07L365.29 233.37L366.22 232.102L367.543 233.221Z" fill="white"/>
<path d="M378.844 225.193L379.054 221.702L381.501 218.329L381.098 225.046L380.168 226.335L378.844 225.193ZM380.9 227.974L380.518 234.685L378.381 232.894L378.591 229.403L380.118 227.298L380.9 227.974Z" fill="white"/>
<path d="M394.217 223.372L393.822 230.079L391.704 228.289L391.911 224.801L393.436 222.696L394.217 223.372ZM391.977 221.455L393.052 222.344L391.821 224.03L386.947 225.715L385.895 224.817L387.103 223.14L391.977 221.455ZM394.425 213.383L391.986 216.749L387.683 218.236L385.555 216.449L394.425 213.383ZM384.685 223.806L385.079 217.107L387.197 218.896L386.992 222.377L385.467 224.505L384.685 223.806ZM393.369 230.721L384.499 233.787L386.938 230.422L391.241 228.934L393.369 230.721Z" fill="white"/>
<path d="M404.443 216.344L404.655 212.808L407.101 209.477L406.696 216.197L405.766 217.486L404.443 216.344ZM406.498 219.124L406.115 225.829L403.979 224.044L404.189 220.554L405.717 218.449L406.498 219.124ZM404.27 217.205L405.347 218.093L404.115 219.78L399.241 221.465L398.189 220.568L399.397 218.89L404.27 217.205ZM406.719 209.133L404.28 212.498L399.977 213.985L397.85 212.2L406.719 209.133ZM396.98 219.555L397.373 212.858L399.491 214.645L399.286 218.127L397.761 220.255L396.98 219.555ZM405.662 226.472L396.792 229.536L399.233 226.171L403.535 224.684L405.662 226.472Z" fill="white"/>
<path d="M416.738 212.094L416.95 208.558L419.394 205.228L418.991 211.946L418.061 213.236L416.738 212.094ZM418.792 214.875L418.41 221.586L416.274 219.795L416.483 216.304L418.011 214.199L418.792 214.875ZM419.013 204.884L416.574 208.249L412.271 209.736L410.144 207.949L419.013 204.884Z" fill="white"/>
<path d="M431.099 210.622L430.703 217.329L428.585 215.539L428.791 212.051L430.317 209.946L431.099 210.622ZM428.858 208.706L429.933 209.594L428.702 211.281L423.829 212.965L422.777 212.068L423.985 210.39L428.858 208.706ZM431.307 200.634L428.868 203.999L424.564 205.486L422.437 203.7L431.307 200.634ZM421.558 211.058L421.961 204.357L424.098 206.141L423.888 209.623L422.347 211.755L421.558 211.058ZM430.25 217.971L421.38 221.037L423.82 217.672L428.123 216.185L430.25 217.971ZM423.612 213.838L423.402 217.326L420.978 220.688L421.359 213.988L422.288 212.72L423.612 213.838Z" fill="white"/>
</g>
<path d="M310.792 290.461L287.887 342.416C287.421 343.474 287.699 344.555 288.366 345.275C289.034 345.996 292.309 348.372 293.313 349.034C293.953 349.457 294.781 349.608 295.631 349.309L339.685 333.777C341.245 333.226 341.92 331.392 341.089 329.961L319.942 293.539C319.783 293.265 319.587 293.033 319.368 292.846C318.634 292.223 315.165 289.729 314.965 289.549C314.469 289.105 313.841 288.886 313.212 288.886C312.23 288.886 311.251 289.421 310.792 290.461Z" fill="url(#paint19_linear_41_22277)"/>
<path d="M315.243 293.799L292.338 345.754C291.405 347.87 293.451 350.078 295.631 349.309L339.684 333.777C341.245 333.226 341.92 331.392 341.089 329.961L319.942 293.539C319.429 292.655 318.544 292.224 317.663 292.224C316.68 292.224 315.702 292.758 315.243 293.799Z" fill="url(#paint20_linear_41_22277)"/>
<mask id="mask20_41_22277" style="mask-type:luminance" maskUnits="userSpaceOnUse" x="-11" y="-12" width="523" height="523">
<path d="M-11 -12H512V511H-11V-12Z" fill="white"/>
</mask>
<g mask="url(#mask20_41_22277)">
<path d="M306.208 338.6C305.473 338.862 304.86 338.907 304.366 338.736C303.872 338.563 303.495 338.217 303.233 337.695C302.97 337.174 302.812 336.517 302.757 335.724L304.322 334.697C304.363 335.181 304.441 335.635 304.558 336.057C304.676 336.477 304.864 336.791 305.12 336.997C305.376 337.2 305.731 337.223 306.183 337.062C306.644 336.897 306.99 336.632 307.221 336.265C307.452 335.899 307.564 335.449 307.555 334.92C307.545 334.285 307.404 333.822 307.136 333.529C306.868 333.236 306.53 332.964 306.125 332.714L303.95 331.403C303.524 331.148 303.208 330.818 303 330.41C302.793 330.004 302.683 329.447 302.671 328.743C302.653 327.717 302.908 326.826 303.433 326.071C303.959 325.317 304.684 324.774 305.606 324.444C306.109 324.265 306.554 324.18 306.94 324.187C307.325 324.193 307.649 324.302 307.91 324.51C308.172 324.719 308.383 325.024 308.543 325.424C308.702 325.827 308.813 326.324 308.877 326.915L307.374 327.903C307.335 327.454 307.264 327.053 307.164 326.699C307.062 326.347 306.893 326.094 306.652 325.942C306.412 325.789 306.072 325.792 305.631 325.948C305.19 326.105 304.849 326.358 304.608 326.706C304.366 327.052 304.249 327.481 304.257 327.988C304.264 328.415 304.335 328.741 304.471 328.971C304.607 329.201 304.824 329.409 305.122 329.593L307.313 330.9C307.803 331.189 308.237 331.587 308.615 332.097C308.993 332.605 309.19 333.3 309.205 334.174C309.216 334.867 309.095 335.51 308.841 336.105C308.587 336.7 308.235 337.212 307.783 337.64C307.33 338.066 306.805 338.387 306.208 338.6Z" fill="white"/>
<path d="M310.642 336.864L310.407 322.855L315.348 321.094L315.372 322.547L312.209 323.674L312.286 328.309L314.851 327.396L314.874 328.781L312.31 329.695L312.396 334.829L315.591 333.691L315.615 335.092L310.642 336.864Z" fill="white"/>
<path d="M317.046 334.582L316.811 320.573L318.022 320.142L321.797 328.157L321.641 318.853L323.12 318.325L323.355 332.334L322.222 332.738L318.395 324.48L318.556 334.044L317.046 334.582Z" fill="white"/>
<path d="M327.109 329.588L328.116 329.228C328.766 328.997 329.225 328.694 329.494 328.32C329.762 327.946 329.921 327.484 329.97 326.933C330.018 326.382 330.036 325.731 330.023 324.982L329.947 320.434C329.934 319.707 329.883 319.135 329.792 318.714C329.7 318.295 329.512 318.031 329.224 317.926C328.937 317.818 328.491 317.873 327.882 318.091L326.922 318.433L327.109 329.588ZM325.355 331.622L325.119 317.613L327.888 316.627C328.833 316.29 329.584 316.182 330.139 316.303C330.695 316.425 331.096 316.759 331.343 317.31C331.589 317.86 331.722 318.608 331.737 319.553L331.823 324.706C331.84 325.698 331.735 326.576 331.512 327.341C331.288 328.104 330.911 328.757 330.388 329.298C329.864 329.839 329.157 330.267 328.266 330.584L325.355 331.622Z" fill="white"/>
</g>
<path d="M445.78 241.318L412.484 252.492C410.647 253.109 409.42 254.841 409.451 256.779L409.998 291.586C410.018 292.865 410.565 293.979 411.407 294.762C412.249 295.546 415.445 297.829 416.241 298.422C417.342 299.241 418.814 299.556 420.267 299.087L453.565 288.292C455.422 287.689 456.67 285.945 456.64 283.992L456.094 248.804C456.071 247.304 455.323 246.035 454.227 245.255C453.451 244.703 450.518 242.385 449.596 241.793C448.895 241.341 448.067 241.084 447.2 241.084C446.733 241.084 446.255 241.158 445.78 241.318Z" fill="url(#paint21_linear_41_22277)"/>
<path d="M450.231 244.656L416.934 255.829C415.098 256.446 413.871 258.18 413.901 260.117L414.448 294.925C414.495 297.915 417.422 300.009 420.267 299.087L453.564 288.292C455.422 287.689 456.67 285.945 456.64 283.992L456.093 248.804C456.055 246.295 453.991 244.422 451.652 244.422C451.185 244.422 450.707 244.497 450.231 244.656Z" fill="url(#paint22_linear_41_22277)"/>
<mask id="mask21_41_22277" style="mask-type:luminance" maskUnits="userSpaceOnUse" x="-11" y="-12" width="523" height="523">
<path d="M-11 -12H512V511H-11V-12Z" fill="white"/>
</mask>
<g mask="url(#mask21_41_22277)">
<path d="M422.383 283.653C421.648 283.915 421.034 283.96 420.541 283.789C420.047 283.616 419.669 283.271 419.408 282.748C419.145 282.227 418.987 281.57 418.931 280.778L420.497 279.751C420.536 280.234 420.615 280.688 420.733 281.109C420.85 281.531 421.039 281.845 421.295 282.05C421.551 282.254 421.906 282.276 422.357 282.115C422.818 281.95 423.165 281.685 423.396 281.318C423.626 280.952 423.738 280.503 423.73 279.974C423.719 279.339 423.578 278.875 423.309 278.582C423.042 278.29 422.705 278.019 422.299 277.769L420.124 276.456C419.699 276.202 419.382 275.87 419.175 275.462C418.966 275.056 418.858 274.5 418.846 273.796C418.828 272.771 419.082 271.881 419.608 271.124C420.133 270.37 420.858 269.828 421.78 269.499C422.284 269.32 422.728 269.233 423.114 269.242C423.499 269.248 423.823 269.357 424.085 269.565C424.347 269.773 424.558 270.077 424.717 270.477C424.876 270.88 424.988 271.377 425.051 271.968L423.548 272.956C423.509 272.506 423.439 272.106 423.339 271.752C423.237 271.4 423.067 271.146 422.827 270.996C422.587 270.843 422.247 270.845 421.806 271.003C421.365 271.159 421.024 271.412 420.782 271.759C420.54 272.106 420.424 272.533 420.432 273.041C420.439 273.468 420.51 273.795 420.645 274.025C420.782 274.254 420.998 274.462 421.297 274.646L423.487 275.953C423.978 276.243 424.412 276.642 424.79 277.15C425.167 277.66 425.364 278.351 425.378 279.227C425.39 279.919 425.269 280.564 425.015 281.159C424.762 281.754 424.409 282.264 423.957 282.692C423.506 283.12 422.98 283.441 422.383 283.653Z" fill="white"/>
<path d="M428.468 281.328L426.157 268.06L427.636 267.534L429.173 277.111L430.72 266.488L431.98 266.038L433.879 275.485L435.046 264.894L436.493 264.378L434.684 279.114L433.393 279.573L431.441 269.832L429.822 280.846L428.468 281.328Z" fill="white"/>
<path d="M439.557 272.419L441.682 271.662L440.506 265.73L439.557 272.419ZM437.122 278.244L439.594 263.273L441.308 262.662L444.265 275.7L442.582 276.3L441.94 272.979L439.346 273.904L438.791 277.65L437.122 278.244Z" fill="white"/>
<path d="M447.2 266.686L448.019 266.395C448.532 266.211 448.936 266.004 449.227 265.772C449.519 265.541 449.726 265.244 449.847 264.883C449.967 264.52 450.022 264.052 450.011 263.475C450.001 262.807 449.947 262.309 449.852 261.984C449.757 261.657 449.567 261.476 449.281 261.438C448.995 261.402 448.555 261.489 447.957 261.703L447.122 261.999L447.2 266.686ZM445.556 275.241L445.321 261.232L448.484 260.104C449.25 259.833 449.864 259.768 450.324 259.911C450.786 260.055 451.126 260.376 451.345 260.878C451.564 261.379 451.682 262.039 451.695 262.857C451.708 263.595 451.601 264.278 451.374 264.903C451.146 265.53 450.805 266.072 450.348 266.531C449.892 266.989 449.318 267.34 448.625 267.587L447.225 268.086L447.333 274.607L445.556 275.241Z" fill="white"/>
</g>
<path d="M447.36 149.567L349.59 183.014C348.01 183.555 346.948 185.041 346.948 186.712V195.133C346.948 196.484 348.278 197.435 349.558 196.998L447.326 163.552C448.907 163.01 449.971 161.525 449.971 159.855V151.433C449.971 150.307 449.048 149.459 448.001 149.459C447.79 149.459 447.574 149.494 447.36 149.567Z" fill="url(#paint23_linear_41_22277)"/>
<path d="M331.025 196.147C331.025 200.238 332.759 203.597 334.976 203.979L334.972 203.981L337.102 204.401L337.094 204.394C337.235 204.42 337.377 204.435 337.521 204.435C339.937 204.435 341.895 200.91 341.895 196.564C341.895 192.427 340.121 189.043 337.868 188.724L337.876 188.718L335.81 188.312C335.803 188.312 335.796 188.31 335.788 188.308L335.75 188.301L335.756 188.306C335.638 188.288 335.519 188.276 335.398 188.276C332.983 188.276 331.025 191.8 331.025 196.147Z" fill="url(#paint24_linear_41_22277)"/>
<path d="M333.149 196.564C333.149 200.91 335.107 204.435 337.521 204.435C339.937 204.435 341.895 200.91 341.895 196.564C341.895 192.217 339.937 188.693 337.521 188.693C335.107 188.693 333.149 192.217 333.149 196.564Z" fill="url(#paint25_linear_41_22277)"/>
<path d="M313.164 202.273C313.164 206.363 314.898 209.723 317.114 210.105L317.11 210.106L319.24 210.527L319.232 210.52C319.373 210.546 319.515 210.56 319.66 210.56C322.075 210.56 324.033 207.036 324.033 202.689C324.033 198.553 322.26 195.17 320.007 194.851L320.014 194.845L317.949 194.439C317.941 194.437 317.933 194.435 317.926 194.434L317.887 194.427L317.894 194.431C317.777 194.413 317.656 194.402 317.536 194.402C315.122 194.402 313.164 197.926 313.164 202.273Z" fill="url(#paint26_linear_41_22277)"/>
<path d="M315.286 202.689C315.286 207.036 317.244 210.56 319.661 210.56C322.075 210.56 324.033 207.036 324.033 202.689C324.033 198.343 322.075 194.818 319.661 194.818C317.244 194.818 315.286 198.343 315.286 202.689Z" fill="url(#paint27_linear_41_22277)"/>
<path d="M295.301 207.891C295.301 211.981 297.036 215.341 299.252 215.724L299.249 215.726L301.378 216.145L301.37 216.139C301.511 216.164 301.654 216.179 301.798 216.179C304.213 216.179 306.171 212.656 306.171 208.307C306.171 204.171 304.397 200.787 302.144 200.468L302.152 200.463L300.088 200.058C300.08 200.055 300.071 200.053 300.064 200.052L300.025 200.045L300.032 200.05C299.914 200.032 299.796 200.02 299.675 200.02C297.259 200.02 295.301 203.544 295.301 207.891Z" fill="url(#paint28_linear_41_22277)"/>
<path d="M297.425 208.307C297.425 212.656 299.383 216.179 301.798 216.179C304.213 216.179 306.171 212.656 306.171 208.307C306.171 203.96 304.213 200.437 301.798 200.437C299.383 200.437 297.425 203.96 297.425 208.307Z" fill="url(#paint29_linear_41_22277)"/>
<mask id="mask22_41_22277" style="mask-type:luminance" maskUnits="userSpaceOnUse" x="-11" y="-12" width="523" height="523">
<path d="M-11 -12H512V511H-11V-12Z" fill="white"/>
</mask>
<g mask="url(#mask22_41_22277)">
<path d="M272.396 198.85C271.068 198.85 269.991 200.788 269.991 203.179C269.991 205.57 271.068 207.509 272.396 207.509C273.725 207.509 274.802 205.57 274.802 203.179C274.802 200.788 273.725 198.85 272.396 198.85Z" stroke="#009BA3" stroke-width="1.33333" stroke-miterlimit="10"/>
<path d="M468.053 131.983C466.725 131.983 465.648 133.921 465.648 136.312C465.648 138.703 466.725 140.641 468.053 140.641C469.381 140.641 470.459 138.703 470.459 136.312C470.459 133.921 469.381 131.983 468.053 131.983Z" stroke="#009BA3" stroke-width="1.33333" stroke-miterlimit="10"/>
<path d="M272.396 396.167C271.068 396.167 269.991 398.106 269.991 400.497C269.991 402.888 271.068 404.826 272.396 404.826C273.725 404.826 274.802 402.888 274.802 400.497C274.802 398.106 273.725 396.167 272.396 396.167Z" stroke="#009BA3" stroke-width="1.33333" stroke-miterlimit="10"/>
<path d="M468.053 329.3C466.725 329.3 465.648 331.238 465.648 333.629C465.648 336.02 466.725 337.959 468.053 337.959C469.381 337.959 470.459 336.02 470.459 333.629C470.459 331.238 469.381 329.3 468.053 329.3Z" stroke="#009BA3" stroke-width="1.33333" stroke-miterlimit="10"/>
</g>
<path d="M382.483 306.192C370.771 308.922 361.277 321.935 361.277 335.259C361.277 343.292 364.741 349.575 370.049 352.717H370.029L370.681 353.071C370.799 353.134 370.915 353.203 371.036 353.264L376.039 355.975L375.998 355.922C379.445 357.889 383.633 358.569 388.176 357.51C399.887 354.78 409.381 341.766 409.381 328.442C409.381 320.372 405.884 314.067 400.531 310.941L400.567 310.938L394.68 307.761L394.7 307.804C392.338 306.446 389.627 305.694 386.691 305.694C385.332 305.694 383.925 305.855 382.483 306.192Z" fill="url(#paint30_linear_41_22277)"/>
<path d="M388.176 309.262C376.465 311.991 366.971 325.006 366.971 338.329C366.971 351.653 376.465 360.24 388.176 357.51C399.887 354.78 409.381 341.767 409.381 328.443C409.381 316.786 402.115 308.755 392.454 308.756C391.074 308.756 389.641 308.92 388.176 309.262Z" fill="url(#paint31_linear_41_22277)"/>
<mask id="mask23_41_22277" style="mask-type:luminance" maskUnits="userSpaceOnUse" x="-11" y="-12" width="523" height="523">
<path d="M-11 -12H512V511H-11V-12Z" fill="white"/>
</mask>
<g mask="url(#mask23_41_22277)">
<path d="M370.938 339.062L371.488 338.866C371.898 338.72 372.229 338.545 372.485 338.341C372.738 338.137 372.922 337.877 373.038 337.563C373.153 337.249 373.205 336.847 373.198 336.36C373.186 335.692 373.067 335.252 372.841 335.035C372.614 334.82 372.172 334.828 371.515 335.063L370.875 335.291L370.938 339.062ZM369.6 346.064L369.408 334.668L371.496 333.923C372.187 333.677 372.761 333.574 373.217 333.615C373.672 333.656 374.012 333.859 374.238 334.226C374.463 334.595 374.581 335.14 374.593 335.862C374.601 336.303 374.565 336.719 374.485 337.112C374.406 337.503 374.274 337.857 374.091 338.171C373.908 338.487 373.663 338.757 373.357 338.979L374.926 344.167L373.53 344.665L372.084 339.8L370.956 340.203L371.046 345.549L369.6 346.064Z" fill="white"/>
<path d="M376.245 343.696L376.053 332.299L380.073 330.867L380.093 332.047L377.52 332.965L377.582 336.737L379.669 335.992L379.688 337.119L377.601 337.863L377.671 342.042L380.27 341.116L380.289 342.255L376.245 343.696Z" fill="white"/>
<path d="M384.057 341.041C383.322 341.302 382.75 341.337 382.339 341.143C381.927 340.951 381.638 340.595 381.471 340.078C381.304 339.564 381.214 338.952 381.201 338.251L381.134 334.226C381.122 333.456 381.19 332.757 381.337 332.129C381.486 331.5 381.76 330.956 382.16 330.497C382.561 330.04 383.127 329.68 383.861 329.419C384.51 329.187 385.026 329.134 385.411 329.262C385.795 329.389 386.074 329.666 386.25 330.094C386.424 330.523 386.517 331.081 386.528 331.766L386.543 332.666L385.174 333.154L385.16 332.352C385.154 331.93 385.128 331.563 385.084 331.253C385.04 330.945 384.931 330.731 384.758 330.612C384.584 330.495 384.296 330.507 383.896 330.651C383.486 330.797 383.189 331 383.003 331.258C382.819 331.518 382.702 331.833 382.652 332.204C382.603 332.576 382.583 332.996 382.59 333.466L382.667 337.983C382.676 338.554 382.725 338.993 382.816 339.295C382.907 339.597 383.053 339.784 383.251 339.855C383.449 339.926 383.716 339.902 384.048 339.783C384.441 339.643 384.721 339.448 384.888 339.194C385.056 338.941 385.158 338.637 385.196 338.284C385.231 337.932 385.247 337.53 385.24 337.082L385.225 336.236L386.595 335.749L386.61 336.593C386.62 337.286 386.555 337.925 386.409 338.51C386.265 339.095 386.007 339.601 385.637 340.031C385.266 340.46 384.74 340.797 384.057 341.041Z" fill="white"/>
<path d="M388.049 339.49L387.858 328.093L391.877 326.661L391.897 327.841L389.324 328.758L389.387 332.53L391.474 331.786L391.492 332.913L389.406 333.656L389.476 337.834L392.074 336.91L392.094 338.049L388.049 339.49Z" fill="white"/>
<path d="M393.337 337.606L393.145 326.209L394.567 325.703L394.758 337.1L393.337 337.606Z" fill="white"/>
<path d="M398.239 335.86L395.732 325.289L397.088 324.805L398.868 332.62L400.289 323.665L401.608 323.194L399.507 335.407L398.239 335.86Z" fill="white"/>
<path d="M402.899 334.199L402.708 322.802L406.727 321.37L406.747 322.55L404.174 323.467L404.237 327.239L406.324 326.496L406.343 327.622L404.256 328.365L404.326 332.543L406.924 331.619L406.944 332.757L402.899 334.199Z" fill="white"/>
</g>
</g>
<defs>
<radialGradient id="paint0_radial_41_22277" cx="0" cy="0" r="1" gradientUnits="userSpaceOnUse" gradientTransform="translate(266.422 231.433) scale(246.457 246.457)">
<stop stop-color="#009BA3"/>
<stop offset="0.00558659" stop-color="#009BA3"/>
<stop offset="0.84766" stop-color="#3CE7EB"/>
<stop offset="1" stop-color="#3CE7EB"/>
</radialGradient>
<linearGradient id="paint1_linear_41_22277" x1="249.798" y1="220.906" x2="60.255" y2="410.45" gradientUnits="userSpaceOnUse">
<stop stop-color="#009BA3"/>
<stop offset="0.00558659" stop-color="#009BA3"/>
<stop offset="0.84766" stop-color="#3CE7EB"/>
<stop offset="1" stop-color="#3CE7EB"/>
</linearGradient>
<linearGradient id="paint2_linear_41_22277" x1="359.307" y1="253.599" x2="359.307" y2="62.3641" gradientUnits="userSpaceOnUse">
<stop stop-color="#3CE7EB"/>
<stop offset="0.0562476" stop-color="#3CE7EB"/>
<stop offset="1" stop-color="#F1F5F7"/>
</linearGradient>
<linearGradient id="paint3_linear_41_22277" x1="359.307" y1="303.058" x2="359.307" y2="111.823" gradientUnits="userSpaceOnUse">
<stop stop-color="#3CE7EB"/>
<stop offset="0.0553049" stop-color="#3CE7EB"/>
<stop offset="0.98324" stop-color="#F1F5F7"/>
<stop offset="1" stop-color="#F1F5F7"/>
</linearGradient>
<linearGradient id="paint4_linear_41_22277" x1="359.307" y1="113.524" x2="359.307" y2="83.0065" gradientUnits="userSpaceOnUse">
<stop stop-color="#3CE7EB"/>
<stop offset="0.0553049" stop-color="#3CE7EB"/>
<stop offset="0.98324" stop-color="#F1F5F7"/>
<stop offset="1" stop-color="#F1F5F7"/>
</linearGradient>
<linearGradient id="paint5_linear_41_22277" x1="147.963" y1="151.033" x2="147.963" y2="100.868" gradientUnits="userSpaceOnUse">
<stop stop-color="#3CE7EB"/>
<stop offset="0.0553049" stop-color="#3CE7EB"/>
<stop offset="0.98324" stop-color="#F1F5F7"/>
<stop offset="1" stop-color="#F1F5F7"/>
</linearGradient>
<linearGradient id="paint6_linear_41_22277" x1="212.752" y1="410.635" x2="140.42" y2="199.097" gradientUnits="userSpaceOnUse">
<stop stop-color="#009BA3"/>
<stop offset="0.00558659" stop-color="#009BA3"/>
<stop offset="0.980903" stop-color="#3CE7EB"/>
<stop offset="1" stop-color="#3CE7EB"/>
</linearGradient>
<linearGradient id="paint7_linear_41_22277" x1="42.3503" y1="223.305" x2="42.3503" y2="62.8853" gradientUnits="userSpaceOnUse">
<stop stop-color="#3CE7EB"/>
<stop offset="0.0553049" stop-color="#3CE7EB"/>
<stop offset="0.98324" stop-color="#F1F5F7"/>
<stop offset="1" stop-color="#F1F5F7"/>
</linearGradient>
<linearGradient id="paint8_linear_41_22277" x1="157.736" y1="250.052" x2="118.101" y2="132.671" gradientUnits="userSpaceOnUse">
<stop stop-color="#3CE7EB"/>
<stop offset="0.0562476" stop-color="#3CE7EB"/>
<stop offset="1" stop-color="#F1F5F7"/>
</linearGradient>
<linearGradient id="paint9_linear_41_22277" x1="154.075" y1="132.411" x2="147.978" y2="113.44" gradientUnits="userSpaceOnUse">
<stop stop-color="#3CE7EB"/>
<stop offset="0.0553049" stop-color="#3CE7EB"/>
<stop offset="0.98324" stop-color="#F1F5F7"/>
<stop offset="1" stop-color="#F1F5F7"/>
</linearGradient>
<radialGradient id="paint10_radial_41_22277" cx="0" cy="0" r="1" gradientUnits="userSpaceOnUse" gradientTransform="translate(207.027 125.823) scale(16.0526 16.0526)">
<stop stop-color="#3CE7EB"/>
<stop offset="0.0553049" stop-color="#3CE7EB"/>
<stop offset="0.98324" stop-color="#F1F5F7"/>
<stop offset="1" stop-color="#F1F5F7"/>
</radialGradient>
<linearGradient id="paint11_linear_41_22277" x1="150.356" y1="368.742" x2="150.356" y2="182.511" gradientUnits="userSpaceOnUse">
<stop stop-color="#3CE7EB"/>
<stop offset="0.0553049" stop-color="#3CE7EB"/>
<stop offset="0.98324" stop-color="#F1F5F7"/>
<stop offset="1" stop-color="#F1F5F7"/>
</linearGradient>
<linearGradient id="paint12_linear_41_22277" x1="150.356" y1="368.742" x2="150.356" y2="182.511" gradientUnits="userSpaceOnUse">
<stop stop-color="#3CE7EB"/>
<stop offset="0.0553049" stop-color="#3CE7EB"/>
<stop offset="0.98324" stop-color="#F1F5F7"/>
<stop offset="1" stop-color="#F1F5F7"/>
</linearGradient>
<linearGradient id="paint13_linear_41_22277" x1="150.356" y1="185.109" x2="150.356" y2="154.592" gradientUnits="userSpaceOnUse">
<stop stop-color="#3CE7EB"/>
<stop offset="0.0553049" stop-color="#3CE7EB"/>
<stop offset="0.98324" stop-color="#F1F5F7"/>
<stop offset="1" stop-color="#F1F5F7"/>
</linearGradient>
<linearGradient id="paint14_linear_41_22277" x1="363.287" y1="262.578" x2="318.25" y2="157.491" gradientUnits="userSpaceOnUse">
<stop stop-color="#009BA3"/>
<stop offset="0.00558659" stop-color="#009BA3"/>
<stop offset="0.946268" stop-color="#3CE7EB"/>
<stop offset="1" stop-color="#3CE7EB"/>
</linearGradient>
<linearGradient id="paint15_linear_41_22277" x1="410.684" y1="386.646" x2="338.352" y2="175.108" gradientUnits="userSpaceOnUse">
<stop stop-color="#009BA3"/>
<stop offset="0.00558659" stop-color="#009BA3"/>
<stop offset="0.980903" stop-color="#3CE7EB"/>
<stop offset="1" stop-color="#3CE7EB"/>
</linearGradient>
<linearGradient id="paint16_linear_41_22277" x1="259.722" y1="265.867" x2="259.722" y2="104.446" gradientUnits="userSpaceOnUse">
<stop stop-color="#009BA3"/>
<stop offset="0.00558659" stop-color="#009BA3"/>
<stop offset="0.946268" stop-color="#3CE7EB"/>
<stop offset="1" stop-color="#3CE7EB"/>
</linearGradient>
<linearGradient id="paint17_linear_41_22277" x1="378.685" y1="290.987" x2="365.873" y2="201.01" gradientUnits="userSpaceOnUse">
<stop stop-color="#4C2BAD"/>
<stop offset="0.729831" stop-color="#A375FF"/>
<stop offset="1" stop-color="#A375FF"/>
</linearGradient>
<linearGradient id="paint18_linear_41_22277" x1="377" y1="206.422" x2="361.669" y2="156.455" gradientUnits="userSpaceOnUse">
<stop stop-color="#009BA3"/>
<stop offset="0.00558659" stop-color="#009BA3"/>
<stop offset="0.127906" stop-color="#009BA3"/>
<stop offset="1" stop-color="#3CE7EB"/>
</linearGradient>
<linearGradient id="paint19_linear_41_22277" x1="314.551" y1="318.748" x2="314.551" y2="274.772" gradientUnits="userSpaceOnUse">
<stop stop-color="#FA8414"/>
<stop offset="0.926887" stop-color="#FFB453"/>
<stop offset="1" stop-color="#FFB453"/>
</linearGradient>
<linearGradient id="paint20_linear_41_22277" x1="316.777" y1="349.844" x2="316.777" y2="284.577" gradientUnits="userSpaceOnUse">
<stop stop-color="#FA8414"/>
<stop offset="0.926887" stop-color="#FFB453"/>
<stop offset="1" stop-color="#FFB453"/>
</linearGradient>
<linearGradient id="paint21_linear_41_22277" x1="431.771" y1="268.509" x2="402.657" y2="229.993" gradientUnits="userSpaceOnUse">
<stop stop-color="#4C2BAD"/>
<stop offset="1" stop-color="#A375FF"/>
</linearGradient>
<linearGradient id="paint22_linear_41_22277" x1="435.271" y1="296.222" x2="435.271" y2="242.215" gradientUnits="userSpaceOnUse">
<stop stop-color="#4C2BAD"/>
<stop offset="0.729831" stop-color="#A375FF"/>
<stop offset="1" stop-color="#A375FF"/>
</linearGradient>
<linearGradient id="paint23_linear_41_22277" x1="404.96" y1="198.744" x2="392.821" y2="151.202" gradientUnits="userSpaceOnUse">
<stop stop-color="#FA8414"/>
<stop offset="0.926887" stop-color="#FFB453"/>
<stop offset="1" stop-color="#FFB453"/>
</linearGradient>
<linearGradient id="paint24_linear_41_22277" x1="336.46" y1="195.987" x2="336.46" y2="184.305" gradientUnits="userSpaceOnUse">
<stop stop-color="#3CE7EB"/>
<stop offset="0.0553049" stop-color="#3CE7EB"/>
<stop offset="0.98324" stop-color="#F1F5F7"/>
<stop offset="1" stop-color="#F1F5F7"/>
</linearGradient>
<linearGradient id="paint25_linear_41_22277" x1="337.522" y1="207.193" x2="337.522" y2="193.189" gradientUnits="userSpaceOnUse">
<stop stop-color="#3CE7EB"/>
<stop offset="0.0553049" stop-color="#3CE7EB"/>
<stop offset="0.98324" stop-color="#F1F5F7"/>
<stop offset="1" stop-color="#F1F5F7"/>
</linearGradient>
<linearGradient id="paint26_linear_41_22277" x1="318.598" y1="202.113" x2="318.598" y2="190.431" gradientUnits="userSpaceOnUse">
<stop stop-color="#3CE7EB"/>
<stop offset="0.0553049" stop-color="#3CE7EB"/>
<stop offset="0.98324" stop-color="#F1F5F7"/>
<stop offset="1" stop-color="#F1F5F7"/>
</linearGradient>
<linearGradient id="paint27_linear_41_22277" x1="319.66" y1="213.319" x2="319.66" y2="199.315" gradientUnits="userSpaceOnUse">
<stop stop-color="#3CE7EB"/>
<stop offset="0.0553049" stop-color="#3CE7EB"/>
<stop offset="0.98324" stop-color="#F1F5F7"/>
<stop offset="1" stop-color="#F1F5F7"/>
</linearGradient>
<linearGradient id="paint28_linear_41_22277" x1="300.736" y1="207.731" x2="300.736" y2="196.049" gradientUnits="userSpaceOnUse">
<stop stop-color="#3CE7EB"/>
<stop offset="0.0553049" stop-color="#3CE7EB"/>
<stop offset="0.98324" stop-color="#F1F5F7"/>
<stop offset="1" stop-color="#F1F5F7"/>
</linearGradient>
<linearGradient id="paint29_linear_41_22277" x1="301.798" y1="218.937" x2="301.798" y2="204.933" gradientUnits="userSpaceOnUse">
<stop stop-color="#3CE7EB"/>
<stop offset="0.0553049" stop-color="#3CE7EB"/>
<stop offset="0.98324" stop-color="#F1F5F7"/>
<stop offset="1" stop-color="#F1F5F7"/>
</linearGradient>
<linearGradient id="paint30_linear_41_22277" x1="385.33" y1="343.986" x2="385.33" y2="305.309" gradientUnits="userSpaceOnUse">
<stop stop-color="#DC4B3A"/>
<stop offset="0.0171121" stop-color="#DC4B3A"/>
<stop offset="1" stop-color="#FF7B64"/>
</linearGradient>
<linearGradient id="paint31_linear_41_22277" x1="388.176" y1="367.324" x2="388.176" y2="330.904" gradientUnits="userSpaceOnUse">
<stop stop-color="#DC4B3A"/>
<stop offset="0.0171121" stop-color="#DC4B3A"/>
<stop offset="1" stop-color="#FF7B64"/>
</linearGradient>
<clipPath id="clip0_41_22277">
<rect width="500" height="500" fill="white"/>
</clipPath>
</defs>
</svg>
