<svg width="1000" height="842" viewBox="0 0 1000 842" fill="none" xmlns="http://www.w3.org/2000/svg">
<g clip-path="url(#clip0_126_3912)">
<path d="M841.186 174.782C865.662 221.408 878.531 273.488 903.669 319.774C930.39 368.986 970.602 411.083 989.205 463.904C1007.31 515.301 1002.44 574.316 976.175 622.066C949.915 669.815 902.667 705.517 849.565 717.765C827.675 722.816 805.003 724.039 783.273 729.772C736.907 741.98 698.479 773.412 656.824 797.147C610.798 823.367 558.96 840.686 505.998 841.769C453.037 842.871 398.973 826.915 358.34 792.917C312.094 754.208 286.456 696.035 243.878 653.317C181.395 590.614 85.9566 564.534 34.3585 492.589C4.55025 450.994 -6.77568 396.609 3.98896 346.555C14.7536 296.5 47.4284 251.557 91.7299 225.879C133.726 201.543 184.021 194.467 225.857 169.89C266.31 146.116 295.817 107.868 331.058 76.8774C485.431 -58.8734 745.366 -7.81651 841.186 174.782Z" fill="url(#paint0_radial_126_3912)"/>
<path d="M137.675 615.31C173.858 626.957 220.424 666.948 238.285 700.024C244.239 711.049 249.17 722.756 249.671 734.222C250.172 745.689 245.622 756.914 235.719 761.725C226.378 766.276 213.669 764.492 202.664 759.38C191.658 754.268 182.016 746.21 172.976 737.931C153.27 719.89 135.289 700.124 119.453 679.076C110.773 667.53 102.494 655.021 100.329 641.931C98.1844 628.841 103.978 615.19 116.707 612.644C123.262 611.341 130.659 613.045 137.675 615.31Z" fill="url(#paint1_linear_126_3912)"/>
<path style="mix-blend-mode:screen" opacity="0.5" d="M933.838 158.123L508.724 74.8127L504.134 76.4164V523.881L929.267 607.212L933.838 605.608V158.123Z" fill="url(#paint2_linear_126_3912)"/>
<path style="mix-blend-mode:screen" opacity="0.5" d="M508.724 74.8127L504.134 76.4164V523.881L929.267 607.212L933.838 605.608L508.724 522.297V74.8127Z" fill="url(#paint3_linear_126_3912)"/>
<path style="mix-blend-mode:screen" opacity="0.5" d="M504.134 76.4164L929.267 159.767L933.838 158.123L508.724 74.8127L504.134 76.4164Z" fill="url(#paint4_linear_126_3912)"/>
<path style="mix-blend-mode:screen" opacity="0.5" d="M503.653 73.7102L78.5396 219.163V666.628L83.5911 667.73L508.725 522.297V74.8127L503.653 73.7102Z" fill="url(#paint5_linear_126_3912)"/>
<path d="M508.725 522.297L83.5913 667.73V220.246L508.725 74.8127V522.297Z" fill="url(#paint6_linear_126_3912)"/>
<path style="mix-blend-mode:screen" opacity="0.5" d="M83.5911 220.246L78.5396 219.163V666.628L83.5911 667.73V220.246Z" fill="url(#paint7_linear_126_3912)"/>
<path style="mix-blend-mode:screen" opacity="0.65" d="M508.725 522.297L83.5913 667.73V220.246L508.725 74.8127V522.297Z" fill="url(#paint8_linear_126_3912)"/>
<path d="M78.5396 219.163L83.5911 220.486L508.725 74.8127L503.653 73.7102L78.5396 219.163Z" fill="url(#paint9_linear_126_3912)"/>
<path d="M933.838 592.037L508.725 508.406L83.5913 654.119V668.011L508.725 751.322L933.838 605.929V592.037Z" fill="#007A7F"/>
<path d="M933.838 592.037L508.725 508.406L83.5913 654.119L508.725 737.43L933.838 592.037Z" fill="#009AA2"/>
<path d="M112.137 243.058V635.918L176.524 652.977V255.266L112.137 243.058Z" fill="#AFB3BA"/>
<path d="M297.14 603.603V217.72L176.524 255.266V652.976L297.14 603.603Z" fill="#8C93A0"/>
<path d="M176.524 448.208V455.164L297.14 417.618V410.662L176.524 448.208Z" fill="#72757C"/>
<path d="M176.524 382.718V389.694L297.14 352.148V345.172L176.524 382.718Z" fill="#72757C"/>
<path d="M176.524 320.034V327.01L297.14 289.464V282.488L176.524 320.034Z" fill="#72757C"/>
<path d="M176.524 255.266L112.137 243.058L229.024 207.356L297.14 217.72L176.524 255.266Z" fill="#A5AAB3"/>
<path d="M518.988 110.534V503.374L589.089 520.573V122.843L518.988 110.534Z" fill="#AFB3BA"/>
<path d="M665.543 486.255V100.371L589.088 122.843V520.573L665.543 486.255Z" fill="#8C93A0"/>
<path d="M589.089 122.842L518.988 110.534L600.154 88.9648L665.544 100.371L589.089 122.842Z" fill="#A5AAB3"/>
<path d="M669.393 191.379V614.689L757.294 632.269V204.088L669.393 191.379Z" fill="#AFB3BA"/>
<path d="M866.504 593.921V175.343L757.294 204.089V632.269L866.504 593.921Z" fill="#8C93A0"/>
<path d="M757.294 204.088L669.393 191.379L774.874 164.498L866.504 175.343L757.294 204.088Z" fill="#A5AAB3"/>
<path d="M783.794 193.163L769.361 191.139L812.319 179.773L828.476 181.397L783.794 193.163Z" fill="#8C93A0"/>
<path d="M811.818 185.907L806.687 187.23L808.811 171.314L813.462 171.334L811.818 185.907Z" fill="#7E818A"/>
<path d="M817.867 171.011C818.358 167.592 815.745 164.388 812.031 163.854C808.316 163.32 804.906 165.659 804.414 169.078C803.923 172.497 806.536 175.701 810.251 176.235C813.966 176.769 817.376 174.43 817.867 171.011Z" fill="#B5BAC2"/>
<path d="M690.501 188.673C690.441 180.394 693.027 176.826 696.074 176.926C699.101 177.007 701.967 179.833 701.506 188.974C701.506 188.974 701.246 191.379 696.435 191.319C690.681 191.239 690.501 188.673 690.501 188.673Z" fill="#8C93A0"/>
<path d="M701.466 187.13C701.466 187.13 702.007 186.989 702.167 187.43C702.328 187.871 702.328 189.074 702.288 189.435C702.248 189.796 700.504 191.68 696.134 191.52C691.764 191.359 689.839 189.896 689.799 189.295C689.759 188.693 689.519 186.869 689.899 186.669C690.18 186.508 690.681 186.769 690.681 186.769C690.681 186.769 693.448 188.192 696.675 188.132C699.902 188.072 701.506 187.15 701.506 187.15L701.466 187.13Z" fill="#7E818A"/>
<path d="M751.1 197.113C751.04 188.834 753.625 185.266 756.672 185.366C759.699 185.446 762.566 188.272 762.105 197.413C762.105 197.413 761.844 199.819 757.033 199.759C751.28 199.678 751.1 197.113 751.1 197.113Z" fill="#8C93A0"/>
<path d="M762.064 195.569C762.064 195.569 762.606 195.429 762.766 195.87C762.926 196.311 762.926 197.514 762.886 197.874C762.846 198.235 761.102 200.119 756.732 199.959C752.362 199.799 750.438 198.335 750.398 197.734C750.358 197.133 750.117 195.309 750.498 195.108C750.779 194.948 751.28 195.208 751.28 195.208C751.28 195.208 754.046 196.632 757.274 196.571C760.501 196.511 762.105 195.589 762.105 195.589L762.064 195.569Z" fill="#7E818A"/>
<path d="M832.706 176.405C832.646 168.126 835.232 164.558 838.279 164.658C841.326 164.759 844.172 167.565 843.711 176.706C843.711 176.706 843.451 179.111 838.64 179.051C832.887 178.971 832.706 176.405 832.706 176.405Z" fill="#8C93A0"/>
<path d="M843.671 174.862C843.671 174.862 844.212 174.722 844.373 175.163C844.533 175.604 844.533 176.806 844.493 177.167C844.453 177.528 842.709 179.412 838.339 179.252C833.969 179.091 832.044 177.628 832.004 177.027C831.964 176.425 831.724 174.601 832.105 174.401C832.385 174.24 832.886 174.501 832.886 174.501C832.886 174.501 835.653 175.924 838.88 175.864C842.107 175.804 843.711 174.882 843.711 174.882L843.671 174.862Z" fill="#7E818A"/>
<path d="M770.965 169.329C770.905 161.05 773.491 157.482 776.538 157.582C779.565 157.662 782.431 160.489 781.97 169.63C781.97 169.63 781.709 172.035 776.898 171.975C771.145 171.895 770.965 169.329 770.965 169.329Z" fill="#8C93A0"/>
<path d="M781.93 167.786C781.93 167.786 782.471 167.645 782.631 168.086C782.792 168.527 782.792 169.73 782.752 170.091C782.712 170.452 780.968 172.336 776.598 172.176C772.228 172.015 770.303 170.552 770.263 169.951C770.223 169.349 769.982 167.525 770.363 167.325C770.644 167.164 771.145 167.425 771.145 167.425C771.145 167.425 773.911 168.848 777.139 168.788C780.366 168.708 781.97 167.806 781.97 167.806L781.93 167.786Z" fill="#7E818A"/>
<path d="M720.088 226.179C721.311 236.663 715.798 245.143 708.762 245.002C708.762 245.002 670.735 258.593 647.342 262.202C640.185 263.304 631.886 260.378 629.701 256.489C622.906 244.401 625.351 183.582 624.69 176.746C623.828 167.745 617.734 166.683 615.108 166.643C614.366 166.643 613.905 166.703 613.905 166.703C606.989 166.563 601.396 158.143 601.396 147.92C601.396 137.697 607.009 129.518 613.905 129.658C613.905 129.658 649.727 131.442 660.893 141.225C669.873 149.083 662.356 208.639 666.285 213.631C670.414 218.903 689.558 213.27 699.481 210.102C702.949 209 705.194 208.198 705.194 208.198C712.23 208.358 718.545 213.049 720.068 226.179H720.088Z" fill="#C0C4CA"/>
<path d="M701.566 209.581C701.566 209.581 712.952 208.238 716.681 223.012C720.77 239.229 712.191 244.561 712.191 244.561L709.745 244.982C709.745 244.982 711.048 247.407 714.315 246.846C717.583 246.285 723.957 237.304 721.833 224.816C719.708 212.307 710.066 207.075 705.576 206.735L701.827 208.338L701.586 209.601L701.566 209.581Z" fill="#808691"/>
<path d="M613.384 129.658L615.669 129.819C615.669 129.819 615.349 128.115 614.246 127.654C613.144 127.193 606.088 126.631 602.159 133.567C598.23 140.503 596.927 153.052 601.617 160.809C606.308 168.567 614.567 168.647 614.567 168.647H615.87V166.342L614.346 166.302C614.346 166.302 608.032 165.199 604.544 158.003C601.818 152.35 601.818 141.545 605.406 135.652C608.994 129.758 613.364 129.638 613.364 129.638L613.384 129.658Z" fill="#808691"/>
<path d="M613.925 166.723C607.39 158.404 608.593 136.975 618.977 131.763C620.661 130.941 622.465 130.46 624.269 130.44C613.003 133.266 611.54 146.657 611.82 156.439C612.101 159.887 612.081 163.676 613.925 166.723Z" fill="#8C93A0"/>
<path d="M619.698 167.384C616.952 156.78 622.364 137.095 633.57 133.066C635.414 132.505 637.378 132.405 639.183 132.886C625.712 132.384 619.317 156.7 619.698 167.384Z" fill="#8C93A0"/>
<path d="M623.287 171.173C627.918 159.506 641.789 141.646 654.959 139.942C657.184 139.801 659.51 140.262 661.294 141.525C659.289 140.663 657.124 140.463 655.08 140.904C648.845 142.267 643.954 146.858 639.424 151.167C633.49 157.281 627.677 163.796 623.287 171.153V171.173Z" fill="#8C93A0"/>
<path d="M624.369 172.276C631.866 173.098 663.198 172.616 665.643 164.759C663.438 175.242 632.508 175.603 624.369 172.276Z" fill="#8C93A0"/>
<path d="M625.131 186.348C631.686 188.814 638.782 188.573 645.638 188.112C650.769 187.671 655.961 186.969 660.792 185.165C662.416 184.584 663.919 183.742 665.202 182.539C664.26 184.063 662.757 185.165 661.213 186.067C651.11 191.079 634.993 192.442 625.131 186.368V186.348Z" fill="#8C93A0"/>
<path d="M625.131 200.601C631.686 203.066 638.782 202.826 645.638 202.365C650.769 201.924 655.961 201.222 660.792 199.418C662.416 198.837 663.919 197.995 665.202 196.792C664.26 198.315 662.757 199.418 661.213 200.32C651.11 205.331 634.993 206.695 625.131 200.621V200.601Z" fill="#8C93A0"/>
<path d="M625.131 218.281C631.806 220.727 639.063 220.105 645.978 219.343C651.17 218.662 656.422 217.7 661.293 215.735C662.937 215.094 664.44 214.232 665.743 212.989C658.828 222.07 634.432 224.616 625.131 218.281Z" fill="#8C93A0"/>
<path d="M697.437 211.325C700.584 212.207 702.227 215.695 703.671 218.381C707.259 226.62 710.125 238.227 704.192 245.984C707.88 237.365 704.954 227.502 702.247 219.003C701.065 216.276 700.163 212.949 697.457 211.345L697.437 211.325Z" fill="#8C93A0"/>
<path d="M688.075 213.47C696.835 219.905 699.441 242.356 691.663 250.174C692.565 248.791 693.207 247.347 693.508 245.764C694.57 241.093 694.45 236.222 694.009 231.471C693.287 225.177 692.165 218.582 688.075 213.47Z" fill="#8C93A0"/>
<path d="M676.969 215.996C683.223 222.711 683.684 243.178 679.375 251.176C678.513 252.7 677.41 254.203 675.887 255.045C677.13 253.842 677.951 252.359 678.473 250.775C680.978 242.717 680.317 234.017 679.515 225.718C678.954 222.451 678.914 218.802 676.969 215.996Z" fill="#8C93A0"/>
<path d="M668.911 215.815C673.361 226.279 672.158 247.187 664.461 256.027C663.058 257.49 661.294 258.713 659.329 259.054C661.153 258.272 662.617 256.969 663.699 255.406C666.967 250.615 668.029 244.761 668.871 239.088C669.673 231.431 670.555 223.433 668.911 215.835V215.815Z" fill="#8C93A0"/>
<path d="M667.167 214.492C669.432 228.745 657.124 256.508 642.571 261.059C639.985 261.8 637.158 261.82 634.713 260.858C637.279 261.379 639.925 261.119 642.25 260.137C654.999 255.005 667.247 227.743 667.167 214.492Z" fill="#8C93A0"/>
<path d="M666.505 214.813C662.536 224.676 641.167 249.813 629.801 248.269C628.619 247.989 627.657 247.207 627.075 246.225C627.837 247.087 628.819 247.628 629.882 247.748C633.189 247.848 636.096 245.744 638.722 243.899C642.27 241.213 645.577 238.206 648.765 235.039C654.959 228.625 661.594 222.29 666.505 214.793V214.813Z" fill="#8C93A0"/>
<path d="M449.148 671.9L238.667 640.969L495.915 556.896L697.276 583.096L449.148 671.9Z" fill="#A5AAB3"/>
<path d="M449.148 305.521L238.667 275.993L496.617 198.195L697.276 225.778L449.148 305.521Z" fill="#A5AAB3"/>
<path d="M449.148 671.9V305.521L238.667 275.993V640.969L449.148 671.9Z" fill="#9BA2AD"/>
<path d="M697.277 225.778V583.096L449.148 671.9V305.521L697.277 225.778Z" fill="#8C93A0"/>
<path d="M238.667 479.379V506.541L449.148 537.472L697.276 446.584V419.402L449.148 510.31L238.667 479.379Z" fill="#868D97"/>
<path d="M238.667 365.839V393.001L449.148 423.932L697.276 333.044V305.882L449.148 396.77L238.667 365.839Z" fill="#868D97"/>
<path d="M294.073 328.533L255.264 322.82V304.258L294.073 309.971V328.533Z" fill="#868D97"/>
<path d="M346.493 335.409L307.705 329.696V311.134L346.493 316.847V335.409Z" fill="#868D97"/>
<path d="M293.953 355.836L255.144 350.123V331.561L293.953 337.274V355.836Z" fill="#868D97"/>
<path d="M346.493 364.476L307.705 358.763V340.2L346.493 345.913V364.476Z" fill="#868D97"/>
<path d="M401.692 347.435C402.111 341.582 396.776 336.431 389.775 335.929C382.774 335.427 376.758 339.765 376.339 345.618C375.919 351.47 381.255 356.621 388.256 357.123C395.257 357.625 401.272 353.287 401.692 347.435Z" fill="#868D97"/>
<path d="M437.538 351.873C437.958 346.02 432.622 340.869 425.621 340.367C418.62 339.865 412.605 344.203 412.185 350.055C411.766 355.908 417.101 361.059 424.102 361.561C431.103 362.063 437.119 357.725 437.538 351.873Z" fill="#868D97"/>
<path d="M292.429 444.759L253.641 439.046V420.484L292.429 426.197V444.759Z" fill="#868D97"/>
<path d="M344.869 451.635L306.061 445.922V427.38L344.869 433.093V451.635Z" fill="#868D97"/>
<path d="M292.308 472.062L253.52 466.369V447.807L292.308 453.52V472.062Z" fill="#868D97"/>
<path d="M344.869 480.702L306.061 474.989V456.447L344.869 462.16V480.702Z" fill="#868D97"/>
<path d="M400.074 463.689C400.493 457.836 395.158 452.685 388.157 452.183C381.156 451.682 375.141 456.019 374.721 461.872C374.302 467.724 379.637 472.876 386.638 473.377C393.639 473.879 399.654 469.542 400.074 463.689Z" fill="#868D97"/>
<path d="M435.902 468.106C436.321 462.253 430.986 457.102 423.985 456.6C416.984 456.098 410.968 460.436 410.549 466.288C410.129 472.141 415.464 477.292 422.466 477.794C429.467 478.296 435.482 473.958 435.902 468.106Z" fill="#868D97"/>
<path d="M344.809 681.582L345.851 698.842L488.438 726.224L578.444 693.048L578.624 678.976L344.809 681.582Z" fill="#8C93A0"/>
<path d="M487.636 707.16L344.809 681.582L434.474 650.571L578.624 678.976L487.636 707.16Z" fill="#9BA2AD"/>
<path d="M522.556 468.213V675.308C522.556 681.301 497.539 688.418 466.688 687.756C435.838 687.094 410.82 678.896 410.82 672.902V465.808L522.536 468.213H522.556Z" fill="#8C93A0"/>
<path d="M522.547 468.243C522.681 462.244 497.783 456.822 466.936 456.133C436.089 455.444 410.973 459.748 410.839 465.747C410.705 471.746 435.603 477.168 466.451 477.857C497.298 478.547 522.413 474.242 522.547 468.243Z" fill="#A5AAB3"/>
<path d="M522.556 614.027V644.677C522.556 650.671 497.539 655.001 466.688 654.339C435.838 653.678 410.82 648.265 410.82 642.272V611.622C410.82 617.615 435.838 623.028 466.688 623.689C497.539 624.351 522.556 620.021 522.556 614.027Z" fill="#808691"/>
<path d="M522.556 554.812V585.462C522.556 591.456 497.539 595.786 466.688 595.124C435.838 594.463 410.82 589.05 410.82 583.056V552.406C410.82 558.4 435.838 563.812 466.688 564.474C497.539 565.135 522.556 560.805 522.556 554.812Z" fill="#808691"/>
<path d="M522.556 495.616V526.266C522.556 532.26 497.539 536.59 466.688 535.928C435.838 535.267 410.82 529.854 410.82 523.861V493.21C410.82 499.204 435.838 504.617 466.688 505.278C497.539 505.94 522.556 501.61 522.556 495.616Z" fill="#808691"/>
<g style="mix-blend-mode:multiply" opacity="0.3">
<path d="M510.906 495.355C514.128 494.977 516.406 491.827 515.995 488.32C515.583 484.812 512.638 482.275 509.416 482.653C506.195 483.031 503.917 486.181 504.328 489.688C504.739 493.196 507.685 495.733 510.906 495.355Z" fill="#808691"/>
</g>
<g style="mix-blend-mode:multiply" opacity="0.3">
<path d="M510.903 553.493C514.125 553.115 516.403 549.965 515.992 546.458C515.58 542.95 512.635 540.413 509.413 540.791C506.192 541.169 503.914 544.319 504.325 547.826C504.736 551.334 507.682 553.871 510.903 553.493Z" fill="#808691"/>
</g>
<g style="mix-blend-mode:multiply" opacity="0.3">
<path d="M510.904 615.793C514.126 615.415 516.404 612.265 515.993 608.757C515.581 605.25 512.636 602.713 509.414 603.091C506.193 603.469 503.915 606.618 504.326 610.126C504.737 613.634 507.683 616.171 510.904 615.793Z" fill="#808691"/>
</g>
<g style="mix-blend-mode:multiply" opacity="0.3">
<path d="M510.895 672.338C514.116 671.96 516.394 668.81 515.983 665.303C515.572 661.795 512.626 659.258 509.405 659.636C506.183 660.014 503.905 663.164 504.316 666.671C504.728 670.179 507.673 672.716 510.895 672.338Z" fill="#808691"/>
</g>
<path d="M279.78 684.589L100.63 650.852L226.819 605.047L396.828 630.585L279.78 684.589Z" fill="#8C93A0"/>
<path d="M279.78 570.367L100.63 543.586L226.819 497.781L396.828 523.32L279.78 570.367Z" fill="#A5AAB3"/>
<path d="M396.828 523.319V630.585L279.78 684.589V570.367L396.828 523.319Z" fill="#8C93A0"/>
<path d="M100.63 543.586L279.78 570.367V684.589L100.63 650.851V543.586Z" fill="#9BA2AD"/>
<path d="M118.591 552.306L138.697 555.313L139.339 570.187L251.656 586.985L248.489 574.256L252.037 572.232L271.722 575.178V672.822L268.154 674.846L247.947 654.961L138.076 637.24L137.875 649.348L134.227 649.609L115.023 554.31L118.591 552.306Z" fill="#8C93A0"/>
<path d="M115.023 554.311L135.149 557.317L135.77 574.276L248.088 591.095L248.489 574.256L268.154 577.203V674.847L244.64 670.416L244.379 659.07L134.508 641.35L134.227 649.609L115.023 646.001V554.311Z" fill="#B5BAC2"/>
<path d="M246.204 615.831L136.392 598.592L136.893 589.391L246.645 605.127L246.204 615.831Z" fill="#8C93A0"/>
<path d="M245.562 631.788L135.75 614.548L136.232 605.347L246.003 621.083L245.562 631.788Z" fill="#8C93A0"/>
<path d="M245.121 647.744L135.31 630.505L135.791 621.304L245.562 637.04L245.121 647.744Z" fill="#8C93A0"/>
<path d="M288.521 585.419C290.415 584.505 291.187 582.18 290.245 580.226C289.303 578.271 287.003 577.427 285.108 578.341C283.213 579.254 282.441 581.579 283.384 583.534C284.326 585.489 286.626 586.332 288.521 585.419Z" fill="#B5BAC2"/>
<path d="M299.856 581.271C301.751 580.357 302.523 578.032 301.58 576.078C300.638 574.123 298.338 573.279 296.443 574.193C294.549 575.106 293.777 577.431 294.719 579.386C295.661 581.34 297.961 582.184 299.856 581.271Z" fill="#B5BAC2"/>
<path d="M311.274 577.267C313.169 576.354 313.941 574.029 312.998 572.074C312.056 570.12 309.756 569.276 307.861 570.189C305.967 571.103 305.195 573.428 306.137 575.382C307.079 577.337 309.379 578.181 311.274 577.267Z" fill="#B5BAC2"/>
<path d="M358.34 551.203L358.781 566.598L360.926 567.34L387.487 540.76L385.342 540.018L358.34 551.203Z" fill="#9BA2AD"/>
<path d="M360.485 552.647L360.926 567.34L387.988 556.115L387.487 540.76L360.485 552.647Z" fill="#B5BAC2"/>
<path d="M359.062 573.514L359.503 588.909L361.628 589.651L388.208 563.071L386.064 562.329L359.062 573.514Z" fill="#9BA2AD"/>
<path d="M361.187 574.958L361.628 589.651L388.69 578.406L388.209 563.071L361.187 574.958Z" fill="#B5BAC2"/>
<path d="M339.016 605.267L342.624 595.164L339.336 594.763L335.668 596.507C335.508 596.146 335.347 595.785 335.147 595.465L335.628 586.685L332.761 586.344L331.298 592.257C331.178 592.257 330.196 591.636 330.075 591.636C329.955 591.636 332.641 586.604 332.521 586.604L328.512 586.524L323.46 590.573L327.55 596.567C327.369 596.888 325.625 594.923 325.625 594.923L321.516 594.683L320.273 604.024L323.26 604.926C323.3 605.387 323.38 605.868 323.46 606.309L320.954 609.236L324.442 616.813L328.452 616.893C328.452 616.893 328.953 614.107 329.153 614.247L328.091 619.259L332.842 619.299L332.641 613.746C332.862 613.606 333.062 613.446 333.263 613.285L335.648 617.054L339.657 617.134L338.795 606.63C338.875 606.189 338.935 605.728 338.996 605.247L339.016 605.267ZM330.075 610.419C327.63 610.359 328.211 607.352 328.211 603.302C328.211 599.253 327.65 595.705 330.075 595.765C332.501 595.825 334.505 599.133 334.505 603.182C334.505 607.231 332.521 610.459 330.075 610.419Z" fill="#9BA2AD"/>
<path d="M340.88 605.307L343.867 604.545L342.624 595.164L339.677 596.607C339.517 596.246 339.357 595.886 339.156 595.565L340.68 590.974L335.628 586.705L334.425 591.776C334.305 591.776 334.185 591.776 334.085 591.756C333.984 591.736 333.844 591.756 333.744 591.756L332.541 586.645L327.489 590.694L329.013 595.344C328.833 595.665 328.652 596.006 328.512 596.367L325.565 594.803L324.322 604.144L327.309 605.046C327.349 605.508 327.429 605.989 327.51 606.43L325.004 609.356L328.492 616.934L330.877 613.265C331.078 613.446 331.278 613.606 331.499 613.746L331.298 619.299L336.911 619.419L336.711 613.867C336.931 613.726 337.131 613.566 337.332 613.406L339.717 617.174L343.205 609.737L340.7 606.69C340.78 606.249 340.84 605.788 340.9 605.307H340.88ZM334.085 610.499C331.639 610.439 329.654 607.131 329.654 603.082C329.654 599.033 331.639 595.805 334.085 595.846C336.53 595.886 338.515 599.213 338.515 603.262C338.515 607.312 336.53 610.539 334.085 610.499Z" fill="#B5BAC2"/>
<path d="M315.121 637.621L320.954 621.304L315.662 620.642L309.729 623.469C309.468 622.887 309.208 622.306 308.907 621.765L309.669 607.593L305.038 607.051L302.673 616.613C302.492 616.613 300.869 615.611 300.688 615.611C300.508 615.611 304.838 607.492 304.637 607.492L298.162 607.352L290.004 613.907L296.599 623.589C296.298 624.11 293.492 620.943 293.492 620.943L286.857 620.562L284.832 635.616L289.663 637.06C289.743 637.821 289.843 638.563 289.984 639.285L285.955 644.016L291.607 656.243L298.082 656.384C298.082 656.384 298.884 651.873 299.225 652.114L297.521 660.192L305.198 660.273L304.858 651.292C305.198 651.072 305.539 650.811 305.86 650.55L309.729 656.644L316.204 656.785L314.8 639.826C314.941 639.104 315.041 638.363 315.121 637.601V637.621ZM300.688 645.94C296.739 645.86 297.661 640.989 297.661 634.454C297.661 627.919 296.739 622.206 300.688 622.286C304.637 622.366 307.824 627.738 307.824 634.273C307.824 640.808 304.637 646.04 300.688 645.94Z" fill="#9BA2AD"/>
<path d="M318.148 637.681L322.979 636.438L320.954 621.284L316.183 623.609C315.923 623.028 315.662 622.446 315.361 621.905L317.807 614.488L309.648 607.592L307.704 615.771C307.524 615.771 307.323 615.731 307.143 615.731C306.962 615.731 306.762 615.731 306.581 615.731L304.637 607.472L296.478 614.027L298.924 621.544C298.623 622.065 298.363 622.627 298.102 623.208L293.331 620.682L291.307 635.737L296.138 637.18C296.218 637.942 296.318 638.683 296.458 639.405L292.429 644.136L298.082 656.364L301.951 650.45C302.272 650.731 302.612 651.011 302.953 651.232L302.612 660.192L311.673 660.393L311.332 651.412C311.673 651.192 312.014 650.931 312.335 650.671L316.203 656.765L321.856 644.777L317.827 639.866C317.967 639.144 318.068 638.403 318.148 637.641V637.681ZM307.163 646.06C303.214 645.98 300.027 640.608 300.027 634.073C300.027 627.538 303.214 622.306 307.163 622.406C311.112 622.506 314.299 627.859 314.299 634.394C314.299 640.928 311.112 646.16 307.163 646.06Z" fill="#B5BAC2"/>
<path d="M158.142 312.357C149.663 312.276 145.974 309.69 145.974 306.724C145.974 303.757 148.781 301.011 158.142 301.612C158.142 301.612 160.628 301.913 160.688 306.603C160.768 312.236 158.142 312.357 158.142 312.357Z" fill="#8C93A0"/>
<path d="M156.278 301.612C156.278 301.612 156.117 301.091 156.558 300.93C156.999 300.77 158.242 300.81 158.603 300.85C158.964 300.89 160.948 302.634 160.908 306.904C160.868 311.174 159.425 313.038 158.803 313.058C158.182 313.078 156.338 313.279 156.117 312.918C155.957 312.657 156.197 312.156 156.197 312.156C156.197 312.156 157.58 309.47 157.42 306.323C157.26 303.176 156.278 301.592 156.278 301.592V301.612Z" fill="#7E818A"/>
<path d="M158.142 363.053C149.663 362.972 145.974 360.386 145.974 357.42C145.974 354.453 148.781 351.707 158.142 352.308C158.142 352.308 160.628 352.609 160.688 357.299C160.768 362.932 158.142 363.053 158.142 363.053Z" fill="#8C93A0"/>
<path d="M156.278 352.288C156.278 352.288 156.117 351.767 156.558 351.607C156.999 351.446 158.242 351.486 158.603 351.526C158.964 351.566 160.948 353.31 160.908 357.58C160.868 361.85 159.425 363.714 158.803 363.734C158.182 363.754 156.338 363.955 156.117 363.594C155.957 363.333 156.197 362.832 156.197 362.832C156.197 362.832 157.58 360.146 157.42 356.999C157.26 353.852 156.278 352.268 156.278 352.268V352.288Z" fill="#7E818A"/>
<path d="M158.142 412.867C149.663 412.786 145.974 410.2 145.974 407.234C145.974 404.267 148.781 401.521 158.142 402.122C158.142 402.122 160.628 402.423 160.688 407.113C160.768 412.746 158.142 412.867 158.142 412.867Z" fill="#8C93A0"/>
<path d="M156.278 402.122C156.278 402.122 156.117 401.601 156.558 401.44C156.999 401.28 158.242 401.32 158.603 401.36C158.964 401.4 160.948 403.144 160.908 407.414C160.868 411.684 159.425 413.548 158.803 413.568C158.182 413.588 156.338 413.789 156.117 413.428C155.957 413.167 156.197 412.666 156.197 412.666C156.197 412.666 157.58 409.98 157.42 406.833C157.26 403.686 156.278 402.102 156.278 402.102V402.122Z" fill="#7E818A"/>
<path d="M130.419 541.882C130.358 533.603 132.944 530.035 135.991 530.135C139.038 530.235 141.885 533.042 141.424 542.183C141.424 542.183 141.163 544.588 136.352 544.528C130.599 544.448 130.419 541.882 130.419 541.882Z" fill="#8C93A0"/>
<path d="M141.383 540.358C141.383 540.358 141.925 540.218 142.085 540.659C142.245 541.1 142.245 542.303 142.205 542.664C142.165 543.025 140.421 544.909 136.051 544.748C131.681 544.588 129.757 543.125 129.717 542.523C129.677 541.922 129.436 540.098 129.817 539.897C130.098 539.737 130.599 539.998 130.599 539.998C130.599 539.998 133.365 541.421 136.592 541.361C139.82 541.301 141.423 540.379 141.423 540.379L141.383 540.358Z" fill="#7E818A"/>
<path d="M156.699 533.623C156.639 525.344 159.225 521.776 162.271 521.876C165.298 521.956 168.165 524.783 167.704 533.924C167.704 533.924 167.443 536.329 162.632 536.269C156.879 536.189 156.699 533.623 156.699 533.623Z" fill="#8C93A0"/>
<path d="M167.684 532.08C167.684 532.08 168.225 531.939 168.385 532.38C168.546 532.821 168.546 534.024 168.505 534.385C168.465 534.746 166.721 536.63 162.351 536.47C157.981 536.309 156.057 534.846 156.017 534.245C155.977 533.643 155.736 531.819 156.117 531.619C156.398 531.458 156.899 531.719 156.899 531.719C156.899 531.719 159.665 533.142 162.893 533.082C166.12 533.002 167.724 532.1 167.724 532.1L167.684 532.08Z" fill="#7E818A"/>
<path d="M179.511 526.346C179.451 518.067 182.037 514.499 185.083 514.599C188.11 514.68 190.977 517.506 190.516 526.647C190.516 526.647 190.255 529.052 185.444 528.992C179.691 528.912 179.511 526.346 179.511 526.346Z" fill="#8C93A0"/>
<path d="M190.476 524.803C190.476 524.803 191.017 524.662 191.177 525.103C191.338 525.544 191.338 526.747 191.297 527.108C191.257 527.469 189.513 529.353 185.143 529.193C180.773 529.032 178.849 527.569 178.809 526.968C178.769 526.366 178.528 524.542 178.909 524.342C179.19 524.181 179.691 524.442 179.691 524.442C179.691 524.442 182.457 525.865 185.685 525.805C188.912 525.745 190.516 524.823 190.516 524.823L190.476 524.803Z" fill="#7E818A"/>
<path d="M156.278 301.612C166.521 310.412 150.184 319.012 162.592 326.95C175 334.888 159.986 381.836 165.86 427.32C171.733 472.804 151.106 529.013 156.719 532.741C162.331 536.47 168.045 533.844 167.824 531.057" stroke="#72757C" stroke-width="3" stroke-miterlimit="10" stroke-linecap="round"/>
<path d="M156.278 352.288C161.61 353.591 153.772 364.436 153.772 374.499C153.772 384.562 169.287 443.998 157.039 452.357C144.791 460.716 168.466 514.58 172.234 516.725C176.003 518.869 174.86 521.636 179.671 524.422C184.482 527.209 190.516 524.142 190.516 524.142" stroke="#72757C" stroke-width="3" stroke-miterlimit="10" stroke-linecap="round"/>
<path d="M156.278 402.122C160.848 404.207 157.04 411.544 156.118 413.468C155.195 415.392 144.952 432.191 150.825 441.272C156.699 450.332 147.237 458.772 153.772 469.556C160.307 480.341 151.707 510.51 151.046 522.417C150.384 534.325 144.631 538.735 142.065 540.679C139.499 542.624 128.835 543.666 129.036 540.679" stroke="#72757C" stroke-width="3" stroke-miterlimit="10" stroke-linecap="round"/>
<path d="M493.991 205.572C493.931 197.293 496.517 193.725 499.564 193.825C502.591 193.905 505.457 196.732 504.996 205.873C504.996 205.873 504.736 208.278 499.925 208.218C494.172 208.138 493.991 205.572 493.991 205.572Z" fill="#8C93A0"/>
<path d="M504.956 204.049C504.956 204.049 505.497 203.908 505.658 204.349C505.818 204.79 505.818 205.993 505.778 206.354C505.738 206.715 503.994 208.599 499.624 208.439C495.254 208.278 493.33 206.815 493.289 206.214C493.249 205.612 493.009 203.788 493.39 203.588C493.67 203.427 494.171 203.688 494.171 203.688C494.171 203.688 496.938 205.111 500.165 205.051C503.392 204.991 504.996 204.069 504.996 204.069L504.956 204.049Z" fill="#7E818A"/>
<path d="M527.026 210.223C526.966 201.944 529.552 198.376 532.599 198.476C535.626 198.556 538.493 201.383 538.031 210.523C538.031 210.523 537.771 212.929 532.96 212.869C527.207 212.789 527.026 210.223 527.026 210.223Z" fill="#8C93A0"/>
<path d="M538.012 208.699C538.012 208.699 538.553 208.559 538.713 209C538.874 209.441 538.874 210.644 538.834 211.005C538.793 211.365 537.05 213.25 532.68 213.089C528.31 212.929 526.385 211.466 526.345 210.864C526.305 210.263 526.064 208.439 526.445 208.238C526.726 208.078 527.227 208.338 527.227 208.338C527.227 208.338 529.993 209.762 533.221 209.702C536.448 209.621 538.052 208.719 538.052 208.719L538.012 208.699Z" fill="#7E818A"/>
<path d="M563.67 215.074C563.61 206.795 566.196 203.227 569.243 203.327C572.29 203.427 575.136 206.234 574.675 215.374C574.675 215.374 574.414 217.78 569.603 217.72C563.85 217.64 563.67 215.074 563.67 215.074Z" fill="#8C93A0"/>
<path d="M574.636 213.53C574.636 213.53 575.177 213.39 575.337 213.831C575.498 214.272 575.498 215.475 575.458 215.836C575.418 216.196 573.674 218.081 569.304 217.92C564.934 217.76 563.009 216.297 562.969 215.695C562.929 215.094 562.689 213.27 563.069 213.069C563.35 212.909 563.851 213.169 563.851 213.169C563.851 213.169 566.617 214.593 569.845 214.533C573.072 214.452 574.676 213.55 574.676 213.55L574.636 213.53Z" fill="#7E818A"/>
<path d="M579.046 136.694C572.11 136.955 568.963 134.95 568.843 132.525C568.722 130.099 570.907 127.734 578.625 127.874C578.625 127.874 580.67 128.034 580.91 131.883C581.191 136.494 579.046 136.694 579.046 136.694Z" fill="#8C93A0"/>
<path d="M577.101 127.934C577.101 127.934 576.941 127.513 577.301 127.373C577.662 127.233 578.665 127.213 578.965 127.233C579.266 127.253 580.95 128.616 581.09 132.124C581.23 135.632 580.108 137.215 579.607 137.256C579.106 137.296 577.582 137.536 577.402 137.256C577.261 137.035 577.442 136.634 577.442 136.634C577.442 136.634 578.464 134.369 578.224 131.783C577.983 129.197 577.101 127.934 577.101 127.934Z" fill="#7E818A"/>
<path d="M555.03 131.543C548.094 131.803 544.947 129.799 544.827 127.373C544.707 124.948 546.892 122.582 554.609 122.723C554.609 122.723 556.654 122.883 556.894 126.732C557.175 131.342 555.03 131.543 555.03 131.543Z" fill="#8C93A0"/>
<path d="M553.086 122.783C553.086 122.783 552.926 122.362 553.287 122.221C553.648 122.081 554.65 122.061 554.951 122.081C555.251 122.101 556.935 123.464 557.075 126.972C557.216 130.48 556.093 132.064 555.592 132.104C555.091 132.144 553.567 132.385 553.387 132.104C553.247 131.883 553.427 131.482 553.427 131.482C553.427 131.482 554.449 129.217 554.209 126.631C553.968 124.046 553.086 122.783 553.086 122.783Z" fill="#7E818A"/>
<path d="M532.017 126.571C525.082 126.832 521.934 124.827 521.814 122.402C521.694 119.976 523.879 117.611 531.597 117.751C531.597 117.751 533.641 117.911 533.882 121.76C534.162 126.371 532.017 126.571 532.017 126.571Z" fill="#8C93A0"/>
<path d="M530.053 117.811C530.053 117.811 529.893 117.39 530.254 117.25C530.614 117.11 531.617 117.09 531.917 117.11C532.218 117.13 533.902 118.493 534.042 122.001C534.183 125.509 533.06 127.092 532.559 127.132C532.058 127.173 530.534 127.413 530.354 127.132C530.213 126.912 530.394 126.511 530.394 126.511C530.394 126.511 531.416 124.246 531.176 121.66C530.935 119.074 530.053 117.811 530.053 117.811Z" fill="#7E818A"/>
<path d="M263.523 238.808L264.425 251.056C264.486 251.858 265.127 252.539 265.949 252.639L267.973 252.9L291.547 230.509L288.22 229.787C287.919 229.727 287.598 229.727 287.318 229.827L264.666 237.104C263.924 237.345 263.463 238.026 263.523 238.788V238.808Z" fill="#9BA2AD"/>
<path d="M265.688 239.931L266.59 251.697C266.67 252.62 267.632 253.241 268.514 252.94L292.088 244.701C292.67 244.501 293.05 243.94 293.01 243.338L292.329 231.852C292.269 230.91 291.306 230.289 290.424 230.589L266.65 238.547C266.049 238.748 265.668 239.309 265.708 239.931H265.688Z" fill="#B5BAC2"/>
<path d="M273.472 247.841C274.938 247.703 275.968 245.903 275.772 243.819C275.576 241.736 274.229 240.159 272.763 240.297C271.297 240.435 270.268 242.235 270.463 244.318C270.659 246.402 272.006 247.979 273.472 247.841Z" fill="#72757C"/>
<path d="M280.502 245.311C281.968 245.173 282.997 243.373 282.802 241.29C282.606 239.206 281.259 237.629 279.793 237.767C278.327 237.905 277.297 239.705 277.493 241.789C277.689 243.872 279.036 245.449 280.502 245.311Z" fill="#72757C"/>
<path d="M287.305 243.139C288.771 243.001 289.801 241.201 289.605 239.118C289.409 237.035 288.062 235.457 286.596 235.595C285.13 235.733 284.101 237.534 284.296 239.617C284.492 241.7 285.839 243.277 287.305 243.139Z" fill="#72757C"/>
<path d="M268.114 532.44C268.114 536.55 256.367 539.617 241.894 539.296C227.421 538.975 215.674 535.407 215.674 531.298C215.674 531.238 215.674 531.178 215.674 531.097C215.774 527.228 215.133 466.83 214.511 452.277C213.99 440.229 206.393 446.043 203.787 443.637C196.129 440.43 190.496 429.845 190.496 417.417C190.496 402.603 198.514 390.756 208.377 390.976C208.377 390.976 254.362 389.573 260.777 410.301C271.902 446.203 268.094 532.42 268.094 532.42L268.114 532.44Z" fill="#B5BAC2"/>
<path d="M208.397 391.017C208.397 391.017 207.655 388.691 206.352 388.491C205.049 388.29 189.253 390.335 189.794 418.459C190.235 440.61 203.085 447.064 203.085 447.064L207.976 447.225L207.314 444.819L205.51 444.779C205.51 444.779 192.942 433.975 194.245 415.472C195.547 396.97 208.377 391.017 208.377 391.017H208.397Z" fill="#808691"/>
<path d="M213.99 529.293V534.405C213.99 534.405 217.919 540.459 240.35 541.581C262.781 542.704 270.839 535.207 270.839 535.207L271.06 529.674L268.454 528.972C268.454 528.972 260.516 535.006 240.149 534.264C222.83 533.643 215.593 528.992 215.593 528.992L214.01 529.273L213.99 529.293Z" fill="#8C93A0"/>
<path d="M220.725 391.438C201.802 393.021 201.341 423.551 205.731 437.222C206.513 439.688 207.675 442.093 209.62 443.897C207.375 442.434 205.931 439.988 204.809 437.583C198.595 423.611 200.038 390.916 220.725 391.438Z" fill="#8C93A0"/>
<path d="M242.936 395.427C225.576 396.81 216.195 417.276 213.749 432.471C213.188 436.28 212.847 440.449 212.567 444.278C211.063 428.522 215.153 410.782 228.022 400.478C232.252 397.331 237.524 394.565 242.936 395.427Z" fill="#8C93A0"/>
<path d="M260.797 410.341C246.985 409.479 227.14 431.088 218.921 441.392C217.237 443.356 215.814 445.481 214.21 447.526C215.433 445.26 216.716 442.995 218.139 440.83C225.336 429.364 246.083 407.274 260.817 410.341H260.797Z" fill="#8C93A0"/>
<path d="M214.852 462.22C219.121 464.164 223.772 464.826 228.382 465.287C237.583 466.028 246.985 465.627 255.885 463.122L259.153 461.999L262.28 460.536C264.104 459.594 266.409 457.91 267.973 456.547C257.769 469.817 228.302 470.498 214.832 462.22H214.852Z" fill="#8C93A0"/>
<path d="M215.513 478.858C223.912 482.265 233.173 482.987 242.134 483.248C250.012 483.308 257.97 482.486 265.327 479.539C266.329 479.038 267.371 478.557 268.414 478.076C267.472 478.737 266.529 479.379 265.567 480C251.656 487.658 229.144 486.776 215.513 478.838V478.858Z" fill="#8C93A0"/>
<path d="M215.172 497.701C227.42 503.955 241.973 506.3 255.524 503.895C260.035 503.013 264.385 501.369 268.414 498.944C267.492 499.665 266.55 500.387 265.587 501.068C250.814 510.51 228.964 507.724 215.152 497.681L215.172 497.701Z" fill="#8C93A0"/>
<path d="M214.531 517.486C216.977 521.435 222.75 522.678 226.94 523.981C240.871 527.469 256.086 526.447 268.755 519.29C266.851 520.814 264.766 522.097 262.581 523.259C251.496 528.792 238.205 529.213 226.499 525.444C222.269 523.821 216.355 522.016 214.511 517.486H214.531Z" fill="#8C93A0"/>
<path d="M214.531 448.328C228.343 448.749 252.157 443.477 262.02 433.494C263.663 431.77 264.746 429.525 264.846 427.059C265.207 429.525 264.285 432.091 262.781 434.115C253.099 445.842 229.044 451.114 214.531 448.328Z" fill="#8C93A0"/>
<path d="M615.128 166.643C614.728 166.703 614.327 166.723 613.926 166.703C613.926 166.703 614.387 166.623 615.128 166.643Z" fill="#B5BAC2"/>
<path d="M575.476 127.994C580.267 128.736 568.942 137.215 574.815 143.309C580.688 149.403 548.034 166.362 553.907 175.443C559.781 184.503 558.037 207.696 543.885 209.941C529.732 212.186 524.28 206.954 526.465 204.669" stroke="#72757C" stroke-width="3" stroke-miterlimit="10" stroke-linecap="round"/>
<path d="M553.286 122.221C555.912 121.68 545.869 142.467 556.313 145.454C566.757 148.441 570.686 176.645 563.069 184.363C555.451 192.081 536.508 178.69 528.009 188.933C519.509 199.177 508.184 204.91 501.228 204.749C494.252 204.609 493.61 202.023 493.61 202.023" stroke="#72757C" stroke-width="3" stroke-miterlimit="10" stroke-linecap="round"/>
<path d="M528.449 117.39C531.937 117.11 526.926 124.386 529.311 128.916C531.697 133.447 522.336 151.127 531.496 157.502C540.637 163.876 523.438 171.373 529.091 179.171C534.744 186.969 558.057 210.041 564.812 212.307C571.568 214.572 574.835 212.307 574.835 212.307" stroke="#72757C" stroke-width="3" stroke-miterlimit="10" stroke-linecap="round"/>
<path d="M330.276 228.785L358.3 215.515L373.355 217.599L346.173 230.128L330.276 228.785Z" fill="#AEB0B8"/>
<path d="M407.573 270.039L330.276 260.698V228.785L346.173 230.128L352.868 197.253L407.573 201.884V270.039Z" fill="#B5BAC2"/>
<path d="M407.573 270.039L465.405 248.971L464.704 185.747L407.573 201.883V270.039Z" fill="#9BA2AD"/>
<path d="M407.573 201.884L464.704 185.747L406.27 182.219L352.868 197.253L407.573 201.884Z" fill="#AEB0B8"/>
<path d="M445.099 201.262L448.246 200.44L448.907 241.755L445.48 243.118L445.099 201.262Z" fill="#8C93A0"/>
<path d="M455.062 197.814L458.209 196.972L458.87 238.287L455.442 239.65L455.062 197.814Z" fill="#8C93A0"/>
<path d="M435.137 204.67L438.284 203.848L438.945 245.844L435.518 247.207L435.137 204.67Z" fill="#8C93A0"/>
<path d="M425.494 207.717L428.641 206.875L429.303 249.592L425.875 250.956L425.494 207.717Z" fill="#8C93A0"/>
<path d="M413.907 210.924L417.054 210.082L417.716 253.481L414.268 254.844L413.907 210.924Z" fill="#8C93A0"/>
<path d="M427.318 170.712L420.863 169.709L426.496 134.79L430.144 135.371L427.318 170.712Z" fill="#808691"/>
<path d="M435.443 133.426C436.046 130.261 433.459 127.109 429.664 126.385C425.868 125.661 422.302 127.639 421.699 130.804C421.095 133.968 423.682 137.121 427.478 137.845C431.273 138.569 434.839 136.59 435.443 133.426Z" fill="#808691"/>
<path d="M411.041 138.378C411.041 138.378 443.835 161.31 425.874 188.553C415.511 204.268 386.324 203.286 380.631 198.315L411.041 138.378Z" fill="#8C93A0"/>
<path d="M422.26 178.115C429.083 160.694 421.838 141.567 406.076 135.393C390.315 129.219 372.006 138.337 365.182 155.758C358.358 173.179 365.604 192.307 381.365 198.48C397.127 204.654 415.436 195.536 422.26 178.115Z" fill="url(#paint10_radial_126_3912)"/>
<path style="mix-blend-mode:screen" opacity="0.5" d="M513.295 302.193L88.1618 218.883L83.5913 220.486V654.039L508.725 737.35L513.295 735.746V302.193Z" fill="url(#paint11_linear_126_3912)"/>
<path style="mix-blend-mode:screen" opacity="0.5" d="M88.1618 218.883L83.5913 220.486V654.039L508.725 737.35L513.295 735.746L88.1618 652.435V218.883Z" fill="url(#paint12_linear_126_3912)"/>
<path style="mix-blend-mode:screen" opacity="0.5" d="M83.5913 220.486L508.725 303.857L513.295 302.193L88.1618 218.883L83.5913 220.486Z" fill="url(#paint13_linear_126_3912)"/>
<g opacity="0.25">
<path d="M83.5913 380.954V442.755L271.522 254.825L219.863 244.702L83.5913 380.954Z" fill="white"/>
<path d="M343.286 268.877L318.229 263.966L83.5913 498.623V528.591L343.286 268.877Z" fill="white"/>
</g>
<g style="mix-blend-mode:multiply" opacity="0.5">
<path d="M88.0615 664.322V659.471L504.234 741.038V745.889L88.0615 664.322Z" fill="#007A7F"/>
</g>
<path d="M933.838 158.444L508.725 303.897V751.362L528.41 755.251L953.523 609.818V162.333L933.838 158.444Z" fill="url(#paint14_linear_126_3912)"/>
<path d="M953.522 609.818L528.409 755.251V307.786L953.522 162.333V609.818Z" fill="url(#paint15_linear_126_3912)"/>
<path d="M528.41 307.786L508.725 303.897V751.362L528.41 755.251V307.786Z" fill="url(#paint16_linear_126_3912)"/>
<path d="M905.092 380.392L577.201 492.569C572.21 494.273 567.038 490.565 567.038 485.292V402.984C567.038 396.79 570.967 391.277 576.841 389.273L904.731 277.096C909.723 275.392 914.895 279.1 914.895 284.372V366.681C914.895 372.875 910.966 378.388 905.092 380.392Z" fill="url(#paint17_linear_126_3912)"/>
<path d="M905.092 262.823L577.201 375C572.21 376.704 567.038 372.995 567.038 367.723V330.418C567.038 324.224 570.967 318.711 576.841 316.706L904.731 204.53C909.723 202.826 914.895 206.534 914.895 211.806V249.112C914.895 255.306 910.966 260.818 905.092 262.823Z" fill="url(#paint18_linear_126_3912)"/>
<path d="M909.061 276.976C909.201 277.557 909.281 278.158 909.281 278.78V361.088C909.281 367.282 905.352 372.795 899.479 374.8L571.588 486.976C570.105 487.478 568.621 487.457 567.238 487.117C568.261 491.386 572.791 494.093 577.181 492.589L905.072 380.412C910.925 378.408 914.874 372.895 914.874 366.701V284.393C914.874 280.684 912.308 277.797 909.041 276.976H909.061Z" fill="#009AA2"/>
<path d="M909.281 204.469V243.519C909.281 249.713 905.352 255.226 899.479 257.23L571.588 369.407C570.105 369.908 568.621 369.888 567.238 369.547C567.298 369.828 567.419 370.069 567.519 370.349C567.619 370.63 567.699 370.911 567.84 371.171C567.96 371.432 568.12 371.652 568.281 371.893C568.441 372.133 568.581 372.374 568.762 372.594C568.942 372.795 569.123 372.995 569.323 373.176C569.524 373.376 569.744 373.577 569.964 373.757C570.165 373.917 570.386 374.058 570.586 374.198C570.847 374.358 571.107 374.519 571.388 374.639C571.608 374.739 571.829 374.84 572.049 374.94C572.37 375.06 572.691 375.14 573.012 375.22C573.232 375.26 573.452 375.321 573.673 375.361C574.054 375.421 574.435 375.421 574.836 375.401C575.036 375.401 575.217 375.401 575.417 375.401C575.998 375.341 576.6 375.22 577.181 375.02L905.072 262.843C910.925 260.839 914.874 255.326 914.874 249.132V211.826C914.874 208.198 912.409 205.372 909.261 204.469H909.281Z" fill="#009AA2"/>
<path d="M616.351 429.364L615.93 436.4L611.059 443.176L611.82 429.685L613.685 427.139L616.351 429.384V429.364ZM611.86 443.857L616.772 437.082L625.431 434.095L627.596 435.879L625.111 439.267L611.86 443.857ZM612.201 423.771L613.023 410.281L617.333 413.869L616.912 420.885L613.805 425.175L612.221 423.771H612.201ZM629.38 406.151L626.915 409.559L618.255 412.546L613.965 408.958L627.215 404.367L629.38 406.131V406.151ZM626.895 419.041L629.06 420.825L626.574 424.212L616.772 427.6L614.647 425.796L617.072 422.428L626.875 419.041H626.895ZM630.924 431.208L628.438 434.596L626.313 432.792L626.734 425.776L629.801 421.546L631.365 422.909L630.904 431.228L630.924 431.208ZM631.786 416.996L629.922 419.602L627.256 417.297L627.677 410.281L630.162 406.893L632.287 408.697L631.786 417.016V416.996Z" fill="white"/>
<path d="M658.347 396.148L655.821 399.576L638.803 405.449L636.678 403.625L639.103 400.278L656.122 394.404L658.327 396.148H658.347ZM647.963 429.043L645.538 432.411L643.393 430.627L644.055 419.802L647.122 415.573L648.705 416.936L647.984 429.043H647.963ZM649.086 410.982L647.222 413.588L644.556 411.283L644.796 407.294L647.282 403.906L649.407 405.71L649.086 410.982Z" fill="white"/>
<path d="M661.334 412.546L663.198 410L665.864 412.245L665.463 419.261L662.977 422.649L660.853 420.845L661.334 412.526V412.546ZM666.826 396.75L664.701 394.946L662.216 398.333L661.734 406.652L663.318 408.055L666.425 403.766L666.826 396.75ZM680.056 420.283L675.766 416.695L666.265 419.983L663.839 423.37L665.964 425.175L680.056 420.303V420.283ZM668.089 390.255L665.663 393.603L667.788 395.427L677.29 392.139L682.201 385.364L668.109 390.235L668.089 390.255Z" fill="white"/>
<path d="M702.087 399.737L701.666 406.753L696.795 413.528L697.557 400.037L699.421 397.491L702.087 399.737ZM715.437 408.056L697.577 414.23L702.488 407.454L711.148 404.467L715.437 408.056ZM697.938 394.144L698.739 380.653L703.049 384.241L702.628 391.257L699.521 395.547L697.938 394.144ZM717.562 373.156L712.651 379.931L703.991 382.918L699.702 379.33L717.562 373.156ZM717.121 393.262L716.359 406.753L712.05 403.164L712.471 396.148L715.538 391.919L717.101 393.282L717.121 393.262ZM712.992 387.669L713.413 380.553L718.324 373.858L717.502 387.388L715.638 389.974L712.972 387.669H712.992Z" fill="white"/>
<path d="M720.971 406.151L721.291 400.96L725.882 399.376L725.561 404.568L720.971 406.151Z" fill="white"/>
<path d="M735.564 388.15L735.143 395.166L730.271 401.941L731.033 388.451L732.897 385.905L735.564 388.15ZM748.914 396.469L731.053 402.643L735.965 395.868L744.624 392.881L748.914 396.469ZM731.414 382.557L732.216 369.066L736.526 372.655L736.105 379.671L732.998 383.96L731.414 382.557ZM751.039 361.569L746.128 368.345L737.468 371.332L733.178 367.743L751.039 361.569ZM750.598 381.675L749.836 395.166L745.526 391.578L745.947 384.562L749.014 380.332L750.578 381.695L750.598 381.675ZM746.468 376.082L746.889 368.966L751.821 362.271L750.999 375.802L749.135 378.408L746.468 376.102V376.082Z" fill="white"/>
<path d="M762.445 377.586L761.683 391.096L757.394 387.488L757.815 380.472L760.882 376.243L762.445 377.606V377.586ZM758.316 371.993L758.737 364.957L763.668 358.161L762.846 371.672L760.982 374.278L758.316 371.973V371.993Z" fill="white"/>
<path d="M787.542 383.118L769.682 389.292L774.593 382.517L783.253 379.53L787.542 383.118ZM770.063 369.207L770.864 355.716L775.134 359.324L774.713 366.32L771.646 370.61L770.083 369.207H770.063ZM789.667 348.239L784.756 355.014L776.096 358.001L771.806 354.413L789.667 348.239ZM784.736 364.476L786.901 366.26L784.415 369.648L774.613 373.035L772.488 371.231L774.914 367.864L784.716 364.476H784.736ZM789.246 368.325L788.444 381.815L784.175 378.207L784.596 371.191L787.663 366.961L789.226 368.325H789.246Z" fill="white"/>
<path d="M812.299 374.579L794.438 380.753L799.35 373.977L808.009 370.991L812.299 374.579ZM794.819 360.667L795.621 347.176L799.891 350.784L799.47 357.8L796.403 362.09L794.839 360.687L794.819 360.667ZM814.424 339.699L809.513 346.475L800.853 349.461L796.563 345.873L814.424 339.699ZM809.493 355.936L811.658 357.72L809.172 361.108L799.37 364.496L797.245 362.692L799.67 359.324L809.473 355.936H809.493ZM813.983 359.805L813.221 373.296L808.911 369.708L809.332 362.692L812.399 358.462L813.963 359.825L813.983 359.805ZM809.854 354.212L810.275 347.096L815.206 340.401L814.384 353.932L812.52 356.538L809.854 354.232V354.212Z" fill="white"/>
<path d="M839.161 331.12L834.249 337.895L825.59 340.882L821.3 337.294L839.161 331.12ZM838.72 351.225L837.958 364.736L833.668 361.128L834.089 354.092L837.156 349.862L838.72 351.225ZM834.59 345.633L835.011 338.516L839.922 331.821L839.1 345.352L837.236 347.958L834.57 345.653L834.59 345.633Z" fill="white"/>
<path d="M848.422 349.141L848.001 356.157L843.13 362.932L843.892 349.441L845.756 346.896L848.422 349.141ZM861.772 357.46L843.912 363.634L848.823 356.858L857.483 353.871L861.772 357.46ZM844.273 343.548L845.074 330.057L849.384 333.645L848.963 340.661L845.856 344.951L844.273 343.548ZM863.897 322.56L858.986 329.335L850.326 332.322L846.036 328.734L863.897 322.56ZM858.966 338.797L861.131 340.581L858.645 343.969L848.843 347.357L846.718 345.552L849.144 342.185L858.946 338.797H858.966ZM863.476 342.646L862.674 356.137L858.405 352.528L858.826 345.512L861.893 341.283L863.456 342.646H863.476Z" fill="white"/>
<path d="M682.322 582.856L639.764 509.548C639.444 508.987 639.043 508.526 638.602 508.165C637.118 506.902 630.142 501.891 629.741 501.53C627.175 499.224 622.866 499.926 621.342 503.354L575.237 607.913C574.294 610.038 574.856 612.223 576.199 613.667C577.542 615.11 584.137 619.901 586.162 621.224C587.445 622.066 589.128 622.386 590.832 621.785L679.495 590.513C682.642 589.411 684.006 585.723 682.322 582.836V582.856Z" fill="url(#paint19_linear_126_3912)"/>
<path d="M584.197 614.649L630.303 510.089C632.047 506.12 637.579 505.799 639.764 509.568L682.322 582.876C683.986 585.763 682.643 589.451 679.495 590.554L590.832 621.825C586.442 623.369 582.333 618.939 584.197 614.669V614.649Z" fill="url(#paint20_linear_126_3912)"/>
<path d="M612.121 600.255C610.637 600.776 609.415 600.877 608.412 600.536C607.41 600.195 606.668 599.493 606.127 598.451C605.606 597.409 605.285 596.086 605.165 594.482L608.312 592.417C608.392 593.4 608.553 594.302 608.793 595.164C609.034 596.025 609.415 596.647 609.916 597.048C610.437 597.449 611.139 597.509 612.061 597.188C612.983 596.847 613.684 596.326 614.145 595.584C614.607 594.843 614.827 593.941 614.807 592.878C614.787 591.595 614.506 590.673 613.965 590.072C613.424 589.491 612.742 588.929 611.92 588.428L607.55 585.782C606.688 585.261 606.047 584.599 605.646 583.778C605.225 582.956 605.005 581.833 604.985 580.43C604.944 578.365 605.466 576.561 606.508 575.058C607.57 573.534 609.034 572.452 610.878 571.79C611.9 571.429 612.782 571.249 613.564 571.269C614.346 571.269 614.987 571.51 615.509 571.911C616.03 572.331 616.451 572.953 616.792 573.755C617.112 574.557 617.333 575.559 617.473 576.762L614.446 578.746C614.366 577.844 614.226 577.042 614.025 576.321C613.825 575.619 613.484 575.098 613.003 574.797C612.522 574.496 611.84 574.496 610.958 574.797C610.076 575.118 609.375 575.619 608.894 576.321C608.412 577.022 608.172 577.884 608.192 578.906C608.192 579.768 608.352 580.43 608.633 580.891C608.914 581.352 609.334 581.773 609.936 582.134L614.346 584.76C615.328 585.341 616.21 586.143 616.972 587.165C617.734 588.188 618.135 589.591 618.155 591.355C618.175 592.738 617.934 594.041 617.413 595.244C616.892 596.446 616.19 597.469 615.288 598.331C614.386 599.193 613.324 599.834 612.121 600.255Z" fill="white"/>
<path d="M621.042 596.747L620.561 568.543L630.503 564.995L630.543 567.922L624.169 570.187L624.329 579.508L629.481 577.664L629.521 580.45L624.369 582.294L624.55 592.638L630.984 590.353L631.024 593.179L621.022 596.747H621.042Z" fill="white"/>
<path d="M633.931 592.157L633.45 563.952L635.896 563.09L643.493 579.227L643.172 560.505L646.159 559.442L646.64 587.646L644.355 588.468L636.658 571.85L636.978 591.094L633.931 592.177V592.157Z" fill="white"/>
<path d="M650.649 586.203L650.168 557.999L655.741 556.014C657.645 555.333 659.148 555.112 660.271 555.373C661.394 555.613 662.195 556.295 662.697 557.398C663.198 558.5 663.458 560.003 663.498 561.908L663.679 572.271C663.719 574.276 663.498 576.04 663.057 577.584C662.596 579.127 661.855 580.43 660.792 581.512C659.73 582.595 658.307 583.457 656.522 584.098L650.669 586.183L650.649 586.203ZM654.177 582.114L656.202 581.392C657.505 580.931 658.427 580.31 658.968 579.568C659.509 578.806 659.83 577.884 659.93 576.782C660.03 575.679 660.071 574.356 660.03 572.853L659.87 563.692C659.85 562.229 659.75 561.086 659.549 560.224C659.369 559.382 658.988 558.841 658.407 558.64C657.825 558.42 656.923 558.54 655.701 558.981L653.776 559.663L654.157 582.114H654.177Z" fill="white"/>
<path d="M913.792 419.522C913.752 416.495 912.249 413.949 910.044 412.386C908.48 411.283 902.587 406.612 900.722 405.41C898.557 404.006 895.771 403.545 893.045 404.447L826.031 426.939C822.343 428.182 819.857 431.67 819.937 435.559L821.04 505.619C821.08 508.185 822.183 510.43 823.886 512.014C825.59 513.597 832.005 518.188 833.609 519.371C835.814 521.014 838.781 521.656 841.707 520.714L908.721 498.984C912.469 497.781 914.975 494.253 914.915 490.324L913.812 419.502L913.792 419.522Z" fill="url(#paint21_linear_126_3912)"/>
<path d="M908.7 499.004L841.686 520.734C835.953 522.598 830.06 518.368 829.98 512.354L828.877 442.294C828.817 438.405 831.283 434.897 834.971 433.674L901.984 411.183C907.738 409.258 913.691 413.468 913.792 419.522L914.894 490.344C914.954 494.273 912.448 497.781 908.7 499.004Z" fill="url(#paint22_linear_126_3912)"/>
<path d="M845.936 489.662C844.453 490.183 843.23 490.284 842.228 489.943C841.225 489.602 840.464 488.9 839.943 487.838C839.421 486.796 839.101 485.473 838.98 483.869L842.128 481.804C842.208 482.787 842.368 483.689 842.609 484.531C842.849 485.372 843.23 486.014 843.731 486.415C844.252 486.816 844.954 486.876 845.876 486.555C846.798 486.214 847.5 485.693 847.961 484.951C848.422 484.21 848.642 483.308 848.642 482.245C848.622 480.962 848.342 480.04 847.8 479.439C847.259 478.858 846.578 478.296 845.776 477.795L841.406 475.149C840.544 474.628 839.902 473.966 839.502 473.145C839.081 472.323 838.86 471.2 838.84 469.797C838.8 467.732 839.321 465.948 840.384 464.425C841.446 462.901 842.889 461.819 844.754 461.157C845.776 460.796 846.658 460.616 847.44 460.636C848.221 460.636 848.863 460.877 849.384 461.278C849.905 461.698 850.326 462.3 850.667 463.122C850.988 463.924 851.208 464.926 851.349 466.129L848.322 468.113C848.241 467.211 848.101 466.409 847.901 465.688C847.7 464.986 847.359 464.465 846.878 464.164C846.397 463.863 845.716 463.863 844.834 464.164C843.952 464.485 843.25 464.986 842.769 465.688C842.288 466.389 842.047 467.251 842.067 468.273C842.067 469.135 842.228 469.797 842.488 470.258C842.769 470.719 843.19 471.14 843.791 471.501L848.201 474.127C849.184 474.708 850.066 475.51 850.827 476.532C851.589 477.555 851.99 478.958 852.01 480.702C852.03 482.085 851.79 483.388 851.268 484.591C850.767 485.793 850.046 486.816 849.144 487.678C848.242 488.54 847.179 489.181 845.976 489.602L845.936 489.662Z" fill="white"/>
<path d="M858.185 484.972L853.534 458.271L856.521 457.208L859.608 476.492L862.715 455.104L865.241 454.202L869.07 473.225L871.415 451.896L874.322 450.854L870.673 480.522L868.067 481.444L864.138 461.839L860.871 484.01L858.145 484.972H858.185Z" fill="white"/>
<path d="M875.604 478.778L880.576 448.649L884.024 447.426L889.977 473.666L886.59 474.869L885.307 468.194L880.075 470.058L878.952 477.595L875.604 478.798V478.778ZM880.496 467.051L884.765 465.528L882.4 453.58L880.496 467.051Z" fill="white"/>
<path d="M892.584 472.724L892.103 444.519L898.477 442.254C900.021 441.713 901.263 441.573 902.186 441.853C903.108 442.154 903.789 442.795 904.23 443.798C904.671 444.8 904.912 446.143 904.932 447.787C904.952 449.27 904.751 450.653 904.29 451.896C903.829 453.159 903.148 454.241 902.226 455.164C901.303 456.086 900.161 456.787 898.758 457.288L895.931 458.291L896.152 471.421L892.584 472.704V472.724ZM895.891 455.504L897.535 454.923C898.577 454.562 899.379 454.141 899.96 453.68C900.542 453.219 900.963 452.618 901.203 451.896C901.444 451.174 901.564 450.232 901.544 449.07C901.524 447.727 901.424 446.724 901.223 446.063C901.023 445.401 900.642 445.041 900.081 444.96C899.499 444.88 898.617 445.061 897.415 445.502L895.731 446.103L895.891 455.524V455.504Z" fill="white"/>
<path d="M694.109 294.556V311.515C694.109 314.241 696.796 316.145 699.361 315.263L896.132 247.949C899.319 246.867 901.444 243.88 901.444 240.512V223.553C901.444 220.827 898.758 218.923 896.192 219.805L699.422 287.119C696.234 288.201 694.109 291.188 694.109 294.556Z" fill="url(#paint23_linear_126_3912)"/>
<path d="M675.847 298.605L671.698 297.783H671.658H671.577C671.337 297.743 671.096 297.723 670.856 297.723C665.985 297.723 662.056 304.819 662.056 313.559C662.056 321.798 665.544 328.553 670.014 329.315L674.304 330.157C674.584 330.197 674.865 330.217 675.166 330.217C680.037 330.217 683.966 323.121 683.966 314.381C683.966 305.641 680.398 299.247 675.867 298.605H675.847Z" fill="url(#paint24_linear_126_3912)"/>
<path d="M675.146 330.217C680.006 330.217 683.946 323.127 683.946 314.381C683.946 305.635 680.006 298.545 675.146 298.545C670.286 298.545 666.346 305.635 666.346 314.381C666.346 323.127 670.286 330.217 675.146 330.217Z" fill="url(#paint25_linear_126_3912)"/>
<path d="M639.905 310.933L635.755 310.111H635.715H635.635C635.394 310.071 635.154 310.051 634.913 310.051C630.042 310.051 626.113 317.147 626.113 325.887C626.113 334.126 629.601 340.882 634.071 341.643L638.361 342.485C638.642 342.525 638.923 342.545 639.223 342.545C644.094 342.545 648.023 335.449 648.023 326.709C648.023 317.969 644.455 311.575 639.925 310.933H639.905Z" fill="url(#paint26_linear_126_3912)"/>
<path d="M639.203 342.545C644.063 342.545 648.003 335.455 648.003 326.709C648.003 317.963 644.063 310.873 639.203 310.873C634.343 310.873 630.403 317.963 630.403 326.709C630.403 335.455 634.343 342.545 639.203 342.545Z" fill="url(#paint27_linear_126_3912)"/>
<path d="M603.943 322.239L599.793 321.417H599.753H599.673C599.433 321.377 599.192 321.357 598.951 321.357C594.08 321.357 590.151 328.453 590.151 337.193C590.151 345.432 593.639 352.187 598.11 352.949L602.399 353.791C602.68 353.831 602.961 353.851 603.261 353.851C608.132 353.851 612.061 346.755 612.061 338.015C612.061 329.275 608.493 322.881 603.963 322.239H603.943Z" fill="url(#paint28_linear_126_3912)"/>
<path d="M603.241 353.851C608.102 353.851 612.042 346.761 612.042 338.015C612.042 329.269 608.102 322.179 603.241 322.179C598.381 322.179 594.441 329.269 594.441 338.015C594.441 346.761 598.381 353.851 603.241 353.851Z" fill="url(#paint29_linear_126_3912)"/>
<path d="M544.065 336.411C546.733 336.411 548.896 332.507 548.896 327.692C548.896 322.876 546.733 318.972 544.065 318.972C541.397 318.972 539.234 322.876 539.234 327.692C539.234 332.507 541.397 336.411 544.065 336.411Z" stroke="#009AA2" stroke-miterlimit="10"/>
<path d="M937.867 201.823C940.535 201.823 942.698 197.919 942.698 193.103C942.698 188.288 940.535 184.384 937.867 184.384C935.199 184.384 933.036 188.288 933.036 193.103C933.036 197.919 935.199 201.823 937.867 201.823Z" stroke="#009AA2" stroke-miterlimit="10"/>
<path d="M544.065 733.541C546.733 733.541 548.896 729.637 548.896 724.821C548.896 720.005 546.733 716.101 544.065 716.101C541.397 716.101 539.234 720.005 539.234 724.821C539.234 729.637 541.397 733.541 544.065 733.541Z" stroke="#009AA2" stroke-miterlimit="10"/>
<path d="M937.867 598.973C940.535 598.973 942.698 595.069 942.698 590.253C942.698 585.437 940.535 581.533 937.867 581.533C935.199 581.533 933.036 585.437 933.036 590.253C933.036 595.069 935.199 598.973 937.867 598.973Z" stroke="#009AA2" stroke-miterlimit="10"/>
<path d="M801.956 544.588H802.036L790.189 538.194L790.229 538.274C783.273 534.285 774.814 532.882 765.633 535.026C742.059 540.519 722.955 566.719 722.955 593.54C722.955 609.697 729.931 622.346 740.616 628.681H740.575L741.878 629.403C742.119 629.523 742.36 629.663 742.6 629.783L752.663 635.236L752.583 635.136C759.519 639.105 767.958 640.468 777.099 638.343C800.673 632.85 819.777 606.65 819.777 579.829C819.777 563.592 812.741 550.903 801.956 544.608V544.588Z" fill="url(#paint30_linear_126_3912)"/>
<path d="M812.921 607.638C825.696 582.128 819.994 553.407 800.186 543.487C780.378 533.568 753.964 546.207 741.19 571.717C728.415 597.227 734.117 625.948 753.925 635.868C773.734 645.787 800.147 633.148 812.921 607.638Z" fill="url(#paint31_linear_126_3912)"/>
<path d="M739.713 615.27L739.332 592.338L743.542 590.834C744.925 590.333 746.087 590.132 747.01 590.213C747.932 590.293 748.613 590.694 749.054 591.436C749.515 592.177 749.756 593.28 749.776 594.723C749.776 595.605 749.716 596.447 749.555 597.229C749.395 598.01 749.134 598.732 748.753 599.354C748.393 599.995 747.892 600.536 747.27 600.977L750.417 611.421L747.611 612.423L744.704 602.641L742.439 603.443L742.619 614.207L739.713 615.25V615.27ZM742.399 601.178L743.502 600.777C744.323 600.476 744.985 600.135 745.506 599.714C746.007 599.313 746.388 598.772 746.629 598.151C746.869 597.509 746.969 596.707 746.949 595.725C746.929 594.382 746.689 593.5 746.228 593.059C745.767 592.618 744.885 592.638 743.562 593.119L742.279 593.58L742.399 601.178Z" fill="white"/>
<path d="M753.083 610.499L752.702 587.566L760.801 584.68L760.841 587.065L755.669 588.909L755.789 596.507L759.979 595.003L760.019 597.268L755.829 598.772L755.97 607.191L761.202 605.327L761.242 607.612L753.103 610.519L753.083 610.499Z" fill="white"/>
<path d="M768.799 605.166C767.316 605.688 766.173 605.768 765.351 605.367C764.529 604.986 763.948 604.264 763.607 603.222C763.266 602.18 763.086 600.957 763.066 599.554L762.926 591.455C762.906 589.912 763.046 588.508 763.327 587.225C763.627 585.963 764.169 584.86 764.99 583.938C765.792 583.016 766.935 582.294 768.418 581.773C769.721 581.312 770.764 581.192 771.545 581.452C772.307 581.713 772.888 582.274 773.229 583.136C773.57 583.998 773.77 585.121 773.791 586.504L773.831 588.308L771.064 589.29V587.666C771.024 586.825 770.964 586.083 770.884 585.461C770.804 584.84 770.583 584.419 770.222 584.179C769.882 583.938 769.3 583.978 768.478 584.259C767.656 584.559 767.055 584.96 766.674 585.481C766.293 586.003 766.073 586.644 765.973 587.386C765.872 588.127 765.832 588.989 765.852 589.932L766.013 599.032C766.013 600.175 766.133 601.057 766.313 601.678C766.494 602.28 766.795 602.661 767.195 602.801C767.596 602.941 768.138 602.901 768.799 602.661C769.581 602.38 770.142 601.979 770.483 601.478C770.824 600.977 771.024 600.355 771.104 599.654C771.185 598.952 771.205 598.13 771.185 597.228V595.524L773.911 594.542V596.246C773.971 597.649 773.831 598.932 773.53 600.095C773.249 601.277 772.728 602.3 771.966 603.162C771.225 604.024 770.162 604.705 768.779 605.186L768.799 605.166Z" fill="white"/>
<path d="M776.838 602.039L776.457 579.107L784.556 576.22L784.596 578.606L779.424 580.45L779.544 588.047L783.734 586.544L783.774 588.809L779.584 590.313L779.724 598.732L784.956 596.868L784.997 599.153L776.858 602.059L776.838 602.039Z" fill="white"/>
<path d="M787.482 598.251L787.102 575.319L789.968 574.296L790.349 597.229L787.482 598.251Z" fill="white"/>
<path d="M797.345 594.743L792.293 573.474L795.019 572.492L798.607 588.228L801.474 570.207L804.12 569.265L799.89 593.841L797.345 594.743Z" fill="white"/>
<path d="M806.726 591.395L806.345 568.463L814.443 565.576L814.483 567.962L809.312 569.806L809.432 577.403L813.621 575.9L813.661 578.165L809.472 579.668L809.612 588.087L814.844 586.223L814.884 588.508L806.746 591.415L806.726 591.395Z" fill="white"/>
</g>
<defs>
<radialGradient id="paint0_radial_126_3912" cx="0" cy="0" r="1" gradientUnits="userSpaceOnUse" gradientTransform="translate(532.038 384.562) scale(496.036 496.036)">
<stop stop-color="#009AA2"/>
<stop offset="0.2" stop-color="#0DAAB2"/>
<stop offset="0.73" stop-color="#2FD5DA"/>
<stop offset="1" stop-color="#3CE6EA"/>
</radialGradient>
<linearGradient id="paint1_linear_126_3912" x1="498.581" y1="363.373" x2="117.088" y2="744.867" gradientUnits="userSpaceOnUse">
<stop stop-color="#009AA2"/>
<stop offset="0.2" stop-color="#0DAAB2"/>
<stop offset="0.73" stop-color="#2FD5DA"/>
<stop offset="1" stop-color="#3CE6EA"/>
</linearGradient>
<linearGradient id="paint2_linear_126_3912" x1="718.986" y1="429.164" x2="718.986" y2="44.2828" gradientUnits="userSpaceOnUse">
<stop stop-color="#3CE6EA"/>
<stop offset="0.28" stop-color="#6BE9ED"/>
<stop offset="0.92" stop-color="#E1F2F5"/>
<stop offset="1" stop-color="#F0F4F6"/>
</linearGradient>
<linearGradient id="paint3_linear_126_3912" x1="718.986" y1="528.712" x2="718.986" y2="143.811" gradientUnits="userSpaceOnUse">
<stop stop-color="#3CE6EA"/>
<stop offset="0.28" stop-color="#6BE9ED"/>
<stop offset="0.91" stop-color="#E1F2F5"/>
<stop offset="0.98" stop-color="#F0F4F6"/>
</linearGradient>
<linearGradient id="paint4_linear_126_3912" x1="718.986" y1="147.239" x2="718.986" y2="85.8179" gradientUnits="userSpaceOnUse">
<stop stop-color="#3CE6EA"/>
<stop offset="0.28" stop-color="#6BE9ED"/>
<stop offset="0.91" stop-color="#E1F2F5"/>
<stop offset="0.98" stop-color="#F0F4F6"/>
</linearGradient>
<linearGradient id="paint5_linear_126_3912" x1="293.632" y1="222.731" x2="293.632" y2="121.78" gradientUnits="userSpaceOnUse">
<stop stop-color="#3CE6EA"/>
<stop offset="0.28" stop-color="#6BE9ED"/>
<stop offset="0.91" stop-color="#E1F2F5"/>
<stop offset="0.98" stop-color="#F0F4F6"/>
</linearGradient>
<linearGradient id="paint6_linear_126_3912" x1="424.031" y1="745.228" x2="278.437" y2="319.473" gradientUnits="userSpaceOnUse">
<stop stop-color="#009AA2"/>
<stop offset="1" stop-color="#3CE6EA"/>
</linearGradient>
<linearGradient id="paint7_linear_126_3912" x1="81.0653" y1="368.205" x2="81.0653" y2="45.3253" gradientUnits="userSpaceOnUse">
<stop stop-color="#3CE6EA"/>
<stop offset="0.28" stop-color="#6BE9ED"/>
<stop offset="0.91" stop-color="#E1F2F5"/>
<stop offset="0.98" stop-color="#F0F4F6"/>
</linearGradient>
<linearGradient id="paint8_linear_126_3912" x1="313.297" y1="422.028" x2="233.515" y2="185.787" gradientUnits="userSpaceOnUse">
<stop stop-color="#3CE6EA"/>
<stop offset="0.28" stop-color="#6BE9ED"/>
<stop offset="0.92" stop-color="#E1F2F5"/>
<stop offset="1" stop-color="#F0F4F6"/>
</linearGradient>
<linearGradient id="paint9_linear_126_3912" x1="305.92" y1="185.266" x2="293.652" y2="147.078" gradientUnits="userSpaceOnUse">
<stop stop-color="#3CE6EA"/>
<stop offset="0.28" stop-color="#6BE9ED"/>
<stop offset="0.91" stop-color="#E1F2F5"/>
<stop offset="0.98" stop-color="#F0F4F6"/>
</linearGradient>
<radialGradient id="paint10_radial_126_3912" cx="0" cy="0" r="1" gradientUnits="userSpaceOnUse" gradientTransform="translate(412.494 171.984) scale(32.3137)">
<stop stop-color="#3CE6EA"/>
<stop offset="0.28" stop-color="#6BE9ED"/>
<stop offset="0.91" stop-color="#E1F2F5"/>
<stop offset="0.98" stop-color="#F0F4F6"/>
</radialGradient>
<linearGradient id="paint11_linear_126_3912" x1="298.443" y1="660.915" x2="298.443" y2="286.096" gradientUnits="userSpaceOnUse">
<stop stop-color="#3CE6EA"/>
<stop offset="0.28" stop-color="#6BE9ED"/>
<stop offset="0.91" stop-color="#E1F2F5"/>
<stop offset="0.98" stop-color="#F0F4F6"/>
</linearGradient>
<linearGradient id="paint12_linear_126_3912" x1="298.443" y1="660.915" x2="298.443" y2="286.096" gradientUnits="userSpaceOnUse">
<stop stop-color="#3CE6EA"/>
<stop offset="0.28" stop-color="#6BE9ED"/>
<stop offset="0.91" stop-color="#E1F2F5"/>
<stop offset="0.98" stop-color="#F0F4F6"/>
</linearGradient>
<linearGradient id="paint13_linear_126_3912" x1="298.443" y1="291.328" x2="298.443" y2="229.908" gradientUnits="userSpaceOnUse">
<stop stop-color="#3CE6EA"/>
<stop offset="0.28" stop-color="#6BE9ED"/>
<stop offset="0.91" stop-color="#E1F2F5"/>
<stop offset="0.98" stop-color="#F0F4F6"/>
</linearGradient>
<linearGradient id="paint14_linear_126_3912" x1="727.004" y1="447.245" x2="636.357" y2="235.741" gradientUnits="userSpaceOnUse">
<stop stop-color="#009AA2"/>
<stop offset="0.35" stop-color="#15B5BB"/>
<stop offset="1" stop-color="#3CE6EA"/>
</linearGradient>
<linearGradient id="paint15_linear_126_3912" x1="822.402" y1="696.957" x2="676.809" y2="271.202" gradientUnits="userSpaceOnUse">
<stop stop-color="#009AA2"/>
<stop offset="1" stop-color="#3CE6EA"/>
</linearGradient>
<linearGradient id="paint16_linear_126_3912" x1="518.567" y1="453.861" x2="518.567" y2="128.977" gradientUnits="userSpaceOnUse">
<stop stop-color="#009AA2"/>
<stop offset="0.35" stop-color="#15B5BB"/>
<stop offset="1" stop-color="#3CE6EA"/>
</linearGradient>
<linearGradient id="paint17_linear_126_3912" x1="757.995" y1="504.416" x2="732.216" y2="323.322" gradientUnits="userSpaceOnUse">
<stop stop-color="#4C2BAC"/>
<stop offset="0.13" stop-color="#5B38BA"/>
<stop offset="0.51" stop-color="#8159DF"/>
<stop offset="0.81" stop-color="#996DF6"/>
<stop offset="1" stop-color="#A275FF"/>
</linearGradient>
<linearGradient id="paint18_linear_126_3912" x1="754.608" y1="334.227" x2="723.757" y2="233.656" gradientUnits="userSpaceOnUse">
<stop stop-color="#009AA2"/>
<stop offset="0.32" stop-color="#10AEB5"/>
<stop offset="0.98" stop-color="#3AE4E8"/>
<stop offset="1" stop-color="#3CE6EA"/>
</linearGradient>
<linearGradient id="paint19_linear_126_3912" x1="628.919" y1="560.304" x2="628.919" y2="471.782" gradientUnits="userSpaceOnUse">
<stop stop-color="#F98314"/>
<stop offset="0.41" stop-color="#FB972F"/>
<stop offset="1" stop-color="#FFB353"/>
</linearGradient>
<linearGradient id="paint20_linear_126_3912" x1="633.39" y1="622.888" x2="633.39" y2="491.527" gradientUnits="userSpaceOnUse">
<stop stop-color="#F98314"/>
<stop offset="0.41" stop-color="#FB972F"/>
<stop offset="1" stop-color="#FFB353"/>
</linearGradient>
<linearGradient id="paint21_linear_126_3912" x1="864.84" y1="459.173" x2="806.246" y2="381.655" gradientUnits="userSpaceOnUse">
<stop stop-color="#4C2BAC"/>
<stop offset="1" stop-color="#A275FF"/>
</linearGradient>
<linearGradient id="paint22_linear_126_3912" x1="871.876" y1="514.96" x2="871.876" y2="406.252" gradientUnits="userSpaceOnUse">
<stop stop-color="#4C2BAC"/>
<stop offset="0.13" stop-color="#5B38BA"/>
<stop offset="0.51" stop-color="#8159DF"/>
<stop offset="0.81" stop-color="#996DF6"/>
<stop offset="1" stop-color="#A275FF"/>
</linearGradient>
<linearGradient id="paint23_linear_126_3912" x1="810.877" y1="318.771" x2="786.441" y2="223.072" gradientUnits="userSpaceOnUse">
<stop stop-color="#F98314"/>
<stop offset="0.41" stop-color="#FB972F"/>
<stop offset="1" stop-color="#FFB353"/>
</linearGradient>
<linearGradient id="paint24_linear_126_3912" x1="673.021" y1="313.218" x2="673.021" y2="289.705" gradientUnits="userSpaceOnUse">
<stop stop-color="#3CE6EA"/>
<stop offset="0.28" stop-color="#6BE9ED"/>
<stop offset="0.91" stop-color="#E1F2F5"/>
<stop offset="0.98" stop-color="#F0F4F6"/>
</linearGradient>
<linearGradient id="paint25_linear_126_3912" x1="675.146" y1="335.77" x2="675.146" y2="307.586" gradientUnits="userSpaceOnUse">
<stop stop-color="#3CE6EA"/>
<stop offset="0.28" stop-color="#6BE9ED"/>
<stop offset="0.91" stop-color="#E1F2F5"/>
<stop offset="0.98" stop-color="#F0F4F6"/>
</linearGradient>
<linearGradient id="paint26_linear_126_3912" x1="637.058" y1="325.547" x2="637.058" y2="302.033" gradientUnits="userSpaceOnUse">
<stop stop-color="#3CE6EA"/>
<stop offset="0.28" stop-color="#6BE9ED"/>
<stop offset="0.91" stop-color="#E1F2F5"/>
<stop offset="0.98" stop-color="#F0F4F6"/>
</linearGradient>
<linearGradient id="paint27_linear_126_3912" x1="639.203" y1="348.098" x2="639.203" y2="319.914" gradientUnits="userSpaceOnUse">
<stop stop-color="#3CE6EA"/>
<stop offset="0.28" stop-color="#6BE9ED"/>
<stop offset="0.91" stop-color="#E1F2F5"/>
<stop offset="0.98" stop-color="#F0F4F6"/>
</linearGradient>
<linearGradient id="paint28_linear_126_3912" x1="601.116" y1="336.853" x2="601.116" y2="313.339" gradientUnits="userSpaceOnUse">
<stop stop-color="#3CE6EA"/>
<stop offset="0.28" stop-color="#6BE9ED"/>
<stop offset="0.91" stop-color="#E1F2F5"/>
<stop offset="0.98" stop-color="#F0F4F6"/>
</linearGradient>
<linearGradient id="paint29_linear_126_3912" x1="603.241" y1="359.404" x2="603.241" y2="331.22" gradientUnits="userSpaceOnUse">
<stop stop-color="#3CE6EA"/>
<stop offset="0.28" stop-color="#6BE9ED"/>
<stop offset="0.91" stop-color="#E1F2F5"/>
<stop offset="0.98" stop-color="#F0F4F6"/>
</linearGradient>
<linearGradient id="paint30_linear_126_3912" x1="771.366" y1="611.081" x2="771.366" y2="533.242" gradientUnits="userSpaceOnUse">
<stop stop-color="#DB4B3A"/>
<stop offset="1" stop-color="#FF7B64"/>
</linearGradient>
<linearGradient id="paint31_linear_126_3912" x1="776.998" y1="658.058" x2="776.998" y2="584.751" gradientUnits="userSpaceOnUse">
<stop stop-color="#DB4B3A"/>
<stop offset="1" stop-color="#FF7B64"/>
</linearGradient>
<clipPath id="clip0_126_3912">
<rect width="1000" height="842" fill="white"/>
</clipPath>
</defs>
</svg>
