<svg width="1000" height="944" viewBox="0 0 1000 944" fill="none" xmlns="http://www.w3.org/2000/svg">
<g clip-path="url(#clip0_126_4818)">
<g opacity="0.5">
<path d="M866.32 433.379C866.32 433.379 759.91 522.772 578.298 533.115C396.685 543.457 102.389 599.318 105.736 733.247C109.084 867.177 376.381 727.034 485.998 702.02C595.615 677.026 839.462 637.34 919.976 550.372C1000.49 463.404 1019.51 384.794 980.367 374.332C941.222 363.869 924.446 376.516 866.28 433.379H866.32Z" fill="url(#paint0_linear_126_4818)"/>
<path d="M793.623 293.397C793.623 293.397 771.776 402.352 682.764 433.379C593.751 464.426 409.874 473.306 359.605 505.816C309.337 538.346 66.612 686.045 38.6516 601.002C10.6912 515.958 128.847 412.594 386.904 405.218C644.962 397.843 671.72 283.295 722.049 241.926C772.378 200.536 809.498 247.518 793.623 293.377V293.397Z" fill="url(#paint1_linear_126_4818)"/>
<path d="M838.36 279.467C837.317 284.338 841.707 323.041 804.807 352.405C767.887 381.768 716.456 417.566 734.335 443.281C752.233 468.997 892.036 410.851 931.18 337.593C970.325 264.334 970.325 201.098 923.343 200.276C876.362 199.454 853.993 206.269 838.34 279.467H838.36Z" fill="url(#paint2_linear_126_4818)"/>
<path d="M583.53 80.8778C587.278 73.1211 669.475 -36.556 773.5 12.6504C877.525 61.8567 752.795 211.139 680.138 245.293C607.481 279.447 639.851 344.428 562.404 344.067C484.936 343.726 547.933 154.697 583.55 80.8778H583.53Z" fill="url(#paint3_linear_126_4818)"/>
<path d="M862.973 105.491C862.973 105.491 815.591 106.614 797.331 159.187C779.092 211.761 779.092 223.466 802.563 225.992C826.034 228.517 897.628 196.087 895.403 153.595C893.159 111.083 882.556 101.102 862.973 105.491Z" fill="url(#paint4_linear_126_4818)"/>
<path d="M469.262 219.578C465.915 220.701 398.69 267.682 348.401 262.09C298.133 256.498 166.147 291.734 168.392 352.405C170.637 413.076 215.734 420.673 283.22 401.892C350.706 383.112 361.289 402.714 403.52 374.333C445.772 345.971 469.262 219.578 469.262 219.578Z" fill="url(#paint5_linear_126_4818)"/>
<path d="M227.66 263.192C226.177 266.399 167.27 291.153 151.596 337.573C135.942 383.993 115.798 493.61 44.2237 465.63C-27.351 437.669 -6.10505 342.604 65.4697 303.459C137.044 264.315 148.229 257.6 179.556 250.885C210.884 244.171 242.172 231.864 227.66 263.192Z" fill="url(#paint6_linear_126_4818)"/>
<path d="M386.884 79.7553C383.838 85.0266 362.251 121.946 291.037 118.74C219.823 115.533 138.187 88.6946 100.145 146.86C62.1223 205.026 76.3531 229.619 115.658 237.456C154.963 245.293 404.382 207.251 469.242 142.391C534.123 77.5104 556.491 20.4671 499.448 21.5895C442.404 22.712 406.286 46.2027 386.884 79.7553Z" fill="url(#paint7_linear_126_4818)"/>
<path d="M823.83 653.556C822.346 654.117 763.579 679.412 708.621 674.18C653.662 668.949 507.305 685.986 494.999 721.783C482.672 757.58 555.951 737.437 624.459 760.928C692.967 784.419 805.931 792.235 856.26 744.151C906.589 696.047 897.649 625.595 823.83 653.556Z" fill="url(#paint8_linear_126_4818)"/>
<path d="M936.532 578.654C933.104 578.894 901.857 573.042 891.795 598.016C881.733 622.99 890.673 660.531 924.225 660.21C957.778 659.889 986.861 640.768 983.513 615.654C980.166 590.54 961.726 576.81 936.532 578.634V578.654Z" fill="url(#paint9_linear_126_4818)"/>
</g>
<path d="M500.029 943.723C732.856 943.723 921.6 915.824 921.6 881.408C921.6 846.993 732.856 819.094 500.029 819.094C267.201 819.094 78.4575 846.993 78.4575 881.408C78.4575 915.824 267.201 943.723 500.029 943.723Z" fill="url(#paint10_radial_126_4818)"/>
<path opacity="0.5" d="M500.029 878.121C610.326 878.121 699.74 864.903 699.74 848.597C699.74 832.292 610.326 819.073 500.029 819.073C389.731 819.073 300.317 832.292 300.317 848.597C300.317 864.903 389.731 878.121 500.029 878.121Z" fill="#0699A0"/>
<path d="M571.683 519.065C571.683 519.065 550.758 508.743 545.928 537.465C545.928 537.465 558.896 608.077 638.368 656.382C638.368 656.382 671.359 642.592 679.697 598.517C679.697 598.517 612.512 561.797 571.683 519.065Z" fill="url(#paint11_linear_126_4818)"/>
<path d="M679.697 598.496C671.359 642.572 638.368 656.361 638.368 656.361C632.515 652.814 627.064 649.126 621.933 645.358C647.668 623.791 658.091 599.458 661.819 588.034C672.682 594.648 679.697 598.496 679.697 598.496Z" fill="url(#paint12_linear_126_4818)"/>
<path d="M418.412 519.065C418.412 519.065 439.337 508.743 444.168 537.465C444.168 537.465 431.2 608.077 351.728 656.382C351.728 656.382 318.736 642.592 310.398 598.517C310.398 598.517 377.584 561.797 418.412 519.065Z" fill="url(#paint13_linear_126_4818)"/>
<path d="M310.398 598.496C318.736 642.572 351.728 656.361 351.728 656.361C357.58 652.814 363.032 649.126 368.163 645.358C342.428 623.791 332.005 599.458 328.277 588.034C317.414 594.648 310.398 598.496 310.398 598.496Z" fill="url(#paint14_linear_126_4818)"/>
<path d="M570.361 513.894L495.178 520.308L419.996 513.894C419.996 513.894 392.456 669.35 495.178 669.35C597.9 669.35 570.361 513.894 570.361 513.894Z" fill="url(#paint15_linear_126_4818)"/>
<path d="M495.157 635.036C473.651 635.036 452.565 634.334 432.041 632.991C443.486 654.017 462.908 669.37 495.157 669.37C527.407 669.37 546.829 654.037 558.274 632.991C537.749 634.334 516.664 635.036 495.157 635.036Z" fill="url(#paint16_linear_126_4818)"/>
<path d="M495.159 612.887C516.678 612.887 534.123 595.443 534.123 573.923C534.123 552.404 516.678 534.959 495.159 534.959C473.639 534.959 456.194 552.404 456.194 573.923C456.194 595.443 473.639 612.887 495.159 612.887Z" fill="white"/>
<path d="M502.655 549.992C496.842 549.992 486.66 556.907 480.106 566.026C474.394 573.943 472.249 581.039 471.327 588.174C470.505 593.225 474.654 597.875 479.765 597.875H499.989C501.432 597.875 502.615 596.713 502.635 595.27C502.635 593.826 501.472 592.644 500.009 592.644H479.745C477.741 592.644 476.197 590.88 476.478 588.896C477.58 581.099 479.765 575.427 484.355 569.033C491.45 559.472 498.506 556.285 501.091 555.443C503.637 554.602 505.401 555.784 505.401 558.47C506.743 558.049 508.708 557.608 510.592 557.568C510.151 553.339 507.184 549.992 502.635 549.992H502.655Z" fill="#00BE65"/>
<path d="M509.71 585.368C513.338 581.82 519.11 572.881 519.11 565.184C519.11 562.479 517.887 557.468 511.153 557.468C498.606 557.468 482.791 572.42 490.428 579.716C491.37 580.578 492.913 581.48 495.319 581.48C502.294 581.48 508.607 573.322 510.371 562.659C510.712 562.619 511.033 562.619 511.373 562.619C513.037 562.619 513.879 563.22 513.879 565.144C513.879 570.295 509.85 578.593 504.218 583.444C502.434 585.047 503.576 586.992 504.458 587.613C507.485 590.078 509.509 592.744 510.251 595.73C510.592 596.953 511.574 597.835 512.816 597.835C514.64 597.835 515.362 596.191 515.362 595.049C515.362 592.463 512.456 587.934 509.71 585.348V585.368ZM495.319 576.369C490.428 576.369 496.521 567.67 504.759 564.122C502.594 572.56 498.125 576.369 495.319 576.369Z" fill="#00CDD6"/>
<path d="M495.318 576.369V581.5C502.293 581.5 508.607 573.342 510.371 562.679C508.447 562.82 506.563 563.341 504.759 564.122C502.594 572.561 498.124 576.369 495.318 576.369Z" fill="url(#paint17_linear_126_4818)"/>
<path d="M631.493 629.443L500.75 652.493C500.75 652.493 483.734 723.727 515.041 774.617C515.041 774.617 547.151 764.515 557.573 739.16L652.939 698.192C652.939 698.192 648.189 667.065 631.493 629.443Z" fill="url(#paint18_linear_126_4818)"/>
<path d="M652.939 698.192C652.939 698.192 658.05 662.876 631.493 629.443C631.493 629.443 614.236 665.161 652.939 698.192Z" fill="url(#paint19_linear_126_4818)"/>
<path d="M500.75 652.493C500.75 652.493 483.734 723.727 515.041 774.617C515.041 774.617 547.151 764.515 557.573 739.16C544.665 674.821 500.75 652.493 500.75 652.493Z" fill="url(#paint20_linear_126_4818)"/>
<path d="M683.525 651.01C683.465 650.769 683.405 650.529 683.345 650.288C680.378 639.184 668.373 633.131 657.449 636.659L634.439 644.115C634.439 644.115 630.691 665.842 647.748 684.081L671.199 674.781C680.659 671.033 685.971 660.891 683.545 651.01H683.525Z" fill="url(#paint21_linear_126_4818)"/>
<path d="M359.165 629.443L489.908 652.493C489.908 652.493 506.924 723.727 475.617 774.617C475.617 774.617 443.507 764.515 433.085 739.16L337.719 698.192C337.719 698.192 342.469 667.065 359.165 629.443Z" fill="url(#paint22_linear_126_4818)"/>
<path d="M337.718 698.192C337.718 698.192 332.607 662.876 359.164 629.443C359.164 629.443 376.421 665.161 337.718 698.192Z" fill="url(#paint23_linear_126_4818)"/>
<path d="M489.907 652.493C489.907 652.493 506.924 723.727 475.616 774.617C475.616 774.617 443.507 764.515 433.084 739.16C445.992 674.821 489.907 652.493 489.907 652.493Z" fill="url(#paint24_linear_126_4818)"/>
<path d="M306.931 650.208C306.971 650.048 307.031 649.867 307.091 649.707C310.459 638.904 322.184 633.071 332.947 636.559L356.238 644.115C356.238 644.115 359.986 665.842 351.928 687.649L319.197 674.661C309.497 670.813 303.985 660.23 306.951 650.208H306.931Z" fill="url(#paint25_linear_126_4818)"/>
<path d="M344.653 351.903C337.919 351.903 332.246 356.814 331.144 363.448C328.679 378.3 328.679 393.453 331.144 408.305C332.246 414.94 337.919 419.85 344.653 419.85C352.951 419.85 359.305 412.534 358.202 404.317C356.539 392.07 356.539 379.663 358.202 367.437C359.325 359.219 352.951 351.903 344.653 351.903Z" fill="url(#paint26_linear_126_4818)"/>
<path d="M645.663 351.903C652.398 351.903 658.07 356.814 659.172 363.448C661.638 378.3 661.638 393.453 659.172 408.305C658.07 414.94 652.398 419.85 645.663 419.85C637.365 419.85 631.011 412.534 632.114 404.317C633.777 392.07 633.777 379.663 632.114 367.437C630.991 359.219 637.365 351.903 645.663 351.903Z" fill="url(#paint27_linear_126_4818)"/>
<path d="M413.562 478.076V502.99C413.562 512.691 420.416 521.069 429.917 522.993C472.97 531.732 517.346 531.732 560.399 522.993C569.919 521.069 576.754 512.691 576.754 502.99V478.076C576.754 465.368 565.269 455.788 552.762 458.013C514.66 464.807 475.656 464.807 437.553 458.013C425.046 455.788 413.562 465.368 413.562 478.076Z" fill="url(#paint28_linear_126_4818)"/>
<path d="M409.673 146.84C374.196 146.84 361.89 221.922 358.823 346.972H460.543C457.456 221.922 441.662 146.84 409.693 146.84H409.673Z" fill="url(#paint29_linear_126_4818)"/>
<path d="M409.673 185.184C391.313 185.184 385.14 246.656 383.897 346.973H435.448C434.186 246.656 426.208 185.184 409.673 185.184Z" fill="url(#paint30_linear_126_4818)"/>
<path d="M580.64 146.84C545.163 146.84 532.857 221.922 529.79 346.972H631.51C628.423 221.922 612.629 146.84 580.66 146.84H580.64Z" fill="url(#paint31_linear_126_4818)"/>
<path d="M580.64 185.184C562.28 185.184 556.107 246.656 554.864 346.973H606.416C605.153 246.656 597.176 185.184 580.64 185.184Z" fill="url(#paint32_linear_126_4818)"/>
<path d="M524.04 272.412C526.826 281.331 527.327 291.994 520.292 299.571C529.372 297.627 537.91 293.157 544.685 286.783C545.888 296.705 546.85 307.628 541.177 315.866C538.291 320.055 533.962 323.042 529.352 325.186C520.413 329.335 510.411 330.538 500.57 330.939C478.041 331.841 453.368 327.732 438.175 311.076C440.54 313.441 476.658 297.887 480.306 296.364C495.659 289.93 510.331 281.853 524.02 272.412H524.04Z" fill="url(#paint33_linear_126_4818)"/>
<path d="M495.158 300.132C416.648 300.132 352.991 348.457 352.991 408.086C352.991 440.215 371.491 469.037 400.814 488.8C411.417 495.956 423.563 500.505 436.211 502.43C454.911 505.276 474.674 506.819 495.158 506.819C515.642 506.819 535.405 505.276 554.105 502.43C566.753 500.505 578.899 495.956 589.502 488.8C618.825 469.037 637.325 440.195 637.325 408.086C637.325 348.477 573.668 300.132 495.158 300.132Z" fill="url(#paint34_linear_126_4818)"/>
<path d="M481.849 477.736C481.649 477.736 481.468 477.736 481.268 477.736C471.186 477.395 463.75 468.115 463.449 467.714C462.808 466.892 462.948 465.73 463.75 465.088C464.552 464.447 465.734 464.587 466.376 465.389C466.436 465.469 473.07 473.707 481.408 473.988C485.637 474.108 489.566 472.224 493.294 468.335V453.002C493.294 451.96 494.136 451.118 495.178 451.118C496.22 451.118 497.062 451.96 497.062 453.002V469.799L496.581 470.34C492.111 475.27 487.161 477.756 481.869 477.756L481.849 477.736Z" fill="#242D42"/>
<path d="M508.487 477.735C503.195 477.735 498.244 475.25 493.775 470.319C493.073 469.558 493.133 468.375 493.895 467.674C494.657 466.972 495.839 467.032 496.541 467.794C500.389 472.043 504.558 474.128 508.908 473.967C517.225 473.687 523.86 465.449 523.94 465.369C524.581 464.567 525.764 464.427 526.566 465.068C527.387 465.709 527.508 466.892 526.866 467.694C526.546 468.095 519.13 477.355 509.048 477.715C508.847 477.715 508.667 477.715 508.467 477.715L508.487 477.735Z" fill="#242D42"/>
<path d="M378.827 456.65C378.426 456.65 378.025 456.49 377.724 456.189C377.123 455.588 377.123 454.605 377.724 454.004L387.145 444.584C387.746 443.982 388.728 443.982 389.33 444.584C389.931 445.185 389.931 446.167 389.33 446.769L379.909 456.189C379.608 456.49 379.208 456.65 378.807 456.65H378.827Z" fill="url(#paint35_linear_126_4818)"/>
<path d="M392.436 456.65C392.035 456.65 391.634 456.49 391.334 456.189C390.732 455.588 390.732 454.605 391.334 454.004L400.754 444.584C401.355 443.982 402.338 443.982 402.939 444.584C403.54 445.185 403.54 446.167 402.939 446.769L393.519 456.189C393.218 456.49 392.817 456.65 392.416 456.65H392.436Z" fill="url(#paint36_linear_126_4818)"/>
<path d="M406.046 456.65C405.645 456.65 405.244 456.49 404.943 456.189C404.342 455.588 404.342 454.605 404.943 454.004L414.364 444.584C414.965 443.982 415.947 443.982 416.548 444.584C417.15 445.185 417.15 446.167 416.548 446.769L407.128 456.189C406.827 456.49 406.426 456.65 406.026 456.65H406.046Z" fill="url(#paint37_linear_126_4818)"/>
<path d="M611.489 456.65C611.088 456.65 610.688 456.49 610.387 456.189L600.967 446.769C600.365 446.167 600.365 445.185 600.967 444.584C601.568 443.982 602.55 443.982 603.151 444.584L612.572 454.004C613.173 454.605 613.173 455.588 612.572 456.189C612.271 456.49 611.87 456.65 611.469 456.65H611.489Z" fill="url(#paint38_linear_126_4818)"/>
<path d="M597.88 456.65C597.479 456.65 597.078 456.49 596.778 456.189L587.357 446.769C586.756 446.167 586.756 445.185 587.357 444.584C587.959 443.982 588.941 443.982 589.542 444.584L598.962 454.004C599.564 454.605 599.564 455.588 598.962 456.189C598.662 456.49 598.261 456.65 597.86 456.65H597.88Z" fill="url(#paint39_linear_126_4818)"/>
<path d="M584.271 456.65C583.87 456.65 583.469 456.49 583.168 456.189L573.748 446.769C573.147 446.167 573.147 445.185 573.748 444.584C574.349 443.982 575.331 443.982 575.933 444.584L585.353 454.004C585.954 454.605 585.954 455.588 585.353 456.189C585.052 456.49 584.651 456.65 584.251 456.65H584.271Z" fill="url(#paint40_linear_126_4818)"/>
<path d="M345.254 350.701C343.29 374.091 343.33 397.562 345.415 420.972C346.477 432.878 356.779 441.777 368.725 441.296C452.566 437.909 537.73 437.909 621.592 441.296C633.538 441.777 643.86 432.878 644.902 420.972C646.987 397.582 647.047 374.111 645.062 350.701C644.12 339.456 634.941 330.637 623.676 330.176C537.61 326.689 452.687 326.689 366.621 330.176C355.356 330.637 346.176 339.456 345.234 350.701H345.254Z" fill="url(#paint41_linear_126_4818)"/>
<path d="M622.193 426.304C580.262 424.6 537.51 423.739 495.158 423.739C452.807 423.739 410.054 424.6 368.124 426.304H367.803C363.955 426.304 360.688 423.378 360.347 419.63C358.343 397.161 358.302 374.392 360.187 351.943C360.507 348.215 363.534 345.289 367.242 345.149C409.874 343.425 452.907 342.543 495.158 342.543C537.41 342.543 580.443 343.425 623.075 345.149C626.783 345.289 629.809 348.215 630.13 351.943C632.014 374.392 631.974 397.161 629.97 419.63C629.629 423.378 626.362 426.304 622.514 426.304H622.193Z" fill="url(#paint42_linear_126_4818)"/>
<g opacity="0.5">
<path d="M502.093 342.604C499.788 342.604 497.463 342.563 495.158 342.563C485.838 342.563 476.458 342.624 467.078 342.704L384.038 425.743C395.984 425.322 407.97 424.962 419.996 424.681L502.093 342.584V342.604Z" fill="#FFFFFD"/>
<path d="M552.642 343.125C546.91 343.025 541.177 342.944 535.465 342.864L454.27 424.06C460.142 423.98 466.015 423.919 471.908 423.879L552.662 343.125H552.642Z" fill="#FFFFFD"/>
</g>
<path d="M495.158 424.761C474.713 424.761 467.718 432.878 467.698 438.871C467.658 448.532 485.817 457.872 495.158 457.872C504.498 457.872 521.815 448.432 522.597 438.871C523.118 432.578 516.363 424.761 495.158 424.761Z" fill="url(#paint43_linear_126_4818)"/>
<mask id="mask0_126_4818" style="mask-type:luminance" maskUnits="userSpaceOnUse" x="585" y="556" width="95" height="101">
<path d="M679.697 598.497C679.697 598.497 647.868 581.099 614.696 556.326L585.112 611.465C598.241 626.818 615.538 642.512 638.347 656.382C638.347 656.382 671.339 642.592 679.677 598.517L679.697 598.497Z" fill="white"/>
</mask>
<g mask="url(#mask0_126_4818)">
<path d="M571.683 519.065C571.683 519.065 550.758 508.743 545.928 537.465C545.928 537.465 558.896 608.078 638.368 656.382C638.368 656.382 671.359 642.592 679.697 598.517C679.697 598.517 612.512 561.798 571.683 519.065Z" fill="url(#paint44_linear_126_4818)"/>
<path d="M679.697 598.497C671.359 642.572 638.368 656.362 638.368 656.362C632.515 652.814 627.064 649.126 621.933 645.358C647.668 623.791 658.091 599.459 661.819 588.034C672.682 594.648 679.697 598.497 679.697 598.497Z" fill="url(#paint45_linear_126_4818)"/>
</g>
<path d="M653.339 610.062C653.339 610.062 668.853 586.07 683.324 582.542C697.796 579.015 718.941 587.834 716.476 595.59C714.011 603.347 701.303 605.371 693.907 604.369C693.907 604.369 695.31 611.825 690.74 616.756C690.74 616.756 700.962 614.992 704.851 616.756C704.851 616.756 712.447 590.419 722.85 597.354C724.974 598.757 732.37 628.401 727.78 636.499C723.19 644.616 712.968 642.492 712.968 642.492C712.968 642.492 751.772 650.248 748.946 663.297C746.12 676.345 713.329 665.421 713.329 665.421C713.329 665.421 734.836 677.407 731.328 686.226C727.8 695.045 699.579 679.171 699.579 679.171C699.579 679.171 710.523 690.115 707.697 694.344C705.031 698.332 673.603 686.667 649.912 653.776C646.685 649.286 645.102 643.815 645.342 638.283C645.683 630.967 647.367 620.284 653.38 610.042L653.339 610.062Z" fill="url(#paint46_linear_126_4818)"/>
<path d="M671.68 626.477C672.321 625.716 673.343 625.435 674.185 625.094C680.278 623.391 685.991 621.106 690.721 616.776C688.636 622.248 682.824 625.575 677.172 626.056C675.328 626.357 673.464 626.016 671.68 626.457V626.477Z" fill="#242D42"/>
<path d="M692.124 652.394C699.3 656.763 706.615 660.351 713.29 665.442C705.232 663.317 697.135 659.228 692.124 652.394Z" fill="#242D42"/>
<path d="M679.437 660.511C680.579 660.972 681.301 661.994 682.162 662.756C687.654 668.608 693.106 674.361 699.54 679.211C690.18 676.706 684.006 668.468 679.437 660.511Z" fill="#242D42"/>
<path d="M706.956 626.477C703.769 624.714 702.105 619.582 704.831 616.776C705.452 620.104 706.655 622.93 706.956 626.477Z" fill="#242D42"/>
<mask id="mask1_126_4818" style="mask-type:luminance" maskUnits="userSpaceOnUse" x="310" y="556" width="95" height="101">
<path d="M310.119 598.497C310.119 598.497 341.947 581.099 375.119 556.326L404.703 611.465C391.575 626.818 374.277 642.512 351.468 656.382C351.468 656.382 318.477 642.592 310.139 598.517L310.119 598.497Z" fill="white"/>
</mask>
<g mask="url(#mask1_126_4818)">
<path d="M418.133 519.065C418.133 519.065 439.058 508.743 443.888 537.465C443.888 537.465 430.92 608.078 351.448 656.382C351.448 656.382 318.457 642.592 310.119 598.517C310.119 598.517 377.304 561.798 418.133 519.065Z" fill="url(#paint47_linear_126_4818)"/>
<path d="M310.12 598.497C318.458 642.572 351.449 656.362 351.449 656.362C357.302 652.814 362.753 649.126 367.884 645.358C342.149 623.791 331.726 599.459 327.998 588.034C317.135 594.648 310.12 598.497 310.12 598.497Z" fill="url(#paint48_linear_126_4818)"/>
</g>
<path d="M336.476 610.062C336.476 610.062 320.962 586.07 306.491 582.542C292.019 579.015 270.874 587.834 273.339 595.59C275.804 603.347 288.512 605.371 295.908 604.369C295.908 604.369 294.505 611.825 299.075 616.756C299.075 616.756 288.853 614.992 284.964 616.756C284.964 616.756 277.368 590.419 266.965 597.354C264.841 598.757 257.445 628.401 262.035 636.499C266.625 644.616 276.847 642.492 276.847 642.492C276.847 642.492 238.043 650.248 240.869 663.297C243.695 676.345 276.486 665.421 276.486 665.421C276.486 665.421 254.979 677.407 258.487 686.226C261.995 695.045 290.236 679.171 290.236 679.171C290.236 679.171 279.292 690.115 282.118 694.344C284.784 698.332 316.212 686.667 339.903 653.776C343.13 649.286 344.713 643.815 344.473 638.283C344.132 630.967 342.448 620.284 336.435 610.042L336.476 610.062Z" fill="url(#paint49_linear_126_4818)"/>
<path d="M318.136 626.477C317.494 625.716 316.472 625.435 315.63 625.094C309.537 623.391 303.825 621.106 299.095 616.776C301.179 622.248 306.992 625.575 312.644 626.056C314.488 626.357 316.352 626.016 318.136 626.457V626.477Z" fill="#242D42"/>
<path d="M297.691 652.394C290.516 656.763 283.2 660.351 276.525 665.442C284.583 663.317 292.68 659.228 297.691 652.394Z" fill="#242D42"/>
<path d="M310.379 660.511C309.236 660.972 308.515 661.994 307.653 662.756C302.161 668.608 296.709 674.361 290.275 679.211C299.636 676.706 305.809 668.468 310.379 660.511Z" fill="#242D42"/>
<path d="M282.879 626.477C286.066 624.714 287.729 619.582 285.003 616.776C284.382 620.104 283.18 622.93 282.879 626.477Z" fill="#242D42"/>
</g>
<defs>
<linearGradient id="paint0_linear_126_4818" x1="552.883" y1="563.701" x2="552.883" y2="65.3838" gradientUnits="userSpaceOnUse">
<stop stop-color="#009AA2"/>
<stop offset="0.6" stop-color="#22C6CB"/>
<stop offset="1" stop-color="#3CE6EA"/>
</linearGradient>
<linearGradient id="paint1_linear_126_4818" x1="415.967" y1="563.701" x2="415.967" y2="65.3839" gradientUnits="userSpaceOnUse">
<stop stop-color="#009AA2"/>
<stop offset="0.6" stop-color="#22C6CB"/>
<stop offset="1" stop-color="#3CE6EA"/>
</linearGradient>
<linearGradient id="paint2_linear_126_4818" x1="845.154" y1="563.702" x2="845.154" y2="65.184" gradientUnits="userSpaceOnUse">
<stop stop-color="#009AA2"/>
<stop offset="0.6" stop-color="#22C6CB"/>
<stop offset="1" stop-color="#3CE6EA"/>
</linearGradient>
<linearGradient id="paint3_linear_126_4818" x1="669.355" y1="563.701" x2="669.355" y2="65.3844" gradientUnits="userSpaceOnUse">
<stop stop-color="#009AA2"/>
<stop offset="0.6" stop-color="#22C6CB"/>
<stop offset="1" stop-color="#3CE6EA"/>
</linearGradient>
<linearGradient id="paint4_linear_126_4818" x1="839.843" y1="563.702" x2="839.843" y2="65.3845" gradientUnits="userSpaceOnUse">
<stop stop-color="#009AA2"/>
<stop offset="0.6" stop-color="#22C6CB"/>
<stop offset="1" stop-color="#3CE6EA"/>
</linearGradient>
<linearGradient id="paint5_linear_126_4818" x1="318.817" y1="563.702" x2="318.817" y2="65.3848" gradientUnits="userSpaceOnUse">
<stop stop-color="#009AA2"/>
<stop offset="0.6" stop-color="#22C6CB"/>
<stop offset="1" stop-color="#3CE6EA"/>
</linearGradient>
<linearGradient id="paint6_linear_126_4818" x1="115.658" y1="563.702" x2="115.658" y2="65.3845" gradientUnits="userSpaceOnUse">
<stop stop-color="#009AA2"/>
<stop offset="0.6" stop-color="#22C6CB"/>
<stop offset="1" stop-color="#3CE6EA"/>
</linearGradient>
<linearGradient id="paint7_linear_126_4818" x1="305.007" y1="563.701" x2="305.007" y2="65.3842" gradientUnits="userSpaceOnUse">
<stop stop-color="#009AA2"/>
<stop offset="0.6" stop-color="#22C6CB"/>
<stop offset="1" stop-color="#3CE6EA"/>
</linearGradient>
<linearGradient id="paint8_linear_126_4818" x1="690.762" y1="563.701" x2="690.762" y2="65.3844" gradientUnits="userSpaceOnUse">
<stop stop-color="#009AA2"/>
<stop offset="0.6" stop-color="#22C6CB"/>
<stop offset="1" stop-color="#3CE6EA"/>
</linearGradient>
<linearGradient id="paint9_linear_126_4818" x1="935.83" y1="563.701" x2="935.83" y2="65.3843" gradientUnits="userSpaceOnUse">
<stop stop-color="#009AA2"/>
<stop offset="0.6" stop-color="#22C6CB"/>
<stop offset="1" stop-color="#3CE6EA"/>
</linearGradient>
<radialGradient id="paint10_radial_126_4818" cx="0" cy="0" r="1" gradientUnits="userSpaceOnUse" gradientTransform="translate(500.029 849.552) scale(453.661 81.6589)">
<stop stop-color="#3CE6EA"/>
<stop offset="0.21" stop-color="#37E0E5"/>
<stop offset="0.45" stop-color="#2CD2D7"/>
<stop offset="0.72" stop-color="#19B9C0"/>
<stop offset="0.99" stop-color="#009AA2"/>
</radialGradient>
<linearGradient id="paint11_linear_126_4818" x1="586.659" y1="600.046" x2="632.174" y2="555.164" gradientUnits="userSpaceOnUse">
<stop stop-color="#DB4B3A"/>
<stop offset="1" stop-color="#FF7B64"/>
</linearGradient>
<linearGradient id="paint12_linear_126_4818" x1="615.025" y1="611.47" x2="659.347" y2="625.142" gradientUnits="userSpaceOnUse">
<stop stop-color="#F98314"/>
<stop offset="1" stop-color="#FFB353"/>
</linearGradient>
<linearGradient id="paint13_linear_126_4818" x1="403.442" y1="600.053" x2="357.947" y2="555.167" gradientUnits="userSpaceOnUse">
<stop stop-color="#DB4B3A"/>
<stop offset="1" stop-color="#FF7B64"/>
</linearGradient>
<linearGradient id="paint14_linear_126_4818" x1="375.077" y1="611.476" x2="330.758" y2="625.169" gradientUnits="userSpaceOnUse">
<stop stop-color="#F98314"/>
<stop offset="1" stop-color="#FFB353"/>
</linearGradient>
<linearGradient id="paint15_linear_126_4818" x1="495.158" y1="672.437" x2="495.158" y2="524.778" gradientUnits="userSpaceOnUse">
<stop stop-color="#DB4B3A"/>
<stop offset="0.37" stop-color="#E95E4A"/>
<stop offset="1" stop-color="#FF7B64"/>
</linearGradient>
<linearGradient id="paint16_linear_126_4818" x1="495.157" y1="670.071" x2="495.157" y2="635.537" gradientUnits="userSpaceOnUse">
<stop stop-color="#DB4B3A"/>
<stop offset="0.37" stop-color="#E95E4A"/>
<stop offset="1" stop-color="#FF7B64"/>
</linearGradient>
<linearGradient id="paint17_linear_126_4818" x1="502.093" y1="563.321" x2="503.356" y2="577.792" gradientUnits="userSpaceOnUse">
<stop stop-color="#006831"/>
<stop offset="0.02" stop-color="#007036"/>
<stop offset="0.13" stop-color="#00914A"/>
<stop offset="0.23" stop-color="#00AB58"/>
<stop offset="0.32" stop-color="#00B962"/>
<stop offset="0.4" stop-color="#00BE65"/>
<stop offset="0.9" stop-color="#00CDD6" stop-opacity="0"/>
</linearGradient>
<linearGradient id="paint18_linear_126_4818" x1="690.755" y1="784.301" x2="578.695" y2="705.819" gradientUnits="userSpaceOnUse">
<stop stop-color="#182941"/>
<stop offset="1" stop-color="#0094F2"/>
</linearGradient>
<linearGradient id="paint19_linear_126_4818" x1="665.859" y1="662.729" x2="611.392" y2="665.251" gradientUnits="userSpaceOnUse">
<stop stop-color="#61799F"/>
<stop offset="1" stop-color="#EFF4F6"/>
</linearGradient>
<linearGradient id="paint20_linear_126_4818" x1="598.818" y1="777.005" x2="492.242" y2="702.379" gradientUnits="userSpaceOnUse">
<stop stop-color="#182941"/>
<stop offset="1" stop-color="#0094F2"/>
</linearGradient>
<linearGradient id="paint21_linear_126_4818" x1="689.682" y1="661.52" x2="621.996" y2="658.211" gradientUnits="userSpaceOnUse">
<stop stop-color="#F98314"/>
<stop offset="0.23" stop-color="#F98719"/>
<stop offset="0.52" stop-color="#FA9228"/>
<stop offset="0.83" stop-color="#FDA642"/>
<stop offset="1" stop-color="#FFB353"/>
</linearGradient>
<linearGradient id="paint22_linear_126_4818" x1="299.909" y1="784.316" x2="411.969" y2="705.833" gradientUnits="userSpaceOnUse">
<stop stop-color="#182941"/>
<stop offset="1" stop-color="#0094F2"/>
</linearGradient>
<linearGradient id="paint23_linear_126_4818" x1="324.804" y1="662.744" x2="379.274" y2="665.245" gradientUnits="userSpaceOnUse">
<stop stop-color="#61799F"/>
<stop offset="1" stop-color="#EFF4F6"/>
</linearGradient>
<linearGradient id="paint24_linear_126_4818" x1="391.848" y1="777" x2="498.425" y2="702.374" gradientUnits="userSpaceOnUse">
<stop stop-color="#182941"/>
<stop offset="1" stop-color="#0094F2"/>
</linearGradient>
<linearGradient id="paint25_linear_126_4818" x1="300.573" y1="663.498" x2="369.123" y2="660.138" gradientUnits="userSpaceOnUse">
<stop stop-color="#F98314"/>
<stop offset="0.23" stop-color="#F98719"/>
<stop offset="0.52" stop-color="#FA9228"/>
<stop offset="0.83" stop-color="#FDA642"/>
<stop offset="1" stop-color="#FFB353"/>
</linearGradient>
<linearGradient id="paint26_linear_126_4818" x1="343.811" y1="425.382" x2="343.811" y2="348.656" gradientUnits="userSpaceOnUse">
<stop stop-color="#242D42"/>
<stop offset="0.36" stop-color="#39455E"/>
<stop offset="1" stop-color="#67789C"/>
</linearGradient>
<linearGradient id="paint27_linear_126_4818" x1="646.525" y1="425.382" x2="646.525" y2="348.656" gradientUnits="userSpaceOnUse">
<stop stop-color="#242D42"/>
<stop offset="0.36" stop-color="#39455E"/>
<stop offset="1" stop-color="#67789C"/>
</linearGradient>
<linearGradient id="paint28_linear_126_4818" x1="495.158" y1="530.91" x2="495.158" y2="441.838" gradientUnits="userSpaceOnUse">
<stop stop-color="#DB4B3A"/>
<stop offset="0.37" stop-color="#E95E4A"/>
<stop offset="1" stop-color="#FF7B64"/>
</linearGradient>
<linearGradient id="paint29_linear_126_4818" x1="409.673" y1="346.972" x2="409.673" y2="146.84" gradientUnits="userSpaceOnUse">
<stop stop-color="#DFE1EA"/>
<stop offset="0.13" stop-color="#E4E5ED"/>
<stop offset="0.6" stop-color="#F2F2F5"/>
<stop offset="1" stop-color="#F7F7F9"/>
</linearGradient>
<linearGradient id="paint30_linear_126_4818" x1="409.673" y1="424.22" x2="409.673" y2="246.236" gradientUnits="userSpaceOnUse">
<stop stop-color="#8D95A3"/>
<stop offset="1" stop-color="#DFE2EB"/>
</linearGradient>
<linearGradient id="paint31_linear_126_4818" x1="580.64" y1="346.972" x2="580.64" y2="146.84" gradientUnits="userSpaceOnUse">
<stop stop-color="#DFE1EA"/>
<stop offset="0.13" stop-color="#E4E5ED"/>
<stop offset="0.6" stop-color="#F2F2F5"/>
<stop offset="1" stop-color="#F7F7F9"/>
</linearGradient>
<linearGradient id="paint32_linear_126_4818" x1="580.64" y1="424.22" x2="580.64" y2="246.236" gradientUnits="userSpaceOnUse">
<stop stop-color="#8D95A3"/>
<stop offset="1" stop-color="#DFE2EB"/>
</linearGradient>
<linearGradient id="paint33_linear_126_4818" x1="491.891" y1="499.563" x2="491.891" y2="328.253" gradientUnits="userSpaceOnUse">
<stop stop-color="#DFE1EA"/>
<stop offset="0.13" stop-color="#E4E5ED"/>
<stop offset="0.6" stop-color="#F2F2F5"/>
<stop offset="1" stop-color="#F7F7F9"/>
</linearGradient>
<linearGradient id="paint34_linear_126_4818" x1="495.158" y1="501.067" x2="495.158" y2="328.454" gradientUnits="userSpaceOnUse">
<stop stop-color="#DFE1EA"/>
<stop offset="0.13" stop-color="#E4E5ED"/>
<stop offset="0.6" stop-color="#F2F2F5"/>
<stop offset="1" stop-color="#F7F7F9"/>
</linearGradient>
<linearGradient id="paint35_linear_126_4818" x1="383.537" y1="467.533" x2="383.537" y2="425.262" gradientUnits="userSpaceOnUse">
<stop stop-color="#8D95A3"/>
<stop offset="1" stop-color="#DFE2EB"/>
</linearGradient>
<linearGradient id="paint36_linear_126_4818" x1="397.146" y1="467.533" x2="397.146" y2="425.262" gradientUnits="userSpaceOnUse">
<stop stop-color="#8D95A3"/>
<stop offset="1" stop-color="#DFE2EB"/>
</linearGradient>
<linearGradient id="paint37_linear_126_4818" x1="410.756" y1="467.533" x2="410.756" y2="425.262" gradientUnits="userSpaceOnUse">
<stop stop-color="#8D95A3"/>
<stop offset="1" stop-color="#DFE2EB"/>
</linearGradient>
<linearGradient id="paint38_linear_126_4818" x1="606.779" y1="467.533" x2="606.779" y2="425.262" gradientUnits="userSpaceOnUse">
<stop stop-color="#8D95A3"/>
<stop offset="1" stop-color="#DFE2EB"/>
</linearGradient>
<linearGradient id="paint39_linear_126_4818" x1="593.17" y1="467.533" x2="593.17" y2="425.262" gradientUnits="userSpaceOnUse">
<stop stop-color="#8D95A3"/>
<stop offset="1" stop-color="#DFE2EB"/>
</linearGradient>
<linearGradient id="paint40_linear_126_4818" x1="579.56" y1="467.533" x2="579.56" y2="425.262" gradientUnits="userSpaceOnUse">
<stop stop-color="#8D95A3"/>
<stop offset="1" stop-color="#DFE2EB"/>
</linearGradient>
<linearGradient id="paint41_linear_126_4818" x1="495.158" y1="441.316" x2="495.158" y2="327.551" gradientUnits="userSpaceOnUse">
<stop stop-color="#DB4B3A"/>
<stop offset="0.37" stop-color="#E95E4A"/>
<stop offset="1" stop-color="#FF7B64"/>
</linearGradient>
<linearGradient id="paint42_linear_126_4818" x1="495.158" y1="537.364" x2="495.158" y2="349.578" gradientUnits="userSpaceOnUse">
<stop stop-color="#009AA2"/>
<stop offset="0.6" stop-color="#22C6CB"/>
<stop offset="1" stop-color="#3CE6EA"/>
</linearGradient>
<linearGradient id="paint43_linear_126_4818" x1="495.158" y1="442.299" x2="495.158" y2="400.508" gradientUnits="userSpaceOnUse">
<stop stop-color="#242D42"/>
<stop offset="0.36" stop-color="#39455E"/>
<stop offset="1" stop-color="#67789C"/>
</linearGradient>
<linearGradient id="paint44_linear_126_4818" x1="586.659" y1="600.047" x2="632.174" y2="555.164" gradientUnits="userSpaceOnUse">
<stop stop-color="#DB4B3A"/>
<stop offset="1" stop-color="#FF7B64"/>
</linearGradient>
<linearGradient id="paint45_linear_126_4818" x1="615.025" y1="611.47" x2="659.347" y2="625.143" gradientUnits="userSpaceOnUse">
<stop stop-color="#F98314"/>
<stop offset="1" stop-color="#FFB353"/>
</linearGradient>
<linearGradient id="paint46_linear_126_4818" x1="615.778" y1="638.443" x2="697.114" y2="638.443" gradientUnits="userSpaceOnUse">
<stop stop-color="#182941"/>
<stop offset="1" stop-color="#0094F2"/>
</linearGradient>
<linearGradient id="paint47_linear_126_4818" x1="403.162" y1="600.061" x2="357.648" y2="555.178" gradientUnits="userSpaceOnUse">
<stop stop-color="#DB4B3A"/>
<stop offset="1" stop-color="#FF7B64"/>
</linearGradient>
<linearGradient id="paint48_linear_126_4818" x1="374.798" y1="611.484" x2="330.475" y2="625.157" gradientUnits="userSpaceOnUse">
<stop stop-color="#F98314"/>
<stop offset="1" stop-color="#FFB353"/>
</linearGradient>
<linearGradient id="paint49_linear_126_4818" x1="374.037" y1="638.443" x2="292.721" y2="638.443" gradientUnits="userSpaceOnUse">
<stop stop-color="#182941"/>
<stop offset="1" stop-color="#0094F2"/>
</linearGradient>
<clipPath id="clip0_126_4818">
<rect width="1000" height="944" fill="white"/>
</clipPath>
</defs>
</svg>
