<svg width="1000" height="924" viewBox="0 0 1000 924" fill="none" xmlns="http://www.w3.org/2000/svg">
<g clip-path="url(#clip0_126_4897)">
<path d="M25.8339 487.212C20.6264 463.575 27.2172 438.107 44.6907 422.24C83.7265 386.785 126.953 355.641 151.119 307.106C181.428 246.203 178.621 171.956 208.299 110.727C231.753 62.3543 275.529 24.8035 327.095 8.85561C378.661 -7.11265 437.347 -1.27457 486.371 24.6611C526.037 45.6538 559.011 78.8311 600.06 96.7522C686.147 134.323 789.584 97.7693 873.84 139.51C902.237 153.567 926.138 175.617 947.355 199.315C972.599 227.488 995.504 260.462 999.389 297.505C1005.61 356.882 962.875 406.536 935.19 458.103C873.738 572.505 880.308 721.284 798.474 821.65C756.468 873.175 694.06 906.21 627.827 918.07C561.594 929.909 491.822 921.365 427.013 899.05C405.96 891.809 385.293 883.102 363.669 878.139C325.488 869.372 286.127 872.586 247.315 869.026C179.577 862.822 106.753 829.034 80.9397 765.364C53.9665 698.888 85.7403 621.304 57.7501 555.214C47.9657 532.106 31.2041 511.561 25.8339 487.191V487.212Z" fill="url(#paint0_linear_126_4897)"/>
<path d="M76.2208 349.885C98.0882 339.755 124.309 310.971 132.995 288.779C135.883 281.374 138.08 273.624 137.51 266.382C136.941 259.141 133.198 252.408 126.607 250.15C120.362 248.014 112.51 250.129 105.981 254.177C99.451 258.246 93.9995 264.063 88.9547 269.983C77.9498 282.859 68.1451 296.712 59.8254 311.175C55.2485 319.108 50.997 327.631 50.6716 336.032C50.3258 344.434 55.0451 352.591 63.2428 353.201C67.4738 353.526 71.9897 351.858 76.2411 349.905L76.2208 349.885Z" fill="url(#paint1_linear_126_4897)"/>
<path d="M237.917 251.776C271.867 251.776 299.39 224.254 299.39 190.304C299.39 156.353 271.867 128.831 237.917 128.831C203.967 128.831 176.444 156.353 176.444 190.304C176.444 224.254 203.967 251.776 237.917 251.776Z" fill="url(#paint2_linear_126_4897)"/>
<path d="M237.917 240.954C265.891 240.954 288.568 218.277 288.568 190.303C288.568 162.33 265.891 139.652 237.917 139.652C209.943 139.652 187.266 162.33 187.266 190.303C187.266 218.277 209.943 240.954 237.917 240.954Z" fill="url(#paint3_linear_126_4897)"/>
<g style="mix-blend-mode:multiply" opacity="0.5">
<path d="M265.215 191.667C263.629 188.493 261.371 186.093 258.462 184.445C255.553 182.818 252.278 182.249 248.657 182.737C250.366 180.54 251.281 178.119 251.383 175.454C251.505 172.79 250.915 170.166 249.613 167.582C247.925 164.226 245.484 161.785 242.27 160.259C239.076 158.734 236.045 158.327 233.177 158.978C231.753 159.303 230.065 159.873 228.092 160.666L225.508 155.52L220.057 158.266L222.538 163.188C222.111 163.392 221.704 163.616 221.257 163.819L217.86 165.528L215.378 160.605L209.926 163.351L212.408 168.274L202.705 173.135L206.204 180.113L213.059 176.675L234.031 218.436L227.176 221.874L230.675 228.851L240.378 223.99L242.839 228.912L248.291 226.166L245.83 221.244L249.633 219.332C249.939 219.189 250.223 219.026 250.508 218.884L252.99 223.807L258.441 221.061L255.858 215.934C257.201 215.141 258.34 214.368 259.296 213.656C261.533 212.009 263.364 210.035 264.788 207.777C266.232 205.519 267.005 202.956 267.127 200.088C267.249 197.22 266.619 194.413 265.236 191.667H265.215ZM221.46 172.424L226.708 169.779C228.519 168.864 230.207 168.233 231.733 167.887C236.249 166.87 239.483 168.355 241.456 172.281C242.819 175.007 243.063 177.468 242.188 179.665C241.721 180.845 240.785 182.004 239.402 183.144C238.222 184.1 236.696 185.056 234.865 185.991L229.617 188.636L221.48 172.424H221.46ZM257.607 202.122C257.16 204.258 256.082 206.028 254.373 207.411C253.824 207.859 253.132 208.347 252.298 208.876C250.895 209.771 249.125 210.768 246.989 211.886C246.541 212.11 246.074 212.354 245.585 212.598L242.432 214.185L233.055 195.532L237.856 193.111C239.869 192.094 241.639 191.321 243.205 190.772C244.223 190.406 245.158 190.141 245.992 189.958C248.067 189.531 250.061 189.775 251.973 190.67C253.885 191.565 255.39 193.111 256.489 195.308C257.689 197.708 258.075 199.987 257.628 202.122H257.607Z" fill="#F2A800"/>
</g>
<path d="M493.185 181.252C518.968 181.252 539.869 160.351 539.869 134.568C539.869 108.785 518.968 87.8838 493.185 87.8838C467.402 87.8838 446.501 108.785 446.501 134.568C446.501 160.351 467.402 181.252 493.185 181.252Z" fill="url(#paint4_linear_126_4897)"/>
<path d="M493.185 173.034C514.429 173.034 531.651 155.812 531.651 134.568C531.651 113.323 514.429 96.1016 493.185 96.1016C471.941 96.1016 454.719 113.323 454.719 134.568C454.719 155.812 471.941 173.034 493.185 173.034Z" fill="url(#paint5_linear_126_4897)"/>
<g style="mix-blend-mode:multiply" opacity="0.5">
<path d="M515.581 112.05C515.581 112.05 515.52 111.907 515.48 111.826C515.439 111.724 515.398 111.602 515.337 111.521C515.297 111.46 515.236 111.419 515.175 111.358C515.093 111.277 515.012 111.175 514.89 111.114C514.89 111.114 514.89 111.094 514.849 111.094C514.788 111.053 514.707 111.053 514.625 111.012C514.544 110.972 514.463 110.931 514.381 110.911L493.144 106.781C493.144 106.781 493.104 106.781 493.083 106.781C492.961 106.781 492.839 106.781 492.717 106.781C492.636 106.781 492.555 106.781 492.473 106.802C492.473 106.802 492.432 106.802 492.412 106.802C492.29 106.842 492.188 106.924 492.087 106.985C492.046 107.025 491.985 107.025 491.924 107.066L491.883 107.107L462.713 129.767C462.53 129.91 462.388 130.093 462.286 130.296C462.245 130.357 462.245 130.418 462.225 130.5C462.184 130.601 462.144 130.703 462.123 130.805C462.123 130.866 462.123 130.907 462.123 130.968C462.123 131.008 462.103 131.049 462.123 131.069C462.123 131.171 462.164 131.273 462.184 131.354C462.184 131.354 462.184 131.395 462.184 131.415C462.245 131.578 462.327 131.741 462.428 131.863C462.449 131.903 462.469 131.924 462.51 131.964C462.632 132.086 462.754 132.208 462.896 132.29L506.936 157.29C506.936 157.29 506.936 157.29 506.956 157.29C507.14 157.391 507.343 157.452 507.546 157.473C507.567 157.473 507.587 157.473 507.607 157.473C507.79 157.473 507.974 157.473 508.157 157.412C508.157 157.412 508.177 157.412 508.197 157.412C508.258 157.391 508.319 157.371 508.38 157.33C508.502 157.269 508.604 157.188 508.706 157.107C508.706 157.107 508.726 157.086 508.747 157.066C508.869 156.964 508.95 156.822 509.031 156.7C509.031 156.659 509.072 156.639 509.092 156.598C509.153 156.456 509.214 156.313 509.235 156.171L515.642 112.579C515.642 112.477 515.642 112.375 515.642 112.253C515.642 112.151 515.642 112.07 515.642 111.968L515.581 112.05ZM495.097 110.321L511.696 113.535L501.586 131.191L495.097 110.321ZM498.962 133.164L467.595 129.869L492.026 110.89L498.942 133.164H498.962ZM499.959 136.378L505.044 152.754L470.809 133.307L499.959 136.358V136.378ZM502.827 135.219L511.371 120.288L507.14 149.092L502.827 135.219Z" fill="#F2A800"/>
</g>
<path d="M494.527 302.041L482.526 296.996C473.189 285.91 455.858 273.888 434.458 264.694C412.042 255.052 390.459 250.78 375.915 252.184L365.134 247.647C365.134 247.647 357.404 255.54 357.79 265.609C357.79 266.179 357.851 266.748 357.933 267.318C359.926 281.049 382.384 300.333 413.405 313.656C447.864 328.465 480.37 330.601 488.283 318.966C490.866 315.772 494.975 309.466 494.527 302.021V302.041Z" fill="url(#paint6_linear_126_4897)"/>
<path d="M493.67 306.855C499.488 293.325 474.973 269.785 438.913 254.278C402.853 238.77 368.904 237.167 363.085 250.698C357.266 264.228 381.782 287.768 417.842 303.275C453.902 318.783 487.851 320.386 493.67 306.855Z" fill="url(#paint7_linear_126_4897)"/>
<path d="M483.355 302.419C488.255 291.025 467.613 271.203 437.25 258.146C406.887 245.088 378.3 243.739 373.4 255.133C368.5 266.527 389.142 286.349 419.505 299.406C449.869 312.464 478.455 313.813 483.355 302.419Z" fill="url(#paint8_linear_126_4897)"/>
<g style="mix-blend-mode:multiply" opacity="0.5">
<path d="M446.013 286.276C445.443 285.788 435.557 268.579 435.557 268.579L389.503 258.957C389.707 259.567 427.705 290.751 427.705 290.751C427.705 290.751 446.582 286.764 446.013 286.276Z" fill="#F2A800"/>
<path d="M441.802 270.653C441.802 270.653 453.315 289.917 453.885 290.405C454.454 290.893 433.075 294.351 433.075 294.351L465.174 295.999L441.822 270.674L441.802 270.653Z" fill="#F2A800"/>
</g>
<path d="M760.842 142.561C757.383 138.696 753.539 135.503 749.348 132.94C745.402 130.519 729.414 123.379 725.467 122.077C701.667 114.185 671.663 123.155 649.186 147.484C618.836 180.336 613.689 228.729 637.693 255.58C640.805 259.058 644.243 261.988 647.945 264.408C652.237 267.215 672.192 276.105 677.908 277.407C700.833 282.675 728.356 273.359 749.348 250.637C779.698 217.785 784.845 169.392 760.842 142.541V142.561Z" fill="url(#paint9_linear_126_4897)"/>
<path d="M746.383 231.511C771.194 193.869 767.24 147.49 737.552 127.922C707.864 108.354 663.684 123.006 638.873 160.648C614.062 198.29 618.015 244.669 647.703 264.237C677.391 283.805 721.572 269.153 746.383 231.511Z" fill="url(#paint10_linear_126_4897)"/>
<path d="M739.453 226.943C761.062 194.16 757.615 153.765 731.754 136.72C705.893 119.674 667.411 132.432 645.802 165.215C624.194 197.999 627.641 238.393 653.502 255.439C679.363 272.485 717.845 259.727 739.453 226.943Z" fill="url(#paint11_linear_126_4897)"/>
<g style="mix-blend-mode:multiply" opacity="0.5">
<path d="M704.658 184.384C702.827 183.774 700.854 184.791 700.264 186.622C699.674 188.453 700.671 190.426 702.502 191.016C712.53 194.271 717.819 197.098 720.26 198.807C716.212 199.295 707.343 198.888 694.365 196.061L700.691 168.131L717.799 172.403C719.874 172.932 721.725 171.956 721.928 170.267C722.132 168.599 720.647 166.87 718.633 166.362L676.627 155.825C674.593 155.316 672.457 156.15 671.847 157.716C671.216 159.303 672.396 161.032 674.491 161.561L691.741 165.874L684.133 193.498C671.176 189.897 663.059 186.073 659.703 183.734C662.673 183.367 668.694 183.347 679.129 185.178C681.021 185.503 682.831 184.242 683.157 182.35C683.482 180.459 682.221 178.668 680.329 178.323C654.618 173.827 652.319 179.136 651.587 180.886C650.997 182.269 651.058 183.856 651.79 185.32C654.536 190.833 668.938 196.488 682.282 200.231L675.122 226.166C674.329 229.075 675.915 232.025 678.722 232.716L680.635 233.184C683.421 233.876 686.249 232.004 686.9 229.055L692.84 202.834C706.285 205.743 721.542 207.452 726.525 203.892C727.848 202.936 728.661 201.594 728.783 200.088C728.946 198.197 729.455 192.419 704.658 184.364V184.384Z" fill="#F2A800"/>
</g>
<path d="M841.395 188.371C840.235 188.025 839.055 187.76 837.875 187.476C837.672 187.435 837.489 187.374 837.306 187.333C837.163 187.293 837.021 187.272 836.879 187.252C835.638 186.987 834.377 186.764 833.115 186.581C832.993 186.581 832.871 186.54 832.749 186.52C831.447 186.337 830.146 186.214 828.844 186.113C828.6 186.113 828.376 186.072 828.132 186.052C827.949 186.052 827.766 186.052 827.562 186.052C826.443 185.991 825.325 185.93 824.185 185.93C823.941 185.93 823.697 185.93 823.453 185.93C822.212 185.93 820.971 185.97 819.71 186.052C819.548 186.052 819.364 186.052 819.202 186.072C818.205 186.133 817.168 186.255 816.171 186.377C815.805 186.418 815.439 186.438 815.093 186.479C814.828 186.52 814.584 186.54 814.32 186.581C812.957 186.764 811.594 187.008 810.211 187.272C809.987 187.313 809.784 187.374 809.56 187.415C808.115 187.72 806.651 188.045 805.186 188.432L574.592 250.21C573.575 250.474 572.558 250.82 571.562 251.125C571.134 251.267 570.687 251.369 570.26 251.511C569.934 251.613 569.629 251.715 569.304 251.817C567.9 252.305 566.496 252.813 565.113 253.362C564.91 253.444 564.706 253.546 564.483 253.627C563.221 254.135 561.96 254.705 560.719 255.275C560.455 255.397 560.191 255.519 559.926 255.641C558.563 256.292 557.221 256.983 555.878 257.695C555.593 257.838 555.309 258 555.024 258.163C553.763 258.855 552.522 259.567 551.281 260.319C551.138 260.401 550.996 260.482 550.854 260.563C549.857 261.174 548.86 261.845 547.863 262.496C547.64 262.659 547.396 262.801 547.151 262.943C546.338 263.493 545.544 264.062 544.751 264.632C544.06 265.12 543.348 265.629 542.656 266.137C541.863 266.727 541.069 267.358 540.296 267.968C539.625 268.497 538.933 269.026 538.262 269.575C537.469 270.226 536.716 270.897 535.943 271.568C535.292 272.138 534.641 272.687 533.99 273.277C533.217 273.969 532.465 274.701 531.692 275.433C531.183 275.921 530.675 276.389 530.166 276.898C530.024 277.04 529.881 277.162 529.739 277.305C529.495 277.549 529.271 277.793 529.027 278.017C527.99 279.054 526.993 280.092 525.976 281.17C525.752 281.393 525.549 281.638 525.325 281.861C524.186 283.082 523.067 284.343 521.968 285.624C521.724 285.909 521.48 286.194 521.236 286.479C520.26 287.638 519.283 288.818 518.327 290.018C518.165 290.222 518.002 290.425 517.839 290.629C516.781 291.971 515.724 293.354 514.706 294.758C514.462 295.083 514.218 295.409 513.994 295.755C513.038 297.057 512.103 298.399 511.187 299.742C511.086 299.884 510.984 300.026 510.882 300.169C510.841 300.21 510.821 300.271 510.78 300.332C509.804 301.776 508.848 303.261 507.912 304.766C507.648 305.193 507.383 305.641 507.099 306.088C506.387 307.248 505.695 308.407 505.003 309.567C504.698 310.075 504.393 310.604 504.108 311.113C503.396 312.354 502.705 313.594 502.034 314.856C501.83 315.242 501.606 315.629 501.403 316.035C501.342 316.157 501.281 316.3 501.2 316.422C500.996 316.808 500.813 317.195 500.61 317.561C499.755 319.229 498.901 320.917 498.087 322.626C497.741 323.338 497.416 324.07 497.07 324.803C496.358 326.349 495.646 327.915 494.975 329.502C494.772 329.949 494.588 330.417 494.385 330.864C494.263 331.149 494.141 331.414 494.039 331.699C493.449 333.143 492.88 334.587 492.31 336.052C492.046 336.743 491.761 337.415 491.517 338.126C490.724 340.283 489.951 342.459 489.218 344.656C489.198 344.738 489.178 344.799 489.157 344.88C488.466 346.955 487.835 349.05 487.204 351.166C487.001 351.898 486.798 352.63 486.594 353.362C486.187 354.827 485.78 356.312 485.414 357.797C485.353 358.041 485.292 358.285 485.231 358.529C485.089 359.139 484.946 359.75 484.804 360.36C484.479 361.764 484.133 363.187 483.848 364.611C483.645 365.527 483.482 366.442 483.299 367.358C483.034 368.741 482.77 370.124 482.526 371.507C482.444 372.016 482.363 372.504 482.282 373.013C482.16 373.786 482.017 374.538 481.895 375.311C481.834 375.657 481.794 375.982 481.732 376.328C481.468 378.179 481.224 380.051 481 381.922C480.96 382.309 480.919 382.716 480.878 383.102C480.675 385.014 480.471 386.947 480.329 388.859C480.329 388.859 480.329 388.899 480.329 388.92C480.227 390.201 480.166 391.483 480.105 392.744C480.064 393.639 479.983 394.514 479.942 395.409C479.861 397.585 479.8 399.762 479.8 401.938L479.108 710.482C479.108 712.435 479.149 714.367 479.21 716.279C479.21 716.483 479.21 716.686 479.23 716.91C479.251 717.5 479.271 718.069 479.312 718.659C479.353 719.391 479.373 720.103 479.414 720.836C479.454 721.69 479.536 722.524 479.597 723.358C479.658 724.05 479.698 724.762 479.759 725.453C479.841 726.287 479.922 727.121 480.003 727.976C480.064 728.647 480.146 729.318 480.227 729.989C480.329 730.844 480.451 731.678 480.553 732.512C480.634 733.163 480.715 733.814 480.817 734.444C480.939 735.299 481.082 736.133 481.224 736.967C481.326 737.577 481.427 738.187 481.529 738.797C481.692 739.693 481.875 740.547 482.038 741.422C482.139 741.971 482.241 742.5 482.363 743.049C482.587 744.066 482.811 745.063 483.055 746.059C483.136 746.446 483.217 746.832 483.319 747.199C483.665 748.561 484.011 749.924 484.397 751.267C484.479 751.531 484.56 751.775 484.621 752.02C484.926 753.098 485.252 754.155 485.577 755.213C485.719 755.701 485.903 756.149 486.045 756.637C486.309 757.451 486.574 758.264 486.879 759.078C487.062 759.607 487.265 760.116 487.449 760.624C487.713 761.356 487.998 762.109 488.283 762.821C488.486 763.35 488.71 763.858 488.933 764.387C489.218 765.079 489.503 765.771 489.808 766.462C490.032 766.991 490.276 767.52 490.52 768.029C490.825 768.679 491.11 769.33 491.415 769.981C491.659 770.51 491.924 771.019 492.188 771.527C492.493 772.158 492.819 772.768 493.144 773.378C493.409 773.887 493.693 774.396 493.978 774.904C494.304 775.494 494.629 776.084 494.975 776.674C495.26 777.182 495.565 777.67 495.85 778.159C496.195 778.728 496.541 779.298 496.887 779.847C497.192 780.335 497.497 780.803 497.823 781.271C498.189 781.82 498.535 782.349 498.901 782.898C499.226 783.366 499.552 783.814 499.877 784.282C500.243 784.81 500.63 785.319 501.016 785.828C501.342 786.275 501.688 786.723 502.034 787.15C502.42 787.638 502.807 788.146 503.213 788.614C503.559 789.042 503.925 789.469 504.271 789.875C504.678 790.343 505.085 790.811 505.492 791.279C505.858 791.686 506.224 792.093 506.59 792.479C507.017 792.927 507.424 793.374 507.851 793.801C508.217 794.188 508.604 794.574 508.99 794.941C509.418 795.368 509.865 795.795 510.313 796.202C510.699 796.568 511.086 796.934 511.472 797.28C511.92 797.687 512.387 798.073 512.835 798.46C513.242 798.806 513.628 799.131 514.035 799.477C514.503 799.863 514.971 800.229 515.459 800.596C515.866 800.901 516.273 801.226 516.68 801.531C517.168 801.897 517.656 802.223 518.144 802.569C518.551 802.854 518.978 803.159 519.385 803.423C519.894 803.749 520.402 804.074 520.911 804.4C521.338 804.664 521.745 804.928 522.172 805.193C522.701 805.498 523.23 805.803 523.759 806.108C524.186 806.352 524.593 806.596 525.02 806.82C525.569 807.105 526.138 807.39 526.688 807.654C527.115 807.858 527.522 808.081 527.949 808.285C528.539 808.57 529.129 808.814 529.739 809.078C530.146 809.261 530.532 809.444 530.939 809.607C531.61 809.871 532.282 810.116 532.973 810.38C533.319 810.502 533.645 810.644 533.99 810.766C535.007 811.133 536.045 811.458 537.103 811.763L610.618 833.02C609.58 832.715 608.543 832.39 607.505 832.024C607.16 831.901 606.814 831.759 606.488 831.637C605.817 831.393 605.125 831.149 604.454 830.864C604.047 830.701 603.661 830.518 603.254 830.335C602.664 830.071 602.054 829.827 601.464 829.542C601.037 829.338 600.63 829.135 600.223 828.932C599.653 828.647 599.104 828.382 598.555 828.098C598.128 827.874 597.721 827.63 597.294 827.386C596.765 827.081 596.236 826.796 595.707 826.47C595.28 826.226 594.873 825.941 594.446 825.677C593.937 825.352 593.429 825.026 592.92 824.701C592.493 824.416 592.086 824.131 591.679 823.846C591.191 823.5 590.703 823.155 590.215 822.809C589.808 822.504 589.401 822.178 588.994 821.873C588.527 821.507 588.038 821.141 587.57 820.754C587.164 820.429 586.777 820.083 586.37 819.758C585.902 819.371 585.455 818.964 585.007 818.578C584.621 818.232 584.234 817.866 583.848 817.5C583.4 817.093 582.973 816.666 582.526 816.238C582.139 815.872 581.773 815.486 581.387 815.099C580.959 814.652 580.532 814.225 580.105 813.757C579.739 813.37 579.373 812.963 579.007 812.557C578.6 812.089 578.193 811.621 577.786 811.153C577.44 810.746 577.074 810.319 576.728 809.892C576.321 809.404 575.935 808.915 575.549 808.407C575.203 807.98 574.877 807.532 574.531 807.085C574.145 806.576 573.779 806.068 573.392 805.539C573.067 805.091 572.741 804.623 572.416 804.155C572.05 803.626 571.684 803.077 571.338 802.548C571.033 802.081 570.707 801.592 570.402 801.124C570.056 800.575 569.71 800.006 569.365 799.436C569.06 798.948 568.775 798.46 568.49 797.951C568.144 797.361 567.819 796.771 567.493 796.181C567.208 795.673 566.944 795.164 566.659 794.656C566.334 794.046 566.029 793.415 565.723 792.805C565.459 792.296 565.195 791.767 564.951 791.259C564.645 790.628 564.34 789.957 564.055 789.306C563.811 788.777 563.567 788.268 563.343 787.719C563.038 787.048 562.774 786.356 562.489 785.665C562.265 785.136 562.042 784.607 561.838 784.078C561.553 783.346 561.289 782.614 561.004 781.881C560.821 781.373 560.618 780.864 560.435 780.335C560.15 779.522 559.885 778.708 559.601 777.894C559.438 777.426 559.275 776.959 559.133 776.491C558.807 775.453 558.502 774.416 558.197 773.358C558.116 773.073 558.034 772.809 557.953 772.524C557.566 771.181 557.221 769.839 556.875 768.456C556.773 768.069 556.692 767.683 556.61 767.296C556.366 766.299 556.143 765.303 555.919 764.286C555.797 763.757 555.695 763.207 555.593 762.658C555.41 761.784 555.247 760.909 555.085 760.034C554.983 759.424 554.881 758.814 554.78 758.203C554.637 757.369 554.495 756.535 554.373 755.681C554.271 755.05 554.19 754.4 554.108 753.749C553.986 752.915 553.885 752.081 553.783 751.247C553.701 750.575 553.64 749.904 553.559 749.233C553.478 748.399 553.376 747.565 553.315 746.731C553.254 746.039 553.213 745.327 553.152 744.635C553.091 743.802 553.03 742.967 552.969 742.113C552.929 741.401 552.888 740.669 552.868 739.937C552.827 739.143 552.786 738.35 552.766 737.557C552.705 735.644 552.664 733.712 552.664 731.759L553.356 423.216C553.356 421.039 553.417 418.863 553.498 416.686C553.539 415.791 553.6 414.896 553.661 414.021C553.722 412.74 553.783 411.458 553.885 410.177C553.885 410.177 553.885 410.136 553.885 410.116C554.027 408.183 554.23 406.271 554.434 404.359C554.474 403.973 554.515 403.566 554.556 403.179C554.78 401.308 555.024 399.436 555.288 397.565C555.329 397.219 555.39 396.894 555.451 396.568C555.654 395.287 555.858 394.026 556.081 392.764C556.326 391.381 556.59 389.998 556.854 388.615C557.038 387.699 557.221 386.784 557.404 385.868C557.709 384.445 558.034 383.041 558.36 381.617C558.563 380.763 558.767 379.908 558.97 379.054C559.336 377.569 559.743 376.104 560.15 374.62C560.353 373.887 560.536 373.155 560.76 372.423C561.37 370.307 562.021 368.192 562.713 366.096C562.733 366.035 562.754 365.974 562.774 365.893C563.506 363.696 564.279 361.519 565.073 359.363C565.337 358.672 565.601 357.98 565.866 357.288C566.435 355.824 567.005 354.38 567.595 352.935C567.9 352.203 568.225 351.471 568.531 350.738C569.202 349.152 569.914 347.585 570.626 346.039C570.972 345.307 571.297 344.575 571.643 343.863C572.457 342.154 573.311 340.466 574.165 338.798C574.43 338.289 574.674 337.781 574.938 337.272C575.142 336.865 575.365 336.479 575.589 336.092C576.26 334.831 576.952 333.59 577.664 332.349C577.969 331.821 578.254 331.312 578.559 330.783C579.251 329.603 579.942 328.444 580.654 327.305C580.919 326.857 581.183 326.43 581.468 325.982C582.444 324.436 583.441 322.911 584.438 321.406C584.54 321.263 584.641 321.121 584.743 320.978C585.658 319.636 586.594 318.314 587.55 316.991C587.794 316.666 588.018 316.32 588.262 315.995C589.3 314.591 590.337 313.228 591.395 311.865C591.557 311.662 591.72 311.458 591.903 311.235C592.859 310.035 593.815 308.875 594.792 307.716C595.036 307.431 595.28 307.126 595.524 306.841C596.623 305.559 597.741 304.298 598.88 303.078C599.104 302.834 599.328 302.61 599.531 302.386C600.528 301.308 601.545 300.271 602.562 299.233C602.806 298.989 603.03 298.745 603.274 298.521C603.925 297.891 604.576 297.28 605.227 296.67C606 295.938 606.753 295.205 607.546 294.514C608.197 293.944 608.848 293.375 609.499 292.825C610.272 292.154 611.045 291.483 611.838 290.832C612.509 290.283 613.181 289.754 613.852 289.225C614.645 288.594 615.418 287.984 616.232 287.394C616.924 286.886 617.615 286.397 618.307 285.889C619.1 285.319 619.914 284.75 620.727 284.201C621.948 283.387 623.168 282.573 624.409 281.821C624.552 281.739 624.694 281.658 624.837 281.556C626.077 280.803 627.318 280.092 628.559 279.4C628.844 279.237 629.129 279.095 629.413 278.932C630.756 278.22 632.099 277.528 633.461 276.878C633.726 276.755 633.99 276.633 634.255 276.511C635.496 275.942 636.757 275.372 638.018 274.864C638.221 274.782 638.425 274.681 638.649 274.599C640.032 274.05 641.435 273.521 642.839 273.053C643.164 272.952 643.47 272.85 643.795 272.728C645.239 272.26 646.684 271.812 648.128 271.426L878.722 209.648C880.186 209.262 881.651 208.916 883.095 208.631C883.319 208.59 883.543 208.529 883.746 208.489C885.129 208.224 886.492 207.98 887.855 207.797C888.119 207.756 888.364 207.736 888.628 207.695C890.011 207.512 891.395 207.37 892.757 207.288C892.92 207.288 893.103 207.288 893.266 207.268C894.527 207.187 895.768 207.146 897.009 207.146C897.253 207.146 897.497 207.146 897.761 207.146C899.084 207.146 900.406 207.207 901.708 207.288C901.952 207.288 902.176 207.329 902.42 207.35C903.742 207.451 905.044 207.594 906.325 207.756C906.447 207.756 906.569 207.797 906.691 207.817C907.953 208 909.214 208.224 910.455 208.489C910.597 208.509 910.74 208.55 910.882 208.57C912.265 208.875 913.628 209.221 914.991 209.607L841.476 188.35L841.395 188.371Z" fill="url(#paint12_linear_126_4897)"/>
<path d="M878.66 209.69C930.877 195.695 973.066 240.996 972.903 310.849L972.212 619.393C972.049 689.246 929.616 757.208 877.399 771.203L646.805 832.981C594.608 846.976 552.399 801.695 552.562 731.821L553.254 423.278C553.416 353.425 595.869 285.443 648.066 271.468L878.66 209.69Z" fill="url(#paint13_linear_126_4897)"/>
<path d="M810.231 296.59C773.677 306.374 709.479 381.72 668.043 469.617C631.956 545.898 618.368 609.141 612.408 670.756C607.2 714.714 633.217 746.813 665.337 738.209L792.554 704.116C801.586 701.695 809.153 689.877 809.275 677.753C809.418 665.487 801.993 657.554 792.859 659.995L665.337 694.169C652.685 697.566 643.083 685.239 644.833 668.111C651.912 600.556 665.764 549.194 694.812 487.7C739.666 395.247 784.112 356.496 800.386 345.146C803.844 342.684 807.058 341.098 809.987 340.304C820.585 337.457 827.339 345.369 827.44 362.68C838.364 355.296 849.369 349.641 860.048 346.285C857.16 311.765 838.588 288.982 810.231 296.57" fill="#00BE65"/>
<path d="M863.53 345.262C862.37 345.567 861.231 345.913 860.072 346.259C849.413 349.595 838.387 355.25 827.464 362.654C758.18 409.501 691.968 526.161 732.773 567.455C738.693 573.11 748.396 578.175 763.469 574.147C763.509 574.147 763.53 574.147 763.57 574.127L763.672 531.002C732.956 539.241 771.361 455.758 823.233 412.044C811.353 476.161 788.876 514.444 771.646 526.934C788.896 514.444 811.374 476.161 823.253 412.044C834.584 402.443 846.483 394.835 858.505 390.38C860.621 389.546 862.716 388.976 864.832 388.407C875.267 385.6 880.576 389.302 880.535 405.413C880.434 448.801 854.884 525.327 819.449 575.652C808.18 592.231 815.361 606.551 820.873 610.315C839.913 626.018 852.505 645.079 857.163 668.94C859.238 678.724 865.462 684.44 873.273 682.345C884.726 679.273 889.282 664.22 889.303 654.68C889.343 632.914 871.158 599.676 853.949 582.528C876.813 546.604 913.306 461.617 913.469 396.869C913.53 374.025 905.881 333.911 863.509 345.262" fill="#00CDD6"/>
<path d="M761.5 531.5L762 574.5C800 566 850.774 483.018 858.586 390.36C846.524 394.795 834.583 402.443 823.212 412.065C809.38 486.658 781.206 526.304 763.631 531.003" fill="url(#paint14_linear_126_4897)"/>
<path d="M248.047 290.06C247.254 289.836 246.44 289.632 245.626 289.449C245.484 289.429 245.362 289.388 245.24 289.348C245.138 289.327 245.036 289.307 244.935 289.287C244.08 289.104 243.226 288.961 242.351 288.839C242.27 288.839 242.189 288.819 242.107 288.798C241.233 288.676 240.337 288.575 239.422 288.514C239.259 288.514 239.097 288.493 238.934 288.473C238.812 288.473 238.669 288.473 238.547 288.473C237.774 288.432 237.001 288.392 236.228 288.392C236.066 288.392 235.883 288.392 235.72 288.392C234.866 288.392 234.011 288.432 233.157 288.473C233.035 288.473 232.933 288.473 232.811 288.473C232.119 288.514 231.428 288.595 230.736 288.676C230.492 288.697 230.248 288.717 229.984 288.758C229.8 288.778 229.638 288.798 229.455 288.819C228.519 288.941 227.583 289.104 226.648 289.287C226.505 289.307 226.342 289.348 226.2 289.388C225.203 289.592 224.206 289.816 223.21 290.1L65.358 332.391C64.6663 332.574 63.9747 332.798 63.2831 333.021C62.978 333.123 62.6932 333.204 62.3881 333.286C62.1643 333.347 61.9609 333.428 61.7371 333.51C60.7811 333.835 59.825 334.181 58.869 334.567C58.7266 334.628 58.5842 334.689 58.4418 334.75C57.5671 335.096 56.7127 335.483 55.8584 335.89C55.6753 335.971 55.4922 336.052 55.3092 336.134C54.3734 336.581 53.4581 337.049 52.5427 337.537C52.3393 337.639 52.1562 337.741 51.9528 337.863C51.0984 338.331 50.2441 338.819 49.3897 339.327C49.288 339.388 49.1863 339.449 49.1049 339.51C48.4133 339.938 47.742 340.385 47.0708 340.833C46.908 340.934 46.7453 341.036 46.5826 341.138C46.0333 341.504 45.4841 341.89 44.9349 342.297C44.467 342.643 43.9788 342.968 43.5109 343.335C42.9617 343.741 42.4328 344.169 41.8836 344.596C41.4158 344.962 40.9479 345.328 40.5004 345.694C39.9715 346.142 39.4426 346.589 38.9137 347.057C38.4662 347.444 38.0187 347.83 37.5712 348.217C37.0423 348.705 36.5134 349.193 36.0049 349.681C35.659 350.007 35.2929 350.332 34.9471 350.678C34.8454 350.78 34.7437 350.861 34.642 350.963C34.4792 351.125 34.3165 351.288 34.1538 351.451C33.4418 352.163 32.7502 352.875 32.0586 353.607C31.9162 353.77 31.7534 353.912 31.611 354.075C30.8381 354.909 30.0651 355.784 29.3124 356.658C29.1497 356.862 28.987 357.045 28.8039 357.248C28.1326 358.042 27.4613 358.855 26.8104 359.669C26.6883 359.811 26.5866 359.954 26.4646 360.096C25.7323 361.012 25.0203 361.968 24.3084 362.924C24.1456 363.147 23.9829 363.371 23.8202 363.595C23.1692 364.49 22.5386 365.405 21.908 366.321C21.847 366.422 21.7656 366.524 21.7046 366.626C21.6843 366.667 21.6639 366.707 21.6436 366.728C20.9723 367.724 20.3214 368.741 19.6704 369.758C19.4874 370.064 19.3043 370.369 19.1212 370.654C18.633 371.447 18.1652 372.24 17.6973 373.034C17.4939 373.379 17.2905 373.745 17.087 374.091C16.5988 374.946 16.131 375.8 15.6631 376.654C15.5207 376.919 15.3783 377.183 15.2156 377.468C15.1749 377.549 15.1342 377.651 15.0732 377.732C14.9308 377.997 14.8088 378.261 14.6664 378.526C14.0765 379.665 13.5069 380.824 12.9373 381.984C12.6932 382.472 12.4695 382.981 12.2457 383.469C11.7575 384.527 11.2693 385.605 10.8218 386.683C10.6794 386.988 10.5574 387.313 10.415 387.619C10.3336 387.802 10.2522 388.005 10.1709 388.188C9.76403 389.165 9.37754 390.161 8.99104 391.178C8.80797 391.646 8.62489 392.114 8.44182 392.602C7.89259 394.087 7.3637 395.572 6.8755 397.077C6.8755 397.118 6.83482 397.179 6.83482 397.22C6.36696 398.644 5.91944 400.068 5.51261 401.512C5.37022 402.02 5.22782 402.509 5.10577 403.017C4.82099 404.014 4.55655 405.031 4.2921 406.048C4.25142 406.211 4.21074 406.394 4.17005 406.557C4.06835 406.964 3.96664 407.391 3.86493 407.798C3.64117 408.754 3.41741 409.73 3.21399 410.706C3.0716 411.337 2.94955 411.968 2.8275 412.578C2.64442 413.534 2.46135 414.47 2.29861 415.426C2.23759 415.771 2.17656 416.117 2.13588 416.463C2.05451 416.992 1.95281 417.501 1.87144 418.029C1.83076 418.253 1.79007 418.497 1.76973 418.721C1.58665 420.003 1.42392 421.264 1.26119 422.545C1.2205 422.81 1.20016 423.095 1.17982 423.359C1.03743 424.661 0.915378 425.983 0.813669 427.305C0.813669 427.305 0.813669 427.326 0.813669 427.346C0.752644 428.221 0.71196 429.095 0.650935 429.97C0.610252 430.58 0.569568 431.191 0.549227 431.801C0.488201 433.286 0.46786 434.771 0.447518 436.276L0 647.525C0 648.867 0.0203417 650.19 0.0610252 651.491C0.0610252 651.634 0.0610252 651.776 0.0610252 651.919C0.0610252 652.325 0.101709 652.712 0.101709 653.119C0.12205 653.607 0.142392 654.115 0.183076 654.604C0.223759 655.173 0.264442 655.763 0.305126 656.333C0.345809 656.821 0.366151 657.289 0.427176 657.777C0.488201 658.347 0.549227 658.916 0.610252 659.506C0.650935 659.974 0.71196 660.421 0.752644 660.889C0.813669 661.459 0.895036 662.028 0.976403 662.618C1.03743 663.066 1.09845 663.493 1.15948 663.941C1.24085 664.53 1.34255 665.1 1.44426 665.67C1.50529 666.076 1.58665 666.504 1.64768 666.91C1.74939 667.521 1.87144 668.111 1.99349 668.721C2.07486 669.087 2.13588 669.473 2.21725 669.84C2.35964 670.531 2.52237 671.223 2.68511 671.894C2.74613 672.159 2.80716 672.423 2.86818 672.667C3.09194 673.603 3.33604 674.539 3.60049 675.454C3.64117 675.637 3.70219 675.8 3.76322 675.962C3.96664 676.695 4.1904 677.427 4.41415 678.159C4.51586 678.485 4.63791 678.81 4.73962 679.136C4.9227 679.685 5.10577 680.255 5.30919 680.804C5.43124 681.17 5.57363 681.516 5.69568 681.862C5.87876 682.37 6.06183 682.879 6.26525 683.367C6.40764 683.733 6.57038 684.079 6.71277 684.445C6.91619 684.913 7.09926 685.401 7.30268 685.849C7.46541 686.215 7.62815 686.561 7.79088 686.927C7.9943 687.374 8.19772 687.822 8.40113 688.269C8.56387 688.635 8.74694 688.981 8.93002 689.327C9.15378 689.754 9.35719 690.181 9.58095 690.588C9.76403 690.934 9.96745 691.28 10.1505 691.626C10.3743 692.032 10.598 692.439 10.8218 692.846C11.0252 693.192 11.2286 693.517 11.432 693.863C11.6762 694.25 11.8999 694.636 12.144 695.023C12.3474 695.348 12.5712 695.674 12.7746 695.999C13.0187 696.365 13.2628 696.752 13.5272 697.118C13.751 697.443 13.9748 697.749 14.1985 698.054C14.463 698.42 14.7071 698.766 14.9715 699.111C15.1953 699.417 15.4394 699.722 15.6631 700.027C15.9276 700.373 16.192 700.698 16.4768 701.044C16.7209 701.329 16.965 701.634 17.2091 701.919C17.4939 702.244 17.7583 702.569 18.0431 702.875C18.2872 703.159 18.5517 703.424 18.7958 703.709C19.0805 704.014 19.3653 704.319 19.6704 704.624C19.9349 704.888 20.179 705.153 20.4434 705.397C20.7486 705.682 21.0333 705.967 21.3385 706.251C21.6029 706.495 21.8674 706.74 22.1318 706.984C22.4369 707.268 22.7421 707.533 23.0675 707.797C23.332 708.021 23.6167 708.265 23.8812 708.489C24.2067 708.753 24.5321 708.997 24.8576 709.262C25.1424 709.486 25.4068 709.689 25.6916 709.913C26.0171 710.157 26.3629 710.401 26.6883 710.625C26.9731 710.828 27.2579 711.032 27.5427 711.215C27.8885 711.439 28.2343 711.662 28.5801 711.886C28.8649 712.069 29.1497 712.252 29.4345 712.415C29.8006 712.639 30.1668 712.822 30.5329 713.045C30.8177 713.208 31.1025 713.371 31.4076 713.534C31.7941 713.737 32.1603 713.92 32.5468 714.103C32.8315 714.246 33.1163 714.388 33.4011 714.53C33.8079 714.713 34.2148 714.897 34.6216 715.059C34.9064 715.181 35.1708 715.303 35.4556 715.425C35.9031 715.608 36.371 715.771 36.8389 715.954C37.083 716.036 37.3067 716.137 37.5305 716.219C38.2424 716.463 38.9341 716.687 39.6664 716.89L89.9918 731.434C89.2798 731.231 88.5679 731.007 87.8559 730.763C87.6118 730.682 87.388 730.58 87.1643 730.499C86.6964 730.336 86.2286 730.153 85.7811 729.97C85.4963 729.848 85.2318 729.726 84.9674 729.624C84.5606 729.441 84.1537 729.278 83.7469 729.095C83.4621 728.953 83.1773 728.81 82.8925 728.668C82.506 728.485 82.1195 728.302 81.7534 728.098C81.4686 727.936 81.1838 727.773 80.8787 727.61C80.5125 727.407 80.1464 727.203 79.7803 726.98C79.4955 726.797 79.2107 726.613 78.9259 726.451C78.5801 726.227 78.2343 726.003 77.8885 725.779C77.6037 725.596 77.3189 725.393 77.0341 725.189C76.6883 724.945 76.3628 724.722 76.0374 724.478C75.7526 724.274 75.4678 724.05 75.2034 723.827C74.8779 723.582 74.5524 723.318 74.227 723.054C73.9422 722.83 73.6777 722.606 73.4133 722.362C73.1082 722.098 72.7827 721.833 72.4776 721.548C72.2131 721.304 71.9487 721.06 71.6842 720.816C71.3791 720.531 71.074 720.246 70.7892 719.962C70.5248 719.697 70.2807 719.453 70.0162 719.189C69.7314 718.884 69.4263 718.578 69.1415 718.273C68.8974 718.009 68.633 717.724 68.3889 717.46C68.1041 717.134 67.8193 716.829 67.5549 716.504C67.3108 716.219 67.0667 715.934 66.8226 715.649C66.5581 715.324 66.2733 714.978 66.0089 714.632C65.7851 714.327 65.541 714.042 65.3173 713.737C65.0528 713.391 64.8087 713.025 64.5443 712.679C64.3205 712.374 64.0968 712.049 63.873 711.744C63.6289 711.377 63.3848 711.011 63.1407 710.645C62.9373 710.32 62.7135 709.994 62.5101 709.669C62.266 709.282 62.0423 708.896 61.7982 708.509C61.5947 708.184 61.3913 707.838 61.1879 707.492C60.9641 707.085 60.7404 706.678 60.5166 706.272C60.3336 705.926 60.1301 705.58 59.9471 705.234C59.7233 704.807 59.5199 704.4 59.2961 703.973C59.1131 703.627 58.93 703.261 58.7672 702.915C58.5638 702.468 58.3604 702.02 58.157 701.593C57.9943 701.227 57.8315 700.881 57.6688 700.515C57.4654 700.047 57.2823 699.579 57.0789 699.111C56.9365 698.745 56.7738 698.399 56.6314 698.033C56.4279 697.545 56.2449 697.037 56.0618 696.528C55.9397 696.182 55.7974 695.836 55.6753 695.47C55.4719 694.921 55.2888 694.351 55.1057 693.802C55.004 693.477 54.882 693.172 54.7803 692.846C54.5565 692.134 54.3531 691.422 54.1293 690.71C54.0683 690.527 54.0073 690.324 53.9666 690.141C53.7022 689.225 53.4581 688.29 53.2343 687.354C53.1733 687.089 53.1122 686.825 53.0512 686.561C52.8885 685.889 52.7258 685.198 52.5834 684.506C52.502 684.14 52.441 683.753 52.3596 683.387C52.2375 682.797 52.1155 682.187 52.0138 681.597C51.9324 681.19 51.8714 680.763 51.8104 680.356C51.7087 679.787 51.607 679.217 51.5256 678.627C51.4646 678.18 51.4035 677.753 51.3425 677.305C51.2611 676.735 51.1798 676.166 51.1188 675.576C51.0577 675.128 51.017 674.661 50.9764 674.193C50.9153 673.623 50.8543 673.054 50.7933 672.464C50.7526 671.996 50.7119 671.508 50.6712 671.019C50.6306 670.45 50.5899 669.88 50.5492 669.29C50.5288 668.802 50.5085 668.294 50.4678 667.805C50.4475 667.256 50.4271 666.727 50.4068 666.178C50.3661 664.876 50.3458 663.554 50.3458 662.211L50.8136 451.003C50.8136 449.518 50.8543 448.013 50.9153 446.528C50.9357 445.918 50.9967 445.308 51.017 444.697C51.0577 443.823 51.0984 442.948 51.1798 442.073C51.1798 442.073 51.1798 442.053 51.1798 442.033C51.2815 440.71 51.4035 439.409 51.5459 438.086C51.5663 437.822 51.607 437.557 51.6273 437.273C51.7697 435.991 51.9324 434.71 52.1358 433.428C52.1765 433.204 52.2172 432.96 52.2376 432.736C52.3799 431.862 52.5223 431.007 52.6647 430.133C52.8275 429.177 53.0105 428.241 53.1936 427.285C53.3157 426.654 53.4377 426.024 53.5801 425.413C53.7835 424.437 54.0073 423.481 54.231 422.505C54.3734 421.915 54.4955 421.325 54.6582 420.755C54.9227 419.738 55.1871 418.721 55.4719 417.724C55.6143 417.216 55.7363 416.728 55.8787 416.219C56.3059 414.775 56.7534 413.33 57.2213 411.886C57.2213 411.846 57.2416 411.805 57.262 411.744C57.7502 410.239 58.279 408.754 58.8283 407.269C59.0113 406.801 59.1944 406.333 59.3775 405.845C59.764 404.848 60.1505 403.851 60.5573 402.854C60.7607 402.346 60.9845 401.858 61.2083 401.349C61.6761 400.271 62.144 399.193 62.6322 398.135C62.8559 397.627 63.1 397.138 63.3238 396.65C63.873 395.47 64.4629 394.331 65.0528 393.172C65.2359 392.826 65.3987 392.48 65.5817 392.134C65.7241 391.87 65.8868 391.585 66.0292 391.321C66.4971 390.466 66.965 389.612 67.4532 388.758C67.6566 388.392 67.86 388.046 68.0634 387.7C68.5313 386.886 69.0195 386.093 69.4873 385.32C69.6704 385.015 69.8535 384.71 70.0366 384.425C70.7078 383.367 71.3791 382.309 72.0707 381.292C72.1318 381.191 72.2131 381.089 72.2741 380.987C72.9047 380.072 73.5353 379.156 74.1863 378.261C74.349 378.038 74.5117 377.814 74.6745 377.59C75.3864 376.634 76.0984 375.698 76.8103 374.763C76.9324 374.62 77.0341 374.478 77.1562 374.335C77.8071 373.522 78.458 372.708 79.1293 371.935C79.292 371.732 79.4751 371.528 79.6379 371.345C80.3905 370.47 81.1635 369.616 81.9365 368.762C82.0789 368.599 82.2416 368.436 82.384 368.274C83.0756 367.541 83.7672 366.829 84.4588 366.117C84.6216 365.955 84.7843 365.792 84.947 365.629C85.3946 365.202 85.8421 364.775 86.2896 364.348C86.8185 363.859 87.3474 363.351 87.8763 362.863C88.3238 362.476 88.7713 362.09 89.1985 361.703C89.7273 361.235 90.2562 360.788 90.8055 360.34C91.253 359.974 91.7208 359.608 92.1887 359.242C92.7379 358.815 93.2668 358.387 93.816 357.981C94.2839 357.635 94.7721 357.289 95.24 356.964C95.7892 356.577 96.3384 356.191 96.8876 355.804C97.7216 355.235 98.5557 354.685 99.41 354.177C99.5117 354.116 99.6134 354.055 99.7151 353.994C100.549 353.485 101.404 352.997 102.258 352.529C102.461 352.427 102.644 352.305 102.848 352.204C103.763 351.715 104.679 351.248 105.614 350.8C105.797 350.719 105.98 350.637 106.163 350.556C107.018 350.169 107.872 349.783 108.747 349.437C108.889 349.376 109.032 349.315 109.174 349.254C110.13 348.868 111.086 348.522 112.042 348.196C112.266 348.115 112.469 348.054 112.693 347.973C113.67 347.647 114.666 347.342 115.663 347.077L273.515 304.787C274.512 304.523 275.508 304.299 276.505 304.075C276.647 304.034 276.81 304.014 276.953 303.973C277.888 303.79 278.844 303.628 279.76 303.506C279.943 303.485 280.106 303.465 280.289 303.444C281.245 303.322 282.18 303.221 283.116 303.16C283.238 303.16 283.34 303.16 283.462 303.16C284.316 303.099 285.171 303.078 286.025 303.078C286.188 303.078 286.371 303.078 286.534 303.078C287.449 303.078 288.344 303.119 289.239 303.18C289.402 303.18 289.564 303.2 289.727 303.221C290.622 303.282 291.517 303.383 292.412 303.506C292.494 303.506 292.575 303.526 292.656 303.546C293.531 303.668 294.385 303.831 295.24 304.014C295.342 304.034 295.443 304.055 295.545 304.075C296.501 304.279 297.437 304.523 298.352 304.787L248.027 290.243L248.047 290.06Z" fill="url(#paint15_linear_126_4897)"/>
<path d="M273.555 304.645C309.296 295.064 338.181 326.085 338.079 373.888L337.611 585.097C337.509 632.92 308.441 679.441 272.701 689.022L114.849 731.313C79.1085 740.894 50.2233 709.893 50.325 662.07L50.7928 450.861C50.8945 403.038 79.9629 356.517 115.703 346.936L273.555 304.645Z" fill="url(#paint16_linear_126_4897)"/>
<path d="M268.633 406.312V401.593C268.694 375.393 252.807 358.347 233.238 363.595L127.665 391.89C108.096 397.138 92.1074 422.728 92.0463 448.928L91.9243 501.145L91.5988 642.419C91.5378 668.619 107.425 685.665 127.014 680.417L267.758 642.704C287.327 637.455 303.315 611.865 303.377 585.665L303.438 561.235L303.641 468.822L303.702 444.392C303.763 418.355 288.059 401.349 268.653 406.292L268.633 406.312ZM102.177 446.202C102.217 427.488 113.629 409.221 127.624 405.458L233.198 377.163C247.193 373.42 258.523 385.584 258.482 404.298V409.018L127.522 444.107C117.596 446.772 108.604 454.665 102.115 465.202L102.156 446.202H102.177ZM293.307 550.393L208.076 573.237C205.289 573.989 203.01 571.548 203.031 567.805L203.153 516.117C203.153 512.374 205.451 508.713 208.238 507.96L293.47 485.116L293.328 550.372L293.307 550.393ZM208.238 494.392C199.837 496.65 193.002 507.614 192.982 518.843L192.86 570.531C192.84 581.76 199.634 589.062 208.035 586.825L293.267 563.981L293.206 588.411C293.165 607.126 281.753 625.393 267.758 629.156L127.014 666.869C113.019 670.612 101.688 658.448 101.729 639.734L102.054 498.46C102.095 479.746 113.507 461.479 127.502 457.716L268.246 420.002C282.241 416.259 293.572 428.424 293.531 447.138L293.47 471.569L208.238 494.412V494.392Z" fill="white"/>
<path d="M229.271 556.882C238.323 554.461 245.687 542.642 245.728 530.539C245.748 518.436 238.425 510.564 229.373 512.984C220.321 515.405 212.957 527.223 212.917 539.327C212.896 551.43 220.219 559.302 229.271 556.882ZM229.332 526.552C232.79 525.637 235.577 528.627 235.577 533.245C235.577 537.862 232.75 542.378 229.292 543.293C225.834 544.209 223.047 541.219 223.047 536.601C223.047 531.983 225.874 527.468 229.332 526.552Z" fill="white"/>
<path d="M446.542 458.61C429.516 445.754 412.49 432.898 395.464 420.063C394.264 419.147 393.063 418.029 391.355 418.964C389.768 419.839 389.707 421.405 389.687 422.951C389.687 427.61 389.687 432.268 389.687 436.926C389.687 439.937 388.222 441.442 385.293 441.442C376.424 441.442 279.577 441.442 270.708 441.442V483.59C279.984 483.59 377.238 483.59 386.534 483.549C388.975 483.549 389.829 484.343 389.748 486.763C389.605 491.34 389.707 495.897 389.707 500.474C389.707 502.02 389.748 503.586 391.334 504.461C393.023 505.396 394.243 504.318 395.443 503.403C412.469 490.547 429.495 477.711 446.522 464.835C449.451 462.618 449.471 460.828 446.542 458.631V458.61Z" fill="url(#paint17_linear_126_4897)"/>
<path d="M385.211 674.334C368.185 661.478 351.159 648.622 334.133 635.787C332.933 634.871 331.733 633.752 330.024 634.688C328.438 635.563 328.377 637.129 328.356 638.675C328.356 643.333 328.356 647.992 328.356 652.65C328.356 655.66 326.892 657.166 323.962 657.166C315.093 657.166 218.246 657.166 209.377 657.166V699.314C218.653 699.314 315.907 699.314 325.203 699.273C327.644 699.273 328.499 700.066 328.417 702.487C328.275 707.064 328.377 711.62 328.377 716.197C328.377 717.743 328.417 719.31 330.004 720.184C331.692 721.12 332.913 720.042 334.113 719.127C351.139 706.271 368.165 693.435 385.191 680.559C388.12 678.341 388.141 676.551 385.211 674.354V674.334Z" fill="url(#paint18_linear_126_4897)"/>
<path d="M323.901 566.463C306.875 553.607 289.849 540.751 272.823 527.915C271.623 527 270.423 525.881 268.714 526.817C267.128 527.692 267.066 529.258 267.046 530.804C267.046 535.462 267.046 540.12 267.046 544.779C267.046 547.789 265.582 549.295 262.652 549.295C253.783 549.295 156.936 549.295 148.067 549.295V591.443C157.343 591.443 254.597 591.443 263.893 591.402C266.334 591.402 267.189 592.195 267.107 594.616C266.965 599.193 267.066 603.749 267.066 608.326C267.066 609.872 267.107 611.439 268.694 612.313C270.382 613.249 271.603 612.171 272.803 611.255C289.829 598.4 306.855 585.564 323.881 572.688C326.81 570.47 326.83 568.68 323.901 566.483V566.463Z" fill="url(#paint19_linear_126_4897)"/>
</g>
<defs>
<linearGradient id="paint0_linear_126_4897" x1="978.98" y1="954.156" x2="325.496" y2="300.673" gradientUnits="userSpaceOnUse">
<stop stop-color="#009AA2"/>
<stop offset="0.2" stop-color="#0DAAB2"/>
<stop offset="0.73" stop-color="#2FD5DA"/>
<stop offset="1" stop-color="#3CE6EA"/>
</linearGradient>
<linearGradient id="paint1_linear_126_4897" x1="862.658" y1="1070.48" x2="209.175" y2="416.995" gradientUnits="userSpaceOnUse">
<stop stop-color="#009AA2"/>
<stop offset="0.2" stop-color="#0DAAB2"/>
<stop offset="0.73" stop-color="#2FD5DA"/>
<stop offset="1" stop-color="#3CE6EA"/>
</linearGradient>
<linearGradient id="paint2_linear_126_4897" x1="176.444" y1="190.304" x2="299.41" y2="190.304" gradientUnits="userSpaceOnUse">
<stop stop-color="#FFD754"/>
<stop offset="0.02" stop-color="#FED551"/>
<stop offset="0.3" stop-color="#F9C22E"/>
<stop offset="0.57" stop-color="#F5B314"/>
<stop offset="0.81" stop-color="#F2AB05"/>
<stop offset="1" stop-color="#F2A800"/>
</linearGradient>
<linearGradient id="paint3_linear_126_4897" x1="187.266" y1="190.303" x2="288.588" y2="190.303" gradientUnits="userSpaceOnUse">
<stop stop-color="#F2A800"/>
<stop offset="0.19" stop-color="#F2AB05"/>
<stop offset="0.43" stop-color="#F5B314"/>
<stop offset="0.7" stop-color="#F9C22E"/>
<stop offset="0.98" stop-color="#FED551"/>
<stop offset="0.99" stop-color="#FFD754"/>
</linearGradient>
<linearGradient id="paint4_linear_126_4897" x1="448.96" y1="149.484" x2="537.417" y2="119.663" gradientUnits="userSpaceOnUse">
<stop stop-color="#FFD754"/>
<stop offset="0.02" stop-color="#FED551"/>
<stop offset="0.3" stop-color="#F9C22E"/>
<stop offset="0.57" stop-color="#F5B314"/>
<stop offset="0.81" stop-color="#F2AB05"/>
<stop offset="1" stop-color="#F2A800"/>
</linearGradient>
<linearGradient id="paint5_linear_126_4897" x1="456.748" y1="146.858" x2="529.63" y2="122.288" gradientUnits="userSpaceOnUse">
<stop stop-color="#F2A800"/>
<stop offset="0.19" stop-color="#F2AB05"/>
<stop offset="0.43" stop-color="#F5B314"/>
<stop offset="0.7" stop-color="#F9C22E"/>
<stop offset="0.98" stop-color="#FED551"/>
<stop offset="0.99" stop-color="#FFD754"/>
</linearGradient>
<linearGradient id="paint6_linear_126_4897" x1="357.713" y1="260.722" x2="490.148" y2="317.675" gradientUnits="userSpaceOnUse">
<stop stop-color="#F2A800"/>
<stop offset="0.19" stop-color="#F2AB05"/>
<stop offset="0.43" stop-color="#F5B314"/>
<stop offset="0.7" stop-color="#F9C22E"/>
<stop offset="0.98" stop-color="#FED551"/>
<stop offset="0.99" stop-color="#FFD754"/>
</linearGradient>
<linearGradient id="paint7_linear_126_4897" x1="363.077" y1="250.716" x2="493.662" y2="306.874" gradientUnits="userSpaceOnUse">
<stop stop-color="#FFD754"/>
<stop offset="0.02" stop-color="#FED551"/>
<stop offset="0.3" stop-color="#F9C22E"/>
<stop offset="0.57" stop-color="#F5B314"/>
<stop offset="0.81" stop-color="#F2AB05"/>
<stop offset="1" stop-color="#F2A800"/>
</linearGradient>
<linearGradient id="paint8_linear_126_4897" x1="373.374" y1="255.144" x2="483.347" y2="302.437" gradientUnits="userSpaceOnUse">
<stop stop-color="#F2A800"/>
<stop offset="0.19" stop-color="#F2AB05"/>
<stop offset="0.43" stop-color="#F5B314"/>
<stop offset="0.7" stop-color="#F9C22E"/>
<stop offset="0.98" stop-color="#FED551"/>
<stop offset="0.99" stop-color="#FFD754"/>
</linearGradient>
<linearGradient id="paint9_linear_126_4897" x1="622.579" y1="199.071" x2="775.955" y2="199.071" gradientUnits="userSpaceOnUse">
<stop stop-color="#FFD754"/>
<stop offset="0.02" stop-color="#FED551"/>
<stop offset="0.3" stop-color="#F9C22E"/>
<stop offset="0.57" stop-color="#F5B314"/>
<stop offset="0.81" stop-color="#F2AB05"/>
<stop offset="1" stop-color="#F2A800"/>
</linearGradient>
<linearGradient id="paint10_linear_126_4897" x1="622.544" y1="196.106" x2="762.658" y2="196.106" gradientUnits="userSpaceOnUse">
<stop stop-color="#F2A800"/>
<stop offset="0.19" stop-color="#F2AB05"/>
<stop offset="0.43" stop-color="#F5B314"/>
<stop offset="0.7" stop-color="#F9C22E"/>
<stop offset="0.98" stop-color="#FED551"/>
<stop offset="0.99" stop-color="#FFD754"/>
</linearGradient>
<linearGradient id="paint11_linear_126_4897" x1="631.576" y1="196.105" x2="753.627" y2="196.105" gradientUnits="userSpaceOnUse">
<stop stop-color="#FFD754"/>
<stop offset="0.02" stop-color="#FED551"/>
<stop offset="0.3" stop-color="#F9C22E"/>
<stop offset="0.57" stop-color="#F5B314"/>
<stop offset="0.81" stop-color="#F2AB05"/>
<stop offset="1" stop-color="#F2A800"/>
</linearGradient>
<linearGradient id="paint12_linear_126_4897" x1="226.159" y1="179.258" x2="626.952" y2="446.467" gradientUnits="userSpaceOnUse">
<stop stop-color="#8D95A3"/>
<stop offset="0.05" stop-color="#949BA9"/>
<stop offset="0.31" stop-color="#B4BAC5"/>
<stop offset="0.56" stop-color="#CCD0DA"/>
<stop offset="0.8" stop-color="#DADDE6"/>
<stop offset="1" stop-color="#DFE2EB"/>
</linearGradient>
<linearGradient id="paint13_linear_126_4897" x1="977.867" y1="736.48" x2="696.114" y2="454.726" gradientUnits="userSpaceOnUse">
<stop stop-color="#DFE2EB"/>
<stop offset="0.46" stop-color="#EFF1F5"/>
<stop offset="1" stop-color="white"/>
</linearGradient>
<linearGradient id="paint14_linear_126_4897" x1="806.176" y1="396.658" x2="825.094" y2="536.471" gradientUnits="userSpaceOnUse">
<stop stop-color="#006838"/>
<stop offset="0.01948" stop-color="#036F3C"/>
<stop offset="0.1274" stop-color="#119150"/>
<stop offset="0.2297" stop-color="#1CAA5E"/>
<stop offset="0.3233" stop-color="#22B967"/>
<stop offset="0.4" stop-color="#24BE6A"/>
<stop offset="0.9" stop-color="#16CDD6"/>
</linearGradient>
<linearGradient id="paint15_linear_126_4897" x1="-213.466" y1="223.502" x2="163.588" y2="508.387" gradientUnits="userSpaceOnUse">
<stop stop-color="#182941"/>
<stop offset="0.3" stop-color="#2A3D59"/>
<stop offset="0.93" stop-color="#5B7297"/>
<stop offset="1" stop-color="#61799F"/>
</linearGradient>
<linearGradient id="paint16_linear_126_4897" x1="-132.283" y1="261.704" x2="327.908" y2="622.932" gradientUnits="userSpaceOnUse">
<stop stop-color="#61799F"/>
<stop offset="0.28" stop-color="#667C9F"/>
<stop offset="0.65" stop-color="#7686A0"/>
<stop offset="1" stop-color="#8D95A3"/>
</linearGradient>
<linearGradient id="paint17_linear_126_4897" x1="285.171" y1="461.702" x2="415.175" y2="461.702" gradientUnits="userSpaceOnUse">
<stop stop-color="#F2A800" stop-opacity="0"/>
<stop offset="0.45" stop-color="#F2A800"/>
<stop offset="0.54" stop-color="#F4B212"/>
<stop offset="0.74" stop-color="#FAC636"/>
<stop offset="0.9" stop-color="#FDD24C"/>
<stop offset="1" stop-color="#FFD754"/>
</linearGradient>
<linearGradient id="paint18_linear_126_4897" x1="231.713" y1="677.426" x2="352.42" y2="677.426" gradientUnits="userSpaceOnUse">
<stop stop-color="#F2A800" stop-opacity="0"/>
<stop offset="0.45" stop-color="#F2A800"/>
<stop offset="0.54" stop-color="#F4B212"/>
<stop offset="0.74" stop-color="#FAC636"/>
<stop offset="0.9" stop-color="#FDD24C"/>
<stop offset="1" stop-color="#FFD754"/>
</linearGradient>
<linearGradient id="paint19_linear_126_4897" x1="170.403" y1="569.555" x2="290.887" y2="569.555" gradientUnits="userSpaceOnUse">
<stop stop-color="#F2A800" stop-opacity="0"/>
<stop offset="0.45" stop-color="#F2A800"/>
<stop offset="0.54" stop-color="#F4B212"/>
<stop offset="0.74" stop-color="#FAC636"/>
<stop offset="0.9" stop-color="#FDD24C"/>
<stop offset="1" stop-color="#FFD754"/>
</linearGradient>
<clipPath id="clip0_126_4897">
<rect width="1000" height="924" fill="white"/>
</clipPath>
</defs>
</svg>
