<svg width="1440" height="796" viewBox="0 0 1440 796" fill="none" xmlns="http://www.w3.org/2000/svg">
<g clip-path="url(#clip0)">
<path opacity="0.03" d="M1323.95 178.075C1392.92 184.722 1437.09 184.722 1456.43 178.075L1406.59 210.987L1456.43 229.191L1182.04 235.553L1352.46 211.814L1112.81 152.24C1248.02 144.544 1330.23 140.696 1359.45 140.696C1373.31 140.696 1334.18 147.877 1242.06 162.24L1323.95 178.075Z" fill="white"/>
<path opacity="0.2" d="M983 35.45C984.353 35.45 985.45 34.3531 985.45 33C985.45 31.6469 984.353 30.55 983 30.55C981.647 30.55 980.55 31.6469 980.55 33C980.55 34.3531 981.647 35.45 983 35.45Z" fill="white"/>
<path opacity="0.34" d="M879.854 355.625C880.406 355.625 880.854 355.177 880.854 354.625C880.854 354.072 880.406 353.625 879.854 353.625C879.302 353.625 878.854 354.072 878.854 354.625C878.854 355.177 879.302 355.625 879.854 355.625Z" fill="white"/>
<path opacity="0.34" d="M283.12 106.971C283.672 106.971 284.12 106.523 284.12 105.971C284.12 105.418 283.672 104.971 283.12 104.971C282.568 104.971 282.12 105.418 282.12 105.971C282.12 106.523 282.568 106.971 283.12 106.971Z" fill="white"/>
<path opacity="0.2" d="M722.45 108.421C723.803 108.421 724.9 107.324 724.9 105.971C724.9 104.618 723.803 103.521 722.45 103.521C721.097 103.521 720 104.618 720 105.971C720 107.324 721.097 108.421 722.45 108.421Z" fill="white"/>
<path opacity="0.2" d="M533.233 390.104C534.586 390.104 535.683 389.007 535.683 387.654C535.683 386.301 534.586 385.204 533.233 385.204C531.88 385.204 530.783 386.301 530.783 387.654C530.783 389.007 531.88 390.104 533.233 390.104Z" fill="white"/>
<path opacity="0.2" d="M294.539 197.985C295.892 197.985 296.989 196.888 296.989 195.535C296.989 194.182 295.892 193.085 294.539 193.085C293.186 193.085 292.089 194.182 292.089 195.535C292.089 196.888 293.186 197.985 294.539 197.985Z" fill="white"/>
<path opacity="0.2" d="M27.5 212.157C28.8531 212.157 29.95 211.06 29.95 209.707C29.95 208.354 28.8531 207.257 27.5 207.257C26.1469 207.257 25.05 208.354 25.05 209.707C25.05 211.06 26.1469 212.157 27.5 212.157Z" fill="white"/>
<path opacity="0.2" d="M1072.71 387.654C1075.42 387.654 1077.61 385.46 1077.61 382.754C1077.61 380.048 1075.42 377.854 1072.71 377.854C1070.01 377.854 1067.81 380.048 1067.81 382.754C1067.81 385.46 1070.01 387.654 1072.71 387.654Z" fill="white"/>
<path d="M948.879 125.605C949.556 125.605 950.104 125.056 950.104 124.38C950.104 123.703 949.556 123.155 948.879 123.155C948.202 123.155 947.654 123.703 947.654 124.38C947.654 125.056 948.202 125.605 948.879 125.605Z" fill="white"/>
<path d="M650.881 387.654C651.557 387.654 652.106 387.106 652.106 386.429C652.106 385.753 651.557 385.204 650.881 385.204C650.204 385.204 649.656 385.753 649.656 386.429C649.656 387.106 650.204 387.654 650.881 387.654Z" fill="white"/>
<path d="M236.225 420.304C236.902 420.304 237.45 419.756 237.45 419.079C237.45 418.403 236.902 417.854 236.225 417.854C235.548 417.854 235 418.403 235 419.079C235 419.756 235.548 420.304 236.225 420.304Z" fill="white"/>
<path opacity="0.2" d="M161.225 310.304C164.663 310.304 167.45 307.517 167.45 304.079C167.45 300.641 164.663 297.854 161.225 297.854C157.787 297.854 155 300.641 155 304.079C155 307.517 157.787 310.304 161.225 310.304Z" fill="white"/>
<path d="M479.775 30.998C480.452 30.998 481 30.4495 481 29.773C481 29.0964 480.452 28.548 479.775 28.548C479.099 28.548 478.55 29.0964 478.55 29.773C478.55 30.4495 479.099 30.998 479.775 30.998Z" fill="white"/>
<path d="M349.341 291.115C350.017 291.115 350.566 290.567 350.566 289.89C350.566 289.214 350.017 288.665 349.341 288.665C348.664 288.665 348.116 289.214 348.116 289.89C348.116 290.567 348.664 291.115 349.341 291.115Z" fill="white"/>
<path d="M47.6846 329.362C48.3611 329.362 48.9096 328.813 48.9096 328.137C48.9096 327.46 48.3611 326.912 47.6846 326.912C47.008 326.912 46.4596 327.46 46.4596 328.137C46.4596 328.813 47.008 329.362 47.6846 329.362Z" fill="white"/>
<path d="M45.2346 83.1458C45.9111 83.1458 46.4596 82.5973 46.4596 81.9208C46.4596 81.2443 45.9111 80.6958 45.2346 80.6958C44.558 80.6958 44.0096 81.2443 44.0096 81.9208C44.0096 82.5973 44.558 83.1458 45.2346 83.1458Z" fill="white"/>
<path d="M1129.62 303.902C1130.29 303.902 1130.84 303.353 1130.84 302.677C1130.84 302 1130.29 301.452 1129.62 301.452C1128.94 301.452 1128.39 302 1128.39 302.677C1128.39 303.353 1128.94 303.902 1129.62 303.902Z" fill="white"/>
<path d="M1413.59 195.535C1414.26 195.535 1414.81 194.986 1414.81 194.31C1414.81 193.633 1414.26 193.085 1413.59 193.085C1412.91 193.085 1412.36 193.633 1412.36 194.31C1412.36 194.986 1412.91 195.535 1413.59 195.535Z" fill="white"/>
<path d="M1384.53 104.746C1385.21 104.746 1385.76 104.197 1385.76 103.521C1385.76 102.844 1385.21 102.296 1384.53 102.296C1383.86 102.296 1383.31 102.844 1383.31 103.521C1383.31 104.197 1383.86 104.746 1384.53 104.746Z" fill="white"/>
<path opacity="0.1" d="M264.476 126L-12.988 163.426L100.524 187.177L-118 222.166L64.4764 314.389L-46.3641 236.069L288.314 217.063L85.1571 163.426L264.476 126Z" fill="white"/>
<path opacity="0.2" d="M732.213 553.283H745.581V554.087H732.213V553.283Z" fill="url(#paint0_linear)"/>
<path opacity="0.1" d="M643.022 -9.21094V3.71853C707.244 4.1939 744.503 3.06372 754.801 0.32799L575.152 24.8707L643.022 -9.21094Z" fill="white"/>
<path opacity="0.1" d="M1052.57 -5.51466L1042.1 6.69772H1086.16L969.776 18.0527L986.621 6.69772L935.088 -5.51466L1030.5 -21.122L1010.63 -5.51466H1052.57Z" fill="white"/>
<path opacity="0.34" d="M183.651 21.1269C184.204 21.1269 184.651 20.6792 184.651 20.1269C184.651 19.5746 184.204 19.1269 183.651 19.1269C183.099 19.1269 182.651 19.5746 182.651 20.1269C182.651 20.6792 183.099 21.1269 183.651 21.1269Z" fill="white"/>
<path fill-rule="evenodd" clip-rule="evenodd" d="M0 575C248.124 502.262 489.757 465.893 724.9 465.893C960.043 465.893 1198.41 495.595 1440 555V776H0V575Z" fill="url(#paint1_linear)"/>
<path fill-rule="evenodd" clip-rule="evenodd" d="M0 575C248.124 515.595 489.757 485.893 724.9 485.893C960.043 485.893 1198.41 515.595 1440 575V796H0V575Z" fill="url(#paint2_linear)"/>
<path d="M854 620.947C1073 669.514 1268.33 654.199 1440 575V796H0C350.333 630.73 635 572.379 854 620.947Z" fill="url(#paint3_linear)"/>
<path fill-rule="evenodd" clip-rule="evenodd" d="M644.632 535.5C789.945 598.108 877.217 537.135 1130.84 525.84C1182.23 523.552 1285.29 539.938 1440 575V796C811.218 874.375 363.885 898.17 98 867.384C-167.885 836.598 -239.885 752.672 -118 615.605C180.337 519.398 363.868 491.641 432.594 532.332C535.683 593.37 499.319 472.892 644.632 535.5Z" fill="url(#paint4_linear)"/>
<path fill-rule="evenodd" clip-rule="evenodd" d="M888.5 692.446C1061.2 724.123 1246.9 713.756 1445.59 661.346L1440 796H367.834C425.956 712.156 478.309 687.862 524.895 723.117C594.775 776 767.715 670.291 888.5 692.446Z" fill="url(#paint5_linear)"/>
<path d="M1168.17 649.22C1222.71 655.917 1268.19 651.014 1269.76 638.269C1271.32 625.524 1228.38 609.763 1173.83 603.066C1119.29 596.369 1073.81 601.272 1072.24 614.017C1070.68 626.762 1113.62 642.523 1168.17 649.22Z" fill="url(#paint6_linear)"/>
<path d="M1180.17 653.22C1234.71 659.917 1280.19 655.014 1281.76 642.269C1283.32 629.524 1240.38 613.763 1185.83 607.066C1131.29 600.369 1085.81 605.272 1084.24 618.017C1082.68 630.762 1125.62 646.523 1180.17 653.22Z" fill="url(#paint7_linear)"/>
<path fill-rule="evenodd" clip-rule="evenodd" d="M1175.32 640.306C1202.59 643.654 1225.34 641.147 1226.13 634.706C1226.92 628.265 1205.45 620.329 1178.18 616.981C1150.91 613.632 1186.7 615.976 1204.5 628.796C1222.31 641.615 1148.05 636.957 1175.32 640.306Z" fill="url(#paint8_linear)"/>
<path d="M852.377 833.972C962.215 837.807 1051.98 820.111 1052.88 794.445C1053.78 768.779 965.461 744.864 855.623 741.028C745.785 737.193 656.017 754.889 655.121 780.555C654.225 806.221 742.539 830.136 852.377 833.972Z" fill="url(#paint9_linear)"/>
<path d="M876.983 839.849C986.821 843.685 1076.59 825.988 1077.48 800.323C1078.38 774.657 990.066 750.742 880.229 746.906C770.391 743.071 680.623 760.767 679.727 786.433C678.831 812.098 767.145 836.014 876.983 839.849Z" fill="url(#paint10_linear)"/>
<path fill-rule="evenodd" clip-rule="evenodd" d="M865.072 814.964C919.991 816.882 964.878 807.922 965.331 794.951C965.784 781.98 921.631 769.911 866.712 767.993C811.793 766.075 930.276 781.98 929.823 794.951C929.37 807.922 810.153 813.047 865.072 814.964Z" fill="url(#paint11_linear)"/>
<path d="M102.167 685.551C25.8071 694.926 -37.8708 688.062 -40.0616 670.22C-42.2525 652.377 17.8734 630.312 94.2332 620.936C170.593 611.56 234.271 618.424 236.462 636.267C238.653 654.11 178.527 676.175 102.167 685.551Z" fill="url(#paint12_linear)"/>
<path d="M85.3668 691.151C9.00701 700.526 -54.6709 693.662 -56.8617 675.82C-59.0525 657.977 1.07332 635.912 77.4331 626.536C153.793 617.16 217.471 624.024 219.662 641.867C221.853 659.71 161.727 681.775 85.3668 691.151Z" fill="url(#paint13_linear)"/>
<path fill-rule="evenodd" clip-rule="evenodd" d="M92.1547 673.071C53.9748 677.758 22.1263 674.249 21.0192 665.231C19.912 656.214 49.9653 645.104 88.1452 640.416C126.325 635.728 111.219 640.866 71.9334 653.393C32.6481 665.92 130.335 668.383 92.1547 673.071Z" fill="url(#paint14_linear)"/>
<path d="M328.254 587.934C356.816 584.932 379.408 577.156 378.715 570.565C378.022 563.973 354.307 561.064 325.746 564.066C297.184 567.068 274.592 574.844 275.285 581.435C275.978 588.027 299.693 590.936 328.254 587.934Z" fill="url(#paint15_linear)"/>
<path d="M1008.85 665.755C1027.85 667.084 1043.6 663.249 1044.03 657.188C1044.45 651.128 1029.39 645.138 1010.38 643.808C991.372 642.479 975.62 646.315 975.196 652.375C974.773 658.435 989.838 664.426 1008.85 665.755Z" fill="url(#paint16_linear)"/>
<path opacity="0.3" d="M218.126 768.644C268.658 763.332 308.592 749.231 307.322 737.147C306.052 725.064 264.058 719.573 213.527 724.885C162.995 730.196 123.06 744.297 124.33 756.381C125.6 768.464 167.594 773.955 218.126 768.644Z" fill="url(#paint17_linear)"/>
<path opacity="0.3" d="M742.126 540.624C757.001 541.664 769.279 539.381 769.549 535.524C769.818 531.667 757.978 527.698 743.103 526.658C728.227 525.617 715.95 527.901 715.68 531.757C715.41 535.614 727.251 539.583 742.126 540.624Z" fill="url(#paint18_linear)"/>
<path fill-rule="evenodd" clip-rule="evenodd" d="M1354.13 806.98C1419.02 805.847 1471.41 793.291 1471.16 778.933C1471.04 771.941 1484.64 725.138 1470.68 703.019C1455.97 679.724 1413.24 681.885 1396.18 708.542C1382.47 729.959 1352.77 783.068 1322.57 758.765C1292.37 734.462 1235.48 787.559 1235.63 796C1235.88 810.357 1289.25 808.113 1354.13 806.98Z" fill="url(#paint19_linear)"/>
<path opacity="0.4" fill-rule="evenodd" clip-rule="evenodd" d="M724.527 718.446C831.946 718.446 919.027 711.058 919.027 701.946C919.027 692.833 831.946 687.005 724.527 687.005C617.108 687.005 530.027 692.833 530.027 701.946C530.027 711.058 617.108 718.446 724.527 718.446Z" fill="url(#paint20_linear)"/>
<path d="M695.705 509.851L669.558 545.386" stroke="#1E0E29" stroke-width="9" stroke-linecap="round"/>
<path opacity="0.2" d="M668.876 539.404L674.693 545.057" stroke="#F2F2F1"/>
<path opacity="0.2" d="M671.876 534.404L677.693 540.057" stroke="#F2F2F1"/>
<path opacity="0.2" d="M675.876 529.404L681.693 535.057" stroke="#F2F2F1"/>
<path opacity="0.2" d="M679.876 524.404L685.693 530.057" stroke="#F2F2F1"/>
<path opacity="0.2" d="M683.876 518.404L689.693 524.057" stroke="#F2F2F1"/>
<path opacity="0.2" d="M687.876 513.404L693.693 519.057" stroke="#F2F2F1"/>
<path opacity="0.5" d="M631.813 574.929L623.717 552.769" stroke="#00353D" stroke-width="2.64" stroke-linecap="round"/>
<path d="M600.058 601.722L570.454 543.072C570.111 542.393 569.998 541.623 570.13 540.874L579.77 486.2" stroke="#1E0E29" stroke-width="6" stroke-linecap="round"/>
<path d="M572.22 477.075C571.503 481.143 574.219 485.023 578.288 485.74C582.356 486.457 586.236 483.741 586.953 479.672C587.67 475.604 584.954 471.725 580.885 471.007" stroke="#1E0E29" stroke-width="4.4"/>
<mask id="mask0" mask-type="alpha" maskUnits="userSpaceOnUse" x="537" y="634" width="151" height="40">
<path d="M667.598 634.496H557.422C546.535 634.496 537.71 643.321 537.71 654.208C537.71 665.095 546.535 673.92 557.422 673.92H667.598C678.485 673.92 687.31 665.095 687.31 654.208C687.31 643.321 678.485 634.496 667.598 634.496Z" fill="white"/>
</mask>
<g mask="url(#mask0)">
<path d="M667.598 634.496H557.422C546.535 634.496 537.71 643.321 537.71 654.208C537.71 665.095 546.535 673.92 557.422 673.92H667.598C678.485 673.92 687.31 665.095 687.31 654.208C687.31 643.321 678.485 634.496 667.598 634.496Z" fill="url(#paint21_linear)"/>
<path opacity="0.1" d="M580.83 638.016H542.11V639.776H580.83V638.016Z" fill="#D8D8D8"/>
<path opacity="0.1" d="M579.95 645.056H538.59V646.816H579.95V645.056Z" fill="#D8D8D8"/>
<path opacity="0.1" d="M578.19 652.096H536.83V653.856H578.19V652.096Z" fill="#D8D8D8"/>
<path opacity="0.1" d="M578.19 659.136H536.83V660.896H578.19V659.136Z" fill="#D8D8D8"/>
<path opacity="0.1" d="M579.95 666.176H538.59V667.936H579.95V666.176Z" fill="#D8D8D8"/>
<path opacity="0.1" d="M592.27 673.216H538.59V674.976H592.27V673.216Z" fill="#D8D8D8"/>
</g>
<path d="M591.742 634.496H678.158C689.045 634.496 697.87 643.321 697.87 654.208C697.87 665.095 689.045 673.92 678.158 673.92H591.742C580.855 673.92 572.03 665.095 572.03 654.208C572.03 643.321 580.855 634.496 591.742 634.496Z" fill="url(#paint22_linear)"/>
<path d="M591.848 637.84H678.052C686.762 637.84 693.822 644.9 693.822 653.61V654.807C693.822 663.516 686.762 670.576 678.052 670.576H591.848C583.138 670.576 576.078 663.516 576.078 654.807V653.61C576.078 644.9 583.138 637.84 591.848 637.84Z" fill="url(#paint23_linear)"/>
<path opacity="0.1" d="M662.758 650.16H623.158C620.679 650.16 618.67 652.169 618.67 654.648C618.67 657.127 620.679 659.136 623.158 659.136H662.758C665.237 659.136 667.246 657.127 667.246 654.648C667.246 652.169 665.237 650.16 662.758 650.16Z" fill="url(#paint24_linear)"/>
<path d="M677.018 665.984C683.433 665.984 688.634 660.783 688.634 654.368C688.634 647.952 683.433 642.752 677.018 642.752C670.602 642.752 665.402 647.952 665.402 654.368C665.402 660.783 670.602 665.984 677.018 665.984Z" fill="url(#paint25_linear)"/>
<path d="M677.37 657.008C678.633 657.008 679.658 655.983 679.658 654.72C679.658 653.456 678.633 652.432 677.37 652.432C676.106 652.432 675.082 653.456 675.082 654.72C675.082 655.983 676.106 657.008 677.37 657.008Z" fill="#03464B"/>
<g opacity="0.2">
<path opacity="0.2" d="M592.538 665.984C598.953 665.984 604.154 660.783 604.154 654.368C604.154 647.952 598.953 642.752 592.538 642.752C586.122 642.752 580.922 647.952 580.922 654.368C580.922 660.783 586.122 665.984 592.538 665.984Z" fill="url(#paint26_linear)"/>
<g opacity="0.2">
<path opacity="0.2" d="M592.89 657.008C594.153 657.008 595.178 655.983 595.178 654.72C595.178 653.456 594.153 652.432 592.89 652.432C591.626 652.432 590.602 653.456 590.602 654.72C590.602 655.983 591.626 657.008 592.89 657.008Z" fill="#03464B"/>
</g>
</g>
<path d="M649.268 541.817L768.863 562.905C777.479 564.424 783.231 572.64 781.712 581.255L767.119 664.019C765.6 672.634 757.384 678.386 748.769 676.867L641.307 657.919C632.691 656.4 626.939 648.184 628.458 639.569L645.191 544.673C645.528 542.758 647.354 541.48 649.268 541.817Z" fill="url(#paint27_linear)"/>
<path d="M643.079 576.916L762.674 598.004C771.29 599.523 777.042 607.739 775.523 616.354L767.119 664.019C765.6 672.634 757.384 678.386 748.769 676.867L641.307 657.919C632.691 656.4 626.939 648.184 628.458 639.569L639.002 579.771C639.339 577.857 641.165 576.578 643.079 576.916Z" fill="url(#paint28_linear)"/>
<path d="M779.464 635.814L764.731 633.216C763.774 633.047 762.861 633.686 762.692 634.644L759.942 650.243C759.773 651.2 760.412 652.113 761.369 652.282L776.102 654.88C777.059 655.048 777.972 654.409 778.141 653.452L780.892 637.853C781.06 636.895 780.421 635.983 779.464 635.814Z" fill="url(#paint29_linear)"/>
<path d="M779.464 635.814L769.064 633.98C768.107 633.811 767.194 634.45 767.026 635.408L764.275 651.007C764.106 651.964 764.745 652.877 765.703 653.046L776.102 654.88C777.059 655.048 777.972 654.409 778.141 653.452L780.892 637.853C781.06 636.895 780.421 635.983 779.464 635.814Z" fill="url(#paint30_linear)"/>
<path opacity="0.3" fill-rule="evenodd" clip-rule="evenodd" d="M802.441 490.638L804.063 490.924L778.543 635.651L776.922 635.365L802.441 490.638Z" fill="#1E0E29"/>
<path opacity="0.3" d="M802.569 494.012C804.663 494.381 806.66 492.983 807.029 490.889C807.398 488.795 806 486.798 803.906 486.429C801.812 486.059 799.815 487.457 799.446 489.551C799.076 491.645 800.475 493.642 802.569 494.012Z" fill="#1E0E29"/>
<path d="M614.603 535.705L729.865 556.029C731.779 556.366 733.058 558.192 732.72 560.107L715.987 655.003C714.468 663.618 706.253 669.371 697.637 667.851L606.641 651.806C598.026 650.287 592.273 642.072 593.792 633.456L610.525 538.56C610.863 536.646 612.688 535.367 614.603 535.705Z" fill="url(#paint31_linear)"/>
<path opacity="0.4" d="M611.929 550.871L634.461 554.844L617.041 653.64L606.641 651.806C598.026 650.287 592.273 642.072 593.792 633.456L607.851 553.726C608.189 551.812 610.014 550.534 611.929 550.871Z" fill="url(#paint32_linear)"/>
<path opacity="0.3" d="M617.981 541.886L723.71 560.528C724.667 560.697 725.307 561.61 725.138 562.567L711.041 642.514C710.872 643.471 709.959 644.11 709.002 643.942L603.273 625.299C602.316 625.13 601.677 624.217 601.846 623.26L615.942 543.313C616.111 542.356 617.024 541.717 617.981 541.886Z" fill="url(#paint33_linear)"/>
<path d="M692.38 615.32C694.055 615.616 695.652 614.497 695.948 612.822C696.243 611.147 695.124 609.549 693.449 609.254C691.774 608.959 690.177 610.077 689.881 611.752C689.586 613.428 690.704 615.025 692.38 615.32Z" fill="#EF7F2D"/>
<path d="M703.646 617.307C705.321 617.602 706.918 616.484 707.214 614.809C707.509 613.133 706.391 611.536 704.715 611.24C703.04 610.945 701.443 612.064 701.147 613.739C700.852 615.414 701.971 617.012 703.646 617.307Z" fill="#D46CEE"/>
<path opacity="0.2" d="M624.838 543.541L716.701 559.739C719.094 560.161 720.692 562.443 720.27 564.836L713.966 600.585C713.544 602.978 711.262 604.576 708.869 604.154L617.006 587.956C614.613 587.534 613.015 585.252 613.437 582.859L619.741 547.11C620.163 544.717 622.445 543.119 624.838 543.541Z" fill="url(#paint34_linear)"/>
<path opacity="0.2" d="M715.389 564.646L713.222 564.264L707.11 598.929L709.276 599.311L715.389 564.646Z" fill="#E8E6E4"/>
<mask id="mask1" mask-type="alpha" maskUnits="userSpaceOnUse" x="660" y="647" width="149" height="60">
<path d="M785.57 647.77L677.067 666.902C666.346 668.792 659.187 679.016 661.078 689.737C662.968 700.459 673.192 707.617 683.913 705.727L792.416 686.595C803.137 684.705 810.296 674.481 808.405 663.76C806.515 653.038 796.291 645.88 785.57 647.77Z" fill="white"/>
</mask>
<g mask="url(#mask1)">
<path d="M785.57 647.77L677.067 666.902C666.346 668.792 659.187 679.016 661.078 689.737C662.968 700.459 673.192 707.617 683.913 705.727L792.416 686.595C803.137 684.705 810.296 674.481 808.405 663.76C806.515 653.038 796.291 645.88 785.57 647.77Z" fill="url(#paint35_linear)"/>
<path opacity="0.1" d="M700.731 666.304L662.599 673.027L662.905 674.761L701.037 668.037L700.731 666.304Z" fill="#D8D8D8"/>
<path opacity="0.1" d="M701.087 673.39L660.355 680.572L660.661 682.305L701.392 675.123L701.087 673.39Z" fill="#D8D8D8"/>
<path opacity="0.1" d="M700.576 680.628L659.844 687.81L660.15 689.544L700.882 682.361L700.576 680.628Z" fill="#D8D8D8"/>
<path opacity="0.1" d="M701.799 687.561L661.067 694.743L661.373 696.477L702.104 689.295L701.799 687.561Z" fill="#D8D8D8"/>
<path opacity="0.1" d="M704.754 694.189L664.023 701.371L664.328 703.104L705.06 695.922L704.754 694.189Z" fill="#D8D8D8"/>
<path opacity="0.1" d="M718.11 698.982L665.245 708.304L665.551 710.037L718.415 700.716L718.11 698.982Z" fill="#D8D8D8"/>
</g>
<path d="M710.866 660.942L795.969 645.936C806.69 644.046 816.914 651.205 818.805 661.926C820.695 672.647 813.536 682.871 802.815 684.761L717.712 699.767C706.991 701.658 696.767 694.499 694.876 683.778C692.986 673.057 700.145 662.833 710.866 660.942Z" fill="url(#paint36_linear)"/>
<path d="M711.551 664.217L796.446 649.248C805.023 647.736 813.202 653.463 814.714 662.04L814.922 663.218C816.434 671.795 810.707 679.974 802.13 681.487L717.235 696.456C708.658 697.968 700.479 692.241 698.967 683.664L698.759 682.486C697.247 673.909 702.974 665.73 711.551 664.217Z" fill="url(#paint37_linear)"/>
<path d="M772.257 666.023L741.058 671.524C738.617 671.955 736.987 674.282 737.418 676.723C737.848 679.164 740.176 680.794 742.617 680.364L773.816 674.863C776.257 674.432 777.887 672.105 777.456 669.664C777.026 667.223 774.698 665.593 772.257 666.023Z" fill="url(#paint38_linear)"/>
<path d="M800.314 677.143C806.632 676.029 810.85 670.005 809.736 663.687C808.622 657.369 802.598 653.15 796.28 654.264C789.962 655.378 785.743 661.403 786.857 667.721C787.971 674.039 793.996 678.257 800.314 677.143Z" fill="url(#paint39_linear)"/>
<g opacity="0.2">
<path opacity="0.2" d="M799.102 668.243C800.346 668.023 801.177 666.837 800.958 665.592C800.738 664.348 799.552 663.517 798.307 663.736C797.063 663.956 796.232 665.142 796.451 666.387C796.671 667.631 797.858 668.462 799.102 668.243Z" fill="white"/>
</g>
<path d="M717.117 691.813C723.435 690.699 727.654 684.675 726.54 678.357C725.426 672.039 719.401 667.82 713.083 668.934C706.765 670.048 702.547 676.073 703.661 682.391C704.775 688.709 710.8 692.927 717.117 691.813Z" fill="url(#paint40_linear)"/>
<g opacity="0.2">
<path opacity="0.2" d="M715.905 682.912C717.15 682.693 717.981 681.506 717.761 680.262C717.542 679.018 716.355 678.187 715.111 678.406C713.866 678.625 713.035 679.812 713.255 681.057C713.474 682.301 714.661 683.132 715.905 682.912Z" fill="white"/>
</g>
<path opacity="0.1" d="M757.216 577.821L776.609 595.657" stroke="#440962" stroke-width="6" stroke-linecap="round"/>
<path d="M757.216 577.821L842.038 506.598" stroke="#1E0E29" stroke-width="6" stroke-linecap="round"/>
<path d="M790.615 549.9C793.1 552.862 797.516 553.248 800.477 550.763C803.439 548.278 803.825 543.863 801.34 540.901C798.855 537.94 794.44 537.553 791.478 540.038C788.517 542.523 788.13 546.939 790.615 549.9Z" fill="#422954"/>
<path d="M788.615 547.9C791.1 550.862 795.516 551.248 798.477 548.763C801.439 546.278 801.825 541.863 799.34 538.901C796.855 535.94 792.44 535.553 789.478 538.038C786.517 540.523 786.13 544.939 788.615 547.9Z" fill="#765090"/>
<path d="M847.635 493.847C843.504 493.847 840.155 497.196 840.155 501.327C840.155 505.458 843.504 508.807 847.635 508.807C851.766 508.807 855.115 505.458 855.115 501.327" stroke="#1E0E29" stroke-width="4.4"/>
<path d="M673.372 481.019L692.083 484.319C696.434 485.086 699.34 489.235 698.572 493.586L696.836 503.434C695.493 511.049 688.232 516.133 680.618 514.791L667.815 512.533C663.464 511.766 660.559 507.617 661.326 503.266L664.104 487.509C664.871 483.158 669.021 480.252 673.372 481.019Z" fill="url(#paint41_linear)"/>
<path d="M659.585 478.588L678.296 481.888C682.647 482.655 685.552 486.804 684.785 491.155L683.049 501.003C681.706 508.618 674.445 513.702 666.83 512.36L654.028 510.102C649.677 509.335 646.771 505.186 647.538 500.835L650.317 485.078C651.084 480.726 655.233 477.821 659.585 478.588Z" fill="url(#paint42_linear)"/>
<path d="M660.135 480.716L677.05 483.699C680.81 484.362 683.32 487.947 682.657 491.706L681.426 498.686C680.084 506.301 672.822 511.385 665.208 510.043L655.273 508.291C651.514 507.628 649.004 504.043 649.666 500.284L652.128 486.323C652.791 482.564 656.376 480.053 660.135 480.716Z" fill="url(#paint43_linear)"/>
<path d="M656.467 503.181C658.86 503.603 661.142 502.005 661.564 499.611C661.986 497.218 660.388 494.936 657.995 494.514C655.602 494.092 653.32 495.69 652.898 498.083C652.476 500.476 654.074 502.759 656.467 503.181Z" fill="#00D6B1"/>
<path d="M739.399 493.133L720.688 489.834C716.337 489.066 712.188 491.972 711.42 496.323L709.684 506.171C708.341 513.785 713.426 521.047 721.04 522.389L733.843 524.647C738.194 525.414 742.343 522.509 743.11 518.157L745.889 502.401C746.656 498.049 743.751 493.9 739.399 493.133Z" fill="url(#paint44_linear)"/>
<path d="M722.612 489.702L703.901 486.402C699.55 485.635 695.4 488.541 694.633 492.892L692.897 502.74C691.554 510.354 696.638 517.616 704.253 518.958L717.056 521.216C721.407 521.983 725.556 519.078 726.323 514.726L729.102 498.969C729.869 494.618 726.963 490.469 722.612 489.702Z" fill="url(#paint45_linear)"/>
<path d="M721.367 491.513L704.452 488.53C700.692 487.868 697.107 490.378 696.444 494.137L695.214 501.118C693.871 508.732 698.955 515.993 706.57 517.336L716.505 519.088C720.264 519.751 723.849 517.24 724.512 513.481L726.973 499.52C727.636 495.761 725.126 492.176 721.367 491.513Z" fill="url(#paint46_linear)"/>
<path d="M701.548 510.114C699.155 509.692 697.557 507.41 697.979 505.017C698.401 502.624 700.683 501.026 703.076 501.448C705.469 501.87 707.067 504.152 706.645 506.545C706.223 508.938 703.941 510.536 701.548 510.114Z" fill="#00D6B1"/>
<path fill-rule="evenodd" clip-rule="evenodd" d="M650.319 426.672L637.775 435.13L629.023 426.082L631.59 436.401L617.464 438.034L628.653 444.494L624.073 458.862L635.78 451.855L646.339 457.951L641.598 447.336L656.943 447.654L645.296 440.93L650.319 426.672Z" fill="#FFB179"/>
<path opacity="0.7" d="M568.59 436.171L423.43 461.767C422.233 461.978 421.434 463.119 421.645 464.316L444.185 592.144C444.396 593.34 445.537 594.139 446.733 593.928L591.894 568.333C593.09 568.122 593.889 566.981 593.678 565.784L571.139 437.956C570.928 436.759 569.787 435.96 568.59 436.171Z" fill="#FAF1ED"/>
<path opacity="0.7" d="M566.424 436.553L421.263 462.149C420.066 462.36 419.267 463.501 419.478 464.698L442.018 592.526C442.229 593.722 443.37 594.521 444.567 594.31L589.727 568.715C590.924 568.504 591.723 567.363 591.512 566.166L568.972 438.338C568.761 437.141 567.62 436.342 566.424 436.553Z" fill="#FAF1ED"/>
<path opacity="0.5" d="M503.132 552.709L520.465 549.652C524.055 549.019 527.478 551.416 528.111 555.006L532.313 578.838L501.981 584.187L497.779 560.354C497.146 556.765 499.543 553.341 503.132 552.709Z" fill="url(#paint47_linear)"/>
<path d="M512.661 556.39C522.273 554.695 544.586 531.948 539.066 504.2C534.674 482.127 518.981 469.492 497.992 473.193C477.002 476.894 466.576 494.135 469.999 516.378C474.303 544.34 503.049 558.085 512.661 556.39Z" fill="url(#paint48_linear)"/>
<path d="M538.888 503.347C542.461 529.821 521.311 551.122 512.021 552.76C502.732 554.398 475.572 541.616 469.875 515.516C469.914 515.803 469.955 516.09 469.999 516.378C474.303 544.34 503.049 558.085 512.661 556.39C522.273 554.695 544.586 531.948 539.066 504.2C539.009 503.914 538.949 503.63 538.888 503.347Z" fill="url(#paint49_linear)"/>
<path d="M487.332 500.223C481.01 499.284 474.636 507.436 477.989 515.331C481.8 524.303 496.194 524.86 498.81 520.894C502.083 515.935 495.602 501.453 487.332 500.223Z" fill="url(#paint50_linear)"/>
<path d="M518.336 494.757C523.956 491.711 532.734 497.192 532.283 505.757C531.771 515.491 518.435 520.938 514.62 518.106C509.849 514.565 510.986 498.74 518.336 494.757Z" fill="url(#paint51_linear)"/>
<path d="M503.728 531.254C507.925 531.659 511.639 529.995 514.869 526.264" stroke="#001E25" stroke-width="1.65"/>
<path d="M501.608 554.461L488.635 569.314C487.036 571.144 484.257 571.332 482.427 569.733C482.366 569.68 482.307 569.626 482.25 569.57L466.752 554.461" stroke="#67D3D5" stroke-width="2.2"/>
<path d="M460.152 551.711C460.152 553.838 461.875 555.561 464.002 555.561C466.128 555.561 467.852 553.838 467.852 551.711C467.852 549.585 466.128 547.861 464.002 547.861" stroke="#67D3D5" stroke-width="2.2"/>
<path d="M522.97 549.211L538.325 561.584C540.217 563.109 542.987 562.812 544.512 560.919C544.562 560.857 544.611 560.793 544.658 560.728L557.297 543.158" stroke="#67D3D5" stroke-width="2.2"/>
<path d="M563.319 539.304C563.688 541.398 562.29 543.394 560.196 543.764C558.102 544.133 556.105 542.735 555.736 540.641C555.367 538.547 556.765 536.55 558.859 536.181" stroke="#67D3D5" stroke-width="2.2"/>
<path opacity="0.2" fill-rule="evenodd" clip-rule="evenodd" d="M569.819 443.139L591.512 566.166C591.723 567.363 590.924 568.504 589.727 568.715L505.02 583.651C503.823 583.862 502.682 583.063 502.471 581.866C502.394 581.428 502.452 580.976 502.637 580.57L565.651 442.607C566.156 441.501 567.461 441.015 568.566 441.519C569.225 441.82 569.693 442.426 569.819 443.139Z" fill="white"/>
<path opacity="0.5" d="M430.307 465.962L451.349 585.296" stroke="white" stroke-width="3.3"/>
<path d="M586.953 479.672C587.67 475.604 584.954 471.725 580.885 471.007C576.817 470.29 572.938 473.006 572.22 477.075" stroke="#1E0E29" stroke-width="4.4"/>
<path d="M689.402 469.708C686.477 462.229 681.574 460.457 674.693 464.391" stroke="#CBC2BE" stroke-width="2"/>
<path d="M722.032 475.415C717.853 468.558 712.717 467.664 706.624 472.733" stroke="#CBC2BE" stroke-width="2"/>
<path opacity="0.3" d="M942.077 651.019C967.972 652.829 989.182 651.171 989.451 647.314C989.721 643.458 968.948 638.863 943.054 637.053C917.16 635.242 895.95 636.901 895.68 640.757C895.41 644.614 916.183 649.208 942.077 651.019Z" fill="url(#paint52_linear)"/>
<path fill-rule="evenodd" clip-rule="evenodd" d="M762.768 459.376L761.887 462.533L771.677 472.73L777.333 476.76L782.844 473.388L783.996 471.376L782.891 469.152L767.944 455.315L762.143 458.851L762.768 459.376Z" fill="#4B1FBD"/>
<mask id="mask2" mask-type="alpha" maskUnits="userSpaceOnUse" x="740" y="434" width="46" height="46">
<path d="M740.41 436.064L743.254 439.934L746.11 441.856L746.253 441.713L761.387 456.847L759.666 458.568C759.075 459.159 759.075 460.117 759.666 460.708C759.951 460.993 760.322 461.14 760.696 461.149C760.83 461.861 761.17 462.541 761.721 463.092L776.657 478.028C778.111 479.482 780.468 479.482 781.921 478.028L784.224 475.725C785.678 474.272 785.678 471.915 784.224 470.461L769.288 455.525C768.754 454.991 768.097 454.656 767.409 454.514C767.419 454.114 767.273 453.71 766.968 453.405C766.377 452.815 765.419 452.815 764.828 453.405L763.175 455.06L748.042 439.926L748.184 439.785L746.248 436.94L742.352 434.124L740.41 436.064ZM777.792 475.182C777.165 475.809 776.149 475.809 775.521 475.182L763.842 463.503C763.216 462.876 763.216 461.86 763.842 461.233C764.469 460.606 765.486 460.606 766.113 461.233L777.792 472.912C778.419 473.539 778.419 474.555 777.792 475.182ZM769.929 457.417L781.608 469.096C782.235 469.723 782.235 470.739 781.608 471.366C780.981 471.993 779.965 471.993 779.338 471.366L767.659 459.687C767.032 459.06 767.032 458.043 767.659 457.417C768.286 456.79 769.302 456.79 769.929 457.417Z" fill="white"/>
</mask>
<g mask="url(#mask2)">
<path d="M740.41 436.064L743.254 439.934L746.11 441.856L746.253 441.713L761.387 456.847L759.666 458.568C759.075 459.159 759.075 460.117 759.666 460.708C759.951 460.993 760.322 461.14 760.696 461.149C760.83 461.861 761.17 462.541 761.721 463.092L776.657 478.028C778.111 479.482 780.468 479.482 781.921 478.028L784.224 475.725C785.678 474.272 785.678 471.915 784.224 470.461L769.288 455.525C768.754 454.991 768.097 454.656 767.409 454.514C767.419 454.114 767.273 453.71 766.968 453.405C766.377 452.815 765.419 452.815 764.828 453.405L763.175 455.06L748.042 439.926L748.184 439.785L746.248 436.94L742.352 434.124L740.41 436.064ZM777.792 475.182C777.165 475.809 776.149 475.809 775.521 475.182L763.842 463.503C763.216 462.876 763.216 461.86 763.842 461.233C764.469 460.606 765.486 460.606 766.113 461.233L777.792 472.912C778.419 473.539 778.419 474.555 777.792 475.182ZM769.929 457.417L781.608 469.096C782.235 469.723 782.235 470.739 781.608 471.366C780.981 471.993 779.965 471.993 779.338 471.366L767.659 459.687C767.032 459.06 767.032 458.043 767.659 457.417C768.286 456.79 769.302 456.79 769.929 457.417Z" fill="#D6D6D6"/>
<path d="M753.473 462.696L773.528 486.596L790.994 471.941L770.939 448.04L753.473 462.696Z" fill="url(#paint53_linear)"/>
</g>
<path opacity="0.8" fill-rule="evenodd" clip-rule="evenodd" d="M476.483 646.124C476.664 646.684 476.583 647.296 476.263 647.791C474.771 650.095 475.429 653.173 477.734 654.666C477.876 654.758 478.023 654.842 478.173 654.919C479.136 655.411 479.518 656.591 479.025 657.554C478.757 658.078 478.267 658.454 477.692 658.578C475.007 659.152 473.296 661.794 473.87 664.479C473.906 664.644 473.95 664.808 474.002 664.969C474.334 665.998 473.77 667.102 472.741 667.434C472.181 667.616 471.569 667.535 471.074 667.215C468.77 665.723 465.692 666.381 464.199 668.686C464.107 668.828 464.023 668.974 463.946 669.125C463.454 670.088 462.274 670.469 461.311 669.977C460.787 669.709 460.411 669.219 460.287 668.643C459.713 665.959 457.071 664.248 454.386 664.822C454.221 664.858 454.057 664.901 453.896 664.953C452.867 665.286 451.763 664.722 451.431 663.693C451.249 663.133 451.33 662.52 451.65 662.026C453.142 659.721 452.484 656.643 450.179 655.151C450.037 655.059 449.891 654.975 449.74 654.898C448.777 654.405 448.395 653.226 448.888 652.263C449.156 651.738 449.646 651.362 450.222 651.239C452.906 650.665 454.617 648.023 454.043 645.338C454.007 645.173 453.964 645.009 453.912 644.848C453.579 643.819 454.143 642.715 455.172 642.382C455.732 642.201 456.345 642.282 456.839 642.602C459.144 644.094 462.221 643.436 463.714 641.131C463.806 640.989 463.89 640.842 463.967 640.692C464.46 639.729 465.639 639.347 466.602 639.84C467.127 640.108 467.502 640.598 467.626 641.173C468.2 643.858 470.842 645.569 473.527 644.995C473.692 644.959 473.856 644.915 474.017 644.863C475.046 644.531 476.15 645.095 476.483 646.124ZM465.957 651.754C464.098 650.68 461.72 651.317 460.646 653.177C459.573 655.036 460.21 657.414 462.069 658.488C463.929 659.562 466.307 658.924 467.381 657.065C468.454 655.205 467.817 652.827 465.957 651.754Z" fill="url(#paint54_linear)"/>
<mask id="mask3" mask-type="alpha" maskUnits="userSpaceOnUse" x="443" y="638" width="31" height="31">
<path d="M471.181 644.795C471.363 645.356 471.282 645.968 470.962 646.462C469.47 648.767 470.128 651.845 472.433 653.337C472.575 653.429 472.721 653.514 472.872 653.591C473.835 654.083 474.216 655.262 473.724 656.225C473.456 656.75 472.966 657.126 472.39 657.249C469.705 657.823 467.995 660.465 468.569 663.15C468.604 663.316 468.648 663.479 468.7 663.64C469.033 664.669 468.469 665.773 467.44 666.106C466.879 666.287 466.267 666.206 465.773 665.886C463.468 664.394 460.39 665.053 458.898 667.357C458.806 667.499 458.722 667.646 458.645 667.796C458.152 668.759 456.973 669.141 456.01 668.649C455.485 668.381 455.109 667.891 454.986 667.315C454.412 664.63 451.77 662.919 449.085 663.494C448.92 663.529 448.756 663.573 448.595 663.625C447.566 663.958 446.462 663.393 446.129 662.364C445.948 661.804 446.029 661.192 446.349 660.697C447.841 658.393 447.183 655.315 444.878 653.823C444.736 653.731 444.589 653.646 444.439 653.569C443.476 653.077 443.094 651.897 443.586 650.934C443.855 650.41 444.344 650.034 444.92 649.911C447.605 649.336 449.316 646.694 448.742 644.009C448.706 643.844 448.662 643.68 448.61 643.519C448.277 642.491 448.842 641.387 449.871 641.054C450.431 640.872 451.043 640.953 451.538 641.273C453.842 642.765 456.92 642.107 458.412 639.802C458.504 639.66 458.589 639.514 458.666 639.363C459.158 638.4 460.338 638.019 461.301 638.511C461.825 638.779 462.201 639.269 462.324 639.845C462.899 642.53 465.541 644.24 468.226 643.666C468.391 643.631 468.555 643.587 468.716 643.535C469.745 643.202 470.848 643.766 471.181 644.795ZM460.656 650.425C458.797 649.351 456.419 649.989 455.345 651.848C454.271 653.708 454.909 656.086 456.768 657.159C458.628 658.233 461.006 657.596 462.079 655.736C463.153 653.877 462.516 651.499 460.656 650.425Z" fill="white"/>
</mask>
<g mask="url(#mask3)">
<path d="M471.181 644.795C471.363 645.356 471.282 645.968 470.962 646.462C469.47 648.767 470.128 651.845 472.433 653.337C472.575 653.429 472.721 653.514 472.872 653.591C473.835 654.083 474.216 655.262 473.724 656.225C473.456 656.75 472.966 657.126 472.39 657.249C469.705 657.823 467.995 660.465 468.569 663.15C468.604 663.316 468.648 663.479 468.7 663.64C469.033 664.669 468.469 665.773 467.44 666.106C466.879 666.287 466.267 666.206 465.773 665.886C463.468 664.394 460.39 665.053 458.898 667.357C458.806 667.499 458.722 667.646 458.645 667.796C458.152 668.759 456.973 669.141 456.01 668.649C455.485 668.381 455.109 667.891 454.986 667.315C454.412 664.63 451.77 662.919 449.085 663.494C448.92 663.529 448.756 663.573 448.595 663.625C447.566 663.958 446.462 663.393 446.129 662.364C445.948 661.804 446.029 661.192 446.349 660.697C447.841 658.393 447.183 655.315 444.878 653.823C444.736 653.731 444.589 653.646 444.439 653.569C443.476 653.077 443.094 651.897 443.586 650.934C443.855 650.41 444.344 650.034 444.92 649.911C447.605 649.336 449.316 646.694 448.742 644.009C448.706 643.844 448.662 643.68 448.61 643.519C448.277 642.491 448.842 641.387 449.871 641.054C450.431 640.872 451.043 640.953 451.538 641.273C453.842 642.765 456.92 642.107 458.412 639.802C458.504 639.66 458.589 639.514 458.666 639.363C459.158 638.4 460.338 638.019 461.301 638.511C461.825 638.779 462.201 639.269 462.324 639.845C462.899 642.53 465.541 644.24 468.226 643.666C468.391 643.631 468.555 643.587 468.716 643.535C469.745 643.202 470.848 643.766 471.181 644.795ZM460.656 650.425C458.797 649.351 456.419 649.989 455.345 651.848C454.271 653.708 454.909 656.086 456.768 657.159C458.628 658.233 461.006 657.596 462.079 655.736C463.153 653.877 462.516 651.499 460.656 650.425Z" fill="url(#paint55_linear)"/>
<path opacity="0.2" fill-rule="evenodd" clip-rule="evenodd" d="M472.763 643.394L443.356 665.319L439.018 652.096L443.356 635.391L461 634.496L470.621 634.496L472.763 643.394Z" fill="#993D6A"/>
</g>
<path opacity="0.2" d="M390.601 644.866C408.337 645.486 422.78 644.118 422.861 641.811C422.942 639.504 408.629 637.132 390.893 636.513C373.156 635.893 358.713 637.261 358.632 639.568C358.552 641.875 372.865 644.247 390.601 644.866Z" fill="url(#paint56_linear)"/>
<path d="M362.099 624.832C361.82 625.09 361.948 625.553 362.32 625.625L365.582 626.259C367.128 626.56 368.139 628.059 367.843 629.611L367.453 631.618C367.152 633.164 365.653 634.175 364.101 633.879L360.839 633.245C360.467 633.172 360.175 633.553 360.337 633.897C361.363 636.04 363.35 637.692 365.866 638.175C368.325 638.654 370.746 637.91 372.494 636.365C373.263 635.681 374.302 635.398 375.306 635.593L399.691 640.333C401.548 640.694 403.336 639.479 403.697 637.622C404.058 635.765 402.851 633.962 400.998 633.607L376.61 628.861C375.606 628.666 374.748 628.015 374.292 627.093C373.253 625.01 371.287 623.415 368.824 622.931C366.312 622.453 363.847 623.234 362.099 624.832ZM400.108 635.908C400.65 636.014 401.002 636.535 400.896 637.077C400.791 637.62 400.269 637.971 399.727 637.866L374.851 633.03C374.309 632.925 373.957 632.404 374.063 631.861C374.168 631.319 374.69 630.968 375.232 631.073L400.108 635.908Z" fill="url(#paint57_linear)"/>
<path opacity="0.2" d="M470.307 687.164C479.673 687.819 487.406 686.34 487.58 683.861C487.753 681.382 480.301 678.841 470.935 678.186C461.569 677.531 453.836 679.01 453.663 681.489C453.489 683.968 460.941 686.509 470.307 687.164Z" fill="url(#paint58_linear)"/>
<path d="M981.143 562.245C980.942 561.878 980.413 561.892 980.238 562.27L978.692 565.583C977.96 567.153 976.092 567.833 974.514 567.104L972.475 566.153C970.905 565.421 970.225 563.552 970.954 561.975L972.499 558.661C972.675 558.284 972.347 557.87 971.936 557.952C969.376 558.477 967.085 560.158 965.899 562.714C964.734 565.212 964.883 567.994 966.068 570.271C966.593 571.274 966.618 572.458 966.143 573.478L954.595 598.242C953.715 600.129 954.536 602.361 956.422 603.24C958.308 604.12 960.553 603.311 961.426 601.428L972.981 576.66C973.456 575.641 974.38 574.898 975.485 574.657C977.984 574.103 980.211 572.429 981.383 569.928C982.561 567.375 982.383 564.536 981.143 562.245ZM959.206 599.865C958.949 600.416 958.299 600.653 957.749 600.396C957.198 600.139 956.961 599.489 957.218 598.938L968.999 573.674C969.256 573.123 969.906 572.887 970.457 573.143C971.007 573.4 971.244 574.05 970.987 574.601L959.206 599.865Z" fill="#627489"/>
<path d="M979.869 561.353C979.667 560.986 979.139 561 978.963 561.377L977.418 564.691C976.686 566.261 974.817 566.941 973.24 566.212L971.201 565.261C969.631 564.529 968.95 562.66 969.68 561.082L971.225 557.769C971.401 557.392 971.072 556.978 970.662 557.06C968.102 557.585 965.81 559.266 964.624 561.822C963.46 564.32 963.609 567.101 964.793 569.379C965.319 570.381 965.344 571.566 964.868 572.585L953.32 597.35C952.441 599.236 953.262 601.469 955.148 602.348C957.034 603.228 959.279 602.419 960.151 600.535L971.707 575.768C972.182 574.749 973.105 574.006 974.211 573.765C976.71 573.211 978.936 571.537 980.109 569.036C981.287 566.483 981.109 563.644 979.869 561.353ZM957.932 598.973C957.675 599.524 957.025 599.76 956.474 599.504C955.924 599.247 955.687 598.597 955.944 598.046L967.725 572.782C967.981 572.231 968.632 571.994 969.182 572.251C969.733 572.508 969.97 573.158 969.713 573.709L957.932 598.973Z" fill="url(#paint59_linear)"/>
<path d="M949.715 554.457L944.58 556.428L957.392 589.803L962.526 587.832L949.715 554.457Z" fill="url(#paint60_linear)"/>
<path d="M953.963 601.378C960.694 600.191 965.188 593.773 964.001 587.042C962.815 580.312 956.396 575.817 949.666 577.004C942.935 578.191 938.441 584.609 939.627 591.34C940.814 598.071 947.233 602.565 953.963 601.378Z" fill="url(#paint61_linear)"/>
<path d="M950.778 599.147C956.013 598.224 959.508 593.232 958.585 587.997C957.662 582.762 952.67 579.267 947.435 580.19C942.2 581.113 938.704 586.105 939.627 591.34C940.55 596.575 945.543 600.071 950.778 599.147Z" fill="#F6C79D"/>
<path d="M930.769 602.311C938.15 601.01 943.078 593.971 941.777 586.59C940.475 579.209 933.437 574.281 926.056 575.582C918.675 576.884 913.746 583.922 915.048 591.303C916.349 598.684 923.388 603.613 930.769 602.311Z" fill="url(#paint62_linear)"/>
<path d="M922.583 582.86L929.205 584.818L930.149 583.956L937.772 567.71L936.225 563.984L931.888 563.406L929.729 564.369L921.88 580.945L922.583 582.86Z" fill="#E0488C"/>
<path d="M911.51 610.489L912.746 606.264L914.603 603.712L914.772 603.791L923.062 586.01L921.041 585.067C920.346 584.743 920.046 583.918 920.37 583.224C920.526 582.889 920.8 582.646 921.119 582.521C921.011 581.866 921.091 581.172 921.393 580.526L929.575 562.977C930.372 561.27 932.402 560.531 934.11 561.327L936.816 562.588C938.523 563.385 939.262 565.415 938.466 567.123L930.283 584.671C929.99 585.298 929.53 585.793 928.982 586.131C929.116 586.473 929.116 586.866 928.949 587.225C928.625 587.919 927.8 588.219 927.106 587.895L925.163 586.989L916.872 604.769L917.039 604.846L916.264 607.903L913.79 611.551L911.51 610.489ZM931.445 565.073C930.708 564.73 929.834 565.048 929.489 565.785L923.091 579.506C922.748 580.243 923.066 581.118 923.803 581.462C924.539 581.805 925.415 581.487 925.759 580.75L932.157 567.028C932.501 566.292 932.182 565.416 931.445 565.073ZM930.242 582.84L936.641 569.119C936.984 568.382 936.666 567.507 935.929 567.164C935.192 566.82 934.317 567.139 933.973 567.876L927.575 581.597C927.231 582.334 927.55 583.209 928.287 583.552C929.023 583.896 929.898 583.578 930.242 582.84Z" fill="#FE68AC"/>
<path fill-rule="evenodd" clip-rule="evenodd" d="M910.648 592.261L975.201 580.879C976.398 580.668 977.539 581.467 977.75 582.663L980.615 598.913C981.459 603.699 978.263 608.263 973.477 609.107L921.923 618.197C917.137 619.041 912.573 615.845 911.729 611.059L908.864 594.81C908.653 593.613 909.452 592.472 910.648 592.261Z" fill="url(#paint63_linear)"/>
<path fill-rule="evenodd" clip-rule="evenodd" d="M908.529 593.153L956.832 584.636C958.029 584.425 959.17 585.224 959.381 586.42L962.246 602.67C963.09 607.456 959.894 612.02 955.108 612.864L919.804 619.089C915.018 619.933 910.453 616.737 909.61 611.951L906.744 595.702C906.533 594.505 907.332 593.364 908.529 593.153Z" fill="url(#paint64_linear)"/>
<path d="M910.01 601.31L970.233 590.691" stroke="#A189FF" stroke-width="3.3"/>
<path d="M922.5 504C926.642 504 930 500.642 930 496.5C930 492.358 926.642 489 922.5 489C918.358 489 915 492.358 915 496.5C915 500.642 918.358 504 922.5 504Z" stroke="#A3456B" stroke-width="5"/>
<path d="M495.5 607C499.09 607 502 604.09 502 600.5C502 596.91 499.09 594 495.5 594C491.91 594 489 596.91 489 600.5C489 604.09 491.91 607 495.5 607Z" stroke="#762369" stroke-width="3"/>
<path opacity="0.2" d="M364 705C366.761 705 369 702.761 369 700C369 697.239 366.761 695 364 695C361.239 695 359 697.239 359 700C359 702.761 361.239 705 364 705Z" stroke="#EADCE1" stroke-width="3"/>
<g opacity="0.5">
<path opacity="0.5" d="M396.189 455.658C395.745 447.719 398.517 442.765 404.507 440.798" stroke="#C6FFFF" stroke-width="2" stroke-linecap="round"/>
<path opacity="0.5" d="M404.737 465.017C402.779 454.765 406.166 447.502 414.897 443.228" stroke="#C6FFFF" stroke-width="2" stroke-linecap="round"/>
</g>
<path d="M1181.69 754.97C1199.13 755.884 1213.39 754.39 1213.54 751.632C1213.68 748.874 1199.66 745.898 1182.21 744.983C1164.76 744.069 1150.5 745.563 1150.36 748.321C1150.21 751.078 1164.24 754.055 1181.69 754.97Z" fill="url(#paint65_linear)"/>
<mask id="mask4" mask-type="alpha" maskUnits="userSpaceOnUse" x="1233" y="316" width="121" height="119">
<path d="M1278.07 432.604C1309.86 441.124 1342.51 422.399 1350.98 390.779C1359.45 359.16 1340.54 326.62 1308.75 318.1C1276.95 309.58 1244.31 328.306 1235.83 359.926C1227.36 391.545 1246.27 424.084 1278.07 432.604Z" fill="white"/>
</mask>
<g mask="url(#mask4)">
<path d="M1278.07 432.604C1309.86 441.124 1342.51 422.399 1350.98 390.779C1359.45 359.16 1340.54 326.62 1308.75 318.1C1276.95 309.58 1244.31 328.306 1235.83 359.926C1227.36 391.545 1246.27 424.084 1278.07 432.604Z" fill="url(#paint66_linear)"/>
<path fill-rule="evenodd" clip-rule="evenodd" d="M1233.35 338.842C1243.1 365.465 1259.91 381.668 1283.77 387.45C1307.63 393.233 1323.24 407.577 1330.61 430.484L1242.24 437.645L1223.67 389.506L1233.35 338.842Z" fill="url(#paint67_linear)"/>
<path fill-rule="evenodd" clip-rule="evenodd" d="M1232.53 376.239C1242.2 395.277 1257.46 407.38 1278.3 412.546C1299.15 417.713 1313.29 428.462 1320.73 444.794L1244.89 445.598L1226.59 411.129L1232.53 376.239Z" fill="url(#paint68_linear)"/>
</g>
<path fill-rule="evenodd" clip-rule="evenodd" d="M1353.23 380.992C1353.34 371.812 1352.88 365.253 1351.86 361.314C1349.2 351.132 1343.46 342.525 1341.98 340.729C1339.65 337.892 1336.04 333.973 1331.18 328.972C1319.73 320.378 1307.13 316.081 1293.37 316.081C1279.62 316.081 1267.74 320.107 1257.73 328.158C1261.93 341.78 1275.67 349.865 1298.95 352.412C1322.24 354.958 1340.33 364.485 1353.23 380.992Z" fill="url(#paint69_linear)"/>
<path opacity="0.1" fill-rule="evenodd" clip-rule="evenodd" d="M814.005 705.02L1081.41 704.14C1070.1 698.746 1062.53 694.053 1058.72 690.06C1043.12 673.727 1034.27 658.38 1022.76 658.38C999.173 658.38 995.804 684.78 986.783 684.78C977.763 684.78 973.82 669.367 955.311 668.764C936.802 668.162 930.48 686.651 921.024 688.355C911.568 690.06 901.441 674.864 891.234 677.974C881.027 681.084 877.456 690.927 864.899 694.301C852.342 697.675 839.554 687.537 833.072 692.222C828.75 695.346 822.394 699.612 814.005 705.02Z" fill="#FAF1ED"/>
<path opacity="0.1" d="M1065.5 664C1069.09 664 1072 661.09 1072 657.5C1072 653.91 1069.09 651 1065.5 651C1061.91 651 1059 653.91 1059 657.5C1059 661.09 1061.91 664 1065.5 664Z" fill="#D8D8D8"/>
<path opacity="0.1" d="M1092.5 678C1094.43 678 1096 676.433 1096 674.5C1096 672.567 1094.43 671 1092.5 671C1090.57 671 1089 672.567 1089 674.5C1089 676.433 1090.57 678 1092.5 678Z" fill="#D8D8D8"/>
<path opacity="0.1" d="M952 637C953.657 637 955 635.657 955 634C955 632.343 953.657 631 952 631C950.343 631 949 632.343 949 634C949 635.657 950.343 637 952 637Z" fill="#D8D8D8"/>
<path opacity="0.1" fill-rule="evenodd" clip-rule="evenodd" d="M917.5 660C920.538 660 923 662.462 923 665.5C923 668.538 920.538 671 917.5 671C914.977 671 912.851 669.302 912.203 666.986C910.409 666.837 909 665.333 909 663.5C909 661.567 910.567 660 912.5 660C913.329 660 914.091 660.289 914.691 660.771C915.513 660.281 916.473 660 917.5 660Z" fill="#D8D8D8"/>
</g>
<defs>
<linearGradient id="paint0_linear" x1="745.581" y1="553.685" x2="738.954" y2="554.302" gradientUnits="userSpaceOnUse">
<stop stop-color="#133650" stop-opacity="0"/>
<stop offset="1" stop-color="#0F3954"/>
</linearGradient>
<linearGradient id="paint1_linear" x1="-2135.78" y1="587.919" x2="2889.43" y2="1524.08" gradientUnits="userSpaceOnUse">
<stop stop-color="#33017D"/>
<stop offset="1" stop-color="#D04F4F"/>
</linearGradient>
<linearGradient id="paint2_linear" x1="-1.70935e-06" y1="631.544" x2="1494.61" y2="1308.43" gradientUnits="userSpaceOnUse">
<stop stop-color="#33017D"/>
<stop offset="1" stop-color="#D04F4F"/>
</linearGradient>
<linearGradient id="paint3_linear" x1="102.973" y1="688.103" x2="969.398" y2="553.617" gradientUnits="userSpaceOnUse">
<stop stop-color="#005865"/>
<stop offset="1" stop-color="#00282D"/>
</linearGradient>
<linearGradient id="paint4_linear" x1="1126.39" y1="711.466" x2="-646.541" y2="-302.325" gradientUnits="userSpaceOnUse">
<stop stop-color="#75226A"/>
<stop offset="1" stop-color="#FF8A6A"/>
</linearGradient>
<linearGradient id="paint5_linear" x1="367.834" y1="727.299" x2="1618.31" y2="1055.86" gradientUnits="userSpaceOnUse">
<stop stop-color="#33017D"/>
<stop offset="1" stop-color="#D04F4F"/>
</linearGradient>
<linearGradient id="paint6_linear" x1="1021.87" y1="601.916" x2="1214.7" y2="767.428" gradientUnits="userSpaceOnUse">
<stop stop-color="#33017D"/>
<stop offset="1" stop-color="#D04F4F"/>
</linearGradient>
<linearGradient id="paint7_linear" x1="1084.44" y1="616.37" x2="1272.12" y2="739.039" gradientUnits="userSpaceOnUse">
<stop stop-color="#33017D"/>
<stop offset="1" stop-color="#D04F4F"/>
</linearGradient>
<linearGradient id="paint8_linear" x1="1079.91" y1="608.092" x2="1266.59" y2="698.764" gradientUnits="userSpaceOnUse">
<stop stop-color="#33017D"/>
<stop offset="1" stop-color="#D04F4F"/>
</linearGradient>
<linearGradient id="paint9_linear" x1="552.659" y1="765.224" x2="965.692" y2="1061.38" gradientUnits="userSpaceOnUse">
<stop stop-color="#33017D"/>
<stop offset="1" stop-color="#D04F4F"/>
</linearGradient>
<linearGradient id="paint10_linear" x1="679.843" y1="783.115" x2="1075.15" y2="994.806" gradientUnits="userSpaceOnUse">
<stop stop-color="#33017D"/>
<stop offset="1" stop-color="#D04F4F"/>
</linearGradient>
<linearGradient id="paint11_linear" x1="683.065" y1="766.736" x2="1050.68" y2="912.499" gradientUnits="userSpaceOnUse">
<stop stop-color="#33017D"/>
<stop offset="1" stop-color="#D04F4F"/>
</linearGradient>
<linearGradient id="paint12_linear" x1="306.977" y1="619.325" x2="37.0219" y2="851.042" gradientUnits="userSpaceOnUse">
<stop stop-color="#33017D"/>
<stop offset="1" stop-color="#D04F4F"/>
</linearGradient>
<linearGradient id="paint13_linear" x1="219.378" y1="639.56" x2="-43.3653" y2="811.297" gradientUnits="userSpaceOnUse">
<stop stop-color="#33017D"/>
<stop offset="1" stop-color="#D04F4F"/>
</linearGradient>
<linearGradient id="paint14_linear" x1="245.886" y1="627.826" x2="-45.6284" y2="759.08" gradientUnits="userSpaceOnUse">
<stop stop-color="#33017D"/>
<stop offset="1" stop-color="#D04F4F"/>
</linearGradient>
<linearGradient id="paint15_linear" x1="121.572" y1="594.64" x2="488.453" y2="628.607" gradientUnits="userSpaceOnUse">
<stop stop-color="#33017D"/>
<stop offset="1" stop-color="#D04F4F"/>
</linearGradient>
<linearGradient id="paint16_linear" x1="873.464" y1="640.113" x2="1101.36" y2="720.457" gradientUnits="userSpaceOnUse">
<stop stop-color="#33017D"/>
<stop offset="1" stop-color="#D04F4F"/>
</linearGradient>
<linearGradient id="paint17_linear" x1="-147.684" y1="779.161" x2="500.274" y2="843.693" gradientUnits="userSpaceOnUse">
<stop stop-color="#33017D"/>
<stop offset="1" stop-color="#D04F4F"/>
</linearGradient>
<linearGradient id="paint18_linear" x1="693.96" y1="532.541" x2="796.806" y2="514.022" gradientUnits="userSpaceOnUse">
<stop stop-color="#02383C"/>
<stop offset="1" stop-color="#001E25"/>
</linearGradient>
<linearGradient id="paint19_linear" x1="874.132" y1="690.889" x2="1652.81" y2="1004.49" gradientUnits="userSpaceOnUse">
<stop stop-color="#33017D"/>
<stop offset="1" stop-color="#D04F4F"/>
</linearGradient>
<linearGradient id="paint20_linear" x1="530.027" y1="702.623" x2="1353.35" y2="744.085" gradientUnits="userSpaceOnUse">
<stop stop-color="#33017D"/>
<stop offset="1" stop-color="#D04F4F"/>
</linearGradient>
<linearGradient id="paint21_linear" x1="802.281" y1="652.149" x2="683.962" y2="698.419" gradientUnits="userSpaceOnUse">
<stop stop-color="#07848A"/>
<stop offset="1" stop-color="#1E0E29"/>
</linearGradient>
<linearGradient id="paint22_linear" x1="579.748" y1="647.162" x2="638.325" y2="702.058" gradientUnits="userSpaceOnUse">
<stop stop-color="#5F078A"/>
<stop offset="1" stop-color="#1E0E29"/>
</linearGradient>
<linearGradient id="paint23_linear" x1="784.311" y1="652.305" x2="692.333" y2="690.253" gradientUnits="userSpaceOnUse">
<stop stop-color="#07848A"/>
<stop offset="1" stop-color="#1E0E29"/>
</linearGradient>
<linearGradient id="paint24_linear" x1="667.246" y1="654.495" x2="683.386" y2="664.236" gradientUnits="userSpaceOnUse">
<stop stop-color="#07848A"/>
<stop offset="1" stop-color="#023437"/>
</linearGradient>
<linearGradient id="paint25_linear" x1="688.634" y1="642.752" x2="699.035" y2="676.723" gradientUnits="userSpaceOnUse">
<stop stop-color="#07848A"/>
<stop offset="1" stop-color="#023437"/>
</linearGradient>
<linearGradient id="paint26_linear" x1="557.412" y1="654.368" x2="601.928" y2="661.324" gradientUnits="userSpaceOnUse">
<stop stop-color="#5F078A"/>
<stop offset="1" stop-color="#633981"/>
</linearGradient>
<linearGradient id="paint27_linear" x1="782.389" y1="577.418" x2="707.546" y2="627.135" gradientUnits="userSpaceOnUse">
<stop stop-color="#FBFFFE"/>
<stop offset="1" stop-color="#A6938E"/>
</linearGradient>
<linearGradient id="paint28_linear" x1="737.393" y1="610.066" x2="733.603" y2="639.087" gradientUnits="userSpaceOnUse">
<stop stop-color="#FBFFFE"/>
<stop offset="1" stop-color="#A6938E"/>
</linearGradient>
<linearGradient id="paint29_linear" x1="788.191" y1="577.79" x2="760.865" y2="642.05" gradientUnits="userSpaceOnUse">
<stop stop-color="#FBFFFE"/>
<stop offset="1" stop-color="#97847E"/>
</linearGradient>
<linearGradient id="paint30_linear" x1="770.208" y1="555.12" x2="792.152" y2="648.286" gradientUnits="userSpaceOnUse">
<stop stop-color="#FBFFFE"/>
<stop offset="1" stop-color="#CCC0BD"/>
</linearGradient>
<linearGradient id="paint31_linear" x1="673.858" y1="536.656" x2="652.139" y2="659.829" gradientUnits="userSpaceOnUse">
<stop stop-color="#FBFFFE"/>
<stop offset="1" stop-color="#CCC0BD"/>
</linearGradient>
<linearGradient id="paint32_linear" x1="629.144" y1="511.36" x2="610.307" y2="622.536" gradientUnits="userSpaceOnUse">
<stop stop-color="#FBFFFE"/>
<stop offset="1" stop-color="#A6938E"/>
</linearGradient>
<linearGradient id="paint33_linear" x1="695.997" y1="552.59" x2="688.164" y2="607.665" gradientUnits="userSpaceOnUse">
<stop stop-color="#FBFFFE"/>
<stop offset="1" stop-color="#A6938E"/>
</linearGradient>
<linearGradient id="paint34_linear" x1="795.527" y1="589.814" x2="718.818" y2="622.77" gradientUnits="userSpaceOnUse">
<stop stop-color="#07848A"/>
<stop offset="1" stop-color="#1E0E29"/>
</linearGradient>
<linearGradient id="paint35_linear" x1="921.272" y1="641.767" x2="812.786" y2="707.88" gradientUnits="userSpaceOnUse">
<stop stop-color="#07848A"/>
<stop offset="1" stop-color="#1E0E29"/>
</linearGradient>
<linearGradient id="paint36_linear" x1="701.254" y1="675.499" x2="768.474" y2="719.389" gradientUnits="userSpaceOnUse">
<stop stop-color="#5F078A"/>
<stop offset="1" stop-color="#1E0E29"/>
</linearGradient>
<linearGradient id="paint37_linear" x1="903.602" y1="645.042" x2="819.611" y2="698.385" gradientUnits="userSpaceOnUse">
<stop stop-color="#07848A"/>
<stop offset="1" stop-color="#1E0E29"/>
</linearGradient>
<linearGradient id="paint38_linear" x1="739.735" y1="675.506" x2="765.321" y2="686.6" gradientUnits="userSpaceOnUse">
<stop stop-color="#5F078A"/>
<stop offset="1" stop-color="#1E0E29"/>
</linearGradient>
<linearGradient id="paint39_linear" x1="763.705" y1="671.803" x2="808.752" y2="670.924" gradientUnits="userSpaceOnUse">
<stop stop-color="#5F078A"/>
<stop offset="1" stop-color="#633981"/>
</linearGradient>
<linearGradient id="paint40_linear" x1="680.508" y1="686.473" x2="725.556" y2="685.594" gradientUnits="userSpaceOnUse">
<stop stop-color="#5F078A"/>
<stop offset="1" stop-color="#633981"/>
</linearGradient>
<linearGradient id="paint41_linear" x1="692.64" y1="482.661" x2="694.135" y2="503.178" gradientUnits="userSpaceOnUse">
<stop stop-color="#FBFFFE"/>
<stop offset="0.599592" stop-color="#AC9B95"/>
<stop offset="1" stop-color="#A6938E"/>
</linearGradient>
<linearGradient id="paint42_linear" x1="686.124" y1="483.559" x2="648.233" y2="517.211" gradientUnits="userSpaceOnUse">
<stop stop-color="#FBFFFE"/>
<stop offset="1" stop-color="#A6938E"/>
</linearGradient>
<linearGradient id="paint43_linear" x1="707.872" y1="485.906" x2="677.846" y2="514.176" gradientUnits="userSpaceOnUse">
<stop stop-color="#07848A"/>
<stop offset="1" stop-color="#1E0E29"/>
</linearGradient>
<linearGradient id="paint44_linear" x1="712.76" y1="488.727" x2="726.749" y2="509.981" gradientUnits="userSpaceOnUse">
<stop stop-color="#FBFFFE"/>
<stop offset="1" stop-color="#A6938E"/>
</linearGradient>
<linearGradient id="paint45_linear" x1="695.973" y1="485.296" x2="720.069" y2="529.878" gradientUnits="userSpaceOnUse">
<stop stop-color="#FBFFFE"/>
<stop offset="1" stop-color="#A6938E"/>
</linearGradient>
<linearGradient id="paint46_linear" x1="674.734" y1="480.063" x2="693.281" y2="516.897" gradientUnits="userSpaceOnUse">
<stop stop-color="#07848A"/>
<stop offset="1" stop-color="#1E0E29"/>
</linearGradient>
<linearGradient id="paint47_linear" x1="504.76" y1="503.003" x2="518.56" y2="581.263" gradientUnits="userSpaceOnUse">
<stop stop-color="#17C3B8"/>
<stop offset="1" stop-color="#019AA4"/>
</linearGradient>
<linearGradient id="paint48_linear" x1="427.8" y1="395.016" x2="558.097" y2="531.564" gradientUnits="userSpaceOnUse">
<stop stop-color="#36FFD5"/>
<stop offset="1" stop-color="#019AA4"/>
</linearGradient>
<linearGradient id="paint49_linear" x1="474.341" y1="524.006" x2="533.57" y2="557.712" gradientUnits="userSpaceOnUse">
<stop stop-color="#36FFD5"/>
<stop offset="1" stop-color="#019AA4"/>
</linearGradient>
<linearGradient id="paint50_linear" x1="483.67" y1="502.199" x2="492.218" y2="514.073" gradientUnits="userSpaceOnUse">
<stop stop-color="#02383C"/>
<stop offset="1" stop-color="#001E25"/>
</linearGradient>
<linearGradient id="paint51_linear" x1="517.399" y1="496.252" x2="525.948" y2="508.125" gradientUnits="userSpaceOnUse">
<stop stop-color="#02383C"/>
<stop offset="1" stop-color="#001E25"/>
</linearGradient>
<linearGradient id="paint52_linear" x1="895.694" y1="640.555" x2="1169.81" y2="622.816" gradientUnits="userSpaceOnUse">
<stop stop-color="#33017D"/>
<stop offset="1" stop-color="#D04F4F"/>
</linearGradient>
<linearGradient id="paint53_linear" x1="789.297" y1="485.906" x2="751.55" y2="458.02" gradientUnits="userSpaceOnUse">
<stop stop-color="#4415B8"/>
<stop offset="1" stop-color="#A188FF"/>
</linearGradient>
<linearGradient id="paint54_linear" x1="458.695" y1="635.271" x2="492.521" y2="698.692" gradientUnits="userSpaceOnUse">
<stop stop-color="#33017D"/>
<stop offset="1" stop-color="#D04F4F"/>
</linearGradient>
<linearGradient id="paint55_linear" x1="473.845" y1="687.055" x2="440.999" y2="628.562" gradientUnits="userSpaceOnUse">
<stop stop-color="#FBFFFE"/>
<stop offset="1" stop-color="#CCC0BD"/>
</linearGradient>
<linearGradient id="paint56_linear" x1="358.636" y1="639.476" x2="546.168" y2="623.939" gradientUnits="userSpaceOnUse">
<stop stop-color="#33017D"/>
<stop offset="1" stop-color="#D04F4F"/>
</linearGradient>
<linearGradient id="paint57_linear" x1="358.519" y1="611.942" x2="407.307" y2="641.174" gradientUnits="userSpaceOnUse">
<stop stop-color="#494865"/>
<stop offset="1" stop-color="#023437"/>
</linearGradient>
<linearGradient id="paint58_linear" x1="453.691" y1="681.078" x2="550.184" y2="664.902" gradientUnits="userSpaceOnUse">
<stop stop-color="#33017D"/>
<stop offset="1" stop-color="#D04F4F"/>
</linearGradient>
<linearGradient id="paint59_linear" x1="935.677" y1="501.195" x2="977.945" y2="564.045" gradientUnits="userSpaceOnUse">
<stop stop-color="#CED6DF"/>
<stop offset="1" stop-color="#8192A6"/>
</linearGradient>
<linearGradient id="paint60_linear" x1="940.132" y1="521.978" x2="960.899" y2="576.077" gradientUnits="userSpaceOnUse">
<stop stop-color="#CAE2FF"/>
<stop offset="1" stop-color="#5B5AE1"/>
</linearGradient>
<linearGradient id="paint61_linear" x1="966.15" y1="599.229" x2="965.729" y2="554.348" gradientUnits="userSpaceOnUse">
<stop stop-color="#FF895B"/>
<stop offset="1" stop-color="#FFEC9E"/>
</linearGradient>
<linearGradient id="paint62_linear" x1="942.145" y1="588.679" x2="872.071" y2="550.614" gradientUnits="userSpaceOnUse">
<stop stop-color="#4415B8"/>
<stop offset="1" stop-color="#A188FF"/>
</linearGradient>
<linearGradient id="paint63_linear" x1="979.813" y1="594.365" x2="924.401" y2="588.393" gradientUnits="userSpaceOnUse">
<stop stop-color="#4415B8"/>
<stop offset="1" stop-color="#A188FF"/>
</linearGradient>
<linearGradient id="paint64_linear" x1="961.485" y1="598.355" x2="879.09" y2="586.267" gradientUnits="userSpaceOnUse">
<stop stop-color="#4415B8"/>
<stop offset="1" stop-color="#A188FF"/>
</linearGradient>
<linearGradient id="paint65_linear" x1="1056.68" y1="742.837" x2="1278.77" y2="785.146" gradientUnits="userSpaceOnUse">
<stop stop-color="#33017D"/>
<stop offset="1" stop-color="#D04F4F"/>
</linearGradient>
<linearGradient id="paint66_linear" x1="1305.57" y1="338.354" x2="1230.96" y2="360.448" gradientUnits="userSpaceOnUse">
<stop stop-color="#F18E78"/>
<stop offset="1" stop-color="#DF5543"/>
</linearGradient>
<linearGradient id="paint67_linear" x1="1404.97" y1="483.575" x2="1232.09" y2="361.327" gradientUnits="userSpaceOnUse">
<stop stop-color="#F18E78"/>
<stop offset="1" stop-color="#DF5543"/>
</linearGradient>
<linearGradient id="paint68_linear" x1="1277.91" y1="413.004" x2="1221.51" y2="418.833" gradientUnits="userSpaceOnUse">
<stop stop-color="#F18E78"/>
<stop offset="1" stop-color="#DF5543"/>
</linearGradient>
<linearGradient id="paint69_linear" x1="1389.41" y1="359.6" x2="1251.56" y2="348.182" gradientUnits="userSpaceOnUse">
<stop stop-color="#F18E78"/>
<stop offset="1" stop-color="#DF5543"/>
</linearGradient>
<clipPath id="clip0">
<rect width="1440" height="796" fill="white"/>
</clipPath>
</defs>
</svg>
