<svg width="130" height="130" viewBox="0 0 130 130" fill="none" xmlns="http://www.w3.org/2000/svg">
<path fill-rule="evenodd" clip-rule="evenodd" d="M65 130C100.899 130 130 100.899 130 65C130 29.1015 100.899 0 65 0C29.1015 0 0 29.1015 0 65C0 100.899 29.1015 130 65 130Z" fill="#B0A7FF"/>
<mask id="mask0" mask-type="alpha" maskUnits="userSpaceOnUse" x="0" y="0" width="130" height="130">
<path fill-rule="evenodd" clip-rule="evenodd" d="M65 130C100.899 130 130 100.899 130 65C130 29.1015 100.899 0 65 0C29.1015 0 0 29.1015 0 65C0 100.899 29.1015 130 65 130Z" fill="white"/>
</mask>
<g mask="url(#mask0)">
<path opacity="0.3" fill-rule="evenodd" clip-rule="evenodd" d="M30.1641 119.583L213.718 -63.9706L234.112 -43.5757L50.5589 139.978L30.1641 119.583Z" fill="white"/>
<path opacity="0.3" fill-rule="evenodd" clip-rule="evenodd" d="M-28.9277 91.8613L154.626 -91.6923L175.021 -71.2974L-8.53289 112.256L-28.9277 91.8613Z" fill="white"/>
<path fill-rule="evenodd" clip-rule="evenodd" d="M66.8575 137.948C94.4276 137.948 116.777 115.598 116.777 88.0284C116.777 60.4583 94.4276 38.1084 66.8575 38.1084C39.2874 38.1084 16.9375 60.4583 16.9375 88.0284C16.9375 115.598 39.2874 137.948 66.8575 137.948Z" fill="#6154CE"/>
<path fill-rule="evenodd" clip-rule="evenodd" d="M66.8575 125.319C94.4276 125.319 116.777 102.97 116.777 75.3995C116.777 47.8294 94.4276 25.4795 66.8575 25.4795C39.2874 25.4795 16.9375 47.8294 16.9375 75.3995C16.9375 102.97 39.2874 125.319 66.8575 125.319Z" fill="#8679F7"/>
<path opacity="0.2" d="M66.8576 112.617C87.412 112.617 104.075 95.954 104.075 75.3996C104.075 54.8452 87.412 38.1826 66.8576 38.1826C46.3032 38.1826 29.6406 54.8452 29.6406 75.3996C29.6406 95.954 46.3032 112.617 66.8576 112.617Z" stroke="white" stroke-width="1.92456"/>
<path d="M53.2188 86.7729C53.2188 81.2175 57.7223 76.7139 63.2778 76.7139H69.6246C75.18 76.7139 79.6836 81.2174 79.6836 86.7729V89.4704C79.6836 91.8562 77.7495 93.7904 75.3636 93.7904H57.5387C55.1529 93.7904 53.2188 91.8562 53.2188 89.4704V86.7729Z" fill="white"/>
<rect x="58.9277" y="56.9473" width="14.5297" height="16.0865" rx="4.33097" fill="white"/>
</g>
</svg>
