<svg width="130" height="130" viewBox="0 0 130 130" fill="none" xmlns="http://www.w3.org/2000/svg">
<g clip-path="url(#clip0_425_24850)">
<rect width="130" height="130" rx="65" fill="#89C8F2"/>
<path opacity="0.2" d="M89.3919 -37.0001L-69 121.392L-60.5147 129.877L97.8772 -28.5148L89.3919 -37.0001Z" fill="white"/>
<path opacity="0.2" d="M102.392 -18L-56 140.392L-47.5147 148.877L110.877 -9.51471L102.392 -18Z" fill="white"/>
<path fill-rule="evenodd" clip-rule="evenodd" d="M48.5 149C75.8381 149 98 126.838 98 99.5C98 72.1619 75.8381 50 48.5 50C21.1619 50 -1 72.1619 -1 99.5C-1 126.838 21.1619 149 48.5 149Z" fill="#1B6BA0"/>
<path fill-rule="evenodd" clip-rule="evenodd" d="M48.5 140C75.8381 140 98 117.838 98 90.5C98 63.1619 75.8381 41 48.5 41C21.1619 41 -1 63.1619 -1 90.5C-1 117.838 21.1619 140 48.5 140Z" fill="#4BA3DD"/>
<path opacity="0.2" d="M83.7715 90.5C83.7715 109.98 67.9799 125.771 48.5 125.771C29.0201 125.771 13.2285 109.98 13.2285 90.5C13.2285 71.0201 29.0201 55.2285 48.5 55.2285C67.9799 55.2285 83.7715 71.0201 83.7715 90.5Z" stroke="white" stroke-width="3"/>
<path d="M40.7027 85C40.7027 85 38.027 85 35.3514 85C32.6757 85 30 87.4324 30 90.3514C30 93.2703 32.1892 95.7027 35.3514 95.7027C38.5135 95.7027 42.8919 95.7027 46.0541 95.7027C49.2162 95.7027 51.4054 93.2703 51.4054 90.3514" stroke="white" stroke-width="3" stroke-linecap="round"/>
<path d="M55.2973 95.7027C55.2973 95.7027 57.973 95.7027 60.6486 95.7027C63.3243 95.7027 66 93.2703 66 90.3514C66 87.4325 63.8108 85 60.6486 85C57.4865 85 53.1081 85 49.9459 85C46.7838 85 44.5946 87.4325 44.5946 90.3514" stroke="white" stroke-width="3" stroke-linecap="round"/>
<path d="M95.5352 36H110.915V51.3794" stroke="white" stroke-width="5"/>
<path d="M110.385 36.5606L92 54.9454" stroke="white" stroke-width="5"/>
</g>
<defs>
<clipPath id="clip0_425_24850">
<rect width="130" height="130" rx="65" fill="white"/>
</clipPath>
</defs>
</svg>
