<svg width="20" height="20" viewBox="0 0 20 20" fill="none" xmlns="http://www.w3.org/2000/svg">
<path d="M6.68952 15.523C6.68952 15.602 6.59677 15.664 6.47984 15.664C6.34677 15.676 6.25403 15.613 6.25403 15.523C6.25403 15.445 6.34677 15.383 6.46371 15.383C6.58468 15.371 6.68952 15.434 6.68952 15.523ZM5.43548 15.348C5.40726 15.426 5.4879 15.516 5.60887 15.539C5.71371 15.578 5.83468 15.539 5.85887 15.461C5.88306 15.383 5.80645 15.293 5.68548 15.258C5.58064 15.23 5.46371 15.27 5.43548 15.348ZM7.21774 15.281C7.10081 15.309 7.02016 15.383 7.03226 15.473C7.04435 15.551 7.14919 15.602 7.27016 15.574C7.3871 15.547 7.46774 15.473 7.45564 15.395C7.44355 15.32 7.33468 15.27 7.21774 15.281ZM9.87097 0.312012C4.27823 0.312012 0 4.42601 0 9.84401C0 14.176 2.81452 17.883 6.83468 19.188C7.35081 19.277 7.53226 18.969 7.53226 18.715C7.53226 18.473 7.52016 17.137 7.52016 16.316C7.52016 16.316 4.69758 16.902 4.10484 15.152C4.10484 15.152 3.64516 14.016 2.98387 13.723C2.98387 13.723 2.06048 13.109 3.04839 13.121C3.04839 13.121 4.05242 13.199 4.60484 14.129C5.4879 15.637 6.96774 15.203 7.54435 14.945C7.6371 14.32 7.89919 13.887 8.18952 13.629C5.93548 13.387 3.66129 13.07 3.66129 9.31201C3.66129 8.23801 3.96774 7.69901 4.6129 7.01201C4.50806 6.75801 4.16532 5.71101 4.71774 4.35901C5.56048 4.10501 7.5 5.41402 7.5 5.41402C8.30645 5.19502 9.17339 5.08202 10.0323 5.08202C10.8911 5.08202 11.7581 5.19502 12.5645 5.41402C12.5645 5.41402 14.504 4.10201 15.3468 4.35901C15.8992 5.71501 15.5565 6.75801 15.4516 7.01201C16.0968 7.70301 16.4919 8.24201 16.4919 9.31201C16.4919 13.082 14.1169 13.383 11.8629 13.629C12.2339 13.937 12.5484 14.523 12.5484 15.441C12.5484 16.758 12.5363 18.387 12.5363 18.707C12.5363 18.961 12.7218 19.27 13.2339 19.18C17.2661 17.883 20 14.176 20 9.84401C20 4.42601 15.4637 0.312012 9.87097 0.312012ZM3.91935 13.785C3.86694 13.824 3.87903 13.914 3.94758 13.988C4.0121 14.051 4.10484 14.078 4.15726 14.027C4.20968 13.988 4.19758 13.898 4.12903 13.824C4.06452 13.762 3.97177 13.734 3.91935 13.785ZM3.48387 13.469C3.45565 13.52 3.49597 13.582 3.57661 13.621C3.64113 13.66 3.72177 13.648 3.75 13.594C3.77823 13.543 3.7379 13.48 3.65726 13.441C3.57661 13.418 3.5121 13.43 3.48387 13.469ZM4.79032 14.859C4.72581 14.91 4.75 15.027 4.84274 15.102C4.93548 15.191 5.05242 15.203 5.10484 15.141C5.15726 15.09 5.13306 14.973 5.05242 14.898C4.96371 14.809 4.84274 14.797 4.79032 14.859ZM4.33065 14.285C4.26613 14.324 4.26613 14.426 4.33065 14.516C4.39516 14.605 4.50403 14.645 4.55645 14.605C4.62097 14.555 4.62097 14.453 4.55645 14.363C4.5 14.273 4.39516 14.234 4.33065 14.285Z" fill="#073A3F"/>
</svg>
