<svg width="26" height="26" viewBox="0 0 26 26" fill="none" xmlns="http://www.w3.org/2000/svg">
<path fill-rule="evenodd" clip-rule="evenodd" d="M13 25C19.6274 25 25 19.6274 25 13C25 6.37258 19.6274 1 13 1C6.37258 1 1 6.37258 1 13C1 19.6274 6.37258 25 13 25Z" stroke="#93A1B2" stroke-linecap="round" stroke-linejoin="round"/>
<path d="M13.3599 10.3274L14.4777 9.20965C15.1479 8.53942 16.2346 8.53942 16.9048 9.20965C17.575 9.87988 17.575 10.9665 16.9048 11.6368L15.0429 13.4986C14.3727 14.1689 13.286 14.1689 12.6158 13.4986" stroke="#93A1B2" stroke-linecap="round" stroke-linejoin="round"/>
<path d="M12.8358 15.7058L11.7181 16.8236C11.0478 17.4938 9.96119 17.4938 9.29096 16.8236C8.62073 16.1533 8.62073 15.0667 9.29096 14.3964L11.1529 12.5346C11.8231 11.8643 12.9097 11.8643 13.58 12.5346" stroke="#93A1B2" stroke-linecap="round" stroke-linejoin="round"/>
</svg>
