<svg width="1351" height="300" viewBox="0 0 1351 300" fill="none" xmlns="http://www.w3.org/2000/svg">
<path d="M394.8 138.4V232.1C394.8 233.3 395.8 234.3 397 234.3H423C424.2 234.3 425.2 233.3 425.2 232.1V138.2C425.2 134.5 428.2 131.5 431.9 131.5H473C474.2 131.5 475.2 130.5 475.2 129.3V103.3C475.2 102.1 474.2 101.1 473 101.1H432.1C411.5 100.9 394.8 117.7 394.8 138.4Z" fill="white"/>
<path d="M546.9 98.7C508.9 98.7 477.6 130.4 477.9 168.3C478.3 206 508.7 236.6 546 236.6C560.4 236.6 574.1 231.2 585.3 221.5V232.1C585.3 233.3 586.3 234.3 587.5 234.3H613.5C614.7 234.3 615.7 233.3 615.7 232.1V167.6C615.8 129.6 584.9 98.7 546.9 98.7ZM585.3 167.7C585.3 189.1 568.1 206.6 546.9 206.6C525.7 206.6 508.5 189.2 508.5 167.7C508.5 146.3 525.7 128.8 546.9 128.8C568.1 128.8 585.3 146.2 585.3 167.7Z" fill="white"/>
<path d="M704.9 98.7C690.9 98.7 677.5 103.5 666.5 112.4V58.6C666.5 57.4 665.5 56.4 664.3 56.4H638.3C637.1 56.4 636.1 57.4 636.1 58.6V167.4C636.1 205.4 666.7 236.6 704.7 236.8C742.9 237 774 206 774 167.8C773.9 129.6 743 98.7 704.9 98.7ZM743.4 167.7C743.4 189.1 726.2 206.6 705 206.6C683.8 206.6 666.6 189.2 666.6 167.7C666.6 146.3 683.8 128.8 705 128.8C726.1 128.8 743.4 146.2 743.4 167.7Z" fill="white"/>
<path d="M860.1 98.7C846.1 98.7 832.7 103.5 821.7 112.4V58.6C821.7 57.4 820.7 56.4 819.5 56.4H793.5C792.3 56.4 791.3 57.4 791.3 58.6V167.4C791.3 205.4 821.9 236.6 859.9 236.8C898.1 237 929.2 206 929.2 167.8C929.1 129.6 898.1 98.7 860.1 98.7ZM898.5 167.7C898.5 189.1 881.3 206.6 860.1 206.6C838.9 206.6 821.7 189.2 821.7 167.7C821.7 146.3 838.9 128.8 860.1 128.8C881.3 128.8 898.5 146.2 898.5 167.7Z" fill="white"/>
<path d="M1036.5 56.3H1010.5C1009.3 56.3 1008.3 57.3 1008.3 58.5V167.6C1008.3 205.7 1039.2 236.6 1077.3 236.6H1085.8C1087 236.6 1088 235.6 1088 234.4V208.4C1088 207.2 1087 206.2 1085.8 206.2H1077.3C1056.1 206.2 1038.9 189 1038.9 167.8V130.6H1085.9C1087.1 130.6 1088.1 129.6 1088.1 128.4V102.8C1088.1 101.6 1087.1 100.6 1085.9 100.6H1038.9V58.7C1038.8 57.3 1037.8 56.3 1036.5 56.3Z" fill="white"/>
<path d="M1282 98.7C1244 98.7 1213 129.6 1213 167.7C1213 205.7 1243.9 236.7 1282 236.7C1320 236.7 1351 205.8 1351 167.7C1351 129.6 1320.1 98.7 1282 98.7ZM1320.5 167.7C1320.5 189.1 1303.3 206.6 1282.1 206.6C1260.9 206.6 1243.7 189.2 1243.7 167.7C1243.7 146.3 1260.9 128.8 1282.1 128.8C1303.2 128.8 1320.5 146.2 1320.5 167.7Z" fill="white"/>
<path d="M1163.6 234.4H1189.6C1190.8 234.4 1191.8 233.4 1191.8 232.2V103.2C1191.8 102 1190.8 101 1189.6 101H1163.6C1162.4 101 1161.4 102 1161.4 103.2V232.2C1161.3 233.4 1162.3 234.4 1163.6 234.4Z" fill="white"/>
<path d="M1176.6 46.9C1165.7 46.9 1156.8 55.8 1156.8 66.7C1156.8 77.6 1165.7 86.5 1176.6 86.5C1187.5 86.5 1196.4 77.6 1196.4 66.7C1196.4 55.7 1187.5 46.9 1176.6 46.9Z" fill="white"/>
<path d="M1124.9 197C1114 197 1105.1 205.9 1105.1 216.8C1105.1 227.7 1114 236.6 1124.9 236.6C1135.8 236.6 1144.7 227.7 1144.7 216.8C1144.8 205.9 1135.9 197 1124.9 197Z" fill="white"/>
<path d="M952.5 234.4H978.5C979.7 234.4 980.7 233.4 980.7 232.2V103.2C980.7 102 979.7 101 978.5 101H952.5C951.3 101 950.3 102 950.3 103.2V232.2C950.3 233.4 951.3 234.4 952.5 234.4Z" fill="white"/>
<path d="M965.5 86.5C976.435 86.5 985.3 77.6353 985.3 66.7C985.3 55.7648 976.435 46.9 965.5 46.9C954.565 46.9 945.7 55.7648 945.7 66.7C945.7 77.6353 954.565 86.5 965.5 86.5Z" fill="white"/>
<path d="M197.9 0C161.5 0 97.7001 43.3 56.6001 100.5C20.8001 150.1 7.40008 194.5 1.60007 239.2C-3.49992 270.9 22.5001 300 54.5001 300H181.2C190.2 300 197.7 292.7 197.8 283.7C197.9 274.6 190.5 267.2 181.4 267.2H54.4001C41.8001 267.2 32.2001 256.1 33.9001 243.7C40.8001 194.8 54.5001 159.3 83.3001 119.3C127.8 59.4 172 39.4 188.2 34.2C204.2 28.9 215.2 36.3 215.2 53.1C223.6 50.5 235.9 47.7 247.7 47.4C244.9 20.9 226.3 0 197.9 0Z" fill="#24BE6A"/>
<path d="M242.1 221.7C264.8 199.5 301 143.5 301 95.3C301 78.3 293.3 46.9 251.1 46.9C172.5 46.9 73.4 140.6 121.3 186.3C127.2 191.7 136.9 197.4 151.9 197.4C195.6 197.4 235.1 146.3 246.2 79.5C248.3 79.3 250.4 79.3 252.5 79.3C262.9 79.3 268.2 83.1 268.2 95.1C268.2 127.4 242.9 179.3 207.7 209.7C196.5 219.8 203.7 231.9 209.2 235.8C228.2 251.3 240.8 268 245.5 286.7C247.6 294.4 253.8 299.9 261.6 299.9C273 299.9 277.5 289.6 277.5 282.5C277.5 266.3 259.3 237.9 242.1 221.7ZM152 165.3C121.4 165.3 159.5 110.8 211.1 88.6C197.5 141.4 169.5 165.3 152 165.3Z" fill="#16CDD6"/>
<path d="M152 165.3V197.4C195.7 197.4 235.2 146.3 246.3 79.5C234.3 80.4 222.4 83.7 211.1 88.6C197.5 141.4 169.5 165.3 152 165.3Z" fill="url(#paint0_linear)"/>
<defs>
<linearGradient id="paint0_linear" x1="194.296" y1="83.5406" x2="202.227" y2="174.189" gradientUnits="userSpaceOnUse">
<stop stop-color="#006838"/>
<stop offset="0.01948" stop-color="#036F3C"/>
<stop offset="0.1274" stop-color="#119150"/>
<stop offset="0.2297" stop-color="#1CAA5E"/>
<stop offset="0.3233" stop-color="#22B967"/>
<stop offset="0.4" stop-color="#24BE6A"/>
<stop offset="0.9" stop-color="#16CDD6" stop-opacity="0"/>
</linearGradient>
</defs>
</svg>
