<svg width="301" height="300" viewBox="0 0 301 300" fill="none" xmlns="http://www.w3.org/2000/svg">
<path d="M241.142 221.6C263.842 199.4 300.042 143.4 300.042 95.2C300.042 78.2 292.342 46.8 250.142 46.8C248.942 46.8 247.742 46.8 246.642 46.9C243.742 20.6 225.242 0 196.942 0C160.542 0 96.7418 43.3 55.6418 100.5C19.8418 150.1 6.44182 194.5 0.641823 239.2C-4.45818 270.9 21.5418 300 53.5418 300H180.242C189.242 300 196.742 292.7 196.842 283.7C196.942 274.6 189.542 267.2 180.442 267.2H53.4418C40.8418 267.2 31.2418 256.1 32.9418 243.7C39.8418 194.8 53.5418 159.3 82.3418 119.3C126.842 59.4 171.042 39.4 187.242 34.2C203.142 29 214.042 36.2 214.242 52.7C145.342 73.8 79.6418 147.4 120.442 186.3C126.342 191.7 136.042 197.4 151.042 197.4C190.642 197.4 226.642 155.6 241.442 98.2C224.142 100.6 208.042 109.5 202.142 113.1C187.442 148.9 165.642 165.3 151.142 165.3C112.742 165.3 182.642 79.3 251.742 79.3C262.142 79.3 267.442 83.1 267.442 95.1C267.442 127.4 242.142 179.3 206.942 209.7C195.742 219.8 202.942 231.9 208.442 235.8C227.442 251.3 240.042 268 244.742 286.7C246.842 294.4 253.042 299.9 260.842 299.9C272.242 299.9 276.742 289.6 276.742 282.5C276.542 266.2 258.342 237.8 241.142 221.6Z" fill="white"/>
</svg>
