<svg width="17" height="17" viewBox="0 0 17 17" fill="none" xmlns="http://www.w3.org/2000/svg">
    <rect x="0.5" y="0.25" width="16" height="16" rx="8" fill="#DAF1FE"/>
    <path fill-rule="evenodd" clip-rule="evenodd" d="M8.44968 9.62287C8.0213 9.62287 7.67264 9.24008 7.815 8.83604C7.84547 8.74956 7.87999 8.67275 7.91856 8.61686C8.10216 8.35084 8.37005 8.06047 8.72224 7.74574C8.99201 7.50594 9.19246 7.298 9.3236 7.1219C9.45474 6.9458 9.52031 6.74535 9.52031 6.52054C9.52031 6.20581 9.39292 5.95103 9.13814 5.7562C8.88335 5.56137 8.5424 5.46395 8.11527 5.46395C7.62404 5.46395 7.05412 5.78283 6.68203 6.03347C6.43716 6.19842 6.11362 6.21939 5.86602 6.05857C5.51562 5.83099 5.45796 5.34121 5.77515 5.06925C5.99176 4.88352 6.23474 4.69937 6.44046 4.60407C6.95003 4.36802 7.5495 4.25 8.23891 4.25C9.07819 4.25 9.74698 4.43172 10.2453 4.79516C10.7436 5.15859 10.9928 5.65878 10.9928 6.29574C10.9928 6.60297 10.9422 6.87274 10.841 7.10504C10.7399 7.33734 10.6181 7.53404 10.4757 7.69516C10.3334 7.85627 10.146 8.04173 9.91372 8.25155C9.62896 8.50633 9.41727 8.73114 9.27864 8.92597C9.25936 8.95306 9.24143 8.98609 9.22483 9.02289C9.0785 9.34733 8.8056 9.62287 8.44968 9.62287Z" fill="url(#paint1_linear)"/>
    <path fill-rule="evenodd" clip-rule="evenodd" d="M8.3626 12.3094C8.10033 12.3094 7.88489 12.2251 7.71629 12.0565C7.54768 11.8879 7.46338 11.6799 7.46338 11.4326C7.46338 11.1854 7.54768 10.9793 7.71629 10.8144C7.88489 10.6496 8.10033 10.5671 8.3626 10.5671C8.61739 10.5671 8.82908 10.6496 8.99768 10.8144C9.16629 10.9793 9.25059 11.1854 9.25059 11.4326C9.25059 11.6799 9.16629 11.8879 8.99768 12.0565C8.82908 12.2251 8.61739 12.3094 8.3626 12.3094Z" fill="url(#paint2_linear)"/>
    <defs>
        <linearGradient id="paint0_linear" x1="25.862" y1="18.5044" x2="12.7031" y2="-2.23444" gradientUnits="userSpaceOnUse">
            <stop stop-color="#FCE2F0"/>
            <stop offset="1" stop-color="#F7EAFD"/>
        </linearGradient>
        <linearGradient id="paint1_linear" x1="14.2067" y1="10.3799" x2="9.83017" y2="3.3283" gradientUnits="userSpaceOnUse">
            <stop stop-color="#55E7D9"/>
            <stop offset="1" stop-color="#54B4FF"/>
        </linearGradient>
        <linearGradient id="paint2_linear" x1="10.2963" y1="12.5549" x2="8.87929" y2="10.2639" gradientUnits="userSpaceOnUse">
            <stop stop-color="#55E7D9"/>
            <stop offset="1" stop-color="#54B4FF"/>
        </linearGradient>
    </defs>
</svg>
