<svg width="14" height="14" viewBox="0 0 14 14" fill="none" xmlns="http://www.w3.org/2000/svg">
<path d="M4.85713 3.9375V5.25H9.14287V3.9375C9.14287 2.72891 8.18393 1.75 7 1.75C5.81607 1.75 4.85713 2.72891 4.85713 3.9375ZM3.14286 5.25V3.9375C3.14286 1.76367 4.87053 0 7 0C9.12947 0 10.8571 1.76367 10.8571 3.9375V5.25H11.2857C12.2312 5.25 13 6.03477 13 7V12.25C13 13.2152 12.2312 14 11.2857 14H2.71429C1.76875 14 1 13.2152 1 12.25V7C1 6.03477 1.76875 5.25 2.71429 5.25H3.14286Z" fill="#232D42"/>
</svg>
