<svg width="16" height="12" viewBox="0 0 16 12" fill="none" xmlns="http://www.w3.org/2000/svg">
<mask id="mask0_370_24996" style="mask-type:luminance" maskUnits="userSpaceOnUse" x="1" y="0" width="13" height="12">
<path fill-rule="evenodd" clip-rule="evenodd" d="M2.56168 5.88507C2.97297 5.8359 3.34624 6.12946 3.39541 6.54074C3.662 8.7707 5.56127 10.5 7.86333 10.5C9.12275 10.5 10.2602 9.9836 11.0779 9.1491C11.3678 8.8532 11.8426 8.8484 12.1385 9.1383C12.4344 9.4281 12.4392 9.903 12.1493 10.1989C11.0611 11.3095 9.5422 12 7.86333 12C4.79265 12 2.26168 9.6939 1.90601 6.71879C1.85684 6.30751 2.1504 5.93424 2.56168 5.88507ZM4.07082 1.35039C5.10419 0.50663 6.4256 0 7.86333 0C11.177 0 13.8633 2.68629 13.8633 6C13.8633 6.41421 13.5275 6.75 13.1133 6.75C12.6991 6.75 12.3633 6.41421 12.3633 6C12.3633 3.51472 10.3486 1.5 7.86333 1.5C6.78383 1.5 5.7949 1.87916 5.01952 2.51228C4.69867 2.77425 4.2262 2.72653 3.96423 2.40568C3.70225 2.08484 3.74998 1.61237 4.07082 1.35039Z" fill="white"/>
</mask>
<g mask="url(#mask0_370_24996)">
<path d="M4.38832 6.42204C4.27359 5.46237 3.40263 4.77742 2.44296 4.89214L2.68036 6.878C2.54327 6.89439 2.41885 6.79654 2.40246 6.65944L4.38832 6.42204ZM7.86331 9.5C6.07341 9.5 4.59549 8.155 4.38832 6.42204L2.40246 6.65944C2.72846 9.3865 5.04908 11.5 7.86331 11.5V9.5ZM10.3636 8.4492C9.72633 9.0996 8.84322 9.5 7.86331 9.5V11.5C9.40225 11.5 10.7941 10.8676 11.7922 9.8489L10.3636 8.4492ZM12.8383 8.424C12.148 7.74756 11.04 7.7589 10.3636 8.4492L11.7922 9.8489C11.6955 9.9476 11.5373 9.9492 11.4386 9.8525L12.8383 8.424ZM12.8636 10.8987C13.54 10.2084 13.5287 9.1004 12.8383 8.424L11.4386 9.8525C11.34 9.7559 11.3384 9.5976 11.435 9.499L12.8636 10.8987ZM7.86331 13C9.82187 13 11.5952 12.1933 12.8636 10.8987L11.435 9.499C10.5271 10.4256 9.26246 11 7.86331 11V13ZM0.913057 6.8375C1.3281 10.3092 4.28003 13 7.86331 13V11C5.30523 11 3.19523 9.0787 2.89892 6.60009L0.913057 6.8375ZM2.44296 4.89214C1.4833 5.00687 0.798337 5.87783 0.913057 6.8375L2.89892 6.60009C2.91531 6.73719 2.81746 6.86161 2.68036 6.878L2.44296 4.89214ZM7.86331 -1C6.18672 -1 4.64366 -0.40837 3.43833 0.5758L4.70327 2.12498C5.56468 1.42162 6.66445 1 7.86331 1V-1ZM14.8633 6C14.8633 2.13401 11.7293 -1 7.86331 -1V1C10.6248 1 12.8633 3.23858 12.8633 6H14.8633ZM13.1133 7.75C14.0798 7.75 14.8633 6.9665 14.8633 6H12.8633C12.8633 5.86193 12.9753 5.75 13.1133 5.75V7.75ZM11.3633 6C11.3633 6.9665 12.1468 7.75 13.1133 7.75V5.75C13.2514 5.75 13.3633 5.86193 13.3633 6H11.3633ZM7.86331 2.5C9.79627 2.5 11.3633 4.067 11.3633 6H13.3633C13.3633 2.96243 10.9009 0.5 7.86331 0.5V2.5ZM5.65196 3.28686C6.2553 2.79423 7.02256 2.5 7.86331 2.5V0.5C6.54505 0.5 5.33446 0.9641 4.38703 1.73769L5.65196 3.28686ZM3.18962 3.03815C3.8009 3.78679 4.90333 3.89814 5.65196 3.28686L4.38703 1.73769C4.49398 1.65036 4.65147 1.66627 4.7388 1.77322L3.18962 3.03815ZM3.43833 0.5758C2.6897 1.18708 2.57834 2.28951 3.18962 3.03815L4.7388 1.77322C4.82612 1.88017 4.81021 2.03766 4.70327 2.12498L3.43833 0.5758Z" fill="#232D42"/>
</g>
<path d="M1 7.01244L2.75561 5.25684L4.51121 7.01244" stroke="#232D42" stroke-width="1.5" stroke-linecap="round" stroke-linejoin="round"/>
<path d="M11.3761 5.10863L13.0207 6.75317L14.6652 5.10863" stroke="#232D42" stroke-width="1.5" stroke-linecap="round" stroke-linejoin="round"/>
</svg>
