<svg width="44" height="50" viewBox="0 0 44 50" fill="none" xmlns="http://www.w3.org/2000/svg">
<path d="M3.14286 0C4.88125 0 6.28571 1.39648 6.28571 3.125V4.6875L13.0625 3.00781C16.8045 2.08008 20.7527 2.50977 24.2098 4.22852C28.7571 6.49414 34.1098 6.49414 38.6571 4.22852L39.6 3.75977C41.6232 2.74414 44 4.20898 44 6.45508V33.7695C44 35.0684 43.1848 36.2402 41.9571 36.6992L38.5491 37.9687C34.0116 39.6582 28.9634 39.3945 24.6321 37.2461C20.9098 35.3906 16.6375 34.9316 12.6009 35.9375L6.28571 37.5V46.875C6.28571 48.6035 4.88125 50 3.14286 50C1.40446 50 0 48.6035 0 46.875V3.125C0 1.39648 1.40446 0 3.14286 0ZM6.28571 18.2715L12.5714 16.9141V23.3105L6.28571 24.668V31.0645L11.0786 29.873C11.5795 29.7461 12.0705 29.6387 12.5714 29.5508V23.3105L16.392 22.4902C17.2071 22.3145 18.0321 22.2461 18.8571 22.2852V16.0352C20.1929 16.0742 21.5286 16.2891 22.825 16.6602L25.1429 17.334V23.8477L21.0473 22.6465C20.3304 22.4414 19.5937 22.3145 18.8571 22.2754V29.248C20.9982 29.4336 23.1098 29.9023 25.1429 30.6543V23.8379L27.3723 24.4922C28.6982 24.8828 30.0536 25.1172 31.4286 25.2148V18.9453C30.6625 18.8672 29.8964 18.7207 29.15 18.5059L25.1429 17.334V11.2793C23.8661 10.9082 22.6089 10.4199 21.3911 9.81445C20.5857 9.41406 19.7312 9.13086 18.8571 8.95508V16.0254C17.5804 15.9863 16.3036 16.1035 15.0562 16.377L12.5714 16.9141V9.57031L6.28571 11.1328V18.2715ZM31.4286 32.7832C33.0786 32.9297 34.758 32.7148 36.3393 32.1191L37.7143 31.6113V24.6094L36.9384 24.7852C35.1312 25.2051 33.275 25.3418 31.4286 25.2246V32.7832ZM37.7143 18.1934V11.2793C35.6616 11.875 33.55 12.168 31.4286 12.168V18.9453C32.7937 19.082 34.1786 18.9941 35.5241 18.6914L37.7143 18.1836V18.1934Z" fill="#24be6a"/>
</svg>
