<svg width="576" height="512" viewBox="0 0 576 512" fill="none" xmlns="http://www.w3.org/2000/svg">
<g clip-path="url(#clip0_248_7)">
<path d="M316.9 18C311.6 7 300.4 0 288.1 0C275.8 0 264.7 7 259.3 18L195 150.3L51.4 171.5C39.4 173.3 29.4 181.7 25.7 193.2C22 204.7 25 217.4 33.6 225.9L137.8 329L113.2 474.7C111.2 486.7 116.2 498.9 126.1 506C136 513.1 149.1 514 159.9 508.3L288.2 439.8L416.5 508.3C427.3 514 440.4 513.2 450.3 506C460.2 498.8 465.2 486.7 463.2 474.7L438.5 329L542.7 225.9C551.3 217.4 554.4 204.7 550.6 193.2C546.8 181.7 536.9 173.3 524.9 171.5L381.2 150.3L316.9 18Z" fill="#16CDD6"/>
</g>
<defs>
<clipPath id="clip0_248_7">
<rect width="576" height="512" fill="white"/>
</clipPath>
</defs>
</svg>
