<svg width="130" height="130" viewBox="0 0 130 130" fill="none" xmlns="http://www.w3.org/2000/svg">
<path fill-rule="evenodd" clip-rule="evenodd" d="M65 130C100.899 130 130 100.899 130 65C130 29.1015 100.899 0 65 0C29.1015 0 0 29.1015 0 65C0 100.899 29.1015 130 65 130Z" fill="#AFEBC3"/>
<mask id="mask0" mask-type="alpha" maskUnits="userSpaceOnUse" x="0" y="0" width="130" height="130">
<path fill-rule="evenodd" clip-rule="evenodd" d="M65 130C100.899 130 130 100.899 130 65C130 29.1015 100.899 0 65 0C29.1015 0 0 29.1015 0 65C0 100.899 29.1015 130 65 130Z" fill="white"/>
</mask>
<g mask="url(#mask0)">
<rect opacity="0.3" x="3.25" y="150.776" width="227.136" height="25.2373" transform="rotate(-45 3.25 150.776)" fill="white"/>
<rect opacity="0.3" x="-48.4546" y="126.52" width="227.136" height="25.2373" transform="rotate(-45 -48.4546 126.52)" fill="white"/>
<path d="M53.8469 144.779C81.9963 144.779 104.816 121.959 104.816 93.8096C104.816 65.6602 81.9963 42.8406 53.8469 42.8406C25.6975 42.8406 2.87793 65.6602 2.87793 93.8096C2.87793 121.959 25.6975 144.779 53.8469 144.779Z" fill="#14A957"/>
<path d="M54.3636 134.041C82.1611 134.041 104.696 111.506 104.696 83.7088C104.696 55.9113 82.1611 33.377 54.3636 33.377C26.5661 33.377 4.03174 55.9113 4.03174 83.7088C4.03174 111.506 26.5661 134.041 54.3636 134.041Z" fill="#24BE6A"/>
<path opacity="0.2" d="M54.3638 120.826C74.8631 120.826 91.4811 104.208 91.4811 83.7089C91.4811 63.2096 74.8631 46.5916 54.3638 46.5916C33.8645 46.5916 17.2466 63.2096 17.2466 83.7089C17.2466 104.208 33.8645 120.826 54.3638 120.826Z" stroke="white" stroke-width="3.12741"/>
<path opacity="0.7" d="M45.313 83.9438L53.3384 91.9692L67.1368 76.5472" stroke="white" stroke-width="7.41312" stroke-linecap="round" stroke-linejoin="round"/>
</g>
</svg>
