<svg width="130" height="130" viewBox="0 0 130 130" fill="none" xmlns="http://www.w3.org/2000/svg">
<path fill-rule="evenodd" clip-rule="evenodd" d="M65 130C100.899 130 130 100.899 130 65C130 29.1015 100.899 0 65 0C29.1015 0 0 29.1015 0 65C0 100.899 29.1015 130 65 130Z" fill="#FFBE65"/>
<mask id="mask0" mask-type="alpha" maskUnits="userSpaceOnUse" x="0" y="0" width="130" height="130">
<path fill-rule="evenodd" clip-rule="evenodd" d="M65 130C100.899 130 130 100.899 130 65C130 29.1015 100.899 0 65 0C29.1015 0 0 29.1015 0 65C0 100.899 29.1015 130 65 130Z" fill="white"/>
</mask>
<g mask="url(#mask0)">
<path opacity="0.3" fill-rule="evenodd" clip-rule="evenodd" d="M-6.75 158.776L153.859 -1.83304L171.705 16.0125L11.0955 176.622L-6.75 158.776Z" fill="white"/>
<path opacity="0.3" fill-rule="evenodd" clip-rule="evenodd" d="M-47.4545 126.52L113.155 -34.0894L131 -16.2439L-29.609 144.366L-47.4545 126.52Z" fill="white"/>
<path d="M109.502 37.354L117.213 45.0653L109.502 52.7765" stroke="white" stroke-width="2.74154"/>
<path d="M116.666 45.0801H98.2298" stroke="white" stroke-width="2.74154"/>
<path d="M22.2536 87.564L14.5423 95.2752L22.2536 102.986" stroke="white" stroke-width="2.74154"/>
<path d="M15.0891 95.29H33.5255" stroke="white" stroke-width="2.74154"/>
<path fill-rule="evenodd" clip-rule="evenodd" d="M-4.4436 35.2871C-4.4436 33.6303 -3.10046 32.2871 -1.4436 32.2871H87.1019C88.7587 32.2871 90.1019 33.6303 90.1019 35.2871V58.8326C90.1019 60.4894 88.7587 61.8326 87.1019 61.8326H-1.4436C-3.10046 61.8326 -4.4436 60.4894 -4.4436 58.8326V35.2871Z" fill="#E78410"/>
<path fill-rule="evenodd" clip-rule="evenodd" d="M-8.27271 30.1816C-8.27271 28.5248 -6.92956 27.1816 -5.27271 27.1816H83.2728C84.9296 27.1816 86.2728 28.5248 86.2728 30.1816V53.7271C86.2728 55.3839 84.9296 56.7271 83.2728 56.7271H-5.2727C-6.92956 56.7271 -8.27271 55.3839 -8.27271 53.7271V30.1816Z" fill="#FB9A28"/>
<path opacity="0.2" d="M-1.18182 36.0908C-1.18182 34.434 0.161322 33.0908 1.81818 33.0908H78.5455C80.2023 33.0908 81.5454 34.434 81.5454 36.0908V48.9999C81.5454 50.6568 80.2023 51.9999 78.5454 51.9999H1.81817C0.161319 51.9999 -1.18182 50.6568 -1.18182 48.9999L-1.18182 36.0908Z" stroke="white"/>
<path d="M14.0559 45.6264C13.3059 45.6264 12.7329 45.3504 12.3369 44.7984C11.9409 44.2404 11.7429 43.4304 11.7429 42.3684C11.7429 41.3184 11.9409 40.5174 12.3369 39.9654C12.7329 39.4134 13.3059 39.1374 14.0559 39.1374C14.8059 39.1374 15.3789 39.4134 15.7749 39.9654C16.1709 40.5174 16.3689 41.3184 16.3689 42.3684C16.3689 43.4244 16.1709 44.2314 15.7749 44.7894C15.3789 45.3474 14.8059 45.6264 14.0559 45.6264ZM14.0559 44.7174C14.4639 44.7174 14.7609 44.5314 14.9469 44.1594C15.1329 43.7814 15.2259 43.1844 15.2259 42.3684C15.2259 41.5584 15.1329 40.9704 14.9469 40.6044C14.7609 40.2324 14.4639 40.0464 14.0559 40.0464C13.6479 40.0464 13.3509 40.2324 13.1649 40.6044C12.9789 40.9704 12.8859 41.5584 12.8859 42.3684C12.8859 43.1844 12.9789 43.7814 13.1649 44.1594C13.3509 44.5314 13.6479 44.7174 14.0559 44.7174ZM18.9984 44.3034V45.5454H17.7384V44.3034H18.9984ZM22.6848 45.6264C21.9348 45.6264 21.3618 45.3504 20.9658 44.7984C20.5698 44.2404 20.3718 43.4304 20.3718 42.3684C20.3718 41.3184 20.5698 40.5174 20.9658 39.9654C21.3618 39.4134 21.9348 39.1374 22.6848 39.1374C23.4348 39.1374 24.0078 39.4134 24.4038 39.9654C24.7998 40.5174 24.9978 41.3184 24.9978 42.3684C24.9978 43.4244 24.7998 44.2314 24.4038 44.7894C24.0078 45.3474 23.4348 45.6264 22.6848 45.6264ZM22.6848 44.7174C23.0928 44.7174 23.3898 44.5314 23.5758 44.1594C23.7618 43.7814 23.8548 43.1844 23.8548 42.3684C23.8548 41.5584 23.7618 40.9704 23.5758 40.6044C23.3898 40.2324 23.0928 40.0464 22.6848 40.0464C22.2768 40.0464 21.9798 40.2324 21.7938 40.6044C21.6078 40.9704 21.5148 41.5584 21.5148 42.3684C21.5148 43.1844 21.6078 43.7814 21.7938 44.1594C21.9798 44.5314 22.2768 44.7174 22.6848 44.7174ZM28.5813 45.6264C27.8313 45.6264 27.2583 45.3504 26.8623 44.7984C26.4663 44.2404 26.2683 43.4304 26.2683 42.3684C26.2683 41.3184 26.4663 40.5174 26.8623 39.9654C27.2583 39.4134 27.8313 39.1374 28.5813 39.1374C29.3313 39.1374 29.9043 39.4134 30.3003 39.9654C30.6963 40.5174 30.8943 41.3184 30.8943 42.3684C30.8943 43.4244 30.6963 44.2314 30.3003 44.7894C29.9043 45.3474 29.3313 45.6264 28.5813 45.6264ZM28.5813 44.7174C28.9893 44.7174 29.2863 44.5314 29.4723 44.1594C29.6583 43.7814 29.7513 43.1844 29.7513 42.3684C29.7513 41.5584 29.6583 40.9704 29.4723 40.6044C29.2863 40.2324 28.9893 40.0464 28.5813 40.0464C28.1733 40.0464 27.8763 40.2324 27.6903 40.6044C27.5043 40.9704 27.4113 41.5584 27.4113 42.3684C27.4113 43.1844 27.5043 43.7814 27.6903 44.1594C27.8763 44.5314 28.1733 44.7174 28.5813 44.7174ZM34.4778 45.6264C33.7278 45.6264 33.1548 45.3504 32.7588 44.7984C32.3628 44.2404 32.1648 43.4304 32.1648 42.3684C32.1648 41.3184 32.3628 40.5174 32.7588 39.9654C33.1548 39.4134 33.7278 39.1374 34.4778 39.1374C35.2278 39.1374 35.8008 39.4134 36.1968 39.9654C36.5928 40.5174 36.7908 41.3184 36.7908 42.3684C36.7908 43.4244 36.5928 44.2314 36.1968 44.7894C35.8008 45.3474 35.2278 45.6264 34.4778 45.6264ZM34.4778 44.7174C34.8858 44.7174 35.1828 44.5314 35.3688 44.1594C35.5548 43.7814 35.6478 43.1844 35.6478 42.3684C35.6478 41.5584 35.5548 40.9704 35.3688 40.6044C35.1828 40.2324 34.8858 40.0464 34.4778 40.0464C34.0698 40.0464 33.7728 40.2324 33.5868 40.6044C33.4008 40.9704 33.3078 41.5584 33.3078 42.3684C33.3078 43.1844 33.4008 43.7814 33.5868 44.1594C33.7728 44.5314 34.0698 44.7174 34.4778 44.7174ZM41.3553 42.2874C41.7273 42.3834 42.0123 42.5664 42.2103 42.8364C42.4143 43.1004 42.5163 43.4304 42.5163 43.8264C42.5163 44.3784 42.3123 44.8164 41.9043 45.1404C41.5023 45.4584 40.9533 45.6174 40.2573 45.6174C39.8313 45.6174 39.4203 45.5514 39.0243 45.4194C38.6343 45.2874 38.3103 45.1074 38.0523 44.8794L38.4393 44.0334C38.9913 44.4714 39.5823 44.6904 40.2123 44.6904C40.6143 44.6904 40.9143 44.6124 41.1123 44.4564C41.3103 44.2944 41.4093 44.0514 41.4093 43.7274C41.4093 43.4094 41.3073 43.1754 41.1033 43.0254C40.9053 42.8694 40.5963 42.7914 40.1763 42.7914H39.3393V41.8734H40.0233C40.8453 41.8734 41.2563 41.5644 41.2563 40.9464C41.2563 40.6584 41.1663 40.4364 40.9863 40.2804C40.8123 40.1244 40.5633 40.0464 40.2393 40.0464C39.9573 40.0464 39.6693 40.1034 39.3753 40.2174C39.0873 40.3254 38.8053 40.4874 38.5293 40.7034L38.1423 39.8574C38.3943 39.6294 38.7153 39.4494 39.1053 39.3174C39.5013 39.1854 39.9033 39.1194 40.3113 39.1194C40.9353 39.1194 41.4333 39.2724 41.8053 39.5784C42.1773 39.8784 42.3633 40.2864 42.3633 40.8024C42.3573 41.1564 42.2643 41.4654 42.0843 41.7294C41.9103 41.9874 41.6673 42.1734 41.3553 42.2874ZM47.4858 42.2874C47.8578 42.3894 48.1428 42.5754 48.3408 42.8454C48.5448 43.1154 48.6468 43.4454 48.6468 43.8354C48.6468 44.3934 48.4368 44.8314 48.0168 45.1494C47.5968 45.4614 47.0148 45.6174 46.2708 45.6174C45.5268 45.6174 44.9448 45.4614 44.5248 45.1494C44.1048 44.8314 43.8948 44.3934 43.8948 43.8354C43.8948 43.4454 43.9968 43.1154 44.2008 42.8454C44.4048 42.5694 44.6928 42.3834 45.0648 42.2874C44.7468 42.1674 44.4978 41.9814 44.3178 41.7294C44.1378 41.4714 44.0478 41.1714 44.0478 40.8294C44.0478 40.3014 44.2458 39.8844 44.6418 39.5784C45.0378 39.2724 45.5808 39.1194 46.2708 39.1194C46.9608 39.1194 47.5038 39.2724 47.8998 39.5784C48.2958 39.8844 48.4938 40.3014 48.4938 40.8294C48.4938 41.1774 48.4038 41.4804 48.2238 41.7384C48.0438 41.9964 47.7978 42.1794 47.4858 42.2874ZM46.2708 40.0284C45.5208 40.0284 45.1458 40.3344 45.1458 40.9464C45.1458 41.2524 45.2388 41.4864 45.4248 41.6484C45.6168 41.8044 45.8988 41.8824 46.2708 41.8824C46.6428 41.8824 46.9218 41.8044 47.1078 41.6484C47.2998 41.4864 47.3958 41.2524 47.3958 40.9464C47.3958 40.3344 47.0208 40.0284 46.2708 40.0284ZM46.2708 44.7084C47.1288 44.7084 47.5578 44.3874 47.5578 43.7454C47.5578 43.1034 47.1288 42.7824 46.2708 42.7824C45.4128 42.7824 44.9838 43.1034 44.9838 43.7454C44.9838 44.3874 45.4128 44.7084 46.2708 44.7084ZM54.6242 44.3034H53.7332V45.5454H52.5992V44.3034H49.8452V43.4484L52.7972 39.2004H53.7332V43.4034H54.6242V44.3034ZM52.5992 43.4034V40.9824L50.9252 43.4034H52.5992ZM60.5207 44.3034H59.6297V45.5454H58.4957V44.3034H55.7417V43.4484L58.6937 39.2004H59.6297V43.4034H60.5207V44.3034ZM58.4957 43.4034V40.9824L56.8217 43.4034H58.4957ZM65.1752 42.2874C65.5472 42.3894 65.8322 42.5754 66.0302 42.8454C66.2342 43.1154 66.3362 43.4454 66.3362 43.8354C66.3362 44.3934 66.1262 44.8314 65.7062 45.1494C65.2862 45.4614 64.7042 45.6174 63.9602 45.6174C63.2162 45.6174 62.6342 45.4614 62.2142 45.1494C61.7942 44.8314 61.5842 44.3934 61.5842 43.8354C61.5842 43.4454 61.6862 43.1154 61.8902 42.8454C62.0942 42.5694 62.3822 42.3834 62.7542 42.2874C62.4362 42.1674 62.1872 41.9814 62.0072 41.7294C61.8272 41.4714 61.7372 41.1714 61.7372 40.8294C61.7372 40.3014 61.9352 39.8844 62.3312 39.5784C62.7272 39.2724 63.2702 39.1194 63.9602 39.1194C64.6502 39.1194 65.1932 39.2724 65.5892 39.5784C65.9852 39.8844 66.1832 40.3014 66.1832 40.8294C66.1832 41.1774 66.0932 41.4804 65.9132 41.7384C65.7332 41.9964 65.4872 42.1794 65.1752 42.2874ZM63.9602 40.0284C63.2102 40.0284 62.8352 40.3344 62.8352 40.9464C62.8352 41.2524 62.9282 41.4864 63.1142 41.6484C63.3062 41.8044 63.5882 41.8824 63.9602 41.8824C64.3322 41.8824 64.6112 41.8044 64.7972 41.6484C64.9892 41.4864 65.0852 41.2524 65.0852 40.9464C65.0852 40.3344 64.7102 40.0284 63.9602 40.0284ZM63.9602 44.7084C64.8182 44.7084 65.2472 44.3874 65.2472 43.7454C65.2472 43.1034 64.8182 42.7824 63.9602 42.7824C63.1022 42.7824 62.6732 43.1034 62.6732 43.7454C62.6732 44.3874 63.1022 44.7084 63.9602 44.7084ZM70.8377 42.2874C71.2097 42.3834 71.4947 42.5664 71.6927 42.8364C71.8967 43.1004 71.9987 43.4304 71.9987 43.8264C71.9987 44.3784 71.7947 44.8164 71.3867 45.1404C70.9847 45.4584 70.4357 45.6174 69.7397 45.6174C69.3137 45.6174 68.9027 45.5514 68.5067 45.4194C68.1167 45.2874 67.7927 45.1074 67.5347 44.8794L67.9217 44.0334C68.4737 44.4714 69.0647 44.6904 69.6947 44.6904C70.0967 44.6904 70.3967 44.6124 70.5947 44.4564C70.7927 44.2944 70.8917 44.0514 70.8917 43.7274C70.8917 43.4094 70.7897 43.1754 70.5857 43.0254C70.3877 42.8694 70.0787 42.7914 69.6587 42.7914H68.8217V41.8734H69.5057C70.3277 41.8734 70.7387 41.5644 70.7387 40.9464C70.7387 40.6584 70.6487 40.4364 70.4687 40.2804C70.2947 40.1244 70.0457 40.0464 69.7217 40.0464C69.4397 40.0464 69.1517 40.1034 68.8577 40.2174C68.5697 40.3254 68.2877 40.4874 68.0117 40.7034L67.6247 39.8574C67.8767 39.6294 68.1977 39.4494 68.5877 39.3174C68.9837 39.1854 69.3857 39.1194 69.7937 39.1194C70.4177 39.1194 70.9157 39.2724 71.2877 39.5784C71.6597 39.8784 71.8457 40.2864 71.8457 40.8024C71.8397 41.1564 71.7467 41.4654 71.5667 41.7294C71.3927 41.9874 71.1497 42.1734 70.8377 42.2874Z" fill="white"/>
<path fill-rule="evenodd" clip-rule="evenodd" d="M44.0109 84.9238C44.0109 83.267 45.3541 81.9238 47.0109 81.9238H135.556C137.213 81.9238 138.556 83.267 138.556 84.9238V108.469C138.556 110.126 137.213 111.469 135.556 111.469H47.0109C45.3541 111.469 44.0109 110.126 44.0109 108.469V84.9238Z" fill="#E78410"/>
<path fill-rule="evenodd" clip-rule="evenodd" d="M40.1818 79.8184C40.1818 78.1615 41.525 76.8184 43.1818 76.8184H131.727C133.384 76.8184 134.727 78.1615 134.727 79.8184V103.364C134.727 105.021 133.384 106.364 131.727 106.364H43.1818C41.525 106.364 40.1818 105.021 40.1818 103.364V79.8184Z" fill="#FB9A28"/>
<path opacity="0.2" d="M49.6364 84.5454C49.6364 82.8886 50.9795 81.5454 52.6364 81.5454H129.364C131.02 81.5454 132.364 82.8886 132.364 84.5454V97.4545C132.364 99.1114 131.02 100.455 129.364 100.455H52.6363C50.9795 100.455 49.6364 99.1114 49.6364 97.4545L49.6364 84.5454Z" stroke="white"/>
<path d="M62.4998 95.2631C61.7498 95.2631 61.1768 94.9871 60.7808 94.4351C60.3848 93.8771 60.1868 93.0671 60.1868 92.0051C60.1868 90.9551 60.3848 90.1541 60.7808 89.6021C61.1768 89.0501 61.7498 88.7741 62.4998 88.7741C63.2498 88.7741 63.8228 89.0501 64.2188 89.6021C64.6148 90.1541 64.8128 90.9551 64.8128 92.0051C64.8128 93.0611 64.6148 93.8681 64.2188 94.4261C63.8228 94.9841 63.2498 95.2631 62.4998 95.2631ZM62.4998 94.3541C62.9078 94.3541 63.2048 94.1681 63.3908 93.7961C63.5768 93.4181 63.6698 92.8211 63.6698 92.0051C63.6698 91.1951 63.5768 90.6071 63.3908 90.2411C63.2048 89.8691 62.9078 89.6831 62.4998 89.6831C62.0918 89.6831 61.7948 89.8691 61.6088 90.2411C61.4228 90.6071 61.3298 91.1951 61.3298 92.0051C61.3298 92.8211 61.4228 93.4181 61.6088 93.7961C61.7948 94.1681 62.0918 94.3541 62.4998 94.3541ZM67.4423 93.9401V95.1821H66.1823V93.9401H67.4423ZM71.1287 95.2631C70.3787 95.2631 69.8057 94.9871 69.4097 94.4351C69.0137 93.8771 68.8157 93.0671 68.8157 92.0051C68.8157 90.9551 69.0137 90.1541 69.4097 89.6021C69.8057 89.0501 70.3787 88.7741 71.1287 88.7741C71.8787 88.7741 72.4517 89.0501 72.8477 89.6021C73.2437 90.1541 73.4417 90.9551 73.4417 92.0051C73.4417 93.0611 73.2437 93.8681 72.8477 94.4261C72.4517 94.9841 71.8787 95.2631 71.1287 95.2631ZM71.1287 94.3541C71.5367 94.3541 71.8337 94.1681 72.0197 93.7961C72.2057 93.4181 72.2987 92.8211 72.2987 92.0051C72.2987 91.1951 72.2057 90.6071 72.0197 90.2411C71.8337 89.8691 71.5367 89.6831 71.1287 89.6831C70.7207 89.6831 70.4237 89.8691 70.2377 90.2411C70.0517 90.6071 69.9587 91.1951 69.9587 92.0051C69.9587 92.8211 70.0517 93.4181 70.2377 93.7961C70.4237 94.1681 70.7207 94.3541 71.1287 94.3541ZM77.0252 95.2631C76.2752 95.2631 75.7022 94.9871 75.3062 94.4351C74.9102 93.8771 74.7122 93.0671 74.7122 92.0051C74.7122 90.9551 74.9102 90.1541 75.3062 89.6021C75.7022 89.0501 76.2752 88.7741 77.0252 88.7741C77.7752 88.7741 78.3482 89.0501 78.7442 89.6021C79.1402 90.1541 79.3382 90.9551 79.3382 92.0051C79.3382 93.0611 79.1402 93.8681 78.7442 94.4261C78.3482 94.9841 77.7752 95.2631 77.0252 95.2631ZM77.0252 94.3541C77.4332 94.3541 77.7302 94.1681 77.9162 93.7961C78.1022 93.4181 78.1952 92.8211 78.1952 92.0051C78.1952 91.1951 78.1022 90.6071 77.9162 90.2411C77.7302 89.8691 77.4332 89.6831 77.0252 89.6831C76.6172 89.6831 76.3202 89.8691 76.1342 90.2411C75.9482 90.6071 75.8552 91.1951 75.8552 92.0051C75.8552 92.8211 75.9482 93.4181 76.1342 93.7961C76.3202 94.1681 76.6172 94.3541 77.0252 94.3541ZM85.1626 94.2461V95.1821H81.2476V94.2461H82.6246V90.1601L81.5356 90.8171L81.0766 89.9711L82.9576 88.8371H83.7856V94.2461H85.1626ZM91.0411 94.2461V95.1821H86.7751V94.3271L88.9351 92.0051C89.1871 91.7291 89.3701 91.4771 89.4841 91.2491C89.6041 91.0151 89.6641 90.7841 89.6641 90.5561C89.6641 90.2681 89.5801 90.0521 89.4121 89.9081C89.2501 89.7581 89.0101 89.6831 88.6921 89.6831C88.1221 89.6831 87.5491 89.9021 86.9731 90.3401L86.5861 89.4941C86.8381 89.2721 87.1591 89.0951 87.5491 88.9631C87.9451 88.8251 88.3411 88.7561 88.7371 88.7561C89.3731 88.7561 89.8771 88.9121 90.2491 89.2241C90.6211 89.5361 90.8071 89.9561 90.8071 90.4841C90.8071 90.8501 90.7291 91.1951 90.5731 91.5191C90.4171 91.8371 90.1531 92.1941 89.7811 92.5901L88.2241 94.2461H91.0411ZM97.1804 93.9401H96.2894V95.1821H95.1554V93.9401H92.4014V93.0851L95.3534 88.8371H96.2894V93.0401H97.1804V93.9401ZM95.1554 93.0401V90.6191L93.4814 93.0401H95.1554ZM103.077 93.9401H102.186V95.1821H101.052V93.9401H98.2979V93.0851L101.25 88.8371H102.186V93.0401H103.077V93.9401ZM101.052 93.0401V90.6191L99.3779 93.0401H101.052ZM108.757 94.2461V95.1821H104.842V94.2461H106.219V90.1601L105.13 90.8171L104.671 89.9711L106.552 88.8371H107.38V94.2461H108.757ZM114.654 94.2461V95.1821H110.739V94.2461H112.116V90.1601L111.027 90.8171L110.568 89.9711L112.449 88.8371H113.277V94.2461H114.654Z" fill="white"/>
</g>
</svg>
