<svg width="50" height="50" viewBox="0 0 50 50" fill="none" xmlns="http://www.w3.org/2000/svg">
<path d="M12.5 9.375V7.8125C12.5 3.49609 20.8984 0 31.25 0C41.6016 0 50 3.49609 50 7.8125V9.375C50 12.3633 45.9668 14.9609 40.0391 16.2793C39.8047 16.0059 39.5605 15.7422 39.3164 15.498C37.8027 14.0039 35.8496 12.8711 33.8086 12.0312C29.7168 10.3223 24.3848 9.38477 18.75 9.38477C16.6113 9.38477 14.5215 9.52148 12.5195 9.78516C12.5 9.6582 12.5 9.52148 12.5 9.38477V9.375ZM42.1875 34.4727V29.9609C43.6621 29.5801 45.0488 29.1309 46.3086 28.6035C47.5977 28.0664 48.8574 27.4121 50 26.6211V28.125C50 30.7422 46.9238 33.0566 42.1875 34.4727ZM42.1875 25.0977V21.875C42.1875 21.4355 42.1484 21.0156 42.0898 20.6055C43.6035 20.2246 45.0195 19.7656 46.3086 19.2187C47.5977 18.6719 48.8574 18.0273 50 17.2363V18.7402C50 21.3574 46.9238 23.6719 42.1875 25.0879V25.0977ZM0 23.4375V21.875C0 17.5586 8.39844 14.0625 18.75 14.0625C29.1016 14.0625 37.5 17.5586 37.5 21.875V23.4375C37.5 27.7539 29.1016 31.25 18.75 31.25C8.39844 31.25 0 27.7539 0 23.4375ZM37.5 32.8125C37.5 37.1289 29.1016 40.625 18.75 40.625C8.39844 40.625 0 37.1289 0 32.8125V31.3086C1.13281 32.0996 2.39258 32.7441 3.69141 33.291C7.7832 35 13.1152 35.9375 18.75 35.9375C24.3848 35.9375 29.7168 34.9902 33.8086 33.291C35.0977 32.7539 36.3574 32.0996 37.5 31.3086V32.8125ZM37.5 40.6836V42.1875C37.5 46.5039 29.1016 50 18.75 50C8.39844 50 0 46.5039 0 42.1875V40.6836C1.13281 41.4746 2.39258 42.1191 3.69141 42.666C7.7832 44.375 13.1152 45.3125 18.75 45.3125C24.3848 45.3125 29.7168 44.3652 33.8086 42.666C35.0977 42.1289 36.3574 41.4746 37.5 40.6836Z" fill="#24be6a"/>
</svg>
