<svg width="98" height="24" viewBox="0 0 98 24" fill="none" xmlns="http://www.w3.org/2000/svg">
<g clip-path="url(#clip0_338_18839)">
<path d="M25.7496 8.44944H35.6707V10.2826H31.7703V20.5899H29.6241V10.2826H25.7405V8.44873H25.7489L25.7496 8.44944ZM35.2472 11.7988H37.0812V13.4958H37.1155C37.1764 13.2558 37.2884 13.0243 37.4529 12.8012C37.8046 12.3231 38.2807 11.9525 38.8284 11.7304C39.1066 11.6192 39.4028 11.5611 39.702 11.5588C39.926 11.5588 40.0912 11.5673 40.178 11.5765C40.2641 11.585 40.3502 11.6019 40.4454 11.6104V13.4781C40.3049 13.4534 40.1637 13.4334 40.0219 13.4181C39.8811 13.4013 39.7394 13.3929 39.5977 13.3927C39.2687 13.3927 38.9579 13.4612 38.6639 13.5904C38.3699 13.7181 38.1186 13.9151 37.903 14.1643C37.6729 14.4429 37.4968 14.7625 37.3836 15.1066C37.2541 15.4836 37.1932 15.9113 37.1932 16.4005V20.5814H35.2388V11.7988H35.2472ZM49.4327 20.5906H47.5126V19.3652H47.4776C47.2354 19.8113 46.8812 20.1628 46.4052 20.4283C45.9292 20.6937 45.4448 20.8306 44.952 20.8306C43.7844 20.8306 42.936 20.5483 42.418 19.9737C41.8986 19.3998 41.6389 18.5344 41.6389 17.3774V11.7996H43.594V17.189C43.594 17.9605 43.741 18.509 44.0441 18.8259C44.3381 19.1428 44.7616 19.3059 45.2978 19.3059C45.7129 19.3059 46.0503 19.2459 46.3268 19.1167C46.604 18.9883 46.8287 18.8259 46.9932 18.6113C47.1661 18.4059 47.2872 18.149 47.3656 17.8574C47.4426 17.5659 47.4776 17.249 47.4776 16.9066V11.808H49.4327V20.5906ZM52.7626 17.772C52.8235 18.3367 53.0391 18.732 53.4115 18.9628C53.7916 19.1859 54.2417 19.3059 54.7695 19.3059C54.9515 19.3059 55.1587 19.2883 55.3925 19.2628C55.6256 19.2367 55.8503 19.1767 56.0498 19.1005C56.257 19.0228 56.4208 18.9028 56.5594 18.749C56.6896 18.5937 56.7498 18.3974 56.7414 18.149C56.7403 18.0336 56.7151 17.9199 56.6674 17.815C56.6198 17.7102 56.5508 17.6166 56.4649 17.5405C56.2913 17.3781 56.0757 17.2581 55.8069 17.1551C55.5074 17.0505 55.201 16.9674 54.8899 16.9066C54.5441 16.8381 54.1983 16.7605 53.8441 16.6836C53.4872 16.6057 53.1349 16.5084 52.7885 16.392C52.4636 16.287 52.1572 16.131 51.8806 15.9297C51.611 15.74 51.3912 15.4871 51.2401 15.1927C51.0763 14.8927 50.9979 14.5243 50.9979 14.0788C50.9979 13.5988 51.119 13.205 51.3528 12.8788C51.5886 12.5555 51.893 12.2892 52.2439 12.0996C52.6209 11.8986 53.0262 11.7569 53.4458 11.6796C53.8868 11.6026 54.311 11.5596 54.7086 11.5596C55.1671 11.5596 55.6081 11.6111 56.0239 11.7057C56.4264 11.7926 56.8101 11.9521 57.1565 12.1765C57.4939 12.3911 57.7704 12.6734 57.9958 13.0165C58.2205 13.3588 58.3591 13.7788 58.4193 14.2673H56.3781C56.2829 13.805 56.075 13.488 55.7383 13.3334C55.4009 13.1711 55.0117 13.0934 54.5791 13.0934C54.4405 13.0934 54.276 13.1019 54.0863 13.128C53.9035 13.1525 53.7236 13.1956 53.5494 13.2565C53.3901 13.3156 53.2456 13.4091 53.1259 13.5304C53.0677 13.5937 53.0226 13.6679 52.9929 13.7488C52.9632 13.8297 52.9497 13.9157 52.953 14.0019C52.953 14.2419 53.0391 14.4304 53.2036 14.5758C53.3681 14.7212 53.5844 14.8412 53.8525 14.9443C54.1206 15.0388 54.4237 15.1243 54.7695 15.1927C55.1153 15.2612 55.4695 15.3381 55.8335 15.4158C56.1877 15.4927 56.5335 15.5958 56.88 15.7066C57.2258 15.8181 57.5282 15.9727 57.797 16.1697C58.0651 16.3666 58.2814 16.6066 58.4452 16.8981C58.6097 17.189 58.6965 17.5574 58.6965 17.9859C58.6965 18.5083 58.5754 18.9459 58.3325 19.3144C58.091 19.6744 57.7795 19.9737 57.3987 20.1967C57 20.4283 56.5681 20.5959 56.1184 20.6937C55.6609 20.7952 55.1938 20.8468 54.7254 20.8476C54.2007 20.8535 53.6776 20.7901 53.1693 20.6591C52.6933 20.5306 52.2782 20.3421 51.9324 20.0944C51.5906 19.844 51.3096 19.5186 51.1106 19.1428C50.9118 18.7659 50.8075 18.3113 50.7907 17.789H52.7626V17.772ZM59.2152 11.8003H60.6943V9.16026H62.6494V11.8003H64.4134V13.2473H62.6501V17.9436C62.6501 18.1483 62.6585 18.3205 62.676 18.4744C62.6928 18.6205 62.7362 18.749 62.7971 18.8513C62.8632 18.9589 62.9637 19.0405 63.082 19.0828C63.2122 19.1344 63.376 19.1605 63.6014 19.1605C63.7393 19.1605 63.8779 19.1605 64.0165 19.1513C64.1551 19.1428 64.293 19.1259 64.4316 19.0913V20.5906C64.2153 20.6167 63.999 20.6337 63.8002 20.6591C63.5906 20.6836 63.3797 20.6952 63.1688 20.6937C62.6501 20.6937 62.235 20.6421 61.9228 20.5483C61.612 20.4537 61.3607 20.3083 61.1878 20.1198C61.0058 19.9313 60.8938 19.6998 60.8245 19.4167C60.7571 19.0984 60.7196 18.7744 60.7125 18.449V13.2636H59.2334V11.7981H59.2159L59.2152 11.8003ZM65.7973 11.8003H67.6488V12.9904H67.6838C67.9596 12.4765 68.3404 12.1165 68.8332 11.8941C69.3369 11.6683 69.8828 11.5542 70.4341 11.5596C71.1341 11.5596 71.7396 11.6796 72.259 11.928C72.7777 12.168 73.2103 12.5026 73.5561 12.9304C73.9019 13.3588 74.1532 13.8558 74.3261 14.4219C74.5023 15.0108 74.5898 15.623 74.5858 16.2381C74.5858 16.829 74.5081 17.4028 74.352 17.952C74.2086 18.4817 73.9712 18.9809 73.6513 19.4252C73.3369 19.8535 72.9284 20.2027 72.4578 20.4452C71.9734 20.7021 71.4113 20.8306 70.754 20.8306C70.4667 20.8303 70.1799 20.8043 69.8972 20.753C69.6151 20.7017 69.3397 20.6186 69.0761 20.5052C68.8142 20.395 68.5693 20.2476 68.3488 20.0676C68.1311 19.8925 67.9415 19.6846 67.7867 19.4513H67.7517V23.8384H65.7973V11.7988V11.8003ZM72.6307 16.2036C72.6311 15.8128 72.5788 15.4239 72.4753 15.0473C72.3794 14.6906 72.2211 14.354 72.0077 14.0534C71.8052 13.7675 71.5425 13.5303 71.2384 13.3588C70.9117 13.1809 70.5456 13.0895 70.1744 13.0934C69.3526 13.0934 68.7296 13.3758 68.3145 13.9419C67.8994 14.5073 67.6915 15.2619 67.6915 16.2036C67.6915 16.649 67.744 17.0605 67.856 17.4374C67.968 17.8144 68.1241 18.1405 68.3488 18.4144C68.5658 18.689 68.8248 18.9028 69.1279 19.0567C69.4303 19.2198 69.7852 19.2967 70.1828 19.2967C70.6329 19.2967 71.0046 19.2028 71.3161 19.0228C71.6177 18.8478 71.8775 18.6081 72.077 18.3205C72.2758 18.029 72.4235 17.7028 72.5096 17.3351C72.5892 16.9632 72.6298 16.584 72.6307 16.2036ZM76.0817 8.44944H78.0368V10.2833H76.0817V8.44944ZM76.0817 11.7996H78.0368V20.5906H76.0817V11.7996ZM79.784 8.44944H81.7391V20.5906H79.784V8.44944ZM87.7332 20.8306C87.0234 20.8306 86.392 20.7106 85.839 20.4798C85.3088 20.2605 84.829 19.9338 84.4292 19.5198C84.0405 19.0975 83.7428 18.5985 83.5549 18.0544C83.3491 17.4538 83.2468 16.822 83.2525 16.1866C83.2525 15.5181 83.3561 14.9019 83.5549 14.3358C83.7429 13.7919 84.0406 13.2932 84.4292 12.8711C84.8093 12.4596 85.2853 12.1426 85.839 11.9111C86.392 11.6796 87.0234 11.5596 87.7332 11.5596C88.4423 11.5596 89.0737 11.6796 89.6274 11.9111C90.1811 12.1426 90.648 12.4687 91.0372 12.8711C91.4258 13.2931 91.7233 13.7918 91.9108 14.3358C92.1096 14.9012 92.2132 15.5181 92.2132 16.1866C92.2132 16.8643 92.1096 17.489 91.9108 18.0544C91.7234 18.5986 91.4259 19.0976 91.0372 19.5198C90.6564 19.9313 90.1811 20.2483 89.6274 20.4798C89.0737 20.7106 88.4423 20.8306 87.7332 20.8306ZM87.7332 19.2967C88.1658 19.2967 88.5459 19.2028 88.8658 19.0228C89.1776 18.8478 89.4466 18.6047 89.6533 18.3113C89.8605 18.0205 90.0075 17.6859 90.1118 17.3174C90.207 16.949 90.2588 16.572 90.2588 16.1866C90.2588 15.8097 90.207 15.4412 90.1118 15.0643C90.0226 14.7067 89.8671 14.3695 89.6533 14.0704C89.4462 13.7798 89.1771 13.5397 88.8658 13.368C88.5459 13.188 88.1658 13.0934 87.7332 13.0934C87.3006 13.0934 86.9198 13.188 86.5999 13.368C86.2906 13.5424 86.0222 13.7819 85.8131 14.0704C85.6023 14.3712 85.447 14.7079 85.3546 15.0643C85.2588 15.4306 85.2091 15.8077 85.2069 16.1866C85.2069 16.572 85.2594 16.949 85.3546 17.3174C85.4498 17.6859 85.6052 18.0205 85.8131 18.3113C86.0203 18.6028 86.28 18.8428 86.5999 19.0228C86.9198 19.2113 87.3006 19.2967 87.7332 19.2967ZM92.7844 11.8003H94.2635V9.16026H96.2186V11.8003H97.9826V13.2473H96.2186V17.9436C96.2186 18.1483 96.227 18.3205 96.2438 18.4744C96.2613 18.6205 96.3047 18.749 96.3656 18.8513C96.4316 18.959 96.5321 19.0407 96.6505 19.0828C96.7807 19.1344 96.9445 19.1605 97.1699 19.1605C97.3078 19.1605 97.4464 19.1605 97.585 19.1513C97.7236 19.1428 97.8615 19.1259 98.0001 19.0913V20.5906C97.7838 20.6167 97.5675 20.6337 97.3687 20.6591C97.1591 20.6836 96.9482 20.6952 96.7373 20.6937C96.2186 20.6937 95.8028 20.6421 95.4913 20.5483C95.1805 20.4537 94.9292 20.3083 94.7563 20.1198C94.575 19.9313 94.4623 19.6998 94.393 19.4167C94.3257 19.0984 94.2882 18.7744 94.281 18.449V13.2636H92.8019V11.7981H92.7844V11.8003Z" fill="white"/>
<path d="M23.4661 8.44871H14.5054L11.7376 0L8.96 8.44941L0 8.44024L7.2569 13.6666L4.4807 22.1061L11.7376 16.8882L18.9861 22.1061L16.2183 13.6666L23.4661 8.44871Z" fill="#04DA8D"/>
<path d="M16.8405 15.5781L16.2175 13.6672L11.7375 16.8889L16.8405 15.5781Z" fill="#126849"/>
</g>
<defs>
<clipPath id="clip0_338_18839">
<rect width="98" height="24" fill="white"/>
</clipPath>
</defs>
</svg>
