<svg width="1000" height="1000" viewBox="0 0 1000 1000" fill="none" xmlns="http://www.w3.org/2000/svg">
<g clip-path="url(#clip0_145_2)">
<path d="M968.635 297.836C961.088 287.691 952.019 277.933 941.225 268.681C899.877 233.217 846.011 222.403 795.006 209.094C724.422 190.672 683.318 150.379 625.049 108.016C566.01 65.1063 496.907 37.027 425.674 35.9111C343.404 34.6329 259.227 72.0044 208.08 142.994C161.822 207.207 146.444 289.294 122.381 364.97C98.3192 440.646 39.2594 491.631 13.0669 568.829C-6.22746 625.718 -5.92313 693.725 25.9298 743.29C41.0853 766.865 62.3274 784.983 84.8882 799.712C138.288 834.588 201.304 851.326 262.453 855.83C371.423 863.865 453.977 911.664 544.382 972.225C617.867 1021.47 724.24 1001.99 785.47 938.628C843.333 878.736 863.601 790.988 888.313 711.052C900.932 670.251 914.444 629.228 935.058 592.364C984.115 504.657 1034.17 385.989 968.635 297.815V297.836Z" fill="url(#paint0_linear_145_2)"/>
<path d="M879.081 174.055C962.995 177.849 910.103 95.4167 873.096 67.3171C834.609 38.1017 787.56 18.8479 742.215 7.24286C710.2 -0.953696 609.386 -16.1498 644.506 54.9411C652.013 70.1169 664.287 81.6408 676.399 92.6372C738.604 149.019 799.185 170.444 879.081 174.055Z" fill="url(#paint1_linear_145_2)"/>
<mask id="mask0_145_2" style="mask-type:luminance" maskUnits="userSpaceOnUse" x="-1" y="35" width="1001" height="965">
<path d="M968.635 297.835C961.087 287.691 952.019 277.932 941.225 268.681C899.877 233.217 846.011 222.403 795.006 209.093C770.538 202.703 749.62 193.695 730.306 182.881L700.177 72.0447L581.104 79.9978C532.858 53.2575 479.865 36.763 425.654 35.9311C343.384 34.653 259.207 72.0244 208.059 143.014C161.802 207.227 146.423 289.314 122.361 364.99C97.7306 442.452 39.2389 491.651 13.0464 568.849C-6.24797 625.738 -5.94364 693.745 25.9093 743.31C41.0648 766.885 62.3069 785.003 84.8677 799.732C138.267 834.608 201.283 851.346 262.433 855.85C371.402 863.885 453.956 911.684 544.362 972.245C617.847 1021.49 724.219 1002.01 785.45 938.648C843.313 878.756 863.581 791.008 888.292 711.072C900.912 670.271 914.424 629.248 935.037 592.384C984.095 504.677 1034.15 386.009 968.615 297.835H968.635Z" fill="white"/>
</mask>
<g mask="url(#mask0_145_2)">
<path d="M266.186 382.479C286.759 397.33 310.841 408.671 330.318 416.645C365.032 430.867 434.824 444.379 440.424 390.168C441.682 377.995 435.94 366.167 428.92 356.144C395.992 309.217 329.222 274.402 272.252 272.982C261.601 272.718 250.463 273.59 241.252 278.926C223.032 289.496 218.102 315.161 225.548 334.862C232.588 353.507 248.008 369.352 266.186 382.458V382.479Z" fill="url(#paint2_linear_145_2)"/>
<path d="M266.186 549.98C286.759 564.831 310.841 576.173 330.318 584.146C365.032 598.368 434.824 611.88 440.424 557.669C441.682 545.496 435.94 533.668 428.92 523.646C395.992 476.718 329.222 441.903 272.252 440.483C261.601 440.219 250.463 441.092 241.252 446.428C223.032 456.998 218.102 482.663 225.548 502.363C232.588 521.008 248.008 536.854 266.186 549.96V549.98Z" fill="url(#paint3_linear_145_2)"/>
<path d="M314.575 696.22C338.434 704.823 364.728 709.124 385.625 711.437C422.915 715.555 493.742 709.347 484.186 655.684C482.036 643.633 473.271 633.833 463.756 626.144C419.202 590.091 345.413 574.997 290.249 589.3C279.922 591.978 269.473 595.873 262.088 603.563C247.48 618.739 249.814 644.769 262.393 661.669C274.302 677.656 293.475 688.632 314.575 696.261V696.22Z" fill="url(#paint4_linear_145_2)"/>
<path d="M842.623 657.387C832.256 719.876 785.491 777.333 723.712 791.413C701.253 796.526 677.86 796.039 654.955 793.726C620.505 790.237 586.339 782.628 554.364 769.339C527.868 758.323 501.33 741.564 490.699 714.905C483.456 696.767 484.592 676.479 486.479 657.043C494.168 577.796 512.448 499.583 540.67 425.125C546.492 409.746 553.269 393.819 566.193 383.635C580.719 372.192 600.622 370.082 619.024 371.908C685.935 378.542 734.547 427.803 781.007 471.423C829.192 516.666 853.478 591.876 842.623 657.367V657.387Z" fill="url(#paint5_linear_145_2)"/>
<path d="M1536.45 873.175C1536.45 873.175 1641.36 952.99 1508.33 1049.73C1508.33 1049.73 1118.71 1162 674.411 881.92C674.411 881.92 661 680.414 862.81 527.277C862.81 527.277 1217.6 774.411 1536.45 873.175Z" fill="url(#paint6_linear_145_2)"/>
<path d="M862.81 527.298C661 680.435 674.411 881.941 674.411 881.941C707.116 902.554 739.456 920.793 771.41 937.369C815.579 753.028 912.314 639.006 960.722 591.328C899.918 553.125 862.79 527.298 862.79 527.298H862.81Z" fill="url(#paint7_linear_145_2)"/>
</g>
<path d="M650.572 91.9878H349.43C320.555 91.9878 297.146 115.396 297.146 144.271V855.728C297.146 884.603 320.555 908.012 349.43 908.012H650.572C679.448 908.012 702.856 884.603 702.856 855.728V144.271C702.856 115.396 679.448 91.9878 650.572 91.9878Z" fill="url(#paint8_linear_145_2)"/>
<path d="M650.572 96.0459H349.43C322.795 96.0459 301.204 117.637 301.204 144.272V855.729C301.204 882.363 322.795 903.954 349.43 903.954H650.572C677.206 903.954 698.798 882.363 698.798 855.729V144.272C698.798 117.637 677.206 96.0459 650.572 96.0459Z" fill="url(#paint9_linear_145_2)"/>
<path d="M638.987 112.358H360.994C336.141 112.358 315.994 132.505 315.994 157.358V842.622C315.994 867.475 336.141 887.622 360.994 887.622H638.987C663.84 887.622 683.987 867.475 683.987 842.622V157.358C683.987 132.505 663.84 112.358 638.987 112.358Z" fill="white"/>
<path d="M620.91 310.049C618.476 328.126 623.426 348.922 630.466 363.712C657.856 421.352 702.531 488.771 768.306 503.906C775.671 505.59 784.923 506.178 789.203 499.97C790.806 497.637 791.334 494.776 791.78 491.976C799.51 443.264 788.331 392.968 762.321 351.255C740.45 316.156 693.645 256.041 645.48 275.62C630.121 281.869 622.959 295.016 620.931 310.049H620.91Z" fill="url(#paint10_linear_145_2)"/>
</g>
<defs>
<linearGradient id="paint0_linear_145_2" x1="499.991" y1="1014.97" x2="499.991" y2="145.144" gradientUnits="userSpaceOnUse">
<stop stop-color="#009AA2"/>
<stop offset="0.6" stop-color="#22C6CB"/>
<stop offset="1" stop-color="#3CE6EA"/>
</linearGradient>
<linearGradient id="paint1_linear_145_2" x1="780.54" y1="1014.97" x2="780.54" y2="145.144" gradientUnits="userSpaceOnUse">
<stop stop-color="#009AA2"/>
<stop offset="0.6" stop-color="#22C6CB"/>
<stop offset="1" stop-color="#3CE6EA"/>
</linearGradient>
<linearGradient id="paint2_linear_145_2" x1="401.693" y1="393.191" x2="209.622" y2="278.784" gradientUnits="userSpaceOnUse">
<stop stop-color="#182941"/>
<stop offset="1" stop-color="#0094F2"/>
</linearGradient>
<linearGradient id="paint3_linear_145_2" x1="0.00100616" y1="560.692" x2="209.622" y2="446.286" gradientUnits="userSpaceOnUse">
<stop stop-color="#182941"/>
<stop offset="1" stop-color="#0094F2"/>
</linearGradient>
<linearGradient id="paint4_linear_145_2" x1="447.757" y1="669.276" x2="231.621" y2="612.13" gradientUnits="userSpaceOnUse">
<stop stop-color="#182941"/>
<stop offset="1" stop-color="#0094F2"/>
</linearGradient>
<linearGradient id="paint5_linear_145_2" x1="551.666" y1="550.244" x2="763.539" y2="646.229" gradientUnits="userSpaceOnUse">
<stop stop-color="#182941"/>
<stop offset="1" stop-color="#0094F2"/>
</linearGradient>
<linearGradient id="paint6_linear_145_2" x1="1088.91" y1="1000.37" x2="1201.23" y2="657.332" gradientUnits="userSpaceOnUse">
<stop stop-color="#DB4B3A"/>
<stop offset="1" stop-color="#FF7B64"/>
</linearGradient>
<linearGradient id="paint7_linear_145_2" x1="959.743" y1="885.765" x2="778.988" y2="696.171" gradientUnits="userSpaceOnUse">
<stop stop-color="#F98314"/>
<stop offset="1" stop-color="#FFB353"/>
</linearGradient>
<linearGradient id="paint8_linear_145_2" x1="499.991" y1="324.961" x2="499.991" y2="-70.0767" gradientUnits="userSpaceOnUse">
<stop stop-color="#242D42"/>
<stop offset="0.36" stop-color="#39455E"/>
<stop offset="1" stop-color="#67789C"/>
</linearGradient>
<linearGradient id="paint9_linear_145_2" x1="499.991" y1="471.931" x2="499.991" y2="80.8092" gradientUnits="userSpaceOnUse">
<stop stop-color="#242D42"/>
<stop offset="0.36" stop-color="#39455E"/>
<stop offset="1" stop-color="#67789C"/>
</linearGradient>
<linearGradient id="paint10_linear_145_2" x1="611.225" y1="233.494" x2="735.108" y2="419.832" gradientUnits="userSpaceOnUse">
<stop stop-color="#182941"/>
<stop offset="1" stop-color="#0094F2"/>
</linearGradient>
<clipPath id="clip0_145_2">
<rect width="1000" height="1000" fill="white"/>
</clipPath>
</defs>
<svg width="200" height="200" viewBox="0 0 32 32" fill="none" xmlns="http://www.w3.org/2000/svg" x="400" y="320">
<g clip-path="url(#clip0_4392_68)">
<path fill-rule="evenodd" clip-rule="evenodd" d="M0 23.6751C0.436674 23.8816 1.00981 24.1973 1.41919 24.4402C1.5693 24.5313 1.73987 24.6102 1.90362 24.7013C1.99232 24.7499 2.04691 24.7742 2.12878 24.8227C2.16972 24.847 2.20384 24.8713 2.24478 24.8895C2.29254 24.9138 2.31983 24.926 2.36759 24.9503L7.62132 27.8284C7.69638 27.8649 7.76461 27.9074 7.84648 27.9499L12.6158 30.567C12.6704 30.5973 12.6908 30.6034 12.7386 30.6337L15.0175 31.8785C15.1198 31.9271 15.1608 31.9878 15.2768 31.9939V16.1457L14.5535 15.7753C14.4853 15.7449 14.4443 15.7207 14.3761 15.6842L13.8098 15.3928C13.0047 15.0163 12.2542 14.5548 11.4422 14.1783C11.3603 14.1419 11.333 14.1176 11.2444 14.0812L10.5211 13.7108C10.3437 13.6136 9.53859 13.1825 9.39531 13.1522V15.6539L12.3565 17.178C12.4384 17.2205 12.493 17.2508 12.568 17.2873C12.6499 17.3237 12.6908 17.3662 12.7932 17.3844V28.1138C12.2746 27.8041 11.722 27.5248 11.1898 27.2394L9.90021 26.529C9.37484 26.2133 8.80853 25.9521 8.28316 25.6425C8.22175 25.606 8.18763 25.5939 8.12623 25.5575L6.98678 24.932C6.86397 24.8713 6.77527 24.8227 6.65928 24.7499C6.24307 24.5009 5.79275 24.2823 5.36972 24.0394C5.25373 23.9726 5.15821 23.9301 5.04222 23.8633C4.4145 23.4869 3.73902 23.1468 3.09765 22.8007C3.04307 22.7704 2.99531 22.74 2.94755 22.7096L2.44947 22.4364V9.55746C2.35394 9.50281 2.25842 9.45424 2.14925 9.39959C2.04009 9.34494 1.95821 9.30243 1.84904 9.24171L0.313859 8.46448C0.197868 8.40983 0.109168 8.34911 0 8.30054V23.6751Z" fill="#060606"/>
<path fill-rule="evenodd" clip-rule="evenodd" d="M16.7506 16.1214V22.2117L17.658 21.7563C18.0743 21.562 18.4563 21.3252 18.8725 21.1309C18.9476 21.0945 18.9749 21.0823 19.0295 21.0459C19.0841 21.0155 19.1386 20.9973 19.1932 20.973V17.3844C19.2751 17.3662 19.3024 17.3541 19.3638 17.3176C19.4252 17.2812 19.4662 17.269 19.5276 17.2387C19.8482 17.0747 20.1621 16.8804 20.4896 16.7347C20.9331 16.5404 21.3561 16.2975 21.7792 16.0728C21.8883 16.0182 21.977 15.9696 22.093 15.9089L22.7344 15.5871C22.8026 15.5506 22.8231 15.5385 22.8913 15.5021C23.1711 15.3745 23.4303 15.2045 23.7169 15.0709L24.0308 14.907C24.0853 14.8766 24.1399 14.8584 24.1945 14.8341L26.2892 13.7533C26.7327 13.5468 27.1421 13.2979 27.5787 13.0914L28.2269 12.7514C28.4453 12.636 28.6568 12.5328 28.8751 12.4114C28.9911 12.3506 29.0866 12.3081 29.189 12.2474L29.5301 12.0774V22.4668C29.4346 22.485 29.4073 22.5153 29.3254 22.5578L28.725 22.8857C28.6636 22.9222 28.6158 22.9525 28.5408 22.995C28.4589 23.0375 28.4043 23.074 28.3361 23.1104C28.261 23.1468 28.2201 23.1772 28.145 23.2136L27.5378 23.5355C26.9919 23.8148 26.4802 24.1305 25.9344 24.4098L24.3378 25.2903C24.2627 25.3328 24.2218 25.351 24.1467 25.3935C23.4303 25.8246 22.6661 26.1829 21.9429 26.6019C21.8133 26.6808 21.6768 26.7476 21.5472 26.8205L19.548 27.9134C19.4866 27.9438 19.4184 27.9802 19.357 28.0167C18.7634 28.3628 18.1425 28.6603 17.5489 29.0064L16.7369 29.4497V32C16.8734 31.9696 17.0917 31.8239 17.2146 31.7571C17.3783 31.666 17.5352 31.5931 17.699 31.496C18.1561 31.2227 18.6542 30.9981 19.1114 30.7248C19.2001 30.6763 19.2683 30.6337 19.3502 30.5912L20.5578 29.9294C20.6397 29.8869 20.7011 29.8504 20.783 29.8079L27.2103 26.2861C27.299 26.2375 27.374 26.195 27.4491 26.1525L31.7408 23.8026C31.8227 23.7541 31.9045 23.7115 31.9864 23.6751V8.32483C31.8636 8.34912 31.8431 8.38555 31.7476 8.43413C31.6589 8.47663 31.5975 8.50699 31.5156 8.5495L30.0896 9.28422C29.6052 9.51496 29.1548 9.80035 28.6636 10.0189L24.8495 11.9742C24.6789 12.0592 24.5425 12.1381 24.3787 12.2231L23.676 12.5874C23.1779 12.8121 22.4546 13.1947 21.9975 13.4497C21.9156 13.4983 21.8474 13.5165 21.7655 13.5651L20.2167 14.3666C20.1485 14.3969 20.1621 14.3969 20.0939 14.4334L19.6094 14.6702C19.3229 14.8038 19.0704 14.9677 18.7838 15.1013C18.7156 15.1317 18.7156 15.1438 18.661 15.1681L18.1766 15.4049C17.8559 15.5446 17.0099 16.0728 16.7506 16.1214Z" fill="#060606"/>
<path fill-rule="evenodd" clip-rule="evenodd" d="M0.948364 7.28046C1.04389 7.29867 1.09847 7.34725 1.18717 7.38975C1.50785 7.54156 1.79442 7.72372 2.12193 7.86945L4.71468 9.20531C5.94964 9.87325 7.23237 10.4683 8.47416 11.1362L8.70615 11.2516C8.79485 11.2941 8.85625 11.3306 8.93813 11.367L10.3505 12.0956C10.4119 12.126 10.4051 12.126 10.4528 12.1503C11.1147 12.5085 11.8106 12.8121 12.4656 13.1825L14.5671 14.2573C14.649 14.2998 14.7104 14.3362 14.7923 14.3787C15.0379 14.5123 15.9181 14.986 16.0068 14.986C16.1364 14.986 16.887 14.5609 17.078 14.4577L17.4464 14.2634C17.5693 14.1966 17.6784 14.1541 17.8012 14.0873C17.9309 14.0205 18.0264 13.9719 18.156 13.9051L18.8725 13.5287C18.9953 13.4619 19.1044 13.4133 19.2204 13.3465L20.3053 12.8C20.3735 12.7696 20.4213 12.7393 20.4827 12.7089C20.5441 12.6725 20.585 12.6543 20.6601 12.6178L21.3833 12.2474C21.4993 12.1867 21.629 12.0956 21.7654 12.0653C21.745 11.9924 21.7313 11.9985 21.6631 11.962L19.3501 10.778C18.429 11.2091 17.5556 11.7131 16.6413 12.1564C16.5663 12.1928 16.5049 12.2292 16.4366 12.2717C16.2934 12.3507 16.1637 12.4175 16.0136 12.4903L14.6217 11.7738C14.1373 11.5552 13.6938 11.2698 13.2093 11.0452C13.1002 10.9905 12.991 10.9298 12.8955 10.8812L10.0708 9.43605C10.0162 9.40569 9.96841 9.3814 9.91382 9.35104C9.85242 9.31461 9.81148 9.30247 9.75007 9.27211L6.13387 7.41404C6.06564 7.37761 6.05881 7.35939 5.96329 7.34118C6.03834 7.24402 6.12704 7.23795 6.24986 7.17116C6.3522 7.11044 6.44772 7.08008 6.55689 7.02543L9.70231 5.51347C9.77054 5.47704 9.77054 5.47097 9.83877 5.44061C9.907 5.41025 9.94112 5.3981 10.0025 5.36167C10.1117 5.30095 10.2209 5.25844 10.33 5.20987L14.2533 3.32751C14.3215 3.29715 14.342 3.27894 14.4102 3.2425L16.0068 2.48349C16.0955 2.48349 17.3032 3.10892 17.5829 3.23643C17.6511 3.26679 17.6989 3.28501 17.7671 3.32144C17.849 3.36395 17.8695 3.38216 17.965 3.4186L22.3044 5.50133C22.6865 5.71385 23.8464 6.25427 24.2558 6.43643C24.7198 6.64288 25.1633 6.89184 25.6273 7.09829L28.2064 8.34307C28.2951 8.38558 28.3224 8.39772 28.4042 8.44023C28.7113 8.60417 28.7181 8.46452 29.2162 8.22163L30.1373 7.75408C30.301 7.67514 30.9219 7.32296 31.0652 7.2926C31.0379 7.21366 30.956 7.1833 30.8742 7.1408L29.9394 6.68539C29.4686 6.47287 28.9978 6.21176 28.527 6.01139L27.5923 5.55598C27.2716 5.41025 26.9509 5.27666 26.6507 5.10664L21.936 2.84175C21.8405 2.79924 21.7859 2.77495 21.704 2.72638L19.8072 1.81556C19.7185 1.77305 19.6639 1.74269 19.5752 1.70019C19.5275 1.6759 19.507 1.66983 19.4661 1.65161L16.9757 0.449336C16.8187 0.364326 16.0887 0 16 0C15.9249 0 15.3995 0.279317 15.2835 0.327894L9.88653 2.92676C9.79783 2.96319 9.7296 2.99355 9.64772 3.03605L5.86777 4.85161C5.77907 4.89412 5.73813 4.92448 5.63578 4.96698L5.29463 5.13093C5.2264 5.16129 5.2264 5.17343 5.17182 5.19772C5.09677 5.24023 5.01489 5.25844 4.93301 5.30702L4.20977 5.65313C4.11425 5.69564 4.06649 5.73207 3.97779 5.7685L2.87928 6.30285C2.83834 6.32106 2.83834 6.31499 2.80423 6.33321C2.6473 6.41214 2.48355 6.46679 2.33344 6.55787C2.24474 6.60645 2.19016 6.62467 2.09463 6.66717L1.03706 7.18937C0.955187 7.23188 0.975656 7.19545 0.948364 7.28046Z" fill="#060606"/>
</g>
<defs>
<clipPath id="clip0_4392_68">
<rect width="32" height="32" fill="white"/>
</clipPath>
</defs>
<text width="100" x="500" y="630" font-size="50" font-weight="700" font-family="Sans-Serif" fill="#073a3f" text-anchor="middle">GALA</text><text width="100" x="500" y="695" font-size="50" font-weight="700" font-family="Sans-Serif" fill="#073a3f" text-anchor="middle">Wallet</text></svg>
<text width="100" x="500" y="630" font-size="50" font-weight="700" font-family="Sans-Serif" fill="#073a3f" text-anchor="middle">GALA</text><text width="100" x="500" y="695" font-size="50" font-weight="700" font-family="Sans-Serif" fill="#073a3f" text-anchor="middle">Wallet</text></svg>
