<svg width="1000" height="1000" viewBox="0 0 1000 1000" fill="none" xmlns="http://www.w3.org/2000/svg">
<g clip-path="url(#clip0_145_2)">
<path d="M968.635 297.836C961.088 287.691 952.019 277.933 941.225 268.681C899.877 233.217 846.011 222.403 795.006 209.094C724.422 190.672 683.318 150.379 625.049 108.016C566.01 65.1063 496.907 37.027 425.674 35.9111C343.404 34.6329 259.227 72.0044 208.08 142.994C161.822 207.207 146.444 289.294 122.381 364.97C98.3192 440.646 39.2594 491.631 13.0669 568.829C-6.22746 625.718 -5.92313 693.725 25.9298 743.29C41.0853 766.865 62.3274 784.983 84.8882 799.712C138.288 834.588 201.304 851.326 262.453 855.83C371.423 863.865 453.977 911.664 544.382 972.225C617.867 1021.47 724.24 1001.99 785.47 938.628C843.333 878.736 863.601 790.988 888.313 711.052C900.932 670.251 914.444 629.228 935.058 592.364C984.115 504.657 1034.17 385.989 968.635 297.815V297.836Z" fill="url(#paint0_linear_145_2)"/>
<path d="M879.081 174.055C962.995 177.849 910.103 95.4167 873.096 67.3171C834.609 38.1017 787.56 18.8479 742.215 7.24286C710.2 -0.953696 609.386 -16.1498 644.506 54.9411C652.013 70.1169 664.287 81.6408 676.399 92.6372C738.604 149.019 799.185 170.444 879.081 174.055Z" fill="url(#paint1_linear_145_2)"/>
<mask id="mask0_145_2" style="mask-type:luminance" maskUnits="userSpaceOnUse" x="-1" y="35" width="1001" height="965">
<path d="M968.635 297.835C961.087 287.691 952.019 277.932 941.225 268.681C899.877 233.217 846.011 222.403 795.006 209.093C770.538 202.703 749.62 193.695 730.306 182.881L700.177 72.0447L581.104 79.9978C532.858 53.2575 479.865 36.763 425.654 35.9311C343.384 34.653 259.207 72.0244 208.059 143.014C161.802 207.227 146.423 289.314 122.361 364.99C97.7306 442.452 39.2389 491.651 13.0464 568.849C-6.24797 625.738 -5.94364 693.745 25.9093 743.31C41.0648 766.885 62.3069 785.003 84.8677 799.732C138.267 834.608 201.283 851.346 262.433 855.85C371.402 863.885 453.956 911.684 544.362 972.245C617.847 1021.49 724.219 1002.01 785.45 938.648C843.313 878.756 863.581 791.008 888.292 711.072C900.912 670.271 914.424 629.248 935.037 592.384C984.095 504.677 1034.15 386.009 968.615 297.835H968.635Z" fill="white"/>
</mask>
<g mask="url(#mask0_145_2)">
<path d="M266.186 382.479C286.759 397.33 310.841 408.671 330.318 416.645C365.032 430.867 434.824 444.379 440.424 390.168C441.682 377.995 435.94 366.167 428.92 356.144C395.992 309.217 329.222 274.402 272.252 272.982C261.601 272.718 250.463 273.59 241.252 278.926C223.032 289.496 218.102 315.161 225.548 334.862C232.588 353.507 248.008 369.352 266.186 382.458V382.479Z" fill="url(#paint2_linear_145_2)"/>
<path d="M266.186 549.98C286.759 564.831 310.841 576.173 330.318 584.146C365.032 598.368 434.824 611.88 440.424 557.669C441.682 545.496 435.94 533.668 428.92 523.646C395.992 476.718 329.222 441.903 272.252 440.483C261.601 440.219 250.463 441.092 241.252 446.428C223.032 456.998 218.102 482.663 225.548 502.363C232.588 521.008 248.008 536.854 266.186 549.96V549.98Z" fill="url(#paint3_linear_145_2)"/>
<path d="M314.575 696.22C338.434 704.823 364.728 709.124 385.625 711.437C422.915 715.555 493.742 709.347 484.186 655.684C482.036 643.633 473.271 633.833 463.756 626.144C419.202 590.091 345.413 574.997 290.249 589.3C279.922 591.978 269.473 595.873 262.088 603.563C247.48 618.739 249.814 644.769 262.393 661.669C274.302 677.656 293.475 688.632 314.575 696.261V696.22Z" fill="url(#paint4_linear_145_2)"/>
<path d="M842.623 657.387C832.256 719.876 785.491 777.333 723.712 791.413C701.253 796.526 677.86 796.039 654.955 793.726C620.505 790.237 586.339 782.628 554.364 769.339C527.868 758.323 501.33 741.564 490.699 714.905C483.456 696.767 484.592 676.479 486.479 657.043C494.168 577.796 512.448 499.583 540.67 425.125C546.492 409.746 553.269 393.819 566.193 383.635C580.719 372.192 600.622 370.082 619.024 371.908C685.935 378.542 734.547 427.803 781.007 471.423C829.192 516.666 853.478 591.876 842.623 657.367V657.387Z" fill="url(#paint5_linear_145_2)"/>
<path d="M1536.45 873.175C1536.45 873.175 1641.36 952.99 1508.33 1049.73C1508.33 1049.73 1118.71 1162 674.411 881.92C674.411 881.92 661 680.414 862.81 527.277C862.81 527.277 1217.6 774.411 1536.45 873.175Z" fill="url(#paint6_linear_145_2)"/>
<path d="M862.81 527.298C661 680.435 674.411 881.941 674.411 881.941C707.116 902.554 739.456 920.793 771.41 937.369C815.579 753.028 912.314 639.006 960.722 591.328C899.918 553.125 862.79 527.298 862.79 527.298H862.81Z" fill="url(#paint7_linear_145_2)"/>
</g>
<path d="M650.572 91.9878H349.43C320.555 91.9878 297.146 115.396 297.146 144.271V855.728C297.146 884.603 320.555 908.012 349.43 908.012H650.572C679.448 908.012 702.856 884.603 702.856 855.728V144.271C702.856 115.396 679.448 91.9878 650.572 91.9878Z" fill="url(#paint8_linear_145_2)"/>
<path d="M650.572 96.0459H349.43C322.795 96.0459 301.204 117.637 301.204 144.272V855.729C301.204 882.363 322.795 903.954 349.43 903.954H650.572C677.206 903.954 698.798 882.363 698.798 855.729V144.272C698.798 117.637 677.206 96.0459 650.572 96.0459Z" fill="url(#paint9_linear_145_2)"/>
<path d="M638.987 112.358H360.994C336.141 112.358 315.994 132.505 315.994 157.358V842.622C315.994 867.475 336.141 887.622 360.994 887.622H638.987C663.84 887.622 683.987 867.475 683.987 842.622V157.358C683.987 132.505 663.84 112.358 638.987 112.358Z" fill="white"/>
<path d="M620.91 310.049C618.476 328.126 623.426 348.922 630.466 363.712C657.856 421.352 702.531 488.771 768.306 503.906C775.671 505.59 784.923 506.178 789.203 499.97C790.806 497.637 791.334 494.776 791.78 491.976C799.51 443.264 788.331 392.968 762.321 351.255C740.45 316.156 693.645 256.041 645.48 275.62C630.121 281.869 622.959 295.016 620.931 310.049H620.91Z" fill="url(#paint10_linear_145_2)"/>
</g>
<defs>
<linearGradient id="paint0_linear_145_2" x1="499.991" y1="1014.97" x2="499.991" y2="145.144" gradientUnits="userSpaceOnUse">
<stop stop-color="#009AA2"/>
<stop offset="0.6" stop-color="#22C6CB"/>
<stop offset="1" stop-color="#3CE6EA"/>
</linearGradient>
<linearGradient id="paint1_linear_145_2" x1="780.54" y1="1014.97" x2="780.54" y2="145.144" gradientUnits="userSpaceOnUse">
<stop stop-color="#009AA2"/>
<stop offset="0.6" stop-color="#22C6CB"/>
<stop offset="1" stop-color="#3CE6EA"/>
</linearGradient>
<linearGradient id="paint2_linear_145_2" x1="401.693" y1="393.191" x2="209.622" y2="278.784" gradientUnits="userSpaceOnUse">
<stop stop-color="#182941"/>
<stop offset="1" stop-color="#0094F2"/>
</linearGradient>
<linearGradient id="paint3_linear_145_2" x1="0.00100616" y1="560.692" x2="209.622" y2="446.286" gradientUnits="userSpaceOnUse">
<stop stop-color="#182941"/>
<stop offset="1" stop-color="#0094F2"/>
</linearGradient>
<linearGradient id="paint4_linear_145_2" x1="447.757" y1="669.276" x2="231.621" y2="612.13" gradientUnits="userSpaceOnUse">
<stop stop-color="#182941"/>
<stop offset="1" stop-color="#0094F2"/>
</linearGradient>
<linearGradient id="paint5_linear_145_2" x1="551.666" y1="550.244" x2="763.539" y2="646.229" gradientUnits="userSpaceOnUse">
<stop stop-color="#182941"/>
<stop offset="1" stop-color="#0094F2"/>
</linearGradient>
<linearGradient id="paint6_linear_145_2" x1="1088.91" y1="1000.37" x2="1201.23" y2="657.332" gradientUnits="userSpaceOnUse">
<stop stop-color="#DB4B3A"/>
<stop offset="1" stop-color="#FF7B64"/>
</linearGradient>
<linearGradient id="paint7_linear_145_2" x1="959.743" y1="885.765" x2="778.988" y2="696.171" gradientUnits="userSpaceOnUse">
<stop stop-color="#F98314"/>
<stop offset="1" stop-color="#FFB353"/>
</linearGradient>
<linearGradient id="paint8_linear_145_2" x1="499.991" y1="324.961" x2="499.991" y2="-70.0767" gradientUnits="userSpaceOnUse">
<stop stop-color="#242D42"/>
<stop offset="0.36" stop-color="#39455E"/>
<stop offset="1" stop-color="#67789C"/>
</linearGradient>
<linearGradient id="paint9_linear_145_2" x1="499.991" y1="471.931" x2="499.991" y2="80.8092" gradientUnits="userSpaceOnUse">
<stop stop-color="#242D42"/>
<stop offset="0.36" stop-color="#39455E"/>
<stop offset="1" stop-color="#67789C"/>
</linearGradient>
<linearGradient id="paint10_linear_145_2" x1="611.225" y1="233.494" x2="735.108" y2="419.832" gradientUnits="userSpaceOnUse">
<stop stop-color="#182941"/>
<stop offset="1" stop-color="#0094F2"/>
</linearGradient>
<clipPath id="clip0_145_2">
<rect width="1000" height="1000" fill="white"/>
</clipPath>
</defs>
<svg width="200" height="200" viewBox="0 0 32 32" fill="none" xmlns="http://www.w3.org/2000/svg" x="400" y="320">
<g clip-path="url(#clip0_4405_292)">
<path d="M26.2016 18.0737C26.0224 18.1377 25.792 18.2657 25.6 18.3041C22.8352 17.0497 19.1488 16.6273 16.0768 16.6145C16.0512 16.6145 16.0384 16.6145 16.0256 16.6145C16.0128 16.6145 15.9744 16.6145 15.9744 16.6145C12.9536 16.6273 9.20318 17.0497 6.45118 18.3041C6.25918 18.2657 6.01598 18.1377 5.84958 18.0737C5.29918 18.6753 4.46718 21.1457 4.21118 22.6433C4.21118 22.6561 4.22398 22.6689 4.22398 22.6817C7.78238 22.0417 8.31998 24.1153 9.81758 24.1409C10.816 24.1793 12.3392 21.4017 16.0512 21.3761C19.712 21.4017 21.2608 24.1665 22.272 24.1409C23.7696 24.1025 24.3072 22.0417 27.8656 22.6817C27.8656 22.6689 27.8784 22.6561 27.8656 22.6433C27.5968 21.1457 26.7648 18.6881 26.2272 18.0737H26.2016Z" fill="#F4A427"/>
<path d="M27.776 22.2593C24.3584 21.5681 23.2832 23.7569 22.1824 23.7441C21.0944 23.7313 19.7248 21.0433 16.064 20.9921C16.0384 20.9921 16.0256 20.9921 16 20.9921C15.9744 20.9921 15.9616 20.9921 15.936 20.9921C12.288 21.0433 10.9056 23.7313 9.83038 23.7441C8.72958 23.7569 7.65438 21.5681 4.23678 22.2593C4.18558 22.6561 3.59678 25.1009 6.02878 27.4049C9.30558 30.5153 15.296 30.6049 16.0128 30.6049C16.7296 30.6049 22.72 30.5153 25.9968 27.4049C28.416 25.1009 27.84 22.6561 27.7888 22.2593H27.776Z" fill="white"/>
<path d="M26.688 16.1409C23.6032 13.8881 19.456 13.5553 16.1536 13.4017C16.1536 13.3889 16.1536 13.3633 16.1536 13.3505C12.7744 13.4913 8.4736 13.7985 5.2736 16.0897C5.2352 16.3201 5.2736 17.6385 5.2736 17.6385C5.2736 17.6385 6.1056 18.0353 6.4256 18.1761C10.2144 16.6913 15.0272 16.5889 15.9744 16.5889C15.9744 16.6145 15.9744 16.6273 15.9744 16.6273C15.9744 16.6273 21.3888 16.5505 25.5616 18.2145C25.8688 18.0609 26.7008 17.6769 26.7008 17.6769C26.7008 17.6769 26.7392 16.3585 26.7008 16.1281L26.688 16.1409Z" fill="#929497"/>
<path d="M18.112 13.3632H13.9648L14.464 7.05281L16.0128 6.65601L17.6 7.05281L18.112 13.3632Z" fill="#929497"/>
<path d="M26.496 15.9105L22.0032 14.1185L18.0992 13.3633L17.6768 8.15369C17.6768 8.15369 21.3376 8.52489 22.3616 10.1761C22.1056 12.3393 23.744 14.6689 26.5088 15.0273C26.5088 15.4625 26.4832 15.9233 26.4832 15.9233L26.496 15.9105Z" fill="#5A595C"/>
<path d="M5.47838 15.9105L9.97118 14.1185L13.8752 13.3633L14.2976 8.15369C14.2976 8.15369 10.6368 8.52489 9.61278 10.1761C9.86878 12.3393 8.23038 14.6689 5.46558 15.0273C5.46558 15.4625 5.49118 15.9233 5.49118 15.9233L5.47838 15.9105Z" fill="#5A595C"/>
<path d="M30.4 11.6609C29.4912 12.8513 29.0176 13.2609 28.352 13.8113C28.1728 13.9649 27.6224 14.3745 27.0976 14.5921C27.0208 14.6305 26.944 14.6561 26.88 14.6817C26.8288 14.6945 26.7904 14.7201 26.7392 14.7201C26.4448 14.7969 26.2912 14.7329 25.728 14.6177C25.6896 14.6177 25.5104 14.5793 25.4848 14.5793C25.1264 14.5153 24.4352 14.2721 23.7952 13.6705C22.8096 12.7233 22.336 11.6225 22.656 9.95847C24.0256 9.99687 26.3296 8.53767 27.4048 7.02727C28.6592 5.24807 28.416 3.16167 28.1088 1.84327C28.0064 1.43367 28.4928 1.13927 28.8256 1.39527C32.768 4.48007 32.1536 9.34407 30.4 11.6609Z" fill="#F79422"/>
<path d="M1.98399 11.6481C2.89279 12.8385 3.36639 13.2481 4.03199 13.7985C4.21119 13.9521 4.76159 14.3617 5.28639 14.5793C5.36319 14.6177 5.43999 14.6433 5.50399 14.6689C5.55519 14.6817 5.59359 14.7073 5.64479 14.7073C5.93919 14.7841 6.09279 14.7201 6.65599 14.6049C6.69439 14.5921 6.87359 14.5665 6.89919 14.5665C7.25759 14.5025 7.94879 14.2593 8.58879 13.6577C9.57439 12.7105 10.048 11.6097 9.72799 9.94565C8.35839 9.98405 6.05439 8.52485 4.97919 7.01445C3.72479 5.23525 3.96799 3.14885 4.27519 1.83045C4.37759 1.42085 3.89119 1.12645 3.55839 1.38245C-0.384015 4.46725 0.230385 9.33125 1.98399 11.6481Z" fill="#F79422"/>
<path d="M5.60637 17.8049C4.47997 19.9937 3.46877 22.6689 4.23677 25.1393C4.54397 26.0993 5.11997 26.9313 5.84957 27.6225C6.48957 28.2241 7.23197 28.6849 7.98717 29.1073C9.79197 30.0929 11.8144 30.5921 13.8624 30.7969C14.5792 30.8609 15.2832 30.8993 16 30.8993C16.2944 30.8993 16.2944 30.4385 16 30.4385C13.6064 30.4257 11.1104 30.0801 8.94717 29.0689C7.42397 28.3649 5.88797 27.3793 5.05597 25.8817C3.90397 23.8209 4.53117 21.3121 5.40157 19.2769C5.58077 18.8545 5.78557 18.4449 5.99037 18.0353C6.11837 17.7665 5.73437 17.5361 5.59357 17.8049H5.60637Z" fill="black"/>
<path d="M5.04321 17.9712C5.46561 18.176 5.88801 18.368 6.32321 18.5472C6.51521 18.624 6.74561 18.4576 6.79681 18.2784C6.86081 18.0608 6.72001 17.8944 6.52801 17.8048C6.48961 17.792 6.50241 17.792 6.55361 17.8176C6.52801 17.8048 6.51521 17.8048 6.50241 17.792C6.46401 17.7792 6.42561 17.7536 6.37441 17.7408C6.27201 17.6896 6.15681 17.6512 6.05441 17.6C5.84961 17.5104 5.64481 17.408 5.44001 17.3056C5.24801 17.216 5.03041 17.2544 4.91521 17.4464C4.81281 17.6128 4.86401 17.8688 5.05601 17.9712H5.04321Z" fill="black"/>
<path d="M6.51518 18.5473C7.69278 18.0737 8.94718 17.7537 10.1888 17.5233C11.7248 17.2417 13.2608 17.1009 14.848 17.0369C15.232 17.0241 15.616 17.0113 16 17.0113C16.2048 17.0113 16.384 16.8449 16.384 16.6273C16.384 16.4225 16.2048 16.2433 16 16.2433C14.336 16.2689 12.672 16.3841 11.0336 16.6145C9.70238 16.8065 8.37118 17.0881 7.09118 17.5233C6.82238 17.6129 6.56638 17.7153 6.31038 17.8177C6.11838 17.8945 5.97758 18.0737 6.04158 18.2913C6.09278 18.4705 6.32318 18.6369 6.51518 18.5601V18.5473Z" fill="black"/>
<path d="M5.61921 17.6513C5.61921 17.1521 5.59361 16.6529 5.61921 16.1537C5.61921 15.9489 5.44001 15.7697 5.23521 15.7697C5.01761 15.7697 4.86401 15.9489 4.85121 16.1537C4.83841 16.6529 4.85121 17.1521 4.85121 17.6513C4.85121 17.8561 5.03041 18.0353 5.23521 18.0353C5.44001 18.0353 5.61921 17.8561 5.61921 17.6513Z" fill="black"/>
<path d="M5.41439 16.4736C5.75999 16.256 6.10559 16.0512 6.46399 15.872C6.66879 15.7696 6.87359 15.6544 7.07839 15.5648C7.18079 15.5136 7.29599 15.4624 7.39839 15.4112C7.44959 15.3856 7.51359 15.36 7.56479 15.3344C7.59039 15.3216 7.62879 15.3088 7.65439 15.296C7.69279 15.2832 7.69279 15.2832 7.65439 15.296C7.67999 15.2832 7.69279 15.2832 7.71839 15.2704C8.83199 14.8096 9.98399 14.464 11.1616 14.208C11.9168 14.0544 12.6464 13.9392 13.3888 13.8624C14.2592 13.7728 15.1296 13.7344 16.0128 13.7344C16.2176 13.7344 16.3968 13.5552 16.3968 13.3504C16.3968 13.1456 16.2176 12.9664 16.0128 12.9664C13.2096 12.9664 10.368 13.3888 7.75679 14.4256C6.80959 14.7968 5.90079 15.2448 5.04319 15.7952C4.86399 15.9104 4.79999 16.128 4.90239 16.32C5.00479 16.4992 5.24799 16.576 5.42719 16.4608L5.41439 16.4736Z" fill="black"/>
<path d="M2.624 1.66402C2.0736 2.24002 1.5744 2.86722 1.1648 3.55842C0.8192 4.13442 0.5248 4.74882 0.32 5.38882C0.0896 6.09282 0 6.82242 0 7.56482C0.0128 10.4064 1.6768 13.0048 3.968 14.592C4.608 15.04 5.3888 15.3344 6.1824 15.2704C6.6176 15.232 6.9888 15.0784 7.3856 14.8864C7.68 14.7456 7.9872 14.592 8.256 14.4128C8.8192 14.0416 9.28 13.5552 9.5744 12.9536C9.8688 12.3648 10.0096 11.712 10.0096 11.0592C10.0096 10.7648 9.9712 10.4576 9.9328 10.1632C9.9072 10.0224 9.7792 9.93282 9.664 9.89442C9.2288 9.74082 8.7808 9.66402 8.3584 9.51042C8.2944 9.48482 8.2304 9.45922 8.1664 9.43362C8.1024 9.40802 8.256 9.47202 8.192 9.44642C8.1792 9.43362 8.1536 9.43362 8.1408 9.42082C8.1024 9.39522 8.0512 9.38242 8.0128 9.35682C7.8464 9.28002 7.68 9.20322 7.5264 9.11362C7.3472 9.01122 7.168 8.90882 6.9888 8.79362C6.8992 8.72962 6.8096 8.67842 6.72 8.61442C6.6816 8.57602 6.6304 8.55042 6.5792 8.51202C6.5536 8.49922 6.5408 8.47362 6.5152 8.46082C6.5024 8.44802 6.4896 8.43522 6.4768 8.42242C6.5152 8.44802 6.5152 8.46082 6.4896 8.43522C6.0928 8.12802 5.7344 7.76962 5.4144 7.38562C5.3888 7.36002 5.376 7.33442 5.3504 7.30882C5.2864 7.23202 5.4016 7.37282 5.3248 7.28322C5.2864 7.23202 5.248 7.18082 5.2096 7.12962C5.1328 7.01442 5.056 6.89922 4.9792 6.77122C4.9152 6.65602 4.8512 6.54082 4.7872 6.42562C4.7616 6.36162 4.7232 6.29762 4.6976 6.24642C4.6848 6.22082 4.672 6.18242 4.6592 6.15682C4.6464 6.11842 4.6336 6.11842 4.6592 6.15682C4.6464 6.13122 4.6464 6.11842 4.6336 6.09282C4.5184 5.81122 4.4416 5.52962 4.3648 5.23522C4.352 5.15842 4.3392 5.08162 4.3264 5.01762C4.3264 4.97922 4.3136 4.94082 4.3008 4.90242C4.3008 4.90242 4.2752 4.77442 4.288 4.85122C4.2624 4.68482 4.2496 4.50562 4.2496 4.33922C4.2112 3.60962 4.2752 2.91842 4.4032 2.25282C4.48 1.85602 4.4544 1.43362 4.0448 1.22882C3.6352 1.02402 3.2 1.21602 2.8672 1.48482C2.7904 1.54882 2.7008 1.62562 2.6368 1.70242C2.2912 2.06082 2.8288 2.59842 3.1744 2.24002C3.2896 2.11202 3.3664 2.04802 3.5072 1.97122C3.584 1.93282 3.5712 1.93282 3.6736 1.90722C3.5968 1.92002 3.712 1.90722 3.7248 1.90722C3.6864 1.90722 3.6864 1.90722 3.7248 1.92002C3.6864 1.90722 3.6992 1.90722 3.7376 1.93282C3.712 1.92002 3.6736 1.84322 3.712 1.90722C3.6608 1.83042 3.712 1.95842 3.6992 1.86882C3.6992 1.90722 3.6992 1.93282 3.6992 1.97122C3.6992 2.08642 3.712 1.89442 3.6864 2.02242C3.648 2.20162 3.6096 2.38082 3.584 2.56002C3.4816 3.27682 3.4432 4.03202 3.52 4.74882C3.648 5.97762 4.1472 7.11682 4.9536 8.05122C5.568 8.78082 6.3488 9.36962 7.1936 9.81762C7.5136 9.98402 7.8336 10.1376 8.1664 10.2656C8.5888 10.432 9.0496 10.5088 9.472 10.6496C9.3824 10.56 9.2928 10.4704 9.2032 10.3808C9.3184 11.072 9.2672 11.6992 9.024 12.352C9.0112 12.3776 8.9984 12.416 8.9856 12.4416C8.9472 12.544 9.024 12.3648 8.9728 12.4672C8.9472 12.5184 8.9216 12.5696 8.896 12.6208C8.8192 12.7616 8.7424 12.9024 8.6528 13.0304C8.5888 13.12 8.6016 13.1072 8.5504 13.1712C8.4992 13.2352 8.448 13.2864 8.3968 13.3376C8.3456 13.3888 8.2944 13.44 8.2304 13.4912C8.2048 13.5168 8.1664 13.5424 8.1408 13.568C8.1152 13.5808 8.1024 13.6064 8.0768 13.6192C8.1024 13.5936 8.1024 13.5936 8.064 13.632C7.808 13.824 7.5264 13.9904 7.232 14.1312C6.912 14.2976 6.592 14.4512 6.2336 14.528C6.1184 14.5536 5.9136 14.5536 5.76 14.5536C5.6064 14.5408 5.44 14.5152 5.2608 14.4512C4.9152 14.3488 4.5952 14.1568 4.288 13.952C4.0192 13.7728 3.8016 13.5808 3.5328 13.3504C3.2768 13.1328 3.0464 12.8896 2.816 12.6464C2.368 12.16 2.0096 11.6608 1.6768 11.072C1.0112 9.89442 0.6912 8.58882 0.7424 7.21922C0.768 6.57922 0.896 5.99042 1.1136 5.36322C1.216 5.08162 1.3184 4.86402 1.4592 4.58242C1.5872 4.32642 1.728 4.08322 1.8816 3.84002C2.0224 3.62242 2.1632 3.41762 2.3168 3.21282C2.3424 3.17442 2.3808 3.13602 2.4064 3.09762C2.4704 3.02082 2.3552 3.16162 2.4192 3.08482C2.432 3.05922 2.4576 3.04642 2.4704 3.02082C2.5344 2.94402 2.5984 2.86722 2.6624 2.77762C2.816 2.59842 2.9696 2.43202 3.1232 2.25282C3.4688 1.89442 2.9312 1.35682 2.5856 1.71522L2.624 1.66402Z" fill="black"/>
<path d="M5.15839 14.7841C4.99199 15.2193 5.05599 15.7825 5.43999 16.0769C5.60639 16.2049 5.82399 16.2305 5.97759 16.0769C6.10559 15.9489 6.14399 15.6673 5.97759 15.5393C5.95199 15.5137 5.91359 15.4881 5.88799 15.4625C5.86239 15.4241 5.84959 15.4241 5.87519 15.4497C5.86239 15.4241 5.84959 15.4113 5.83679 15.3857C5.87519 15.4625 5.83679 15.3601 5.83679 15.3473C5.82399 15.3089 5.82399 15.3089 5.83679 15.3473C5.83679 15.3217 5.83679 15.3089 5.83679 15.2833C5.83679 15.2577 5.83679 15.2193 5.83679 15.1937C5.83679 15.1553 5.83679 15.1553 5.83679 15.2065C5.83679 15.1809 5.83679 15.1681 5.84959 15.1553C5.86239 15.0913 5.87519 15.0401 5.90079 14.9761C5.97759 14.7841 5.82399 14.5537 5.63199 14.5025C5.41439 14.4385 5.23519 14.5793 5.15839 14.7713V14.7841Z" fill="black"/>
<path d="M9.84321 10.5216C11.008 9.31845 12.7488 8.47365 14.4128 8.52485C14.6176 8.52485 14.7968 8.34565 14.7968 8.14085C14.7968 7.92325 14.6176 7.76965 14.4128 7.75685C13.4656 7.73125 12.544 7.97445 11.6736 8.34565C10.7904 8.72965 9.97121 9.28005 9.30561 9.97125C8.96001 10.3296 9.49761 10.8672 9.84321 10.5088V10.5216Z" fill="black"/>
<path d="M14.272 13.4528C14.4896 11.3152 14.7072 9.19042 14.9376 7.05282C14.9632 6.84802 14.7456 6.66882 14.5536 6.66882C14.3232 6.66882 14.1952 6.84802 14.1696 7.05282C13.952 9.19042 13.7344 11.3152 13.504 13.4528C13.4784 13.6576 13.696 13.8368 13.888 13.8368C14.1184 13.8368 14.2464 13.6576 14.272 13.4528Z" fill="black"/>
<path d="M14.7456 7.38569C15.1168 7.14249 15.5776 7.05289 16.0128 7.04009C16.2176 7.02729 16.3968 6.87369 16.3968 6.65609C16.3968 6.45129 16.2176 6.27209 16.0128 6.27209C15.4496 6.29769 14.848 6.40009 14.3616 6.72009C14.1824 6.83529 14.1184 7.05289 14.2208 7.24489C14.3232 7.42409 14.5664 7.50089 14.7456 7.38569Z" fill="black"/>
<path d="M25.9968 18.0352C27.0848 20.16 28.096 22.7968 27.264 25.1776C26.6624 26.8928 25.1264 27.9936 23.5776 28.8128C21.696 29.7984 19.5456 30.2464 17.408 30.3872C16.9472 30.4128 16.4736 30.4256 16.0128 30.4384C15.7184 30.4384 15.7184 30.8992 16.0128 30.8992C18.4704 30.8864 20.9664 30.5408 23.2064 29.504C24.768 28.7872 26.3168 27.8016 27.2256 26.3168C28.4672 24.2944 28.0704 21.8368 27.2768 19.7376C27.0208 19.0848 26.7264 18.432 26.4064 17.8048C26.2656 17.5488 25.8688 17.7792 26.0096 18.0352H25.9968Z" fill="black"/>
<path d="M26.5856 17.3184C26.3936 17.408 26.2016 17.4976 26.0096 17.5872C25.9072 17.6384 25.792 17.6896 25.6896 17.728C25.6512 17.7536 25.6 17.7664 25.5616 17.7792C25.536 17.792 25.5232 17.792 25.4976 17.8048C25.408 17.8432 25.5744 17.7792 25.4848 17.8048C25.2928 17.8816 25.152 18.0608 25.216 18.2784C25.2672 18.4576 25.4976 18.624 25.6896 18.5472C26.1248 18.368 26.5472 18.176 26.9696 17.9712C27.1616 17.8816 27.2 17.6256 27.1104 17.4464C26.9952 17.2544 26.7648 17.216 26.5856 17.3056V17.3184Z" fill="black"/>
<path d="M25.6896 17.8177C24.512 17.3441 23.2704 17.0241 22.016 16.7937C20.4544 16.4993 18.8544 16.3457 17.2672 16.2817C16.8448 16.2689 16.4224 16.2561 16.0128 16.2433C15.808 16.2433 15.6288 16.4225 15.6288 16.6273C15.6288 16.8321 15.808 17.0113 16.0128 17.0113C18.9824 17.0497 21.9648 17.3185 24.7808 18.2913C25.024 18.3681 25.2544 18.4705 25.4976 18.5601C25.6896 18.6369 25.92 18.4833 25.9712 18.2913C26.0352 18.0737 25.8944 17.8945 25.7024 17.8177H25.6896Z" fill="black"/>
<path d="M27.1488 17.6513C27.1488 17.1521 27.1744 16.6529 27.1488 16.1537C27.1488 15.9489 26.9824 15.7697 26.7648 15.7697C26.56 15.7697 26.3808 15.9489 26.3808 16.1537C26.3936 16.6529 26.3808 17.1521 26.3808 17.6513C26.3808 17.8561 26.56 18.0353 26.7648 18.0353C26.9696 18.0353 27.1488 17.8561 27.1488 17.6513Z" fill="black"/>
<path d="M26.9696 15.8208C25.1904 14.6944 23.1808 13.952 21.1328 13.504C19.456 13.1456 17.728 12.9792 16 12.9792C15.7952 12.9792 15.616 13.1584 15.616 13.3632C15.616 13.568 15.7952 13.7472 16 13.7472C18.7776 13.7472 21.5168 14.1568 24.1152 15.2064C24.1792 15.232 24.2304 15.2576 24.2944 15.2832C24.3968 15.3216 24.2176 15.2576 24.32 15.296C24.3584 15.3088 24.3968 15.3344 24.4352 15.3472C24.5504 15.3984 24.6784 15.4496 24.7936 15.5008C25.024 15.6032 25.2544 15.7184 25.472 15.8336C25.856 16.0256 26.2272 16.2432 26.5856 16.4736C26.7648 16.5888 27.008 16.512 27.1104 16.3328C27.2128 16.1536 27.1488 15.9232 26.9696 15.808V15.8208Z" fill="black"/>
<path d="M28.8384 2.20165C29.0176 2.39365 29.184 2.57285 29.3504 2.77765C29.4144 2.85445 29.4912 2.94405 29.5552 3.02085C29.6192 3.09765 29.504 2.95685 29.568 3.03365C29.5936 3.05925 29.6064 3.08485 29.6192 3.11045C29.6576 3.17445 29.7088 3.22565 29.7472 3.28965C29.9136 3.52005 30.0672 3.76325 30.2208 4.00645C30.5664 4.58245 30.8224 5.12005 31.0016 5.74725C31.2064 6.43845 31.2576 7.07845 31.232 7.80805C31.1808 9.12645 30.72 10.3936 29.9776 11.5328C29.6192 12.0832 29.2224 12.5568 28.7232 13.0304C28.2112 13.5296 27.712 13.952 27.072 14.2592C26.816 14.3872 26.4704 14.4896 26.2016 14.5024C25.856 14.528 25.5616 14.464 25.2288 14.336C24.9472 14.2208 24.6656 14.0672 24.4096 13.9264C24.2816 13.8624 24.1664 13.7856 24.0512 13.7088C23.9872 13.6704 23.9232 13.6192 23.872 13.5808C23.936 13.6192 23.8336 13.5424 23.8336 13.5424C23.808 13.5168 23.7696 13.4912 23.744 13.4656C23.5008 13.248 23.36 13.0816 23.2064 12.8256C23.1424 12.7232 23.0912 12.6208 23.04 12.5184C23.0272 12.4928 23.0144 12.4672 23.0016 12.4416C22.9632 12.352 23.0272 12.5184 22.9888 12.416C22.9632 12.352 22.9376 12.3008 22.9248 12.2368C22.7072 11.6224 22.6688 11.0208 22.784 10.368C22.6944 10.4576 22.6048 10.5472 22.5152 10.6368C22.9504 10.4832 23.3984 10.4064 23.8336 10.2528C24.1664 10.1248 24.4992 9.97125 24.8064 9.80485C25.6512 9.35685 26.4192 8.76805 27.0464 8.03845C27.8528 7.09125 28.3392 5.96485 28.48 4.73605C28.5568 4.01925 28.5184 3.26405 28.416 2.54725C28.3904 2.38085 28.352 2.21445 28.3136 2.04805C28.3136 2.04805 28.288 1.92005 28.3008 1.99685C28.3008 1.95845 28.3008 1.93285 28.3008 1.89445C28.3008 1.79205 28.2752 1.97125 28.3008 1.86885C28.2752 1.90725 28.2752 1.92005 28.3008 1.88165C28.288 1.90725 28.2752 1.92005 28.2624 1.93285C28.3392 1.86885 28.224 1.93285 28.3136 1.90725C28.2368 1.93285 28.3392 1.90725 28.352 1.90725C28.2752 1.90725 28.3904 1.92005 28.4032 1.92005C28.5184 1.94565 28.352 1.89445 28.4672 1.94565C28.5056 1.97125 28.544 1.98405 28.5696 2.00965C28.5568 2.00965 28.672 2.08645 28.6336 2.04805C28.7104 2.09925 28.7744 2.16325 28.8384 2.22725C29.184 2.58565 29.7216 2.04805 29.376 1.68965C29.0944 1.39525 28.7616 1.17765 28.3648 1.13925C28.16 1.11365 27.9424 1.20325 27.7888 1.34405C27.6352 1.48485 27.5712 1.67685 27.5584 1.88165C27.5456 2.06085 27.5968 2.24005 27.6352 2.40645C27.6608 2.49605 27.6736 2.57285 27.6864 2.66245C27.6992 2.73925 27.6992 2.77765 27.712 2.89285C27.7504 3.26405 27.7632 3.63525 27.7632 4.00645C27.7632 4.17285 27.7632 4.33925 27.7504 4.49285C27.7504 4.56965 27.7376 4.64645 27.7248 4.73605C27.712 4.85125 27.712 4.82565 27.6992 4.94085C27.648 5.24805 27.5712 5.54245 27.4816 5.83685C27.456 5.90085 27.4304 5.97765 27.4048 6.04165C27.392 6.08005 27.3792 6.10565 27.3664 6.14405C27.328 6.24645 27.392 6.08005 27.3536 6.18245C27.2896 6.32325 27.2256 6.45125 27.1616 6.57925C27.0336 6.82245 26.88 7.05285 26.7264 7.27045C26.7008 7.29605 26.688 7.32165 26.6624 7.34725C26.7136 7.27045 26.6496 7.36005 26.6368 7.37285C26.5984 7.42405 26.56 7.47525 26.5216 7.51365C26.432 7.61605 26.3424 7.71845 26.2528 7.80805C26.0736 7.98725 25.8944 8.15365 25.7024 8.32005C25.664 8.35845 25.6128 8.39685 25.5616 8.43525C25.536 8.46085 25.5232 8.47365 25.4976 8.48645C25.5744 8.42245 25.4976 8.48645 25.4848 8.49925C25.3824 8.57605 25.2928 8.64005 25.1904 8.70405C25.0112 8.81925 24.832 8.93445 24.64 9.04965C24.4736 9.15205 24.3072 9.22885 24.128 9.31845C24.0512 9.35685 23.9744 9.39525 23.9104 9.42085C23.872 9.43365 23.8336 9.44645 23.808 9.47205C23.744 9.49765 23.8976 9.43365 23.8336 9.45925C23.808 9.47205 23.7952 9.48485 23.7696 9.48485C23.36 9.65125 22.912 9.75365 22.4768 9.88165C22.4256 9.89445 22.3744 9.90725 22.336 9.93285C22.2208 9.97125 22.0928 10.0608 22.0672 10.2016C21.8368 11.5712 22.144 13.056 23.1936 14.0288C23.7056 14.5024 24.3584 14.8352 24.9984 15.104C25.7664 15.4368 26.5856 15.36 27.3536 15.0272C28.0192 14.7328 28.608 14.2464 29.1328 13.7472C29.632 13.2864 30.0928 12.7616 30.4896 12.1984C31.296 11.0592 31.808 9.71525 31.9616 8.32005C32.0384 7.59045 32.0128 6.83525 31.872 6.11845C31.7312 5.42725 31.4752 4.77445 31.1552 4.14725C30.72 3.30245 30.1312 2.50885 29.4784 1.80485C29.44 1.76645 29.4144 1.72805 29.376 1.70245C29.0432 1.34405 28.5056 1.88165 28.8384 2.24005V2.20165Z" fill="black"/>
<path d="M26.112 14.9889C26.1376 15.0401 26.1504 15.0913 26.1632 15.1425C26.1632 15.1681 26.176 15.1937 26.176 15.2193C26.1504 15.1169 26.176 15.2449 26.176 15.2705C26.176 15.3089 26.176 15.3345 26.176 15.3729C26.1888 15.2833 26.1632 15.4113 26.1504 15.4369C26.176 15.3345 26.0864 15.5137 26.1504 15.4497C26.112 15.4881 26.0736 15.5265 26.0352 15.5521C25.8688 15.6801 25.9072 15.9617 26.0352 16.0897C26.1888 16.2433 26.4064 16.2177 26.5728 16.0897C26.9568 15.7953 27.0208 15.2321 26.8544 14.7969C26.7776 14.6049 26.5984 14.4769 26.3808 14.5281C26.1888 14.5793 26.0352 14.8097 26.112 15.0017V14.9889Z" fill="black"/>
<path d="M22.7072 9.98407C22.0416 9.29287 21.2224 8.74247 20.3392 8.35847C19.4816 7.98727 18.5472 7.74407 17.6 7.76967C17.3952 7.76967 17.216 7.93607 17.216 8.15367C17.216 8.35847 17.3952 8.53767 17.6 8.53767C19.264 8.48647 21.0048 9.33127 22.1696 10.5345C22.5152 10.8801 23.0528 10.3425 22.7072 9.99687V9.98407Z" fill="black"/>
<path d="M18.496 13.4528C18.2784 11.3152 18.0608 9.19042 17.8304 7.05282C17.8048 6.84802 17.6768 6.66882 17.4464 6.66882C17.2544 6.66882 17.0368 6.84802 17.0624 7.05282C17.28 9.19042 17.4976 11.3152 17.728 13.4528C17.7536 13.6576 17.8816 13.8368 18.112 13.8368C18.304 13.8368 18.5216 13.6576 18.496 13.4528Z" fill="black"/>
<path d="M17.6512 6.72009C17.1776 6.40009 16.576 6.29769 16.0128 6.27209C15.808 6.25929 15.6288 6.45129 15.6288 6.65609C15.6288 6.87369 15.808 7.02729 16.0128 7.04009C16.448 7.05289 16.9088 7.14249 17.2672 7.38569C17.4464 7.50089 17.6896 7.42409 17.792 7.24489C17.9072 7.05289 17.8304 6.83529 17.6512 6.72009Z" fill="black"/>
<path d="M17.3184 25.2801C17.0624 25.2801 16.8192 25.2289 16.6272 25.1137L16.6144 25.1009C16.3968 24.9857 16.1536 24.8577 16 24.6145C15.8336 24.8577 15.6032 24.9857 15.3856 25.1009L15.3728 25.1137C15.0912 25.2673 14.72 25.3057 14.336 25.2417C14.2208 25.2161 14.144 25.1137 14.1696 24.9985C14.1952 24.8833 14.2976 24.8065 14.4128 24.8321C14.7072 24.8833 14.976 24.8577 15.1808 24.7425L15.1936 24.7297C15.5648 24.5377 15.808 24.3969 15.808 23.8081C15.808 23.6929 15.8976 23.6033 16.0128 23.6033C16.128 23.6033 16.2176 23.6929 16.2176 23.8081C16.2176 24.4097 16.4608 24.5377 16.8192 24.7297L16.832 24.7425C17.024 24.8449 17.3056 24.8833 17.6 24.8321C17.7152 24.8065 17.8176 24.8833 17.8432 24.9985C17.8688 25.1137 17.792 25.2161 17.6768 25.2417C17.5616 25.2545 17.4464 25.2673 17.3312 25.2673L17.3184 25.2801Z" fill="black"/>
<path d="M17.6256 22.4128C17.6256 22.8992 16.8576 23.5776 15.9232 23.5776C14.976 23.5776 14.2208 22.9248 14.2208 22.4384C14.2208 21.952 14.9888 21.7856 15.9232 21.7856C16.8704 21.7856 17.6256 21.9264 17.6256 22.4128Z" fill="black"/>
<path d="M16.64 22.2336C16.64 22.3488 16.32 22.5024 15.9232 22.5024C15.5264 22.5024 15.2064 22.3488 15.2064 22.2336C15.2064 22.1184 15.5264 22.144 15.9232 22.144C16.32 22.144 16.64 22.1184 16.64 22.2336Z" fill="white"/>
<path d="M14.3488 25.2545C14.336 25.2545 14.3232 25.2545 14.3104 25.2545C14.272 25.2545 14.2336 25.2417 14.1952 25.2289C13.4912 25.0625 13.0944 24.5633 13.0944 23.8209C13.0944 23.7057 13.184 23.6161 13.2992 23.6161C13.4144 23.6161 13.504 23.7057 13.504 23.8209C13.504 24.3585 13.76 24.6913 14.272 24.8193C14.3104 24.8321 14.336 24.8321 14.3744 24.8449C14.4896 24.8705 14.5664 24.9729 14.5408 25.0881C14.5152 25.1905 14.4384 25.2673 14.336 25.2673L14.3488 25.2545Z" fill="black"/>
<path d="M15.9872 24.0256C15.872 24.0256 15.7824 23.936 15.7824 23.8208C15.7824 23.744 15.7824 23.6672 15.7824 23.5904C15.7824 23.488 15.7824 23.3856 15.7824 23.2448C15.7824 23.1296 15.872 23.0272 15.9872 23.0272C16.1024 23.0272 16.2048 23.1168 16.2048 23.232C16.2048 23.3728 16.2048 23.4752 16.2048 23.5776C16.2048 23.6416 16.2048 23.7184 16.2048 23.7952C16.2048 23.9104 16.1152 24.0128 16 24.0128L15.9872 24.0256Z" fill="black"/>
<path d="M17.6256 25.2545C17.5232 25.2545 17.4336 25.1777 17.4208 25.0753C17.3952 24.9601 17.4848 24.8577 17.6 24.8321C17.6256 24.8321 17.664 24.8193 17.7024 24.8065C18.2272 24.6785 18.4704 24.3585 18.4704 23.8081C18.4704 23.6929 18.56 23.6033 18.6752 23.6033C18.7904 23.6033 18.88 23.6929 18.88 23.8081C18.88 24.5377 18.496 25.0369 17.7792 25.2161C17.7408 25.2289 17.6896 25.2417 17.6512 25.2417C17.6384 25.2417 17.6256 25.2417 17.6128 25.2417L17.6256 25.2545Z" fill="black"/>
<path d="M12.864 19.7121C12.864 20.6209 12.3264 21.3505 11.6608 21.3505C10.9952 21.3505 10.4576 20.6209 10.4576 19.7121C10.4576 18.9313 10.8672 18.2657 11.4048 18.1121C11.7632 18.3681 12.2112 18.7009 12.7744 19.0977C12.8384 19.2897 12.864 19.4945 12.864 19.7121Z" fill="black"/>
<path d="M12.4288 19.4944C12.4288 19.8144 12.2368 20.0832 11.9936 20.0832C11.7504 20.0832 11.5584 19.8272 11.5584 19.4944C11.5584 19.1744 11.7504 18.9056 11.9936 18.9056C12.224 18.9056 12.4288 19.1744 12.4288 19.4944Z" fill="white"/>
<path d="M11.392 20.9408C10.9312 21.3248 10.4832 21.7344 10.1248 22.1952C9.94558 22.4256 9.77918 22.6688 9.66398 22.9248C9.53598 23.1808 9.45918 23.4496 9.40798 23.744C9.38238 23.8848 9.35678 24.0384 9.34398 24.1792L9.31838 24.3968C9.31838 24.4736 9.30558 24.5504 9.30558 24.6272C9.29278 24.9216 9.29278 25.2288 9.31838 25.5232C9.34398 25.8304 9.38238 26.1248 9.44638 26.4192C9.48478 26.5728 9.51038 26.7136 9.54878 26.8672C9.58718 27.008 9.63838 27.1616 9.70238 27.3024C9.62558 27.1744 9.56158 27.0336 9.49758 26.8928C9.43358 26.752 9.38238 26.5984 9.34398 26.4576C9.24158 26.1632 9.16478 25.8688 9.11358 25.5616C9.04958 25.2544 9.01118 24.9472 8.98558 24.64C8.98558 24.5632 8.97278 24.4864 8.97278 24.4096V24.1792C8.97278 24.0256 8.97278 23.8592 8.99838 23.7056C9.02398 23.3856 9.08798 23.0656 9.20318 22.7584C9.31838 22.4512 9.47198 22.1568 9.65118 21.888C10.0096 21.3504 10.432 20.8768 10.88 20.416C11.0208 20.2624 11.264 20.2624 11.4176 20.4032C11.5712 20.544 11.5712 20.7872 11.4304 20.9408C11.4304 20.9408 11.4176 20.9536 11.4048 20.9664L11.392 20.9408Z" fill="black"/>
<path d="M11.1232 20.8128C11.0592 20.8128 11.0592 20.8 11.0336 20.8L10.9824 20.7872L10.88 20.7616C10.816 20.7488 10.752 20.736 10.688 20.7232C10.56 20.6976 10.432 20.6848 10.2912 20.672C10.0224 20.6592 9.76638 20.672 9.49758 20.736C9.36958 20.7744 9.24158 20.8128 9.11358 20.864C8.98558 20.928 8.87038 20.992 8.75518 21.0688C8.52478 21.2224 8.33278 21.44 8.16638 21.6704C8.26878 21.4016 8.42238 21.1456 8.62718 20.928C8.72958 20.8128 8.84478 20.7104 8.95998 20.6208C9.07518 20.5312 9.21598 20.4416 9.35678 20.3776C9.63838 20.2368 9.93278 20.1472 10.24 20.096C10.3936 20.0704 10.5472 20.0576 10.7008 20.0448C10.7776 20.0448 10.8544 20.0448 10.9312 20.0448H11.0464H11.0976C11.1104 20.0448 11.136 20.0448 11.1104 20.0448C11.328 20.0576 11.4816 20.224 11.4816 20.4416C11.4816 20.6464 11.3024 20.8128 11.0848 20.8L11.1232 20.8128Z" fill="black"/>
<path d="M19.0976 19.7121C19.0976 20.6209 19.6352 21.3505 20.3008 21.3505C20.9664 21.3505 21.504 20.6209 21.504 19.7121C21.504 18.9185 21.0944 18.2657 20.544 18.1121C20.1856 18.3681 19.8528 18.6113 19.1872 19.0849C19.1232 19.2769 19.0976 19.4945 19.0976 19.7121Z" fill="black"/>
<path d="M19.5328 19.4944C19.5328 19.8144 19.7248 20.0832 19.968 20.0832C20.2112 20.0832 20.4032 19.8272 20.4032 19.4944C20.4032 19.1744 20.2112 18.9056 19.968 18.9056C19.7376 18.9056 19.5328 19.1744 19.5328 19.4944Z" fill="white"/>
<path d="M20.5696 20.9408C21.0304 21.3248 21.4784 21.7344 21.8368 22.1952C22.016 22.4256 22.1824 22.6688 22.2976 22.9248C22.4256 23.1808 22.5024 23.4496 22.5536 23.744C22.5792 23.8848 22.6048 24.0384 22.6176 24.1792L22.6432 24.3968C22.6432 24.4736 22.656 24.5504 22.656 24.6272C22.6688 24.9216 22.6688 25.2288 22.6432 25.5232C22.6176 25.8304 22.5792 26.1248 22.5152 26.4192C22.4768 26.5728 22.4512 26.7136 22.4128 26.8672C22.3744 27.008 22.3232 27.1616 22.2592 27.3024C22.336 27.1744 22.4 27.0336 22.464 26.8928C22.528 26.752 22.5792 26.5984 22.6176 26.4576C22.72 26.1632 22.7968 25.8688 22.848 25.5616C22.912 25.2544 22.9504 24.9472 22.976 24.64C22.976 24.5632 22.9888 24.4864 22.9888 24.4096V24.1792C22.9888 24.0256 22.9888 23.8592 22.9632 23.7056C22.9376 23.3856 22.8736 23.0656 22.7584 22.7584C22.6432 22.4512 22.4896 22.1568 22.3104 21.888C21.952 21.3504 21.5296 20.8768 21.0816 20.416C20.9408 20.2624 20.6976 20.2624 20.544 20.4032C20.3904 20.544 20.3904 20.7872 20.5312 20.9408C20.5312 20.9536 20.544 20.9536 20.5568 20.9664L20.5696 20.9408Z" fill="black"/>
<path d="M20.8384 20.8128C20.9024 20.8128 20.9024 20.8 20.928 20.8L20.9792 20.7872L21.0816 20.7616C21.1456 20.7488 21.2096 20.736 21.2736 20.7232C21.4016 20.6976 21.5296 20.6848 21.6704 20.672C21.9392 20.6592 22.1952 20.672 22.464 20.736C22.592 20.7744 22.72 20.8128 22.848 20.864C22.9632 20.928 23.0912 20.992 23.2064 21.0688C23.4368 21.2224 23.6288 21.44 23.7952 21.6704C23.6928 21.4016 23.5392 21.1456 23.3344 20.928C23.232 20.8128 23.1168 20.7104 23.0016 20.6208C22.8864 20.5312 22.7456 20.4416 22.6048 20.3776C22.3232 20.2368 22.0288 20.1472 21.7216 20.096C21.568 20.0704 21.4144 20.0576 21.2608 20.0448C21.184 20.0448 21.1072 20.0448 21.0304 20.0448H20.9152H20.864C20.8512 20.0448 20.8256 20.0448 20.8512 20.0448C20.6336 20.0576 20.48 20.224 20.48 20.4416C20.48 20.6464 20.6592 20.8128 20.8768 20.8L20.8384 20.8128Z" fill="black"/>
</g>
<defs>
<clipPath id="clip0_4405_292">
<rect width="32" height="32" fill="white"/>
</clipPath>
</defs>
<text width="100" x="500" y="630" font-size="50" font-weight="700" font-family="Sans-Serif" fill="#073a3f" text-anchor="middle">FLOKI</text><text width="100" x="500" y="695" font-size="50" font-weight="700" font-family="Sans-Serif" fill="#073a3f" text-anchor="middle">Wallet</text></svg>
<text width="100" x="500" y="630" font-size="50" font-weight="700" font-family="Sans-Serif" fill="#073a3f" text-anchor="middle">FLOKI</text><text width="100" x="500" y="695" font-size="50" font-weight="700" font-family="Sans-Serif" fill="#073a3f" text-anchor="middle">Wallet</text></svg>
