<svg width="1000" height="1000" viewBox="0 0 1000 1000" fill="none" xmlns="http://www.w3.org/2000/svg">
<g clip-path="url(#clip0_145_2)">
<path d="M968.635 297.836C961.088 287.691 952.019 277.933 941.225 268.681C899.877 233.217 846.011 222.403 795.006 209.094C724.422 190.672 683.318 150.379 625.049 108.016C566.01 65.1063 496.907 37.027 425.674 35.9111C343.404 34.6329 259.227 72.0044 208.08 142.994C161.822 207.207 146.444 289.294 122.381 364.97C98.3192 440.646 39.2594 491.631 13.0669 568.829C-6.22746 625.718 -5.92313 693.725 25.9298 743.29C41.0853 766.865 62.3274 784.983 84.8882 799.712C138.288 834.588 201.304 851.326 262.453 855.83C371.423 863.865 453.977 911.664 544.382 972.225C617.867 1021.47 724.24 1001.99 785.47 938.628C843.333 878.736 863.601 790.988 888.313 711.052C900.932 670.251 914.444 629.228 935.058 592.364C984.115 504.657 1034.17 385.989 968.635 297.815V297.836Z" fill="url(#paint0_linear_145_2)"/>
<path d="M879.081 174.055C962.995 177.849 910.103 95.4167 873.096 67.3171C834.609 38.1017 787.56 18.8479 742.215 7.24286C710.2 -0.953696 609.386 -16.1498 644.506 54.9411C652.013 70.1169 664.287 81.6408 676.399 92.6372C738.604 149.019 799.185 170.444 879.081 174.055Z" fill="url(#paint1_linear_145_2)"/>
<mask id="mask0_145_2" style="mask-type:luminance" maskUnits="userSpaceOnUse" x="-1" y="35" width="1001" height="965">
<path d="M968.635 297.835C961.087 287.691 952.019 277.932 941.225 268.681C899.877 233.217 846.011 222.403 795.006 209.093C770.538 202.703 749.62 193.695 730.306 182.881L700.177 72.0447L581.104 79.9978C532.858 53.2575 479.865 36.763 425.654 35.9311C343.384 34.653 259.207 72.0244 208.059 143.014C161.802 207.227 146.423 289.314 122.361 364.99C97.7306 442.452 39.2389 491.651 13.0464 568.849C-6.24797 625.738 -5.94364 693.745 25.9093 743.31C41.0648 766.885 62.3069 785.003 84.8677 799.732C138.267 834.608 201.283 851.346 262.433 855.85C371.402 863.885 453.956 911.684 544.362 972.245C617.847 1021.49 724.219 1002.01 785.45 938.648C843.313 878.756 863.581 791.008 888.292 711.072C900.912 670.271 914.424 629.248 935.037 592.384C984.095 504.677 1034.15 386.009 968.615 297.835H968.635Z" fill="white"/>
</mask>
<g mask="url(#mask0_145_2)">
<path d="M266.186 382.479C286.759 397.33 310.841 408.671 330.318 416.645C365.032 430.867 434.824 444.379 440.424 390.168C441.682 377.995 435.94 366.167 428.92 356.144C395.992 309.217 329.222 274.402 272.252 272.982C261.601 272.718 250.463 273.59 241.252 278.926C223.032 289.496 218.102 315.161 225.548 334.862C232.588 353.507 248.008 369.352 266.186 382.458V382.479Z" fill="url(#paint2_linear_145_2)"/>
<path d="M266.186 549.98C286.759 564.831 310.841 576.173 330.318 584.146C365.032 598.368 434.824 611.88 440.424 557.669C441.682 545.496 435.94 533.668 428.92 523.646C395.992 476.718 329.222 441.903 272.252 440.483C261.601 440.219 250.463 441.092 241.252 446.428C223.032 456.998 218.102 482.663 225.548 502.363C232.588 521.008 248.008 536.854 266.186 549.96V549.98Z" fill="url(#paint3_linear_145_2)"/>
<path d="M314.575 696.22C338.434 704.823 364.728 709.124 385.625 711.437C422.915 715.555 493.742 709.347 484.186 655.684C482.036 643.633 473.271 633.833 463.756 626.144C419.202 590.091 345.413 574.997 290.249 589.3C279.922 591.978 269.473 595.873 262.088 603.563C247.48 618.739 249.814 644.769 262.393 661.669C274.302 677.656 293.475 688.632 314.575 696.261V696.22Z" fill="url(#paint4_linear_145_2)"/>
<path d="M842.623 657.387C832.256 719.876 785.491 777.333 723.712 791.413C701.253 796.526 677.86 796.039 654.955 793.726C620.505 790.237 586.339 782.628 554.364 769.339C527.868 758.323 501.33 741.564 490.699 714.905C483.456 696.767 484.592 676.479 486.479 657.043C494.168 577.796 512.448 499.583 540.67 425.125C546.492 409.746 553.269 393.819 566.193 383.635C580.719 372.192 600.622 370.082 619.024 371.908C685.935 378.542 734.547 427.803 781.007 471.423C829.192 516.666 853.478 591.876 842.623 657.367V657.387Z" fill="url(#paint5_linear_145_2)"/>
<path d="M1536.45 873.175C1536.45 873.175 1641.36 952.99 1508.33 1049.73C1508.33 1049.73 1118.71 1162 674.411 881.92C674.411 881.92 661 680.414 862.81 527.277C862.81 527.277 1217.6 774.411 1536.45 873.175Z" fill="url(#paint6_linear_145_2)"/>
<path d="M862.81 527.298C661 680.435 674.411 881.941 674.411 881.941C707.116 902.554 739.456 920.793 771.41 937.369C815.579 753.028 912.314 639.006 960.722 591.328C899.918 553.125 862.79 527.298 862.79 527.298H862.81Z" fill="url(#paint7_linear_145_2)"/>
</g>
<path d="M650.572 91.9878H349.43C320.555 91.9878 297.146 115.396 297.146 144.271V855.728C297.146 884.603 320.555 908.012 349.43 908.012H650.572C679.448 908.012 702.856 884.603 702.856 855.728V144.271C702.856 115.396 679.448 91.9878 650.572 91.9878Z" fill="url(#paint8_linear_145_2)"/>
<path d="M650.572 96.0459H349.43C322.795 96.0459 301.204 117.637 301.204 144.272V855.729C301.204 882.363 322.795 903.954 349.43 903.954H650.572C677.206 903.954 698.798 882.363 698.798 855.729V144.272C698.798 117.637 677.206 96.0459 650.572 96.0459Z" fill="url(#paint9_linear_145_2)"/>
<path d="M638.987 112.358H360.994C336.141 112.358 315.994 132.505 315.994 157.358V842.622C315.994 867.475 336.141 887.622 360.994 887.622H638.987C663.84 887.622 683.987 867.475 683.987 842.622V157.358C683.987 132.505 663.84 112.358 638.987 112.358Z" fill="white"/>
<path d="M620.91 310.049C618.476 328.126 623.426 348.922 630.466 363.712C657.856 421.352 702.531 488.771 768.306 503.906C775.671 505.59 784.923 506.178 789.203 499.97C790.806 497.637 791.334 494.776 791.78 491.976C799.51 443.264 788.331 392.968 762.321 351.255C740.45 316.156 693.645 256.041 645.48 275.62C630.121 281.869 622.959 295.016 620.931 310.049H620.91Z" fill="url(#paint10_linear_145_2)"/>
</g>
<defs>
<linearGradient id="paint0_linear_145_2" x1="499.991" y1="1014.97" x2="499.991" y2="145.144" gradientUnits="userSpaceOnUse">
<stop stop-color="#009AA2"/>
<stop offset="0.6" stop-color="#22C6CB"/>
<stop offset="1" stop-color="#3CE6EA"/>
</linearGradient>
<linearGradient id="paint1_linear_145_2" x1="780.54" y1="1014.97" x2="780.54" y2="145.144" gradientUnits="userSpaceOnUse">
<stop stop-color="#009AA2"/>
<stop offset="0.6" stop-color="#22C6CB"/>
<stop offset="1" stop-color="#3CE6EA"/>
</linearGradient>
<linearGradient id="paint2_linear_145_2" x1="401.693" y1="393.191" x2="209.622" y2="278.784" gradientUnits="userSpaceOnUse">
<stop stop-color="#182941"/>
<stop offset="1" stop-color="#0094F2"/>
</linearGradient>
<linearGradient id="paint3_linear_145_2" x1="0.00100616" y1="560.692" x2="209.622" y2="446.286" gradientUnits="userSpaceOnUse">
<stop stop-color="#182941"/>
<stop offset="1" stop-color="#0094F2"/>
</linearGradient>
<linearGradient id="paint4_linear_145_2" x1="447.757" y1="669.276" x2="231.621" y2="612.13" gradientUnits="userSpaceOnUse">
<stop stop-color="#182941"/>
<stop offset="1" stop-color="#0094F2"/>
</linearGradient>
<linearGradient id="paint5_linear_145_2" x1="551.666" y1="550.244" x2="763.539" y2="646.229" gradientUnits="userSpaceOnUse">
<stop stop-color="#182941"/>
<stop offset="1" stop-color="#0094F2"/>
</linearGradient>
<linearGradient id="paint6_linear_145_2" x1="1088.91" y1="1000.37" x2="1201.23" y2="657.332" gradientUnits="userSpaceOnUse">
<stop stop-color="#DB4B3A"/>
<stop offset="1" stop-color="#FF7B64"/>
</linearGradient>
<linearGradient id="paint7_linear_145_2" x1="959.743" y1="885.765" x2="778.988" y2="696.171" gradientUnits="userSpaceOnUse">
<stop stop-color="#F98314"/>
<stop offset="1" stop-color="#FFB353"/>
</linearGradient>
<linearGradient id="paint8_linear_145_2" x1="499.991" y1="324.961" x2="499.991" y2="-70.0767" gradientUnits="userSpaceOnUse">
<stop stop-color="#242D42"/>
<stop offset="0.36" stop-color="#39455E"/>
<stop offset="1" stop-color="#67789C"/>
</linearGradient>
<linearGradient id="paint9_linear_145_2" x1="499.991" y1="471.931" x2="499.991" y2="80.8092" gradientUnits="userSpaceOnUse">
<stop stop-color="#242D42"/>
<stop offset="0.36" stop-color="#39455E"/>
<stop offset="1" stop-color="#67789C"/>
</linearGradient>
<linearGradient id="paint10_linear_145_2" x1="611.225" y1="233.494" x2="735.108" y2="419.832" gradientUnits="userSpaceOnUse">
<stop stop-color="#182941"/>
<stop offset="1" stop-color="#0094F2"/>
</linearGradient>
<clipPath id="clip0_145_2">
<rect width="1000" height="1000" fill="white"/>
</clipPath>
</defs>
<svg width="200" height="200" viewBox="0 0 32 32" fill="none" xmlns="http://www.w3.org/2000/svg" x="400" y="320">
<g clip-path="url(#clip0_4422_2)">
<ellipse cx="16" cy="16.5" rx="10" ry="9.5" fill="white"/>
<path d="M8.9088 4.8385C9.5232 4.1473 10.0736 3.5585 10.6112 3.0593C1.6128 2.7649 4.224 9.2801 1.28 15.8849C-2.0992 23.5009 1.6768 26.4065 7.3088 27.3153C6.528 26.3809 5.8752 25.3313 5.4016 24.2049C1.7664 19.6097 3.2384 11.2513 8.9088 4.8385Z" fill="#EFE812"/>
<path d="M30.5664 12.9536C29.504 15.7312 27.968 18.3168 26.0224 20.5696C24.4608 22.464 22.592 24.0896 20.5056 25.3568C18.1248 26.8672 15.3472 27.6736 12.5184 27.6736C12.4672 27.6736 12.4032 27.6736 12.352 27.6736C12.2624 27.6736 12.16 27.6736 12.0576 27.6736C10.4704 27.6736 8.8832 27.5584 7.3088 27.3152C8.2304 28.416 9.3824 29.312 10.6752 29.952C18.816 33.8944 19.328 26.5856 27.9424 22.8736C32.7808 20.7872 32.7936 16.7168 30.5536 12.9664L30.5664 12.9536Z" fill="#EDE70A"/>
<path d="M20.4928 5.35046C21.6704 5.55526 22.8096 5.96486 23.8464 6.54086C26.5856 8.07686 28.8896 10.2785 30.5536 12.9537C32.0256 8.81926 31.3344 5.58086 28.1344 4.99206C24.6016 4.35206 21.8496 4.13446 19.2 2.29126C15.936 0.0256591 13.0816 0.768059 10.5984 3.07206L11.136 3.09766C14.5792 3.30246 17.8688 3.98086 20.4672 5.35046L20.48 5.36326L20.4928 5.35046Z" fill="#EDE70A"/>
<path d="M8.9088 4.83842C3.2384 11.2512 1.7664 19.6096 5.4144 24.2048C4.6848 22.4896 4.3136 20.6336 4.3136 18.7648C4.3136 16.3072 4.9664 13.888 6.208 11.7632C9.28 6.64322 15.4368 4.42882 20.5056 5.35042C17.8816 3.96802 14.592 3.30242 11.1744 3.09762L10.6368 3.07202C10.0864 3.58402 9.5232 4.14722 8.9088 4.83842Z" fill="#DEC21C"/>
<path d="M23.8592 6.54088C22.8096 5.96488 21.6704 5.56808 20.5056 5.36328C23.9488 7.18088 26.24 10.2529 26.24 15.1169C26.2016 19.2897 24.0384 23.1553 20.5056 25.3697C22.6048 24.1025 24.4736 22.4769 26.0352 20.5825C27.9808 18.3297 29.5168 15.7569 30.5792 12.9665C28.9152 10.3041 26.6112 8.08968 23.872 6.55368L23.8592 6.54088Z" fill="#E5CB22"/>
<path d="M20.4928 5.35041C15.4368 4.41601 9.2672 6.64321 6.1952 11.7376C4.9536 13.8624 4.3008 16.2944 4.3008 18.752C4.3008 20.6208 4.6848 22.4768 5.4144 24.2048C5.888 25.3312 6.528 26.3808 7.3216 27.3152C8.8832 27.5456 10.4704 27.6736 12.0576 27.6736C12.1472 27.6736 12.2496 27.6736 12.352 27.6736C12.4032 27.6736 12.4672 27.6736 12.5184 27.6736C15.3472 27.6736 18.112 26.8672 20.5056 25.3568C24.0384 23.1424 26.2016 19.2768 26.24 15.104C26.24 10.24 23.9488 7.16801 20.5056 5.35041H20.4928ZM19.9296 23.04C18.5728 23.9104 16.9984 24.3712 15.3856 24.3712C12.5312 24.3712 9.8816 22.9248 8.3328 20.544C5.824 16.6656 7.0656 11.6608 10.8288 8.98561C15.0528 5.99041 20.4672 7.16801 22.4384 11.4816C24.3584 15.68 23.8336 20.544 19.9424 23.04H19.9296Z" fill="#CCA727"/>
</g>
<defs>
<clipPath id="clip0_4422_2">
<rect width="32" height="32" fill="white"/>
</clipPath>
</defs>
<text width="100" x="500" y="630" font-size="50" font-weight="700" font-family="Sans-Serif" fill="#073a3f" text-anchor="middle">PAXG</text><text width="100" x="500" y="695" font-size="50" font-weight="700" font-family="Sans-Serif" fill="#073a3f" text-anchor="middle">Wallet</text></svg>
<text width="100" x="500" y="630" font-size="50" font-weight="700" font-family="Sans-Serif" fill="#073a3f" text-anchor="middle">PAXG</text><text width="100" x="500" y="695" font-size="50" font-weight="700" font-family="Sans-Serif" fill="#073a3f" text-anchor="middle">Wallet</text></svg>
