<svg width="375" height="739" viewBox="0 0 375 739" fill="none" xmlns="http://www.w3.org/2000/svg">
<g clip-path="url(#clip0)">
<path fill-rule="evenodd" clip-rule="evenodd" d="M-138 578.053C-13.938 541.684 106.879 523.5 224.45 523.5C342.021 523.5 461.205 538.351 582 568.053V678.553H-138V578.053Z" fill="url(#paint0_linear)"/>
<path fill-rule="evenodd" clip-rule="evenodd" d="M-138 578.053C-13.938 548.351 106.879 533.5 224.45 533.5C342.021 533.5 461.205 548.351 582 578.053V688.553H-138V578.053Z" fill="url(#paint1_linear)"/>
<path d="M289 601.027C398.5 625.311 496.167 617.653 582 578.053V688.553H-138C37.1667 605.918 179.5 576.743 289 601.027Z" fill="url(#paint2_linear)"/>
<path fill-rule="evenodd" clip-rule="evenodd" d="M184.316 558.303C256.972 589.608 300.608 559.121 427.421 553.474C453.117 552.329 504.643 560.523 582 578.053V728.553C390.109 749.884 257.208 762.569 183.296 766.606C69.1922 772.839 -21.573 772.053 -89.0001 764.245C-221.942 748.853 -257.942 693.556 -197 598.356C-47.8318 550.253 43.9339 536.374 78.2969 556.72C129.841 587.238 111.659 526.999 184.316 558.303Z" fill="url(#paint3_linear)"/>
<path fill-rule="evenodd" clip-rule="evenodd" d="M326.25 688.776C412.602 704.615 505.451 699.431 604.797 673.226L602 740.553H65.917C94.9778 698.631 121.155 686.484 144.448 704.112C179.387 730.553 265.858 677.699 326.25 688.776Z" fill="url(#paint4_linear)"/>
<path d="M308.188 759.539C363.107 761.457 407.991 752.609 408.439 739.776C408.887 726.943 364.73 714.985 309.811 713.068C254.892 711.15 210.009 719.998 209.56 732.831C209.112 745.664 253.27 757.621 308.188 759.539Z" fill="url(#paint5_linear)"/>
<path d="M320.491 762.478C375.41 764.396 420.294 755.548 420.742 742.715C421.19 729.882 377.033 717.924 322.114 716.006C267.195 714.089 222.312 722.937 221.863 735.77C221.415 748.603 265.573 760.56 320.491 762.478Z" fill="url(#paint6_linear)"/>
<path fill-rule="evenodd" clip-rule="evenodd" d="M314.536 750.036C341.995 750.995 364.439 746.514 364.665 740.029C364.892 733.544 342.815 727.509 315.356 726.55C287.896 725.591 347.138 733.544 346.911 740.029C346.685 746.514 287.076 749.077 314.536 750.036Z" fill="url(#paint7_linear)"/>
<path d="M46.127 584.521C60.4078 583.02 71.7038 579.131 71.3574 575.836C71.0111 572.54 59.1535 571.085 44.8727 572.586C30.592 574.087 19.2959 577.976 19.6423 581.271C19.9887 584.567 31.8463 586.022 46.127 584.521Z" fill="url(#paint8_linear)"/>
<path opacity="0.3" d="M376.423 658.431C385.926 659.095 393.802 657.178 394.014 654.148C394.226 651.117 386.694 648.122 377.19 647.458C367.686 646.793 359.81 648.711 359.598 651.741C359.386 654.771 366.919 657.766 376.423 658.431Z" fill="url(#paint9_linear)"/>
<path opacity="0.3" d="M-28.9372 674.875C-3.6713 672.22 16.296 665.169 15.661 659.127C15.0259 653.085 -5.97093 650.34 -31.2369 652.996C-56.5028 655.651 -76.4701 662.702 -75.8351 668.744C-75.2 674.786 -54.2032 677.531 -28.9372 674.875Z" fill="url(#paint10_linear)"/>
<path opacity="0.1" d="M233.063 560.865C240.501 561.385 246.639 560.244 246.774 558.315C246.909 556.387 240.989 554.402 233.551 553.882C226.114 553.362 219.975 554.504 219.84 556.432C219.705 558.36 225.625 560.345 233.063 560.865Z" fill="url(#paint11_linear)"/>
<path opacity="0.3" d="M336.038 627.063C348.986 627.968 359.591 627.139 359.725 625.211C359.86 623.282 349.474 620.985 336.527 620.08C323.58 619.174 312.975 620.004 312.84 621.932C312.705 623.86 323.091 626.157 336.038 627.063Z" fill="url(#paint12_linear)"/>
<path fill-rule="evenodd" clip-rule="evenodd" d="M244.384 481.242L243.943 482.82L248.838 487.918L251.666 489.933L254.422 488.247L254.998 487.241L254.445 486.129L246.972 479.211L244.071 480.979L244.384 481.242Z" fill="#4B1FBD"/>
<mask id="mask0" mask-type="alpha" maskUnits="userSpaceOnUse" x="233" y="468" width="23" height="24">
<path d="M233.205 469.585L234.627 471.52L236.055 472.482L236.127 472.41L243.693 479.977L242.833 480.837C242.537 481.133 242.537 481.612 242.833 481.907C242.975 482.05 243.161 482.123 243.348 482.128C243.415 482.484 243.585 482.824 243.86 483.099L251.328 490.568C252.055 491.294 253.234 491.294 253.96 490.568L255.112 489.416C255.839 488.689 255.839 487.511 255.112 486.784L247.644 479.316C247.377 479.049 247.049 478.881 246.705 478.81C246.71 478.61 246.637 478.409 246.484 478.256C246.188 477.961 245.71 477.961 245.414 478.256L244.587 479.083L237.021 471.517L237.092 471.446L236.124 470.024L234.176 468.615L233.205 469.585ZM251.896 489.144C251.582 489.458 251.074 489.458 250.761 489.144L244.921 483.305C244.608 482.992 244.608 482.483 244.921 482.17C245.235 481.857 245.743 481.857 246.056 482.17L251.896 488.009C252.209 488.323 252.209 488.831 251.896 489.144ZM247.965 480.262L253.804 486.101C254.117 486.415 254.117 486.923 253.804 487.236C253.491 487.55 252.982 487.55 252.669 487.236L246.829 481.397C246.516 481.084 246.516 480.575 246.829 480.262C247.143 479.948 247.651 479.948 247.965 480.262Z" fill="white"/>
</mask>
<g mask="url(#mask0)">
<path d="M233.205 469.585L234.627 471.52L236.055 472.482L236.127 472.41L243.693 479.977L242.833 480.837C242.537 481.133 242.537 481.612 242.833 481.907C242.975 482.05 243.161 482.123 243.348 482.128C243.415 482.484 243.585 482.824 243.86 483.099L251.328 490.568C252.055 491.294 253.234 491.294 253.96 490.568L255.112 489.416C255.839 488.689 255.839 487.511 255.112 486.784L247.644 479.316C247.377 479.049 247.049 478.881 246.705 478.81C246.71 478.61 246.637 478.409 246.484 478.256C246.188 477.961 245.71 477.961 245.414 478.256L244.587 479.083L237.021 471.517L237.092 471.446L236.124 470.024L234.176 468.615L233.205 469.585ZM251.896 489.144C251.582 489.458 251.074 489.458 250.761 489.144L244.921 483.305C244.608 482.992 244.608 482.483 244.921 482.17C245.235 481.857 245.743 481.857 246.056 482.17L251.896 488.009C252.209 488.323 252.209 488.831 251.896 489.144ZM247.965 480.262L253.804 486.101C254.117 486.415 254.117 486.923 253.804 487.236C253.491 487.55 252.982 487.55 252.669 487.236L246.829 481.397C246.516 481.084 246.516 480.575 246.829 480.262C247.143 479.948 247.651 479.948 247.965 480.262Z" fill="#D6D6D6"/>
<path d="M239.736 482.901L249.764 494.852L258.497 487.524L248.469 475.574L239.736 482.901Z" fill="url(#paint13_linear)"/>
</g>
<path opacity="0.2" d="M67.3004 612.987C76.1685 613.296 83.3902 612.612 83.4305 611.459C83.4708 610.305 76.3144 609.119 67.4463 608.81C58.5782 608.5 51.3565 609.184 51.3162 610.337C51.276 611.491 58.4323 612.677 67.3004 612.987Z" fill="url(#paint14_linear)"/>
<path d="M53.0494 602.969C52.9097 603.099 52.9741 603.33 53.1598 603.366L54.7912 603.683C55.5641 603.833 56.0696 604.583 55.9214 605.359L55.7262 606.363C55.576 607.136 54.8266 607.641 54.0506 607.493L52.4193 607.176C52.2336 607.14 52.0872 607.33 52.1683 607.502C52.6816 608.573 53.6748 609.399 54.9327 609.641C56.1624 609.88 57.3729 609.509 58.2472 608.736C58.6314 608.394 59.1511 608.252 59.653 608.35L71.8452 610.72C72.7738 610.9 73.6681 610.293 73.8486 609.364C74.0291 608.436 73.4255 607.534 72.4989 607.357L60.3047 604.984C59.8028 604.886 59.3738 604.561 59.1457 604.1C58.6266 603.059 57.6435 602.261 56.4117 602.019C55.1559 601.78 53.9235 602.17 53.0494 602.969ZM72.0539 608.508C72.3249 608.56 72.5008 608.821 72.4482 609.092C72.3955 609.363 72.1347 609.539 71.8636 609.486L59.4255 607.069C59.1544 607.016 58.9785 606.755 59.0312 606.484C59.0839 606.213 59.3447 606.037 59.6158 606.09L72.0539 608.508Z" fill="url(#paint15_linear)"/>
<path opacity="0.2" d="M95.6451 660.38C102.256 660.842 107.686 660.212 107.773 658.972C107.86 657.732 102.57 656.353 95.9591 655.89C89.3478 655.428 83.918 656.058 83.8313 657.298C83.7446 658.538 89.0339 659.917 95.6451 660.38Z" fill="url(#paint16_linear)"/>
<path opacity="0.8" fill-rule="evenodd" clip-rule="evenodd" d="M100.741 646.615C100.832 646.896 100.792 647.202 100.632 647.449C99.8854 648.601 100.215 650.14 101.367 650.886C101.438 650.932 101.511 650.974 101.587 651.013C102.068 651.259 102.259 651.849 102.013 652.33C101.879 652.593 101.634 652.781 101.346 652.842C100.003 653.129 99.148 654.45 99.4352 655.793C99.4529 655.876 99.4748 655.957 99.5008 656.038C99.6672 656.552 99.385 657.104 98.8706 657.271C98.5904 657.361 98.2843 657.321 98.0371 657.161C96.8848 656.415 95.3458 656.744 94.5997 657.896C94.5537 657.967 94.5114 658.041 94.4729 658.116C94.2268 658.597 93.6369 658.788 93.1555 658.542C92.8933 658.408 92.7053 658.163 92.6437 657.875C92.3565 656.533 91.0355 655.677 89.6931 655.964C89.6104 655.982 89.5286 656.004 89.4482 656.03C88.9337 656.197 88.3817 655.914 88.2153 655.4C88.1247 655.12 88.165 654.814 88.325 654.566C89.0711 653.414 88.7419 651.875 87.5896 651.129C87.5186 651.083 87.4453 651.041 87.37 651.002C86.8885 650.756 86.6977 650.166 86.9439 649.685C87.0779 649.423 87.3228 649.235 87.6108 649.173C88.9532 648.886 89.8086 647.565 89.5214 646.222C89.5037 646.14 89.4818 646.058 89.4558 645.977C89.2894 645.463 89.5715 644.911 90.086 644.745C90.3662 644.654 90.6723 644.694 90.9195 644.854C92.0718 645.6 93.6107 645.271 94.3569 644.119C94.4029 644.048 94.4452 643.975 94.4837 643.899C94.7298 643.418 95.3196 643.227 95.8011 643.473C96.0633 643.607 96.2512 643.852 96.3128 644.14C96.6 645.483 97.9211 646.338 99.2635 646.051C99.3462 646.033 99.4279 646.011 99.5084 645.985C100.023 645.819 100.575 646.101 100.741 646.615ZM95.4787 649.43C94.5489 648.893 93.36 649.212 92.8232 650.142C92.2864 651.072 92.6049 652.261 93.5347 652.797C94.4645 653.334 95.6535 653.016 96.1903 652.086C96.7271 651.156 96.4085 649.967 95.4787 649.43Z" fill="url(#paint17_linear)"/>
<mask id="mask1" mask-type="alpha" maskUnits="userSpaceOnUse" x="84" y="642" width="16" height="16">
<path d="M98.0907 645.951C98.1813 646.231 98.141 646.537 97.9809 646.784C97.2348 647.937 97.564 649.476 98.7163 650.222C98.7873 650.268 98.8606 650.31 98.9359 650.349C99.4174 650.595 99.6082 651.185 99.3621 651.666C99.228 651.928 98.9831 652.116 98.6951 652.178C97.3527 652.465 96.4973 653.786 96.7845 655.128C96.8022 655.211 96.8241 655.293 96.8502 655.373C97.0166 655.888 96.7344 656.44 96.2199 656.606C95.9397 656.697 95.6336 656.657 95.3865 656.497C94.2342 655.75 92.6952 656.08 91.9491 657.232C91.9031 657.303 91.8608 657.376 91.8223 657.452C91.5761 657.933 90.9863 658.124 90.5048 657.878C90.2426 657.744 90.0547 657.499 89.9931 657.211C89.7059 655.868 88.3848 655.013 87.0425 655.3C86.9598 655.318 86.878 655.34 86.7975 655.366C86.283 655.532 85.7311 655.25 85.5646 654.736C85.474 654.455 85.5143 654.149 85.6744 653.902C86.4205 652.75 86.0913 651.211 84.939 650.465C84.868 650.419 84.7947 650.376 84.7194 650.338C84.2379 650.092 84.0471 649.502 84.2932 649.02C84.4273 648.758 84.6722 648.57 84.9602 648.509C86.3026 648.222 87.158 646.9 86.8708 645.558C86.8531 645.475 86.8312 645.394 86.8051 645.313C86.6387 644.799 86.9209 644.247 87.4354 644.08C87.7156 643.99 88.0217 644.03 88.2688 644.19C89.4211 644.936 90.9601 644.607 91.7062 643.455C91.7522 643.384 91.7945 643.31 91.833 643.235C92.0792 642.754 92.669 642.563 93.1505 642.809C93.4127 642.943 93.6006 643.188 93.6622 643.476C93.9494 644.818 95.2705 645.674 96.6128 645.386C96.6956 645.369 96.7773 645.347 96.8578 645.321C97.3723 645.154 97.9242 645.437 98.0907 645.951ZM92.8281 648.766C91.8983 648.229 90.7094 648.548 90.1726 649.477C89.6357 650.407 89.9543 651.596 90.8841 652.133C91.8139 652.67 93.0028 652.351 93.5397 651.421C94.0765 650.492 93.7579 649.303 92.8281 648.766Z" fill="white"/>
</mask>
<g mask="url(#mask1)">
<path d="M98.0907 645.951C98.1813 646.231 98.141 646.537 97.9809 646.784C97.2348 647.937 97.564 649.476 98.7163 650.222C98.7873 650.268 98.8606 650.31 98.9359 650.349C99.4174 650.595 99.6082 651.185 99.3621 651.666C99.228 651.928 98.9831 652.116 98.6951 652.178C97.3527 652.465 96.4973 653.786 96.7845 655.128C96.8022 655.211 96.8241 655.293 96.8502 655.373C97.0166 655.888 96.7344 656.44 96.2199 656.606C95.9397 656.697 95.6336 656.657 95.3865 656.497C94.2342 655.75 92.6952 656.08 91.9491 657.232C91.9031 657.303 91.8608 657.376 91.8223 657.452C91.5761 657.933 90.9863 658.124 90.5048 657.878C90.2426 657.744 90.0547 657.499 89.9931 657.211C89.7059 655.868 88.3848 655.013 87.0425 655.3C86.9598 655.318 86.878 655.34 86.7975 655.366C86.283 655.532 85.7311 655.25 85.5646 654.736C85.474 654.455 85.5143 654.149 85.6744 653.902C86.4205 652.75 86.0913 651.211 84.939 650.465C84.868 650.419 84.7947 650.376 84.7194 650.338C84.2379 650.092 84.0471 649.502 84.2932 649.02C84.4273 648.758 84.6722 648.57 84.9602 648.509C86.3026 648.222 87.158 646.9 86.8708 645.558C86.8531 645.475 86.8312 645.394 86.8051 645.313C86.6387 644.799 86.9209 644.247 87.4354 644.08C87.7156 643.99 88.0217 644.03 88.2688 644.19C89.4211 644.936 90.9601 644.607 91.7062 643.455C91.7522 643.384 91.7945 643.31 91.833 643.235C92.0792 642.754 92.669 642.563 93.1505 642.809C93.4127 642.943 93.6006 643.188 93.6622 643.476C93.9494 644.818 95.2705 645.674 96.6128 645.386C96.6956 645.369 96.7773 645.347 96.8578 645.321C97.3723 645.154 97.9242 645.437 98.0907 645.951ZM92.8281 648.766C91.8983 648.229 90.7094 648.548 90.1726 649.477C89.6357 650.407 89.9543 651.596 90.8841 652.133C91.8139 652.67 93.0028 652.351 93.5397 651.421C94.0765 650.492 93.7579 649.303 92.8281 648.766Z" fill="url(#paint18_linear)"/>
<path opacity="0.2" fill-rule="evenodd" clip-rule="evenodd" d="M98.8815 645.25L84.1779 656.213L82.009 649.601L84.1779 641.249L93 640.801L97.8105 640.801L98.8815 645.25Z" fill="#993D6A"/>
</g>
<path d="M343.071 582.176C342.971 581.992 342.707 582 342.619 582.188L341.846 583.845C341.48 584.63 340.546 584.97 339.757 584.605L338.738 584.13C337.952 583.764 337.612 582.83 337.977 582.041L338.75 580.384C338.838 580.195 338.673 579.988 338.468 580.029C337.188 580.292 336.042 581.132 335.449 582.411C334.867 583.659 334.942 585.05 335.534 586.189C335.797 586.69 335.809 587.282 335.571 587.792L329.797 600.175C329.358 601.118 329.768 602.234 330.711 602.674C331.654 603.113 332.777 602.709 333.213 601.767L338.991 589.384C339.228 588.874 339.69 588.503 340.243 588.382C341.492 588.105 342.605 587.268 343.192 586.018C343.781 584.741 343.692 583.321 343.071 582.176ZM332.103 600.986C331.975 601.261 331.65 601.38 331.374 601.251C331.099 601.123 330.981 600.798 331.109 600.523L337 587.89C337.128 587.615 337.453 587.497 337.728 587.625C338.004 587.753 338.122 588.079 337.994 588.354L332.103 600.986Z" fill="#627489"/>
<path d="M342.434 581.73C342.334 581.546 342.07 581.553 341.982 581.742L341.209 583.399C340.843 584.184 339.909 584.524 339.12 584.159L338.1 583.684C337.315 583.318 336.975 582.383 337.34 581.595L338.112 579.938C338.2 579.749 338.036 579.542 337.831 579.583C336.551 579.846 335.405 580.686 334.812 581.964C334.23 583.213 334.304 584.604 334.897 585.743C335.159 586.244 335.172 586.836 334.934 587.346L329.16 599.729C328.72 600.672 329.131 601.788 330.074 602.227C331.017 602.667 332.14 602.263 332.576 601.321L338.353 588.937C338.591 588.428 339.053 588.056 339.606 587.936C340.855 587.659 341.968 586.822 342.554 585.571C343.144 584.295 343.054 582.875 342.434 581.73ZM331.466 600.54C331.338 600.815 331.012 600.934 330.737 600.805C330.462 600.677 330.344 600.352 330.472 600.076L336.362 587.444C336.491 587.169 336.816 587.051 337.091 587.179C337.366 587.307 337.485 587.633 337.356 587.908L331.466 600.54Z" fill="url(#paint19_linear)"/>
<path d="M327.357 578.282L324.79 579.267L331.196 595.955L333.763 594.97L327.357 578.282Z" fill="url(#paint20_linear)"/>
<path d="M329.481 601.742C332.847 601.149 335.094 597.94 334.5 594.575C333.907 591.209 330.698 588.962 327.333 589.555C323.967 590.149 321.72 593.358 322.313 596.723C322.907 600.089 326.116 602.336 329.481 601.742Z" fill="url(#paint21_linear)"/>
<path d="M327.889 600.627C330.506 600.166 332.254 597.67 331.792 595.052C331.331 592.435 328.835 590.687 326.217 591.148C323.6 591.61 321.852 594.106 322.313 596.723C322.775 599.341 325.271 601.089 327.889 600.627Z" fill="#F6C79D"/>
<path d="M317.884 602.209C321.575 601.558 324.039 598.039 323.388 594.349C322.737 590.658 319.218 588.194 315.528 588.845C311.837 589.495 309.373 593.015 310.024 596.705C310.674 600.396 314.194 602.86 317.884 602.209Z" fill="url(#paint22_linear)"/>
<path d="M313.791 592.483L317.102 593.462L317.574 593.032L321.386 584.908L320.612 583.046L318.444 582.757L317.364 583.238L313.44 591.526L313.791 592.483Z" fill="#E0488C"/>
<path d="M308.255 606.298L308.873 604.185L309.802 602.909L309.886 602.949L314.031 594.059L313.02 593.587C312.673 593.425 312.523 593.013 312.685 592.665C312.763 592.498 312.9 592.376 313.059 592.314C313.005 591.986 313.045 591.64 313.196 591.316L317.288 582.542C317.686 581.688 318.701 581.319 319.555 581.717L320.908 582.348C321.762 582.746 322.131 583.761 321.733 584.615L317.641 593.389C317.495 593.703 317.265 593.95 316.991 594.119C317.058 594.29 317.058 594.487 316.974 594.666C316.813 595.013 316.4 595.163 316.053 595.001L315.081 594.548L310.936 603.438L311.02 603.477L310.632 605.005L309.395 606.829L308.255 606.298ZM318.222 583.59C317.854 583.418 317.417 583.578 317.245 583.946L314.045 590.807C313.874 591.175 314.033 591.613 314.401 591.784C314.77 591.956 315.207 591.797 315.379 591.428L318.578 584.568C318.75 584.199 318.591 583.761 318.222 583.59ZM317.621 592.474L320.82 585.613C320.992 585.245 320.833 584.807 320.465 584.635C320.096 584.463 319.659 584.623 319.487 584.991L316.287 591.852C316.115 592.22 316.275 592.658 316.643 592.83C317.012 593.001 317.449 592.842 317.621 592.474Z" fill="#FE68AC"/>
<path fill-rule="evenodd" clip-rule="evenodd" d="M307.824 597.184L340.1 591.493C340.699 591.387 341.269 591.787 341.375 592.385L342.807 600.51C343.229 602.903 341.631 605.185 339.238 605.607L313.462 610.152C311.068 610.574 308.786 608.976 308.364 606.583L306.932 598.458C306.826 597.86 307.226 597.29 307.824 597.184Z" fill="url(#paint23_linear)"/>
<path fill-rule="evenodd" clip-rule="evenodd" d="M306.764 597.63L330.916 593.371C331.514 593.266 332.085 593.665 332.19 594.264L333.623 602.388C334.045 604.781 332.447 607.064 330.054 607.485L312.402 610.598C310.009 611.02 307.726 609.422 307.305 607.029L305.872 598.904C305.766 598.306 306.166 597.735 306.764 597.63Z" fill="url(#paint24_linear)"/>
<path d="M307.505 601.708L337.616 596.399" stroke="#A189FF" stroke-width="1.65"/>
<path d="M335.75 553.553C338.097 553.553 340 551.651 340 549.303C340 546.956 338.097 545.053 335.75 545.053C333.403 545.053 331.5 546.956 331.5 549.303C331.5 551.651 333.403 553.553 335.75 553.553Z" stroke="#A3456B" stroke-width="2.5"/>
<path d="M173.25 699.053C175.045 699.053 176.5 697.598 176.5 695.803C176.5 694.008 175.045 692.553 173.25 692.553C171.455 692.553 170 694.008 170 695.803C170 697.598 171.455 699.053 173.25 699.053Z" stroke="#762369" stroke-width="1.5"/>
<path opacity="0.2" d="M49.5 639.053C50.8807 639.053 52 637.934 52 636.553C52 635.173 50.8807 634.053 49.5 634.053C48.1193 634.053 47 635.173 47 636.553C47 637.934 48.1193 639.053 49.5 639.053Z" stroke="#EADCE1" stroke-width="1.5"/>
<path d="M209.054 522.702L194.935 541.891" stroke="#1E0E29" stroke-width="4.86" stroke-linecap="round"/>
<path opacity="0.2" d="M194.567 538.661L197.708 541.714" stroke="#F2F2F1" stroke-width="0.54"/>
<path opacity="0.2" d="M196.187 535.961L199.328 539.014" stroke="#F2F2F1" stroke-width="0.54"/>
<path opacity="0.2" d="M198.347 533.261L201.488 536.314" stroke="#F2F2F1" stroke-width="0.54"/>
<path opacity="0.2" d="M200.507 530.561L203.648 533.614" stroke="#F2F2F1" stroke-width="0.54"/>
<path opacity="0.2" d="M202.667 527.321L205.808 530.374" stroke="#F2F2F1" stroke-width="0.54"/>
<path opacity="0.2" d="M204.827 524.621L207.968 527.674" stroke="#F2F2F1" stroke-width="0.54"/>
<path opacity="0.5" d="M174.553 557.845L170.18 545.878" stroke="#00353D" stroke-width="1.4256" stroke-linecap="round"/>
<path d="M157.405 572.313L141.419 540.641C141.234 540.275 141.172 539.859 141.244 539.455L146.449 509.931" stroke="#1E0E29" stroke-width="3.24" stroke-linecap="round"/>
<path d="M142.372 505.003C141.985 507.2 143.452 509.295 145.649 509.682C147.846 510.07 149.941 508.603 150.328 506.406C150.715 504.209 149.248 502.114 147.052 501.727" stroke="#1E0E29" stroke-width="2.376"/>
<mask id="mask2" mask-type="alpha" maskUnits="userSpaceOnUse" x="123" y="590" width="82" height="22">
<path d="M193.876 590.011H134.381C128.503 590.011 123.737 594.776 123.737 600.655C123.737 606.534 128.503 611.3 134.381 611.3H193.876C199.755 611.3 204.521 606.534 204.521 600.655C204.521 594.776 199.755 590.011 193.876 590.011Z" fill="white"/>
</mask>
<g mask="url(#mask2)">
<path d="M193.876 590.011H134.381C128.503 590.011 123.737 594.776 123.737 600.655C123.737 606.534 128.503 611.3 134.381 611.3H193.876C199.755 611.3 204.521 606.534 204.521 600.655C204.521 594.776 199.755 590.011 193.876 590.011Z" fill="url(#paint25_linear)"/>
<path opacity="0.1" d="M147.022 591.911H126.113V592.911H147.022V591.911Z" fill="#D8D8D8"/>
<path opacity="0.1" d="M146.546 595.713H124.212V596.713H146.546V595.713Z" fill="#D8D8D8"/>
<path opacity="0.1" d="M145.596 599.515H123.262V600.515H145.596V599.515Z" fill="#D8D8D8"/>
<path opacity="0.1" d="M145.596 603.316H123.262V604.316H145.596V603.316Z" fill="#D8D8D8"/>
<path opacity="0.1" d="M146.546 607.118H124.212V608.118H146.546V607.118Z" fill="#D8D8D8"/>
<path opacity="0.1" d="M153.199 610.919H124.212V611.919H153.199V610.919Z" fill="#D8D8D8"/>
</g>
<path d="M152.914 590.011H199.579C205.457 590.011 210.223 594.776 210.223 600.655C210.223 606.534 205.457 611.3 199.579 611.3H152.914C147.035 611.3 142.27 606.534 142.27 600.655C142.27 594.776 147.035 590.011 152.914 590.011Z" fill="url(#paint26_linear)"/>
<path d="M152.971 591.816H199.522C204.225 591.816 208.037 595.629 208.037 600.332V600.978C208.037 605.681 204.225 609.494 199.522 609.494H152.971C148.268 609.494 144.456 605.681 144.456 600.978V600.332C144.456 595.629 148.268 591.816 152.971 591.816Z" fill="url(#paint27_linear)"/>
<path opacity="0.1" d="M191.263 598.469H169.879C168.54 598.469 167.455 599.554 167.455 600.893C167.455 602.231 168.54 603.316 169.879 603.316H191.263C192.601 603.316 193.686 602.231 193.686 600.893C193.686 599.554 192.601 598.469 191.263 598.469Z" fill="url(#paint28_linear)"/>
<path d="M198.963 607.014C202.427 607.014 205.236 604.205 205.236 600.741C205.236 597.277 202.427 594.469 198.963 594.469C195.499 594.469 192.69 597.277 192.69 600.741C192.69 604.205 195.499 607.014 198.963 607.014Z" fill="url(#paint29_linear)"/>
<path d="M199.153 602.167C199.836 602.167 200.389 601.614 200.389 600.931C200.389 600.249 199.836 599.696 199.153 599.696C198.471 599.696 197.918 600.249 197.918 600.931C197.918 601.614 198.471 602.167 199.153 602.167Z" fill="#03464B"/>
<g opacity="0.2">
<path opacity="0.2" d="M153.344 607.014C156.808 607.014 159.616 604.205 159.616 600.741C159.616 597.277 156.808 594.469 153.344 594.469C149.879 594.469 147.071 597.277 147.071 600.741C147.071 604.205 149.879 607.014 153.344 607.014Z" fill="url(#paint30_linear)"/>
<g opacity="0.2">
<path opacity="0.2" d="M153.534 602.167C154.216 602.167 154.769 601.614 154.769 600.931C154.769 600.249 154.216 599.696 153.534 599.696C152.852 599.696 152.298 600.249 152.298 600.931C152.298 601.614 152.852 602.167 153.534 602.167Z" fill="#03464B"/>
</g>
</g>
<path d="M183.978 539.964L248.56 551.352C253.212 552.172 256.318 556.608 255.498 561.26L247.618 605.953C246.797 610.605 242.361 613.711 237.709 612.891L179.679 602.659C175.027 601.838 171.92 597.402 172.741 592.75L181.776 541.506C181.959 540.472 182.945 539.782 183.978 539.964Z" fill="url(#paint31_linear)"/>
<path d="M180.636 558.917L245.218 570.305C249.87 571.125 252.976 575.561 252.156 580.214L247.618 605.953C246.797 610.605 242.361 613.711 237.709 612.891L179.679 602.659C175.027 601.838 171.92 597.402 172.741 592.75L178.434 560.459C178.617 559.425 179.602 558.735 180.636 558.917Z" fill="url(#paint32_linear)"/>
<path d="M254.284 590.722L246.328 589.319C245.811 589.228 245.318 589.573 245.227 590.09L243.742 598.514C243.651 599.031 243.996 599.524 244.513 599.615L252.469 601.018C252.985 601.109 253.478 600.764 253.57 600.247L255.055 591.823C255.146 591.306 254.801 590.813 254.284 590.722Z" fill="url(#paint33_linear)"/>
<path d="M254.284 590.722L248.668 589.732C248.151 589.641 247.659 589.986 247.567 590.503L246.082 598.926C245.991 599.443 246.336 599.936 246.853 600.027L252.469 601.018C252.986 601.109 253.479 600.764 253.57 600.247L255.055 591.823C255.146 591.306 254.801 590.813 254.284 590.722Z" fill="url(#paint34_linear)"/>
<path opacity="0.3" fill-rule="evenodd" clip-rule="evenodd" d="M266.692 512.327L267.567 512.482L253.787 590.634L252.911 590.48L266.692 512.327Z" fill="#1E0E29"/>
<path opacity="0.3" d="M266.761 514.149C267.891 514.348 268.97 513.593 269.169 512.462C269.369 511.332 268.613 510.253 267.483 510.054C266.352 509.855 265.274 510.61 265.074 511.74C264.875 512.871 265.63 513.949 266.761 514.149Z" fill="#E7DBDC"/>
<path d="M165.259 536.663L227.501 547.638C228.534 547.821 229.225 548.806 229.042 549.84L220.007 601.084C219.186 605.736 214.75 608.843 210.098 608.022L160.96 599.358C156.308 598.538 153.201 594.101 154.021 589.449L163.057 538.205C163.239 537.171 164.225 536.481 165.259 536.663Z" fill="url(#paint35_linear)"/>
<path opacity="0.4" d="M163.815 544.853L175.983 546.999L166.576 600.348L160.96 599.358C156.308 598.538 153.201 594.101 154.021 589.449L161.613 546.395C161.795 545.361 162.781 544.671 163.815 544.853Z" fill="url(#paint36_linear)"/>
<path opacity="0.3" d="M167.083 540.001L224.177 550.068C224.694 550.159 225.039 550.652 224.948 551.169L217.335 594.34C217.244 594.857 216.751 595.202 216.234 595.111L159.141 585.044C158.624 584.953 158.279 584.46 158.37 583.943L165.982 540.772C166.073 540.255 166.566 539.91 167.083 540.001Z" fill="url(#paint37_linear)"/>
<path d="M207.258 579.656C208.163 579.815 209.026 579.211 209.185 578.307C209.345 577.402 208.741 576.539 207.836 576.38C206.931 576.22 206.069 576.824 205.909 577.729C205.75 578.633 206.354 579.496 207.258 579.656Z" fill="#EF7F2D"/>
<path d="M213.342 580.728C214.247 580.888 215.109 580.284 215.269 579.379C215.428 578.475 214.824 577.612 213.92 577.452C213.015 577.293 212.152 577.897 211.993 578.802C211.833 579.706 212.437 580.569 213.342 580.728Z" fill="#D46CEE"/>
<path opacity="0.2" d="M170.786 540.895L220.392 549.642C221.684 549.87 222.547 551.102 222.319 552.394L218.915 571.699C218.687 572.991 217.455 573.854 216.163 573.626L166.557 564.879C165.264 564.651 164.401 563.419 164.629 562.126L168.033 542.822C168.261 541.53 169.493 540.667 170.786 540.895Z" fill="url(#paint38_linear)"/>
<path opacity="0.2" d="M219.683 552.291L218.513 552.085L215.213 570.804L216.383 571.011L219.683 552.291Z" fill="#E8E6E4"/>
<mask id="mask3" mask-type="alpha" maskUnits="userSpaceOnUse" x="190" y="597" width="81" height="32">
<path d="M257.581 597.178L198.99 607.51C193.2 608.531 189.335 614.051 190.355 619.841C191.376 625.63 196.897 629.496 202.687 628.475L261.278 618.144C267.067 617.123 270.933 611.602 269.912 605.813C268.891 600.023 263.37 596.158 257.581 597.178Z" fill="white"/>
</mask>
<g mask="url(#mask3)">
<path d="M257.581 597.178L198.99 607.51C193.2 608.531 189.335 614.051 190.355 619.841C191.376 625.63 196.897 629.496 202.687 628.475L261.278 618.144C267.067 617.123 270.933 611.602 269.912 605.813C268.891 600.023 263.37 596.158 257.581 597.178Z" fill="url(#paint39_linear)"/>
<path opacity="0.1" d="M211.768 607.187L191.177 610.817L191.351 611.802L211.942 608.171L211.768 607.187Z" fill="#D8D8D8"/>
<path opacity="0.1" d="M211.96 611.013L189.965 614.891L190.139 615.876L212.134 611.998L211.96 611.013Z" fill="#D8D8D8"/>
<path opacity="0.1" d="M211.685 614.922L189.689 618.8L189.863 619.785L211.858 615.907L211.685 614.922Z" fill="#D8D8D8"/>
<path opacity="0.1" d="M212.345 618.666L190.35 622.544L190.523 623.529L212.518 619.651L212.345 618.666Z" fill="#D8D8D8"/>
<path opacity="0.1" d="M213.941 622.245L191.946 626.123L192.119 627.108L214.115 623.229L213.941 622.245Z" fill="#D8D8D8"/>
<path opacity="0.1" d="M221.153 624.833L192.606 629.867L192.78 630.852L221.326 625.818L221.153 624.833Z" fill="#D8D8D8"/>
</g>
<path d="M217.241 604.291L263.197 596.188C268.986 595.167 274.507 599.033 275.528 604.823C276.549 610.612 272.683 616.133 266.894 617.154L220.938 625.257C215.148 626.278 209.628 622.412 208.607 616.623C207.586 610.833 211.452 605.312 217.241 604.291Z" fill="url(#paint40_linear)"/>
<path d="M217.611 606.06L263.454 597.977C268.086 597.16 272.502 600.252 273.319 604.884L273.431 605.52C274.248 610.152 271.155 614.569 266.524 615.385L220.68 623.469C216.049 624.286 211.632 621.193 210.816 616.561L210.703 615.925C209.887 611.293 212.979 606.877 217.611 606.06Z" fill="url(#paint41_linear)"/>
<path d="M250.392 607.035L233.545 610.006C232.227 610.238 231.347 611.495 231.579 612.813C231.811 614.131 233.068 615.012 234.387 614.779L251.234 611.809C252.552 611.576 253.432 610.319 253.2 609.001C252.967 607.683 251.71 606.803 250.392 607.035Z" fill="url(#paint42_linear)"/>
<path d="M265.543 613.04C268.955 612.439 271.233 609.185 270.631 605.774C270.03 602.362 266.776 600.084 263.365 600.685C259.953 601.287 257.675 604.54 258.276 607.952C258.878 611.364 262.131 613.642 265.543 613.04Z" fill="url(#paint43_linear)"/>
<g opacity="0.2">
<path opacity="0.2" d="M264.889 608.234C265.561 608.115 266.009 607.474 265.891 606.802C265.772 606.13 265.131 605.682 264.459 605.8C263.787 605.919 263.339 606.559 263.457 607.231C263.576 607.903 264.217 608.352 264.889 608.234Z" fill="white"/>
</g>
<path d="M220.617 620.962C224.028 620.36 226.306 617.107 225.705 613.695C225.103 610.284 221.85 608.006 218.438 608.607C215.027 609.209 212.749 612.462 213.35 615.874C213.952 619.285 217.205 621.563 220.617 620.962Z" fill="url(#paint44_linear)"/>
<g opacity="0.2">
<path opacity="0.2" d="M219.962 616.155C220.634 616.037 221.083 615.396 220.964 614.724C220.846 614.052 220.205 613.603 219.533 613.722C218.861 613.84 218.412 614.481 218.531 615.153C218.649 615.825 219.29 616.274 219.962 616.155Z" fill="white"/>
</g>
<path opacity="0.1" d="M241.37 572.006L251.842 581.637" stroke="#440962" stroke-width="3.24" stroke-linecap="round"/>
<path d="M241.37 572.006L287.174 533.546" stroke="#1E0E29" stroke-width="3.24" stroke-linecap="round"/>
<path d="M259.406 556.929C260.747 558.528 263.132 558.736 264.731 557.395C266.33 556.053 266.539 553.668 265.197 552.069C263.855 550.47 261.471 550.261 259.871 551.603C258.272 552.945 258.064 555.329 259.406 556.929Z" fill="#422954"/>
<path d="M258.326 555.849C259.668 557.448 262.052 557.656 263.651 556.315C265.25 554.973 265.459 552.588 264.117 550.989C262.775 549.39 260.391 549.181 258.792 550.523C257.192 551.865 256.984 554.249 258.326 555.849Z" fill="#765090"/>
<path d="M290.196 526.66C287.965 526.66 286.157 528.469 286.157 530.699C286.157 532.93 287.965 534.739 290.196 534.739C292.427 534.739 294.235 532.93 294.235 530.699" stroke="#1E0E29" stroke-width="2.376"/>
<path d="M196.994 507.133L207.098 508.915C209.448 509.329 211.017 511.57 210.602 513.919L209.665 519.237C208.94 523.349 205.019 526.095 200.907 525.37L193.993 524.151C191.644 523.736 190.075 521.496 190.489 519.146L191.99 510.637C192.404 508.288 194.644 506.719 196.994 507.133Z" fill="url(#paint45_linear)"/>
<path d="M189.549 505.82L199.653 507.602C202.003 508.016 203.572 510.257 203.157 512.607L202.22 517.924C201.495 522.036 197.574 524.782 193.462 524.057L186.548 522.838C184.199 522.424 182.63 520.183 183.044 517.833L184.545 509.325C184.959 506.975 187.199 505.406 189.549 505.82Z" fill="url(#paint46_linear)"/>
<path d="M189.846 506.969L198.981 508.58C201.011 508.938 202.366 510.874 202.008 512.904L201.344 516.673C200.619 520.785 196.697 523.531 192.586 522.806L187.221 521.86C185.191 521.502 183.835 519.566 184.193 517.536L185.523 509.997C185.88 507.967 187.816 506.612 189.846 506.969Z" fill="url(#paint47_linear)"/>
<path d="M187.866 519.1C189.158 519.328 190.39 518.465 190.618 517.173C190.846 515.881 189.983 514.648 188.691 514.42C187.398 514.192 186.166 515.055 185.938 516.348C185.71 517.64 186.573 518.872 187.866 519.1Z" fill="#00D6B1"/>
<path d="M232.649 513.674L222.545 511.893C220.195 511.478 217.955 513.047 217.541 515.397L216.603 520.715C215.878 524.827 218.623 528.748 222.735 529.473L229.649 530.692C231.998 531.106 234.239 529.537 234.653 527.188L236.153 518.679C236.568 516.329 234.999 514.089 232.649 513.674Z" fill="url(#paint48_linear)"/>
<path d="M223.584 511.822L213.48 510.04C211.13 509.626 208.89 511.195 208.475 513.544L207.538 518.862C206.813 522.974 209.558 526.895 213.67 527.62L220.583 528.839C222.933 529.253 225.174 527.685 225.588 525.335L227.088 516.826C227.503 514.477 225.934 512.236 223.584 511.822Z" fill="url(#paint49_linear)"/>
<path d="M222.911 512.8L213.777 511.189C211.747 510.831 209.811 512.187 209.453 514.217L208.789 517.986C208.064 522.098 210.809 526.019 214.921 526.744L220.286 527.69C222.316 528.048 224.252 526.692 224.61 524.662L225.939 517.124C226.297 515.094 224.941 513.158 222.911 512.8Z" fill="url(#paint50_linear)"/>
<path d="M212.209 522.844C210.917 522.616 210.054 521.384 210.282 520.092C210.51 518.799 211.742 517.937 213.034 518.164C214.327 518.392 215.19 519.625 214.962 520.917C214.734 522.209 213.501 523.072 212.209 522.844Z" fill="#00D6B1"/>
<path fill-rule="evenodd" clip-rule="evenodd" d="M186.546 476.785L179.772 481.353L175.046 476.467L176.432 482.039L168.804 482.921L174.846 486.409L172.373 494.168L178.694 490.384L184.397 493.676L181.836 487.944L190.123 488.116L183.833 484.485L186.546 476.785Z" fill="#FFB179"/>
<path opacity="0.7" d="M140.412 482.915L62.0254 496.737C61.3793 496.851 60.9478 497.467 61.0618 498.113L73.2331 567.14C73.347 567.786 73.9632 568.218 74.6094 568.104L152.996 554.282C153.642 554.168 154.074 553.552 153.96 552.906L141.788 483.879C141.674 483.233 141.058 482.801 140.412 482.915Z" fill="#FAF1ED"/>
<path opacity="0.7" d="M139.242 483.122L60.8555 496.943C60.2094 497.057 59.7779 497.673 59.8918 498.319L72.0632 567.347C72.1771 567.993 72.7933 568.424 73.4394 568.31L151.826 554.489C152.472 554.375 152.904 553.758 152.79 553.112L140.619 484.085C140.505 483.439 139.888 483.008 139.242 483.122Z" fill="#FAF1ED"/>
<path opacity="0.5" d="M105.065 545.845L114.424 544.195C116.363 543.853 118.211 545.147 118.553 547.086L120.822 559.955L104.443 562.843L102.174 549.974C101.832 548.036 103.126 546.187 105.065 545.845Z" fill="url(#paint51_linear)"/>
<path d="M110.211 547.833C115.401 546.918 127.45 534.634 124.469 519.65C122.098 507.731 113.623 500.908 102.289 502.907C90.9544 504.906 85.3247 514.215 87.1731 526.227C89.4969 541.326 105.02 548.748 110.211 547.833Z" fill="url(#paint52_linear)"/>
<path d="M124.373 519.19C126.302 533.486 114.881 544.989 109.865 545.873C104.849 546.758 90.1823 539.855 87.1058 525.761C87.1272 525.916 87.1492 526.071 87.1731 526.227C89.4968 541.326 105.02 548.748 110.211 547.833C115.401 546.918 127.45 534.634 124.469 519.65C124.438 519.496 124.406 519.343 124.373 519.19Z" fill="url(#paint53_linear)"/>
<path d="M96.5328 517.503C93.1185 516.996 89.6765 521.398 91.4873 525.661C93.5452 530.506 101.318 530.807 102.731 528.665C104.498 525.987 100.998 518.167 96.5328 517.503Z" fill="url(#paint54_linear)"/>
<path d="M113.275 514.551C116.31 512.907 121.05 515.866 120.806 520.492C120.53 525.748 113.329 528.689 111.268 527.16C108.692 525.248 109.306 516.702 113.275 514.551Z" fill="url(#paint55_linear)"/>
<path d="M105.387 534.26C107.653 534.478 109.658 533.58 111.403 531.565" stroke="#001E25" stroke-width="0.891"/>
<path d="M104.242 546.792L97.2364 554.812C96.3731 555.8 94.8722 555.902 93.8838 555.038C93.8512 555.01 93.8193 554.981 93.7883 554.95L85.4194 546.792" stroke="#67D3D5" stroke-width="1.188"/>
<path d="M81.8555 545.307C81.8555 546.455 82.7863 547.386 83.9345 547.386C85.0827 547.386 86.0135 546.455 86.0135 545.307C86.0135 544.159 85.0827 543.228 83.9345 543.228" stroke="#67D3D5" stroke-width="1.188"/>
<path d="M115.777 543.956L124.069 550.638C125.091 551.462 126.587 551.301 127.41 550.279C127.437 550.245 127.463 550.211 127.489 550.176L134.314 540.688" stroke="#67D3D5" stroke-width="1.188"/>
<path d="M137.566 538.607C137.765 539.737 137.01 540.816 135.879 541.015C134.748 541.214 133.67 540.459 133.471 539.329C133.271 538.198 134.026 537.12 135.157 536.92" stroke="#67D3D5" stroke-width="1.188"/>
<path opacity="0.2" fill-rule="evenodd" clip-rule="evenodd" d="M141.076 486.677L152.79 553.112C152.904 553.758 152.472 554.375 151.826 554.489L106.084 562.554C105.438 562.668 104.822 562.237 104.708 561.59C104.666 561.354 104.697 561.109 104.797 560.891L138.825 486.39C139.098 485.793 139.802 485.531 140.399 485.803C140.755 485.966 141.008 486.293 141.076 486.677Z" fill="white"/>
<path opacity="0.5" d="M65.7395 499.002L77.102 563.442" stroke="white" stroke-width="1.782"/>
<path d="M150.328 506.406C150.715 504.209 149.248 502.114 147.051 501.727C144.855 501.339 142.76 502.806 142.372 505.003" stroke="#1E0E29" stroke-width="2.376"/>
<path d="M205.65 501.025C204.071 496.987 201.423 496.029 197.708 498.154" stroke="#CBC2BE" stroke-width="1.08"/>
<path d="M223.271 504.107C221.014 500.404 218.241 499.921 214.95 502.659" stroke="#CBC2BE" stroke-width="1.08"/>
<g opacity="0.5">
<path opacity="0.5" d="M139.341 475.007C144.67 476.615 147.265 479.624 147.124 484.035" stroke="#D0C6C3" stroke-width="1.4" stroke-linecap="round"/>
<path opacity="0.5" d="M131.139 478.388C138.351 479.555 142.317 483.522 143.039 490.288" stroke="#D0C6C3" stroke-width="1.4" stroke-linecap="round"/>
</g>
<path opacity="0.4" fill-rule="evenodd" clip-rule="evenodd" d="M226.5 669C280.348 669 324 665.241 324 660.603C324 655.966 280.348 653 226.5 653C172.652 653 129 655.966 129 660.603C129 665.241 172.652 669 226.5 669Z" fill="url(#paint56_linear)"/>
<path opacity="0.34" d="M273.12 33.9706C273.672 33.9706 274.12 33.5229 274.12 32.9706C274.12 32.4184 273.672 31.9706 273.12 31.9706C272.568 31.9706 272.12 32.4184 272.12 32.9706C272.12 33.5229 272.568 33.9706 273.12 33.9706Z" fill="white"/>
<path opacity="0.2" d="M234.539 144.985C235.892 144.985 236.989 143.888 236.989 142.535C236.989 141.182 235.892 140.085 234.539 140.085C233.186 140.085 232.089 141.182 232.089 142.535C232.089 143.888 233.186 144.985 234.539 144.985Z" fill="white"/>
<path opacity="0.2" d="M212.539 391.985C214.444 391.985 215.989 390.44 215.989 388.535C215.989 386.629 214.444 385.085 212.539 385.085C210.633 385.085 209.089 386.629 209.089 388.535C209.089 390.44 210.633 391.985 212.539 391.985Z" fill="white"/>
<path opacity="0.2" d="M82.0389 405.985C83.1158 405.985 83.9889 405.112 83.9889 404.035C83.9889 402.958 83.1158 402.085 82.0389 402.085C80.9619 402.085 80.0889 402.958 80.0889 404.035C80.0889 405.112 80.9619 405.985 82.0389 405.985Z" fill="white"/>
<path opacity="0.2" d="M339.539 434.985C340.892 434.985 341.989 433.888 341.989 432.535C341.989 431.182 340.892 430.085 339.539 430.085C338.186 430.085 337.089 431.182 337.089 432.535C337.089 433.888 338.186 434.985 339.539 434.985Z" fill="white"/>
<path opacity="0.1" d="M24.5391 461.985C26.9968 461.985 28.9891 459.992 28.9891 457.535C28.9891 455.077 26.9968 453.085 24.5391 453.085C22.0814 453.085 20.0891 455.077 20.0891 457.535C20.0891 459.992 22.0814 461.985 24.5391 461.985Z" fill="white"/>
<g opacity="0.5">
<path opacity="0.5" d="M-12.9167 703.329C-51.0966 708.017 -82.9355 704.585 -84.0309 695.663C-85.1264 686.742 -55.0634 675.709 -16.8835 671.021C21.2964 666.333 53.1353 669.765 54.2307 678.687C55.3262 687.608 25.2632 698.641 -12.9167 703.329Z" fill="url(#paint57_linear)"/>
<path opacity="0.5" d="M-21.3168 706.129C-59.4967 710.817 -91.3357 707.385 -92.4311 698.463C-93.5265 689.542 -63.4636 678.509 -25.2837 673.821C12.8962 669.133 44.7352 672.565 45.8306 681.487C46.926 690.408 16.8631 701.441 -21.3168 706.129Z" fill="url(#paint58_linear)"/>
</g>
<mask id="mask4" mask-type="alpha" maskUnits="userSpaceOnUse" x="283" y="436" width="26" height="26">
<path d="M293.194 461.427C299.871 463.216 306.727 459.284 308.506 452.644C310.285 446.004 306.314 439.17 299.637 437.381C292.959 435.592 286.104 439.524 284.325 446.164C282.546 452.804 286.516 459.638 293.194 461.427Z" fill="white"/>
</mask>
<g mask="url(#mask4)">
<path d="M293.194 461.427C299.871 463.216 306.727 459.284 308.506 452.644C310.285 446.004 306.314 439.17 299.637 437.381C292.959 435.592 286.104 439.524 284.325 446.164C282.546 452.804 286.516 459.638 293.194 461.427Z" fill="url(#paint59_linear)"/>
<path fill-rule="evenodd" clip-rule="evenodd" d="M283.803 441.737C285.851 447.328 289.38 450.73 294.391 451.945C299.402 453.159 302.681 456.171 304.228 460.982L285.671 462.485L281.77 452.376L283.803 441.737Z" fill="url(#paint60_linear)"/>
<path fill-rule="evenodd" clip-rule="evenodd" d="M283.632 449.59C285.662 453.588 288.866 456.13 293.243 457.215C297.621 458.3 300.59 460.557 302.152 463.987L286.226 464.156L282.384 456.917L283.632 449.59Z" fill="url(#paint61_linear)"/>
</g>
<path fill-rule="evenodd" clip-rule="evenodd" d="M308.978 450.588C309.002 448.661 308.906 447.283 308.69 446.456C308.132 444.318 306.927 442.51 306.616 442.133C306.126 441.537 305.369 440.714 304.347 439.664C301.944 437.859 299.298 436.957 296.409 436.957C293.52 436.957 291.024 437.802 288.923 439.493C289.805 442.354 292.69 444.052 297.58 444.586C302.47 445.121 306.27 447.122 308.978 450.588Z" fill="url(#paint62_linear)"/>
<path opacity="0.1" d="M287.039 403.985C288.116 403.985 288.989 403.112 288.989 402.035C288.989 400.958 288.116 400.085 287.039 400.085C285.962 400.085 285.089 400.958 285.089 402.035C285.089 403.112 285.962 403.985 287.039 403.985Z" fill="white"/>
<path opacity="0.2" d="M336.039 45.9847C337.668 45.9847 338.989 44.664 338.989 43.0347C338.989 41.4055 337.668 40.0847 336.039 40.0847C334.41 40.0847 333.089 41.4055 333.089 43.0347C333.089 44.664 334.41 45.9847 336.039 45.9847Z" fill="white"/>
<path opacity="0.2" d="M354.039 173.985C355.116 173.985 355.989 173.112 355.989 172.035C355.989 170.958 355.116 170.085 354.039 170.085C352.962 170.085 352.089 170.958 352.089 172.035C352.089 173.112 352.962 173.985 354.039 173.985Z" fill="white"/>
<path opacity="0.2" d="M34.0389 193.985C35.1158 193.985 35.9889 193.112 35.9889 192.035C35.9889 190.958 35.1158 190.085 34.0389 190.085C32.9619 190.085 32.0889 190.958 32.0889 192.035C32.0889 193.112 32.9619 193.985 34.0389 193.985Z" fill="white"/>
<path opacity="0.2" d="M114.039 3.98472C115.116 3.98472 115.989 3.11167 115.989 2.03471C115.989 0.957759 115.116 0.0847168 114.039 0.0847168C112.962 0.0847168 112.089 0.957759 112.089 2.03471C112.089 3.11167 112.962 3.98472 114.039 3.98472Z" fill="white"/>
<path opacity="0.2" d="M54.0389 313.985C55.1158 313.985 55.9889 313.112 55.9889 312.035C55.9889 310.958 55.1158 310.085 54.0389 310.085C52.9619 310.085 52.0889 310.958 52.0889 312.035C52.0889 313.112 52.9619 313.985 54.0389 313.985Z" fill="white"/>
<path d="M329.341 338.115C330.017 338.115 330.566 337.567 330.566 336.89C330.566 336.214 330.017 335.665 329.341 335.665C328.664 335.665 328.116 336.214 328.116 336.89C328.116 337.567 328.664 338.115 329.341 338.115Z" fill="white"/>
<path d="M139.684 421.362C140.361 421.362 140.909 420.813 140.909 420.137C140.909 419.46 140.361 418.912 139.684 418.912C139.008 418.912 138.459 419.46 138.459 420.137C138.459 420.813 139.008 421.362 139.684 421.362Z" fill="white"/>
<path d="M185.235 13.1458C185.911 13.1458 186.46 12.5973 186.46 11.9208C186.46 11.2443 185.911 10.6958 185.235 10.6958C184.558 10.6958 184.01 11.2443 184.01 11.9208C184.01 12.5973 184.558 13.1458 185.235 13.1458Z" fill="white"/>
</g>
<defs>
<linearGradient id="paint0_linear" x1="-1205.89" y1="584.513" x2="1306.71" y2="1052.59" gradientUnits="userSpaceOnUse">
<stop stop-color="#33017D"/>
<stop offset="1" stop-color="#D04F4F"/>
</linearGradient>
<linearGradient id="paint1_linear" x1="-138" y1="606.325" x2="609.305" y2="944.77" gradientUnits="userSpaceOnUse">
<stop stop-color="#33017D"/>
<stop offset="1" stop-color="#D04F4F"/>
</linearGradient>
<linearGradient id="paint2_linear" x1="-86.5135" y1="634.605" x2="346.699" y2="567.362" gradientUnits="userSpaceOnUse">
<stop stop-color="#005865"/>
<stop offset="1" stop-color="#00282D"/>
</linearGradient>
<linearGradient id="paint3_linear" x1="425.197" y1="672.016" x2="-382.465" y2="109.296" gradientUnits="userSpaceOnUse">
<stop stop-color="#75226A"/>
<stop offset="1" stop-color="#FF8A6A"/>
</linearGradient>
<linearGradient id="paint4_linear" x1="65.917" y1="706.203" x2="691.157" y2="870.483" gradientUnits="userSpaceOnUse">
<stop stop-color="#33017D"/>
<stop offset="1" stop-color="#D04F4F"/>
</linearGradient>
<linearGradient id="paint5_linear" x1="158.329" y1="725.165" x2="364.846" y2="873.242" gradientUnits="userSpaceOnUse">
<stop stop-color="#33017D"/>
<stop offset="1" stop-color="#D04F4F"/>
</linearGradient>
<linearGradient id="paint6_linear" x1="221.921" y1="734.111" x2="419.573" y2="839.956" gradientUnits="userSpaceOnUse">
<stop stop-color="#33017D"/>
<stop offset="1" stop-color="#D04F4F"/>
</linearGradient>
<linearGradient id="paint7_linear" x1="223.533" y1="725.921" x2="407.338" y2="798.803" gradientUnits="userSpaceOnUse">
<stop stop-color="#33017D"/>
<stop offset="1" stop-color="#D04F4F"/>
</linearGradient>
<linearGradient id="paint8_linear" x1="-57.214" y1="587.873" x2="126.226" y2="604.857" gradientUnits="userSpaceOnUse">
<stop stop-color="#33017D"/>
<stop offset="1" stop-color="#D04F4F"/>
</linearGradient>
<linearGradient id="paint9_linear" x1="308.732" y1="645.61" x2="461.396" y2="671.19" gradientUnits="userSpaceOnUse">
<stop stop-color="#33017D"/>
<stop offset="1" stop-color="#D04F4F"/>
</linearGradient>
<linearGradient id="paint10_linear" x1="-211.842" y1="680.134" x2="112.137" y2="712.4" gradientUnits="userSpaceOnUse">
<stop stop-color="#33017D"/>
<stop offset="1" stop-color="#D04F4F"/>
</linearGradient>
<linearGradient id="paint11_linear" x1="208.98" y1="556.824" x2="260.403" y2="547.564" gradientUnits="userSpaceOnUse">
<stop stop-color="#02383C"/>
<stop offset="1" stop-color="#001E25"/>
</linearGradient>
<linearGradient id="paint12_linear" x1="312.847" y1="621.831" x2="449.905" y2="612.962" gradientUnits="userSpaceOnUse">
<stop stop-color="#33017D"/>
<stop offset="1" stop-color="#D04F4F"/>
</linearGradient>
<linearGradient id="paint13_linear" x1="257.648" y1="494.506" x2="238.775" y2="480.563" gradientUnits="userSpaceOnUse">
<stop stop-color="#4415B8"/>
<stop offset="1" stop-color="#A188FF"/>
</linearGradient>
<linearGradient id="paint14_linear" x1="51.3178" y1="610.291" x2="145.084" y2="602.523" gradientUnits="userSpaceOnUse">
<stop stop-color="#33017D"/>
<stop offset="1" stop-color="#D04F4F"/>
</linearGradient>
<linearGradient id="paint15_linear" x1="51.2594" y1="596.524" x2="75.6534" y2="611.14" gradientUnits="userSpaceOnUse">
<stop stop-color="#494865"/>
<stop offset="1" stop-color="#023437"/>
</linearGradient>
<linearGradient id="paint16_linear" x1="83.8385" y1="657.195" x2="153.309" y2="650.306" gradientUnits="userSpaceOnUse">
<stop stop-color="#33017D"/>
<stop offset="1" stop-color="#D04F4F"/>
</linearGradient>
<linearGradient id="paint17_linear" x1="91.8474" y1="641.189" x2="108.761" y2="672.899" gradientUnits="userSpaceOnUse">
<stop stop-color="#33017D"/>
<stop offset="1" stop-color="#D04F4F"/>
</linearGradient>
<linearGradient id="paint18_linear" x1="99.4223" y1="667.081" x2="82.9993" y2="637.834" gradientUnits="userSpaceOnUse">
<stop stop-color="#FBFFFE"/>
<stop offset="1" stop-color="#CCC0BD"/>
</linearGradient>
<linearGradient id="paint19_linear" x1="320.339" y1="551.651" x2="341.472" y2="583.076" gradientUnits="userSpaceOnUse">
<stop stop-color="#CED6DF"/>
<stop offset="1" stop-color="#8192A6"/>
</linearGradient>
<linearGradient id="paint20_linear" x1="322.566" y1="562.042" x2="332.949" y2="589.092" gradientUnits="userSpaceOnUse">
<stop stop-color="#CAE2FF"/>
<stop offset="1" stop-color="#5B5AE1"/>
</linearGradient>
<linearGradient id="paint21_linear" x1="335.575" y1="600.668" x2="335.364" y2="578.227" gradientUnits="userSpaceOnUse">
<stop stop-color="#FF895B"/>
<stop offset="1" stop-color="#FFEC9E"/>
</linearGradient>
<linearGradient id="paint22_linear" x1="323.572" y1="595.393" x2="288.535" y2="576.361" gradientUnits="userSpaceOnUse">
<stop stop-color="#4415B8"/>
<stop offset="1" stop-color="#A188FF"/>
</linearGradient>
<linearGradient id="paint23_linear" x1="342.406" y1="598.236" x2="314.7" y2="595.25" gradientUnits="userSpaceOnUse">
<stop stop-color="#4415B8"/>
<stop offset="1" stop-color="#A188FF"/>
</linearGradient>
<linearGradient id="paint24_linear" x1="333.242" y1="600.231" x2="292.045" y2="594.187" gradientUnits="userSpaceOnUse">
<stop stop-color="#4415B8"/>
<stop offset="1" stop-color="#A188FF"/>
</linearGradient>
<linearGradient id="paint25_linear" x1="266.605" y1="599.543" x2="202.713" y2="624.529" gradientUnits="userSpaceOnUse">
<stop stop-color="#07848A"/>
<stop offset="1" stop-color="#1E0E29"/>
</linearGradient>
<linearGradient id="paint26_linear" x1="146.437" y1="596.85" x2="178.069" y2="626.494" gradientUnits="userSpaceOnUse">
<stop stop-color="#5F078A"/>
<stop offset="1" stop-color="#1E0E29"/>
</linearGradient>
<linearGradient id="paint27_linear" x1="256.901" y1="599.627" x2="207.233" y2="620.119" gradientUnits="userSpaceOnUse">
<stop stop-color="#07848A"/>
<stop offset="1" stop-color="#1E0E29"/>
</linearGradient>
<linearGradient id="paint28_linear" x1="193.686" y1="600.81" x2="202.402" y2="606.07" gradientUnits="userSpaceOnUse">
<stop stop-color="#07848A"/>
<stop offset="1" stop-color="#023437"/>
</linearGradient>
<linearGradient id="paint29_linear" x1="205.236" y1="594.469" x2="210.852" y2="612.813" gradientUnits="userSpaceOnUse">
<stop stop-color="#07848A"/>
<stop offset="1" stop-color="#023437"/>
</linearGradient>
<linearGradient id="paint30_linear" x1="134.376" y1="600.741" x2="158.414" y2="604.497" gradientUnits="userSpaceOnUse">
<stop stop-color="#5F078A"/>
<stop offset="1" stop-color="#633981"/>
</linearGradient>
<linearGradient id="paint31_linear" x1="255.863" y1="559.189" x2="215.448" y2="586.035" gradientUnits="userSpaceOnUse">
<stop stop-color="#FBFFFE"/>
<stop offset="1" stop-color="#A6938E"/>
</linearGradient>
<linearGradient id="paint32_linear" x1="231.566" y1="576.818" x2="229.519" y2="592.49" gradientUnits="userSpaceOnUse">
<stop stop-color="#FBFFFE"/>
<stop offset="1" stop-color="#A6938E"/>
</linearGradient>
<linearGradient id="paint33_linear" x1="258.997" y1="559.389" x2="244.241" y2="594.09" gradientUnits="userSpaceOnUse">
<stop stop-color="#FBFFFE"/>
<stop offset="1" stop-color="#97847E"/>
</linearGradient>
<linearGradient id="paint34_linear" x1="249.286" y1="547.147" x2="261.136" y2="597.457" gradientUnits="userSpaceOnUse">
<stop stop-color="#FBFFFE"/>
<stop offset="1" stop-color="#CCC0BD"/>
</linearGradient>
<linearGradient id="paint35_linear" x1="197.257" y1="537.177" x2="185.529" y2="603.69" gradientUnits="userSpaceOnUse">
<stop stop-color="#FBFFFE"/>
<stop offset="1" stop-color="#CCC0BD"/>
</linearGradient>
<linearGradient id="paint36_linear" x1="173.111" y1="523.517" x2="162.939" y2="583.552" gradientUnits="userSpaceOnUse">
<stop stop-color="#FBFFFE"/>
<stop offset="1" stop-color="#A6938E"/>
</linearGradient>
<linearGradient id="paint37_linear" x1="209.211" y1="545.781" x2="204.982" y2="575.522" gradientUnits="userSpaceOnUse">
<stop stop-color="#FBFFFE"/>
<stop offset="1" stop-color="#A6938E"/>
</linearGradient>
<linearGradient id="paint38_linear" x1="262.958" y1="565.882" x2="221.535" y2="583.678" gradientUnits="userSpaceOnUse">
<stop stop-color="#07848A"/>
<stop offset="1" stop-color="#1E0E29"/>
</linearGradient>
<linearGradient id="paint39_linear" x1="330.86" y1="593.937" x2="272.278" y2="629.638" gradientUnits="userSpaceOnUse">
<stop stop-color="#07848A"/>
<stop offset="1" stop-color="#1E0E29"/>
</linearGradient>
<linearGradient id="paint40_linear" x1="212.05" y1="612.152" x2="248.349" y2="635.852" gradientUnits="userSpaceOnUse">
<stop stop-color="#5F078A"/>
<stop offset="1" stop-color="#1E0E29"/>
</linearGradient>
<linearGradient id="paint41_linear" x1="321.318" y1="595.705" x2="275.963" y2="624.511" gradientUnits="userSpaceOnUse">
<stop stop-color="#07848A"/>
<stop offset="1" stop-color="#1E0E29"/>
</linearGradient>
<linearGradient id="paint42_linear" x1="232.83" y1="612.156" x2="246.647" y2="618.147" gradientUnits="userSpaceOnUse">
<stop stop-color="#5F078A"/>
<stop offset="1" stop-color="#1E0E29"/>
</linearGradient>
<linearGradient id="paint43_linear" x1="245.774" y1="610.156" x2="270.1" y2="609.681" gradientUnits="userSpaceOnUse">
<stop stop-color="#5F078A"/>
<stop offset="1" stop-color="#633981"/>
</linearGradient>
<linearGradient id="paint44_linear" x1="200.848" y1="618.078" x2="225.174" y2="617.603" gradientUnits="userSpaceOnUse">
<stop stop-color="#5F078A"/>
<stop offset="1" stop-color="#633981"/>
</linearGradient>
<linearGradient id="paint45_linear" x1="207.399" y1="508.02" x2="208.206" y2="519.099" gradientUnits="userSpaceOnUse">
<stop stop-color="#FBFFFE"/>
<stop offset="0.599592" stop-color="#AC9B95"/>
<stop offset="1" stop-color="#A6938E"/>
</linearGradient>
<linearGradient id="paint46_linear" x1="203.881" y1="508.505" x2="183.419" y2="526.677" gradientUnits="userSpaceOnUse">
<stop stop-color="#FBFFFE"/>
<stop offset="1" stop-color="#A6938E"/>
</linearGradient>
<linearGradient id="paint47_linear" x1="215.624" y1="509.772" x2="199.41" y2="525.038" gradientUnits="userSpaceOnUse">
<stop stop-color="#07848A"/>
<stop offset="1" stop-color="#1E0E29"/>
</linearGradient>
<linearGradient id="paint48_linear" x1="218.264" y1="511.295" x2="225.818" y2="522.772" gradientUnits="userSpaceOnUse">
<stop stop-color="#FBFFFE"/>
<stop offset="1" stop-color="#A6938E"/>
</linearGradient>
<linearGradient id="paint49_linear" x1="209.199" y1="509.442" x2="222.211" y2="533.517" gradientUnits="userSpaceOnUse">
<stop stop-color="#FBFFFE"/>
<stop offset="1" stop-color="#A6938E"/>
</linearGradient>
<linearGradient id="paint50_linear" x1="197.73" y1="506.617" x2="207.745" y2="526.507" gradientUnits="userSpaceOnUse">
<stop stop-color="#07848A"/>
<stop offset="1" stop-color="#1E0E29"/>
</linearGradient>
<linearGradient id="paint51_linear" x1="105.944" y1="519.004" x2="113.396" y2="561.265" gradientUnits="userSpaceOnUse">
<stop stop-color="#17C3B8"/>
<stop offset="1" stop-color="#019AA4"/>
</linearGradient>
<linearGradient id="paint52_linear" x1="64.3857" y1="460.692" x2="134.746" y2="534.427" gradientUnits="userSpaceOnUse">
<stop stop-color="#36FFD5"/>
<stop offset="1" stop-color="#019AA4"/>
</linearGradient>
<linearGradient id="paint53_linear" x1="89.5178" y1="530.346" x2="121.501" y2="548.547" gradientUnits="userSpaceOnUse">
<stop stop-color="#36FFD5"/>
<stop offset="1" stop-color="#019AA4"/>
</linearGradient>
<linearGradient id="paint54_linear" x1="94.5551" y1="518.57" x2="99.1713" y2="524.982" gradientUnits="userSpaceOnUse">
<stop stop-color="#02383C"/>
<stop offset="1" stop-color="#001E25"/>
</linearGradient>
<linearGradient id="paint55_linear" x1="112.769" y1="515.359" x2="117.385" y2="521.77" gradientUnits="userSpaceOnUse">
<stop stop-color="#02383C"/>
<stop offset="1" stop-color="#001E25"/>
</linearGradient>
<linearGradient id="paint56_linear" x1="129" y1="660.946" x2="541.69" y2="682.044" gradientUnits="userSpaceOnUse">
<stop stop-color="#33017D"/>
<stop offset="1" stop-color="#D04F4F"/>
</linearGradient>
<linearGradient id="paint57_linear" x1="89.4883" y1="670.216" x2="-45.4892" y2="786.075" gradientUnits="userSpaceOnUse">
<stop stop-color="#33017D"/>
<stop offset="1" stop-color="#D04F4F"/>
</linearGradient>
<linearGradient id="paint58_linear" x1="45.689" y1="680.333" x2="-85.6829" y2="766.202" gradientUnits="userSpaceOnUse">
<stop stop-color="#33017D"/>
<stop offset="1" stop-color="#D04F4F"/>
</linearGradient>
<linearGradient id="paint59_linear" x1="298.97" y1="441.634" x2="283.301" y2="446.274" gradientUnits="userSpaceOnUse">
<stop stop-color="#F18E78"/>
<stop offset="1" stop-color="#DF5543"/>
</linearGradient>
<linearGradient id="paint60_linear" x1="319.845" y1="472.131" x2="283.539" y2="446.459" gradientUnits="userSpaceOnUse">
<stop stop-color="#F18E78"/>
<stop offset="1" stop-color="#DF5543"/>
</linearGradient>
<linearGradient id="paint61_linear" x1="293.16" y1="457.311" x2="281.317" y2="458.535" gradientUnits="userSpaceOnUse">
<stop stop-color="#F18E78"/>
<stop offset="1" stop-color="#DF5543"/>
</linearGradient>
<linearGradient id="paint62_linear" x1="316.575" y1="446.096" x2="287.628" y2="443.698" gradientUnits="userSpaceOnUse">
<stop stop-color="#F18E78"/>
<stop offset="1" stop-color="#DF5543"/>
</linearGradient>
<clipPath id="clip0">
<rect width="375" height="739" fill="white"/>
</clipPath>
</defs>
</svg>
