<svg width="1440" height="796" viewBox="0 0 1440 796" fill="none" xmlns="http://www.w3.org/2000/svg">
<g clip-path="url(#clip0)">
<path opacity="0.03" d="M1323.95 178.075C1392.92 184.722 1437.09 184.722 1456.43 178.075L1406.59 210.987L1456.43 229.191L1182.04 235.553L1352.46 211.814L1112.81 152.24C1248.02 144.544 1330.23 140.696 1359.45 140.696C1373.31 140.696 1334.18 147.877 1242.06 162.24L1323.95 178.075Z" fill="white"/>
<path opacity="0.2" d="M1247.71 247.654C1253.18 247.654 1257.61 243.222 1257.61 237.754C1257.61 232.287 1253.18 227.854 1247.71 227.854C1242.25 227.854 1237.81 232.287 1237.81 237.754C1237.81 243.222 1242.25 247.654 1247.71 247.654Z" fill="white"/>
<path opacity="0.2" d="M983 35.45C984.353 35.45 985.45 34.3531 985.45 33C985.45 31.6469 984.353 30.55 983 30.55C981.647 30.55 980.55 31.6469 980.55 33C980.55 34.3531 981.647 35.45 983 35.45Z" fill="white"/>
<path opacity="0.34" d="M879.854 355.625C880.406 355.625 880.854 355.177 880.854 354.625C880.854 354.072 880.406 353.625 879.854 353.625C879.302 353.625 878.854 354.072 878.854 354.625C878.854 355.177 879.302 355.625 879.854 355.625Z" fill="white"/>
<path opacity="0.34" d="M283.12 106.971C283.672 106.971 284.12 106.523 284.12 105.971C284.12 105.418 283.672 104.971 283.12 104.971C282.568 104.971 282.12 105.418 282.12 105.971C282.12 106.523 282.568 106.971 283.12 106.971Z" fill="white"/>
<path opacity="0.2" d="M722.45 108.421C723.803 108.421 724.9 107.324 724.9 105.971C724.9 104.618 723.803 103.521 722.45 103.521C721.097 103.521 720 104.618 720 105.971C720 107.324 721.097 108.421 722.45 108.421Z" fill="white"/>
<path opacity="0.2" d="M481.233 420.104C482.586 420.104 483.683 419.007 483.683 417.654C483.683 416.301 482.586 415.204 481.233 415.204C479.88 415.204 478.783 416.301 478.783 417.654C478.783 419.007 479.88 420.104 481.233 420.104Z" fill="white"/>
<path opacity="0.2" d="M294.539 197.985C295.892 197.985 296.989 196.888 296.989 195.535C296.989 194.182 295.892 193.085 294.539 193.085C293.186 193.085 292.089 194.182 292.089 195.535C292.089 196.888 293.186 197.985 294.539 197.985Z" fill="white"/>
<path opacity="0.2" d="M27.5 212.157C28.8531 212.157 29.9501 211.06 29.9501 209.707C29.9501 208.354 28.8531 207.257 27.5 207.257C26.147 207.257 25.05 208.354 25.05 209.707C25.05 211.06 26.147 212.157 27.5 212.157Z" fill="white"/>
<path opacity="0.2" d="M1072.71 387.654C1075.42 387.654 1077.61 385.46 1077.61 382.754C1077.61 380.048 1075.42 377.854 1072.71 377.854C1070.01 377.854 1067.81 380.048 1067.81 382.754C1067.81 385.46 1070.01 387.654 1072.71 387.654Z" fill="white"/>
<path d="M948.879 125.605C949.556 125.605 950.104 125.056 950.104 124.38C950.104 123.703 949.556 123.155 948.879 123.155C948.202 123.155 947.654 123.703 947.654 124.38C947.654 125.056 948.202 125.605 948.879 125.605Z" fill="white"/>
<path d="M670.881 377.654C671.557 377.654 672.106 377.106 672.106 376.429C672.106 375.753 671.557 375.204 670.881 375.204C670.204 375.204 669.656 375.753 669.656 376.429C669.656 377.106 670.204 377.654 670.881 377.654Z" fill="white"/>
<path d="M246.225 410.304C246.902 410.304 247.45 409.756 247.45 409.079C247.45 408.403 246.902 407.854 246.225 407.854C245.548 407.854 245 408.403 245 409.079C245 409.756 245.548 410.304 246.225 410.304Z" fill="white"/>
<path d="M479.775 30.998C480.452 30.998 481 30.4496 481 29.773C481 29.0965 480.452 28.548 479.775 28.548C479.099 28.548 478.55 29.0965 478.55 29.773C478.55 30.4496 479.099 30.998 479.775 30.998Z" fill="white"/>
<path d="M349.341 291.115C350.017 291.115 350.566 290.567 350.566 289.89C350.566 289.214 350.017 288.665 349.341 288.665C348.664 288.665 348.116 289.214 348.116 289.89C348.116 290.567 348.664 291.115 349.341 291.115Z" fill="white"/>
<path d="M98.6845 361.362C99.9133 361.362 100.909 360.366 100.909 359.137C100.909 357.908 99.9133 356.912 98.6845 356.912C97.4556 356.912 96.4595 357.908 96.4595 359.137C96.4595 360.366 97.4556 361.362 98.6845 361.362Z" fill="white"/>
<path d="M45.2345 83.1458C45.9111 83.1458 46.4595 82.5974 46.4595 81.9208C46.4595 81.2443 45.9111 80.6958 45.2345 80.6958C44.558 80.6958 44.0095 81.2443 44.0095 81.9208C44.0095 82.5974 44.558 83.1458 45.2345 83.1458Z" fill="white"/>
<path d="M1129.62 303.902C1130.29 303.902 1130.84 303.353 1130.84 302.677C1130.84 302 1130.29 301.452 1129.62 301.452C1128.94 301.452 1128.39 302 1128.39 302.677C1128.39 303.353 1128.94 303.902 1129.62 303.902Z" fill="white"/>
<path d="M1413.59 195.535C1414.26 195.535 1414.81 194.986 1414.81 194.31C1414.81 193.633 1414.26 193.085 1413.59 193.085C1412.91 193.085 1412.36 193.633 1412.36 194.31C1412.36 194.986 1412.91 195.535 1413.59 195.535Z" fill="white"/>
<path d="M1384.53 104.746C1385.21 104.746 1385.76 104.197 1385.76 103.521C1385.76 102.844 1385.21 102.296 1384.53 102.296C1383.86 102.296 1383.31 102.844 1383.31 103.521C1383.31 104.197 1383.86 104.746 1384.53 104.746Z" fill="white"/>
<path opacity="0.06" d="M264.476 134L-12.988 171.426L100.524 195.177L-118 230.166L64.4764 322.389L-46.3641 244.069L288.314 225.063L85.1571 171.426L264.476 134Z" fill="white"/>
<path opacity="0.2" d="M732.213 553.283H745.581V554.087H732.213V553.283Z" fill="url(#paint0_linear)"/>
<path opacity="0.1" d="M643.022 -13.2109V-0.281443C707.244 0.193933 744.503 -0.936247 754.801 -3.67198L575.152 20.8708L643.022 -13.2109Z" fill="white"/>
<path opacity="0.06" d="M1052.57 -0.514626L1042.1 11.6978H1086.16L969.776 23.0527L986.621 11.6978L935.088 -0.514626L1030.5 -16.1219L1010.63 -0.514626H1052.57Z" fill="white"/>
<path opacity="0.34" d="M183.651 21.127C184.204 21.127 184.651 20.6792 184.651 20.127C184.651 19.5747 184.204 19.127 183.651 19.127C183.099 19.127 182.651 19.5747 182.651 20.127C182.651 20.6792 183.099 21.127 183.651 21.127Z" fill="white"/>
<mask id="mask0" mask-type="alpha" maskUnits="userSpaceOnUse" x="174" y="305" width="41" height="41">
<path d="M189.355 344.535C199.954 347.375 210.836 341.133 213.66 330.593C216.484 320.053 210.181 309.207 199.582 306.367C188.983 303.527 178.102 309.769 175.278 320.309C172.453 330.848 178.756 341.695 189.355 344.535Z" fill="white"/>
</mask>
<g mask="url(#mask0)">
<path d="M189.355 344.535C199.954 347.375 210.836 341.133 213.66 330.593C216.484 320.053 210.181 309.207 199.582 306.367C188.983 303.527 178.102 309.769 175.278 320.309C172.453 330.848 178.756 341.695 189.355 344.535Z" fill="url(#paint1_linear)"/>
<path fill-rule="evenodd" clip-rule="evenodd" d="M174.449 313.281C177.7 322.155 183.302 327.556 191.255 329.483C199.209 331.411 204.414 336.192 206.87 343.828L177.414 346.215L171.223 330.169L174.449 313.281Z" fill="url(#paint2_linear)"/>
<path fill-rule="evenodd" clip-rule="evenodd" d="M174.177 325.746C177.4 332.092 182.486 336.127 189.434 337.849C196.382 339.571 201.095 343.154 203.575 348.598L178.295 348.866L172.197 337.376L174.177 325.746Z" fill="url(#paint3_linear)"/>
</g>
<path fill-rule="evenodd" clip-rule="evenodd" d="M214.41 327.331C214.447 324.271 214.294 322.084 213.952 320.771C213.066 317.377 211.153 314.508 210.661 313.91C209.882 312.964 208.681 311.658 207.059 309.991C203.244 307.126 199.044 305.694 194.458 305.694C189.873 305.694 185.912 307.036 182.576 309.719C183.975 314.26 188.556 316.955 196.318 317.804C204.08 318.653 210.11 321.828 214.41 327.331Z" fill="url(#paint4_linear)"/>
<g opacity="0.1" filter="url(#filter0_f)">
<path d="M1235 679.548C1317.59 679.548 1384.55 612.593 1384.55 530C1384.55 447.407 1317.59 380.452 1235 380.452C1152.41 380.452 1085.45 447.407 1085.45 530C1085.45 612.593 1152.41 679.548 1235 679.548Z" fill="#C3FFF9"/>
</g>
<g opacity="0.7">
<path d="M1139.06 465.488C1108.37 518.648 1126.28 586.45 1179.07 616.928C1231.86 647.407 1299.54 629.019 1330.23 575.859C1360.92 522.699 1343.01 454.897 1290.22 424.418C1237.43 393.94 1169.75 412.327 1139.06 465.488Z" fill="url(#paint5_linear)"/>
<mask id="mask1" mask-type="alpha" maskUnits="userSpaceOnUse" x="1127" y="410" width="219" height="220">
<path d="M1142.39 465.678C1112.11 518.121 1129.78 585.008 1181.86 615.075C1233.94 645.142 1300.7 627.003 1330.98 574.56C1361.26 522.117 1343.58 455.23 1291.51 425.163C1239.43 395.096 1172.67 413.235 1142.39 465.678Z" fill="url(#paint6_linear)"/>
</mask>
<g mask="url(#mask1)">
<path d="M1143.59 504.528L1139.19 507.354L1136.74 511.608L1132.21 505.407L1124.11 502.424L1117.72 505.288L1118.96 481.426L1144.67 440.063L1150.26 451.165L1156.56 456.725L1154.38 467.009L1153.47 476.796L1148.02 481.614L1146.56 488.763L1141.21 498.018L1143.59 504.528ZM1246.85 640.416C1205.93 643.235 1172.06 630.784 1145.25 603.065C1118.43 575.345 1111.15 547.987 1123.41 520.99C1123.29 546.502 1125.74 561.679 1130.74 566.521C1133.14 568.839 1133.42 563.415 1137.03 564.609C1138.72 565.168 1144.16 561.271 1145.72 561.781C1149.26 562.945 1152.32 564.164 1154.93 565.503L1155.15 565.171L1161.34 561.462L1166.23 555.495L1165.14 558.52L1167.93 557.419L1169.77 554.222L1172.37 552.61L1176.23 551.258L1178.85 551.489L1183.41 551.21L1180.37 548.696L1180.68 548.155L1183.67 549.258L1183.15 547.055L1185.05 546.832L1187.15 546.709L1188.52 547.915L1189.33 547.196L1190.3 544.822L1189.4 544.022L1189.07 542.69L1188.72 540.489L1186.84 539.403L1185.52 539.771L1185.94 538.125L1184.56 538.604L1182.12 537.809L1179.41 539.563L1175.11 541.893L1166.95 541.705L1164.17 543.011L1161.96 544.797L1161.7 546.45L1161.42 548.54L1159.27 549.45L1159.46 548.969L1158.21 547.144L1156.81 548.665L1153.27 552.388L1149.57 555.101L1145.44 556.515L1144.98 555.613L1143.43 555.763L1142.92 554.421L1144.52 553.88L1146.08 554.243L1147.09 553.666L1147.54 551.705L1148.96 551.591L1149.69 550.322L1148.22 548.203L1145.59 545.787L1142.97 547.88L1139.44 547.029L1139.82 545.65L1139.46 543.696L1136.54 542.727C1136.74 541.403 1136.4 540.487 1135.52 539.978C1134.2 539.214 1133.64 537.625 1135.32 537.348C1137 537.071 1136.71 537.904 1137.02 538.633C1137.22 539.086 1137.83 539.643 1138.85 540.304L1139.08 540.447L1140.02 541.909C1143.02 542.409 1145.17 542.674 1146.48 542.704C1148.45 542.75 1148.36 541.859 1149.87 540.845C1150.82 540.211 1152.18 539.91 1153.97 539.941L1154.33 539.952L1154.91 537.662C1157.76 536.867 1159.61 536.012 1160.45 535.097C1161.29 534.183 1162.22 533.194 1163.24 532.133C1168.03 530.156 1171.3 528.657 1173.05 527.634C1175.66 526.101 1178.85 526.748 1181.44 527.624C1183.1 528.186 1183.83 528.078 1183.62 527.302L1183.59 527.205L1184.89 526.217L1186.3 525.59L1189.31 522.409L1186.98 517.06L1187.95 515.375L1186.67 510.565L1185.87 508.93L1186.11 506.898L1187.1 505.181L1188.71 504.017L1190.52 503.137L1191.16 500.042L1193.76 498.285L1193.71 495.619L1192.21 492.401L1186.62 489.766L1185.18 487.694L1185.53 485.916L1183.97 481.789L1185.06 478.289L1184.75 474.533L1183.15 470.592L1181.36 464.287L1177.94 463.521L1175.3 465.62L1173.96 463.771L1172.84 463.119L1173.23 460.178L1169.61 455.09L1171.41 451.988L1168.77 448.832L1169.66 442.534L1174.07 436.489L1174.51 434.131L1175.98 431.586L1172.39 429.136L1173.96 427.224L1176.47 427.246L1181.66 427.927C1184.31 427.532 1186.08 426.339 1186.96 424.348C1187.8 422.447 1188.51 421.413 1189.08 421.245L1189.17 421.227L1192.19 418.162L1195.16 420.73L1198.78 423.634L1199.51 422.384L1200.32 423.713L1202.36 422.35C1203.87 423.988 1205.43 426.279 1207.04 429.222C1209.45 433.637 1215.27 435.567 1217.4 436.458C1219.53 437.349 1220.27 438.744 1222.05 439.769C1223.82 440.794 1224.76 439.456 1226.16 440.265C1227.57 441.075 1226.34 443.362 1225.57 444.712C1224.79 446.061 1227.02 447.708 1226.29 448.964C1225.81 449.802 1224.16 451.199 1221.34 453.154C1217.33 459.358 1214.19 463.451 1211.93 465.433C1209.67 467.416 1208.01 469.825 1206.97 472.661C1208.49 475.609 1210.68 478.205 1213.54 480.448C1217.82 483.813 1223.04 485.04 1224.57 484.272C1226.09 483.505 1228.12 484.096 1229.84 485.088C1231.55 486.08 1235.95 484.239 1238.09 482.042C1240.23 479.846 1241.18 479.06 1244.61 480.206C1248.04 481.353 1245.35 481.814 1244.81 484.417C1244.27 487.02 1242.75 487.979 1240.25 489.612C1237.74 491.245 1240.24 494.971 1242.43 494.589C1243.83 494.345 1244.7 494.797 1245.03 495.943L1245.07 496.112L1244.17 497.674L1242.36 497.754L1240.99 498.71L1239.6 501.11L1239.32 503.019L1240.56 503.454L1240.98 506.513L1240.46 509.212L1241.87 511.773L1244.93 513.479L1245.09 514.415L1244.38 516.667L1244.31 518.387L1244.69 520.79L1243.86 522.225L1244.06 523.475L1244.72 523.155L1245.56 522.559L1245.15 524.104L1244.38 524.612L1246.03 524.612L1246.25 525.695C1247.48 527.35 1248.24 528.676 1248.55 529.673C1249.11 531.542 1248.84 534.316 1249.16 535.333C1249.72 537.08 1251.18 538.922 1251.35 540.205C1251.77 543.402 1251.02 545.35 1249.11 546.048L1248.92 546.112L1249.42 548.148L1250.81 548.954L1250.41 550.919L1252.64 550.846L1253.68 551.442L1255.8 552.064L1256.69 552.577L1259.72 553.267L1261.27 552.723L1262.74 552.063L1263.71 552.626L1264.64 553.92L1265.46 554.051L1267.6 554.392L1268.37 555.731L1268.49 556.893L1269.78 556.835L1270.95 558.057L1271.03 559.271L1270.58 560.592L1271.67 562.202L1272.71 564.401L1272.25 565.202L1269.66 564.565L1268.59 563.509L1265.89 562.624L1265.1 563.995L1263.77 563.691L1262.82 562.677L1263.7 562.038L1262.54 560.686L1259.93 559.179L1258.94 560.898L1257.73 561.549L1255.64 560.338L1254.96 558.959L1255.86 558.659L1257.21 557.61L1258.82 557.869L1259.69 557.348L1257.94 556.342L1257.23 555.024L1255.81 557.483L1255.5 556.2L1254.76 557.04L1253.17 556.12L1251.13 556.747L1250.85 559.218L1249.43 559.68L1248.42 557.813L1247.27 559.809L1247.71 562.66L1248.56 564.104L1248.11 566.614L1247.76 569.172L1246.43 567.78L1245.4 568.669L1242.81 570.253L1242.94 572.923L1242.91 577.566L1243.86 579.449L1244.08 581.713L1245.01 582.768L1244.27 584.869L1244.08 586.628L1240.86 587.288L1239.34 589.918L1239.31 590.179L1239.27 590.452L1242.81 593.28L1241.45 597.532C1247.78 598.348 1251.88 599.032 1253.73 599.584C1256.92 600.536 1257.43 602.188 1258.63 602.72C1260.26 603.44 1257.99 606.236 1259.09 606.488C1260.97 606.922 1253.7 610.454 1255.81 610.464C1259.13 610.479 1261.65 609.835 1264.25 610.694C1265.79 611.206 1267.77 610.979 1269.05 611.744C1274.18 614.786 1269.73 618.215 1269.16 620.109C1268.87 621.082 1267.62 623.253 1267.97 627.674C1268.27 631.492 1261.23 635.74 1246.85 640.416ZM1137.7 536.403L1135.51 535.734L1133.66 533.576L1129.38 532.827L1129.15 529.912L1131.61 528.188L1134.76 524.328L1138.15 521.072L1140.46 521.803L1141.03 524.286L1140.89 527.052L1138.45 529.448L1137.56 532.822L1137.7 536.403ZM1167.58 515.718L1166.22 516.179L1163.33 515.924L1161.65 514.538L1159.07 513.886L1157.35 512.473L1154.21 510.66L1155.05 509.217L1153.64 506.733C1154.56 505.691 1155.61 505.235 1156.79 505.366C1158.55 505.563 1159.21 506.766 1161.1 507.858C1162.99 508.951 1163.74 508.61 1165.16 508.463C1166.58 508.317 1167.18 509.265 1166.62 510.231C1166.06 511.196 1166.44 512.378 1167.33 513.096C1167.92 513.574 1168 514.448 1167.58 515.718ZM1178.76 521.237L1176.43 520.94L1173.17 519.062L1172.26 517.538L1169.02 515.671L1169.27 515.247L1170.9 514.626L1173.66 515.109L1176.27 515.802L1177.55 518.996L1178.76 521.237ZM1302.84 523.718L1300.27 524.996L1298.13 519.117L1295.13 524.307L1291.7 524.002L1287.21 518.713L1287.35 515.101L1284.84 517.481L1281.83 518.986L1278.56 518.073L1274.46 519.243L1265.54 517.278L1262.61 515.588L1260.65 516.82L1257.48 520.729L1252.74 517.095L1251.84 512.001L1248.11 513.629L1247.27 510.633L1250.65 503.022L1254.74 495.948L1253.29 491.988L1255.29 488.847L1257.87 484.066L1260.44 492.258L1257.87 496.709L1259.25 501.068L1259.14 497.441L1262.61 495.255L1264.3 492.315L1266.47 491.991L1266.96 497.771L1269.75 499.489L1270.74 497.768L1271.41 500.341L1273.87 500.36L1269.71 504.897L1272.56 508.068L1276.2 508.34L1279.84 510.439L1279.21 504.839L1280.62 505.658L1282.83 504.746L1286.42 509.004L1288.89 509.029L1288.57 505.288L1291.29 506.319L1292.75 510.477L1294.74 507.04L1297.62 509.978L1301.96 512.48L1300.52 514.963L1304.86 518.25L1302.84 523.718ZM1290.91 500.061L1289.45 499.217L1289.74 502.09L1287.13 503.235L1282.63 500.64L1282.52 498.741L1280.67 497.232L1274.11 493.442L1271.58 488.201L1272.95 485.823L1272.44 480.34L1274.82 476.222L1278.11 474.606L1281.52 475.218L1280.28 477.368L1281.79 480.132L1283.93 482.243L1283.52 484.493L1287.78 481.698L1287.98 484.58L1289.76 484.851L1291.97 486.007L1288.47 490.526L1288.6 494.749L1290.43 492.092L1291.39 493.597L1292.63 497.079L1290.91 500.061ZM1253.15 562.088C1252.55 562.442 1252.77 564.02 1252.2 564.433C1251.63 564.846 1251.01 563.54 1250.96 562.705C1250.92 561.87 1251.48 561.267 1252.64 560.71C1253.42 560.338 1253.86 560.334 1253.95 560.697C1253.82 561.389 1253.55 561.853 1253.15 562.088ZM1259.74 566.447C1259.89 567.576 1259.73 568.237 1259.24 568.428C1258.75 568.619 1257.72 568.322 1256.16 567.536L1254.47 565.677C1253.75 565.065 1253.41 564.626 1253.46 564.362C1253.5 564.097 1253.96 563.849 1254.83 563.616L1255.19 563L1256.36 562.4C1258.09 562.678 1259.01 562.925 1259.12 563.14C1259.24 563.355 1259.34 563.849 1259.42 564.623C1259.25 565.3 1259.18 565.741 1259.22 565.945C1259.25 566.15 1259.42 566.317 1259.74 566.447ZM1307.07 594.804L1295.48 598.929L1292.87 596.896L1288.48 595.628L1283.86 594.655L1281.25 596.294L1276.89 598.936L1275.68 595.815L1274.3 595.018L1272.5 593.405L1270.92 589.946L1271.66 586.591L1270.67 588.315L1268.04 588.287L1263.61 585.724L1258.31 583.051L1255.71 580.296L1256.8 578.415L1256.05 574.822L1253.06 573.908L1253.39 570.33L1254.75 569.264L1255.99 569.978L1258.99 569.74L1260.18 570.424L1261.8 571.748L1265.16 571.177L1268.74 570.006L1272 570.148L1274.62 570.625L1277.96 571.117L1280.91 571.294L1281.96 570.814L1284.56 571.242L1281.48 565.83L1280.07 562.035L1278.83 557.137L1282.44 553.1L1289.39 552.928L1293.7 555.417L1301.64 558.15L1307.1 561.305L1311.09 573.871L1309.55 582.87L1307.07 594.804ZM1295.02 629.854L1282.44 631.811L1273.86 624.367L1273.68 618.477L1274.4 608.755L1281.26 606.946L1285.93 608.922L1292.6 610.242L1295.57 614.487L1293.87 623.068L1295.02 629.854Z" fill="url(#paint7_linear)"/>
</g>
</g>
<path opacity="0.2" d="M0 575C248.124 502.262 489.757 465.893 724.9 465.893C960.043 465.893 1198.41 495.595 1440 555V776H0V575Z" fill="url(#paint8_linear)"/>
<path d="M0 575C248.124 515.595 489.757 485.893 724.9 485.893C960.043 485.893 1198.41 515.595 1440 575V796H0V575Z" fill="url(#paint9_linear)"/>
<path opacity="0.3" d="M1164.33 652.653C1273.42 666.047 1364.39 656.242 1367.52 630.752C1370.65 605.262 1284.75 573.741 1175.67 560.347C1066.58 546.953 975.613 556.758 972.483 582.248C969.354 607.738 1055.25 639.259 1164.33 652.653Z" fill="url(#paint10_linear)"/>
<path opacity="0.4" d="M1188.33 660.653C1297.42 674.047 1388.39 664.242 1391.52 638.752C1394.65 613.262 1308.75 581.741 1199.67 568.347C1090.58 554.953 999.613 564.758 996.483 590.248C993.354 615.738 1079.25 647.259 1188.33 660.653Z" fill="url(#paint11_linear)"/>
<path opacity="0.8" d="M1178.64 634.825C1233.18 641.522 1278.68 636.508 1280.26 623.626C1281.84 610.744 1238.91 594.872 1184.36 588.175C1129.82 581.478 1084.32 586.492 1082.74 599.374C1081.16 612.256 1124.09 628.128 1178.64 634.825Z" fill="url(#paint12_linear)"/>
<path opacity="0.3" d="M516.434 853.936C626.188 848.184 714.071 822.731 712.727 797.085C711.383 771.439 621.32 755.312 511.566 761.064C401.812 766.816 313.929 792.269 315.273 817.915C316.617 843.561 406.68 859.688 516.434 853.936Z" fill="url(#paint13_linear)"/>
<path opacity="0.3" d="M541.458 857.647C651.212 851.895 739.096 826.442 737.752 800.796C736.408 775.15 646.345 759.023 536.591 764.775C426.837 770.527 338.953 795.98 340.297 821.626C341.641 847.272 431.704 863.399 541.458 857.647Z" fill="url(#paint14_linear)" stroke="#979797" stroke-width="0.5"/>
<path opacity="0.9026" d="M527.424 833.895C582.301 831.019 626.237 818.181 625.557 805.22C624.878 792.259 579.841 784.083 524.964 786.959C470.087 789.835 426.151 802.674 426.83 815.635C427.509 828.595 472.547 836.771 527.424 833.895Z" fill="url(#paint15_linear)"/>
<path opacity="0.3" d="M113.667 709.653C4.58145 723.047 -86.387 713.242 -89.5167 687.752C-92.6465 662.262 -6.7524 630.741 102.333 617.347C211.418 603.953 302.387 613.758 305.517 639.248C308.646 664.738 222.752 696.259 113.667 709.653Z" fill="url(#paint16_linear)"/>
<path opacity="0.3" d="M89.6669 717.653C-19.4186 731.047 -110.387 721.242 -113.517 695.752C-116.646 670.262 -30.7524 638.741 78.333 625.347C187.418 611.953 278.387 621.758 281.517 647.248C284.646 672.738 198.752 704.259 89.6669 717.653Z" fill="url(#paint17_linear)"/>
<path opacity="0.6" d="M99.3638 691.825C44.8211 698.522 -0.676761 693.508 -2.25847 680.626C-3.84017 667.744 39.0932 651.872 93.6359 645.175C148.179 638.478 193.677 643.492 195.258 656.374C196.84 669.256 153.907 685.128 99.3638 691.825Z" fill="url(#paint18_linear)"/>
<path opacity="0.3" d="M386.273 577.746C410.715 575.177 430.084 568.864 429.536 563.646C428.988 558.428 408.729 556.281 384.287 558.85C359.845 561.419 340.475 567.731 341.024 572.949C341.572 578.167 361.831 580.315 386.273 577.746Z" fill="url(#paint19_linear)"/>
<path opacity="0.3" d="M1367.05 815.153C1437.46 816.382 1494.77 803.501 1495.07 786.383C1495.37 769.265 1438.54 754.391 1368.13 753.162C1297.73 751.934 1240.41 764.814 1240.11 781.933C1239.81 799.051 1296.65 813.924 1367.05 815.153Z" fill="url(#paint20_linear)"/>
<path opacity="0.2" d="M788.527 744.446C912.515 744.446 1013.03 737.506 1013.03 728.946C1013.03 720.385 912.515 713.446 788.527 713.446C664.539 713.446 564.027 720.385 564.027 728.946C564.027 737.506 664.539 744.446 788.527 744.446Z" fill="url(#paint21_linear)"/>
<path fill-rule="evenodd" clip-rule="evenodd" d="M737.353 403.982C761.009 409.857 777.619 431.096 777.619 455.471V705.21H697.087V455.471C697.087 431.096 713.696 409.857 737.353 403.982Z" fill="url(#paint22_linear)"/>
<path opacity="0.2" d="M737.352 448.204C748.324 446.728 757.779 450.331 765.715 459.014C773.651 467.697 777.619 480.02 777.619 495.982V705.21L737.352 580.766V448.204Z" fill="#641588"/>
<path fill-rule="evenodd" clip-rule="evenodd" d="M698.05 500.401C709.617 500.401 718.994 509.778 718.994 521.345V723.911H677.107V521.345C677.107 509.778 686.484 500.401 698.05 500.401Z" fill="url(#paint23_linear)"/>
<path d="M723.484 723.195H672.484V728.195H723.484V723.195Z" fill="#6943C6"/>
<path d="M801.484 723.195H750.484V728.195H801.484V723.195Z" fill="#6943C6"/>
<path opacity="0.2" d="M713.426 507.419L678.426 527.958" stroke="#033E43" stroke-width="3" stroke-linecap="round"/>
<path opacity="0.1" d="M713.426 514.419L678.426 534.958" stroke="#033E43" stroke-width="3" stroke-linecap="round"/>
<path opacity="0.2" d="M697.426 500.419V722.958" stroke="white" stroke-width="3"/>
<path opacity="0.1" d="M722.484 630.195H676.484V639.195H722.484V630.195Z" fill="#E4E0DE"/>
<path opacity="0.1" d="M722.484 558.195H676.484V567.195H722.484V558.195Z" fill="#E4E0DE"/>
<path fill-rule="evenodd" clip-rule="evenodd" d="M776.05 500.401C787.617 500.401 796.994 509.778 796.994 521.345V723.911H755.107V521.345C755.107 509.778 764.484 500.401 776.05 500.401Z" fill="url(#paint24_linear)"/>
<path opacity="0.2" d="M777.426 500.419V723.958" stroke="white" stroke-width="3"/>
<path opacity="0.1" d="M797.484 630.195H751.484V639.195H797.484V630.195Z" fill="#E4E0DE"/>
<path opacity="0.1" d="M797.484 558.195H751.484V567.195H797.484V558.195Z" fill="#E4E0DE"/>
<path d="M711.328 713.845H763.378V728.415H711.328V713.845Z" fill="url(#paint25_linear)"/>
<path opacity="0.1" d="M711.328 713.845H722.378V728.415H711.328V713.845Z" fill="white"/>
<path d="M721.995 622.626L661.913 687.276V715.736H721.589L721.995 622.626Z" fill="url(#paint26_linear)"/>
<path d="M706.426 710.505H667.426V716.505H706.426V710.505Z" fill="url(#paint27_linear)"/>
<path d="M752.71 622.626L812.792 687.276V715.736H753.117L752.71 622.626Z" fill="url(#paint28_linear)"/>
<path d="M809.426 710.505H770.426V716.505H809.426V710.505Z" fill="url(#paint29_linear)"/>
<mask id="mask2" mask-type="alpha" maskUnits="userSpaceOnUse" x="702" y="448" width="70" height="270">
<path d="M713.959 476.989C720.367 457.942 728.164 448.419 737.352 448.419C746.54 448.419 754.338 457.942 760.747 476.989L771.735 717.546H702.97L713.959 476.989Z" fill="white"/>
</mask>
<g mask="url(#mask2)">
<path d="M713.959 476.989C720.367 457.942 728.164 448.419 737.352 448.419C746.54 448.419 754.338 457.942 760.747 476.989L771.735 717.546H702.97L713.959 476.989Z" fill="url(#paint30_linear)"/>
<path d="M725.328 445.419H750.328V717.419H725.328V445.419Z" fill="url(#paint31_linear)"/>
<path d="M736.828 455.419C742.627 455.419 747.328 452.061 747.328 447.919C747.328 443.777 742.627 440.419 736.828 440.419C731.029 440.419 726.328 443.777 726.328 447.919C726.328 452.061 731.029 455.419 736.828 455.419Z" fill="#E3DFDD"/>
</g>
<path d="M732.316 464.362H743.277C747.229 464.362 750.433 467.566 750.433 471.518C750.433 473.125 749.13 474.428 747.523 474.428C746.866 474.428 746.228 474.206 745.714 473.797C743.09 471.715 740.462 470.674 737.828 470.674C735.187 470.674 732.544 471.72 729.899 473.812C728.631 474.814 726.792 474.599 725.79 473.332C725.382 472.816 725.16 472.176 725.16 471.518C725.16 467.566 728.364 464.362 732.316 464.362Z" fill="url(#paint32_linear)"/>
<path opacity="0.4" d="M741.249 662.463L770.573 690.761L771.522 717.45H741.249V662.463Z" fill="#AFA19E"/>
<path d="M737.353 659.958C739.838 659.958 741.852 661.973 741.852 664.458V732.863H732.853V664.458C732.853 661.973 734.868 659.958 737.353 659.958Z" fill="#F6FAFC"/>
<path fill-rule="evenodd" clip-rule="evenodd" d="M809.772 670.153C811.593 670.153 813.069 671.629 813.069 673.45V720.384H806.475V673.45C806.475 671.629 807.951 670.153 809.772 670.153Z" fill="#F6FAFC"/>
<path opacity="0.2" d="M737.426 405.419V451.958" stroke="#E7ECF8" stroke-width="3"/>
<path fill-rule="evenodd" clip-rule="evenodd" d="M664.722 670.153C666.543 670.153 668.019 671.629 668.019 673.45V720.384H661.426V673.45C661.426 671.629 662.902 670.153 664.722 670.153Z" fill="#F6FAFC"/>
<path d="M713 508H621V511H713V508Z" fill="url(#paint33_linear)"/>
<path d="M621 628H707V631H621V628Z" fill="url(#paint34_linear)"/>
<path opacity="0.5" d="M621 635H707V638H621V635Z" fill="url(#paint35_linear)"/>
<path opacity="0.5" d="M713 515H621V518H713V515Z" fill="url(#paint36_linear)"/>
<path d="M614.533 395C614.795 395 615.007 395.212 615.007 395.474V437.178C615.007 437.44 614.795 437.653 614.533 437.653C614.271 437.653 614.058 437.44 614.058 437.178V395.474C614.058 395.212 614.271 395 614.533 395Z" fill="url(#paint37_linear)"/>
<path d="M614.04 425.633H614.96C618.848 425.633 622 428.785 622 432.673V726.856C622 727.633 621.37 728.264 620.592 728.264H608.408C607.63 728.264 607 727.633 607 726.856V432.673C607 428.785 610.152 425.633 614.04 425.633Z" fill="url(#paint38_linear)"/>
<path d="M632 724H597V729H632V724Z" fill="#CDC1BE"/>
<path opacity="0.3" d="M611.5 432.633C612.328 432.633 613 433.305 613 434.133V722.856C613 723.633 612.37 724.264 611.592 724.264H611.408C610.63 724.264 610 723.633 610 722.856V434.133C610 433.305 610.672 432.633 611.5 432.633Z" fill="white"/>
<path opacity="0.3" d="M888.807 741.678C906.278 741.678 920.441 739.135 920.441 735.998C920.441 732.862 906.278 730.319 888.807 730.319C871.336 730.319 857.173 732.862 857.173 735.998C857.173 739.135 871.336 741.678 888.807 741.678Z" fill="url(#paint39_linear)"/>
<path d="M893.483 715.124C893.664 715.684 893.583 716.296 893.263 716.791C891.771 719.095 892.429 722.173 894.734 723.666C894.876 723.758 895.023 723.842 895.173 723.919C896.136 724.411 896.518 725.591 896.026 726.554C895.757 727.078 895.268 727.454 894.692 727.578C892.007 728.152 890.296 730.794 890.87 733.479C890.906 733.644 890.95 733.808 891.002 733.969C891.335 734.998 890.77 736.102 889.741 736.434C889.181 736.616 888.569 736.535 888.074 736.215C885.77 734.723 882.692 735.381 881.2 737.686C881.108 737.828 881.023 737.974 880.946 738.125C880.454 739.088 879.274 739.469 878.311 738.977C877.787 738.709 877.411 738.219 877.288 737.643C876.713 734.959 874.071 733.248 871.386 733.822C871.221 733.858 871.057 733.901 870.896 733.953C869.867 734.286 868.764 733.722 868.431 732.693C868.249 732.133 868.33 731.52 868.65 731.026C870.142 728.721 869.484 725.643 867.179 724.151C867.037 724.059 866.891 723.975 866.74 723.898C865.777 723.405 865.396 722.226 865.888 721.263C866.156 720.738 866.646 720.362 867.222 720.239C869.907 719.665 871.617 717.023 871.043 714.338C871.008 714.173 870.964 714.009 870.912 713.848C870.579 712.819 871.143 711.715 872.172 711.382C872.733 711.201 873.345 711.282 873.839 711.602C876.144 713.094 879.222 712.436 880.714 710.131C880.806 709.989 880.89 709.842 880.967 709.692C881.46 708.729 882.639 708.347 883.602 708.84C884.127 709.108 884.503 709.597 884.626 710.173C885.2 712.858 887.842 714.569 890.527 713.995C890.692 713.959 890.856 713.915 891.017 713.863C892.046 713.531 893.15 714.095 893.483 715.124ZM882.958 720.754C881.098 719.68 878.72 720.317 877.647 722.177C876.573 724.036 877.21 726.414 879.07 727.488C880.929 728.562 883.307 727.924 884.381 726.065C885.454 724.205 884.817 721.827 882.958 720.754Z" fill="url(#paint40_linear)"/>
<path d="M891.181 713.795C891.363 714.356 891.282 714.968 890.962 715.462C889.47 717.767 890.128 720.845 892.433 722.337C892.575 722.429 892.721 722.514 892.872 722.591C893.835 723.083 894.217 724.262 893.724 725.225C893.456 725.75 892.966 726.126 892.39 726.249C889.706 726.823 887.995 729.465 888.569 732.15C888.605 732.316 888.648 732.479 888.7 732.64C889.033 733.669 888.469 734.773 887.44 735.106C886.88 735.287 886.267 735.206 885.773 734.886C883.468 733.394 880.391 734.053 878.898 736.357C878.806 736.499 878.722 736.646 878.645 736.796C878.152 737.759 876.973 738.141 876.01 737.649C875.485 737.38 875.11 736.891 874.986 736.315C874.412 733.63 871.77 731.919 869.085 732.494C868.92 732.529 868.756 732.573 868.595 732.625C867.566 732.958 866.462 732.393 866.129 731.364C865.948 730.804 866.029 730.192 866.349 729.697C867.841 727.393 867.183 724.315 864.878 722.823C864.736 722.731 864.589 722.646 864.439 722.569C863.476 722.077 863.094 720.897 863.587 719.934C863.855 719.41 864.345 719.034 864.92 718.911C867.605 718.336 869.316 715.694 868.742 713.009C868.706 712.844 868.662 712.68 868.61 712.519C868.278 711.491 868.842 710.387 869.871 710.054C870.431 709.872 871.043 709.953 871.538 710.273C873.842 711.765 876.92 711.107 878.413 708.802C878.505 708.66 878.589 708.514 878.666 708.363C879.158 707.4 880.338 707.019 881.301 707.511C881.825 707.779 882.201 708.269 882.325 708.845C882.899 711.53 885.541 713.24 888.226 712.666C888.391 712.631 888.555 712.587 888.716 712.535C889.745 712.202 890.849 712.766 891.181 713.795ZM880.656 719.425C878.797 718.351 876.419 718.989 875.345 720.848C874.272 722.708 874.909 725.086 876.768 726.159C878.628 727.233 881.006 726.596 882.079 724.736C883.153 722.877 882.516 720.499 880.656 719.425Z" fill="url(#paint41_linear)"/>
<path opacity="0.2" d="M846.125 694.939C858.624 694.721 868.715 692.225 868.665 689.365C868.615 686.505 858.443 684.363 845.944 684.581C833.446 684.8 823.355 687.295 823.404 690.155C823.454 693.015 833.627 695.157 846.125 694.939Z" fill="url(#paint42_linear)"/>
<path d="M839.879 689.877C836.014 689.809 832.907 688.188 832.941 686.255C832.975 684.322 836.136 682.81 840.001 682.878C843.867 682.945 846.973 684.567 846.939 686.499C846.905 688.432 843.744 689.944 839.879 689.877Z" stroke="#787671" stroke-width="4"/>
<path opacity="0.3" d="M1006.79 748.1C961.717 747.313 925.233 743.238 925.307 738.997C925.382 734.757 961.985 731.957 1007.06 732.744C1052.14 733.531 1088.62 737.606 1088.55 741.847C1088.48 746.087 1051.87 748.887 1006.79 748.1Z" fill="url(#paint43_linear)"/>
<path fill-rule="evenodd" clip-rule="evenodd" d="M1005.32 562.552L982.346 557.123C976.971 555.852 971.584 559.18 970.314 564.555C970.109 565.422 970.02 566.314 970.052 567.205L972.766 644.716L997.551 651.241C1004.92 653.181 1012.47 648.779 1014.41 641.409C1014.69 640.341 1014.84 639.242 1014.86 638.137L1015.94 576.222C1016.05 569.734 1011.63 564.045 1005.32 562.552Z" fill="url(#paint44_linear)"/>
<mask id="mask3" mask-type="alpha" maskUnits="userSpaceOnUse" x="960" y="564" width="52" height="179">
<path d="M987.142 565.785C995.842 567.886 1003.41 570.444 1005.43 573.938C1006.31 575.472 1003.52 583.519 1004.16 590.762C1004.49 594.524 1003.53 606.069 1000.16 606.01C999.891 606.006 999.648 605.999 999.434 605.989L999.427 605.988L999.444 606.139C1000.58 616.527 1001.39 624.81 1001.89 630.988L1002.2 633.074C1002.19 633.561 1002.17 634.046 1002.15 634.529C1002.54 640.115 1002.57 643.374 1002.25 644.306C1002.16 644.554 1002.02 644.772 1001.84 644.962C1001.42 660.108 1001.25 672.827 1001.33 683.118C1001.42 695.787 1000.33 712.476 998.036 733.186C1005.1 736.133 1008.64 738.595 1008.67 740.574C1008.7 743.8 1002.69 742.569 997.961 740.636C994.809 739.347 992.965 738.565 992.427 738.29L991.088 738.236C990.235 738.201 989.548 737.522 989.503 736.669L989.327 733.32C989.295 733.275 989.268 733.229 989.246 733.181C985.156 675.831 982.261 646.884 980.562 646.34C978.869 645.797 980.312 674.341 984.889 731.97L985.473 731.944L985.109 736.876C985.045 737.747 984.314 738.419 983.441 738.409L982.001 738.393C981.43 738.64 979.476 739.328 976.137 740.457C971.129 742.149 964.778 743.068 964.88 739.829C964.945 737.776 968.967 735.404 976.947 732.711L977.068 733.181C970.508 707.558 966.585 689.354 965.298 678.568C964.007 667.744 963.414 652.083 963.283 640.683C963.231 640.651 963.18 640.619 963.13 640.586C962.462 640.151 962.537 636.292 963.353 629.008C963.367 628.637 963.382 628.299 963.399 627.993C963.665 623.055 964.112 619.219 964.738 616.487L964.994 616.483C965.85 610.545 966.943 603.513 968.274 595.385C969.241 578.166 970.283 569.16 971.399 568.367C975.275 565.615 978.441 563.685 987.142 565.785ZM999.366 605.426C997.913 605.723 997.884 605.909 999.279 605.982L999.427 605.988L999.366 605.426Z" fill="white"/>
</mask>
<g mask="url(#mask3)">
<path d="M987.142 565.785C995.842 567.886 1003.41 570.444 1005.43 573.938C1006.31 575.472 1003.52 583.519 1004.16 590.762C1004.49 594.524 1003.53 606.069 1000.16 606.01C999.891 606.006 999.648 605.999 999.434 605.989L999.427 605.988L999.444 606.139C1000.58 616.527 1001.39 624.81 1001.89 630.988L1002.2 633.074C1002.19 633.561 1002.17 634.046 1002.15 634.529C1002.54 640.115 1002.57 643.374 1002.25 644.306C1002.16 644.554 1002.02 644.772 1001.84 644.962C1001.42 660.108 1001.25 672.827 1001.33 683.118C1001.42 695.787 1000.33 712.476 998.036 733.186C1005.1 736.133 1008.64 738.595 1008.67 740.574C1008.7 743.8 1002.69 742.569 997.961 740.636C994.809 739.347 992.965 738.565 992.427 738.29L991.088 738.236C990.235 738.201 989.548 737.522 989.503 736.669L989.327 733.32C989.295 733.275 989.268 733.229 989.246 733.181C985.156 675.831 982.261 646.884 980.562 646.34C978.869 645.797 980.312 674.341 984.889 731.97L985.473 731.944L985.109 736.876C985.045 737.747 984.314 738.419 983.441 738.409L982.001 738.393C981.43 738.64 979.476 739.328 976.137 740.457C971.129 742.149 964.778 743.068 964.88 739.829C964.945 737.776 968.967 735.404 976.947 732.711L977.068 733.181C970.508 707.558 966.585 689.354 965.298 678.568C964.007 667.744 963.414 652.083 963.283 640.683C963.231 640.651 963.18 640.619 963.13 640.586C962.462 640.151 962.537 636.292 963.353 629.008C963.367 628.637 963.382 628.299 963.399 627.993C963.665 623.055 964.112 619.219 964.738 616.487L964.994 616.483C965.85 610.545 966.943 603.513 968.274 595.385C969.241 578.166 970.283 569.16 971.399 568.367C975.275 565.615 978.441 563.685 987.142 565.785ZM999.366 605.426C997.913 605.723 997.884 605.909 999.279 605.982L999.427 605.988L999.366 605.426Z" fill="url(#paint45_linear)"/>
<path fill-rule="evenodd" clip-rule="evenodd" d="M970.639 715.88L985.395 715.88L986.726 740.422L966.584 746.868L960.2 738.315L971.857 727.013L970.639 715.88Z" fill="url(#paint46_linear)"/>
<path fill-rule="evenodd" clip-rule="evenodd" d="M1003.1 715.993L988.357 715.478L986.171 739.958L1006.08 747.104L1012.75 738.778L1001.5 727.076L1003.1 715.993Z" fill="url(#paint47_linear)"/>
</g>
<g opacity="0.3">
<path opacity="0.3" d="M982.965 570.904C981.386 581.854 980.406 590.104 980.023 595.656C979.641 601.207 979.641 607.197 980.023 613.626" stroke="#431E30"/>
</g>
<mask id="mask4" mask-type="alpha" maskUnits="userSpaceOnUse" x="973" y="544" width="17" height="27">
<path d="M974.008 544.643L973.773 558.119C973.739 560.048 975.273 561.639 977.202 561.677L981.948 561.769L980.83 567.356L982.891 570.455L989.683 567.356L989.314 560.376L988.574 546.78L974.008 544.643Z" fill="white"/>
</mask>
<g mask="url(#mask4)">
<path d="M974.008 544.643L973.773 558.119C973.739 560.048 975.273 561.639 977.202 561.677L981.948 561.769L980.83 567.356L982.891 570.455L989.683 567.356L989.314 560.376L988.574 546.78L974.008 544.643Z" fill="#DDBAAA"/>
<path opacity="0.3" d="M980.839 561.716L982.965 561.753L978.879 567.966L978.765 563.94L980.839 561.716Z" fill="#462F41"/>
</g>
<mask id="mask5" mask-type="alpha" maskUnits="userSpaceOnUse" x="970" y="540" width="24" height="22">
<path d="M984.556 549.739C984.77 550.586 984.29 551.966 984.505 552.663C985.369 555.474 987.043 559.784 988.089 560.693C989.428 561.856 988.086 561.506 989.406 560.709C990.726 559.913 995.956 548.423 991.55 545.827C991.022 541.277 989.49 540.066 981.637 541.113C978.643 541.512 976.76 540.479 971.997 540.396C967.233 540.313 973.274 547.683 984.556 549.739Z" fill="white"/>
</mask>
<g mask="url(#mask5)">
<path d="M984.556 549.739C984.77 550.586 984.29 551.966 984.505 552.663C985.369 555.474 987.043 559.784 988.089 560.693C989.428 561.856 988.086 561.506 989.406 560.709C990.726 559.913 995.956 548.423 991.55 545.827C991.022 541.277 989.49 540.066 981.637 541.113C978.643 541.512 976.76 540.479 971.997 540.396C967.233 540.313 973.274 547.683 984.556 549.739Z" fill="#02272A"/>
<path opacity="0.8" d="M972.453 544.784L982.34 547.369C986.485 548.453 989.597 551.885 990.273 556.116L991.723 565.208L972.817 560.867L972.453 544.784Z" fill="#000606"/>
<path d="M992.756 545.464C988.077 542.367 981.95 541.819 974.374 543.82C968.81 545.29 964.868 543.514 962.549 538.492L961.953 540.403C972.584 538.275 979.79 537.209 983.572 537.206C987.125 537.204 991.385 537.151 992.869 539.021C992.932 539.101 992.895 541.249 992.756 545.464Z" fill="#063C41"/>
</g>
<path d="M988.886 585.831C990.057 585.852 991.027 584.678 991.052 583.21C991.078 581.743 990.15 580.536 988.979 580.516C987.808 580.495 986.838 581.669 986.812 583.136C986.787 584.604 987.715 585.811 988.886 585.831Z" fill="#DE6350"/>
<path opacity="0.23" d="M999.396 605.439C998.332 598.85 998.431 593.186 999.692 588.446" stroke="white" stroke-width="1.20544" stroke-linecap="round"/>
<mask id="mask6" mask-type="alpha" maskUnits="userSpaceOnUse" x="938" y="569" width="33" height="40">
<path d="M970.846 569.681L958.488 593.491L949.242 585.868C947.406 584.515 946.104 583.836 945.335 583.834C940.754 583.821 937.367 585.868 938.686 586.371C940.005 586.873 944.353 585.114 943.556 587.598C943.025 589.254 943.993 590.279 946.461 590.674C955.165 603.807 960.013 609.479 961.004 607.691C961.995 605.903 964.895 601.169 969.703 593.491L970.846 569.681Z" fill="url(#paint48_linear)"/>
</mask>
<g mask="url(#mask6)">
<path d="M970.846 569.681L958.488 593.491L949.242 585.868C947.406 584.515 946.104 583.836 945.335 583.834C940.754 583.821 937.367 585.868 938.686 586.371C940.005 586.873 944.353 585.114 943.556 587.598C943.025 589.254 943.993 590.279 946.461 590.674C955.165 603.807 960.013 609.479 961.004 607.691C961.995 605.903 964.895 601.169 969.703 593.491L970.846 569.681Z" fill="url(#paint49_linear)"/>
<path fill-rule="evenodd" clip-rule="evenodd" d="M952.505 585.868L948.316 595.608L937.036 593.22L937.036 583.173L948.316 579.537L952.505 585.868Z" fill="url(#paint50_linear)"/>
</g>
<mask id="mask7" mask-type="alpha" maskUnits="userSpaceOnUse" x="986" y="571" width="23" height="80">
<path d="M998.512 613.664L991.546 639.903C988.383 640.367 986.801 640.858 986.801 641.374C986.801 642.148 990.053 642.651 989.862 643.027C988.065 646.549 986.139 649.058 986.801 649.512C987.454 649.96 988.898 648.406 991.133 644.85C989.383 648.063 988.96 649.841 989.862 650.184C991.68 650.876 994.081 648.49 997.065 643.026C1003.4 626.812 1006.81 617.784 1007.27 615.942C1007.74 614.101 1007.74 602.281 1007.27 580.485C1006.01 574.464 1004.84 571.493 1003.77 571.571C1003.02 571.627 999.077 570.159 997.065 579.333C996.493 581.941 996.975 593.385 998.512 613.664Z" fill="url(#paint51_linear)"/>
</mask>
<g mask="url(#mask7)">
<path d="M998.512 613.664L991.546 639.903C988.383 640.367 986.801 640.858 986.801 641.374C986.801 642.148 990.053 642.651 989.862 643.027C988.065 646.549 986.139 649.058 986.801 649.512C987.454 649.96 988.898 648.406 991.133 644.85C989.383 648.063 988.96 649.841 989.862 650.184C991.68 650.876 994.081 648.49 997.065 643.026C1003.4 626.812 1006.81 617.784 1007.27 615.942C1007.74 614.101 1007.74 602.281 1007.27 580.485C1006.01 574.464 1004.84 571.493 1003.77 571.571C1003.02 571.627 999.077 570.159 997.065 579.333C996.493 581.941 996.975 593.385 998.512 613.664Z" fill="url(#paint52_linear)"/>
<path fill-rule="evenodd" clip-rule="evenodd" d="M992.874 631.736L1001.32 637.876L995.627 648.576L990.682 652.359L984.158 650.587L984.158 639.873L988.932 633.149L992.874 631.736Z" fill="url(#paint53_linear)"/>
</g>
<path opacity="0.3" d="M983.485 577.119C969.143 576.868 957.72 565.004 957.971 550.618C958.223 536.233 970.053 524.774 984.395 525.025C998.737 525.275 1010.16 537.14 1009.91 551.525C1009.66 565.91 997.827 577.369 983.485 577.119Z" fill="#FFF4DB"/>
<path opacity="0.5" d="M985.274 531.96C995.368 532.136 1003.41 540.476 1003.23 550.588" stroke="#FFFAF0" stroke-width="2.35872"/>
<path opacity="0.4" fill-rule="evenodd" clip-rule="evenodd" d="M830 556H937C937.552 556 938 556.448 938 557V628C938 628.552 937.552 629 937 629H830C829.448 629 829 628.552 829 628V557C829 556.448 829.448 556 830 556Z" fill="#EDF1FA"/>
<path opacity="0.7" fill-rule="evenodd" clip-rule="evenodd" d="M832 556H937C937.552 556 938 556.448 938 557V628C938 628.552 937.552 629 937 629H832C831.448 629 831 628.552 831 628V557C831 556.448 831.448 556 832 556Z" fill="#EDF1FA"/>
<path fill-rule="evenodd" clip-rule="evenodd" d="M938 559.4V628C938 628.552 937.552 629 937 629H892.833C892.281 629 891.833 628.552 891.833 628C891.833 627.808 891.888 627.62 891.992 627.459L936.159 558.859C936.458 558.395 937.077 558.261 937.541 558.56C937.827 558.744 938 559.06 938 559.4Z" fill="url(#paint54_linear)"/>
<path d="M844.264 591.902C843.16 591.902 842.324 591.614 841.756 591.038C841.188 590.462 840.904 589.614 840.904 588.494V583.346H841.876V588.578C841.876 589.402 842.076 590.022 842.476 590.438C842.884 590.854 843.48 591.062 844.264 591.062C845.048 591.062 845.64 590.854 846.04 590.438C846.44 590.022 846.64 589.402 846.64 588.578V583.346H847.624V588.494C847.624 589.606 847.336 590.454 846.76 591.038C846.192 591.614 845.36 591.902 844.264 591.902ZM852.944 585.818C854.344 585.818 855.044 586.59 855.044 588.134V591.806H854.072V588.194C854.072 587.65 853.964 587.254 853.748 587.006C853.54 586.758 853.204 586.634 852.74 586.634C852.204 586.634 851.776 586.798 851.456 587.126C851.136 587.454 850.976 587.898 850.976 588.458V591.806H850.004V585.962H850.964V586.922C851.156 586.562 851.424 586.29 851.768 586.106C852.112 585.914 852.504 585.818 852.944 585.818ZM862.22 589.034H857.948C857.98 589.714 858.164 590.23 858.5 590.582C858.836 590.926 859.312 591.098 859.928 591.098C860.608 591.098 861.232 590.866 861.8 590.402L862.124 591.11C861.868 591.35 861.54 591.542 861.14 591.686C860.74 591.822 860.332 591.89 859.916 591.89C859.004 591.89 858.284 591.622 857.756 591.086C857.236 590.55 856.976 589.81 856.976 588.866C856.976 588.266 857.092 587.738 857.324 587.282C857.556 586.818 857.88 586.458 858.296 586.202C858.72 585.946 859.2 585.818 859.736 585.818C860.512 585.818 861.12 586.074 861.56 586.586C862 587.09 862.22 587.786 862.22 588.674V589.034ZM859.748 586.574C859.236 586.574 858.824 586.734 858.512 587.054C858.208 587.374 858.028 587.826 857.972 588.41H861.368C861.352 587.818 861.204 587.366 860.924 587.054C860.644 586.734 860.252 586.574 859.748 586.574ZM869.278 591.806H868.102L866.278 589.526L864.466 591.806H863.278L865.702 588.794L863.422 585.962H864.598L866.278 588.086L867.958 585.962H869.146L866.854 588.794L869.278 591.806ZM873.721 585.818C874.233 585.818 874.685 585.946 875.077 586.202C875.469 586.458 875.773 586.818 875.989 587.282C876.205 587.738 876.313 588.27 876.313 588.878C876.313 589.486 876.205 590.018 875.989 590.474C875.773 590.922 875.469 591.27 875.077 591.518C874.693 591.766 874.241 591.89 873.721 591.89C873.265 591.89 872.865 591.79 872.521 591.59C872.185 591.39 871.929 591.106 871.753 590.738V593.966H870.781V585.962H871.753V586.97C871.929 586.602 872.185 586.318 872.521 586.118C872.865 585.918 873.265 585.818 873.721 585.818ZM873.529 591.086C874.097 591.086 874.537 590.894 874.849 590.51C875.161 590.126 875.317 589.582 875.317 588.878C875.317 588.174 875.161 587.626 874.849 587.234C874.537 586.834 874.097 586.634 873.529 586.634C872.961 586.634 872.521 586.826 872.209 587.21C871.905 587.594 871.753 588.142 871.753 588.854C871.753 589.566 871.905 590.118 872.209 590.51C872.521 590.894 872.961 591.086 873.529 591.086ZM883.161 589.034H878.889C878.921 589.714 879.105 590.23 879.441 590.582C879.777 590.926 880.253 591.098 880.869 591.098C881.549 591.098 882.173 590.866 882.741 590.402L883.065 591.11C882.809 591.35 882.481 591.542 882.081 591.686C881.681 591.822 881.273 591.89 880.857 591.89C879.945 591.89 879.225 591.622 878.697 591.086C878.177 590.55 877.917 589.81 877.917 588.866C877.917 588.266 878.033 587.738 878.265 587.282C878.497 586.818 878.821 586.458 879.237 586.202C879.661 585.946 880.141 585.818 880.677 585.818C881.453 585.818 882.061 586.074 882.501 586.586C882.941 587.09 883.161 587.786 883.161 588.674V589.034ZM880.689 586.574C880.177 586.574 879.765 586.734 879.453 587.054C879.149 587.374 878.969 587.826 878.913 588.41H882.309C882.293 587.818 882.145 587.366 881.865 587.054C881.585 586.734 881.193 586.574 880.689 586.574ZM887.566 591.89C886.99 591.89 886.49 591.766 886.066 591.518C885.642 591.27 885.314 590.922 885.082 590.474C884.858 590.018 884.746 589.486 884.746 588.878C884.746 588.27 884.862 587.738 885.094 587.282C885.334 586.818 885.666 586.458 886.09 586.202C886.522 585.946 887.026 585.818 887.602 585.818C887.994 585.818 888.378 585.89 888.754 586.034C889.13 586.17 889.434 586.354 889.666 586.586L889.342 587.306C888.79 586.858 888.23 586.634 887.662 586.634C887.062 586.634 886.594 586.83 886.258 587.222C885.922 587.614 885.754 588.166 885.754 588.878C885.754 589.582 885.922 590.126 886.258 590.51C886.594 590.894 887.062 591.086 887.662 591.086C888.23 591.086 888.79 590.862 889.342 590.414L889.666 591.134C889.418 591.366 889.106 591.55 888.73 591.686C888.354 591.822 887.966 591.89 887.566 591.89ZM893.916 591.11C894.092 591.11 894.268 591.098 894.444 591.074L894.396 591.842C894.212 591.874 894.012 591.89 893.796 591.89C893.092 591.89 892.56 591.706 892.2 591.338C891.848 590.97 891.672 590.458 891.672 589.802V586.73H890.532V585.962H891.672V584.186H892.644V585.962H894.3V586.73H892.644V589.73C892.644 590.65 893.068 591.11 893.916 591.11ZM900.822 589.034H896.55C896.582 589.714 896.766 590.23 897.102 590.582C897.438 590.926 897.914 591.098 898.53 591.098C899.21 591.098 899.834 590.866 900.402 590.402L900.726 591.11C900.47 591.35 900.142 591.542 899.742 591.686C899.342 591.822 898.934 591.89 898.518 591.89C897.606 591.89 896.886 591.622 896.358 591.086C895.838 590.55 895.578 589.81 895.578 588.866C895.578 588.266 895.694 587.738 895.926 587.282C896.158 586.818 896.482 586.458 896.898 586.202C897.322 585.946 897.802 585.818 898.338 585.818C899.114 585.818 899.722 586.074 900.162 586.586C900.602 587.09 900.822 587.786 900.822 588.674V589.034ZM898.35 586.574C897.838 586.574 897.426 586.734 897.114 587.054C896.81 587.374 896.63 587.826 896.574 588.41H899.97C899.954 587.818 899.806 587.366 899.526 587.054C899.246 586.734 898.854 586.574 898.35 586.574ZM907.938 583.346V591.806H906.966V590.738C906.79 591.106 906.53 591.39 906.186 591.59C905.85 591.79 905.454 591.89 904.998 591.89C904.486 591.89 904.034 591.762 903.642 591.506C903.25 591.25 902.946 590.894 902.73 590.438C902.514 589.974 902.406 589.438 902.406 588.83C902.406 588.23 902.514 587.702 902.73 587.246C902.946 586.79 903.25 586.438 903.642 586.19C904.034 585.942 904.486 585.818 904.998 585.818C905.454 585.818 905.85 585.918 906.186 586.118C906.53 586.318 906.79 586.602 906.966 586.97V583.346H907.938ZM905.19 591.086C905.758 591.086 906.194 590.894 906.498 590.51C906.81 590.118 906.966 589.566 906.966 588.854C906.966 588.142 906.81 587.594 906.498 587.21C906.194 586.826 905.758 586.634 905.19 586.634C904.622 586.634 904.178 586.826 903.858 587.21C903.546 587.594 903.39 588.134 903.39 588.83C903.39 589.542 903.546 590.098 903.858 590.498C904.178 590.89 904.622 591.086 905.19 591.086ZM840.964 598.346H846.316V599.162H841.936V602.102H846.076V602.918H841.936V605.99H846.316V606.806H840.964V598.346ZM851.617 601.658L850.981 601.718C850.381 601.774 849.945 601.962 849.673 602.282C849.409 602.602 849.277 602.998 849.277 603.47V606.806H848.305V600.962H849.253V601.982C849.581 601.302 850.225 600.922 851.185 600.842L851.533 600.818L851.617 601.658ZM856.347 601.658L855.711 601.718C855.111 601.774 854.675 601.962 854.403 602.282C854.139 602.602 854.007 602.998 854.007 603.47V606.806H853.035V600.962H853.983V601.982C854.311 601.302 854.955 600.922 855.915 600.842L856.263 600.818L856.347 601.658ZM860.072 606.89C859.52 606.89 859.032 606.766 858.608 606.518C858.192 606.27 857.868 605.918 857.636 605.462C857.412 604.998 857.3 604.462 857.3 603.854C857.3 603.246 857.412 602.714 857.636 602.258C857.868 601.794 858.192 601.438 858.608 601.19C859.032 600.942 859.52 600.818 860.072 600.818C860.624 600.818 861.112 600.942 861.536 601.19C861.96 601.438 862.284 601.794 862.508 602.258C862.74 602.714 862.856 603.246 862.856 603.854C862.856 604.462 862.74 604.998 862.508 605.462C862.284 605.918 861.96 606.27 861.536 606.518C861.112 606.766 860.624 606.89 860.072 606.89ZM860.072 606.086C860.648 606.086 861.088 605.898 861.392 605.522C861.704 605.138 861.86 604.582 861.86 603.854C861.86 603.142 861.704 602.594 861.392 602.21C861.08 601.818 860.64 601.622 860.072 601.622C859.504 601.622 859.064 601.818 858.752 602.21C858.44 602.594 858.284 603.142 858.284 603.854C858.284 604.574 858.436 605.126 858.74 605.51C859.052 605.894 859.496 606.086 860.072 606.086ZM868.117 601.658L867.481 601.718C866.881 601.774 866.445 601.962 866.173 602.282C865.909 602.602 865.777 602.998 865.777 603.47V606.806H864.805V600.962H865.753V601.982C866.081 601.302 866.725 600.922 867.685 600.842L868.033 600.818L868.117 601.658Z" fill="#090A2B"/>
<path d="M837.5 564C838.328 564 839 563.328 839 562.5C839 561.672 838.328 561 837.5 561C836.672 561 836 561.672 836 562.5C836 563.328 836.672 564 837.5 564Z" fill="#090A2B"/>
<path opacity="0.4" d="M843.5 564C844.328 564 845 563.328 845 562.5C845 561.672 844.328 561 843.5 561C842.672 561 842 561.672 842 562.5C842 563.328 842.672 564 843.5 564Z" fill="#090A2B"/>
<path opacity="0.4" d="M849.5 564C850.328 564 851 563.328 851 562.5C851 561.672 850.328 561 849.5 561C848.672 561 848 561.672 848 562.5C848 563.328 848.672 564 849.5 564Z" fill="#090A2B"/>
<path opacity="0.7" fill-rule="evenodd" clip-rule="evenodd" d="M893 525H945C945.552 525 946 525.448 946 526V561C946 561.552 945.552 562 945 562H893C892.448 562 892 561.552 892 561V526C892 525.448 892.448 525 893 525Z" fill="#EDF1FA"/>
<path d="M928 554H910V556H928V554Z" fill="white"/>
<path opacity="0.3" fill-rule="evenodd" clip-rule="evenodd" d="M849 641H880C880.552 641 881 641.448 881 642V662C881 662.552 880.552 663 880 663H849C848.448 663 848 662.552 848 662V642C848 641.448 848.448 641 849 641Z" fill="#EDF1FA"/>
<path d="M861 647H853V649H861V647Z" fill="white"/>
<path opacity="0.3" d="M867 652H853V654H867V652Z" fill="white"/>
<path opacity="0.5" fill-rule="evenodd" clip-rule="evenodd" d="M849 502H870C870.552 502 871 502.448 871 503V518C871 518.552 870.552 519 870 519H849C848.448 519 848 518.552 848 518V503C848 502.448 848.448 502 849 502Z" fill="#EDF1FA"/>
<path opacity="0.5" d="M859.5 514C861.433 514 863 512.433 863 510.5C863 508.567 861.433 507 859.5 507C857.567 507 856 508.567 856 510.5C856 512.433 857.567 514 859.5 514Z" fill="white"/>
<path opacity="0.3" d="M377.188 724.17C413.984 723.528 443.756 719.793 443.687 715.829C443.618 711.864 413.733 709.171 376.938 709.813C340.143 710.456 310.37 714.19 310.439 718.155C310.509 722.119 340.393 724.812 377.188 724.17Z" fill="url(#paint55_linear)"/>
<path opacity="0.2" d="M469.207 697.345C500.481 696.799 525.773 692.918 525.699 688.678C525.625 684.437 500.213 681.442 468.939 681.988C437.666 682.534 412.374 686.414 412.448 690.655C412.522 694.895 437.934 697.89 469.207 697.345Z" fill="url(#paint56_linear)"/>
<path opacity="0.2" d="M518.122 720.537C543.321 720.097 563.708 717.422 563.658 714.562C563.608 711.702 543.14 709.74 517.941 710.18C492.742 710.62 472.355 713.295 472.404 716.155C472.454 719.015 492.923 720.977 518.122 720.537Z" fill="url(#paint57_linear)"/>
<path opacity="0.2" d="M576.054 670.747C594.626 670.423 609.658 668.737 609.627 666.981C609.596 665.226 594.515 664.065 575.943 664.389C557.37 664.714 542.339 666.4 542.37 668.155C542.4 669.911 557.481 671.072 576.054 670.747Z" fill="url(#paint58_linear)"/>
<path opacity="0.1" d="M177.64 764.386C194.98 762.257 208.765 758.309 208.428 755.568C208.092 752.828 193.762 752.332 176.421 754.461C159.08 756.59 145.296 760.538 145.632 763.279C145.969 766.02 160.299 766.515 177.64 764.386Z" fill="url(#paint59_linear)"/>
<path opacity="0.3" d="M1146.86 714.421C1164.32 715.03 1178.55 713.287 1178.64 710.528C1178.74 707.768 1164.66 705.036 1147.2 704.427C1129.74 703.817 1115.51 705.56 1115.42 708.32C1115.32 711.079 1129.4 713.811 1146.86 714.421Z" fill="url(#paint60_linear)"/>
<path fill-rule="evenodd" clip-rule="evenodd" d="M570.974 536.355C581.593 537.778 592.316 535.439 603.142 529.338C605.376 526.082 606.879 524.365 607.651 524.187C608.423 524.009 608.104 525.303 606.694 528.067C607.625 532.035 607.793 534.127 607.201 534.343C606.331 534.661 605.329 534.926 604.197 535.137C592.398 539.289 583.293 541.829 576.881 542.757C567.263 544.148 555.045 534.22 570.974 536.355Z" fill="url(#paint61_linear)"/>
<path fill-rule="evenodd" clip-rule="evenodd" d="M541.909 531.892C543.95 530.357 559.668 535.232 570.815 535.539C578.247 535.744 588.232 533.709 600.771 529.436L603.817 536.691C588.971 542.702 579.494 546.107 575.386 546.905C569.224 548.103 541.067 545.068 537.98 541.829C534.893 538.59 539.868 533.427 541.909 531.892Z" fill="url(#paint62_linear)"/>
<path fill-rule="evenodd" clip-rule="evenodd" d="M518.305 511.325L541.749 514.08C547.234 514.725 551.158 519.694 550.513 525.179C550.409 526.065 550.187 526.932 549.853 527.759L520.792 599.668L495.27 597.322C487.681 596.624 482.095 589.907 482.793 582.318C482.894 581.218 483.127 580.134 483.486 579.089L503.647 520.537C505.76 514.403 511.861 510.568 518.305 511.325Z" fill="url(#paint63_linear)"/>
<mask id="mask8" mask-type="alpha" maskUnits="userSpaceOnUse" x="430" y="521" width="120" height="169">
<path d="M535.279 522.58C526.385 521.579 518.395 521.393 515.306 523.987C514.954 524.283 513.148 524.958 510.988 531.46C505.095 549.204 496.409 582.763 495.656 587.632L494.272 590.5L478.423 617.714C468.659 620.451 461.338 623.17 456.457 625.872C446.528 631.368 434.044 629.648 433.819 630.695C433.583 631.787 429.411 643.65 430.969 645.646C431.63 646.491 434.017 643.896 438.129 637.86C462.917 635.516 478.518 633.127 484.931 630.695C493.225 627.548 512.8 600.483 513.91 600.527C514.754 600.56 509.219 614.193 497.304 641.428C492.878 643.236 489.141 645.907 486.095 649.442C483.048 652.977 476.599 660.287 466.748 671.373C462.873 673.982 461.223 675.671 461.797 676.439C462.142 676.901 464.467 689.094 466.748 689.321C467.753 689.421 468.501 685.948 468.992 678.903C495.244 663.616 510.82 651.124 515.718 641.428C522.992 627.03 533.934 596.866 536.246 589.377L536.293 589.228C538.121 583.561 540.383 575.815 543.079 565.992C547.93 543.384 549.967 531.517 549.19 530.391C546.489 526.478 544.173 523.582 535.279 522.58Z" fill="white"/>
</mask>
<g mask="url(#mask8)">
<path d="M535.279 522.58C526.385 521.579 518.395 521.393 515.306 523.987C514.954 524.283 513.148 524.958 510.988 531.46C505.095 549.204 496.409 582.763 495.656 587.632L494.272 590.5L478.423 617.714C468.659 620.451 461.338 623.17 456.457 625.872C446.528 631.368 434.044 629.648 433.819 630.695C433.583 631.787 429.411 643.65 430.969 645.646C431.63 646.491 434.017 643.896 438.129 637.86C462.917 635.516 478.518 633.127 484.931 630.695C493.225 627.548 512.8 600.483 513.91 600.527C514.754 600.56 509.219 614.193 497.304 641.428C492.878 643.236 489.141 645.907 486.095 649.442C483.048 652.977 476.599 660.287 466.748 671.373C462.873 673.982 461.223 675.671 461.797 676.439C462.142 676.901 464.467 689.094 466.748 689.321C467.753 689.421 468.501 685.948 468.992 678.903C495.244 663.616 510.82 651.124 515.718 641.428C522.992 627.03 533.934 596.866 536.246 589.377L536.293 589.228C538.121 583.561 540.383 575.815 543.079 565.992C547.93 543.384 549.967 531.517 549.19 530.391C546.489 526.478 544.173 523.582 535.279 522.58Z" fill="url(#paint64_linear)"/>
<path fill-rule="evenodd" clip-rule="evenodd" d="M454.368 627.09L455.495 636.726L439.804 645.623L429.476 649.11L428.408 638.784L430.149 627.09L443.705 627.09L454.368 627.09Z" fill="url(#paint65_linear)"/>
<path fill-rule="evenodd" clip-rule="evenodd" d="M477.028 658.96L485.27 671.767L473.568 685.494L465.055 692.303L460.52 682.965L458.156 671.381L469.812 665.75L477.028 658.96Z" fill="url(#paint66_linear)"/>
<path opacity="0.3" d="M538.638 535.844C537.274 545.569 535.497 553.642 533.306 560.065C531.115 566.489 527.294 574.829 521.842 585.087" stroke="#431E30"/>
<path opacity="0.3" fill-rule="evenodd" clip-rule="evenodd" d="M548.261 535.844C534.439 542.084 523.772 545.684 516.263 546.644C508.753 547.604 505.24 547.604 505.723 546.644C506.58 542.501 507.305 539.499 507.9 537.637C508.495 535.776 509.553 533.197 511.075 529.901L548.261 535.844Z" fill="url(#paint67_linear)"/>
</g>
<mask id="mask9" mask-type="alpha" maskUnits="userSpaceOnUse" x="532" y="504" width="23" height="25">
<path d="M554.852 507.205L550.464 519.948C549.836 521.772 547.849 522.744 546.024 522.119L541.533 520.582L540.673 526.215L537.677 528.422L532.353 523.187L535.088 516.754L540.433 504.231L554.852 507.205Z" fill="white"/>
</mask>
<g mask="url(#mask9)">
<path d="M554.852 507.205L550.464 519.948C549.836 521.772 547.849 522.744 546.024 522.119L541.533 520.582L540.673 526.215L537.677 528.422L532.353 523.187L535.088 516.754L540.433 504.231L554.852 507.205Z" fill="#DDBAAA"/>
<path opacity="0.3" d="M542.593 520.912L540.583 520.22L542.297 527.456L543.781 523.711L542.593 520.912Z" fill="#462F41"/>
</g>
<mask id="mask10" mask-type="alpha" maskUnits="userSpaceOnUse" x="534" y="498" width="26" height="20">
<path d="M543.197 508.386C542.706 509.109 542.685 510.57 542.245 511.152C540.471 513.497 537.424 516.975 536.131 517.471C534.475 518.106 535.855 518.236 534.887 517.036C533.919 515.836 532.935 503.25 537.963 502.318C540.015 498.223 541.869 497.608 548.89 501.278C551.567 502.678 553.69 502.351 558.194 503.902C562.699 505.453 554.501 510.313 543.197 508.386Z" fill="white"/>
</mask>
<g mask="url(#mask10)">
<path d="M543.197 508.386C542.706 509.109 542.685 510.57 542.245 511.152C540.471 513.497 537.424 516.975 536.131 517.471C534.475 518.106 535.855 518.236 534.887 517.036C533.919 515.836 532.935 503.25 537.963 502.318C540.015 498.223 541.869 497.608 548.89 501.278C551.567 502.678 553.69 502.351 558.194 503.902C562.699 505.453 554.501 510.313 543.197 508.386Z" fill="#02272A"/>
<path opacity="0.8" d="M556.264 507.869L546.09 506.917C541.824 506.518 537.726 508.678 535.644 512.423L531.171 520.47L550.422 522.858L556.264 507.869Z" fill="#000606"/>
<path d="M536.953 501.564C542.409 500.254 548.354 501.835 554.789 506.307C559.515 509.591 563.827 509.27 567.723 505.344L567.63 507.344C558.368 501.708 551.96 498.242 548.408 496.946C545.07 495.728 541.085 494.221 539.051 495.472C538.964 495.525 538.265 497.556 536.953 501.564Z" fill="#063C41"/>
</g>
<path d="M525.784 546.821C524.677 546.44 524.166 545.005 524.644 543.617C525.122 542.229 526.407 541.413 527.515 541.794C528.622 542.175 529.132 543.609 528.654 544.998C528.176 546.386 526.891 547.202 525.784 546.821Z" fill="#DE6350"/>
<path opacity="0.3" d="M534.497 531.42C548.059 536.09 562.851 528.848 567.535 515.245C572.22 501.641 565.022 486.827 551.459 482.157C537.897 477.487 523.105 484.729 518.421 498.333C513.736 511.937 520.934 526.75 534.497 531.42Z" fill="#FFF4DB"/>
<path opacity="0.5" d="M548.261 488.373C538.715 485.086 528.308 490.174 525.015 499.736" stroke="#FFFAF0" stroke-width="2.35872"/>
<path fill-rule="evenodd" clip-rule="evenodd" d="M607.274 499.867C607.513 500.137 602.292 504.23 591.612 512.145L590.767 514.592L575.017 525.047C574.107 525.304 573.429 525.191 572.983 524.706C572.537 524.222 572.553 523.445 573.032 522.376L587.579 510.632L590.277 510.632C601.37 503.185 607.036 499.596 607.274 499.867Z" fill="url(#paint68_linear)"/>
<path fill-rule="evenodd" clip-rule="evenodd" d="M545.974 526.355C556.593 527.778 567.316 525.439 578.142 519.338C580.376 516.082 581.88 514.365 582.651 514.187C583.423 514.009 583.104 515.303 581.694 518.067C584.995 515.82 587.268 514.899 588.515 515.304C589.3 515.559 588.124 517.356 587.632 518.75C586.953 520.675 587.807 521.954 585.292 523.074C582.401 524.361 580.37 525.049 579.197 525.137C567.398 529.289 558.293 531.829 551.881 532.757C542.263 534.148 530.045 524.22 545.974 526.355Z" fill="url(#paint69_linear)"/>
<path fill-rule="evenodd" clip-rule="evenodd" d="M516.909 521.892C521.28 519.914 534.668 525.232 545.815 525.539C553.247 525.744 563.232 523.709 575.771 519.436L578.817 526.691C563.971 532.702 554.494 536.107 550.386 536.905C544.224 538.103 514.275 537.94 511.188 534.701C508.102 531.463 512.538 523.871 516.909 521.892Z" fill="url(#paint70_linear)"/>
<path d="M398.761 677.755C398.639 677.395 398.164 677.325 397.947 677.635L396.04 680.357C395.137 681.647 393.357 681.961 392.059 681.059L390.384 679.886C389.094 678.983 388.78 677.202 389.682 675.905L391.588 673.183C391.805 672.873 391.577 672.45 391.196 672.459C388.822 672.525 386.504 673.668 385.039 675.769C383.602 677.822 383.296 680.335 383.997 682.562C384.31 683.542 384.145 684.606 383.558 685.444L369.31 705.792C368.225 707.342 368.608 709.47 370.157 710.555C371.707 711.641 373.845 711.271 374.923 709.722L389.178 689.373C389.765 688.535 390.709 688.016 391.737 687.974C394.061 687.873 396.319 686.726 397.763 684.672C399.221 682.572 399.51 680.003 398.761 677.755ZM373.183 707.973C372.866 708.426 372.246 708.535 371.794 708.218C371.342 707.901 371.232 707.282 371.549 706.829L386.085 686.071C386.401 685.618 387.021 685.509 387.473 685.826C387.926 686.142 388.035 686.762 387.718 687.214L373.183 707.973Z" fill="#627489"/>
<path d="M397.761 676.755C397.639 676.395 397.164 676.325 396.947 676.635L395.04 679.357C394.137 680.647 392.357 680.961 391.059 680.059L389.384 678.886C388.094 677.983 387.78 676.202 388.682 674.905L390.588 672.183C390.805 671.873 390.577 671.45 390.196 671.459C387.822 671.525 385.504 672.668 384.039 674.769C382.602 676.822 382.296 679.335 382.997 681.562C383.31 682.542 383.145 683.606 382.558 684.444L368.31 704.792C367.225 706.342 367.608 708.47 369.157 709.555C370.707 710.641 372.845 710.271 373.923 708.722L388.178 688.373C388.765 687.535 389.709 687.016 390.737 686.974C393.061 686.873 395.319 685.726 396.763 683.672C398.221 681.572 398.51 679.003 397.761 676.755ZM372.183 706.973C371.866 707.426 371.246 707.535 370.794 707.218C370.342 706.901 370.232 706.282 370.549 705.829L385.085 685.071C385.401 684.618 386.021 684.509 386.473 684.826C386.926 685.142 387.035 685.762 386.718 686.214L372.183 706.973Z" fill="url(#paint71_linear)"/>
<path d="M371.853 665.822L366.945 666.776L373.147 698.678L378.055 697.724L371.853 665.822Z" fill="url(#paint72_linear)"/>
<path d="M368.25 708.5C374.463 708.5 379.5 703.463 379.5 697.25C379.5 691.037 374.463 686 368.25 686C362.037 686 357 691.037 357 697.25C357 703.463 362.037 708.5 368.25 708.5Z" fill="url(#paint73_linear)"/>
<path d="M365.75 706C370.582 706 374.5 702.082 374.5 697.25C374.5 692.418 370.582 688.5 365.75 688.5C360.918 688.5 357 692.418 357 697.25C357 702.082 360.918 706 365.75 706Z" fill="#F6C79D"/>
<path d="M347.337 705.674C354.15 705.674 359.674 700.15 359.674 693.337C359.674 686.523 354.15 681 347.337 681C340.523 681 335 686.523 335 693.337C335 700.15 340.523 705.674 347.337 705.674Z" fill="url(#paint74_linear)"/>
<path d="M343.079 686.967L348.699 689.765L349.679 689.143L359.07 675.801L358.272 672.222L354.481 671.02L352.396 671.54L342.752 685.142L343.079 686.967Z" fill="#E0488C"/>
<path d="M328.804 709.954L330.578 706.367L332.644 704.376L332.782 704.473L343.011 689.863L341.35 688.7C340.779 688.3 340.641 687.514 341.04 686.943C341.233 686.668 341.516 686.494 341.822 686.432C341.829 685.829 342.01 685.221 342.382 684.689L352.478 670.27C353.461 668.867 355.395 668.526 356.798 669.509L359.021 671.065C360.425 672.048 360.766 673.982 359.783 675.385L349.687 689.804C349.326 690.32 348.835 690.69 348.292 690.906C348.357 691.233 348.296 691.585 348.09 691.88C347.69 692.45 346.904 692.589 346.333 692.189L344.737 691.071L334.508 705.68L334.645 705.776L333.468 708.39L330.678 711.266L328.804 709.954ZM353.821 672.442C353.216 672.019 352.382 672.166 351.958 672.77L344.063 684.045C343.64 684.65 343.787 685.484 344.392 685.908C344.997 686.332 345.831 686.185 346.255 685.579L354.15 674.305C354.574 673.7 354.427 672.865 353.821 672.442ZM349.94 688.159L357.834 676.884C358.258 676.279 358.111 675.446 357.506 675.022C356.9 674.598 356.066 674.745 355.642 675.35L347.748 686.625C347.324 687.23 347.471 688.064 348.076 688.487C348.681 688.912 349.515 688.765 349.94 688.159Z" fill="#FE68AC"/>
<path fill-rule="evenodd" clip-rule="evenodd" d="M330.91 693.5H390.5C391.605 693.5 392.5 694.395 392.5 695.5V710.5C392.5 714.918 388.918 718.5 384.5 718.5H336.91C332.492 718.5 328.91 714.918 328.91 710.5V695.5C328.91 694.395 329.806 693.5 330.91 693.5Z" fill="url(#paint75_linear)"/>
<path fill-rule="evenodd" clip-rule="evenodd" d="M332 693.5H376.59C377.694 693.5 378.59 694.395 378.59 695.5V710.5C378.59 714.918 375.008 718.5 370.59 718.5H338C333.582 718.5 330 714.918 330 710.5V695.5C330 694.395 330.895 693.5 332 693.5Z" fill="url(#paint76_linear)"/>
<path d="M328.91 701.5H384.503" stroke="#A189FF" stroke-width="3"/>
<path d="M528.025 707.781C528.163 707.426 527.845 707.067 527.479 707.165L524.269 708.025C522.748 708.433 521.182 707.529 520.768 706.004L520.239 704.028C519.831 702.507 520.735 700.941 522.26 700.527L525.47 699.667C525.836 699.569 525.932 699.099 525.635 698.861C523.774 697.385 521.264 696.771 518.791 697.439C516.371 698.087 514.521 699.817 513.627 701.972C513.236 702.924 512.425 703.634 511.437 703.898L487.443 710.328C485.616 710.817 484.541 712.693 485.03 714.521C485.52 716.348 487.395 717.439 489.217 716.946L513.217 710.52C514.205 710.256 515.262 710.465 516.076 711.094C517.922 712.51 520.389 713.083 522.815 712.438C525.282 711.766 527.155 709.983 528.025 707.781ZM489.008 714.487C488.474 714.63 487.929 714.316 487.786 713.782C487.644 713.249 487.958 712.704 488.492 712.561L512.97 706.002C513.503 705.859 514.048 706.174 514.191 706.707C514.334 707.241 514.02 707.786 513.486 707.928L489.008 714.487Z" fill="url(#paint77_linear)"/>
<path fill-rule="evenodd" clip-rule="evenodd" d="M560.932 664.081L562.061 666.568L573.772 667.834L579.541 667.376L581.253 662.272L580.911 660.371L579.014 659.542L562.061 658.716L560.252 664.081L560.932 664.081Z" fill="#4B1FBD"/>
<mask id="mask11" mask-type="alpha" maskUnits="userSpaceOnUse" x="534" y="658" width="50" height="11">
<path d="M534.172 661.175L538.06 662.123L540.914 661.82L540.928 661.652L558.695 663.206L558.518 665.227C558.458 665.921 558.971 666.532 559.665 666.593C560 666.622 560.315 666.517 560.559 666.323C561.025 666.705 561.608 666.958 562.254 667.014L579.789 668.548C581.496 668.697 583 667.435 583.15 665.729L583.386 663.025C583.536 661.319 582.273 659.814 580.567 659.665L563.031 658.13C562.404 658.076 561.805 658.213 561.29 658.491C561.082 658.23 560.773 658.051 560.415 658.02C559.721 657.959 559.11 658.472 559.049 659.166L558.879 661.108L541.113 659.553L541.128 659.386L538.368 658.608L534.372 658.897L534.172 661.175ZM578.989 666.124C578.924 666.86 578.276 667.404 577.54 667.34L563.828 666.14C563.093 666.076 562.548 665.427 562.613 664.691C562.677 663.955 563.326 663.411 564.062 663.475L577.773 664.675C578.509 664.739 579.054 665.387 578.989 666.124ZM564.454 658.994L578.165 660.194C578.901 660.259 579.445 660.907 579.381 661.643C579.317 662.379 578.668 662.924 577.932 662.859L564.221 661.66C563.484 661.596 562.94 660.947 563.005 660.211C563.069 659.474 563.717 658.93 564.454 658.994Z" fill="white"/>
</mask>
<g mask="url(#mask11)">
<path d="M534.172 661.175L538.06 662.123L540.914 661.82L540.928 661.652L558.695 663.206L558.518 665.227C558.458 665.921 558.971 666.532 559.665 666.593C560 666.622 560.315 666.517 560.559 666.323C561.025 666.705 561.608 666.958 562.254 667.014L579.789 668.548C581.496 668.697 583 667.435 583.15 665.729L583.386 663.025C583.536 661.319 582.273 659.814 580.567 659.665L563.031 658.13C562.404 658.076 561.805 658.213 561.29 658.491C561.082 658.23 560.773 658.051 560.415 658.02C559.721 657.959 559.11 658.472 559.049 659.166L558.879 661.108L541.113 659.553L541.128 659.386L538.368 658.608L534.372 658.897L534.172 661.175ZM578.989 666.124C578.924 666.86 578.276 667.404 577.54 667.34L563.828 666.14C563.093 666.076 562.548 665.427 562.613 664.691C562.677 663.955 563.326 663.411 564.062 663.475L577.773 664.675C578.509 664.739 579.054 665.387 578.989 666.124ZM564.454 658.994L578.165 660.194C578.901 660.259 579.445 660.907 579.381 661.643C579.317 662.379 578.668 662.924 577.932 662.859L564.221 661.66C563.484 661.596 562.94 660.947 563.005 660.211C563.069 659.474 563.717 658.93 564.454 658.994Z" fill="#D6D6D6"/>
<path d="M556.776 671.179L582.381 675.694L585.681 656.983L560.076 652.468L556.776 671.179Z" fill="url(#paint78_linear)"/>
</g>
<path opacity="0.5" d="M737.426 471.419V659.958" stroke="white" stroke-width="3"/>
<path d="M906 546.572C909.531 540.189 912.497 538.331 914.897 540.999C918.497 545 922.06 545.826 924.686 543.219C926.436 541.481 927.719 540.021 928.534 538.84" stroke="white" stroke-width="1.4"/>
<path d="M930.097 539C931.201 539 932.097 538.105 932.097 537C932.097 535.895 931.201 535 930.097 535C928.992 535 928.097 535.895 928.097 537C928.097 538.105 928.992 539 930.097 539Z" stroke="white" stroke-width="1.4"/>
</g>
<defs>
<filter id="filter0_f" x="1032.19" y="327.195" width="405.611" height="405.611" filterUnits="userSpaceOnUse" color-interpolation-filters="sRGB">
<feFlood flood-opacity="0" result="BackgroundImageFix"/>
<feBlend mode="normal" in="SourceGraphic" in2="BackgroundImageFix" result="shape"/>
<feGaussianBlur stdDeviation="26.6286" result="effect1_foregroundBlur"/>
</filter>
<linearGradient id="paint0_linear" x1="745.581" y1="553.685" x2="738.954" y2="554.301" gradientUnits="userSpaceOnUse">
<stop stop-color="#133650" stop-opacity="0"/>
<stop offset="1" stop-color="#0F3954"/>
</linearGradient>
<linearGradient id="paint1_linear" x1="198.524" y1="313.118" x2="173.652" y2="320.483" gradientUnits="userSpaceOnUse">
<stop stop-color="#F18E78"/>
<stop offset="1" stop-color="#DF5543"/>
</linearGradient>
<linearGradient id="paint2_linear" x1="231.658" y1="361.525" x2="174.029" y2="320.776" gradientUnits="userSpaceOnUse">
<stop stop-color="#F18E78"/>
<stop offset="1" stop-color="#DF5543"/>
</linearGradient>
<linearGradient id="paint3_linear" x1="189.302" y1="338.001" x2="170.504" y2="339.944" gradientUnits="userSpaceOnUse">
<stop stop-color="#F18E78"/>
<stop offset="1" stop-color="#DF5543"/>
</linearGradient>
<linearGradient id="paint4_linear" x1="226.469" y1="320.2" x2="180.521" y2="316.394" gradientUnits="userSpaceOnUse">
<stop stop-color="#F18E78"/>
<stop offset="1" stop-color="#DF5543"/>
</linearGradient>
<linearGradient id="paint5_linear" x1="1143.99" y1="440.627" x2="1250.33" y2="603.603" gradientUnits="userSpaceOnUse">
<stop stop-color="#4B4A98"/>
<stop offset="1" stop-color="#262460"/>
</linearGradient>
<linearGradient id="paint6_linear" x1="1147.25" y1="441.153" x2="1252.16" y2="601.929" gradientUnits="userSpaceOnUse">
<stop stop-color="#4B4A98"/>
<stop offset="1" stop-color="#262460"/>
</linearGradient>
<linearGradient id="paint7_linear" x1="1115.87" y1="620.184" x2="1279.08" y2="585.634" gradientUnits="userSpaceOnUse">
<stop stop-color="#87F3EC"/>
<stop offset="1" stop-color="#24CFBE"/>
</linearGradient>
<linearGradient id="paint8_linear" x1="23.2134" y1="628.137" x2="1437.45" y2="566.619" gradientUnits="userSpaceOnUse">
<stop stop-color="#92A0A2"/>
<stop offset="1" stop-color="#637B7E"/>
</linearGradient>
<linearGradient id="paint9_linear" x1="-462.312" y1="645.945" x2="1439.9" y2="631.589" gradientUnits="userSpaceOnUse">
<stop stop-color="#B8C4C6"/>
<stop offset="1" stop-color="#B2AAA8"/>
</linearGradient>
<linearGradient id="paint10_linear" x1="1436.39" y1="639.209" x2="970.682" y2="607.859" gradientUnits="userSpaceOnUse">
<stop stop-color="#5F6F70" stop-opacity="0"/>
<stop offset="1" stop-color="#251600"/>
</linearGradient>
<linearGradient id="paint11_linear" x1="836.868" y1="583.138" x2="1606.3" y2="504.246" gradientUnits="userSpaceOnUse">
<stop stop-color="#445253"/>
<stop offset="1" stop-color="#656F72"/>
</linearGradient>
<linearGradient id="paint12_linear" x1="1266.69" y1="616.443" x2="1019.18" y2="768.391" gradientUnits="userSpaceOnUse">
<stop stop-color="#445253"/>
<stop offset="1" stop-color="#6F6572"/>
</linearGradient>
<linearGradient id="paint13_linear" x1="156.848" y1="838.63" x2="900.89" y2="627.326" gradientUnits="userSpaceOnUse">
<stop stop-color="#8E8786"/>
<stop offset="1" stop-color="#001E25"/>
</linearGradient>
<linearGradient id="paint14_linear" x1="181.873" y1="842.341" x2="925.914" y2="631.037" gradientUnits="userSpaceOnUse">
<stop stop-color="#445253"/>
<stop offset="1" stop-color="#656F72"/>
</linearGradient>
<linearGradient id="paint15_linear" x1="616.281" y1="803.218" x2="356.016" y2="945.346" gradientUnits="userSpaceOnUse">
<stop stop-color="#445253"/>
<stop offset="1" stop-color="#656F72"/>
</linearGradient>
<linearGradient id="paint16_linear" x1="-158.391" y1="696.209" x2="307.318" y2="664.859" gradientUnits="userSpaceOnUse">
<stop stop-color="#5F6F70" stop-opacity="0"/>
<stop offset="1" stop-color="#251600"/>
</linearGradient>
<linearGradient id="paint17_linear" x1="441.132" y1="640.138" x2="-328.299" y2="561.246" gradientUnits="userSpaceOnUse">
<stop stop-color="#445253"/>
<stop offset="1" stop-color="#656F72"/>
</linearGradient>
<linearGradient id="paint18_linear" x1="275.09" y1="653.02" x2="-109.374" y2="612.694" gradientUnits="userSpaceOnUse">
<stop stop-color="#445253"/>
<stop offset="1" stop-color="#656F72"/>
</linearGradient>
<linearGradient id="paint19_linear" x1="444.968" y1="562.024" x2="341.821" y2="578.135" gradientUnits="userSpaceOnUse">
<stop stop-color="#5F6F70" stop-opacity="0"/>
<stop offset="1" stop-color="#251600"/>
</linearGradient>
<linearGradient id="paint20_linear" x1="1539.53" y1="787.159" x2="1240.73" y2="799.036" gradientUnits="userSpaceOnUse">
<stop stop-color="#5F6F70" stop-opacity="0"/>
<stop offset="1" stop-color="#251600"/>
</linearGradient>
<linearGradient id="paint21_linear" x1="1091.31" y1="728.946" x2="564.166" y2="737.515" gradientUnits="userSpaceOnUse">
<stop stop-color="#5F6F70" stop-opacity="0"/>
<stop offset="1" stop-color="#251600"/>
</linearGradient>
<linearGradient id="paint22_linear" x1="738.709" y1="403.982" x2="683.266" y2="607.444" gradientUnits="userSpaceOnUse">
<stop stop-color="#EE59A4"/>
<stop offset="1" stop-color="#331523"/>
</linearGradient>
<linearGradient id="paint23_linear" x1="698.786" y1="629.619" x2="666.496" y2="502.699" gradientUnits="userSpaceOnUse">
<stop stop-color="#4415B8"/>
<stop offset="1" stop-color="#A188FF"/>
</linearGradient>
<linearGradient id="paint24_linear" x1="775.315" y1="573.814" x2="801.953" y2="546.3" gradientUnits="userSpaceOnUse">
<stop stop-color="#4415B8"/>
<stop offset="1" stop-color="#A188FF"/>
</linearGradient>
<linearGradient id="paint25_linear" x1="803.379" y1="720.271" x2="721.6" y2="731.056" gradientUnits="userSpaceOnUse">
<stop stop-color="#0A078A"/>
<stop offset="1" stop-color="#023437"/>
</linearGradient>
<linearGradient id="paint26_linear" x1="691.954" y1="615.1" x2="691.954" y2="715.736" gradientUnits="userSpaceOnUse">
<stop stop-color="#FBFFFE"/>
<stop offset="1" stop-color="#CCC0BD"/>
</linearGradient>
<linearGradient id="paint27_linear" x1="714.02" y1="711.962" x2="709.773" y2="722.652" gradientUnits="userSpaceOnUse">
<stop stop-color="#FBFFFE"/>
<stop offset="1" stop-color="#AC9D98"/>
</linearGradient>
<linearGradient id="paint28_linear" x1="782.751" y1="615.1" x2="782.751" y2="715.736" gradientUnits="userSpaceOnUse">
<stop stop-color="#FBFFFE"/>
<stop offset="1" stop-color="#CCC0BD"/>
</linearGradient>
<linearGradient id="paint29_linear" x1="817.02" y1="711.962" x2="812.773" y2="722.652" gradientUnits="userSpaceOnUse">
<stop stop-color="#FBFFFE"/>
<stop offset="1" stop-color="#AC9D98"/>
</linearGradient>
<linearGradient id="paint30_linear" x1="737.353" y1="426.667" x2="737.353" y2="717.546" gradientUnits="userSpaceOnUse">
<stop stop-color="#FBFFFE"/>
<stop offset="1" stop-color="#CCC0BD"/>
</linearGradient>
<linearGradient id="paint31_linear" x1="737.828" y1="423.435" x2="760.733" y2="617.841" gradientUnits="userSpaceOnUse">
<stop stop-color="#FBFFFE"/>
<stop offset="1" stop-color="#CCC0BD"/>
</linearGradient>
<linearGradient id="paint32_linear" x1="769.857" y1="466.971" x2="733.768" y2="480.64" gradientUnits="userSpaceOnUse">
<stop stop-color="#0A078A"/>
<stop offset="1" stop-color="#023437"/>
</linearGradient>
<linearGradient id="paint33_linear" x1="667" y1="507.758" x2="667" y2="511" gradientUnits="userSpaceOnUse">
<stop stop-color="#FBFFFE"/>
<stop offset="1" stop-color="#CCC0BD"/>
</linearGradient>
<linearGradient id="paint34_linear" x1="664" y1="627.758" x2="664" y2="631" gradientUnits="userSpaceOnUse">
<stop stop-color="#FBFFFE"/>
<stop offset="1" stop-color="#CCC0BD"/>
</linearGradient>
<linearGradient id="paint35_linear" x1="664" y1="634.758" x2="664" y2="638" gradientUnits="userSpaceOnUse">
<stop stop-color="#FBFFFE"/>
<stop offset="1" stop-color="#CCC0BD"/>
</linearGradient>
<linearGradient id="paint36_linear" x1="667" y1="514.758" x2="667" y2="518" gradientUnits="userSpaceOnUse">
<stop stop-color="#FBFFFE"/>
<stop offset="1" stop-color="#CCC0BD"/>
</linearGradient>
<linearGradient id="paint37_linear" x1="614.533" y1="391.553" x2="614.533" y2="437.653" gradientUnits="userSpaceOnUse">
<stop stop-color="#FBFFFE"/>
<stop offset="1" stop-color="#D3D9F2"/>
</linearGradient>
<linearGradient id="paint38_linear" x1="614.5" y1="401.173" x2="614.5" y2="728.264" gradientUnits="userSpaceOnUse">
<stop stop-color="#FBFFFE"/>
<stop offset="1" stop-color="#CCC0BD"/>
</linearGradient>
<linearGradient id="paint39_linear" x1="931.472" y1="735.998" x2="857.302" y2="739.134" gradientUnits="userSpaceOnUse">
<stop stop-color="#5F6F70" stop-opacity="0"/>
<stop offset="1" stop-color="#251600"/>
</linearGradient>
<linearGradient id="paint40_linear" x1="884.804" y1="737.253" x2="875.234" y2="673.029" gradientUnits="userSpaceOnUse">
<stop stop-color="#8B7E74"/>
<stop offset="1" stop-color="#CCC0BD"/>
</linearGradient>
<linearGradient id="paint41_linear" x1="893.845" y1="756.054" x2="860.999" y2="697.562" gradientUnits="userSpaceOnUse">
<stop stop-color="#FBFFFE"/>
<stop offset="1" stop-color="#CCC0BD"/>
</linearGradient>
<linearGradient id="paint42_linear" x1="876.556" y1="689.227" x2="823.6" y2="693.008" gradientUnits="userSpaceOnUse">
<stop stop-color="#5F6F70" stop-opacity="0"/>
<stop offset="1" stop-color="#251600"/>
</linearGradient>
<linearGradient id="paint43_linear" x1="896.846" y1="738.5" x2="1088.38" y2="746.089" gradientUnits="userSpaceOnUse">
<stop stop-color="#5F6F70" stop-opacity="0"/>
<stop offset="1" stop-color="#251600"/>
</linearGradient>
<linearGradient id="paint44_linear" x1="985.113" y1="502.324" x2="1025.12" y2="601.17" gradientUnits="userSpaceOnUse">
<stop stop-color="#FFFBEF"/>
<stop offset="1" stop-color="#88654E"/>
</linearGradient>
<linearGradient id="paint45_linear" x1="987.711" y1="578.935" x2="998.02" y2="724.776" gradientUnits="userSpaceOnUse">
<stop stop-color="#FFFBEF"/>
<stop offset="1" stop-color="#F7D4BD"/>
</linearGradient>
<linearGradient id="paint46_linear" x1="980.937" y1="650.66" x2="965.61" y2="733.626" gradientUnits="userSpaceOnUse">
<stop stop-color="#FFFBEF"/>
<stop offset="1" stop-color="#88654E"/>
</linearGradient>
<linearGradient id="paint47_linear" x1="995.089" y1="650.453" x2="1007.51" y2="733.904" gradientUnits="userSpaceOnUse">
<stop stop-color="#FFFBEF"/>
<stop offset="1" stop-color="#88654E"/>
</linearGradient>
<linearGradient id="paint48_linear" x1="972.942" y1="578.993" x2="927.843" y2="606.533" gradientUnits="userSpaceOnUse">
<stop stop-color="white"/>
<stop offset="1" stop-color="#FFE9DB"/>
</linearGradient>
<linearGradient id="paint49_linear" x1="972.942" y1="578.993" x2="927.843" y2="606.533" gradientUnits="userSpaceOnUse">
<stop stop-color="white"/>
<stop offset="1" stop-color="#FFE9DB"/>
</linearGradient>
<linearGradient id="paint50_linear" x1="931.744" y1="569.958" x2="948.47" y2="588.555" gradientUnits="userSpaceOnUse">
<stop stop-color="#FFFBEF"/>
<stop offset="1" stop-color="#88654E"/>
</linearGradient>
<linearGradient id="paint51_linear" x1="995.294" y1="635.368" x2="1001.6" y2="663.05" gradientUnits="userSpaceOnUse">
<stop stop-color="white"/>
<stop offset="1" stop-color="#FFE9DB"/>
</linearGradient>
<linearGradient id="paint52_linear" x1="995.294" y1="635.368" x2="1001.6" y2="663.05" gradientUnits="userSpaceOnUse">
<stop stop-color="white"/>
<stop offset="1" stop-color="#FFE9DB"/>
</linearGradient>
<linearGradient id="paint53_linear" x1="982.269" y1="619.608" x2="998.953" y2="641.233" gradientUnits="userSpaceOnUse">
<stop stop-color="#FFFBEF"/>
<stop offset="1" stop-color="#88654E"/>
</linearGradient>
<linearGradient id="paint54_linear" x1="924.485" y1="558.4" x2="903.278" y2="625.311" gradientUnits="userSpaceOnUse">
<stop stop-color="white"/>
<stop offset="1" stop-color="white" stop-opacity="0"/>
</linearGradient>
<linearGradient id="paint55_linear" x1="466.918" y1="715.423" x2="310.608" y2="722.12" gradientUnits="userSpaceOnUse">
<stop stop-color="#5F6F70" stop-opacity="0"/>
<stop offset="1" stop-color="#251600"/>
</linearGradient>
<linearGradient id="paint56_linear" x1="545.444" y1="688.333" x2="412.655" y2="694.894" gradientUnits="userSpaceOnUse">
<stop stop-color="#5F6F70" stop-opacity="0"/>
<stop offset="1" stop-color="#251600"/>
</linearGradient>
<linearGradient id="paint57_linear" x1="579.568" y1="714.285" x2="472.53" y2="719.015" gradientUnits="userSpaceOnUse">
<stop stop-color="#5F6F70" stop-opacity="0"/>
<stop offset="1" stop-color="#251600"/>
</linearGradient>
<linearGradient id="paint58_linear" x1="621.353" y1="666.777" x2="542.439" y2="669.912" gradientUnits="userSpaceOnUse">
<stop stop-color="#5F6F70" stop-opacity="0"/>
<stop offset="1" stop-color="#251600"/>
</linearGradient>
<linearGradient id="paint59_linear" x1="120.574" y1="766.97" x2="240.248" y2="733.163" gradientUnits="userSpaceOnUse">
<stop stop-color="#8E8786"/>
<stop offset="1" stop-color="#001E25"/>
</linearGradient>
<linearGradient id="paint60_linear" x1="1189.67" y1="710.913" x2="1115.42" y2="711.083" gradientUnits="userSpaceOnUse">
<stop stop-color="#5F6F70" stop-opacity="0"/>
<stop offset="1" stop-color="#251600"/>
</linearGradient>
<linearGradient id="paint61_linear" x1="542.265" y1="556.501" x2="581.304" y2="521.42" gradientUnits="userSpaceOnUse">
<stop stop-color="#FFFBEF"/>
<stop offset="1" stop-color="#88654E"/>
</linearGradient>
<linearGradient id="paint62_linear" x1="615.795" y1="521.26" x2="552.051" y2="517.068" gradientUnits="userSpaceOnUse">
<stop stop-color="white"/>
<stop offset="1" stop-color="#FFE9DB"/>
</linearGradient>
<linearGradient id="paint63_linear" x1="557.89" y1="461.64" x2="486.488" y2="540.841" gradientUnits="userSpaceOnUse">
<stop stop-color="#FFFBEF"/>
<stop offset="1" stop-color="#88654E"/>
</linearGradient>
<linearGradient id="paint64_linear" x1="512.386" y1="528.881" x2="443.543" y2="660.579" gradientUnits="userSpaceOnUse">
<stop stop-color="#FFFBEF"/>
<stop offset="1" stop-color="#F7D4BD"/>
</linearGradient>
<linearGradient id="paint65_linear" x1="430.314" y1="601.124" x2="447.327" y2="640.985" gradientUnits="userSpaceOnUse">
<stop stop-color="#FFFBEF"/>
<stop offset="1" stop-color="#88654E"/>
</linearGradient>
<linearGradient id="paint66_linear" x1="454.508" y1="640.2" x2="481.945" y2="673.742" gradientUnits="userSpaceOnUse">
<stop stop-color="#FFFBEF"/>
<stop offset="1" stop-color="#88654E"/>
</linearGradient>
<linearGradient id="paint67_linear" x1="549.035" y1="543.569" x2="510.471" y2="548.751" gradientUnits="userSpaceOnUse">
<stop stop-color="#FFFBEF" stop-opacity="0"/>
<stop offset="1" stop-color="#A39085"/>
</linearGradient>
<linearGradient id="paint68_linear" x1="603.24" y1="508.185" x2="592.161" y2="505.02" gradientUnits="userSpaceOnUse">
<stop stop-color="#7D3D5D"/>
<stop offset="1" stop-color="#331523"/>
</linearGradient>
<linearGradient id="paint69_linear" x1="514.675" y1="547.422" x2="558.882" y2="509.709" gradientUnits="userSpaceOnUse">
<stop stop-color="#FFFBEF"/>
<stop offset="1" stop-color="#88654E"/>
</linearGradient>
<linearGradient id="paint70_linear" x1="529.986" y1="534.744" x2="564.529" y2="503.388" gradientUnits="userSpaceOnUse">
<stop stop-color="white"/>
<stop offset="1" stop-color="#FFE9DB"/>
</linearGradient>
<linearGradient id="paint71_linear" x1="367.694" y1="615.921" x2="395.614" y2="678.862" gradientUnits="userSpaceOnUse">
<stop stop-color="#CED6DF"/>
<stop offset="1" stop-color="#8192A6"/>
</linearGradient>
<linearGradient id="paint72_linear" x1="368.402" y1="635.231" x2="378.454" y2="686.943" gradientUnits="userSpaceOnUse">
<stop stop-color="#CAE2FF"/>
<stop offset="1" stop-color="#5B5AE1"/>
</linearGradient>
<linearGradient id="paint73_linear" x1="379.5" y1="708.5" x2="386.208" y2="668.252" gradientUnits="userSpaceOnUse">
<stop stop-color="#FF895B"/>
<stop offset="1" stop-color="#FFEC9E"/>
</linearGradient>
<linearGradient id="paint74_linear" x1="359.674" y1="695.265" x2="302.947" y2="650.125" gradientUnits="userSpaceOnUse">
<stop stop-color="#4415B8"/>
<stop offset="1" stop-color="#A188FF"/>
</linearGradient>
<linearGradient id="paint75_linear" x1="392.5" y1="706.302" x2="343.833" y2="692.208" gradientUnits="userSpaceOnUse">
<stop stop-color="#4415B8"/>
<stop offset="1" stop-color="#A188FF"/>
</linearGradient>
<linearGradient id="paint76_linear" x1="378.59" y1="706.517" x2="342.475" y2="692.829" gradientUnits="userSpaceOnUse">
<stop stop-color="#4415B8"/>
<stop offset="1" stop-color="#A188FF"/>
</linearGradient>
<linearGradient id="paint77_linear" x1="508.124" y1="760.037" x2="513.259" y2="698.569" gradientUnits="userSpaceOnUse">
<stop stop-color="#0A078A"/>
<stop offset="1" stop-color="#023437"/>
</linearGradient>
<linearGradient id="paint78_linear" x1="583.729" y1="668.052" x2="552.712" y2="666.997" gradientUnits="userSpaceOnUse">
<stop stop-color="#4415B8"/>
<stop offset="1" stop-color="#A188FF"/>
</linearGradient>
<clipPath id="clip0">
<rect width="1440" height="796" fill="white"/>
</clipPath>
</defs>
</svg>
