<?xml version="1.0" encoding="UTF-8"?>
<svg xmlns="http://www.w3.org/2000/svg" xmlns:xlink="http://www.w3.org/1999/xlink" width="16px" height="12px" viewBox="0 0 16 12" version="1.1">
  <g id="surface1">
    <path style=" stroke:none;fill-rule:nonzero;fill:rgb(100%,60%,20%);fill-opacity:1;" d="M 0 0 L 16 0 L 16 4 L 0 4 Z M 0 0 "/>
    <path style=" stroke:none;fill-rule:nonzero;fill:rgb(100%,100%,100%);fill-opacity:1;" d="M 0 4 L 16 4 L 16 8 L 0 8 Z M 0 4 "/>
    <path style=" stroke:none;fill-rule:nonzero;fill:rgb(7.058824%,53.333333%,2.745098%);fill-opacity:1;" d="M 0 8 L 16 8 L 16 12 L 0 12 Z M 0 8 "/>
    <path style=" stroke:none;fill-rule:nonzero;fill:rgb(0%,0%,53.333333%);fill-opacity:1;" d="M 9.601562 6 C 9.601562 6.882812 8.882812 7.601562 8 7.601562 C 7.117188 7.601562 6.398438 6.882812 6.398438 6 C 6.398438 5.117188 7.117188 4.398438 8 4.398438 C 8.882812 4.398438 9.601562 5.117188 9.601562 6 Z M 9.601562 6 "/>
    <path style=" stroke:none;fill-rule:nonzero;fill:rgb(100%,100%,100%);fill-opacity:1;" d="M 9.398438 6 C 9.398438 6.773438 8.773438 7.398438 8 7.398438 C 7.226562 7.398438 6.601562 6.773438 6.601562 6 C 6.601562 5.226562 7.226562 4.601562 8 4.601562 C 8.773438 4.601562 9.398438 5.226562 9.398438 6 Z M 9.398438 6 "/>
    <path style=" stroke:none;fill-rule:nonzero;fill:rgb(0%,0%,53.333333%);fill-opacity:1;" d="M 8.28125 6 C 8.28125 6.15625 8.15625 6.28125 8 6.28125 C 7.84375 6.28125 7.71875 6.15625 7.71875 6 C 7.71875 5.84375 7.84375 5.71875 8 5.71875 C 8.15625 5.71875 8.28125 5.84375 8.28125 6 Z M 8.28125 6 "/>
    <path style=" stroke:none;fill-rule:nonzero;fill:rgb(0%,0%,53.333333%);fill-opacity:1;" d="M 9.460938 6.191406 C 9.453125 6.230469 9.417969 6.261719 9.378906 6.253906 C 9.339844 6.25 9.3125 6.214844 9.316406 6.175781 C 9.320312 6.132812 9.359375 6.105469 9.398438 6.113281 C 9.4375 6.117188 9.464844 6.152344 9.460938 6.191406 Z M 9.460938 6.191406 "/>
    <path style=" stroke:none;fill-rule:nonzero;fill:rgb(0%,0%,53.333333%);fill-opacity:1;" d="M 8 7.398438 L 8.046875 6.558594 L 8 6.160156 L 7.953125 6.558594 Z M 8 7.398438 "/>
    <path style=" stroke:none;fill-rule:nonzero;fill:rgb(0%,0%,53.333333%);fill-opacity:1;" d="M 9.359375 6.5625 C 9.34375 6.601562 9.300781 6.617188 9.265625 6.601562 C 9.230469 6.585938 9.210938 6.546875 9.226562 6.507812 C 9.242188 6.472656 9.285156 6.453125 9.320312 6.46875 C 9.359375 6.484375 9.375 6.527344 9.359375 6.5625 Z M 9.359375 6.5625 "/>
    <path style=" stroke:none;fill-rule:nonzero;fill:rgb(0%,0%,53.333333%);fill-opacity:1;" d="M 7.636719 7.351562 L 7.902344 6.554688 L 7.957031 6.15625 L 7.808594 6.527344 Z M 7.636719 7.351562 "/>
    <path style=" stroke:none;fill-rule:nonzero;fill:rgb(0%,0%,53.333333%);fill-opacity:1;" d="M 9.167969 6.898438 C 9.144531 6.929688 9.097656 6.933594 9.066406 6.910156 C 9.035156 6.886719 9.027344 6.839844 9.054688 6.808594 C 9.078125 6.777344 9.121094 6.769531 9.152344 6.796875 C 9.1875 6.820312 9.191406 6.863281 9.167969 6.898438 Z M 9.167969 6.898438 "/>
    <path style=" stroke:none;fill-rule:nonzero;fill:rgb(0%,0%,53.333333%);fill-opacity:1;" d="M 7.300781 7.210938 L 7.761719 6.507812 L 7.921875 6.136719 L 7.679688 6.460938 Z M 7.300781 7.210938 "/>
    <path style=" stroke:none;fill-rule:nonzero;fill:rgb(0%,0%,53.333333%);fill-opacity:1;" d="M 8.894531 7.167969 C 8.863281 7.191406 8.820312 7.1875 8.792969 7.15625 C 8.769531 7.125 8.777344 7.078125 8.808594 7.054688 C 8.839844 7.03125 8.886719 7.035156 8.910156 7.066406 C 8.933594 7.097656 8.925781 7.144531 8.894531 7.167969 Z M 8.894531 7.167969 "/>
    <path style=" stroke:none;fill-rule:nonzero;fill:rgb(0%,0%,53.333333%);fill-opacity:1;" d="M 7.011719 6.988281 L 7.636719 6.429688 L 7.886719 6.113281 L 7.570312 6.363281 Z M 7.011719 6.988281 "/>
    <path style=" stroke:none;fill-rule:nonzero;fill:rgb(0%,0%,53.333333%);fill-opacity:1;" d="M 8.5625 7.359375 C 8.527344 7.375 8.484375 7.359375 8.46875 7.320312 C 8.453125 7.285156 8.472656 7.242188 8.507812 7.226562 C 8.542969 7.210938 8.585938 7.230469 8.601562 7.265625 C 8.617188 7.304688 8.597656 7.34375 8.5625 7.359375 Z M 8.5625 7.359375 "/>
    <path style=" stroke:none;fill-rule:nonzero;fill:rgb(0%,0%,53.333333%);fill-opacity:1;" d="M 6.789062 6.699219 L 7.539062 6.320312 L 7.863281 6.078125 L 7.492188 6.238281 Z M 6.789062 6.699219 "/>
    <path style=" stroke:none;fill-rule:nonzero;fill:rgb(0%,0%,53.333333%);fill-opacity:1;" d="M 8.191406 7.460938 C 8.152344 7.464844 8.117188 7.4375 8.109375 7.398438 C 8.105469 7.359375 8.132812 7.320312 8.171875 7.316406 C 8.210938 7.3125 8.25 7.339844 8.253906 7.378906 C 8.257812 7.417969 8.230469 7.453125 8.191406 7.460938 Z M 8.191406 7.460938 "/>
    <path style=" stroke:none;fill-rule:nonzero;fill:rgb(0%,0%,53.333333%);fill-opacity:1;" d="M 6.648438 6.363281 L 7.472656 6.191406 L 7.84375 6.042969 L 7.445312 6.097656 Z M 6.648438 6.363281 "/>
    <path style=" stroke:none;fill-rule:nonzero;fill:rgb(0%,0%,53.333333%);fill-opacity:1;" d="M 7.808594 7.460938 C 7.769531 7.453125 7.738281 7.417969 7.746094 7.378906 C 7.75 7.339844 7.785156 7.3125 7.824219 7.316406 C 7.867188 7.320312 7.894531 7.359375 7.886719 7.398438 C 7.882812 7.4375 7.847656 7.464844 7.808594 7.460938 Z M 7.808594 7.460938 "/>
    <path style=" stroke:none;fill-rule:nonzero;fill:rgb(0%,0%,53.333333%);fill-opacity:1;" d="M 6.601562 6 L 7.441406 6.046875 L 7.839844 6 L 7.441406 5.953125 Z M 6.601562 6 "/>
    <path style=" stroke:none;fill-rule:nonzero;fill:rgb(0%,0%,53.333333%);fill-opacity:1;" d="M 7.4375 7.359375 C 7.398438 7.34375 7.382812 7.300781 7.398438 7.265625 C 7.414062 7.230469 7.453125 7.210938 7.492188 7.226562 C 7.527344 7.242188 7.546875 7.285156 7.53125 7.320312 C 7.515625 7.359375 7.472656 7.375 7.4375 7.359375 Z M 7.4375 7.359375 "/>
    <path style=" stroke:none;fill-rule:nonzero;fill:rgb(0%,0%,53.333333%);fill-opacity:1;" d="M 6.648438 5.636719 L 7.445312 5.902344 L 7.84375 5.957031 L 7.472656 5.808594 Z M 6.648438 5.636719 "/>
    <path style=" stroke:none;fill-rule:nonzero;fill:rgb(0%,0%,53.333333%);fill-opacity:1;" d="M 7.101562 7.167969 C 7.070312 7.144531 7.066406 7.097656 7.089844 7.066406 C 7.113281 7.035156 7.160156 7.027344 7.191406 7.054688 C 7.222656 7.078125 7.230469 7.121094 7.203125 7.152344 C 7.179688 7.1875 7.136719 7.191406 7.101562 7.167969 Z M 7.101562 7.167969 "/>
    <path style=" stroke:none;fill-rule:nonzero;fill:rgb(0%,0%,53.333333%);fill-opacity:1;" d="M 6.789062 5.300781 L 7.492188 5.761719 L 7.863281 5.921875 L 7.539062 5.679688 Z M 6.789062 5.300781 "/>
    <path style=" stroke:none;fill-rule:nonzero;fill:rgb(0%,0%,53.333333%);fill-opacity:1;" d="M 6.832031 6.894531 C 6.808594 6.863281 6.8125 6.820312 6.84375 6.792969 C 6.875 6.769531 6.921875 6.777344 6.945312 6.808594 C 6.96875 6.839844 6.964844 6.886719 6.933594 6.910156 C 6.902344 6.933594 6.855469 6.925781 6.832031 6.894531 Z M 6.832031 6.894531 "/>
    <path style=" stroke:none;fill-rule:nonzero;fill:rgb(0%,0%,53.333333%);fill-opacity:1;" d="M 7.011719 5.011719 L 7.570312 5.636719 L 7.886719 5.886719 L 7.636719 5.570312 Z M 7.011719 5.011719 "/>
    <path style=" stroke:none;fill-rule:nonzero;fill:rgb(0%,0%,53.333333%);fill-opacity:1;" d="M 6.640625 6.5625 C 6.625 6.527344 6.640625 6.484375 6.679688 6.46875 C 6.714844 6.453125 6.757812 6.472656 6.773438 6.507812 C 6.789062 6.542969 6.769531 6.585938 6.734375 6.601562 C 6.695312 6.617188 6.65625 6.597656 6.640625 6.5625 Z M 6.640625 6.5625 "/>
    <path style=" stroke:none;fill-rule:nonzero;fill:rgb(0%,0%,53.333333%);fill-opacity:1;" d="M 7.300781 4.789062 L 7.679688 5.539062 L 7.921875 5.863281 L 7.761719 5.492188 Z M 7.300781 4.789062 "/>
    <path style=" stroke:none;fill-rule:nonzero;fill:rgb(0%,0%,53.333333%);fill-opacity:1;" d="M 6.539062 6.191406 C 6.535156 6.152344 6.5625 6.117188 6.601562 6.109375 C 6.640625 6.105469 6.679688 6.132812 6.683594 6.171875 C 6.6875 6.210938 6.660156 6.25 6.621094 6.253906 C 6.582031 6.257812 6.546875 6.230469 6.539062 6.191406 Z M 6.539062 6.191406 "/>
    <path style=" stroke:none;fill-rule:nonzero;fill:rgb(0%,0%,53.333333%);fill-opacity:1;" d="M 7.636719 4.648438 L 7.808594 5.472656 L 7.957031 5.84375 L 7.902344 5.445312 Z M 7.636719 4.648438 "/>
    <path style=" stroke:none;fill-rule:nonzero;fill:rgb(0%,0%,53.333333%);fill-opacity:1;" d="M 6.539062 5.808594 C 6.546875 5.769531 6.582031 5.738281 6.621094 5.746094 C 6.660156 5.75 6.6875 5.785156 6.683594 5.824219 C 6.679688 5.867188 6.640625 5.894531 6.601562 5.886719 C 6.5625 5.882812 6.535156 5.847656 6.539062 5.808594 Z M 6.539062 5.808594 "/>
    <path style=" stroke:none;fill-rule:nonzero;fill:rgb(0%,0%,53.333333%);fill-opacity:1;" d="M 8 4.601562 L 7.953125 5.441406 L 8 5.839844 L 8.046875 5.441406 Z M 8 4.601562 "/>
    <path style=" stroke:none;fill-rule:nonzero;fill:rgb(0%,0%,53.333333%);fill-opacity:1;" d="M 6.640625 5.4375 C 6.65625 5.398438 6.699219 5.382812 6.734375 5.398438 C 6.769531 5.414062 6.789062 5.453125 6.773438 5.492188 C 6.757812 5.527344 6.714844 5.546875 6.679688 5.53125 C 6.640625 5.515625 6.625 5.472656 6.640625 5.4375 Z M 6.640625 5.4375 "/>
    <path style=" stroke:none;fill-rule:nonzero;fill:rgb(0%,0%,53.333333%);fill-opacity:1;" d="M 8.363281 4.648438 L 8.097656 5.445312 L 8.042969 5.84375 L 8.191406 5.472656 Z M 8.363281 4.648438 "/>
    <path style=" stroke:none;fill-rule:nonzero;fill:rgb(0%,0%,53.333333%);fill-opacity:1;" d="M 6.832031 5.101562 C 6.855469 5.070312 6.902344 5.066406 6.933594 5.089844 C 6.964844 5.113281 6.972656 5.160156 6.945312 5.191406 C 6.921875 5.222656 6.878906 5.230469 6.847656 5.203125 C 6.8125 5.179688 6.808594 5.136719 6.832031 5.101562 Z M 6.832031 5.101562 "/>
    <path style=" stroke:none;fill-rule:nonzero;fill:rgb(0%,0%,53.333333%);fill-opacity:1;" d="M 8.699219 4.789062 L 8.238281 5.492188 L 8.078125 5.863281 L 8.320312 5.539062 Z M 8.699219 4.789062 "/>
    <path style=" stroke:none;fill-rule:nonzero;fill:rgb(0%,0%,53.333333%);fill-opacity:1;" d="M 7.105469 4.832031 C 7.136719 4.808594 7.179688 4.8125 7.207031 4.84375 C 7.230469 4.875 7.222656 4.921875 7.191406 4.945312 C 7.160156 4.96875 7.113281 4.964844 7.089844 4.933594 C 7.066406 4.902344 7.074219 4.855469 7.105469 4.832031 Z M 7.105469 4.832031 "/>
    <path style=" stroke:none;fill-rule:nonzero;fill:rgb(0%,0%,53.333333%);fill-opacity:1;" d="M 8.988281 5.011719 L 8.363281 5.570312 L 8.113281 5.886719 L 8.429688 5.636719 Z M 8.988281 5.011719 "/>
    <path style=" stroke:none;fill-rule:nonzero;fill:rgb(0%,0%,53.333333%);fill-opacity:1;" d="M 7.4375 4.640625 C 7.472656 4.625 7.515625 4.640625 7.53125 4.679688 C 7.546875 4.714844 7.527344 4.757812 7.492188 4.773438 C 7.457031 4.789062 7.414062 4.769531 7.398438 4.734375 C 7.382812 4.695312 7.402344 4.65625 7.4375 4.640625 Z M 7.4375 4.640625 "/>
    <path style=" stroke:none;fill-rule:nonzero;fill:rgb(0%,0%,53.333333%);fill-opacity:1;" d="M 9.210938 5.300781 L 8.460938 5.679688 L 8.136719 5.921875 L 8.507812 5.761719 Z M 9.210938 5.300781 "/>
    <path style=" stroke:none;fill-rule:nonzero;fill:rgb(0%,0%,53.333333%);fill-opacity:1;" d="M 7.808594 4.539062 C 7.847656 4.535156 7.882812 4.5625 7.890625 4.601562 C 7.894531 4.640625 7.867188 4.679688 7.828125 4.683594 C 7.789062 4.6875 7.75 4.660156 7.746094 4.621094 C 7.742188 4.582031 7.769531 4.546875 7.808594 4.539062 Z M 7.808594 4.539062 "/>
    <path style=" stroke:none;fill-rule:nonzero;fill:rgb(0%,0%,53.333333%);fill-opacity:1;" d="M 9.351562 5.636719 L 8.527344 5.808594 L 8.15625 5.957031 L 8.554688 5.902344 Z M 9.351562 5.636719 "/>
    <path style=" stroke:none;fill-rule:nonzero;fill:rgb(0%,0%,53.333333%);fill-opacity:1;" d="M 8.191406 4.539062 C 8.230469 4.546875 8.261719 4.582031 8.253906 4.621094 C 8.25 4.660156 8.214844 4.6875 8.175781 4.683594 C 8.132812 4.679688 8.105469 4.640625 8.113281 4.601562 C 8.117188 4.5625 8.152344 4.535156 8.191406 4.539062 Z M 8.191406 4.539062 "/>
    <path style=" stroke:none;fill-rule:nonzero;fill:rgb(0%,0%,53.333333%);fill-opacity:1;" d="M 9.398438 6 L 8.558594 5.953125 L 8.160156 6 L 8.558594 6.046875 Z M 9.398438 6 "/>
    <path style=" stroke:none;fill-rule:nonzero;fill:rgb(0%,0%,53.333333%);fill-opacity:1;" d="M 8.5625 4.640625 C 8.601562 4.65625 8.617188 4.699219 8.601562 4.734375 C 8.585938 4.769531 8.546875 4.789062 8.507812 4.773438 C 8.472656 4.757812 8.453125 4.714844 8.46875 4.679688 C 8.484375 4.640625 8.527344 4.625 8.5625 4.640625 Z M 8.5625 4.640625 "/>
    <path style=" stroke:none;fill-rule:nonzero;fill:rgb(0%,0%,53.333333%);fill-opacity:1;" d="M 9.351562 6.363281 L 8.554688 6.097656 L 8.15625 6.042969 L 8.527344 6.191406 Z M 9.351562 6.363281 "/>
    <path style=" stroke:none;fill-rule:nonzero;fill:rgb(0%,0%,53.333333%);fill-opacity:1;" d="M 8.898438 4.832031 C 8.929688 4.855469 8.933594 4.902344 8.910156 4.933594 C 8.886719 4.964844 8.839844 4.972656 8.808594 4.945312 C 8.777344 4.921875 8.769531 4.878906 8.796875 4.847656 C 8.820312 4.8125 8.863281 4.808594 8.898438 4.832031 Z M 8.898438 4.832031 "/>
    <path style=" stroke:none;fill-rule:nonzero;fill:rgb(0%,0%,53.333333%);fill-opacity:1;" d="M 9.210938 6.699219 L 8.507812 6.238281 L 8.136719 6.078125 L 8.460938 6.320312 Z M 9.210938 6.699219 "/>
    <path style=" stroke:none;fill-rule:nonzero;fill:rgb(0%,0%,53.333333%);fill-opacity:1;" d="M 9.167969 5.105469 C 9.191406 5.136719 9.1875 5.179688 9.15625 5.207031 C 9.125 5.230469 9.078125 5.222656 9.054688 5.191406 C 9.03125 5.160156 9.035156 5.113281 9.066406 5.089844 C 9.097656 5.066406 9.144531 5.074219 9.167969 5.105469 Z M 9.167969 5.105469 "/>
    <path style=" stroke:none;fill-rule:nonzero;fill:rgb(0%,0%,53.333333%);fill-opacity:1;" d="M 8.988281 6.988281 L 8.429688 6.363281 L 8.113281 6.113281 L 8.363281 6.429688 Z M 8.988281 6.988281 "/>
    <path style=" stroke:none;fill-rule:nonzero;fill:rgb(0%,0%,53.333333%);fill-opacity:1;" d="M 9.359375 5.4375 C 9.375 5.472656 9.359375 5.515625 9.320312 5.53125 C 9.285156 5.546875 9.242188 5.527344 9.226562 5.492188 C 9.210938 5.457031 9.230469 5.414062 9.265625 5.398438 C 9.304688 5.382812 9.34375 5.402344 9.359375 5.4375 Z M 9.359375 5.4375 "/>
    <path style=" stroke:none;fill-rule:nonzero;fill:rgb(0%,0%,53.333333%);fill-opacity:1;" d="M 8.699219 7.210938 L 8.320312 6.460938 L 8.078125 6.136719 L 8.238281 6.507812 Z M 8.699219 7.210938 "/>
    <path style=" stroke:none;fill-rule:nonzero;fill:rgb(0%,0%,53.333333%);fill-opacity:1;" d="M 9.460938 5.808594 C 9.464844 5.847656 9.4375 5.882812 9.398438 5.890625 C 9.359375 5.894531 9.320312 5.867188 9.316406 5.828125 C 9.3125 5.789062 9.339844 5.75 9.378906 5.746094 C 9.417969 5.742188 9.453125 5.769531 9.460938 5.808594 Z M 9.460938 5.808594 "/>
    <path style=" stroke:none;fill-rule:nonzero;fill:rgb(0%,0%,53.333333%);fill-opacity:1;" d="M 8.363281 7.351562 L 8.191406 6.527344 L 8.042969 6.15625 L 8.097656 6.554688 Z M 8.363281 7.351562 "/>
  </g>
</svg>
