<?xml version="1.0" encoding="utf-8"?>
<!-- Generator: Adobe Illustrator 24.0.1, SVG Export Plug-In . SVG Version: 6.00 Build 0)  -->
<svg version="1.1" id="Symbol" xmlns="http://www.w3.org/2000/svg" xmlns:xlink="http://www.w3.org/1999/xlink" x="0px" y="0px"
	 viewBox="0 0 600 600" style="enable-background:new 0 0 600 600;" xml:space="preserve">
<style type="text/css">
	.st0{fill:#24BE6A;}
	.st1{fill:#16CDD6;}
	.st2{fill:url(#SVGID_1_);}
</style>
<g>
	<path class="st0" d="M362.6,100c-48.5,0-133.6,57.8-188.4,134c-47.8,66.2-65.6,125.4-73.3,184.9c-6.7,42.2,27.8,81.1,70.6,81.1h169
		c12.1,0,22-9.7,22.1-21.7c0.1-12.1-9.8-22-21.8-22H171.2c-16.7,0-29.6-14.8-27.4-31.4c9.2-65.2,27.5-112.6,65.8-165.9
		c59.4-79.9,118.3-106.6,139.9-113.5c21.4-7,36,2.8,36,25.2c11.2-3.4,27.6-7.3,43.3-7.5C425.2,127.9,400.5,100,362.6,100z"/>
	<path class="st1" d="M421.5,395.6c30.2-29.6,78.5-104.3,78.5-168.6c0-22.6-10.3-64.6-66.5-64.6c-104.8,0-236.9,124.9-173,185.9
		c7.9,7.2,20.8,14.9,40.8,14.9c58.3,0,110.9-68.1,125.7-157.2c2.8-0.2,5.6-0.3,8.4-0.3c13.9,0,21,5,21,21.1
		c0,43-33.8,112.3-80.6,152.8c-14.9,13.4-5.3,29.6,2,34.8c25.4,20.6,42.1,42.9,48.4,67.9c2.8,10.2,11,17.6,21.4,17.6
		c15.2,0,21.2-13.7,21.2-23.1C468.7,455,444.4,417.2,421.5,395.6z M301.3,320.4c-40.7,0,9.9-72.7,78.8-102.3
		C362,288.6,324.7,320.4,301.3,320.4z"/>
	<linearGradient id="SVGID_1_" gradientUnits="userSpaceOnUse" x1="357.7275" y1="211.3867" x2="368.3018" y2="332.2512">
		<stop  offset="0" style="stop-color:#006838"/>
		<stop  offset="1.947997e-02" style="stop-color:#036F3C"/>
		<stop  offset="0.1274" style="stop-color:#119150"/>
		<stop  offset="0.2297" style="stop-color:#1CAA5E"/>
		<stop  offset="0.3233" style="stop-color:#22B967"/>
		<stop  offset="0.4" style="stop-color:#24BE6A"/>
		<stop  offset="0.9" style="stop-color:#16CDD6;stop-opacity:0"/>
	</linearGradient>
	<path class="st2" d="M301.3,320.4v42.8c58.3,0,110.9-68.1,125.7-157.2c-16,1.2-31.9,5.6-46.9,12.1
		C362,288.6,324.7,320.4,301.3,320.4z"/>
</g>
</svg>
