<svg width="42" height="42" viewBox="0 0 42 42" fill="none" xmlns="http://www.w3.org/2000/svg">
<path d="M34.6875 13.3359C37.4453 12.6875 39.5 10.2109 39.5 7.25C39.5 3.79688 36.7031 1 33.25 1C29.8594 1 27.1016 3.69531 27 7.05469L12.6406 12.8047C11.5078 11.6875 9.96094 11 8.25 11C4.79688 11 2 13.7969 2 17.25C2 20.7031 4.79688 23.5 8.25 23.5C9.20312 23.5 10.1094 23.2891 10.9141 22.9062L22.2891 32.8594C22.1016 33.4531 22 34.0938 22 34.75C22 38.2031 24.7969 41 28.25 41C31.7031 41 34.5 38.2031 34.5 34.75C34.5 32.5859 33.4062 30.6797 31.7344 29.5625L34.6875 13.3359ZM14.2109 19.1406C14.3828 18.6016 14.4844 18.0312 14.5 17.4453L28.8594 11.7031C29.1406 11.9766 29.4375 12.2266 29.7656 12.4453L26.8125 28.6641C26.3828 28.7656 25.9688 28.9062 25.5781 29.0938L14.2109 19.1406Z" fill="#1749B9"/>
</svg>
