<svg width="42" height="42" viewBox="0 0 42 42" fill="none" xmlns="http://www.w3.org/2000/svg">
<g clip-path="url(#clip0_33_1859)">
<path d="M27.5625 28.875C35.5359 28.875 42 22.4109 42 14.4375C42 6.46406 35.5359 0 27.5625 0C19.5891 0 13.125 6.46406 13.125 14.4375C13.125 15.9715 13.3629 17.4562 13.8059 18.8426L0.574219 32.0742C0.205078 32.4434 0 32.9437 0 33.4688V40.0312C0 41.1223 0.877734 42 1.96875 42H8.53125C9.62227 42 10.5 41.1223 10.5 40.0312V36.75H13.7812C14.8723 36.75 15.75 35.8723 15.75 34.7812V31.5H19.0312C19.5563 31.5 20.0566 31.2949 20.4258 30.9258L23.1574 28.1941C24.5437 28.6371 26.0285 28.875 27.5625 28.875ZM30.8438 7.875C31.714 7.875 32.5486 8.2207 33.1639 8.83606C33.7793 9.45141 34.125 10.286 34.125 11.1562C34.125 12.0265 33.7793 12.8611 33.1639 13.4764C32.5486 14.0918 31.714 14.4375 30.8438 14.4375C29.9735 14.4375 29.1389 14.0918 28.5236 13.4764C27.9082 12.8611 27.5625 12.0265 27.5625 11.1562C27.5625 10.286 27.9082 9.45141 28.5236 8.83606C29.1389 8.2207 29.9735 7.875 30.8438 7.875Z" fill="#1749B9"/>
</g>
<defs>
<clipPath id="clip0_33_1859">
<rect width="42" height="42" fill="white"/>
</clipPath>
</defs>
</svg>
