<svg width="14" height="22" viewBox="0 0 14 22" fill="none" xmlns="http://www.w3.org/2000/svg">
<path d="M12.2932 14.293C12.6832 13.903 13.3172 13.903 13.7072 14.293C14.0982 14.684 14.0982 15.317 13.7072 15.707L7.70724 21.707C7.31724 22.098 6.68324 22.098 6.29324 21.707L0.293236 15.707C-0.0977637 15.317 -0.0977637 14.684 0.293236 14.293C0.683236 13.903 1.31724 13.903 1.70724 14.293L6.00024 18.586L6.00024 1.011C6.00024 0.453001 6.44824 -3.30119e-07 7.00024 -3.05991e-07C7.55224 -2.81862e-07 8.00024 0.453001 8.00024 1.011L8.00024 18.586L12.2932 14.293Z" fill="#16CDD6"/>
</svg>
