<svg width="200" height="164" viewBox="0 0 200 164" fill="none" xmlns="http://www.w3.org/2000/svg">
<g clip-path="url(#clip0)">
<rect width="72" height="72" rx="36" fill="#C9EEEA"/>
<path d="M47.5117 26.5774L37.0117 22.2024C36.6919 22.0698 36.349 22.0015 36.0027 22.0015C35.6565 22.0015 35.3136 22.0698 34.9938 22.2024L24.4937 26.5774C23.5148 26.9821 22.875 27.9392 22.875 29.0001C22.875 39.8556 29.1367 47.3587 34.9883 49.7978C35.6336 50.0657 36.3609 50.0657 37.0062 49.7978C41.693 47.8454 49.125 41.1024 49.125 29.0001C49.125 27.9392 48.4852 26.9821 47.5117 26.5774ZM36.0055 46.4071L36 25.5712L45.6195 29.5798C45.4391 37.8595 41.1297 43.8587 36.0055 46.4071Z" fill="#1749B9"/>
<rect x="72" width="72" height="72" rx="36" fill="#C9EEEA"/>
<path d="M114.3 21H101.7C100.209 21 99 22.2598 99 23.8125V48.1875C99 49.7402 100.209 51 101.7 51H114.3C115.791 51 117 49.7402 117 48.1875V23.8125C117 22.2598 115.791 21 114.3 21ZM108 49.125C107.004 49.125 106.2 48.2871 106.2 47.25C106.2 46.2129 107.004 45.375 108 45.375C108.996 45.375 109.8 46.2129 109.8 47.25C109.8 48.2871 108.996 49.125 108 49.125Z" fill="#1749B9"/>
<rect y="72" width="72" height="72" rx="36" fill="#C9EEEA"/>
<path d="M22 116.165V118.5C22 120.43 26.7031 122 32.5 122C38.2969 122 43 120.43 43 118.5V116.165C40.7414 117.756 36.6125 118.5 32.5 118.5C28.3875 118.5 24.2586 117.756 22 116.165ZM39.5 101C45.2969 101 50 99.4305 50 97.5C50 95.5695 45.2969 94 39.5 94C33.7031 94 29 95.5695 29 97.5C29 99.4305 33.7031 101 39.5 101ZM22 110.428V113.25C22 115.18 26.7031 116.75 32.5 116.75C38.2969 116.75 43 115.18 43 113.25V110.428C40.7414 112.288 36.607 113.25 32.5 113.25C28.393 113.25 24.2586 112.288 22 110.428ZM44.75 111.03C47.8836 110.423 50 109.296 50 108V105.665C48.7313 106.562 46.8664 107.174 44.75 107.552V111.03ZM32.5 102.75C26.7031 102.75 22 104.708 22 107.125C22 109.542 26.7031 111.5 32.5 111.5C38.2969 111.5 43 109.542 43 107.125C43 104.708 38.2969 102.75 32.5 102.75ZM44.493 105.829C47.7742 105.238 50 104.079 50 102.75V100.415C48.0586 101.788 44.7227 102.526 41.2117 102.701C42.825 103.483 44.0117 104.533 44.493 105.829Z" fill="#1749B9"/>
<rect x="72" y="72" width="72" height="72" rx="36" fill="#C9EEEA"/>
<path d="M94 116.094C94 117.388 95.0451 118.438 96.3333 118.438H119.667C120.955 118.438 122 117.388 122 116.094V107.5H94V116.094ZM103.333 112.773C103.333 112.451 103.596 112.188 103.917 112.188H110.528C110.849 112.188 111.111 112.451 111.111 112.773V114.727C111.111 115.049 110.849 115.312 110.528 115.312H103.917C103.596 115.312 103.333 115.049 103.333 114.727V112.773ZM97.1111 112.773C97.1111 112.451 97.3736 112.188 97.6944 112.188H101.194C101.515 112.188 101.778 112.451 101.778 112.773V114.727C101.778 115.049 101.515 115.312 101.194 115.312H97.6944C97.3736 115.312 97.1111 115.049 97.1111 114.727V112.773ZM122 98.9062V101.25H94V98.9062C94 97.6123 95.0451 96.5625 96.3333 96.5625H119.667C120.955 96.5625 122 97.6123 122 98.9062Z" fill="#1749B9"/>
<path fill-rule="evenodd" clip-rule="evenodd" d="M144 48C144 39.1634 151.163 32 160 32C168.837 32 176 39.1634 176 48C176 56.8366 168.837 64 160 64C151.163 64 144 56.8366 144 48Z" fill="#2BD5C0"/>
<path d="M157.917 39.6667C157.585 39.6667 157.267 39.7984 157.033 40.0329C156.798 40.2673 156.667 40.5852 156.667 40.9167C156.667 41.2483 156.798 41.5662 157.033 41.8006C157.267 42.0351 157.585 42.1667 157.917 42.1667C158.248 42.1667 158.566 42.0351 158.801 41.8006C159.035 41.5662 159.167 41.2483 159.167 40.9167C159.167 40.5852 159.035 40.2673 158.801 40.0329C158.566 39.7984 158.248 39.6667 157.917 39.6667V39.6667ZM162.083 39.6667C161.752 39.6667 161.434 39.7984 161.199 40.0329C160.965 40.2673 160.833 40.5852 160.833 40.9167C160.833 41.2483 160.965 41.5662 161.199 41.8006C161.434 42.0351 161.752 42.1667 162.083 42.1667C162.415 42.1667 162.733 42.0351 162.967 41.8006C163.202 41.5662 163.333 41.2483 163.333 40.9167C163.333 40.5852 163.202 40.2673 162.967 40.0329C162.733 39.7984 162.415 39.6667 162.083 39.6667V39.6667ZM160 43.0001C155.768 43.0001 152.438 43.8228 152.298 43.8578L152.702 45.4757C152.71 45.4735 152.946 45.4174 153.34 45.3373C152.673 47.0984 151.667 50.3162 151.667 53.8334C151.667 54.7676 152.399 55.5001 153.333 55.5001H166.667C167.601 55.5001 168.333 54.7676 168.333 53.8334C168.333 50.3162 167.327 47.0984 166.66 45.3373C167.054 45.4174 167.29 45.4735 167.298 45.4757L167.702 43.8578C167.562 43.8228 164.232 43.0001 160 43.0001ZM160 44.6667C161.816 44.6667 163.455 44.8318 164.731 45.0118C165.113 45.8743 166.667 49.6152 166.667 53.8334H153.333C153.333 49.6268 154.887 45.8761 155.269 45.0118C156.545 44.8318 158.184 44.6667 160 44.6667Z" fill="white"/>
<rect x="144" width="32" height="32" rx="16" fill="#2BD5C0"/>
<path d="M160 6.85791C159.158 6.85791 158.316 7.12725 157.65 7.66683H155.019L155.973 12.8573C154.417 14.2644 151.667 17.272 151.667 21.0002C151.667 22.6685 152.174 23.994 153.175 24.939L153.416 25.1668H166.584L166.825 24.939C167.825 23.9931 168.333 22.6685 168.333 21.0002C168.333 17.2756 165.584 14.2675 164.028 12.8589L164.982 7.66683H162.35C161.684 7.12725 160.842 6.85791 160 6.85791ZM160 8.51969C160.53 8.51969 161.058 8.71128 161.452 9.09587L161.696 9.3335H162.98L162.521 11.8335H157.479L157.02 9.3335H158.304L158.548 9.09587C158.941 8.71128 159.47 8.51969 160 8.51969ZM157.785 13.5002H162.217C163.117 14.2177 166.667 17.2827 166.667 21.0002C166.667 22.0693 166.413 22.891 165.895 23.5002H154.103C153.586 22.891 153.333 22.0693 153.333 21.0002C153.333 17.2935 156.885 14.2193 157.785 13.5002ZM159.167 14.3335V15.1668H157.5V21.8335H159.167V22.6668H160.833V21.8335H161.25C162.401 21.8335 163.333 20.901 163.333 19.7502C163.333 19.0073 162.942 18.3612 162.357 17.9923C162.445 17.761 162.5 17.5127 162.5 17.2502C162.5 16.2421 161.784 15.4022 160.833 15.2091V14.3335H159.167ZM159.167 16.8335H160.417C160.647 16.8335 160.833 17.0202 160.833 17.2502C160.833 17.4802 160.647 17.6668 160.417 17.6668H159.167V16.8335ZM159.167 19.3335H160.417H161.25C161.48 19.3335 161.667 19.5202 161.667 19.7502C161.667 19.9802 161.48 20.1668 161.25 20.1668H159.167V19.3335Z" fill="white"/>
<path fill-rule="evenodd" clip-rule="evenodd" d="M144 80C144 71.1634 151.163 64 160 64C168.837 64 176 71.1634 176 80C176 88.8366 168.837 96 160 96C151.163 96 144 88.8366 144 80Z" fill="#2BD5C0"/>
<path d="M165.833 72.5V79.1667M158.333 78.3333C157.412 78.3333 156.667 77.5875 156.667 76.6667V75C156.667 74.0792 157.412 73.3333 158.333 73.3333C159.254 73.3333 160 74.0792 160 75V76.6667C160 77.5875 159.254 78.3333 158.333 78.3333ZM162.5 72.5V79.1667V72.5ZM154.167 72.5V79.1667V72.5ZM161.667 86.6667C160.746 86.6667 160 85.9208 160 85V83.3333C160 82.4125 160.746 81.6667 161.667 81.6667C162.587 81.6667 163.333 82.4125 163.333 83.3333V85C163.333 85.9208 162.587 86.6667 161.667 86.6667ZM155.833 86.6667C154.912 86.6667 154.167 85.9208 154.167 85V83.3333C154.167 82.4125 154.912 81.6667 155.833 81.6667C156.754 81.6667 157.5 82.4125 157.5 83.3333V85C157.5 85.9208 156.754 86.6667 155.833 86.6667ZM165.833 80.8333V87.5V80.8333Z" stroke="white" stroke-width="2" stroke-miterlimit="10"/>
<path d="M6.68952 159.523C6.68952 159.602 6.59677 159.664 6.47984 159.664C6.34677 159.676 6.25403 159.613 6.25403 159.523C6.25403 159.445 6.34677 159.383 6.46371 159.383C6.58468 159.371 6.68952 159.434 6.68952 159.523ZM5.43548 159.348C5.40726 159.426 5.4879 159.516 5.60887 159.539C5.71371 159.578 5.83468 159.539 5.85887 159.461C5.88306 159.383 5.80645 159.293 5.68548 159.258C5.58064 159.23 5.46371 159.27 5.43548 159.348ZM7.21774 159.281C7.10081 159.309 7.02016 159.383 7.03226 159.473C7.04435 159.551 7.14919 159.602 7.27016 159.574C7.3871 159.547 7.46774 159.473 7.45564 159.395C7.44355 159.32 7.33468 159.27 7.21774 159.281ZM9.87097 144.312C4.27823 144.312 0 148.426 0 153.844C0 158.176 2.81452 161.883 6.83468 163.188C7.35081 163.277 7.53226 162.969 7.53226 162.715C7.53226 162.473 7.52016 161.137 7.52016 160.316C7.52016 160.316 4.69758 160.902 4.10484 159.152C4.10484 159.152 3.64516 158.016 2.98387 157.723C2.98387 157.723 2.06048 157.109 3.04839 157.121C3.04839 157.121 4.05242 157.199 4.60484 158.129C5.4879 159.637 6.96774 159.203 7.54435 158.945C7.6371 158.32 7.89919 157.887 8.18952 157.629C5.93548 157.387 3.66129 157.07 3.66129 153.312C3.66129 152.238 3.96774 151.699 4.6129 151.012C4.50806 150.758 4.16532 149.711 4.71774 148.359C5.56048 148.105 7.5 149.414 7.5 149.414C8.30645 149.195 9.17339 149.082 10.0323 149.082C10.8911 149.082 11.7581 149.195 12.5645 149.414C12.5645 149.414 14.504 148.102 15.3468 148.359C15.8992 149.715 15.5565 150.758 15.4516 151.012C16.0968 151.703 16.4919 152.242 16.4919 153.312C16.4919 157.082 14.1169 157.383 11.8629 157.629C12.2339 157.937 12.5484 158.523 12.5484 159.441C12.5484 160.758 12.5363 162.387 12.5363 162.707C12.5363 162.961 12.7218 163.27 13.2339 163.18C17.2661 161.883 20 158.176 20 153.844C20 148.426 15.4637 144.312 9.87097 144.312ZM3.91935 157.785C3.86694 157.824 3.87903 157.914 3.94758 157.988C4.0121 158.051 4.10484 158.078 4.15726 158.027C4.20968 157.988 4.19758 157.898 4.12903 157.824C4.06452 157.762 3.97177 157.734 3.91935 157.785ZM3.48387 157.469C3.45565 157.52 3.49597 157.582 3.57661 157.621C3.64113 157.66 3.72177 157.648 3.75 157.594C3.77823 157.543 3.7379 157.48 3.65726 157.441C3.57661 157.418 3.5121 157.43 3.48387 157.469ZM4.79032 158.859C4.72581 158.91 4.75 159.027 4.84274 159.102C4.93548 159.191 5.05242 159.203 5.10484 159.141C5.15726 159.09 5.13306 158.973 5.05242 158.898C4.96371 158.809 4.84274 158.797 4.79032 158.859ZM4.33065 158.285C4.26613 158.324 4.26613 158.426 4.33065 158.516C4.39516 158.605 4.50403 158.645 4.55645 158.605C4.62097 158.555 4.62097 158.453 4.55645 158.363C4.5 158.273 4.39516 158.234 4.33065 158.285Z" fill="#073A3F"/>
<path d="M187.305 18.538H180.62C179.576 18.538 178.729 17.6915 178.729 16.6471V8.3245C178.729 7.28018 179.576 6.43359 180.62 6.43359H192.978C194.022 6.43359 194.869 7.28018 194.869 8.3245V10.9744" stroke="#073A3F" stroke-width="1.5" stroke-linecap="round" stroke-linejoin="round"/>
<path d="M178.729 16.6472V5.87755C178.729 5.07732 179.233 4.36374 179.987 4.09579L189.508 2.60332C190.492 2.25364 191.574 2.76788 191.923 3.75192C191.995 3.9552 192.032 4.16934 192.032 4.38508V6.24719" stroke="#073A3F" stroke-width="1.5" stroke-linecap="round" stroke-linejoin="round"/>
<path d="M192.911 22.2727C196.044 22.2727 198.584 19.7329 198.584 16.6C198.584 13.467 196.044 10.9272 192.911 10.9272C189.778 10.9272 187.239 13.467 187.239 16.6C187.239 19.7329 189.778 22.2727 192.911 22.2727Z" stroke="#073A3F" stroke-width="1.5" stroke-linecap="round" stroke-linejoin="round"/>
<path d="M193.017 15.145V18.6701" stroke="#073A3F" stroke-width="1.5" stroke-linecap="round" stroke-linejoin="round"/>
<path d="M194.78 16.9077H191.254" stroke="#073A3F" stroke-width="1.5" stroke-linecap="round" stroke-linejoin="round"/>
<path d="M188 33.929L191.821 37.75C192.235 38.164 192.907 38.164 193.321 37.75C193.735 37.336 193.735 36.664 193.321 36.25L188.707 31.636C188.316 31.245 187.683 31.245 187.293 31.636L182.679 36.25C182.265 36.664 182.265 37.336 182.679 37.75C183.093 38.164 183.765 38.164 184.179 37.75L188 33.929Z" fill="#748183"/>
<path d="M188 62.071L184.179 58.25C183.765 57.836 183.093 57.836 182.679 58.25C182.265 58.664 182.265 59.336 182.679 59.75L187.293 64.364C187.684 64.755 188.317 64.755 188.707 64.364L193.321 59.75C193.735 59.336 193.735 58.664 193.321 58.25C192.907 57.836 192.235 57.836 191.821 58.25L188 62.071Z" fill="#748183"/>
<path d="M159.293 102.707C158.903 102.317 158.903 101.683 159.293 101.293C159.684 100.902 160.317 100.902 160.707 101.293L166.707 107.293C167.098 107.683 167.098 108.317 166.707 108.707L160.707 114.707C160.317 115.098 159.684 115.098 159.293 114.707C158.903 114.317 158.903 113.683 159.293 113.293L163.586 109H146.011C145.453 109 145 108.552 145 108C145 107.448 145.453 107 146.011 107H163.586L159.293 102.707Z" fill="#2BD5C0"/>
<path d="M187.07 91.2168H180C178.895 91.2168 178 90.3214 178 89.2168V80.4141C178 79.3095 178.895 78.4141 180 78.4141H193.07C194.175 78.4141 195.07 79.3095 195.07 80.4141V82.2168" stroke="white" stroke-width="1.5" stroke-linecap="round" stroke-linejoin="round"/>
<path d="M193 94C196.314 94 199 91.3137 199 88C199 84.6863 196.314 82 193 82C189.686 82 187 84.6863 187 88C187 91.3137 189.686 94 193 94Z" stroke="white" stroke-width="1.5" stroke-linecap="round" stroke-linejoin="round"/>
<path d="M193.19 90.3501L193.19 86.2012" stroke="white" stroke-width="1.5" stroke-linecap="round" stroke-linejoin="round"/>
<path d="M191.664 87.3117L193.184 85.8646L194.716 87.2709" stroke="white" stroke-width="1.5" stroke-linecap="round" stroke-linejoin="round"/>
<path d="M178 89.2169V77.8259C178 76.9796 178.533 76.2248 179.33 75.9414L189.401 74.3628C190.442 73.993 191.585 74.5369 191.955 75.5777C192.031 75.7927 192.07 76.0192 192.07 76.2474V78.2169" stroke="white" stroke-width="1.5" stroke-linecap="round" stroke-linejoin="round"/>
<path d="M159.293 126.707C158.903 126.317 158.903 125.683 159.293 125.293C159.684 124.902 160.317 124.902 160.707 125.293L166.707 131.293C167.098 131.683 167.098 132.317 166.707 132.707L160.707 138.707C160.317 139.098 159.684 139.098 159.293 138.707C158.903 138.317 158.903 137.683 159.293 137.293L163.586 133H146.011C145.453 133 145 132.552 145 132C145 131.448 145.453 131 146.011 131H163.586L159.293 126.707Z" fill="white"/>
</g>
<defs>
<clipPath id="clip0">
<rect width="200" height="164" fill="white"/>
</clipPath>
</defs>
</svg>
