<svg width="1440" height="900" viewBox="0 0 1440 900" fill="none" xmlns="http://www.w3.org/2000/svg">
<mask id="mask0" mask-type="alpha" maskUnits="userSpaceOnUse" x="0" y="0" width="1440" height="900">
<path d="M0 0H1440V900H0V0Z" fill="white"/>
</mask>
<g mask="url(#mask0)">
<path d="M0 0H1440V900H0V0Z" fill="url(#paint0_linear)"/>
<path opacity="0.03" d="M1323.95 298.075C1392.92 304.722 1437.09 304.722 1456.43 298.075L1406.59 330.987L1456.43 349.191L1182.04 355.553L1352.46 331.814L1112.81 272.24C1248.02 264.544 1330.23 260.696 1359.45 260.696C1373.31 260.696 1334.18 267.877 1242.06 282.24L1323.95 298.075Z" fill="white"/>
<g opacity="0.1" filter="url(#filter0_f)">
<path d="M740 923.849C963.04 923.849 1143.85 743.04 1143.85 520C1143.85 296.961 963.04 116.151 740 116.151C516.96 116.151 336.151 296.961 336.151 520C336.151 743.04 516.96 923.849 740 923.849Z" fill="#C3FFF9"/>
</g>
<path opacity="0.2" d="M983 155.45C984.353 155.45 985.45 154.353 985.45 153C985.45 151.647 984.353 150.55 983 150.55C981.647 150.55 980.55 151.647 980.55 153C980.55 154.353 981.647 155.45 983 155.45Z" fill="white"/>
<path opacity="0.34" d="M879.854 475.625C880.406 475.625 880.854 475.177 880.854 474.625C880.854 474.072 880.406 473.625 879.854 473.625C879.302 473.625 878.854 474.072 878.854 474.625C878.854 475.177 879.302 475.625 879.854 475.625Z" fill="white"/>
<path opacity="0.34" d="M283.12 226.971C283.672 226.971 284.12 226.523 284.12 225.971C284.12 225.418 283.672 224.971 283.12 224.971C282.568 224.971 282.12 225.418 282.12 225.971C282.12 226.523 282.568 226.971 283.12 226.971Z" fill="white"/>
<path opacity="0.2" d="M722.45 228.421C723.803 228.421 724.9 227.324 724.9 225.971C724.9 224.618 723.803 223.521 722.45 223.521C721.097 223.521 720 224.618 720 225.971C720 227.324 721.097 228.421 722.45 228.421Z" fill="white"/>
<path opacity="0.2" d="M533.233 510.104C534.586 510.104 535.683 509.007 535.683 507.654C535.683 506.301 534.586 505.204 533.233 505.204C531.88 505.204 530.783 506.301 530.783 507.654C530.783 509.007 531.88 510.104 533.233 510.104Z" fill="white"/>
<path opacity="0.2" d="M294.539 317.985C295.892 317.985 296.989 316.888 296.989 315.535C296.989 314.182 295.892 313.085 294.539 313.085C293.186 313.085 292.089 314.182 292.089 315.535C292.089 316.888 293.186 317.985 294.539 317.985Z" fill="white"/>
<path opacity="0.2" d="M27.5 332.157C28.8531 332.157 29.95 331.06 29.95 329.707C29.95 328.354 28.8531 327.257 27.5 327.257C26.1469 327.257 25.05 328.354 25.05 329.707C25.05 331.06 26.1469 332.157 27.5 332.157Z" fill="white"/>
<path opacity="0.2" d="M1056.9 464.8C1059.61 464.8 1061.8 462.606 1061.8 459.9C1061.8 457.194 1059.61 455 1056.9 455C1054.19 455 1052 457.194 1052 459.9C1052 462.606 1054.19 464.8 1056.9 464.8Z" fill="white"/>
<path d="M948.879 245.605C949.556 245.605 950.104 245.056 950.104 244.38C950.104 243.703 949.556 243.155 948.879 243.155C948.202 243.155 947.654 243.703 947.654 244.38C947.654 245.056 948.202 245.605 948.879 245.605Z" fill="white"/>
<path d="M650.881 507.654C651.557 507.654 652.106 507.106 652.106 506.429C652.106 505.753 651.557 505.204 650.881 505.204C650.204 505.204 649.656 505.753 649.656 506.429C649.656 507.106 650.204 507.654 650.881 507.654Z" fill="white"/>
<path d="M246.225 500.304C246.902 500.304 247.45 499.756 247.45 499.079C247.45 498.403 246.902 497.854 246.225 497.854C245.548 497.854 245 498.403 245 499.079C245 499.756 245.548 500.304 246.225 500.304Z" fill="white"/>
<path d="M479.775 150.998C480.452 150.998 481 150.449 481 149.773C481 149.096 480.452 148.548 479.775 148.548C479.098 148.548 478.55 149.096 478.55 149.773C478.55 150.449 479.098 150.998 479.775 150.998Z" fill="white"/>
<path d="M349.341 411.115C350.017 411.115 350.566 410.567 350.566 409.89C350.566 409.213 350.017 408.665 349.341 408.665C348.664 408.665 348.116 409.213 348.116 409.89C348.116 410.567 348.664 411.115 349.341 411.115Z" fill="white"/>
<path d="M47.6846 449.362C48.3611 449.362 48.9096 448.813 48.9096 448.137C48.9096 447.46 48.3611 446.912 47.6846 446.912C47.008 446.912 46.4596 447.46 46.4596 448.137C46.4596 448.813 47.008 449.362 47.6846 449.362Z" fill="white"/>
<path d="M45.2346 203.146C45.9111 203.146 46.4596 202.597 46.4596 201.921C46.4596 201.244 45.9111 200.696 45.2346 200.696C44.558 200.696 44.0096 201.244 44.0096 201.921C44.0096 202.597 44.558 203.146 45.2346 203.146Z" fill="white"/>
<path d="M1129.62 423.902C1130.29 423.902 1130.84 423.353 1130.84 422.677C1130.84 422 1130.29 421.452 1129.62 421.452C1128.94 421.452 1128.39 422 1128.39 422.677C1128.39 423.353 1128.94 423.902 1129.62 423.902Z" fill="white"/>
<path d="M1413.59 315.535C1414.26 315.535 1414.81 314.986 1414.81 314.31C1414.81 313.633 1414.26 313.085 1413.59 313.085C1412.91 313.085 1412.36 313.633 1412.36 314.31C1412.36 314.986 1412.91 315.535 1413.59 315.535Z" fill="white"/>
<path d="M1384.53 224.746C1385.21 224.746 1385.76 224.197 1385.76 223.521C1385.76 222.844 1385.21 222.296 1384.53 222.296C1383.86 222.296 1383.31 222.844 1383.31 223.521C1383.31 224.197 1383.86 224.746 1384.53 224.746Z" fill="white"/>
<path opacity="0.1" d="M304.476 226L27.012 263.426L140.524 287.177L-78 322.166L104.476 414.389L-6.36407 336.069L328.314 317.063L125.157 263.426L304.476 226Z" fill="white"/>
<path opacity="0.2" d="M732.213 673.283H745.581V674.088H732.213V673.283Z" fill="url(#paint1_linear)"/>
<path opacity="0.1" d="M812.685 509.95C881.66 516.597 925.821 516.597 945.167 509.95L915.322 532.862L945.167 551.066L670.772 557.429L841.198 533.69L601.544 494.116C736.752 486.419 818.966 482.571 848.188 482.571C862.05 482.571 822.919 486.419 730.795 494.116L812.685 509.95Z" fill="white"/>
<path d="M1121.83 635.651C1162.05 635.651 1194.65 603.046 1194.65 562.825C1194.65 522.605 1162.05 490 1121.83 490C1081.61 490 1049 522.605 1049 562.825C1049 603.046 1081.61 635.651 1121.83 635.651Z" fill="#6EFDEB"/>
<g opacity="0.3" filter="url(#filter1_f)">
<path d="M1120 630.548C1172.22 630.548 1214.55 588.217 1214.55 536C1214.55 483.783 1172.22 441.452 1120 441.452C1067.78 441.452 1025.45 483.783 1025.45 536C1025.45 588.217 1067.78 630.548 1120 630.548Z" fill="#C3FFF9"/>
</g>
<path opacity="0.1" d="M698.687 509.507H866.697L704.313 542.675H924.337" stroke="#49DECB" stroke-width="7" stroke-linecap="round" stroke-linejoin="round"/>
<mask id="mask1" mask-type="alpha" maskUnits="userSpaceOnUse" x="0" y="466" width="1452" height="468">
<path d="M0 547.786L67.9053 499.44L79.1245 482.214L95.3989 479.441C96.5675 474.889 99.0373 472.29 102.808 471.647C106.579 471.003 112.687 471.917 121.131 474.39C136.997 507.473 161.728 538.604 195.326 567.786C198.119 570.211 234.903 569.937 237.511 566.786C247.994 554.119 269.671 533.627 302.541 505.311L339.923 494.39L360.109 483.742C364.168 481.6 369.165 482.497 372.226 485.918L398.012 514.731C438.317 546.207 465.307 567.297 478.981 578C481.782 580.193 493.326 586.334 507.759 579.652C510.861 578.215 523.4 567.559 528.448 564.311C537.332 561.287 552.982 550.595 575.397 532.235L625.31 564.311C657.535 546.814 677.143 534.176 684.135 526.398C691.127 518.62 697.007 517.362 701.775 522.623L763.795 567.786L815.754 561.945L839.125 548L861.5 541.398L899.802 585.586L940.748 542.652C950.955 531.949 963.409 523.644 977.212 518.334L986.58 514.731L1085.55 561.945C1093.78 572.648 1102.49 573.437 1111.68 564.311C1119.86 556.191 1146.18 532.998 1190.63 494.731L1222.09 484.39L1310.07 538L1369.82 494.731L1390 486.398L1412.86 466.385L1440 494.39L1451.42 526.398V933.124H0V547.786Z" fill="white"/>
</mask>
<g mask="url(#mask1)">
<path d="M0 547.786L67.9053 499.44L79.1245 482.214L95.3989 479.441C96.5675 474.889 99.0373 472.29 102.808 471.647C106.579 471.003 112.687 471.917 121.131 474.39C136.997 507.473 161.728 538.604 195.326 567.786C198.119 570.211 234.903 569.937 237.511 566.786C247.994 554.119 269.671 533.627 302.541 505.311L339.923 494.39L360.109 483.742C364.168 481.6 369.165 482.497 372.226 485.918L398.012 514.731C438.317 546.207 465.307 567.297 478.981 578C481.782 580.193 493.326 586.334 507.759 579.652C510.861 578.215 523.4 567.559 528.448 564.311C537.332 561.287 552.982 550.595 575.397 532.235L625.31 564.311C657.535 546.814 677.143 534.176 684.135 526.398C691.127 518.62 697.007 517.362 701.775 522.623L763.795 567.786L815.754 561.945L839.125 548L861.5 541.398L899.802 585.586L940.748 542.652C950.955 531.949 963.409 523.644 977.212 518.334L986.58 514.731L1085.55 561.945C1093.78 572.648 1102.49 573.437 1111.68 564.311C1119.86 556.191 1146.18 532.998 1190.63 494.731L1222.09 484.39L1310.07 538L1369.82 494.731L1390 486.398L1412.86 466.385L1440 494.39L1451.42 526.398V933.124H0V547.786Z" fill="url(#paint2_linear)"/>
<path opacity="0.4" d="M857.027 639.691C774.655 675.91 728.98 710.665 720 743.957C710.062 780.804 690.405 771.376 632.648 768.02C539.224 762.59 480.062 741.278 455.164 704.085L-29.1094 756.812L-16.2773 416.621L941.273 426.34L913.047 573.824L857.027 639.691Z" fill="#097483"/>
<path d="M88.6752 470.848C152.334 567.097 201.037 599.868 234.785 569.16C268.532 538.452 265.988 505.681 227.151 470.848H88.6752Z" fill="url(#paint3_linear)"/>
<path d="M359.817 478.446C375.166 533.469 385.957 562.828 392.191 566.523C398.425 570.218 417.191 577.718 448.488 589.021L477.317 599.794C462.37 607.936 458.634 612.006 466.107 612.006C473.581 612.006 497.278 617.524 537.199 628.56C561.294 640.458 577.128 644.391 584.702 640.36C596.063 634.313 610.471 620 643.176 645.046C653.17 652.699 710.509 668.377 736.605 656.117C758.141 646 749.06 620.139 788.895 612.006C801.974 609.336 843.672 603.611 861.989 540.692C816.692 469.913 676.594 436.645 441.694 440.888L359.817 478.446Z" fill="url(#paint4_linear)"/>
<path d="M1413.08 464.595C1385.04 509.565 1358.08 537.747 1332.19 549.142C1320.64 554.226 1310.26 544.001 1301.05 518.466L1413.08 464.595Z" fill="url(#paint5_linear)"/>
<path d="M1221.64 464.32C1211.24 548.606 1197.29 590.75 1179.8 590.75C1144.45 590.75 1161.97 591.556 1170.22 608.367C1137.8 604.347 1085.34 620.499 1012.84 656.824L1206.04 450.227L1221.64 464.32Z" fill="url(#paint6_linear)"/>
<path d="M992.277 496.52C979.264 558.272 960.171 594.911 934.996 606.438C909.822 617.964 882.701 629.522 853.633 641.113L1003.24 450.969L992.277 496.52Z" fill="url(#paint7_linear)"/>
<path opacity="0.3" d="M574.402 532.141C589.119 558.13 606.189 571.125 625.611 571.125C645.033 571.125 676.496 549.906 720 507.469L574.402 532.141Z" fill="#85FDEE"/>
<path opacity="0.4" d="M465.214 701.044C442.957 696.481 428.01 692.416 420.375 688.847C378.93 669.478 359.744 651.112 348.857 644.365C316.201 624.128 311.145 616.408 288.911 601.764C285.349 598.452 280.637 598.452 274.777 601.764L249.884 623.501C234.337 637.077 214.969 645.51 194.438 647.642L170.318 650.146L153.598 628.043C152.265 626.281 149.756 625.933 147.994 627.266C147.835 627.386 147.686 627.518 147.546 627.661L135.027 640.478L35.2843 708.828H-1.33514e-05L-22.652 753.791L364.202 831.925L455.807 729.632L465.214 701.044Z" fill="url(#paint8_linear)"/>
<path opacity="0.2" d="M1208.86 483.336C1148.88 551.393 1112.01 579.533 1098.25 567.755C1084.49 555.977 1115.45 523.141 1191.14 469.247L1208.86 483.336Z" fill="#0EAEB0"/>
</g>
<mask id="mask2" mask-type="alpha" maskUnits="userSpaceOnUse" x="1004" y="660" width="1219" height="294">
<path d="M1004 807.43C1094.74 729.515 1159.64 690.558 1198.69 690.558C1257.28 690.558 1481.17 832.846 1613.08 742.638C1745 652.43 1772.55 625.681 1924.66 719.781C2076.78 813.882 2195.93 727.021 2213.77 674.995C2225.66 640.311 2225.66 733.313 2213.77 954H1099.43L1004 807.43Z" fill="white"/>
</mask>
<g mask="url(#mask2)">
<path d="M1004 807.43C1094.74 729.515 1159.64 690.558 1198.69 690.558C1257.28 690.558 1481.17 832.846 1613.08 742.638C1745 652.43 1772.55 625.681 1924.66 719.781C2076.78 813.882 2195.93 727.021 2213.77 674.995C2225.66 640.311 2225.66 733.313 2213.77 954H1099.43L1004 807.43Z" fill="url(#paint9_linear)"/>
<path opacity="0.4" d="M1183.61 665C1236.87 723.586 1301.89 769.069 1378.66 801.449C1455.44 833.829 1508.52 819.668 1537.89 758.965L1360.75 672.867L1183.61 665Z" fill="#05474F"/>
</g>
<path d="M1245.66 806.976L1262.85 733.327L1282.96 801.712L1298.48 758.721L1303.16 771.576L1309.08 762.721L1318.26 786.712L1325.85 780.519L1335.16 801.712L1349.16 695.441L1364.16 801.712L1374.18 777.857L1382.54 791.712L1391.75 763.576L1408.91 798.156L1434.6 754.721L1461.19 806.976L1424.6 831.712H1235.66L1245.66 806.976Z" fill="#013F4C"/>
<path d="M1062.92 796.976L1080.11 743.327L1090.22 791.712L1105.73 758.721L1110.41 761.576L1116.34 752.721L1125.51 776.712L1133.1 770.519L1142.42 791.712L1156.41 745.441L1171.41 791.712L1181.43 767.857L1189.8 781.712L1199 723.576L1216.16 788.156L1231.86 754.721L1258.45 796.976L1231.86 821.712H1042.92L1062.92 796.976Z" fill="url(#paint10_linear)"/>
<mask id="mask3" mask-type="alpha" maskUnits="userSpaceOnUse" x="-279" y="691" width="1220" height="294">
<path d="M-278.478 837.72C-187.74 759.805 -122.843 720.848 -83.787 720.848C-25.203 720.848 198.694 863.136 330.607 772.928C462.52 682.72 490.067 655.971 642.186 750.071C794.304 844.172 913.448 757.311 931.291 705.285C943.186 670.601 943.186 763.603 931.291 984.29H-183.05L-278.478 837.72Z" fill="white"/>
</mask>
<g mask="url(#mask3)">
<path d="M-278.478 837.72C-187.74 759.805 -122.843 720.848 -83.787 720.848C-25.203 720.848 198.694 863.136 330.607 772.928C462.52 682.72 490.067 655.971 642.186 750.071C794.304 844.172 913.448 757.311 931.291 705.285C943.186 670.601 943.186 763.603 931.291 984.29H-183.05L-278.478 837.72Z" fill="url(#paint11_linear)"/>
<path opacity="0.3" d="M488.633 680.047C560.484 777.742 663.422 817.427 797.445 799.102C931.469 780.776 894.208 726.69 685.664 636.844L488.633 680.047Z" fill="#0C6570"/>
</g>
<path d="M631.862 816.976L649.05 743.327L669.165 811.712L684.676 768.721L689.359 781.576L695.283 772.721L704.455 796.712L712.046 790.519L721.365 811.712L735.359 705.441L750.357 811.712L760.379 787.857L768.743 801.712L777.948 773.576L795.108 808.156L820.803 764.721L847.393 816.976L810.803 841.712H621.862L631.862 816.976Z" fill="#01333D"/>
<path d="M462.118 811.976L479.306 758.327L489.42 806.712L504.932 773.721L509.615 776.576L515.538 767.721L524.711 791.712L532.302 785.519L541.621 806.712L555.615 760.441L570.613 806.712L580.635 782.857L588.999 796.712L598.204 738.576L615.363 803.156L631.059 769.721L657.648 811.976L631.059 836.712H442.118L462.118 811.976Z" fill="#01333D"/>
<path d="M46.4966 770.776L63.6848 717.127L73.7994 765.512L89.3111 732.521L93.9939 735.377L99.9174 726.521L109.09 750.512L116.68 744.32L125.999 765.512L139.994 719.242L154.992 765.512L165.014 741.658L173.378 755.512L182.583 697.377L199.742 761.956L215.437 728.521L242.027 770.776L215.437 795.512H26.4966L46.4966 770.776Z" fill="url(#paint12_linear)"/>
<path d="M-121.602 906.911C8.0242 795.605 100.734 739.952 156.529 739.952C217.95 739.952 406.57 849.434 577.095 856.76C618.314 858.531 693.537 902.365 802.763 988.26L14.7238 1116.3L-121.602 906.911Z" fill="url(#paint13_linear)"/>
<mask id="mask4" mask-type="alpha" maskUnits="userSpaceOnUse" x="164" y="668" width="1408" height="274">
<path d="M164.879 877.72C405.013 901.925 587.896 871.072 713.527 785.16C901.975 656.292 941.328 618.079 1158.64 752.508C1375.95 886.937 1546.16 762.85 1571.65 688.527V941.745H181.095L164.879 877.72Z" fill="white"/>
</mask>
<g mask="url(#mask4)">
<path d="M164.879 877.72C405.013 901.925 587.896 871.072 713.527 785.16C901.975 656.292 941.328 618.079 1158.64 752.508C1375.95 886.937 1546.16 762.85 1571.65 688.527V941.745H181.095L164.879 877.72Z" fill="url(#paint14_linear)"/>
<path opacity="0.2" d="M1027.55 647.73C1118.79 794.715 1247.18 858.836 1412.71 840.094C1578.25 821.351 1614.08 789.821 1520.2 745.502L1262.84 647.73H1027.55Z" fill="#010D0F"/>
<path opacity="0.1" d="M621.301 822.316C804.637 734.11 904.533 682.122 920.988 666.352C937.444 650.581 850.026 662.803 658.734 703.016L621.301 822.316Z" fill="#6EDFD4"/>
</g>
<mask id="mask5" mask-type="alpha" maskUnits="userSpaceOnUse" x="481" y="819" width="926" height="134">
<path d="M481.622 819.638L731.127 850.764C736.608 851.448 740.496 856.445 739.812 861.925C739.404 865.198 737.407 868.06 734.476 869.573L720.185 876.949C717.731 878.216 716.769 881.232 718.035 883.686C718.858 885.279 720.47 886.31 722.262 886.388L1406.41 916L744.189 952.622L670.77 932.043L623.714 916.081C623.554 916.027 623.392 915.981 623.227 915.943L578.778 905.733C573.933 904.621 570.908 899.791 572.021 894.947C572.736 891.836 575.044 889.336 578.089 888.378L629.914 872.055C633.602 870.894 635.649 866.963 634.488 863.275C633.766 860.983 631.918 859.221 629.594 858.609L481.622 819.638Z" fill="white"/>
</mask>
<g mask="url(#mask5)">
<path d="M481.622 819.638L731.127 850.764C736.608 851.448 740.496 856.445 739.812 861.925C739.404 865.198 737.407 868.06 734.476 869.573L720.185 876.949C717.731 878.216 716.769 881.232 718.035 883.686C718.858 885.279 720.47 886.31 722.262 886.388L1406.41 916L744.189 952.622L670.77 932.043L623.714 916.081C623.554 916.027 623.392 915.981 623.227 915.943L578.778 905.733C573.933 904.621 570.908 899.791 572.021 894.947C572.736 891.836 575.044 889.336 578.089 888.378L629.914 872.055C633.602 870.894 635.649 866.963 634.488 863.275C633.766 860.983 631.918 859.221 629.594 858.609L481.622 819.638Z" fill="url(#paint15_linear)"/>
<path opacity="0.34" d="M596.952 833.235L720.435 851.966C723.711 852.463 725.964 855.521 725.467 858.798C725.212 860.478 724.256 861.972 722.837 862.907L683.671 888.724C681.826 889.94 681.316 892.42 682.532 894.265C683.205 895.286 684.309 895.943 685.527 896.049L915.99 916L803.435 962.381L637.34 903.213C634.531 902.212 633.065 899.123 634.065 896.314C634.523 895.03 635.449 893.966 636.659 893.336L690.415 865.351C692.472 864.28 693.272 861.743 692.201 859.686C691.654 858.635 690.688 857.864 689.543 857.563L596.952 833.235Z" fill="white"/>
<path opacity="0.2" d="M660.541 846.128L650.389 843.76" stroke="white" stroke-width="2" stroke-linecap="round" stroke-linejoin="bevel"/>
</g>
<path d="M533.233 823.188H480.233V1059.19H533.233V823.188Z" fill="url(#paint16_linear)"/>
<mask id="mask6" mask-type="alpha" maskUnits="userSpaceOnUse" x="-333" y="757" width="1056" height="548">
<path d="M181.126 1304.95C480.3 1304.95 722.828 1180.54 722.828 1027.07C722.828 900.665 581.37 729.341 354.447 779.758C253.624 802.159 204.926 795.92 155.689 785.329C-86.679 733.196 -144.931 760.208 -103.357 827.781C37.6406 1056.95 -332.309 914.346 -332.309 1015.78C-332.309 1169.24 -118.047 1304.95 181.126 1304.95Z" fill="white"/>
</mask>
<g mask="url(#mask6)">
<path d="M161.689 1303.25C-132.939 1251.3 -350.18 1086.66 -323.53 935.528C-301.58 811.041 -132.521 666.884 82.2004 755.94C177.602 795.508 226.643 797.82 276.971 795.94C524.71 786.686 577.387 823.403 524.71 882.73C346.059 1083.94 735.152 1007.74 717.539 1107.63C690.89 1258.76 456.318 1355.2 161.689 1303.25Z" fill="url(#paint17_linear)"/>
<path d="M135.123 1293.99C-159.506 1242.04 -376.746 1077.41 -350.097 926.274C-328.146 801.787 -159.087 657.63 55.634 746.686C151.035 786.254 210.51 800.199 250.404 786.686C435.441 724.012 563.93 802.453 507.688 886.461C364.765 1099.94 773.035 903.481 755.422 1003.37C728.773 1154.51 429.752 1345.94 135.123 1293.99Z" fill="url(#paint18_linear)"/>
<path opacity="0.2" d="M91.9914 775.514H98.0953" stroke="white" stroke-width="2" stroke-linecap="round" stroke-linejoin="round"/>
<path opacity="0.2" d="M64.0626 789.67H70.1665" stroke="white" stroke-width="2" stroke-linecap="round" stroke-linejoin="round"/>
<path opacity="0.2" d="M144.229 789.67H150.333" stroke="white" stroke-width="2" stroke-linecap="round" stroke-linejoin="round"/>
<path opacity="0.2" d="M26.9813 786.112H33.0852" stroke="white" stroke-width="2" stroke-linecap="round" stroke-linejoin="round"/>
<path opacity="0.2" d="M366.59 767.673H372.694" stroke="white" stroke-width="2" stroke-linecap="round" stroke-linejoin="round"/>
<path opacity="0.2" d="M299.284 767.673H305.388" stroke="white" stroke-width="2" stroke-linecap="round" stroke-linejoin="round"/>
<path opacity="0.2" d="M489.306 775.344C487.649 772.247 485.399 770.359 482.557 769.681" stroke="white" stroke-width="2" stroke-linecap="round" stroke-linejoin="round"/>
<path opacity="0.2" d="M338.848 759.254C336.231 756.91 333.471 755.905 330.568 756.24" stroke="white" stroke-width="2" stroke-linecap="round" stroke-linejoin="round"/>
<path opacity="0.2" d="M260.683 779.604C258.066 777.26 255.306 776.256 252.403 776.591" stroke="white" stroke-width="2" stroke-linecap="round" stroke-linejoin="round"/>
<path opacity="0.2" d="M47.0783 765.98C44.4617 763.636 41.7019 762.632 38.799 762.967" stroke="white" stroke-width="2" stroke-linecap="round" stroke-linejoin="round"/>
<path opacity="0.2" d="M9.54205 776.217C6.92544 773.873 4.16566 772.869 1.26273 773.203" stroke="white" stroke-width="2" stroke-linecap="round" stroke-linejoin="round"/>
</g>
<path d="M497.942 695.042V708.48" stroke="#01262E" stroke-width="1.68"/>
<path d="M497.638 642.088L500.036 657.361L499.123 659.548H500.596L501.137 664.371L499.123 666.942L501.949 668.421L502.774 672.179L499.123 674.979H502.774V679.162L499.123 679.911L502.774 681.663L503.997 685.213L500.596 687.726L505.26 690.557L506.92 701.197H488.355L497.638 642.088Z" fill="#012E37"/>
<path d="M514.299 702.368V708.389" stroke="#01262E" stroke-width="1.00352"/>
<path d="M514.163 680.168L518.321 703.065H514.163H510.004L514.163 680.168Z" fill="#012E37"/>
<path d="M482.374 702.953V708.221" stroke="#01262E" stroke-width="1.00352"/>
<path d="M482.255 683.528L485.894 703.563H482.255H478.616L482.255 683.528Z" fill="#012E37"/>
<path d="M349.626 861.533C349.38 864.341 350.185 866.661 352.041 868.493C351.627 872.256 350.028 875.984 347.245 879.675L338.208 872.827L339.031 860.271L349.626 861.533Z" fill="#F2E4D5"/>
<mask id="mask7" mask-type="alpha" maskUnits="userSpaceOnUse" x="338" y="867" width="40" height="16">
<path d="M338.074 872.69V879.882C338.074 881.467 339.359 882.752 340.944 882.752H377.163V881.225C377.163 879.18 375.923 877.339 374.028 876.571L352.087 867.671C348.835 873.018 344.164 874.691 338.074 872.69Z" fill="white"/>
</mask>
<g mask="url(#mask7)">
<path d="M338.074 872.69V879.882C338.074 881.467 339.359 882.752 340.944 882.752H377.163V881.225C377.163 879.18 375.923 877.339 374.028 876.571L352.087 867.671C348.835 873.018 344.164 874.691 338.074 872.69Z" fill="#0C4E53"/>
<path opacity="0.5" d="M326.549 879.75H393.126V896.955H326.549V879.75Z" fill="#247D84"/>
<path d="M360.098 868.395L354.788 873.713" stroke="white" stroke-width="1.43497" stroke-linecap="round" stroke-linejoin="round"/>
<path d="M365.408 869.894L360.098 875.212" stroke="white" stroke-width="1.43497" stroke-linecap="round" stroke-linejoin="round"/>
<path d="M375.581 885.375C372.776 877.568 366.883 874.089 359.439 869.114C354.476 865.798 359.856 862.041 375.581 857.843L391.522 877.568C385.386 883.956 380.073 886.559 375.581 885.375Z" fill="#58EAD3"/>
</g>
<path d="M303.57 861.243C303.57 862.926 303.57 865.349 303.57 868.333C303.155 872.096 303.453 876.185 304.462 880.601H293.242V860.27C300.127 859.798 303.57 860.122 303.57 861.243Z" fill="#F2E4D5"/>
<path d="M287.448 878.495H308.917C310.402 878.495 311.605 879.698 311.605 881.183C311.605 882.668 310.402 883.871 308.917 883.871H287.448C285.963 883.871 284.76 882.668 284.76 881.183C284.76 879.698 285.963 878.495 287.448 878.495Z" fill="#17656B"/>
<path d="M302.416 867.916H294.136C293.196 867.916 292.323 868.407 291.836 869.211L285.893 879.008H310.571L304.726 869.226C304.24 868.414 303.363 867.916 302.416 867.916Z" fill="#0C4E53"/>
<mask id="mask8" mask-type="alpha" maskUnits="userSpaceOnUse" x="276" y="667" width="83" height="198">
<path d="M350.396 667.476C353.46 684.644 358.741 741.235 358.741 761.673C358.741 789.337 355.561 843.63 353.46 862.193H333.731C335.576 829.962 333.996 800.875 328.993 774.93C325.995 759.385 323.1 740.277 320.308 717.606C316.701 741.214 314.897 760.322 314.897 774.93C314.897 786.037 312.531 815.423 307.8 863.089L288.746 864.346C287.771 793.413 287.284 753.424 287.284 744.381C287.284 733.315 269.283 691.14 280.037 667.476C288.961 667.476 312.413 667.476 350.396 667.476Z" fill="white"/>
</mask>
<g mask="url(#mask8)">
<path d="M350.396 667.476C353.46 684.644 358.741 741.235 358.741 761.673C358.741 789.337 355.561 843.63 353.46 862.193H333.731C335.576 829.962 333.996 800.875 328.993 774.93C325.995 759.385 323.1 740.277 320.308 717.606C316.701 741.214 314.897 760.322 314.897 774.93C314.897 786.037 312.531 815.423 307.8 863.089L288.746 864.346C287.771 793.413 287.284 753.424 287.284 744.381C287.284 733.315 269.283 691.14 280.037 667.476C288.961 667.476 312.413 667.476 350.396 667.476Z" fill="url(#paint19_linear)"/>
<path opacity="0.3" d="M314.26 690.339C286.644 690.339 265.889 670.795 265.889 657.67C265.889 644.546 286.644 642.811 314.26 642.811C341.877 642.811 364.264 653.45 364.264 666.575C364.264 679.699 341.877 690.339 314.26 690.339Z" fill="black"/>
<path opacity="0.6" d="M312.979 709.843C317.249 712.942 319.727 715.555 320.415 717.68C320.415 734.802 321.998 752.737 318.562 777.28C314.372 807.211 311.821 834.602 310.911 859.453V791.278L312.979 709.843Z" fill="#58EAD3"/>
<path opacity="0.23" d="M311.277 774.54H322.737" stroke="#FFF8E5" stroke-width="1.40134" stroke-linecap="round" stroke-linejoin="round"/>
<path opacity="0.2" d="M277.485 659.547C274.889 666.924 276.885 671.417 283.474 673.027C301.275 677.378 348.811 678.063 364.612 667.362C389.184 650.719 360.142 648.115 277.485 659.547Z" fill="#090D34"/>
<path opacity="0.6" d="M335.281 662.942C354.19 688.271 349.315 761.85 349.315 780.144C349.315 798.438 354.143 865.347 367.535 865.347C376.462 865.347 385.17 829.388 393.658 757.47L383.22 641.34C358.022 628.061 342.042 635.262 335.281 662.942Z" fill="#58EAD3"/>
<path opacity="0.2" d="M262.195 664.098C288.151 693.379 299.189 717.13 295.31 735.351C289.491 762.682 287.815 831.059 279.131 831.059C273.341 831.059 267.696 843.651 262.195 868.835V664.098Z" fill="black"/>
<path opacity="0.2" d="M321.461 690.623L332.838 688.284L335.226 700.93L330.421 706.538L323.777 703.998L321.461 690.623Z" stroke="#58EAD3" stroke-width="1.0368"/>
<path opacity="0.2" d="M290.83 689.449L302.663 690.202L301.522 703.244L295.089 706.871L289.714 702.211L290.83 689.449Z" stroke="#58EAD3" stroke-width="1.0368"/>
</g>
<mask id="mask9" mask-type="alpha" maskUnits="userSpaceOnUse" x="306" y="513" width="33" height="52">
<path d="M338.408 513.405V540.489C338.408 544.296 335.363 547.405 331.556 547.483L323.889 547.64L327.617 558.277L319.745 564.71L306.27 558.277L307.252 544.331L309.205 517.169L338.408 513.405Z" fill="white"/>
</mask>
<g mask="url(#mask9)">
<path d="M338.408 513.405V540.489C338.408 544.296 335.363 547.405 331.556 547.483L323.889 547.64L327.617 558.277L319.745 564.71L306.27 558.277L307.252 544.331L309.205 517.169L338.408 513.405Z" fill="#F2E4D5"/>
<path opacity="0.3" d="M324.153 547.308H319.9L327.853 559.874L328.222 551.827L324.153 547.308Z" fill="#462F41"/>
<path d="M334.11 516.642C335.458 530.116 336.132 538.279 336.132 541.132C336.132 543.985 332.861 547.075 326.319 550.401H344.126L350.224 521.758L334.11 516.642Z" fill="#FAF1E8"/>
<path opacity="0.2" d="M329.282 523.772C319.759 523.772 312.038 521.265 312.038 518.172C312.038 515.079 319.759 512.571 329.282 512.571C338.806 512.571 346.527 515.079 346.527 518.172C346.527 521.265 338.806 523.772 329.282 523.772Z" fill="#001C1E"/>
</g>
<mask id="mask10" mask-type="alpha" maskUnits="userSpaceOnUse" x="299" y="504" width="49" height="43">
<path d="M327.137 523.401C326.679 525.088 327.59 527.865 327.137 529.251C325.309 534.842 321.812 543.402 319.69 545.182C316.971 547.462 309.668 546.634 307.056 544.995C304.443 543.357 294.388 520.197 303.289 515.16C304.504 506.08 307.608 503.711 323.276 506.08C329.25 506.983 333.05 504.982 342.579 504.982C352.107 504.982 349.768 519.684 327.137 523.401Z" fill="white"/>
</mask>
<g mask="url(#mask10)">
<path d="M327.137 523.401C326.679 525.088 327.59 527.865 327.137 529.251C325.309 534.842 321.812 543.402 319.69 545.182C316.971 547.462 309.668 546.634 307.056 544.995C304.443 543.357 294.388 520.197 303.289 515.16C304.504 506.08 307.608 503.711 323.276 506.08C329.25 506.983 333.05 504.982 342.579 504.982C352.107 504.982 349.768 519.684 327.137 523.401Z" fill="#02272A"/>
<path opacity="0.8" d="M349.511 513.88L329.651 518.705C321.324 520.728 314.98 527.482 313.483 535.919L310.265 554.049L348.222 546.029L349.511 513.88Z" fill="#000606"/>
<path d="M300.889 514.392C310.353 508.362 322.625 507.481 337.705 511.747C348.781 514.88 356.725 511.467 361.538 501.505L362.663 505.347C341.478 500.72 327.105 498.338 319.543 498.2C312.437 498.071 303.922 497.816 300.889 501.505C300.759 501.663 300.759 505.959 300.889 514.392Z" fill="#063C41"/>
</g>
<mask id="mask11" mask-type="alpha" maskUnits="userSpaceOnUse" x="276" y="556" width="77" height="123">
<path d="M350.573 578.208C350.573 561.236 339.297 554.161 316.745 556.983C298.211 556.063 285.63 560.393 279.001 569.972C274.918 575.872 278.054 591.132 279.001 616.053C279.334 624.843 279.354 641.598 279.06 666.32H279.06C279.025 669.308 280.845 672.006 283.63 673.091C293.536 676.951 304.103 678.881 315.331 678.881C326.833 678.881 338.004 676.263 348.843 671.029L348.843 671.029C351.402 669.793 352.991 667.163 352.893 664.322C351.346 619.334 350.573 590.63 350.573 578.208Z" fill="white"/>
</mask>
<g mask="url(#mask11)">
<path d="M350.573 578.208C350.573 561.236 339.297 554.161 316.745 556.983C298.211 556.063 285.63 560.393 279.001 569.972C274.918 575.872 278.054 591.132 279.001 616.053C279.334 624.843 279.354 641.598 279.06 666.32H279.06C279.025 669.308 280.845 672.006 283.63 673.091C293.536 676.951 304.103 678.881 315.331 678.881C326.833 678.881 338.004 676.263 348.843 671.029L348.843 671.029C351.402 669.793 352.991 667.163 352.893 664.322C351.346 619.334 350.573 590.63 350.573 578.208Z" fill="url(#paint20_linear)"/>
<path opacity="0.2" d="M272.194 571.117C268.06 573.016 262.505 569.93 273.503 640.232C268.514 653.256 266.02 661.31 266.02 664.394C266.911 687.373 329.624 691.665 338.495 666.552C341.792 633.765 338.495 625.879 335.262 619.24C344.42 622.271 344.42 576.104 335.262 572.196C316.811 572.196 295.788 571.836 272.194 571.117Z" fill="url(#paint21_linear)"/>
<path opacity="0.6" d="M330.893 586.367L351.753 674.987H372.613L330.893 586.367Z" fill="url(#paint22_linear)"/>
<path opacity="0.8" d="M281.659 548.081C290.857 571.199 322.167 559.53 301.913 603.969C281.659 648.409 343.738 660.376 301.913 681.183C274.03 695.054 271.941 704.448 295.647 709.366L192.105 681.183C245.676 577.036 275.528 532.669 281.659 548.081Z" fill="url(#paint23_linear)"/>
<path opacity="0.9" d="M321.955 573.939C329.068 560.693 334.18 553.986 337.293 553.818" stroke="#005F64" stroke-width="7.56"/>
<path opacity="0.9" d="M294.452 575.449C291.717 574.155 294.376 560.535 296.872 556.01" stroke="#005F64" stroke-width="7.56"/>
</g>
<path d="M328.039 528.652C324.434 527.43 322.147 527.839 321.177 529.879C319.722 532.939 323.289 537.177 325.223 537.177C326.513 537.177 327.451 534.335 328.039 528.652Z" fill="#F2E4D5"/>
<path d="M369.404 662.712C372.246 667.323 373.931 671.205 374.458 674.357C374.743 676.059 373.766 679.423 371.529 684.451C371.282 685.005 370.632 685.255 370.077 685.008C369.874 684.917 369.703 684.767 369.587 684.578L363.334 674.357C362.721 672.571 362.191 672.177 361.743 673.174C361.446 673.835 361.072 675.357 360.623 677.739L360.623 677.739C360.51 678.336 359.936 678.728 359.339 678.616C358.93 678.539 358.6 678.237 358.486 677.837C356.646 671.397 356.677 666.355 358.579 662.712H369.404Z" fill="#F2E4D5"/>
<mask id="mask12" mask-type="alpha" maskUnits="userSpaceOnUse" x="331" y="560" width="40" height="106">
<path d="M346.574 563.838C352.32 569.725 357.622 587.331 357.622 610.839C359.941 618.821 367.258 646.617 370.62 662.93C368.938 665.004 364.398 665.837 357 665.43C348.571 644.275 342.988 628.535 340.252 618.211C336.855 605.395 332.157 592.752 332.157 580.283C330.34 564.555 338.297 555.833 346.574 563.838Z" fill="white"/>
</mask>
<g mask="url(#mask12)">
<path d="M346.574 563.838C352.32 569.725 357.622 587.331 357.622 610.839C359.941 618.821 367.258 646.617 370.62 662.93C368.938 665.004 364.398 665.837 357 665.43C348.571 644.275 342.988 628.535 340.252 618.211C336.855 605.395 332.157 592.752 332.157 580.283C330.34 564.555 338.297 555.833 346.574 563.838Z" fill="url(#paint24_linear)"/>
<path opacity="0.2" d="M342.625 560.72C355.216 585.231 341.025 608.182 347.471 619.801C351.768 627.547 358.31 647.701 367.096 680.262L379.833 660.572L364.779 556.473C353.152 547.807 345.768 549.223 342.625 560.72Z" fill="#58EAD3"/>
</g>
<mask id="mask13" mask-type="alpha" maskUnits="userSpaceOnUse" x="259" y="570" width="79" height="110">
<path d="M331.247 570.904C337.421 571.983 339.421 577.121 334.247 642.716C336.363 654.609 337.421 662.097 337.421 665.181C331.247 679.181 277.949 686.304 264.946 670.339C261.649 637.552 263.244 623.723 264.946 615.382C255.788 618.413 259.021 575.891 268.179 571.983C286.63 571.983 307.653 571.623 331.247 570.904Z" fill="white"/>
</mask>
<g mask="url(#mask13)">
<path d="M331.247 570.904C337.421 571.983 339.421 577.121 334.247 642.716C336.363 654.609 337.421 662.097 337.421 665.181C331.247 679.181 277.949 686.304 264.946 670.339C261.649 637.552 263.244 623.723 264.946 615.382C255.788 618.413 259.021 575.891 268.179 571.983C286.63 571.983 307.653 571.623 331.247 570.904Z" fill="url(#paint25_linear)"/>
<path d="M278.432 641.165L307.507 641.997C309.892 642.065 311.77 644.054 311.701 646.439C311.7 646.482 311.698 646.525 311.696 646.568L311.187 655.238C311.015 658.152 308.559 660.402 305.641 660.319L278.726 659.549C275.745 659.463 273.398 656.978 273.483 653.997C273.485 653.942 273.487 653.888 273.49 653.834L273.996 645.23C274.132 642.899 276.097 641.098 278.432 641.165Z" fill="url(#paint26_linear)"/>
<path opacity="0.3" d="M326.954 641.538C321.877 642.436 318.327 647.063 318.775 652.2L321.946 688.554L355.465 663.925L341.68 647.013C338.127 642.653 332.493 640.558 326.954 641.538Z" fill="url(#paint27_linear)"/>
</g>
<path d="M311.957 571.983C311.957 568.407 309.303 565.509 306.03 565.509C302.757 565.509 300.103 568.407 300.103 571.983" stroke="#04494E" stroke-width="2.592"/>
<path opacity="0.2" d="M328.24 570.904L328.223 571.119C326.905 571.609 325.966 572.878 325.966 574.367L325.965 601.898L324.873 616.796C324.628 620.14 321.872 622.744 318.52 622.801L271.158 623.605C265.791 623.696 261.366 619.419 261.275 614.051C261.272 613.864 261.274 613.677 261.282 613.49L262.637 580.228C262.85 575.018 267.135 570.904 272.349 570.904H328.24Z" fill="#002022"/>
<mask id="mask14" mask-type="alpha" maskUnits="userSpaceOnUse" x="257" y="570" width="73" height="50">
<path d="M268.816 570.904H329.655C327.971 571.604 326.833 573.203 326.724 575.024L324.488 612.388C324.286 615.77 321.511 618.426 318.123 618.48L267.09 619.295C261.722 619.381 257.302 615.099 257.216 609.731C257.212 609.469 257.218 609.207 257.235 608.946L259.116 579.994C259.449 574.881 263.692 570.904 268.816 570.904Z" fill="white"/>
</mask>
<g mask="url(#mask14)">
<path d="M268.816 570.904H329.655C327.971 571.604 326.833 573.203 326.724 575.024L324.488 612.388C324.286 615.77 321.511 618.426 318.123 618.48L267.09 619.295C261.722 619.381 257.302 615.099 257.216 609.731C257.212 609.469 257.218 609.207 257.235 608.946L259.116 579.994C259.449 574.881 263.692 570.904 268.816 570.904Z" fill="url(#paint28_linear)"/>
<path opacity="0.5" d="M270.239 570.624C262.034 574.409 257.932 588.994 257.932 614.38C257.932 618.687 248.045 601.048 228.273 561.462L270.239 570.624Z" fill="#58EAD3"/>
<path opacity="0.2" d="M290.25 613.068C295.011 613.068 298.871 609.203 298.871 604.435C298.871 599.667 295.011 595.802 290.25 595.802C285.489 595.802 281.629 599.667 281.629 604.435C281.629 609.203 285.489 613.068 290.25 613.068Z" fill="#03362E"/>
<path d="M290.25 608.751C292.631 608.751 294.56 606.819 294.56 604.435C294.56 602.051 292.631 600.119 290.25 600.119C287.869 600.119 285.94 602.051 285.94 604.435C285.94 606.819 287.869 608.751 290.25 608.751Z" fill="#58EAD3"/>
</g>
<path opacity="0.2" d="M283.768 882.431H378.546L278.938 939.582L24 934.753L283.768 882.431Z" fill="url(#paint29_linear)"/>
<path d="M1357.05 1072.76C1464.47 1072.76 1676.12 1049.05 1676.12 964.825C1676.12 880.601 1438.48 843 1331.06 843C1223.64 843 1055 905.442 1055 989.666C1055 1073.89 1249.63 1072.76 1357.05 1072.76Z" fill="url(#paint30_linear)"/>
<path d="M948.033 669.367V686.165" stroke="#001E24" stroke-width="2.1"/>
<path d="M947.653 603.175L950.651 622.267L949.509 624.999H951.351L952.027 631.029L949.509 634.242L953.042 636.091L954.073 640.789L949.509 644.289H954.073V649.518L949.509 650.453L954.073 652.644L955.603 657.082L951.351 660.222L957.181 663.761L959.256 677.061H936.05L947.653 603.175Z" fill="#012127"/>
<path d="M968.479 678.525V686.051" stroke="#001E24" stroke-width="1.2544"/>
<path d="M968.309 650.775L973.507 679.396H968.309H963.111L968.309 650.775Z" fill="#012127"/>
<path d="M928.573 679.256V685.841" stroke="#001E24" stroke-width="1.2544"/>
<path d="M928.424 654.975L932.973 680.019H928.424H923.876L928.424 654.975Z" fill="#012127"/>
<path d="M120.555 693.31V717.308" stroke="#013540" stroke-width="1.792"/>
<path d="M120.012 658.812L133.439 703.809H120.012H106.586L120.012 658.812Z" fill="#00272F"/>
<path d="M120.012 638.75L136.588 694.302H120.012H103.436L120.012 638.75Z" fill="#012E37"/>
<path opacity="0.3" d="M949.266 864.766C1010.81 864.766 1130.34 862.413 1130.34 859.511C1130.34 856.609 1010.81 854.256 949.266 854.256C887.726 854.256 782.124 856.609 782.124 859.511C782.124 862.413 887.726 864.766 949.266 864.766Z" fill="#002429"/>
<mask id="mask15" mask-type="alpha" maskUnits="userSpaceOnUse" x="960" y="773" width="46" height="88">
<path d="M960.227 781.778L1001.23 773.93V819.305H1005.94V860.981H960.227V825.75V819.605V781.778Z" fill="white"/>
</mask>
<g mask="url(#mask15)">
<path d="M960.227 781.778L1001.23 773.93V819.305H1005.94V860.981H960.227V825.75V819.605V781.778Z" fill="url(#paint31_linear)"/>
<path opacity="0.23" d="M968.144 768.077H943.588V870.843H968.144V768.077Z" fill="#0C4B54"/>
<path d="M975.675 790.502H981.521V814.481H975.675V790.502Z" fill="#00FFCF"/>
<path d="M988.229 790.502H994.075V814.481H988.229V790.502Z" fill="#00FFCF"/>
<path d="M981.54 840.811H991.755V860.373H981.54V840.811Z" fill="#00FFCF"/>
</g>
<g opacity="0.6" filter="url(#filter2_f)">
<path d="M986.269 860.961C993.397 860.961 999.175 855.19 999.175 848.071C999.175 840.952 993.397 835.182 986.269 835.182C979.141 835.182 973.362 840.952 973.362 848.071C973.362 855.19 979.141 860.961 986.269 860.961Z" fill="#7EFFE7"/>
</g>
<g filter="url(#filter3_f)">
<path d="M982.3 809.717C986.756 809.717 990.368 806.11 990.368 801.66C990.368 797.209 986.756 793.602 982.3 793.602C977.844 793.602 974.232 797.209 974.232 801.66C974.232 806.11 977.844 809.717 982.3 809.717Z" fill="#00FFCF"/>
</g>
<mask id="mask16" mask-type="alpha" maskUnits="userSpaceOnUse" x="1022" y="814" width="60" height="50">
<path d="M1022.24 833.875L1052.7 814.551L1081.99 833.875L1076.26 834.141V863.598H1027.97V833.875H1022.24Z" fill="white"/>
</mask>
<g mask="url(#mask16)">
<path d="M1022.24 833.875L1052.7 814.551L1081.99 833.875L1076.26 834.141V863.598H1027.97V833.875H1022.24Z" fill="url(#paint32_linear)"/>
<path d="M1057.96 850.753H1048.61V865.934H1057.96V850.753Z" fill="#001C21"/>
<path d="M1050.36 859.344C1050.91 859.344 1051.36 858.896 1051.36 858.344C1051.36 857.791 1050.91 857.344 1050.36 857.344C1049.81 857.344 1049.36 857.791 1049.36 858.344C1049.36 858.896 1049.81 859.344 1050.36 859.344Z" fill="#002126"/>
<path d="M1040.42 840.787H1035.74V847.249H1040.42V840.787Z" fill="#00FFCF"/>
<path d="M1046.27 840.787H1041.59V847.249H1046.27V840.787Z" fill="#00FFCF"/>
<path d="M1064.98 840.787H1060.3V847.249H1064.98V840.787Z" fill="#00FFCF"/>
<g opacity="0.9" filter="url(#filter4_f)">
<path d="M1066.15 849.27C1069.27 849.27 1071.8 846.744 1071.8 843.629C1071.8 840.514 1069.27 837.989 1066.15 837.989C1063.03 837.989 1060.5 840.514 1060.5 843.629C1060.5 846.744 1063.03 849.27 1066.15 849.27Z" fill="#00FFCF"/>
</g>
<g opacity="0.9" filter="url(#filter5_f)">
<path d="M1041.59 850.437C1044.71 850.437 1047.24 847.912 1047.24 844.797C1047.24 841.682 1044.71 839.156 1041.59 839.156C1038.47 839.156 1035.94 841.682 1035.94 844.797C1035.94 847.912 1038.47 850.437 1041.59 850.437Z" fill="#00FFCF"/>
</g>
<path d="M1070.82 840.787H1066.15V847.249H1070.82V840.787Z" fill="#00FFCF"/>
</g>
<mask id="mask17" mask-type="alpha" maskUnits="userSpaceOnUse" x="803" y="814" width="60" height="50">
<path d="M803.102 833.875L833.563 814.551L862.855 833.875L857.125 834.141V863.598H808.831V833.875H803.102Z" fill="white"/>
</mask>
<g mask="url(#mask17)">
<path d="M803.102 833.875L833.563 814.551L862.855 833.875L857.125 834.141V863.598H808.831V833.875H803.102Z" fill="url(#paint33_linear)"/>
<path d="M838.825 850.753H829.47V865.934H838.825V850.753Z" fill="#001C21"/>
<path d="M831.224 859.344C831.776 859.344 832.224 858.896 832.224 858.344C832.224 857.791 831.776 857.344 831.224 857.344C830.672 857.344 830.224 857.791 830.224 858.344C830.224 858.896 830.672 859.344 831.224 859.344Z" fill="#002126"/>
<path d="M821.285 840.787H816.608V847.249H821.285V840.787Z" fill="#00FFCF"/>
<path d="M827.131 840.787H822.454V847.249H827.131V840.787Z" fill="#00FFCF"/>
<path d="M845.841 840.787H841.163V847.249H845.841V840.787Z" fill="#00FFCF"/>
<g opacity="0.9" filter="url(#filter6_f)">
<path d="M847.01 849.27C850.129 849.27 852.658 846.744 852.658 843.629C852.658 840.514 850.129 837.989 847.01 837.989C843.891 837.989 841.362 840.514 841.362 843.629C841.362 846.744 843.891 849.27 847.01 849.27Z" fill="#00FFCF"/>
</g>
<g opacity="0.9" filter="url(#filter7_f)">
<path d="M822.454 850.437C825.573 850.437 828.102 847.912 828.102 844.797C828.102 841.682 825.573 839.156 822.454 839.156C819.335 839.156 816.806 841.682 816.806 844.797C816.806 847.912 819.335 850.437 822.454 850.437Z" fill="#00FFCF"/>
</g>
<path d="M851.687 840.787H847.01V847.249H851.687V840.787Z" fill="#00FFCF"/>
</g>
<mask id="mask18" mask-type="alpha" maskUnits="userSpaceOnUse" x="911" y="762" width="39" height="103">
<path d="M911.191 762.89H949.741V864.59H911.191V762.89Z" fill="white"/>
</mask>
<g mask="url(#mask18)">
<path d="M911.191 762.89H949.741V864.59H911.191V762.89Z" fill="url(#paint34_linear)"/>
<path d="M940.07 852.785H930.466V864.59H940.07V852.785Z" fill="#001C21"/>
<path d="M943.785 805.458H938.599V810.638H943.785V805.458Z" fill="#00FFCF"/>
<path d="M933.413 805.458H928.227V810.638H933.413V805.458Z" fill="#00FFCF"/>
<path d="M943.785 794.391H938.599V799.571H943.785V794.391Z" fill="#00FFCF"/>
<path d="M933.413 794.391H928.227V799.571H933.413V794.391Z" fill="#00FFCF"/>
<path d="M943.785 784.062H938.599V789.241H943.785V784.062Z" fill="#00FFCF"/>
<path d="M933.413 784.062H928.227V789.241H933.413V784.062Z" fill="#00FFCF"/>
<path d="M943.785 773.732H938.599V778.912H943.785V773.732Z" fill="#00FFCF"/>
<path d="M933.413 773.732H928.227V778.912H933.413V773.732Z" fill="#00FFCF"/>
<path d="M943.785 817.328H938.599V822.507H943.785V817.328Z" fill="#00FFCF"/>
<path d="M933.413 817.328H928.227V822.507H933.413V817.328Z" fill="#00FFCF"/>
<path d="M943.785 829.198H938.599V834.377H943.785V829.198Z" fill="#00FFCF"/>
<path d="M933.413 829.198H928.227V834.377H933.413V829.198Z" fill="#00FFCF"/>
<path d="M943.785 841.067H938.599V846.247H943.785V841.067Z" fill="#00FFCF"/>
<path d="M933.413 841.067H928.227V846.247H933.413V841.067Z" fill="#00FFCF"/>
<path opacity="0.23" d="M881.299 762.215H921.06V886.603H881.299V762.215Z" fill="#0C4B54"/>
</g>
<g filter="url(#filter8_f)">
<path d="M935.393 789.241C939.849 789.241 943.461 785.633 943.461 781.183C943.461 776.733 939.849 773.125 935.393 773.125C930.937 773.125 927.325 776.733 927.325 781.183C927.325 785.633 930.937 789.241 935.393 789.241Z" fill="#00FFCF"/>
</g>
<g filter="url(#filter9_f)">
<path d="M935.393 814.933C939.849 814.933 943.461 811.325 943.461 806.875C943.461 802.425 939.849 798.817 935.393 798.817C930.937 798.817 927.325 802.425 927.325 806.875C927.325 811.325 930.937 814.933 935.393 814.933Z" fill="#00FFCF"/>
</g>
<g filter="url(#filter10_f)">
<path d="M935.393 846.463C939.849 846.463 943.461 842.856 943.461 838.405C943.461 833.955 939.849 830.348 935.393 830.348C930.937 830.348 927.325 833.955 927.325 838.405C927.325 842.856 930.937 846.463 935.393 846.463Z" fill="#00FFCF"/>
</g>
<mask id="mask19" mask-type="alpha" maskUnits="userSpaceOnUse" x="865" y="796" width="40" height="69">
<path d="M865.599 796.581H904.149V864.415H865.599V796.581Z" fill="white"/>
</mask>
<g mask="url(#mask19)">
<path d="M865.599 796.581H904.149V864.415H865.599V796.581Z" fill="url(#paint35_linear)"/>
<path d="M894.478 852.61H884.874V864.415H894.478V852.61Z" fill="#001C21"/>
<path d="M898.193 805.283H893.007V810.463H898.193V805.283Z" fill="#00FFCF"/>
<path d="M887.821 805.283H882.634V810.463H887.821V805.283Z" fill="#00FFCF"/>
<path d="M898.193 817.153H893.007V822.332H898.193V817.153Z" fill="#00FFCF"/>
<path d="M887.821 817.153H882.634V822.332H887.821V817.153Z" fill="#00FFCF"/>
<path d="M898.193 829.022H893.007V834.202H898.193V829.022Z" fill="#00FFCF"/>
<path d="M887.821 829.022H882.634V834.202H887.821V829.022Z" fill="#00FFCF"/>
<path d="M898.193 840.892H893.007V846.071H898.193V840.892Z" fill="#00FFCF"/>
<path d="M887.821 840.892H882.634V846.071H887.821V840.892Z" fill="#00FFCF"/>
<path opacity="0.23" d="M835.707 762.04H875.468V886.428H835.707V762.04Z" fill="#0C4B54"/>
</g>
<g filter="url(#filter11_f)">
<path d="M889.801 814.757C894.257 814.757 897.869 811.15 897.869 806.7C897.869 802.249 894.257 798.642 889.801 798.642C885.345 798.642 881.732 802.249 881.732 806.7C881.732 811.15 885.345 814.757 889.801 814.757Z" fill="#00FFCF"/>
</g>
<g filter="url(#filter12_f)">
<path d="M889.801 846.288C894.257 846.288 897.869 842.68 897.869 838.23C897.869 833.78 894.257 830.172 889.801 830.172C885.345 830.172 881.732 833.78 881.732 838.23C881.732 842.68 885.345 846.288 889.801 846.288Z" fill="#00FFCF"/>
</g>
<path d="M-0.388367 777.915V828.813" stroke="#011214" stroke-width="11.34" stroke-linecap="round" stroke-linejoin="round"/>
<mask id="mask20" mask-type="alpha" maskUnits="userSpaceOnUse" x="-44" y="526" width="89" height="280">
<path d="M0.696205 526.45L12.0292 598.616L7.71157 608.946H14.6752L17.2308 631.739L7.71157 643.884L21.0666 650.872L24.9643 668.631L7.71157 681.861H24.9643V701.626L7.71157 705.162L24.9643 713.441L30.7458 730.217L14.6752 742.087L36.7116 755.466L44.5563 805.741H-43.1639L0.696205 526.45Z" fill="white"/>
</mask>
<g mask="url(#mask20)">
<path d="M0.696205 526.45L12.0292 598.616L7.71157 608.946H14.6752L17.2308 631.739L7.71157 643.884L21.0666 650.872L24.9643 668.631L7.71157 681.861H24.9643V701.626L7.71157 705.162L24.9643 713.441L30.7458 730.217L14.6752 742.087L36.7116 755.466L44.5563 805.741H-43.1639L0.696205 526.45Z" fill="#61C7BE"/>
<path d="M-3.08382 526.45L8.24917 598.616L10.8952 608.946L13.4508 631.739L17.2866 650.872L21.1842 668.631V681.861V705.196H11.661L21.1842 713.441L26.9658 730.217L18.9828 744.513L32.9316 755.466L40.7763 805.741H-46.9439L-3.08382 526.45Z" fill="#011315"/>
</g>
<path opacity="0.1" d="M122.5 838C138.24 838 151 834.866 151 831C151 827.134 138.24 824 122.5 824C106.76 824 94 827.134 94 831C94 834.866 106.76 838 122.5 838Z" fill="black"/>
<path opacity="0.5" d="M-19.5 838C-3.75988 838 9 834.866 9 831C9 827.134 -3.75988 824 -19.5 824C-35.2401 824 -48 827.134 -48 831C-48 834.866 -35.2401 838 -19.5 838Z" fill="url(#paint36_linear)"/>
<path d="M121.444 759.886V832.597" stroke="#011214" stroke-width="16.2" stroke-linejoin="round"/>
<mask id="mask21" mask-type="alpha" maskUnits="userSpaceOnUse" x="60" y="400" width="126" height="400">
<path d="M122.993 400.65L139.183 503.744L133.015 518.501H142.963L146.614 551.062L133.015 568.412L152.094 578.396L157.662 603.766L133.015 622.666H157.662V650.901L133.015 655.953L157.662 667.78L165.921 691.746L142.963 708.702L174.444 727.815L185.651 799.636H60.3361L122.993 400.65Z" fill="white"/>
</mask>
<g mask="url(#mask21)">
<path d="M122.993 400.65L139.183 503.744L133.015 518.501H142.963L146.614 551.062L133.015 568.412L152.094 578.396L157.662 603.766L133.015 622.666H157.662V650.901L133.015 655.953L157.662 667.78L165.921 691.746L142.963 708.702L174.444 727.815L185.651 799.636H60.3361L122.993 400.65Z" fill="#61C7BE"/>
<path d="M117.593 400.65L133.783 503.744L137.563 518.501L141.214 551.062L146.694 578.396L152.262 603.766V622.666V656.001H138.657L152.262 667.78L160.521 691.746L149.117 712.168L169.044 727.815L180.251 799.636H54.9361L117.593 400.65Z" fill="#011315"/>
</g>
<path opacity="0.1" d="M643.022 110.789V123.719C707.244 124.194 744.503 123.064 754.801 120.328L575.152 144.871L643.022 110.789Z" fill="white"/>
<path opacity="0.1" d="M457.821 458.564V471.493C522.042 471.969 559.302 470.838 569.599 468.103L389.951 492.645L457.821 458.564Z" fill="white"/>
<path opacity="0.1" d="M902.569 154.485L892.098 166.698H936.164L819.776 178.053L836.621 166.698L785.088 154.485L880.5 138.878L860.626 154.485H902.569Z" fill="white"/>
<path opacity="0.34" d="M183.651 141.127C184.204 141.127 184.651 140.679 184.651 140.127C184.651 139.575 184.204 139.127 183.651 139.127C183.099 139.127 182.651 139.575 182.651 140.127C182.651 140.679 183.099 141.127 183.651 141.127Z" fill="white"/>
</g>
<defs>
<filter id="filter0_f" x="262.618" y="42.6178" width="954.765" height="954.765" filterUnits="userSpaceOnUse" color-interpolation-filters="sRGB">
<feFlood flood-opacity="0" result="BackgroundImageFix"/>
<feBlend mode="normal" in="SourceGraphic" in2="BackgroundImageFix" result="shape"/>
<feGaussianBlur stdDeviation="36.7668" result="effect1_foregroundBlur"/>
</filter>
<filter id="filter1_f" x="972.195" y="388.195" width="295.611" height="295.611" filterUnits="userSpaceOnUse" color-interpolation-filters="sRGB">
<feFlood flood-opacity="0" result="BackgroundImageFix"/>
<feBlend mode="normal" in="SourceGraphic" in2="BackgroundImageFix" result="shape"/>
<feGaussianBlur stdDeviation="26.6286" result="effect1_foregroundBlur"/>
</filter>
<filter id="filter2_f" x="953.943" y="815.762" width="64.6516" height="64.6178" filterUnits="userSpaceOnUse" color-interpolation-filters="sRGB">
<feFlood flood-opacity="0" result="BackgroundImageFix"/>
<feBlend mode="normal" in="SourceGraphic" in2="BackgroundImageFix" result="shape"/>
<feGaussianBlur stdDeviation="9.7097" result="effect1_foregroundBlur"/>
</filter>
<filter id="filter3_f" x="954.812" y="774.182" width="54.9755" height="54.9544" filterUnits="userSpaceOnUse" color-interpolation-filters="sRGB">
<feFlood flood-opacity="0" result="BackgroundImageFix"/>
<feBlend mode="normal" in="SourceGraphic" in2="BackgroundImageFix" result="shape"/>
<feGaussianBlur stdDeviation="9.7097" result="effect1_foregroundBlur"/>
</filter>
<filter id="filter4_f" x="1046.91" y="824.395" width="38.4829" height="38.4681" filterUnits="userSpaceOnUse" color-interpolation-filters="sRGB">
<feFlood flood-opacity="0" result="BackgroundImageFix"/>
<feBlend mode="normal" in="SourceGraphic" in2="BackgroundImageFix" result="shape"/>
<feGaussianBlur stdDeviation="6.79679" result="effect1_foregroundBlur"/>
</filter>
<filter id="filter5_f" x="1022.35" y="825.563" width="38.4829" height="38.4681" filterUnits="userSpaceOnUse" color-interpolation-filters="sRGB">
<feFlood flood-opacity="0" result="BackgroundImageFix"/>
<feBlend mode="normal" in="SourceGraphic" in2="BackgroundImageFix" result="shape"/>
<feGaussianBlur stdDeviation="6.79679" result="effect1_foregroundBlur"/>
</filter>
<filter id="filter6_f" x="827.769" y="824.395" width="38.4829" height="38.4681" filterUnits="userSpaceOnUse" color-interpolation-filters="sRGB">
<feFlood flood-opacity="0" result="BackgroundImageFix"/>
<feBlend mode="normal" in="SourceGraphic" in2="BackgroundImageFix" result="shape"/>
<feGaussianBlur stdDeviation="6.79679" result="effect1_foregroundBlur"/>
</filter>
<filter id="filter7_f" x="803.213" y="825.563" width="38.4829" height="38.4681" filterUnits="userSpaceOnUse" color-interpolation-filters="sRGB">
<feFlood flood-opacity="0" result="BackgroundImageFix"/>
<feBlend mode="normal" in="SourceGraphic" in2="BackgroundImageFix" result="shape"/>
<feGaussianBlur stdDeviation="6.79679" result="effect1_foregroundBlur"/>
</filter>
<filter id="filter8_f" x="907.905" y="753.706" width="54.9755" height="54.9544" filterUnits="userSpaceOnUse" color-interpolation-filters="sRGB">
<feFlood flood-opacity="0" result="BackgroundImageFix"/>
<feBlend mode="normal" in="SourceGraphic" in2="BackgroundImageFix" result="shape"/>
<feGaussianBlur stdDeviation="9.7097" result="effect1_foregroundBlur"/>
</filter>
<filter id="filter9_f" x="907.905" y="779.398" width="54.9755" height="54.9544" filterUnits="userSpaceOnUse" color-interpolation-filters="sRGB">
<feFlood flood-opacity="0" result="BackgroundImageFix"/>
<feBlend mode="normal" in="SourceGraphic" in2="BackgroundImageFix" result="shape"/>
<feGaussianBlur stdDeviation="9.7097" result="effect1_foregroundBlur"/>
</filter>
<filter id="filter10_f" x="907.905" y="810.928" width="54.9755" height="54.9544" filterUnits="userSpaceOnUse" color-interpolation-filters="sRGB">
<feFlood flood-opacity="0" result="BackgroundImageFix"/>
<feBlend mode="normal" in="SourceGraphic" in2="BackgroundImageFix" result="shape"/>
<feGaussianBlur stdDeviation="9.7097" result="effect1_foregroundBlur"/>
</filter>
<filter id="filter11_f" x="862.313" y="779.222" width="54.9755" height="54.9544" filterUnits="userSpaceOnUse" color-interpolation-filters="sRGB">
<feFlood flood-opacity="0" result="BackgroundImageFix"/>
<feBlend mode="normal" in="SourceGraphic" in2="BackgroundImageFix" result="shape"/>
<feGaussianBlur stdDeviation="9.7097" result="effect1_foregroundBlur"/>
</filter>
<filter id="filter12_f" x="862.313" y="810.753" width="54.9755" height="54.9544" filterUnits="userSpaceOnUse" color-interpolation-filters="sRGB">
<feFlood flood-opacity="0" result="BackgroundImageFix"/>
<feBlend mode="normal" in="SourceGraphic" in2="BackgroundImageFix" result="shape"/>
<feGaussianBlur stdDeviation="9.7097" result="effect1_foregroundBlur"/>
</filter>
<linearGradient id="paint0_linear" x1="765.847" y1="642.464" x2="765.847" y2="0" gradientUnits="userSpaceOnUse">
<stop stop-color="#54FEC6"/>
<stop offset="1" stop-color="#123DB8"/>
</linearGradient>
<linearGradient id="paint1_linear" x1="745.581" y1="673.685" x2="738.954" y2="674.302" gradientUnits="userSpaceOnUse">
<stop stop-color="#133650" stop-opacity="0"/>
<stop offset="1" stop-color="#0F3954"/>
</linearGradient>
<linearGradient id="paint2_linear" x1="937.459" y1="645.089" x2="881.49" y2="795.242" gradientUnits="userSpaceOnUse">
<stop stop-color="#019298"/>
<stop offset="1" stop-color="#046C7C"/>
</linearGradient>
<linearGradient id="paint3_linear" x1="135.013" y1="557.163" x2="167.323" y2="504.731" gradientUnits="userSpaceOnUse">
<stop stop-color="#17BCBE"/>
<stop offset="1" stop-color="#01999A"/>
</linearGradient>
<linearGradient id="paint4_linear" x1="431.086" y1="565.624" x2="468.77" y2="491.163" gradientUnits="userSpaceOnUse">
<stop stop-color="#17BCBE"/>
<stop offset="1" stop-color="#089899"/>
</linearGradient>
<linearGradient id="paint5_linear" x1="1331.65" y1="542.41" x2="1356.6" y2="494.354" gradientUnits="userSpaceOnUse">
<stop stop-color="#17BCBE"/>
<stop offset="1" stop-color="#01999A"/>
</linearGradient>
<linearGradient id="paint6_linear" x1="1069.87" y1="693.766" x2="1137.56" y2="525.313" gradientUnits="userSpaceOnUse">
<stop stop-color="#17BCBE"/>
<stop offset="1" stop-color="#01999A"/>
</linearGradient>
<linearGradient id="paint7_linear" x1="907.426" y1="677.871" x2="955.137" y2="525.351" gradientUnits="userSpaceOnUse">
<stop stop-color="#17BCBE"/>
<stop offset="1" stop-color="#01999A"/>
</linearGradient>
<linearGradient id="paint8_linear" x1="230.883" y1="690.387" x2="229.522" y2="743.419" gradientUnits="userSpaceOnUse">
<stop stop-color="#005761"/>
<stop offset="1" stop-color="#005059"/>
</linearGradient>
<linearGradient id="paint9_linear" x1="1392.24" y1="815.313" x2="1536.56" y2="647.278" gradientUnits="userSpaceOnUse">
<stop stop-color="#005865"/>
<stop offset="1" stop-color="#00282D"/>
</linearGradient>
<linearGradient id="paint10_linear" x1="1111.58" y1="782.1" x2="1130.68" y2="739.997" gradientUnits="userSpaceOnUse">
<stop stop-color="#005865"/>
<stop offset="1" stop-color="#00282D"/>
</linearGradient>
<linearGradient id="paint11_linear" x1="507.614" y1="830.7" x2="475.595" y2="894.757" gradientUnits="userSpaceOnUse">
<stop stop-color="#00444C"/>
<stop offset="1" stop-color="#005560"/>
</linearGradient>
<linearGradient id="paint12_linear" x1="95.159" y1="755.901" x2="114.262" y2="713.798" gradientUnits="userSpaceOnUse">
<stop stop-color="#005865"/>
<stop offset="1" stop-color="#00282D"/>
</linearGradient>
<linearGradient id="paint13_linear" x1="314.711" y1="921.741" x2="320.569" y2="888.782" gradientUnits="userSpaceOnUse">
<stop stop-color="#005865"/>
<stop offset="1" stop-color="#00282D"/>
</linearGradient>
<linearGradient id="paint14_linear" x1="613.039" y1="809.84" x2="812.527" y2="622.16" gradientUnits="userSpaceOnUse">
<stop stop-color="#005865"/>
<stop offset="1" stop-color="#00282D"/>
</linearGradient>
<linearGradient id="paint15_linear" x1="1235.79" y1="887.063" x2="813.91" y2="807.048" gradientUnits="userSpaceOnUse">
<stop stop-color="#87F3EC"/>
<stop offset="1" stop-color="#24CFBE"/>
</linearGradient>
<linearGradient id="paint16_linear" x1="506.733" y1="823.188" x2="506.733" y2="941.188" gradientUnits="userSpaceOnUse">
<stop stop-color="#012629"/>
<stop offset="1" stop-color="#000607"/>
</linearGradient>
<linearGradient id="paint17_linear" x1="514.438" y1="926.781" x2="224.967" y2="1218.31" gradientUnits="userSpaceOnUse">
<stop stop-color="#67CFBF"/>
<stop offset="1" stop-color="#001E25"/>
</linearGradient>
<linearGradient id="paint18_linear" x1="367.743" y1="980.342" x2="114.084" y2="1149.19" gradientUnits="userSpaceOnUse">
<stop stop-color="#02383C"/>
<stop offset="1" stop-color="#001E25"/>
</linearGradient>
<linearGradient id="paint19_linear" x1="314.424" y1="941.511" x2="314.424" y2="694.389" gradientUnits="userSpaceOnUse">
<stop stop-color="#001D1F"/>
<stop offset="1" stop-color="#01312A"/>
</linearGradient>
<linearGradient id="paint20_linear" x1="300.335" y1="538.021" x2="328.754" y2="654.072" gradientUnits="userSpaceOnUse">
<stop stop-color="#36FFD5"/>
<stop offset="1" stop-color="#019AA4"/>
</linearGradient>
<linearGradient id="paint21_linear" x1="326.037" y1="524.517" x2="276.815" y2="658.49" gradientUnits="userSpaceOnUse">
<stop stop-color="#0A7D84"/>
<stop offset="1" stop-color="#023438"/>
</linearGradient>
<linearGradient id="paint22_linear" x1="354.62" y1="669.858" x2="320.05" y2="606.566" gradientUnits="userSpaceOnUse">
<stop stop-color="#513A64" stop-opacity="0"/>
<stop offset="1" stop-color="#281B34"/>
</linearGradient>
<linearGradient id="paint23_linear" x1="280.556" y1="585.386" x2="237.438" y2="703.148" gradientUnits="userSpaceOnUse">
<stop stop-color="#059298" stop-opacity="0.463089"/>
<stop offset="1" stop-color="#02595E"/>
</linearGradient>
<linearGradient id="paint24_linear" x1="353.906" y1="545.123" x2="339.162" y2="646.05" gradientUnits="userSpaceOnUse">
<stop stop-color="#36FFD5"/>
<stop offset="1" stop-color="#019AA4"/>
</linearGradient>
<linearGradient id="paint25_linear" x1="280.769" y1="554.208" x2="317.718" y2="658.167" gradientUnits="userSpaceOnUse">
<stop stop-color="#07848A"/>
<stop offset="1" stop-color="#023437"/>
</linearGradient>
<linearGradient id="paint26_linear" x1="277.468" y1="646.785" x2="295.477" y2="664.595" gradientUnits="userSpaceOnUse">
<stop stop-color="#06A0A8"/>
<stop offset="1" stop-color="#016F78"/>
</linearGradient>
<linearGradient id="paint27_linear" x1="326.007" y1="631.47" x2="354.944" y2="690.952" gradientUnits="userSpaceOnUse">
<stop stop-color="#0FBAC3"/>
<stop offset="1" stop-color="#016F78" stop-opacity="0.0279665"/>
</linearGradient>
<linearGradient id="paint28_linear" x1="257.215" y1="579.809" x2="300.758" y2="626.283" gradientUnits="userSpaceOnUse">
<stop stop-color="#0FBAC3"/>
<stop offset="1" stop-color="#016F78"/>
</linearGradient>
<linearGradient id="paint29_linear" x1="362.735" y1="909.357" x2="188.674" y2="981.066" gradientUnits="userSpaceOnUse">
<stop/>
<stop offset="1" stop-color="#002428"/>
</linearGradient>
<linearGradient id="paint30_linear" x1="1199.51" y1="945.283" x2="1232.92" y2="997.142" gradientUnits="userSpaceOnUse">
<stop stop-color="#034045"/>
<stop offset="1" stop-color="#011F27"/>
</linearGradient>
<linearGradient id="paint31_linear" x1="979.157" y1="772.448" x2="993.193" y2="870.375" gradientUnits="userSpaceOnUse">
<stop stop-color="#001C20"/>
<stop offset="1" stop-color="#01252A"/>
</linearGradient>
<linearGradient id="paint32_linear" x1="1033.5" y1="821.988" x2="1046.65" y2="861.532" gradientUnits="userSpaceOnUse">
<stop stop-color="#001C20"/>
<stop offset="1" stop-color="#01252A"/>
</linearGradient>
<linearGradient id="paint33_linear" x1="814.362" y1="821.988" x2="827.51" y2="861.532" gradientUnits="userSpaceOnUse">
<stop stop-color="#001C20"/>
<stop offset="1" stop-color="#01252A"/>
</linearGradient>
<linearGradient id="paint34_linear" x1="928.741" y1="761.157" x2="940.642" y2="876.204" gradientUnits="userSpaceOnUse">
<stop stop-color="#001C20"/>
<stop offset="1" stop-color="#01252A"/>
</linearGradient>
<linearGradient id="paint35_linear" x1="880.995" y1="795.425" x2="892.815" y2="871.632" gradientUnits="userSpaceOnUse">
<stop stop-color="#001C20"/>
<stop offset="1" stop-color="#01252A"/>
</linearGradient>
<linearGradient id="paint36_linear" x1="6.45805" y1="830.062" x2="-17.4751" y2="845.085" gradientUnits="userSpaceOnUse">
<stop/>
<stop offset="1" stop-color="#002428"/>
</linearGradient>
</defs>
</svg>
