<svg width="24" height="24" viewBox="0 0 24 24" fill="none" xmlns="http://www.w3.org/2000/svg">
<path d="M12 4V15" stroke="#16CDD6" stroke-width="1.5" stroke-linecap="round" stroke-linejoin="round"/>
<path d="M15 13L12 16L9 13" stroke="#16CDD6" stroke-width="1.5" stroke-linecap="round" stroke-linejoin="round"/>
<path d="M8 8C8 8 6 8 5 8C4 8 3 9 3 10C3 11 3 17 3 18C3 19 4 20 5 20C6 20 18 20 19 20C20 20 21 19 21 18C21 17 21 11 21 10C21 9 20 8 19 8C18 8 16 8 16 8" stroke="#16CDD6" stroke-width="1.5" stroke-linecap="round" stroke-linejoin="round"/>
</svg>
