<svg width="38" height="38" viewBox="0 0 38 38" fill="none" xmlns="http://www.w3.org/2000/svg">
<g clip-path="url(#clip0_150_17)">
<path d="M24.9452 0C20.3347 0 12.2536 5.4845 7.04774 12.7296C2.51322 19.0121 0.815939 24.6359 0.0812952 30.2977C-0.564685 34.313 2.72854 37.9988 6.78175 37.9988H22.8299C23.9699 37.9988 24.9199 37.0742 24.9325 35.9342C24.9452 34.7816 24.0079 33.8443 22.8553 33.8443H6.76908C5.17313 33.8443 3.95717 32.4384 4.1725 30.8677C5.04647 24.6739 6.78175 20.1774 10.4296 15.1109C16.0661 7.52377 21.6646 4.99051 23.7166 4.33187C25.7432 3.66056 27.1365 4.59786 27.1365 6.7258C28.2004 6.39647 29.7584 6.04182 31.253 6.00382C30.8983 2.64725 28.5424 0 24.9452 0Z" fill="#24BE6A"/>
<path d="M30.5435 28.0811C33.4188 25.2692 38.004 18.1761 38.004 12.0709C38.004 9.91764 37.0287 5.94043 31.6835 5.94043C21.7278 5.94043 9.17552 17.8087 15.2427 23.5972C15.99 24.2812 17.2186 25.0032 19.1185 25.0032C24.6537 25.0032 29.6569 18.5307 31.0628 10.0696C31.3288 10.0443 31.5948 10.0443 31.8608 10.0443C33.1781 10.0443 33.8494 10.5256 33.8494 12.0456C33.8494 16.1368 30.6448 22.7106 26.1863 26.5611C24.7677 27.8404 25.6797 29.3731 26.3763 29.867C28.7829 31.8303 30.3789 33.9456 30.9742 36.3142C31.2402 37.2895 32.0255 37.9861 33.0134 37.9861C34.4574 37.9861 35.0274 36.6815 35.0274 35.7822C35.0274 33.7303 32.7221 30.133 30.5435 28.0811ZM19.1312 20.9373C15.2553 20.9373 20.0812 14.0342 26.617 11.2223C24.8944 17.9101 21.3478 20.9373 19.1312 20.9373Z" fill="#16CDD6"/>
<path d="M19.1316 20.9375V25.0034C24.6668 25.0034 29.6699 18.5309 31.0759 10.0698C29.5559 10.1838 28.0487 10.6018 26.6174 11.2225C24.8947 17.9103 21.3482 20.9375 19.1316 20.9375Z" fill="url(#paint0_linear_150_17)"/>
</g>
<defs>
<linearGradient id="paint0_linear_150_17" x1="24.4889" y1="10.5816" x2="25.4934" y2="22.0634" gradientUnits="userSpaceOnUse">
<stop stop-color="#006838"/>
<stop offset="0.01948" stop-color="#036F3C"/>
<stop offset="0.1274" stop-color="#119150"/>
<stop offset="0.2297" stop-color="#1CAA5E"/>
<stop offset="0.3233" stop-color="#22B967"/>
<stop offset="0.4" stop-color="#24BE6A"/>
<stop offset="0.9" stop-color="#16CDD6" stop-opacity="0"/>
</linearGradient>
<clipPath id="clip0_150_17">
<rect width="38" height="38" fill="white"/>
</clipPath>
</defs>
</svg>
