<svg width="171" height="38" viewBox="0 0 171 38" fill="none" xmlns="http://www.w3.org/2000/svg">
<path d="M49.8848 17.5299V29.3982C49.8848 29.5502 50.0114 29.6769 50.1634 29.6769H53.4567C53.6087 29.6769 53.7353 29.5502 53.7353 29.3982V17.5046C53.7353 17.0359 54.1153 16.6559 54.584 16.6559H59.7898C59.9418 16.6559 60.0685 16.5293 60.0685 16.3773V13.0841C60.0685 12.9321 59.9418 12.8054 59.7898 12.8054H54.6093C52 12.7801 49.8848 14.908 49.8848 17.5299Z" fill="#151B26"/>
<path d="M69.1502 12.5015C64.337 12.5015 60.3724 16.5167 60.4104 21.3172C60.4611 26.0924 64.3116 29.9683 69.0362 29.9683C70.8601 29.9683 72.5954 29.2843 74.014 28.0557V29.3983C74.014 29.5503 74.1407 29.6769 74.2927 29.6769H77.5859C77.7379 29.6769 77.8646 29.5503 77.8646 29.3983V21.2285C77.8772 16.4153 73.9633 12.5015 69.1502 12.5015ZM74.014 21.2412C74.014 23.9518 71.8354 26.1684 69.1502 26.1684C66.4649 26.1684 64.2863 23.9644 64.2863 21.2412C64.2863 18.5306 66.4649 16.314 69.1502 16.314C71.8354 16.314 74.014 18.5179 74.014 21.2412Z" fill="#151B26"/>
<path d="M89.1629 12.5019C87.3896 12.5019 85.6923 13.1099 84.299 14.2372V7.4227C84.299 7.27071 84.1724 7.14404 84.0204 7.14404H80.7271C80.5752 7.14404 80.4485 7.27071 80.4485 7.4227V21.2036C80.4485 26.0168 84.3244 29.9687 89.1376 29.994C93.9761 30.0193 97.9153 26.0928 97.9153 21.2543C97.9026 16.4158 93.9887 12.5019 89.1629 12.5019ZM94.0394 21.2416C94.0394 23.9522 91.8608 26.1688 89.1756 26.1688C86.4903 26.1688 84.3117 23.9649 84.3117 21.2416C84.3117 18.531 86.4903 16.3144 89.1756 16.3144C91.8481 16.3144 94.0394 18.5184 94.0394 21.2416Z" fill="#151B26"/>
<path d="M108.821 12.5019C107.048 12.5019 105.351 13.1099 103.957 14.2372V7.4227C103.957 7.27071 103.831 7.14404 103.679 7.14404H100.385C100.233 7.14404 100.107 7.27071 100.107 7.4227V21.2036C100.107 26.0168 103.983 29.9687 108.796 29.994C113.634 30.0193 117.573 26.0928 117.573 21.2543C117.561 16.4158 113.634 12.5019 108.821 12.5019ZM113.685 21.2416C113.685 23.9522 111.506 26.1688 108.821 26.1688C106.136 26.1688 103.957 23.9649 103.957 21.2416C103.957 18.531 106.136 16.3144 108.821 16.3144C111.506 16.3144 113.685 18.5184 113.685 21.2416Z" fill="#151B26"/>
<path d="M131.164 7.13086H127.871C127.719 7.13086 127.592 7.25752 127.592 7.40952V21.2284C127.592 26.0543 131.506 29.9682 136.332 29.9682H137.409C137.561 29.9682 137.687 29.8415 137.687 29.6895V26.3963C137.687 26.2443 137.561 26.1176 137.409 26.1176H136.332C133.647 26.1176 131.468 23.939 131.468 21.2538V16.5419H137.421C137.573 16.5419 137.7 16.4152 137.7 16.2632V13.0207C137.7 12.8687 137.573 12.742 137.421 12.742H131.468V7.43485C131.455 7.25752 131.329 7.13086 131.164 7.13086Z" fill="#151B26"/>
<path d="M162.26 12.5015C157.447 12.5015 153.52 16.4153 153.52 21.2412C153.52 26.0544 157.434 29.9809 162.26 29.9809C167.073 29.9809 170.999 26.0671 170.999 21.2412C170.999 16.4153 167.086 12.5015 162.26 12.5015ZM167.136 21.2412C167.136 23.9518 164.958 26.1684 162.272 26.1684C159.587 26.1684 157.409 23.9645 157.409 21.2412C157.409 18.5306 159.587 16.314 162.272 16.314C164.945 16.314 167.136 18.518 167.136 21.2412Z" fill="#151B26"/>
<path d="M147.263 29.6898H150.556C150.708 29.6898 150.835 29.5631 150.835 29.4111V13.0716C150.835 12.9196 150.708 12.793 150.556 12.793H147.263C147.111 12.793 146.984 12.9196 146.984 13.0716V29.4111C146.972 29.5631 147.098 29.6898 147.263 29.6898Z" fill="#151B26"/>
<path d="M148.91 5.94043C147.529 5.94043 146.402 7.06773 146.402 8.44835C146.402 9.82898 147.529 10.9563 148.91 10.9563C150.29 10.9563 151.418 9.82898 151.418 8.44835C151.418 7.05506 150.29 5.94043 148.91 5.94043Z" fill="#151B26"/>
<path d="M142.361 24.9526C140.981 24.9526 139.854 26.0799 139.854 27.4606C139.854 28.8412 140.981 29.9685 142.361 29.9685C143.742 29.9685 144.869 28.8412 144.869 27.4606C144.882 26.0799 143.755 24.9526 142.361 24.9526Z" fill="#151B26"/>
<path d="M120.525 29.6898H123.818C123.97 29.6898 124.096 29.5631 124.096 29.4111V13.0716C124.096 12.9196 123.97 12.793 123.818 12.793H120.525C120.373 12.793 120.246 12.9196 120.246 13.0716V29.4111C120.246 29.5631 120.373 29.6898 120.525 29.6898Z" fill="#151B26"/>
<path d="M122.171 10.9563C123.556 10.9563 124.679 9.83344 124.679 8.44835C124.679 7.06327 123.556 5.94043 122.171 5.94043C120.786 5.94043 119.663 7.06327 119.663 8.44835C119.663 9.83344 120.786 10.9563 122.171 10.9563Z" fill="#151B26"/>
<path d="M24.9452 0C20.3347 0 12.2536 5.4845 7.04774 12.7296C2.51322 19.0121 0.815939 24.6359 0.081295 30.2977C-0.564685 34.313 2.72854 37.9988 6.78175 37.9988H22.8299C23.9699 37.9988 24.9199 37.0742 24.9325 35.9342C24.9452 34.7816 24.0079 33.8443 22.8553 33.8443H6.76908C5.17313 33.8443 3.95717 32.4384 4.1725 30.8677C5.04647 24.6739 6.78175 20.1774 10.4296 15.1109C16.0661 7.52377 21.6646 4.99051 23.7166 4.33187C25.7432 3.66056 27.1365 4.59786 27.1365 6.7258C28.2004 6.39647 29.7584 6.04182 31.253 6.00382C30.8983 2.64725 28.5424 0 24.9452 0Z" fill="#24BE6A"/>
<path d="M30.5435 28.0811C33.4188 25.2692 38.004 18.1761 38.004 12.0709C38.004 9.91764 37.0287 5.94043 31.6835 5.94043C21.7278 5.94043 9.17552 17.8087 15.2427 23.5972C15.99 24.2812 17.2186 25.0032 19.1185 25.0032C24.6537 25.0032 29.6569 18.5307 31.0628 10.0696C31.3288 10.0443 31.5948 10.0443 31.8608 10.0443C33.1781 10.0443 33.8494 10.5256 33.8494 12.0456C33.8494 16.1368 30.6448 22.7106 26.1863 26.5611C24.7677 27.8404 25.6797 29.3731 26.3763 29.867C28.7829 31.8303 30.3789 33.9456 30.9742 36.3142C31.2402 37.2895 32.0255 37.9861 33.0134 37.9861C34.4574 37.9861 35.0274 36.6815 35.0274 35.7822C35.0274 33.7303 32.7221 30.133 30.5435 28.0811ZM19.1312 20.9373C15.2553 20.9373 20.0812 14.0342 26.617 11.2223C24.8944 17.9101 21.3478 20.9373 19.1312 20.9373Z" fill="#16CDD6"/>
<path d="M19.1316 20.9375V25.0034C24.6668 25.0034 29.6699 18.5309 31.0759 10.0698C29.5559 10.1838 28.0487 10.6018 26.6174 11.2225C24.8947 17.9103 21.3482 20.9375 19.1316 20.9375Z" fill="url(#paint0_linear_135_7544)"/>
<defs>
<linearGradient id="paint0_linear_135_7544" x1="24.4889" y1="10.5816" x2="25.4934" y2="22.0634" gradientUnits="userSpaceOnUse">
<stop stop-color="#006838"/>
<stop offset="0.01948" stop-color="#036F3C"/>
<stop offset="0.1274" stop-color="#119150"/>
<stop offset="0.2297" stop-color="#1CAA5E"/>
<stop offset="0.3233" stop-color="#22B967"/>
<stop offset="0.4" stop-color="#24BE6A"/>
<stop offset="0.9" stop-color="#16CDD6" stop-opacity="0"/>
</linearGradient>
</defs>
</svg>
