<svg xmlns="http://www.w3.org/2000/svg" fill="none" viewBox="0 0 425 85" height="85" width="425">
<path fill="#F0B90B" d="M19.1731 42.2575L9.58655 51.7759L0 42.2575L9.58655 32.7391L19.1731 42.2575ZM42.5601 19.0368L58.9941 35.4586L68.5807 25.9402L52.1466 9.51839L42.5601 0L32.9735 9.51839L16.4341 25.9402L26.0206 35.4586L42.5601 19.0368ZM75.5336 32.7391L65.947 42.2575L75.5336 51.7759L85.1201 42.2575L75.5336 32.7391ZM42.5601 65.3736L26.126 49.0563L16.4341 58.5747L32.8682 74.8919L42.4547 84.4103L52.0413 74.8919L68.5807 58.5747L58.9941 49.0563L42.5601 65.3736ZM42.5601 51.7759L52.1466 42.2575L42.5601 32.7391L32.9735 42.2575L42.5601 51.7759ZM144.009 52.7172V52.6126C144.009 46.4414 140.638 43.3034 135.265 41.2115C138.636 39.3287 141.375 36.4 141.375 31.1701V31.0655C141.375 23.7437 135.476 19.0368 125.995 19.0368H104.293V65.3736H126.521C137.056 65.3736 144.009 61.1896 144.009 52.7172ZM131.157 32.9483C131.157 36.4 128.312 37.8644 123.782 37.8644H114.301V28.0322H124.414C128.734 28.0322 131.157 29.7057 131.157 32.8437V32.9483ZM133.79 51.4621C133.79 54.9138 131.051 56.4827 126.521 56.4827H114.301V46.3368H126.205C131.473 46.3368 133.79 48.2195 133.79 51.3575V51.4621ZM165.5 65.3736V19.0368H155.281V65.3736H165.5ZM220.701 65.3736V19.0368H210.588V47.5919L188.676 19.0368H179.195V65.3736H189.308V35.9816L211.958 65.4781H220.701V65.3736ZM277.589 65.3736L257.573 18.723H248.091L228.076 65.3736H238.505L242.824 55.0184H262.524L266.843 65.3736H277.589ZM258.942 46.023H246.511L252.727 30.9609L258.942 46.023ZM326.469 65.3736V19.0368H316.356V47.5919L294.444 19.0368H284.963V65.3736H295.076V35.9816L317.726 65.4781H326.469V65.3736ZM379.564 57.9471L373.033 51.3575C369.345 54.7046 366.08 56.7965 360.812 56.7965C352.806 56.7965 347.328 50.2069 347.328 42.2575V42.1529C347.328 34.2034 353.017 27.7184 360.812 27.7184C365.448 27.7184 369.135 29.7057 372.717 32.9483L379.248 25.4172C374.929 21.1287 369.661 18.3046 360.812 18.3046C346.485 18.3046 336.477 29.0782 336.477 42.2575V42.3621C336.477 55.646 346.696 66.2103 360.391 66.2103C369.345 66.2103 374.718 63.0724 379.564 57.9471ZM423.283 65.3736V56.2736H398V46.546H420.017V37.446H398V28.0322H422.967V18.9322H387.781V65.269H423.283V65.3736Z"></path>
</svg>
