<svg xmlns="http://www.w3.org/2000/svg" xmlns:xlink="http://www.w3.org/1999/xlink" id="Layer_1" viewBox="0 0 242 53"><style>.st2{fill:#ef5d52}.st4{fill:#44403d}.st5{fill:#fff6d6}.st8{opacity:.22}.st15{opacity:.98}.st17{fill:#232d42}.st18{opacity:.5}.st19{fill:#d6bc9a}.st20{opacity:.2}.st21{opacity:.67}.st22{fill:#443934}</style><path fill="#d34a46" d="M123.6 49.6h-2c-.8 0-1.5-.7-1.5-1.5v-1.8c0-.8.7-1.5 1.5-1.5h2c.8 0 1.5.7 1.5 1.5v1.8c-.1.8-.7 1.5-1.5 1.5z"/><path d="M123.7 50h-2.3c-1 0-1.7-.8-1.7-1.7v-2c0-1 .8-1.7 1.7-1.7h2.3c1 0 1.7.8 1.7 1.7v2c.1.9-.7 1.7-1.7 1.7zm-2.2-4.7c-.5 0-.9.4-.9.9v2c0 .5.4.9.9.9h2.3c.5 0 .9-.4.9-.9v-2c0-.5-.4-.9-.9-.9h-2.3z"/><path d="M123.8 44.8h-2.5c-.8 0-1.5.9-1.5 1.9V48c0-1.1.6-1.9 1.5-1.9h2.5c.8 0 1.5.9 1.5 1.9v-1.4c-.1-1-.7-1.8-1.5-1.8z" opacity=".3"/><path d="M114.7 42.9l-1-.3c-.5-.2-1.1.1-1.3.6l-.8 2.6-.2 1.3v.4l.2 1.3.8 2.6c.2.5.8.8 1.3.6l1-.3c1.8-.6 3.5-1.4 5.1-2.5.3-.2.4-.5.4-.8v-2.2c0-.3-.2-.6-.4-.8-1.6-1-3.3-1.9-5.1-2.5z" class="st2"/><path d="M113.3 52.5l-.7-.2c-.3-.2-.6-.5-.7-.8l-.8-2.6-.2-1.4v-.4l.2-1.4.8-2.6c.1-.4.4-.6.7-.8.4-.2.8-.2 1.1-.1l1 .3c1.9.6 3.6 1.5 5.2 2.6.4.3.6.7.6 1.1v2.2c0 .4-.2.9-.6 1.1-1.6 1.1-3.3 2-5.2 2.6l-1 .3-.4.1zm0-9.6l-.3.1-.3.3-.8 2.6-.2 1.2v.4l.2 1.2.8 2.6.3.3h.5l1-.3a18 18 0 0 0 5-2.5l.2-.4v-2.2l-.2-.4a18 18 0 0 0-5-2.5l-1-.3-.2-.1z"/><path d="M130.5 42.9l1-.3c.5-.2 1.1.1 1.3.6l.8 2.6.2 1.3v.4l-.2 1.3-.8 2.6c-.2.5-.8.8-1.3.6l-1-.3c-1.8-.6-3.5-1.4-5.1-2.5a1 1 0 0 1-.4-.8v-2.2c0-.3.2-.6.4-.8 1.6-1 3.3-1.9 5.1-2.5z" class="st2"/><path d="M131.9 52.5l-.5-.1-1-.3c-1.9-.6-3.6-1.5-5.2-2.6-.4-.3-.6-.7-.6-1.1v-2.2c0-.4.2-.9.6-1.1 1.6-1.1 3.3-2 5.2-2.6l1-.3c.4-.1.8-.1 1.1.1.3.2.6.5.7.8l.8 2.6.2 1.4v.4l-.2 1.4-.8 2.6c-.1.4-.4.6-.7.8l-.6.2zm0-9.6h-.2l-1 .3c-1.8.6-3.4 1.4-5 2.5l-.2.4v2.2l.2.4a18 18 0 0 0 5 2.5l1 .3h.5l.3-.3.8-2.6.2-1.2V47a5 5 0 0 0-.2-1.2l-.8-2.6-.3-.3h-.3z"/><path d="M133.8 45.8l-.8-2.6c-.2-.5-.8-.8-1.3-.6l-1 .3c-1.8.6-3.5 1.4-5.1 2.5-.2.1-.3.3-.4.6 1.4-.9 2.9-1.6 4.5-2.1l1-.3c.5-.2 1.1.1 1.3.6l.8 2.6.2 1.3v.4l-.2 1.3-.7 2.3c.4 0 .8-.3.9-.7l.8-2.6.2-1.3v-.4l-.2-1.3zm-22.5 0l.8-2.6c.2-.5.8-.8 1.3-.6l1 .3c1.8.6 3.5 1.4 5.1 2.5.2.1.3.3.4.6-1.4-.9-2.9-1.6-4.5-2.1l-1-.3c-.5-.2-1.1.1-1.3.6l-.8 2.6-.2 1.3v.4l.2 1.3.7 2.3a1 1 0 0 1-.9-.7l-.8-2.6-.2-1.3v-.4l.2-1.3z"/><path d="M116 45.7l4.1 1.3" class="st2"/><path d="M120.1 47.5h-.1l-4.1-1.4a.5.5 0 0 1-.3-.5c.1-.2.3-.3.5-.3l4.1 1.4c.2.1.3.3.3.5 0 .1-.2.3-.4.3z"/><path d="M120.1 47.5l-4.1 1.4" class="st2"/><path d="M116 49.3c-.2 0-.3-.1-.4-.3-.1-.2 0-.5.3-.5l4.1-1.4c.2-.1.5 0 .5.3.1.2 0 .5-.3.5l-4.1 1.4h-.1z"/><path d="M129.2 45.7l-4.1 1.3" class="st2"/><path d="M125.1 47.5c-.2 0-.3-.1-.4-.3-.1-.2 0-.5.3-.5l4.1-1.4c.2-.1.5 0 .5.3.1.2 0 .5-.3.5l-4.1 1.4h-.1z"/><path d="M125.1 47.5l4.1 1.4" class="st2"/><path d="M129.2 49.3h-.1l-4.1-1.4a.5.5 0 0 1-.3-.5c.1-.2.3-.3.5-.3l4.1 1.4c.2.1.3.3.3.5s-.2.3-.4.3z"/><path d="M136.3 28.7l4 1c-1-1-1.8-2.8-2.4-4.4 3.2 1.5 5.8 1.7 5.8 1.7s-3.3-3-4.4-4.9l4.4.2c-2.6-1.6-2.4-7.7-2.4-7.7-1.4-11.7-12.8-10.9-12.8-10.9l-.2.7c-.7 2.7-2.9 13 .6 20.1 4.1 8.2 9.2 8.2 9.2 8.2l-1.8-4z" class="st4"/><path d="M138 33.2c-.4 0-5.5-.1-9.6-8.4-3.6-7.2-1.4-17.4-.6-20.4l.2-.7c.1-.2.2-.3.4-.3.1 0 3-.2 6.1 1.1 2.9 1.2 6.5 3.9 7.2 10.2v.1c0 1.6.3 6 2.2 7.2.2.1.3.4.2.6-.1.2-.3.4-.5.3l-3.4-.2c1.3 1.8 3.7 4 3.8 4 .2.1.2.4.1.6-.1.2-.3.3-.5.3-.1 0-2.2-.1-4.9-1.3a8.7 8.7 0 0 0 1.9 3.1c.2.2.2.4.1.6-.1.2-.3.3-.6.2l-3-.8 1.3 3v.5c0 .2-.2.3-.4.3zm-9.2-28.9l-.1.3c-.3 1.2-1.1 4.5-1.3 8.3a23 23 0 0 0 1.8 11.4c2.9 5.9 6.3 7.4 7.9 7.8l-1.3-3.2c-.1-.2 0-.4.1-.5.1-.1.3-.2.5-.1l2.5.7c-.6-.9-1.1-2-1.6-3.4-.1-.2 0-.4.1-.5.2-.1.4-.2.5-.1 1.6.8 3.1 1.2 4.1 1.4a20.6 20.6 0 0 1-3.3-4v-.5c.1-.2.3-.2.5-.2l3.1.2c-1.7-2.3-1.6-6.6-1.6-7.1-.5-4.6-2.8-7.8-6.6-9.4a10.4 10.4 0 0 0-5.3-1.1z"/><path d="M109.2 28.3l-4 1c1-1 1.8-2.8 2.4-4.4-3.2 1.5-5.8 1.7-5.8 1.7s3.3-3 4.4-4.9l-4.4.2c2.6-1.6 2.4-7.7 2.4-7.7C105.6 2.5 117 3.3 117 3.3l.2.7c.7 2.7 2.9 13-.6 20.1-4.1 8.2-9.2 8.2-9.2 8.2s1-1.9 1.8-4z" class="st4"/><path d="M107.5 32.7l-.4-.2V32l1.3-3-3 .8c-.2.1-.4 0-.6-.2-.1-.2-.1-.4.1-.6.6-.6 1.3-1.7 1.9-3.1-2.7 1.1-4.8 1.2-4.9 1.3a.5.5 0 0 1-.5-.3c-.1-.2 0-.4.1-.6 0 0 2.4-2.3 3.8-4l-3.4.2a.5.5 0 0 1-.5-.3c-.1-.2 0-.5.2-.6 1.9-1.2 2.2-5.6 2.2-7.2v-.1c.7-6.3 4.3-9 7.2-10.2 3.1-1.3 6-1.1 6.1-1.1.2 0 .4.2.4.3l.2.7c.8 3 2.9 13.2-.6 20.4-4.1 8.2-9.2 8.3-9.6 8.3zm1.7-4.9l.4.2c.1.1.2.3.1.5l-1.3 3.2c1.6-.4 5-1.9 7.9-7.7a22 22 0 0 0 1.8-11.4c-.2-3.8-1-7.1-1.3-8.3l-.1-.3c-.8 0-3.1.1-5.4 1-3.8 1.6-6 4.8-6.6 9.4 0 .5 0 4.8-1.6 7.1l3.1-.2.5.2v.5c-.7 1.2-2.3 2.9-3.3 4 1-.2 2.5-.6 4.1-1.4.2-.1.4-.1.5.1.2.1.2.3.1.5-.5 1.4-1 2.5-1.6 3.4l2.5-.7.2-.1z"/><path d="M109.4 21.5l-.5-.6c-1-1.2-3-.7-3.3.8v.3c-.1.7 0 1.4.2 2l.1.3.7 1.2.6 1.5.5 1.7.1.5v.5l.3.6c.4.5 1.2.6 1.8.1l.6-.5" class="st5"/><path d="M108.9 31.4c-.5 0-1-.2-1.3-.6-.3-.3-.4-.6-.4-1v-.5l-.1-.3-.5-1.7c-.1-.5-.3-1-.6-1.4l-.7-1.3-.1-.4c-.2-.7-.3-1.4-.2-2.2v-.4c.2-.9.8-1.6 1.8-1.8.9-.2 1.9.1 2.4.8l.5.6-.8.6-.5-.6c-.4-.5-1-.6-1.4-.5-.5.1-.9.5-1 1v.3c-.1.6 0 1.2.1 1.8l.1.3.6 1.2.7 1.6.5 1.7.1.6v.5l.1.3c.3.3.8.3 1.1.1l.6-.5.6.8-.5.6c-.3.3-.7.4-1.1.4z"/><path d="M107.8 29.4h-.2c-.1-.1-.2-.3-.1-.4.5-.8.4-1.8.2-2.6-.2-1-.6-1.8-1-2.5-.1-.1-.1-.3.1-.4.1-.1.3-.1.4.1.5.7.9 1.6 1.1 2.7.3 1.3.2 2.3-.3 3l-.2.1z"/><path d="M135.7 21.5l.5-.6c1-1.2 3-.7 3.3.8v.3c.1.7 0 1.4-.2 2l-.1.3-.7 1.2-.6 1.5-.5 1.7-.1.5v.5l-.3.6c-.4.5-1.2.6-1.8.1l-.6-.5" class="st5"/><path d="M136.2 31.4c-.4 0-.8-.1-1.1-.4l-.6-.5.6-.8.6.5c.3.3.8.2 1.1-.1l.1-.3v-.5l.1-.6.5-1.7.7-1.6.6-1.2.1-.3c.2-.6.2-1.2.1-1.8v-.3c-.1-.5-.5-.9-1-1-.4-.1-1 0-1.4.4l-.5.6-.8-.6.5-.6c.6-.7 1.5-1 2.4-.8.9.2 1.6.9 1.8 1.8v.3c.1.8 0 1.5-.2 2.2l-.1.4v.1l-.7 1.2-.6 1.4-.5 1.7-.1.3v.5c0 .3-.1.7-.4 1-.3.5-.7.7-1.2.7z"/><path fill="#ffeed4" d="M138 16a15.5 15.5 0 1 0-29.7 6.3c1 2.1 1.4 4.4 1.4 6.8v.1c0 8.5 5.7 14.5 12.7 14.5s12.7-5.9 12.7-14.5V29c0-2.3.5-4.5 1.4-6.6 1.1-2 1.5-4.2 1.5-6.4z"/><path d="M122.6 44.1c-7.5 0-13.2-6.4-13.2-15V29c0-2.3-.5-4.5-1.4-6.6a15.6 15.6 0 0 1 3.3-17.8c3-3 6.9-4.7 11.1-4.7 4.3-.1 8.4 1.6 11.4 4.6a15.8 15.8 0 0 1 3.4 18 16 16 0 0 0-1.4 6.4v.2c0 8.5-5.7 15-13.2 15zm0-43.1h-.2a15.1 15.1 0 0 0-14.8 14.8c0 2.2.4 4.3 1.3 6.3a17 17 0 0 1 1.5 7v.1c0 3.9 1.3 7.5 3.6 10.1a11.4 11.4 0 0 0 17.2 0c2.3-2.6 3.6-6.2 3.6-10.1V29c0-2.3.5-4.6 1.5-6.8a15 15 0 0 0-3.2-16.8A14.5 14.5 0 0 0 122.6 1z"/><path d="M137.3 29.4l-.2-.1c-.5-.7-.6-1.8-.3-3 .2-1 .6-2 1.1-2.7.1-.1.3-.2.4-.1.1.1.2.3.1.4-.4.6-.8 1.5-1 2.5-.2.8-.3 1.8.2 2.6.1.1.1.3-.1.4h-.2z"/><path fill="#9b8578" d="M128.1 31.9l-1.2-.6c-.4-.2-.7-.3-1.1-.3l-1.2-.1-1.2.1h-1.5l-1.2-.1-1.2.1c-.4 0-.8.2-1.1.3l-1.2.6c-1.4.7-3.2.3-4.2-.8l-3-3.4v1.4c0 8.5 5.7 14.5 12.7 14.5 7 0 12.7-5.9 12.7-14.5v-1.4l-3 3.4a3.7 3.7 0 0 1-4.3.8z"/><g class="st8"><defs><path id="SVGID_1_" d="M128.1 31.9l-1.2-.6c-.4-.2-.7-.3-1.1-.3l-1.2-.1-1.2.1h-1.5l-1.2-.1-1.2.1c-.4 0-.8.2-1.1.3l-1.2.6c-1.4.7-3.2.3-4.2-.8l-3-3.4v1.4c0 8.5 5.7 14.5 12.7 14.5 7 0 12.7-5.9 12.7-14.5v-1.4l-3 3.4a3.7 3.7 0 0 1-4.3.8z" class="st8"/></defs><clipPath id="SVGID_2_"><use overflow="visible" xlink:href="#SVGID_1_"/></clipPath><g clip-path="url(#SVGID_2_)"><path fill="#352e2a" d="M110.5 23c0 .2-.2.4-.4.4s-.4-.2-.4-.4.2-.4.4-.4.4.2.4.4zm-.4.9c-.2 0-.4.2-.4.4s.2.4.4.4.4-.2.4-.4-.2-.4-.4-.4zm0 1.3c-.2 0-.4.2-.4.4s.2.4.4.4.4-.2.4-.4c0-.3-.2-.4-.4-.4zm0 1.3c-.2 0-.4.2-.4.4s.2.4.4.4.4-.2.4-.4c0-.3-.2-.4-.4-.4zm0 1.2c-.2 0-.4.2-.4.4s.2.4.4.4.4-.2.4-.4-.2-.4-.4-.4zm0 1.3c-.2 0-.4.2-.4.4s.2.4.4.4.4-.2.4-.4-.2-.4-.4-.4zm0 1.3c-.2 0-.4.2-.4.4s.2.4.4.4.4-.2.4-.4-.2-.4-.4-.4zm0 1.3c-.2 0-.4.2-.4.4s.2.4.4.4.4-.2.4-.4-.2-.4-.4-.4zm0 1.3c-.2 0-.4.2-.4.4s.2.4.4.4.4-.2.4-.4c0-.3-.2-.4-.4-.4zm0 1.3c-.2 0-.4.2-.4.4s.2.4.4.4.4-.2.4-.4-.2-.4-.4-.4zm0 1.2c-.2 0-.4.2-.4.4s.2.4.4.4.4-.2.4-.4-.2-.4-.4-.4zm0 1.3c-.2 0-.4.2-.4.4s.2.4.4.4.4-.2.4-.4-.2-.4-.4-.4zm0 1.3c-.2 0-.4.2-.4.4s.2.4.4.4.4-.2.4-.4-.2-.4-.4-.4zm0 1.3c-.2 0-.4.2-.4.4s.2.4.4.4.4-.2.4-.4-.2-.4-.4-.4zm0 1.3c-.2 0-.4.2-.4.4s.2.4.4.4.4-.2.4-.4c0-.3-.2-.4-.4-.4zm0 1.3c-.2 0-.4.2-.4.4s.2.4.4.4.4-.2.4-.4c0-.3-.2-.4-.4-.4zm0 1.2c-.2 0-.4.2-.4.4s.2.4.4.4.4-.2.4-.4-.2-.4-.4-.4zm1-21.2c-.2 0-.4.2-.4.4s.2.4.4.4.4-.2.4-.4-.2-.4-.4-.4zm0 1.3c-.2 0-.4.2-.4.4s.2.4.4.4.4-.2.4-.4c0-.3-.2-.4-.4-.4zm0 1.3c-.2 0-.4.2-.4.4s.2.4.4.4.4-.2.4-.4-.2-.4-.4-.4zm0 1.2c-.2 0-.4.2-.4.4s.2.4.4.4.4-.2.4-.4-.2-.4-.4-.4zm0 1.3c-.2 0-.4.2-.4.4s.2.4.4.4.4-.2.4-.4-.2-.4-.4-.4zm0 1.3c-.2 0-.4.2-.4.4s.2.4.4.4.4-.2.4-.4-.2-.4-.4-.4zm0 1.3c-.2 0-.4.2-.4.4s.2.4.4.4.4-.2.4-.4-.2-.4-.4-.4zm0 1.3c-.2 0-.4.2-.4.4s.2.4.4.4.4-.2.4-.4c0-.3-.2-.4-.4-.4zm0 1.3c-.2 0-.4.2-.4.4s.2.4.4.4.4-.2.4-.4-.2-.4-.4-.4zm0 1.2c-.2 0-.4.2-.4.4s.2.4.4.4.4-.2.4-.4-.2-.4-.4-.4zm0 1.3c-.2 0-.4.2-.4.4s.2.4.4.4.4-.2.4-.4-.2-.4-.4-.4zm0 1.3c-.2 0-.4.2-.4.4s.2.4.4.4.4-.2.4-.4-.2-.4-.4-.4zm0 1.3c-.2 0-.4.2-.4.4s.2.4.4.4.4-.2.4-.4-.2-.4-.4-.4zm0 1.3c-.2 0-.4.2-.4.4s.2.4.4.4.4-.2.4-.4c0-.3-.2-.4-.4-.4zm0 1.3c-.2 0-.4.2-.4.4s.2.4.4.4.4-.2.4-.4c0-.3-.2-.4-.4-.4zm0 1.2c-.2 0-.4.2-.4.4s.2.4.4.4.4-.2.4-.4-.2-.4-.4-.4zm0 1.3c-.2 0-.4.2-.4.4s.2.4.4.4.4-.2.4-.4-.2-.4-.4-.4zm1-19.8c-.2 0-.4.2-.4.4s.2.4.4.4.4-.2.4-.4-.2-.4-.4-.4zm0 1.3c-.2 0-.4.2-.4.4s.2.4.4.4.4-.2.4-.4c-.1-.2-.2-.4-.4-.4zm0 1.3c-.2 0-.4.2-.4.4s.2.4.4.4.4-.2.4-.4c-.1-.3-.2-.4-.4-.4zm0 1.3c-.2 0-.4.2-.4.4s.2.4.4.4.4-.2.4-.4c-.1-.3-.2-.4-.4-.4zm0 1.2c-.2 0-.4.2-.4.4s.2.4.4.4.4-.2.4-.4c-.1-.2-.2-.4-.4-.4zm0 1.3c-.2 0-.4.2-.4.4s.2.4.4.4.4-.2.4-.4c-.1-.2-.2-.4-.4-.4zm0 1.3c-.2 0-.4.2-.4.4s.2.4.4.4.4-.2.4-.4c-.1-.2-.2-.4-.4-.4zm0 1.3c-.2 0-.4.2-.4.4s.2.4.4.4.4-.2.4-.4-.2-.4-.4-.4zm0 1.3c-.2 0-.4.2-.4.4s.2.4.4.4.4-.2.4-.4c-.1-.3-.2-.4-.4-.4zm0 1.3c-.2 0-.4.2-.4.4s.2.4.4.4.4-.2.4-.4-.2-.4-.4-.4zm0 1.2c-.2 0-.4.2-.4.4s.2.4.4.4.4-.2.4-.4-.2-.4-.4-.4zm0 1.3c-.2 0-.4.2-.4.4s.2.4.4.4.4-.2.4-.4-.2-.4-.4-.4zm0 1.3c-.2 0-.4.2-.4.4s.2.4.4.4.4-.2.4-.4c-.1-.2-.2-.4-.4-.4zm0 1.3c-.2 0-.4.2-.4.4s.2.4.4.4.4-.2.4-.4c-.1-.2-.2-.4-.4-.4zm0 1.3c-.2 0-.4.2-.4.4s.2.4.4.4.4-.2.4-.4c-.1-.3-.2-.4-.4-.4zm0 1.3c-.2 0-.4.2-.4.4s.2.4.4.4.4-.2.4-.4c-.1-.3-.2-.4-.4-.4zm0 1.2c-.2 0-.4.2-.4.4s.2.4.4.4.4-.2.4-.4-.2-.4-.4-.4zm1-21.2c-.2 0-.4.2-.4.4s.2.4.4.4.4-.2.4-.4c-.1-.2-.2-.4-.4-.4zm0 1.3c-.2 0-.4.2-.4.4s.2.4.4.4.4-.2.4-.4c-.1-.3-.2-.4-.4-.4zm0 1.3c-.2 0-.4.2-.4.4s.2.4.4.4.4-.2.4-.4-.2-.4-.4-.4zm0 1.2c-.2 0-.4.2-.4.4s.2.4.4.4.4-.2.4-.4c-.1-.2-.2-.4-.4-.4zm0 1.3c-.2 0-.4.2-.4.4s.2.4.4.4.4-.2.4-.4c-.1-.2-.2-.4-.4-.4zm0 1.3c-.2 0-.4.2-.4.4s.2.4.4.4.4-.2.4-.4-.2-.4-.4-.4zm0 1.3c-.2 0-.4.2-.4.4s.2.4.4.4.4-.2.4-.4c-.1-.2-.2-.4-.4-.4zm0 1.3c-.2 0-.4.2-.4.4s.2.4.4.4.4-.2.4-.4c-.1-.3-.2-.4-.4-.4zm0 1.3c-.2 0-.4.2-.4.4s.2.4.4.4.4-.2.4-.4-.2-.4-.4-.4zm0 1.2c-.2 0-.4.2-.4.4s.2.4.4.4.4-.2.4-.4-.2-.4-.4-.4zm0 1.3c-.2 0-.4.2-.4.4s.2.4.4.4.4-.2.4-.4c-.1-.2-.2-.4-.4-.4zm0 1.3c-.2 0-.4.2-.4.4s.2.4.4.4.4-.2.4-.4c-.1-.2-.2-.4-.4-.4zm0 1.3c-.2 0-.4.2-.4.4s.2.4.4.4.4-.2.4-.4c-.1-.2-.2-.4-.4-.4zm0 1.3c-.2 0-.4.2-.4.4s.2.4.4.4.4-.2.4-.4c-.1-.3-.2-.4-.4-.4zm0 1.3c-.2 0-.4.2-.4.4s.2.4.4.4.4-.2.4-.4c-.1-.3-.2-.4-.4-.4zm0 1.2c-.2 0-.4.2-.4.4s.2.4.4.4.4-.2.4-.4-.2-.4-.4-.4zm0 1.3c-.2 0-.4.2-.4.4s.2.4.4.4.4-.2.4-.4-.2-.4-.4-.4zm1-19.8c-.2 0-.4.2-.4.4s.2.4.4.4.4-.2.4-.4-.2-.4-.4-.4zm0 1.3c-.2 0-.4.2-.4.4s.2.4.4.4.4-.2.4-.4c-.1-.2-.2-.4-.4-.4zm0 1.3c-.2 0-.4.2-.4.4s.2.4.4.4.4-.2.4-.4c-.1-.3-.2-.4-.4-.4zm0 1.3c-.2 0-.4.2-.4.4s.2.4.4.4.4-.2.4-.4c-.1-.3-.2-.4-.4-.4zm0 1.2c-.2 0-.4.2-.4.4s.2.4.4.4.4-.2.4-.4c-.1-.2-.2-.4-.4-.4zm0 1.3c-.2 0-.4.2-.4.4s.2.4.4.4.4-.2.4-.4c-.1-.2-.2-.4-.4-.4zm0 1.3c-.2 0-.4.2-.4.4s.2.4.4.4.4-.2.4-.4c-.1-.2-.2-.4-.4-.4zm0 1.3c-.2 0-.4.2-.4.4s.2.4.4.4.4-.2.4-.4-.2-.4-.4-.4zm0 1.3c-.2 0-.4.2-.4.4s.2.4.4.4.4-.2.4-.4c-.1-.3-.2-.4-.4-.4zm0 1.3c-.2 0-.4.2-.4.4s.2.4.4.4.4-.2.4-.4-.2-.4-.4-.4zm0 1.2c-.2 0-.4.2-.4.4s.2.4.4.4.4-.2.4-.4-.2-.4-.4-.4zm0 1.3c-.2 0-.4.2-.4.4s.2.4.4.4.4-.2.4-.4-.2-.4-.4-.4zm0 1.3c-.2 0-.4.2-.4.4s.2.4.4.4.4-.2.4-.4c-.1-.2-.2-.4-.4-.4zm0 1.3c-.2 0-.4.2-.4.4s.2.4.4.4.4-.2.4-.4c-.1-.2-.2-.4-.4-.4zm0 1.3c-.2 0-.4.2-.4.4s.2.4.4.4.4-.2.4-.4c-.1-.3-.2-.4-.4-.4zm0 1.3c-.2 0-.4.2-.4.4s.2.4.4.4.4-.2.4-.4c-.1-.3-.2-.4-.4-.4zm0 1.2c-.2 0-.4.2-.4.4s.2.4.4.4.4-.2.4-.4-.2-.4-.4-.4zm1-21.2c-.2 0-.4.2-.4.4s.2.4.4.4.4-.2.4-.4c-.1-.2-.2-.4-.4-.4zm0 1.3c-.2 0-.4.2-.4.4s.2.4.4.4.4-.2.4-.4c-.1-.3-.2-.4-.4-.4zm0 1.3c-.2 0-.4.2-.4.4s.2.4.4.4.4-.2.4-.4-.2-.4-.4-.4zm0 1.2c-.2 0-.4.2-.4.4s.2.4.4.4.4-.2.4-.4c-.1-.2-.2-.4-.4-.4zm0 1.3c-.2 0-.4.2-.4.4s.2.4.4.4.4-.2.4-.4c-.1-.2-.2-.4-.4-.4zm0 1.3c-.2 0-.4.2-.4.4s.2.4.4.4.4-.2.4-.4-.2-.4-.4-.4zm0 1.3c-.2 0-.4.2-.4.4s.2.4.4.4.4-.2.4-.4c-.1-.2-.2-.4-.4-.4zm0 1.3c-.2 0-.4.2-.4.4s.2.4.4.4.4-.2.4-.4c-.1-.3-.2-.4-.4-.4zm0 1.3c-.2 0-.4.2-.4.4s.2.4.4.4.4-.2.4-.4-.2-.4-.4-.4zm0 1.2c-.2 0-.4.2-.4.4s.2.4.4.4.4-.2.4-.4-.2-.4-.4-.4zm0 1.3c-.2 0-.4.2-.4.4s.2.4.4.4.4-.2.4-.4c-.1-.2-.2-.4-.4-.4zm0 1.3c-.2 0-.4.2-.4.4s.2.4.4.4.4-.2.4-.4c-.1-.2-.2-.4-.4-.4zm0 1.3c-.2 0-.4.2-.4.4s.2.4.4.4.4-.2.4-.4c-.1-.2-.2-.4-.4-.4zm0 1.3c-.2 0-.4.2-.4.4s.2.4.4.4.4-.2.4-.4c-.1-.3-.2-.4-.4-.4zm0 1.3c-.2 0-.4.2-.4.4s.2.4.4.4.4-.2.4-.4c-.1-.3-.2-.4-.4-.4zm0 1.2c-.2 0-.4.2-.4.4s.2.4.4.4.4-.2.4-.4-.2-.4-.4-.4zm0 1.3c-.2 0-.4.2-.4.4s.2.4.4.4.4-.2.4-.4-.2-.4-.4-.4zm1-19.8c-.2 0-.4.2-.4.4s.2.4.4.4.4-.2.4-.4-.2-.4-.4-.4zm0 1.3c-.2 0-.4.2-.4.4s.2.4.4.4.4-.2.4-.4c-.1-.2-.2-.4-.4-.4zm0 1.3c-.2 0-.4.2-.4.4s.2.4.4.4.4-.2.4-.4c-.1-.3-.2-.4-.4-.4zm0 1.3c-.2 0-.4.2-.4.4s.2.4.4.4.4-.2.4-.4c-.1-.3-.2-.4-.4-.4zm0 1.2c-.2 0-.4.2-.4.4s.2.4.4.4.4-.2.4-.4c-.1-.2-.2-.4-.4-.4zm0 1.3c-.2 0-.4.2-.4.4s.2.4.4.4.4-.2.4-.4c-.1-.2-.2-.4-.4-.4zm0 1.3c-.2 0-.4.2-.4.4s.2.4.4.4.4-.2.4-.4c-.1-.2-.2-.4-.4-.4zm0 1.3c-.2 0-.4.2-.4.4s.2.4.4.4.4-.2.4-.4-.2-.4-.4-.4zm0 1.3c-.2 0-.4.2-.4.4s.2.4.4.4.4-.2.4-.4c-.1-.3-.2-.4-.4-.4zm0 1.3c-.2 0-.4.2-.4.4s.2.4.4.4.4-.2.4-.4-.2-.4-.4-.4zm0 1.2c-.2 0-.4.2-.4.4s.2.4.4.4.4-.2.4-.4-.2-.4-.4-.4zm0 1.3c-.2 0-.4.2-.4.4s.2.4.4.4.4-.2.4-.4-.2-.4-.4-.4zm0 1.3c-.2 0-.4.2-.4.4s.2.4.4.4.4-.2.4-.4c-.1-.2-.2-.4-.4-.4zm0 1.3c-.2 0-.4.2-.4.4s.2.4.4.4.4-.2.4-.4c-.1-.2-.2-.4-.4-.4zm0 1.3c-.2 0-.4.2-.4.4s.2.4.4.4.4-.2.4-.4c-.1-.3-.2-.4-.4-.4zm0 1.3c-.2 0-.4.2-.4.4s.2.4.4.4.4-.2.4-.4c-.1-.3-.2-.4-.4-.4zm0 1.2c-.2 0-.4.2-.4.4s.2.4.4.4.4-.2.4-.4-.2-.4-.4-.4zm1-21.2c-.2 0-.4.2-.4.4s.2.4.4.4.4-.2.4-.4c-.1-.2-.2-.4-.4-.4zm0 1.3c-.2 0-.4.2-.4.4s.2.4.4.4.4-.2.4-.4c-.1-.3-.2-.4-.4-.4zm0 1.3c-.2 0-.4.2-.4.4s.2.4.4.4.4-.2.4-.4-.2-.4-.4-.4zm0 1.2c-.2 0-.4.2-.4.4s.2.4.4.4.4-.2.4-.4c-.1-.2-.2-.4-.4-.4zm0 1.3c-.2 0-.4.2-.4.4s.2.4.4.4.4-.2.4-.4c-.1-.2-.2-.4-.4-.4zm0 1.3c-.2 0-.4.2-.4.4s.2.4.4.4.4-.2.4-.4-.2-.4-.4-.4zm0 1.3c-.2 0-.4.2-.4.4s.2.4.4.4.4-.2.4-.4c-.1-.2-.2-.4-.4-.4zm0 1.3c-.2 0-.4.2-.4.4s.2.4.4.4.4-.2.4-.4c-.1-.3-.2-.4-.4-.4zm0 1.3c-.2 0-.4.2-.4.4s.2.4.4.4.4-.2.4-.4-.2-.4-.4-.4zm0 1.2c-.2 0-.4.2-.4.4s.2.4.4.4.4-.2.4-.4-.2-.4-.4-.4zm0 1.3c-.2 0-.4.2-.4.4s.2.4.4.4.4-.2.4-.4c-.1-.2-.2-.4-.4-.4zm0 1.3c-.2 0-.4.2-.4.4s.2.4.4.4.4-.2.4-.4c-.1-.2-.2-.4-.4-.4zm0 1.3c-.2 0-.4.2-.4.4s.2.4.4.4.4-.2.4-.4c-.1-.2-.2-.4-.4-.4zm0 1.3c-.2 0-.4.2-.4.4s.2.4.4.4.4-.2.4-.4c-.1-.3-.2-.4-.4-.4zm0 1.3c-.2 0-.4.2-.4.4s.2.4.4.4.4-.2.4-.4c-.1-.3-.2-.4-.4-.4zm0 1.2c-.2 0-.4.2-.4.4s.2.4.4.4.4-.2.4-.4-.2-.4-.4-.4zm0 1.3c-.2 0-.4.2-.4.4s.2.4.4.4.4-.2.4-.4-.2-.4-.4-.4zm1-19.8c-.2 0-.4.2-.4.4s.2.4.4.4.4-.2.4-.4-.2-.4-.4-.4zm0 1.3c-.2 0-.4.2-.4.4s.2.4.4.4.4-.2.4-.4c-.1-.2-.2-.4-.4-.4zm0 1.3c-.2 0-.4.2-.4.4s.2.4.4.4.4-.2.4-.4c-.1-.3-.2-.4-.4-.4zm0 1.3c-.2 0-.4.2-.4.4s.2.4.4.4.4-.2.4-.4c-.1-.3-.2-.4-.4-.4zm0 1.2c-.2 0-.4.2-.4.4s.2.4.4.4.4-.2.4-.4c-.1-.2-.2-.4-.4-.4zm0 1.3c-.2 0-.4.2-.4.4s.2.4.4.4.4-.2.4-.4c-.1-.2-.2-.4-.4-.4zm0 1.3c-.2 0-.4.2-.4.4s.2.4.4.4.4-.2.4-.4c-.1-.2-.2-.4-.4-.4zm0 1.3c-.2 0-.4.2-.4.4s.2.4.4.4.4-.2.4-.4-.2-.4-.4-.4zm0 1.3c-.2 0-.4.2-.4.4s.2.4.4.4.4-.2.4-.4c-.1-.3-.2-.4-.4-.4zm0 1.3c-.2 0-.4.2-.4.4s.2.4.4.4.4-.2.4-.4-.2-.4-.4-.4zm0 1.2c-.2 0-.4.2-.4.4s.2.4.4.4.4-.2.4-.4-.2-.4-.4-.4zm0 1.3c-.2 0-.4.2-.4.4s.2.4.4.4.4-.2.4-.4-.2-.4-.4-.4zm0 1.3c-.2 0-.4.2-.4.4s.2.4.4.4.4-.2.4-.4c-.1-.2-.2-.4-.4-.4zm0 1.3c-.2 0-.4.2-.4.4s.2.4.4.4.4-.2.4-.4c-.1-.2-.2-.4-.4-.4zm0 1.3c-.2 0-.4.2-.4.4s.2.4.4.4.4-.2.4-.4c-.1-.3-.2-.4-.4-.4zm0 1.3c-.2 0-.4.2-.4.4s.2.4.4.4.4-.2.4-.4c-.1-.3-.2-.4-.4-.4zm0 1.2c-.2 0-.4.2-.4.4s.2.4.4.4.4-.2.4-.4-.2-.4-.4-.4zm1-21.2c-.2 0-.4.2-.4.4s.2.4.4.4.4-.2.4-.4c-.1-.2-.2-.4-.4-.4zm0 1.3c-.2 0-.4.2-.4.4s.2.4.4.4.4-.2.4-.4c-.1-.3-.2-.4-.4-.4zm0 1.3c-.2 0-.4.2-.4.4s.2.4.4.4.4-.2.4-.4-.2-.4-.4-.4zm0 1.2c-.2 0-.4.2-.4.4s.2.4.4.4.4-.2.4-.4c-.1-.2-.2-.4-.4-.4zm0 1.3c-.2 0-.4.2-.4.4s.2.4.4.4.4-.2.4-.4c-.1-.2-.2-.4-.4-.4zm0 1.3c-.2 0-.4.2-.4.4s.2.4.4.4.4-.2.4-.4-.2-.4-.4-.4zm0 1.3c-.2 0-.4.2-.4.4s.2.4.4.4.4-.2.4-.4c-.1-.2-.2-.4-.4-.4zm0 1.3c-.2 0-.4.2-.4.4s.2.4.4.4.4-.2.4-.4c-.1-.3-.2-.4-.4-.4zm0 1.3c-.2 0-.4.2-.4.4s.2.4.4.4.4-.2.4-.4-.2-.4-.4-.4zm0 1.2c-.2 0-.4.2-.4.4s.2.4.4.4.4-.2.4-.4-.2-.4-.4-.4zm0 1.3c-.2 0-.4.2-.4.4s.2.4.4.4.4-.2.4-.4c-.1-.2-.2-.4-.4-.4zm0 1.3c-.2 0-.4.2-.4.4s.2.4.4.4.4-.2.4-.4c-.1-.2-.2-.4-.4-.4zm0 1.3c-.2 0-.4.2-.4.4s.2.4.4.4.4-.2.4-.4c-.1-.2-.2-.4-.4-.4zm0 1.3c-.2 0-.4.2-.4.4s.2.4.4.4.4-.2.4-.4c-.1-.3-.2-.4-.4-.4zm0 1.3c-.2 0-.4.2-.4.4s.2.4.4.4.4-.2.4-.4c-.1-.3-.2-.4-.4-.4zm0 1.2c-.2 0-.4.2-.4.4s.2.4.4.4.4-.2.4-.4-.2-.4-.4-.4zm0 1.3c-.2 0-.4.2-.4.4s.2.4.4.4.4-.2.4-.4-.2-.4-.4-.4zm1-19.8c-.2 0-.4.2-.4.4s.2.4.4.4.4-.2.4-.4-.2-.4-.4-.4zm0 1.3c-.2 0-.4.2-.4.4s.2.4.4.4.4-.2.4-.4c-.1-.2-.2-.4-.4-.4zm0 1.3c-.2 0-.4.2-.4.4s.2.4.4.4.4-.2.4-.4c-.1-.3-.2-.4-.4-.4zm0 1.3c-.2 0-.4.2-.4.4s.2.4.4.4.4-.2.4-.4c-.1-.3-.2-.4-.4-.4zm0 1.2c-.2 0-.4.2-.4.4s.2.4.4.4.4-.2.4-.4c-.1-.2-.2-.4-.4-.4zm0 1.3c-.2 0-.4.2-.4.4s.2.4.4.4.4-.2.4-.4c-.1-.2-.2-.4-.4-.4zm0 1.3c-.2 0-.4.2-.4.4s.2.4.4.4.4-.2.4-.4c-.1-.2-.2-.4-.4-.4zm0 1.3c-.2 0-.4.2-.4.4s.2.4.4.4.4-.2.4-.4-.2-.4-.4-.4zm0 1.3c-.2 0-.4.2-.4.4s.2.4.4.4.4-.2.4-.4c-.1-.3-.2-.4-.4-.4zm0 1.3c-.2 0-.4.2-.4.4s.2.4.4.4.4-.2.4-.4-.2-.4-.4-.4zm0 1.2c-.2 0-.4.2-.4.4s.2.4.4.4.4-.2.4-.4-.2-.4-.4-.4zm0 1.3c-.2 0-.4.2-.4.4s.2.4.4.4.4-.2.4-.4-.2-.4-.4-.4zm0 1.3c-.2 0-.4.2-.4.4s.2.4.4.4.4-.2.4-.4c-.1-.2-.2-.4-.4-.4zm0 1.3c-.2 0-.4.2-.4.4s.2.4.4.4.4-.2.4-.4c-.1-.2-.2-.4-.4-.4zm0 1.3c-.2 0-.4.2-.4.4s.2.4.4.4.4-.2.4-.4c-.1-.3-.2-.4-.4-.4zm0 1.3c-.2 0-.4.2-.4.4s.2.4.4.4.4-.2.4-.4c-.1-.3-.2-.4-.4-.4zm0 1.2c-.2 0-.4.2-.4.4s.2.4.4.4.4-.2.4-.4-.2-.4-.4-.4zm1-21.2c-.2 0-.4.2-.4.4s.2.4.4.4.4-.2.4-.4c-.1-.2-.2-.4-.4-.4zm0 1.3c-.2 0-.4.2-.4.4s.2.4.4.4.4-.2.4-.4c-.1-.3-.2-.4-.4-.4zm0 1.3c-.2 0-.4.2-.4.4s.2.4.4.4.4-.2.4-.4-.2-.4-.4-.4zm0 1.2c-.2 0-.4.2-.4.4s.2.4.4.4.4-.2.4-.4c-.1-.2-.2-.4-.4-.4zm0 1.3c-.2 0-.4.2-.4.4s.2.4.4.4.4-.2.4-.4c-.1-.2-.2-.4-.4-.4zm0 1.3c-.2 0-.4.2-.4.4s.2.4.4.4.4-.2.4-.4-.2-.4-.4-.4zm0 1.3c-.2 0-.4.2-.4.4s.2.4.4.4.4-.2.4-.4c-.1-.2-.2-.4-.4-.4zm0 1.3c-.2 0-.4.2-.4.4s.2.4.4.4.4-.2.4-.4c-.1-.3-.2-.4-.4-.4zm0 1.3c-.2 0-.4.2-.4.4s.2.4.4.4.4-.2.4-.4-.2-.4-.4-.4zm0 1.2c-.2 0-.4.2-.4.4s.2.4.4.4.4-.2.4-.4-.2-.4-.4-.4zm0 1.3c-.2 0-.4.2-.4.4s.2.4.4.4.4-.2.4-.4c-.1-.2-.2-.4-.4-.4zm0 1.3c-.2 0-.4.2-.4.4s.2.4.4.4.4-.2.4-.4c-.1-.2-.2-.4-.4-.4zm0 1.3c-.2 0-.4.2-.4.4s.2.4.4.4.4-.2.4-.4c-.1-.2-.2-.4-.4-.4zm0 1.3c-.2 0-.4.2-.4.4s.2.4.4.4.4-.2.4-.4c-.1-.3-.2-.4-.4-.4zm0 1.3c-.2 0-.4.2-.4.4s.2.4.4.4.4-.2.4-.4c-.1-.3-.2-.4-.4-.4zm0 1.2c-.2 0-.4.2-.4.4s.2.4.4.4.4-.2.4-.4-.2-.4-.4-.4zm0 1.3c-.2 0-.4.2-.4.4s.2.4.4.4.4-.2.4-.4-.2-.4-.4-.4zm1-19.8c-.2 0-.4.2-.4.4s.2.4.4.4.4-.2.4-.4-.2-.4-.4-.4zm0 1.3c-.2 0-.4.2-.4.4s.2.4.4.4.4-.2.4-.4c-.1-.2-.2-.4-.4-.4zm0 1.3c-.2 0-.4.2-.4.4s.2.4.4.4.4-.2.4-.4c-.1-.3-.2-.4-.4-.4zm0 1.3c-.2 0-.4.2-.4.4s.2.4.4.4.4-.2.4-.4c-.1-.3-.2-.4-.4-.4zm0 1.2c-.2 0-.4.2-.4.4s.2.4.4.4.4-.2.4-.4c-.1-.2-.2-.4-.4-.4zm0 1.3c-.2 0-.4.2-.4.4s.2.4.4.4.4-.2.4-.4c-.1-.2-.2-.4-.4-.4zm0 1.3c-.2 0-.4.2-.4.4s.2.4.4.4.4-.2.4-.4c-.1-.2-.2-.4-.4-.4zm0 1.3c-.2 0-.4.2-.4.4s.2.4.4.4.4-.2.4-.4-.2-.4-.4-.4zm0 1.3c-.2 0-.4.2-.4.4s.2.4.4.4.4-.2.4-.4c-.1-.3-.2-.4-.4-.4zm0 1.3c-.2 0-.4.2-.4.4s.2.4.4.4.4-.2.4-.4-.2-.4-.4-.4zm0 1.2c-.2 0-.4.2-.4.4s.2.4.4.4.4-.2.4-.4-.2-.4-.4-.4zm0 1.3c-.2 0-.4.2-.4.4s.2.4.4.4.4-.2.4-.4-.2-.4-.4-.4zm0 1.3c-.2 0-.4.2-.4.4s.2.4.4.4.4-.2.4-.4c-.1-.2-.2-.4-.4-.4zm0 1.3c-.2 0-.4.2-.4.4s.2.4.4.4.4-.2.4-.4c-.1-.2-.2-.4-.4-.4zm0 1.3c-.2 0-.4.2-.4.4s.2.4.4.4.4-.2.4-.4c-.1-.3-.2-.4-.4-.4zm0 1.3c-.2 0-.4.2-.4.4s.2.4.4.4.4-.2.4-.4c-.1-.3-.2-.4-.4-.4zm0 1.2c-.2 0-.4.2-.4.4s.2.4.4.4.4-.2.4-.4-.2-.4-.4-.4zm1-21.2c-.2 0-.4.2-.4.4s.2.4.4.4.4-.2.4-.4c-.1-.2-.2-.4-.4-.4zm0 1.3c-.2 0-.4.2-.4.4s.2.4.4.4.4-.2.4-.4c-.1-.3-.2-.4-.4-.4zm0 1.3c-.2 0-.4.2-.4.4s.2.4.4.4.4-.2.4-.4-.2-.4-.4-.4zm0 1.2c-.2 0-.4.2-.4.4s.2.4.4.4.4-.2.4-.4c-.1-.2-.2-.4-.4-.4zm0 1.3c-.2 0-.4.2-.4.4s.2.4.4.4.4-.2.4-.4c-.1-.2-.2-.4-.4-.4zm0 1.3c-.2 0-.4.2-.4.4s.2.4.4.4.4-.2.4-.4-.2-.4-.4-.4zm0 1.3c-.2 0-.4.2-.4.4s.2.4.4.4.4-.2.4-.4c-.1-.2-.2-.4-.4-.4zm0 1.3c-.2 0-.4.2-.4.4s.2.4.4.4.4-.2.4-.4c-.1-.3-.2-.4-.4-.4zm0 1.3c-.2 0-.4.2-.4.4s.2.4.4.4.4-.2.4-.4-.2-.4-.4-.4zm0 1.2c-.2 0-.4.2-.4.4s.2.4.4.4.4-.2.4-.4-.2-.4-.4-.4zm0 1.3c-.2 0-.4.2-.4.4s.2.4.4.4.4-.2.4-.4c-.1-.2-.2-.4-.4-.4zm0 1.3c-.2 0-.4.2-.4.4s.2.4.4.4.4-.2.4-.4c-.1-.2-.2-.4-.4-.4zm0 1.3c-.2 0-.4.2-.4.4s.2.4.4.4.4-.2.4-.4c-.1-.2-.2-.4-.4-.4zm0 1.3c-.2 0-.4.2-.4.4s.2.4.4.4.4-.2.4-.4c-.1-.3-.2-.4-.4-.4zm0 1.3c-.2 0-.4.2-.4.4s.2.4.4.4.4-.2.4-.4c-.1-.3-.2-.4-.4-.4zm0 1.2c-.2 0-.4.2-.4.4s.2.4.4.4.4-.2.4-.4-.2-.4-.4-.4zm0 1.3c-.2 0-.4.2-.4.4s.2.4.4.4.4-.2.4-.4-.2-.4-.4-.4zm1-19.8c-.2 0-.4.2-.4.4s.2.4.4.4.4-.2.4-.4-.2-.4-.4-.4zm0 1.3c-.2 0-.4.2-.4.4s.2.4.4.4.4-.2.4-.4c-.1-.2-.2-.4-.4-.4zm0 1.3c-.2 0-.4.2-.4.4s.2.4.4.4.4-.2.4-.4c-.1-.3-.2-.4-.4-.4zm0 1.3c-.2 0-.4.2-.4.4s.2.4.4.4.4-.2.4-.4c-.1-.3-.2-.4-.4-.4zm0 1.2c-.2 0-.4.2-.4.4s.2.4.4.4.4-.2.4-.4c-.1-.2-.2-.4-.4-.4zm0 1.3c-.2 0-.4.2-.4.4s.2.4.4.4.4-.2.4-.4c-.1-.2-.2-.4-.4-.4zm0 1.3c-.2 0-.4.2-.4.4s.2.4.4.4.4-.2.4-.4c-.1-.2-.2-.4-.4-.4zm0 1.3c-.2 0-.4.2-.4.4s.2.4.4.4.4-.2.4-.4-.2-.4-.4-.4zm0 1.3c-.2 0-.4.2-.4.4s.2.4.4.4.4-.2.4-.4c-.1-.3-.2-.4-.4-.4zm0 1.3c-.2 0-.4.2-.4.4s.2.4.4.4.4-.2.4-.4-.2-.4-.4-.4zm0 1.2c-.2 0-.4.2-.4.4s.2.4.4.4.4-.2.4-.4-.2-.4-.4-.4zm0 1.3c-.2 0-.4.2-.4.4s.2.4.4.4.4-.2.4-.4-.2-.4-.4-.4zm0 1.3c-.2 0-.4.2-.4.4s.2.4.4.4.4-.2.4-.4c-.1-.2-.2-.4-.4-.4zm0 1.3c-.2 0-.4.2-.4.4s.2.4.4.4.4-.2.4-.4c-.1-.2-.2-.4-.4-.4zm0 1.3c-.2 0-.4.2-.4.4s.2.4.4.4.4-.2.4-.4c-.1-.3-.2-.4-.4-.4zm0 1.3c-.2 0-.4.2-.4.4s.2.4.4.4.4-.2.4-.4c-.1-.3-.2-.4-.4-.4zm0 1.2c-.2 0-.4.2-.4.4s.2.4.4.4.4-.2.4-.4-.2-.4-.4-.4zm1-21.2c-.2 0-.4.2-.4.4s.2.4.4.4.4-.2.4-.4c-.1-.2-.2-.4-.4-.4zm0 1.3c-.2 0-.4.2-.4.4s.2.4.4.4.4-.2.4-.4c-.1-.3-.2-.4-.4-.4zm0 1.3c-.2 0-.4.2-.4.4s.2.4.4.4.4-.2.4-.4-.2-.4-.4-.4zm0 1.2c-.2 0-.4.2-.4.4s.2.4.4.4.4-.2.4-.4c-.1-.2-.2-.4-.4-.4zm0 1.3c-.2 0-.4.2-.4.4s.2.4.4.4.4-.2.4-.4c-.1-.2-.2-.4-.4-.4zm0 1.3c-.2 0-.4.2-.4.4s.2.4.4.4.4-.2.4-.4-.2-.4-.4-.4zm0 1.3c-.2 0-.4.2-.4.4s.2.4.4.4.4-.2.4-.4c-.1-.2-.2-.4-.4-.4zm0 1.3c-.2 0-.4.2-.4.4s.2.4.4.4.4-.2.4-.4c-.1-.3-.2-.4-.4-.4zm0 1.3c-.2 0-.4.2-.4.4s.2.4.4.4.4-.2.4-.4-.2-.4-.4-.4zm0 1.2c-.2 0-.4.2-.4.4s.2.4.4.4.4-.2.4-.4-.2-.4-.4-.4zm0 1.3c-.2 0-.4.2-.4.4s.2.4.4.4.4-.2.4-.4c-.1-.2-.2-.4-.4-.4zm0 1.3c-.2 0-.4.2-.4.4s.2.4.4.4.4-.2.4-.4c-.1-.2-.2-.4-.4-.4zm0 1.3c-.2 0-.4.2-.4.4s.2.4.4.4.4-.2.4-.4c-.1-.2-.2-.4-.4-.4zm0 1.3c-.2 0-.4.2-.4.4s.2.4.4.4.4-.2.4-.4c-.1-.3-.2-.4-.4-.4zm0 1.3c-.2 0-.4.2-.4.4s.2.4.4.4.4-.2.4-.4c-.1-.3-.2-.4-.4-.4zm0 1.2c-.2 0-.4.2-.4.4s.2.4.4.4.4-.2.4-.4-.2-.4-.4-.4zm0 1.3c-.2 0-.4.2-.4.4s.2.4.4.4.4-.2.4-.4-.2-.4-.4-.4zm1-19.8c-.2 0-.4.2-.4.4s.2.4.4.4.4-.2.4-.4-.2-.4-.4-.4zm0 1.3c-.2 0-.4.2-.4.4s.2.4.4.4.4-.2.4-.4c-.1-.2-.2-.4-.4-.4zm0 1.3c-.2 0-.4.2-.4.4s.2.4.4.4.4-.2.4-.4c-.1-.3-.2-.4-.4-.4zm0 1.3c-.2 0-.4.2-.4.4s.2.4.4.4.4-.2.4-.4c-.1-.3-.2-.4-.4-.4zm0 1.2c-.2 0-.4.2-.4.4s.2.4.4.4.4-.2.4-.4c-.1-.2-.2-.4-.4-.4zm0 1.3c-.2 0-.4.2-.4.4s.2.4.4.4.4-.2.4-.4c-.1-.2-.2-.4-.4-.4zm0 1.3c-.2 0-.4.2-.4.4s.2.4.4.4.4-.2.4-.4c-.1-.2-.2-.4-.4-.4zm0 1.3c-.2 0-.4.2-.4.4s.2.4.4.4.4-.2.4-.4-.2-.4-.4-.4zm0 1.3c-.2 0-.4.2-.4.4s.2.4.4.4.4-.2.4-.4c-.1-.3-.2-.4-.4-.4zm0 1.3c-.2 0-.4.2-.4.4s.2.4.4.4.4-.2.4-.4-.2-.4-.4-.4zm0 1.2c-.2 0-.4.2-.4.4s.2.4.4.4.4-.2.4-.4-.2-.4-.4-.4zm0 1.3c-.2 0-.4.2-.4.4s.2.4.4.4.4-.2.4-.4-.2-.4-.4-.4zm0 1.3c-.2 0-.4.2-.4.4s.2.4.4.4.4-.2.4-.4c-.1-.2-.2-.4-.4-.4zm0 1.3c-.2 0-.4.2-.4.4s.2.4.4.4.4-.2.4-.4c-.1-.2-.2-.4-.4-.4zm0 1.3c-.2 0-.4.2-.4.4s.2.4.4.4.4-.2.4-.4c-.1-.3-.2-.4-.4-.4zm0 1.3c-.2 0-.4.2-.4.4s.2.4.4.4.4-.2.4-.4c-.1-.3-.2-.4-.4-.4zm0 1.2c-.2 0-.4.2-.4.4s.2.4.4.4.4-.2.4-.4-.2-.4-.4-.4zm1-21.2c-.2 0-.4.2-.4.4s.2.4.4.4.4-.2.4-.4c-.1-.2-.2-.4-.4-.4zm0 1.3c-.2 0-.4.2-.4.4s.2.4.4.4.4-.2.4-.4c-.1-.3-.2-.4-.4-.4zm0 1.3c-.2 0-.4.2-.4.4s.2.4.4.4.4-.2.4-.4-.2-.4-.4-.4zm0 1.2c-.2 0-.4.2-.4.4s.2.4.4.4.4-.2.4-.4c-.1-.2-.2-.4-.4-.4zm0 1.3c-.2 0-.4.2-.4.4s.2.4.4.4.4-.2.4-.4c-.1-.2-.2-.4-.4-.4zm0 1.3c-.2 0-.4.2-.4.4s.2.4.4.4.4-.2.4-.4-.2-.4-.4-.4zm0 1.3c-.2 0-.4.2-.4.4s.2.4.4.4.4-.2.4-.4c-.1-.2-.2-.4-.4-.4zm0 1.3c-.2 0-.4.2-.4.4s.2.4.4.4.4-.2.4-.4c-.1-.3-.2-.4-.4-.4zm0 1.3c-.2 0-.4.2-.4.4s.2.4.4.4.4-.2.4-.4-.2-.4-.4-.4zm0 1.2c-.2 0-.4.2-.4.4s.2.4.4.4.4-.2.4-.4-.2-.4-.4-.4zm0 1.3c-.2 0-.4.2-.4.4s.2.4.4.4.4-.2.4-.4c-.1-.2-.2-.4-.4-.4zm0 1.3c-.2 0-.4.2-.4.4s.2.4.4.4.4-.2.4-.4c-.1-.2-.2-.4-.4-.4zm0 1.3c-.2 0-.4.2-.4.4s.2.4.4.4.4-.2.4-.4c-.1-.2-.2-.4-.4-.4zm0 1.3c-.2 0-.4.2-.4.4s.2.4.4.4.4-.2.4-.4c-.1-.3-.2-.4-.4-.4zm0 1.3c-.2 0-.4.2-.4.4s.2.4.4.4.4-.2.4-.4c-.1-.3-.2-.4-.4-.4zm0 1.2c-.2 0-.4.2-.4.4s.2.4.4.4.4-.2.4-.4-.2-.4-.4-.4zm0 1.3c-.2 0-.4.2-.4.4s.2.4.4.4.4-.2.4-.4-.2-.4-.4-.4zm1-19.8c-.2 0-.4.2-.4.4s.2.4.4.4.4-.2.4-.4-.2-.4-.4-.4zm0 1.3c-.2 0-.4.2-.4.4s.2.4.4.4.4-.2.4-.4c-.1-.2-.2-.4-.4-.4zm0 1.3c-.2 0-.4.2-.4.4s.2.4.4.4.4-.2.4-.4c-.1-.3-.2-.4-.4-.4zm0 1.3c-.2 0-.4.2-.4.4s.2.4.4.4.4-.2.4-.4c-.1-.3-.2-.4-.4-.4zm0 1.2c-.2 0-.4.2-.4.4s.2.4.4.4.4-.2.4-.4c-.1-.2-.2-.4-.4-.4zm0 1.3c-.2 0-.4.2-.4.4s.2.4.4.4.4-.2.4-.4c-.1-.2-.2-.4-.4-.4zm0 1.3c-.2 0-.4.2-.4.4s.2.4.4.4.4-.2.4-.4c-.1-.2-.2-.4-.4-.4zm0 1.3c-.2 0-.4.2-.4.4s.2.4.4.4.4-.2.4-.4-.2-.4-.4-.4zm0 1.3c-.2 0-.4.2-.4.4s.2.4.4.4.4-.2.4-.4c-.1-.3-.2-.4-.4-.4zm0 1.3c-.2 0-.4.2-.4.4s.2.4.4.4.4-.2.4-.4-.2-.4-.4-.4zm0 1.2c-.2 0-.4.2-.4.4s.2.4.4.4.4-.2.4-.4-.2-.4-.4-.4zm0 1.3c-.2 0-.4.2-.4.4s.2.4.4.4.4-.2.4-.4-.2-.4-.4-.4zm0 1.3c-.2 0-.4.2-.4.4s.2.4.4.4.4-.2.4-.4c-.1-.2-.2-.4-.4-.4zm0 1.3c-.2 0-.4.2-.4.4s.2.4.4.4.4-.2.4-.4c-.1-.2-.2-.4-.4-.4zm0 1.3c-.2 0-.4.2-.4.4s.2.4.4.4.4-.2.4-.4c-.1-.3-.2-.4-.4-.4zm0 1.3c-.2 0-.4.2-.4.4s.2.4.4.4.4-.2.4-.4c-.1-.3-.2-.4-.4-.4zm0 1.2c-.2 0-.4.2-.4.4s.2.4.4.4.4-.2.4-.4-.2-.4-.4-.4zm1-21.2c-.2 0-.4.2-.4.4s.2.4.4.4.4-.2.4-.4c-.1-.2-.2-.4-.4-.4zm0 1.3c-.2 0-.4.2-.4.4s.2.4.4.4.4-.2.4-.4c-.1-.3-.2-.4-.4-.4zm0 1.3c-.2 0-.4.2-.4.4s.2.4.4.4.4-.2.4-.4-.2-.4-.4-.4zm0 1.2c-.2 0-.4.2-.4.4s.2.4.4.4.4-.2.4-.4c-.1-.2-.2-.4-.4-.4zm0 1.3c-.2 0-.4.2-.4.4s.2.4.4.4.4-.2.4-.4c-.1-.2-.2-.4-.4-.4zm0 1.3c-.2 0-.4.2-.4.4s.2.4.4.4.4-.2.4-.4-.2-.4-.4-.4zm0 1.3c-.2 0-.4.2-.4.4s.2.4.4.4.4-.2.4-.4c-.1-.2-.2-.4-.4-.4zm0 1.3c-.2 0-.4.2-.4.4s.2.4.4.4.4-.2.4-.4c-.1-.3-.2-.4-.4-.4zm0 1.3c-.2 0-.4.2-.4.4s.2.4.4.4.4-.2.4-.4-.2-.4-.4-.4zm0 1.2c-.2 0-.4.2-.4.4s.2.4.4.4.4-.2.4-.4-.2-.4-.4-.4zm0 1.3c-.2 0-.4.2-.4.4s.2.4.4.4.4-.2.4-.4c-.1-.2-.2-.4-.4-.4zm0 1.3c-.2 0-.4.2-.4.4s.2.4.4.4.4-.2.4-.4c-.1-.2-.2-.4-.4-.4zm0 1.3c-.2 0-.4.2-.4.4s.2.4.4.4.4-.2.4-.4c-.1-.2-.2-.4-.4-.4zm0 1.3c-.2 0-.4.2-.4.4s.2.4.4.4.4-.2.4-.4c-.1-.3-.2-.4-.4-.4zm0 1.3c-.2 0-.4.2-.4.4s.2.4.4.4.4-.2.4-.4c-.1-.3-.2-.4-.4-.4zm0 1.2c-.2 0-.4.2-.4.4s.2.4.4.4.4-.2.4-.4-.2-.4-.4-.4zm0 1.3c-.2 0-.4.2-.4.4s.2.4.4.4.4-.2.4-.4-.2-.4-.4-.4zm1-19.8c-.2 0-.4.2-.4.4s.2.4.4.4.4-.2.4-.4-.2-.4-.4-.4zm0 1.3c-.2 0-.4.2-.4.4s.2.4.4.4.4-.2.4-.4c-.1-.2-.2-.4-.4-.4zm0 1.3c-.2 0-.4.2-.4.4s.2.4.4.4.4-.2.4-.4c-.1-.3-.2-.4-.4-.4zm0 1.3c-.2 0-.4.2-.4.4s.2.4.4.4.4-.2.4-.4c-.1-.3-.2-.4-.4-.4zm0 1.2c-.2 0-.4.2-.4.4s.2.4.4.4.4-.2.4-.4c-.1-.2-.2-.4-.4-.4zm0 1.3c-.2 0-.4.2-.4.4s.2.4.4.4.4-.2.4-.4c-.1-.2-.2-.4-.4-.4zm0 1.3c-.2 0-.4.2-.4.4s.2.4.4.4.4-.2.4-.4c-.1-.2-.2-.4-.4-.4zm0 1.3c-.2 0-.4.2-.4.4s.2.4.4.4.4-.2.4-.4-.2-.4-.4-.4zm0 1.3c-.2 0-.4.2-.4.4s.2.4.4.4.4-.2.4-.4c-.1-.3-.2-.4-.4-.4zm0 1.3c-.2 0-.4.2-.4.4s.2.4.4.4.4-.2.4-.4-.2-.4-.4-.4zm0 1.2c-.2 0-.4.2-.4.4s.2.4.4.4.4-.2.4-.4-.2-.4-.4-.4zm0 1.3c-.2 0-.4.2-.4.4s.2.4.4.4.4-.2.4-.4-.2-.4-.4-.4zm0 1.3c-.2 0-.4.2-.4.4s.2.4.4.4.4-.2.4-.4c-.1-.2-.2-.4-.4-.4zm0 1.3c-.2 0-.4.2-.4.4s.2.4.4.4.4-.2.4-.4c-.1-.2-.2-.4-.4-.4zm0 1.3c-.2 0-.4.2-.4.4s.2.4.4.4.4-.2.4-.4c-.1-.3-.2-.4-.4-.4zm0 1.3c-.2 0-.4.2-.4.4s.2.4.4.4.4-.2.4-.4c-.1-.3-.2-.4-.4-.4zm0 1.2c-.2 0-.4.2-.4.4s.2.4.4.4.4-.2.4-.4-.2-.4-.4-.4zm1-21.2c-.2 0-.4.2-.4.4s.2.4.4.4.4-.2.4-.4c-.1-.2-.2-.4-.4-.4zm0 1.3c-.2 0-.4.2-.4.4s.2.4.4.4.4-.2.4-.4c-.1-.3-.2-.4-.4-.4zm0 1.3c-.2 0-.4.2-.4.4s.2.4.4.4.4-.2.4-.4-.2-.4-.4-.4zm0 1.2c-.2 0-.4.2-.4.4s.2.4.4.4.4-.2.4-.4c-.1-.2-.2-.4-.4-.4zm0 1.3c-.2 0-.4.2-.4.4s.2.4.4.4.4-.2.4-.4c-.1-.2-.2-.4-.4-.4zm0 1.3c-.2 0-.4.2-.4.4s.2.4.4.4.4-.2.4-.4-.2-.4-.4-.4zm0 1.3c-.2 0-.4.2-.4.4s.2.4.4.4.4-.2.4-.4c-.1-.2-.2-.4-.4-.4zm0 1.3c-.2 0-.4.2-.4.4s.2.4.4.4.4-.2.4-.4c-.1-.3-.2-.4-.4-.4zm0 1.3c-.2 0-.4.2-.4.4s.2.4.4.4.4-.2.4-.4-.2-.4-.4-.4zm0 1.2c-.2 0-.4.2-.4.4s.2.4.4.4.4-.2.4-.4-.2-.4-.4-.4zm0 1.3c-.2 0-.4.2-.4.4s.2.4.4.4.4-.2.4-.4c-.1-.2-.2-.4-.4-.4zm0 1.3c-.2 0-.4.2-.4.4s.2.4.4.4.4-.2.4-.4c-.1-.2-.2-.4-.4-.4zm0 1.3c-.2 0-.4.2-.4.4s.2.4.4.4.4-.2.4-.4c-.1-.2-.2-.4-.4-.4zm0 1.3c-.2 0-.4.2-.4.4s.2.4.4.4.4-.2.4-.4c-.1-.3-.2-.4-.4-.4zm0 1.3c-.2 0-.4.2-.4.4s.2.4.4.4.4-.2.4-.4c-.1-.3-.2-.4-.4-.4zm0 1.2c-.2 0-.4.2-.4.4s.2.4.4.4.4-.2.4-.4-.2-.4-.4-.4zm0 1.3c-.2 0-.4.2-.4.4s.2.4.4.4.4-.2.4-.4-.2-.4-.4-.4zm1-19.8c-.2 0-.4.2-.4.4s.2.4.4.4.4-.2.4-.4-.2-.4-.4-.4zm0 1.3c-.2 0-.4.2-.4.4s.2.4.4.4.4-.2.4-.4c-.1-.2-.2-.4-.4-.4zm0 1.3c-.2 0-.4.2-.4.4s.2.4.4.4.4-.2.4-.4c-.1-.3-.2-.4-.4-.4zm0 1.3c-.2 0-.4.2-.4.4s.2.4.4.4.4-.2.4-.4c-.1-.3-.2-.4-.4-.4zm0 1.2c-.2 0-.4.2-.4.4s.2.4.4.4.4-.2.4-.4c-.1-.2-.2-.4-.4-.4zm0 1.3c-.2 0-.4.2-.4.4s.2.4.4.4.4-.2.4-.4c-.1-.2-.2-.4-.4-.4zm0 1.3c-.2 0-.4.2-.4.4s.2.4.4.4.4-.2.4-.4c-.1-.2-.2-.4-.4-.4zm0 1.3c-.2 0-.4.2-.4.4s.2.4.4.4.4-.2.4-.4-.2-.4-.4-.4zm0 1.3c-.2 0-.4.2-.4.4s.2.4.4.4.4-.2.4-.4c-.1-.3-.2-.4-.4-.4zm0 1.3c-.2 0-.4.2-.4.4s.2.4.4.4.4-.2.4-.4-.2-.4-.4-.4zm0 1.2c-.2 0-.4.2-.4.4s.2.4.4.4.4-.2.4-.4-.2-.4-.4-.4zm0 1.3c-.2 0-.4.2-.4.4s.2.4.4.4.4-.2.4-.4-.2-.4-.4-.4zm0 1.3c-.2 0-.4.2-.4.4s.2.4.4.4.4-.2.4-.4c-.1-.2-.2-.4-.4-.4zm0 1.3c-.2 0-.4.2-.4.4s.2.4.4.4.4-.2.4-.4c-.1-.2-.2-.4-.4-.4zm0 1.3c-.2 0-.4.2-.4.4s.2.4.4.4.4-.2.4-.4c-.1-.3-.2-.4-.4-.4zm0 1.3c-.2 0-.4.2-.4.4s.2.4.4.4.4-.2.4-.4c-.1-.3-.2-.4-.4-.4zm0 1.2c-.2 0-.4.2-.4.4s.2.4.4.4.4-.2.4-.4-.2-.4-.4-.4zm1-21.2c-.2 0-.4.2-.4.4s.2.4.4.4.4-.2.4-.4c-.1-.2-.2-.4-.4-.4zm0 1.3c-.2 0-.4.2-.4.4s.2.4.4.4.4-.2.4-.4c-.1-.3-.2-.4-.4-.4zm0 1.3c-.2 0-.4.2-.4.4s.2.4.4.4.4-.2.4-.4-.2-.4-.4-.4zm0 1.2c-.2 0-.4.2-.4.4s.2.4.4.4.4-.2.4-.4c-.1-.2-.2-.4-.4-.4zm0 1.3c-.2 0-.4.2-.4.4s.2.4.4.4.4-.2.4-.4c-.1-.2-.2-.4-.4-.4zm0 1.3c-.2 0-.4.2-.4.4s.2.4.4.4.4-.2.4-.4-.2-.4-.4-.4zm0 1.3c-.2 0-.4.2-.4.4s.2.4.4.4.4-.2.4-.4c-.1-.2-.2-.4-.4-.4zm0 1.3c-.2 0-.4.2-.4.4s.2.4.4.4.4-.2.4-.4c-.1-.3-.2-.4-.4-.4zm0 1.3c-.2 0-.4.2-.4.4s.2.4.4.4.4-.2.4-.4-.2-.4-.4-.4zm0 1.2c-.2 0-.4.2-.4.4s.2.4.4.4.4-.2.4-.4-.2-.4-.4-.4zm0 1.3c-.2 0-.4.2-.4.4s.2.4.4.4.4-.2.4-.4c-.1-.2-.2-.4-.4-.4zm0 1.3c-.2 0-.4.2-.4.4s.2.4.4.4.4-.2.4-.4c-.1-.2-.2-.4-.4-.4zm0 1.3c-.2 0-.4.2-.4.4s.2.4.4.4.4-.2.4-.4c-.1-.2-.2-.4-.4-.4zm0 1.3c-.2 0-.4.2-.4.4s.2.4.4.4.4-.2.4-.4c-.1-.3-.2-.4-.4-.4zm0 1.3c-.2 0-.4.2-.4.4s.2.4.4.4.4-.2.4-.4c-.1-.3-.2-.4-.4-.4zm0 1.2c-.2 0-.4.2-.4.4s.2.4.4.4.4-.2.4-.4-.2-.4-.4-.4zm0 1.3c-.2 0-.4.2-.4.4s.2.4.4.4.4-.2.4-.4-.2-.4-.4-.4zm1-19.8c-.2 0-.4.2-.4.4s.2.4.4.4.4-.2.4-.4-.2-.4-.4-.4zm0 1.3c-.2 0-.4.2-.4.4s.2.4.4.4.4-.2.4-.4c-.1-.2-.2-.4-.4-.4zm0 1.3c-.2 0-.4.2-.4.4s.2.4.4.4.4-.2.4-.4c-.1-.3-.2-.4-.4-.4zm0 1.3c-.2 0-.4.2-.4.4s.2.4.4.4.4-.2.4-.4c-.1-.3-.2-.4-.4-.4zm0 1.2c-.2 0-.4.2-.4.4s.2.4.4.4.4-.2.4-.4c-.1-.2-.2-.4-.4-.4zm0 1.3c-.2 0-.4.2-.4.4s.2.4.4.4.4-.2.4-.4c-.1-.2-.2-.4-.4-.4zm0 1.3c-.2 0-.4.2-.4.4s.2.4.4.4.4-.2.4-.4c-.1-.2-.2-.4-.4-.4zm0 1.3c-.2 0-.4.2-.4.4s.2.4.4.4.4-.2.4-.4-.2-.4-.4-.4zm0 1.3c-.2 0-.4.2-.4.4s.2.4.4.4.4-.2.4-.4c-.1-.3-.2-.4-.4-.4zm0 1.3c-.2 0-.4.2-.4.4s.2.4.4.4.4-.2.4-.4-.2-.4-.4-.4zm0 1.2c-.2 0-.4.2-.4.4s.2.4.4.4.4-.2.4-.4-.2-.4-.4-.4zm0 1.3c-.2 0-.4.2-.4.4s.2.4.4.4.4-.2.4-.4-.2-.4-.4-.4zm0 1.3c-.2 0-.4.2-.4.4s.2.4.4.4.4-.2.4-.4c-.1-.2-.2-.4-.4-.4zm0 1.3c-.2 0-.4.2-.4.4s.2.4.4.4.4-.2.4-.4c-.1-.2-.2-.4-.4-.4zm0 1.3c-.2 0-.4.2-.4.4s.2.4.4.4.4-.2.4-.4c-.1-.3-.2-.4-.4-.4zm0 1.3c-.2 0-.4.2-.4.4s.2.4.4.4.4-.2.4-.4c-.1-.3-.2-.4-.4-.4zm0 1.2c-.2 0-.4.2-.4.4s.2.4.4.4.4-.2.4-.4-.2-.4-.4-.4zm1-21.2c-.2 0-.4.2-.4.4s.2.4.4.4.4-.2.4-.4c-.1-.2-.2-.4-.4-.4zm0 1.3c-.2 0-.4.2-.4.4s.2.4.4.4.4-.2.4-.4c-.1-.3-.2-.4-.4-.4zm0 1.3c-.2 0-.4.2-.4.4s.2.4.4.4.4-.2.4-.4-.2-.4-.4-.4zm0 1.2c-.2 0-.4.2-.4.4s.2.4.4.4.4-.2.4-.4c-.1-.2-.2-.4-.4-.4zm0 1.3c-.2 0-.4.2-.4.4s.2.4.4.4.4-.2.4-.4c-.1-.2-.2-.4-.4-.4zm0 1.3c-.2 0-.4.2-.4.4s.2.4.4.4.4-.2.4-.4-.2-.4-.4-.4zm0 1.3c-.2 0-.4.2-.4.4s.2.4.4.4.4-.2.4-.4c-.1-.2-.2-.4-.4-.4zm0 1.3c-.2 0-.4.2-.4.4s.2.4.4.4.4-.2.4-.4c-.1-.3-.2-.4-.4-.4zm0 1.3c-.2 0-.4.2-.4.4s.2.4.4.4.4-.2.4-.4-.2-.4-.4-.4zm0 1.2c-.2 0-.4.2-.4.4s.2.4.4.4.4-.2.4-.4-.2-.4-.4-.4zm0 1.3c-.2 0-.4.2-.4.4s.2.4.4.4.4-.2.4-.4c-.1-.2-.2-.4-.4-.4zm0 1.3c-.2 0-.4.2-.4.4s.2.4.4.4.4-.2.4-.4c-.1-.2-.2-.4-.4-.4zm0 1.3c-.2 0-.4.2-.4.4s.2.4.4.4.4-.2.4-.4c-.1-.2-.2-.4-.4-.4zm0 1.3c-.2 0-.4.2-.4.4s.2.4.4.4.4-.2.4-.4c-.1-.3-.2-.4-.4-.4zm0 1.3c-.2 0-.4.2-.4.4s.2.4.4.4.4-.2.4-.4c-.1-.3-.2-.4-.4-.4zm0 1.2c-.2 0-.4.2-.4.4s.2.4.4.4.4-.2.4-.4-.2-.4-.4-.4zm0 1.3c-.2 0-.4.2-.4.4s.2.4.4.4.4-.2.4-.4-.2-.4-.4-.4z"/></g></g><path d="M122 36l-2-.1c-.2 0-.3-.2-.3-.4s.2-.3.4-.3c0 0 4.8.4 8-.8.2-.1.4 0 .5.2.1.2 0 .4-.2.5-2.1.8-4.6.9-6.4.9z"/><path fill="#332e2b" d="M129.6 32.6c-.6 0-1.1-.1-1.7-.4l-1.2-.6a2 2 0 0 0-1-.3l-1.2-.1h-1.1c-.5.1-1.1.1-1.6 0a2 2 0 0 0-1.1 0l-1.2.1c-.4 0-.7.1-1 .3l-.8.4-.1.1c-.3.2-3 1.3-4.9-.8l-3-3.4.4-.4 3 3.4c1.4 1.6 3.3 1 3.9.8l1.2-.6 1.2-.4 1.2-.1c.4-.1.9 0 1.3.1h1.4l1.3-.1 1.2.1 1.2.4 1.2.6c1.3.6 2.9.3 3.9-.8l3-3.4.4.4-3 3.4c-.8.9-1.9 1.3-2.9 1.3z"/><path d="M138.1 15.6c0-2.7-.7-5.3-1.9-7.5a17 17 0 0 1-.5 11.5 17 17 0 0 0-1.3 6.7v.2c0 7.9-4.4 15.7-10.2 17 6.3-.8 11.1-6.6 11.1-14.5v-.2c0-2.3.5-4.6 1.4-6.7 1-2 1.4-4.2 1.4-6.5zm-27.4 10.8s0-.1 0 0c0-2.4-.5-4.7-1.3-6.9-.8-2-1.3-4.2-1.2-6.5 0-1.7.3-3.3.8-4.9a15.3 15.3 0 0 0-1.9 7.3c0 2.3.5 4.5 1.3 6.5 1 2.2 1.5 4.5 1.5 6.8v.1c0 8 4.9 13.7 11.1 14.5-5.8-1.2-10.3-9-10.3-16.9zm10.2 17l1.6.2 1.6-.2-1.6.1-1.6-.1z" opacity=".3"/><path d="M120.9 27c.2-.3.5-.5.8-.6a3 3 0 0 1 1-.2l1 .2c.3.1.6.3.8.6.1.1.1.3 0 .4h-.3l-.7-.3-.7-.1-.7.1-.7.3c-.1.1-.3 0-.4-.1-.2-.1-.2-.2-.1-.3zm3.2 2.5h1.9c.1-.3-.1-.6-.3-.8h-.9l-.8.5-.2.2.3.1zm-2.8 0h-1.9c-.1-.3.1-.6.3-.8h.9l.8.5.2.2-.3.1z"/><path id="IuGHRM.tif_3_" d="M108 19.7c.1-.2.5-.2.7-.2l2.8-.6c1.5-.3 2.9-.3 4.4-.2 1.9.1 3.8.5 5.6.8.9.2 1.7.1 2.6-.1a31 31 0 0 1 7.4-.7c1.4 0 2.7.3 4 .6l1.1.2c.3.1.4.2.4.5s-.2.6-.5.8a3 3 0 0 0-1.3 2.6l-.2 1.7a3.9 3.9 0 0 1-2.9 2.9c-1.7.5-3.4.5-5.1.1-1.7-.4-2.7-1.6-3-3.3l-.3-2.2-.1-.3c-.2-.8-1.1-1.2-1.8-.7-.2.1-.4.4-.5.7a79 79 0 0 0-.3 1.9l-.4 1.5a4.1 4.1 0 0 1-2.8 2.5c-1.7.4-3.4.4-5.1-.1-1.8-.5-2.8-1.7-3-3.6l-.1-1.3c0-.9-.4-1.6-1.1-2.2-.3-.2-.5-.5-.6-.9l.1-.4zm22 .2h-1.6c-.7 0-1.4.2-2 .5a2 2 0 0 0-1.1 1.5c-.2 1-.1 2 .2 2.9.4 1.1 1.1 1.8 2.2 2 .8.2 1.6.2 2.4.2a7 7 0 0 0 2.7-.8c.7-.5 1.2-1.1 1.3-1.9v-2.8c0-.5-.3-.8-.7-1.1l-.9-.4-2.5-.1zm-14.8 0h-.7l-2.1.3c-1 .2-1.4.8-1.4 1.9V24l.1.8c.3 1 1 1.6 2 2 1.3.5 2.7.5 4.1.3 1.3-.2 2.1-1 2.5-2.2.3-.9.3-1.8.2-2.7-.1-.7-.4-1.2-1-1.5l-1-.4c-.9-.4-2.7-.5-2.7-.4z"/><path id="IuGHRM.tif_2_" fill="#a8e8ff" d="M130 19.9h-1.6c-.7 0-1.4.2-2 .5a2 2 0 0 0-1.1 1.5c-.2 1-.1 2 .2 2.9.4 1.1 1.1 1.8 2.2 2 .8.2 1.6.2 2.4.2a7 7 0 0 0 2.7-.8c.7-.5 1.2-1.1 1.3-1.9v-2.8c0-.5-.3-.8-.7-1.1l-.9-.4-2.5-.1zm-14.8 0h-.7l-2.1.3c-1 .2-1.4.8-1.4 1.9V24l.1.8c.3 1 1 1.6 2 2 1.3.5 2.7.5 4.1.3 1.3-.2 2.1-1 2.5-2.2.3-.9.3-1.8.2-2.7-.1-.7-.4-1.2-1-1.5l-1-.4c-.9-.4-2.7-.5-2.7-.4z"/><g class="st15"><defs><path id="SVGID_3_" d="M130 19.9h-1.6c-.7 0-1.4.2-2 .5a2 2 0 0 0-1.1 1.5c-.2 1-.1 2 .2 2.9.4 1.1 1.1 1.8 2.2 2 .8.2 1.6.2 2.4.2a7 7 0 0 0 2.7-.8c.7-.5 1.2-1.1 1.3-1.9v-2.8c0-.5-.3-.8-.7-1.1l-.9-.4-2.5-.1zm-14.8 0h-.7l-2.1.3c-1 .2-1.4.8-1.4 1.9V24l.1.8c.3 1 1 1.6 2 2 1.3.5 2.7.5 4.1.3 1.3-.2 2.1-1 2.5-2.2.3-.9.3-1.8.2-2.7-.1-.7-.4-1.2-1-1.5l-1-.4c-.9-.4-2.7-.5-2.7-.4z" class="st15"/></defs><clipPath id="SVGID_4_"><use overflow="visible" xlink:href="#SVGID_3_"/></clipPath><g clip-path="url(#SVGID_4_)"><path d="M113.4 18.3h2v10.8h-2z" class="st17" transform="rotate(-32.6 114.4 23.7)"/><path d="M115.7 17h.7v10.8h-.7z" class="st17" transform="rotate(-32.6 116 22.5)"/><path d="M127.7 18.3h2v10.8h-2z" class="st17" transform="rotate(-32.6 128.7 23.7)"/><path d="M129.9 17h.7v10.8h-.7z" class="st17" transform="rotate(-32.6 130.3 22.5)"/></g></g><g class="st18"><path d="M116.8 11.5h12.4s-8.9-1-12.4 0z" class="st19"/></g><g class="st18"><path d="M119.8 13h6.2s-4.5-.7-6.2 0z" class="st19"/></g><g class="st20"><ellipse cx="122.3" cy="4.3" class="st17" rx="5.5" ry="1.9"/></g><g class="st20"><ellipse cx="118" cy="7" class="st17" rx="1.8" ry=".6"/></g><g class="st21"><path d="M112.3 18.1c.9-.1 3.2-.4 5.5 0 .1 0 .2-.1.1-.2a6 6 0 0 0-5.6 0c-.2.1-.1.2 0 .2z" class="st22"/></g><g class="st21"><path d="M132.9 18.1c-.9-.1-3.2-.4-5.5 0-.1 0-.2-.1-.1-.2a6 6 0 0 1 5.6 0c.1.1.1.2 0 .2z" class="st22"/></g><path d="M166.1 33.4c-.4.9-1.1 1.5-1.9 1.5-.9 0-1.6-.5-1.9-1.5l-3-7.6-.1-.1-.1.1-3 7.7c-.3.9-1.1 1.5-1.9 1.5-.9 0-1.6-.5-1.9-1.5l-5.7-14.8c1.2-.5 2.5.1 3 1.3l4.6 12 3.6-9.4c.2-.5.8-.8 1.5-.8s1.3.4 1.5.9l3.6 9.3 4.6-12c.4-1.1 1.8-1.7 3-1.3l-5.9 14.7zm8.8 1.5c-1.3 0-2.4-1-2.4-2.3V18.4c1.3 0 2.4 1 2.4 2.3v14.2zm14.2-1.2a11 11 0 0 1-5.3 1.2c-2 0-3.8-.4-5.3-1.2-1.4-.7-2.3-1.8-2.5-2.9.9-.5 2-.5 2.8.2a8 8 0 0 0 5 1.5c3 0 5.1-1.1 5.4-2 .1-.4 0-1.1-.3-1.4-.7-1-2.4-1.4-5.6-1.8-1.7-.2-3.4-.4-4.7-1-2.2-.9-2.7-2.5-2.7-3.7 0-1.3.9-2.5 2.6-3.3a12 12 0 0 1 5.2-1c1.9 0 3.8.3 5.2 1 1.3.6 2.2 1.4 2.5 2.4-.8.6-1.9.8-2.8.2a9.7 9.7 0 0 0-5-1.2c-3.4 0-5.3 1.2-5.5 1.8-.1.4.1.8.4 1.1.7.7 2.2 1 5 1.3 1.8.2 3.6.4 5.1 1.1 1.9.8 2.9 2.2 2.9 4.2.2 1.4-.8 2.7-2.4 3.5zm16.6 0a11 11 0 0 1-5.3 1.2c-2 0-3.8-.4-5.3-1.2-1.4-.7-2.3-1.8-2.5-2.9.9-.5 2-.5 2.8.2a8 8 0 0 0 5 1.5c3 0 5.1-1.1 5.4-2 .1-.4 0-1.1-.3-1.4-.7-1-2.4-1.4-5.6-1.8-1.7-.2-3.4-.4-4.7-1-2.2-.9-2.7-2.5-2.7-3.7 0-1.3.9-2.5 2.6-3.3a12 12 0 0 1 5.2-1c1.9 0 3.8.3 5.2 1 1.3.6 2.2 1.4 2.5 2.4-.8.6-1.9.8-2.8.2a9.7 9.7 0 0 0-5-1.2c-3.4 0-5.3 1.2-5.5 1.8-.1.4.1.8.4 1.1.7.7 2.2 1 5 1.3 1.8.2 3.6.4 5.1 1.1 1.9.8 2.9 2.2 2.9 4.2.2 1.4-.7 2.7-2.4 3.5zm16.9-12.9h-10c-.1 0-.3.1-.3.3v4h10.8c0 1.2-1 2.3-2.3 2.3h-8.5v4.7c0 .1.1.3.3.3h9.6c1.3 0 2.3 1 2.4 2.3h-12.2c-1.3 0-2.4-1-2.4-2.3V20.8c0-1.3 1.1-2.3 2.3-2.3h12.5c0 1.3-1 2.3-2.2 2.3zm16.2 13.4l-4.7-5.7h-4.8v-.3a2.3 2.3 0 0 1 2.2-2.1h3.2c1.5 0 2.7-.2 3.5-.7.8-.4 1.1-1.1 1.1-2 0-.6 0-2.6-4.6-2.6h-5.8c-.1 0-.3.1-.3.3v11.4c0 1.3-1.1 2.3-2.4 2.3V20.7c0-1.2 1-2.2 2.2-2.2h6.2c6 0 7 3.1 7 4.9 0 1.8-.8 3.2-2.3 4-.7.4-1.5.7-2.4.8l5 6c-.9.9-2.3.9-3.1 0zM14.9 22.9a7 7 0 0 0-5.2-2.2C6 20.7 3 23.4 3 26.6c0 3.3 3 6 6.7 6 1.8 0 3.4-.7 4.7-1.7.9-.7 2.1-.7 3 0a7 7 0 0 1-2.6 2.5 9.2 9.2 0 0 1-5.1 1.5c-5 0-9-3.7-9-8.3s4-8.3 9-8.3c3.5 0 6.7 1.9 8.2 4.9-1 .7-2.2.6-3-.3zm16.6 11.3l-4.7-5.7H22v-.3a2.3 2.3 0 0 1 2.2-2.1h3.2c1.5 0 2.7-.2 3.5-.7.8-.4 1.1-1.1 1.1-2 0-.6 0-2.6-4.6-2.6h-5.8c-.1 0-.3.1-.3.3v11.4c0 1.3-1.1 2.3-2.4 2.3V20.7c0-1.2 1-2.2 2.2-2.2h6.2c6 0 7 3.1 7 4.9 0 1.8-.8 3.2-2.3 4-.7.4-1.5.7-2.4.8l4.6 6c-.9.9-2 .9-2.7 0zm12.8-4.7v5.4h-.1c-1.2 0-2.3-1-2.3-2.2v-3.2L33.6 19c1-.8 2.4-.7 3.2.2l6.3 8 6.3-7.9c.8-1 2.2-1 3.2-.2l-8.3 10.4zm21.1-2c-1.2.7-2.7 1-4.7 1H56c0-1.3 1-2.4 2.3-2.4h2.5c1.5 0 2.7-.2 3.5-.7.8-.4 1.1-1.1 1.1-2 0-.6 0-2.6-4.6-2.6h-5.1c-.2 0-.3.1-.3.3v11.4c0 1.3-1.1 2.3-2.4 2.3V20.7c0-1.2 1-2.2 2.2-2.2h5.5c6.1 0 7 3.1 7 4.9 0 1.8-.8 3.2-2.3 4.1z" class="st17"/><path d="M79.3 20.9h-3.9v14h-.1a2.3 2.3 0 0 1-2.3-2.4V20.9h-3.9a2.3 2.3 0 0 1-2.3-2.3h14.9c0 1.2-1 2.3-2.4 2.3zm10 14.1c-5 0-9.2-3.8-9.2-8.4 0-4.7 4.1-8.4 9.2-8.4s9.2 3.8 9.2 8.4c0 4.6-4.1 8.4-9.2 8.4zm0-14.5c-3.8 0-6.8 2.7-6.8 6.1 0 3.3 3 6.1 6.8 6.1s6.8-2.7 6.8-6.1c0-3.4-3-6.1-6.8-6.1z" class="st17"/></svg>