<svg xmlns="http://www.w3.org/2000/svg" width="177" height="40" viewBox="0 0 177 40" fill="none"><g id="logo"><g id="icon"><path id="Vector" fill-rule="evenodd" clip-rule="evenodd" d="M40.988 19.9938C40.9944 23.6325 39.9791 27.2033 38.0526 30.3178L34.7528 25.8051C35.543 23.965 35.9485 21.9892 35.9457 19.9938C35.9456 18.9797 35.8416 17.9681 35.6354 16.9742C35.6155 16.8797 35.5955 16.7879 35.5728 16.6962V16.6628C35.5471 16.5627 35.5244 16.4598 35.4959 16.3597C35.4674 16.2596 35.456 16.1957 35.4332 16.1178C35.382 15.9343 35.3307 15.748 35.271 15.5617L35.2197 15.3977L35.1941 15.317C35.1371 15.1502 35.0774 14.9834 35.0147 14.8138C34.972 14.697 34.9265 14.583 34.8809 14.469C34.8353 14.355 34.7869 14.241 34.7385 14.1298C34.6901 14.0185 34.6389 13.9045 34.5877 13.7933C34.4852 13.5709 34.377 13.3512 34.2602 13.1343C34.2147 13.0398 34.1634 12.9425 34.1093 12.8563C34.1093 12.8563 34.0951 12.8341 34.0894 12.8202C34.0837 12.8063 34.0894 12.8202 34.0894 12.8063C34.0353 12.7034 33.9755 12.6005 33.9129 12.4976C33.8502 12.3947 33.7905 12.2891 33.7221 12.1834C33.5855 11.961 33.4374 11.7385 33.2894 11.5217C32.4691 10.3373 31.4775 9.27527 30.3454 8.36858C30.2572 8.29629 30.1661 8.22677 30.075 8.15726C29.9839 8.08775 29.8586 7.99043 29.7475 7.91258C29.6365 7.83472 29.5482 7.76521 29.4486 7.69848C29.3489 7.63175 29.2635 7.5678 29.1639 7.50662C29.0557 7.43155 28.9447 7.36204 28.8308 7.29253L28.5973 7.14794L28.3667 7.01169C26.3876 5.87718 24.1758 5.18483 21.8902 4.98435C19.6046 4.78388 17.3019 5.08027 15.1475 5.85223C14.0086 6.26652 11.6228 7.65955 11.5288 7.7235L8.58203 3.70568L8.96354 3.461C9.96098 2.79745 11.0166 2.22149 12.1182 1.73987C14.9239 0.518106 17.9746 -0.0731843 21.0454 0.00958599C24.1163 0.0923563 27.129 0.847076 29.8614 2.21812C30.055 2.31544 30.2458 2.41553 30.4308 2.51841L30.7156 2.67968L30.9832 2.83539L31.248 2.9911C31.4359 3.1051 31.6209 3.22188 31.8174 3.34144L32.0309 3.48046L32.3384 3.689L32.6573 3.917L32.831 4.04212C32.9306 4.1172 33.0303 4.18949 33.1157 4.26735C33.3748 4.46476 33.6282 4.66774 33.8759 4.87905C34.1236 5.09037 34.3656 5.30447 34.6047 5.52413L34.9549 5.86057C35.0717 5.97457 35.1855 6.08857 35.2994 6.20535C35.5158 6.42501 35.7236 6.65023 35.9286 6.88101C36.0169 6.97833 36.1023 7.07843 36.1849 7.17575C36.2675 7.27306 36.3557 7.37594 36.4383 7.47882C36.5208 7.5817 36.5749 7.64287 36.6404 7.72628L36.8397 7.97931L37.0333 8.2379C37.1159 8.34633 37.1956 8.45477 37.2725 8.56599C37.3494 8.67721 37.4262 8.78843 37.5031 8.89965C37.5458 8.95804 37.5828 9.01643 37.6227 9.07482C37.6625 9.13321 37.7052 9.19161 37.7394 9.25278L37.9245 9.53083C38.0127 9.66707 38.0982 9.80888 38.1807 9.94512C38.2633 10.0814 38.3003 10.1481 38.3572 10.251C38.4142 10.3539 38.4768 10.4539 38.5338 10.5596L38.548 10.5846C38.5526 10.5954 38.5583 10.6056 38.5651 10.6152C38.5689 10.628 38.5747 10.6402 38.5822 10.6514C38.5887 10.6649 38.5963 10.6779 38.6049 10.6903L38.7644 10.9934L38.7872 11.0351C38.8469 11.1519 38.9067 11.2686 38.9637 11.3854C39.0206 11.5022 39.0861 11.644 39.1487 11.7719L39.3224 12.0805C39.3708 12.1862 39.4135 12.2891 39.4591 12.3947L39.5701 12.6728C39.6214 12.797 39.6698 12.9221 39.7153 13.0482C39.7311 13.0805 39.7444 13.114 39.7552 13.1483C39.8093 13.2901 39.8605 13.4263 39.9089 13.5764C40.0171 13.8851 40.1168 14.1993 40.2107 14.5163C40.2534 14.6636 40.2933 14.811 40.3331 14.9611C40.336 14.9721 40.336 14.9836 40.3331 14.9945C40.4186 15.3143 40.4926 15.6368 40.5638 15.9621C40.5979 16.1234 40.6292 16.2847 40.6577 16.4459C40.6577 16.4459 40.6577 16.4876 40.6577 16.5127C40.6833 16.6517 40.7061 16.7907 40.7289 16.9353C40.7517 17.0799 40.7744 17.255 40.8001 17.4108V17.4358C40.8228 17.6026 40.8399 17.7722 40.8599 17.939C40.8912 18.2505 40.9168 18.5619 40.9339 18.8789C40.9766 19.2514 40.988 19.6212 40.988 19.9938Z" fill="#23272E"></path><path id="Vector_2" d="M35.4819 33.6438C34.5505 34.6178 33.5213 35.4981 32.4099 36.2714C31.2984 37.0467 30.111 37.7126 28.8652 38.2594C24.8644 40.006 20.3958 40.4545 16.1149 39.5392C11.834 38.6238 7.96607 36.3927 5.07866 33.1733C2.19126 29.9538 0.436304 25.9154 0.0712614 21.6505C-0.293781 17.3856 0.750301 13.1187 3.05034 9.47572C3.14145 9.32835 3.23825 9.19767 3.33505 9.03918C3.43185 8.88069 3.52866 8.76113 3.61976 8.6082C3.97281 8.10771 4.35242 7.62576 4.75861 7.16234C4.83549 7.07059 4.91521 6.97883 5.00062 6.88429C5.03858 6.8398 5.07844 6.79532 5.1202 6.75083C5.20846 6.65073 5.29957 6.55341 5.40491 6.4561L5.51025 6.34766L8.45987 10.4127L8.49689 10.4628C8.42855 10.5434 8.36022 10.6268 8.29759 10.713C8.2272 10.7927 8.1616 10.8762 8.10114 10.9633C5.89121 13.8458 4.8101 17.4054 5.05322 20.9985C5.29635 24.5916 6.84766 27.9813 9.42677 30.5548C12.0059 33.1282 15.4426 34.7158 19.1157 35.0304C22.7889 35.345 26.4561 34.366 29.4546 32.2702L27.7463 29.9318L24.8166 25.9279C25.9878 25.107 26.8929 23.975 27.4246 22.6664C27.8687 21.5599 28.0294 20.3642 27.8928 19.1832C27.7561 18.0022 27.3263 16.8716 26.6405 15.8898C25.9547 14.9079 25.0338 14.1045 23.9578 13.5493C22.8818 12.9941 21.6832 12.7038 20.4662 12.7039C20.3608 12.7039 20.2498 12.7039 20.1445 12.7039H20.1302C18.6965 12.7677 17.3126 13.2372 16.1471 14.0552L13.2231 10.0485C14.3472 9.26147 15.5982 8.66374 16.9244 8.2801C18.0793 7.9441 19.2781 7.77364 20.4833 7.77405C20.8591 7.77405 21.2264 7.79073 21.5908 7.82132C24.7054 8.09409 27.6029 9.49459 29.7139 11.7476C31.8249 14.0006 32.9968 16.9432 32.9992 19.9971C32.9992 22.5373 32.187 25.0142 30.676 27.0818L32.464 29.5259L35.4819 33.6438Z" fill="#0059FF"></path><path id="Vector_3" fill-rule="evenodd" clip-rule="evenodd" d="M24.8238 25.9116C24.0286 26.4815 23.1254 26.8916 22.1667 27.118C21.2079 27.3443 20.2127 27.3826 19.2387 27.2304C18.2647 27.0783 17.3314 26.7388 16.4928 26.2317C15.6542 25.7245 14.9271 25.0598 14.3535 24.2761C13.78 23.4924 13.3716 22.6052 13.1519 21.6662C12.9321 20.7271 12.9055 19.7547 13.0736 18.8055C13.2416 17.8563 13.6009 16.9492 14.1308 16.1367C14.6606 15.3241 15.3503 14.6224 16.16 14.0723L24.8238 25.9116Z" fill="#23272E"></path></g><g id="Cryptopolitan"><path d="M48.9688 20.664C48.9688 19.416 49.2386 18.306 49.7782 17.334C50.3179 16.35 51.0675 15.588 52.0269 15.048C52.9983 14.496 54.0956 14.22 55.3188 14.22C56.8179 14.22 58.1011 14.616 59.1684 15.408C60.2358 16.2 60.9493 17.28 61.3091 18.648H57.9272C57.6754 18.12 57.3156 17.718 56.8479 17.442C56.3922 17.166 55.8705 17.028 55.2828 17.028C54.3354 17.028 53.5679 17.358 52.9803 18.018C52.3926 18.678 52.0988 19.56 52.0988 20.664C52.0988 21.768 52.3926 22.65 52.9803 23.31C53.5679 23.97 54.3354 24.3 55.2828 24.3C55.8705 24.3 56.3922 24.162 56.8479 23.886C57.3156 23.61 57.6754 23.208 57.9272 22.68H61.3091C60.9493 24.048 60.2358 25.128 59.1684 25.92C58.1011 26.7 56.8179 27.09 55.3188 27.09C54.0956 27.09 52.9983 26.82 52.0269 26.28C51.0675 25.728 50.3179 24.966 49.7782 23.994C49.2386 23.022 48.9688 21.912 48.9688 20.664Z" fill="#23272E"></path><path d="M66.269 18.63C66.6287 18.078 67.0785 17.646 67.6181 17.334C68.1578 17.01 68.7574 16.848 69.417 16.848V20.106H68.5715C67.804 20.106 67.2284 20.274 66.8446 20.61C66.4608 20.934 66.269 21.51 66.269 22.338V27H63.1929V16.956H66.269V18.63Z" fill="#23272E"></path><path d="M81.141 16.956L74.8449 31.77H71.5349L73.8375 26.658L69.754 16.956H73.1899L75.5105 23.238L77.813 16.956H81.141Z" fill="#23272E"></path><path d="M85.3294 18.378C85.6292 17.91 86.043 17.532 86.5707 17.244C87.0983 16.956 87.7159 16.812 88.4235 16.812C89.251 16.812 90.0005 17.022 90.6721 17.442C91.3437 17.862 91.8714 18.462 92.2551 19.242C92.6509 20.022 92.8488 20.928 92.8488 21.96C92.8488 22.992 92.6509 23.904 92.2551 24.696C91.8714 25.476 91.3437 26.082 90.6721 26.514C90.0005 26.934 89.251 27.144 88.4235 27.144C87.7279 27.144 87.1103 27 86.5707 26.712C86.043 26.424 85.6292 26.052 85.3294 25.596V31.788H82.2533V16.956H85.3294V18.378ZM89.7187 21.96C89.7187 21.192 89.5028 20.592 89.0711 20.16C88.6514 19.716 88.1297 19.494 87.5061 19.494C86.8945 19.494 86.3728 19.716 85.941 20.16C85.5213 20.604 85.3114 21.21 85.3114 21.978C85.3114 22.746 85.5213 23.352 85.941 23.796C86.3728 24.24 86.8945 24.462 87.5061 24.462C88.1177 24.462 88.6394 24.24 89.0711 23.796C89.5028 23.34 89.7187 22.728 89.7187 21.96Z" fill="#23272E"></path><path d="M100.057 24.39V27H98.4921C97.3768 27 96.5073 26.73 95.8837 26.19C95.2601 25.638 94.9483 24.744 94.9483 23.508V19.512H93.725V16.956H94.9483V14.508H98.0244V16.956H100.039V19.512H98.0244V23.544C98.0244 23.844 98.0963 24.06 98.2402 24.192C98.3841 24.324 98.624 24.39 98.9598 24.39H100.057Z" fill="#23272E"></path><path d="M106.34 27.144C105.356 27.144 104.469 26.934 103.677 26.514C102.898 26.094 102.28 25.494 101.825 24.714C101.381 23.934 101.159 23.022 101.159 21.978C101.159 20.946 101.387 20.04 101.842 19.26C102.298 18.468 102.922 17.862 103.713 17.442C104.505 17.022 105.392 16.812 106.376 16.812C107.359 16.812 108.247 17.022 109.038 17.442C109.83 17.862 110.453 18.468 110.909 19.26C111.365 20.04 111.592 20.946 111.592 21.978C111.592 23.01 111.359 23.922 110.891 24.714C110.435 25.494 109.806 26.094 109.002 26.514C108.211 26.934 107.323 27.144 106.34 27.144ZM106.34 24.48C106.927 24.48 107.425 24.264 107.833 23.832C108.253 23.4 108.462 22.782 108.462 21.978C108.462 21.174 108.259 20.556 107.851 20.124C107.455 19.692 106.963 19.476 106.376 19.476C105.776 19.476 105.278 19.692 104.883 20.124C104.487 20.544 104.289 21.162 104.289 21.978C104.289 22.782 104.481 23.4 104.865 23.832C105.26 24.264 105.752 24.48 106.34 24.48Z" fill="#23272E"></path><path d="M116.3 18.378C116.6 17.91 117.014 17.532 117.542 17.244C118.069 16.956 118.687 16.812 119.395 16.812C120.222 16.812 120.972 17.022 121.643 17.442C122.315 17.862 122.842 18.462 123.226 19.242C123.622 20.022 123.82 20.928 123.82 21.96C123.82 22.992 123.622 23.904 123.226 24.696C122.842 25.476 122.315 26.082 121.643 26.514C120.972 26.934 120.222 27.144 119.395 27.144C118.699 27.144 118.081 27 117.542 26.712C117.014 26.424 116.6 26.052 116.3 25.596V31.788H113.224V16.956H116.3V18.378ZM120.69 21.96C120.69 21.192 120.474 20.592 120.042 20.16C119.622 19.716 119.101 19.494 118.477 19.494C117.866 19.494 117.344 19.716 116.912 20.16C116.492 20.604 116.282 21.21 116.282 21.978C116.282 22.746 116.492 23.352 116.912 23.796C117.344 24.24 117.866 24.462 118.477 24.462C119.089 24.462 119.61 24.24 120.042 23.796C120.474 23.34 120.69 22.728 120.69 21.96Z" fill="#23272E"></path><path d="M130.003 27.144C129.019 27.144 128.132 26.934 127.34 26.514C126.561 26.094 125.943 25.494 125.488 24.714C125.044 23.934 124.822 23.022 124.822 21.978C124.822 20.946 125.05 20.04 125.506 19.26C125.961 18.468 126.585 17.862 127.376 17.442C128.168 17.022 129.055 16.812 130.039 16.812C131.022 16.812 131.91 17.022 132.701 17.442C133.493 17.862 134.116 18.468 134.572 19.26C135.028 20.04 135.256 20.946 135.256 21.978C135.256 23.01 135.022 23.922 134.554 24.714C134.098 25.494 133.469 26.094 132.665 26.514C131.874 26.934 130.986 27.144 130.003 27.144ZM130.003 24.48C130.59 24.48 131.088 24.264 131.496 23.832C131.916 23.4 132.125 22.782 132.125 21.978C132.125 21.174 131.922 20.556 131.514 20.124C131.118 19.692 130.626 19.476 130.039 19.476C129.439 19.476 128.941 19.692 128.546 20.124C128.15 20.544 127.952 21.162 127.952 21.978C127.952 22.782 128.144 23.4 128.528 23.832C128.923 24.264 129.415 24.48 130.003 24.48Z" fill="#23272E"></path><path d="M139.964 13.68V27H136.887V13.68H139.964Z" fill="#23272E"></path><path d="M143.74 15.912C143.2 15.912 142.756 15.756 142.409 15.444C142.073 15.12 141.905 14.724 141.905 14.256C141.905 13.776 142.073 13.38 142.409 13.068C142.756 12.744 143.2 12.582 143.74 12.582C144.267 12.582 144.699 12.744 145.035 13.068C145.383 13.38 145.557 13.776 145.557 14.256C145.557 14.724 145.383 15.12 145.035 15.444C144.699 15.756 144.267 15.912 143.74 15.912ZM145.269 16.956V27H142.193V16.956H145.269Z" fill="#23272E"></path><path d="M153.093 24.39V27H151.528C150.412 27 149.543 26.73 148.919 26.19C148.296 25.638 147.984 24.744 147.984 23.508V19.512H146.761V16.956H147.984V14.508H151.06V16.956H153.075V19.512H151.06V23.544C151.06 23.844 151.132 24.06 151.276 24.192C151.42 24.324 151.659 24.39 151.995 24.39H153.093Z" fill="#23272E"></path><path d="M154.194 21.96C154.194 20.928 154.386 20.022 154.77 19.242C155.166 18.462 155.699 17.862 156.371 17.442C157.043 17.022 157.792 16.812 158.62 16.812C159.327 16.812 159.945 16.956 160.473 17.244C161.012 17.532 161.426 17.91 161.714 18.378V16.956H164.79V27H161.714V25.578C161.414 26.046 160.994 26.424 160.455 26.712C159.927 27 159.309 27.144 158.602 27.144C157.786 27.144 157.043 26.934 156.371 26.514C155.699 26.082 155.166 25.476 154.77 24.696C154.386 23.904 154.194 22.992 154.194 21.96ZM161.714 21.978C161.714 21.21 161.498 20.604 161.066 20.16C160.646 19.716 160.131 19.494 159.519 19.494C158.907 19.494 158.386 19.716 157.954 20.16C157.534 20.592 157.324 21.192 157.324 21.96C157.324 22.728 157.534 23.34 157.954 23.796C158.386 24.24 158.907 24.462 159.519 24.462C160.131 24.462 160.646 24.24 161.066 23.796C161.498 23.352 161.714 22.746 161.714 21.978Z" fill="#23272E"></path><path d="M173.131 16.848C174.307 16.848 175.242 17.232 175.938 18C176.645 18.756 176.999 19.8 176.999 21.132V27H173.941V21.546C173.941 20.874 173.767 20.352 173.419 19.98C173.072 19.608 172.604 19.422 172.016 19.422C171.429 19.422 170.961 19.608 170.613 19.98C170.265 20.352 170.091 20.874 170.091 21.546V27H167.015V16.956H170.091V18.288C170.403 17.844 170.823 17.496 171.351 17.244C171.878 16.98 172.472 16.848 173.131 16.848Z" fill="#23272E"></path></g></g></svg>
