<?xml version="1.0" encoding="UTF-8"?> <svg xmlns="http://www.w3.org/2000/svg" width="156.791" height="41.782" viewBox="0 0 156.791 41.782"><g id="cb-logo" transform="translate(0 -1.96)"><path id="Path_1" data-name="Path 1" d="M1170.494,178.295c-.164-.006-.1.122-.109.2a12.314,12.314,0,0,1-.554,2.679,6.431,6.431,0,0,1-1.356,2.09,7.64,7.64,0,0,1-10.572.611,7.609,7.609,0,0,1-.481-11.175,7.359,7.359,0,0,1,5.757-2.267,7.639,7.639,0,0,1,6.255,3.675c.1.148.087.245-.082.333q-1.249.627-2.493,1.265c-.147.076-.217.044-.313-.092a4.249,4.249,0,0,0-4.3-1.945,4.2,4.2,0,0,0-3.642,3.143,4.4,4.4,0,0,0,3.23,5.561,4.525,4.525,0,0,0,4.777-1.892c.032-.048.1-.093.049-.158s-.128-.038-.195-.038h-3.3c-.343,0-.343,0-.343-.348v-1.621c0-.2.06-.279.271-.278q3.544.007,7.087,0c.114,0,.2.109.315.05Z" transform="translate(-1013.707 -147.824)" fill="#232d42"></path><path id="Path_2" data-name="Path 2" d="M196.408,2a.962.962,0,0,0,0,.383V16.939c0,.251-.067.337-.322.323-.391-.02-.784-.013-1.176,0-.187,0-.252-.062-.236-.245.01-.1,0-.209,0-.314V2Z" transform="translate(-170.826 -0.035)" fill="#f4aa07"></path><path id="Path_3" data-name="Path 3" d="M252.131,2V16.977c0,.213-.053.3-.277.29-.375-.015-.75-.007-1.124,0-.178,0-.262-.062-.245-.245.006-.087,0-.174,0-.261V2.43a1.146,1.146,0,0,1,.077-.43Z" transform="translate(-219.801 -0.035)" fill="#f4aa07"></path><path id="Path_4" data-name="Path 4" d="M224.226,1.965a.461.461,0,0,1,.108.333V16.964c0,.192-.056.267-.252.262-.375-.01-.75-.009-1.124,0-.157,0-.228-.055-.22-.212V2.5c0-.18.013-.36.021-.54Z" transform="translate(-195.453)" fill="#f4aa07"></path><path id="Path_5" data-name="Path 5" d="M4.019,5.185a3.362,3.362,0,0,1,.936-.849A11.384,11.384,0,0,1,8.933,2.347a9.012,9.012,0,0,1,1.4-.282A.125.125,0,0,0,10.463,2H21.5c-.045.469-.011.939-.021,1.409-.007.414-.015.423-.425.423-3.043,0-6.085-.006-9.127,0A9.591,9.591,0,0,0,6.062,5.76a10.512,10.512,0,0,0-3.575,4.758A11.338,11.338,0,0,0,1.752,14.2a11.234,11.234,0,0,0,1.156,5.5,9.861,9.861,0,0,0,5,4.794,8.635,8.635,0,0,0,3.236.744c3.286.085,6.572.015,9.858.037.394,0,.394,0,.394.383,0,.4-.007.8,0,1.2,0,.195-.048.283-.263.283-3.329-.006-6.66.024-9.989-.022a10.175,10.175,0,0,1-4.181-1.017,11.7,11.7,0,0,1-3.4-2.393,12.21,12.21,0,0,1-2.558-3.846,13.811,13.811,0,0,1-.948-3.484A.122.122,0,0,0,0,16.279V13.036a2.755,2.755,0,0,0,.16-.747A13.214,13.214,0,0,1,1.347,8.717a13,13,0,0,1,2.147-3.09,1.225,1.225,0,0,1,.425-.342c.015.082-.042.129-.092.176-.263.254-.508.525-.747.8A11.882,11.882,0,0,0,1.426,8.791,13.007,13.007,0,0,0,.367,11.856a17.264,17.264,0,0,0-.312,2.318A11,11,0,0,0,.13,15.862a14.161,14.161,0,0,0,.423,2.352,12.074,12.074,0,0,0,4.929,6.937,11.323,11.323,0,0,0,2.711,1.323,13.628,13.628,0,0,0,4.3.573h8.5c.245,0,.326-.07.31-.311-.018-.278,0-.557,0-.837,0-.49,0-.49-.478-.49H11.955a11.108,11.108,0,0,1-2.225-.225A9.368,9.368,0,0,1,6.89,24.1a10.243,10.243,0,0,1-3.35-3.117,10.689,10.689,0,0,1-1.165-2.2A11.185,11.185,0,0,1,1.753,16.4a12.494,12.494,0,0,1-.122-2.3,10.809,10.809,0,0,1,.245-1.96,11.181,11.181,0,0,1,.992-2.757A10.686,10.686,0,0,1,7.767,4.6a10.135,10.135,0,0,1,4.3-.92c2.9-.023,5.806-.007,8.709-.006a1.852,1.852,0,0,1,.261.011c.293.042.307.032.309-.272,0-.349-.017-.7,0-1.046.017-.261-.054-.338-.327-.337-2.869.011-5.737,0-8.606.007a13.061,13.061,0,0,0-3.944.573,11.5,11.5,0,0,0-3.653,1.96A4.416,4.416,0,0,1,4.019,5.185Z" transform="translate(0 -0.035)" fill="#f9ca64"></path><path id="Path_6" data-name="Path 6" d="M491.12,180.136v-7.06c0-.245.07-.326.323-.326,2.39.01,4.777,0,7.167.011a5.615,5.615,0,0,1,2.4.51,2.985,2.985,0,0,1,1.747,2.68,3.757,3.757,0,0,1-.236,1.848,3.339,3.339,0,0,1-1.376,1.5c-.07.043-.186.056-.182.164s.122.1.2.131a3.486,3.486,0,0,1,2.31,3.218,4.744,4.744,0,0,1-.3,2.128,4,4,0,0,1-2.262,2.092,6.785,6.785,0,0,1-2.572.468c-2.25-.009-4.5,0-6.748,0-.526,0-.467.042-.466-.452Q491.126,183.588,491.12,180.136Zm5.283,4.824h1.151a5.668,5.668,0,0,0,1.225-.11,1.67,1.67,0,0,0,1.4-1.312,2.733,2.733,0,0,0-.027-1.191,1.631,1.631,0,0,0-.98-1.171,3.683,3.683,0,0,0-1.509-.245c-1-.015-2.005,0-3.008-.01-.225,0-.28.08-.278.29q.011,1.74,0,3.479c0,.229.081.278.289.274C495.234,184.952,495.819,184.961,496.4,184.96ZM494.367,177v1.1c0,.62,0,.626.622.619,1.045-.012,2.091.05,3.135-.056a1.8,1.8,0,0,0,1.051-.475,1.635,1.635,0,0,0,.43-1.372,1.379,1.379,0,0,0-.767-1.245,3.536,3.536,0,0,0-1.657-.284c-.857-.032-1.708,0-2.562-.012-.2,0-.257.076-.255.263.009.485,0,.974,0,1.461Z" transform="translate(-430.963 -149.87)" fill="#232d42"></path><path id="Path_7" data-name="Path 7" d="M199.913,140.438q-3.373,0-6.747.006c-.269,0-.353-.078-.338-.341.02-.356.016-.715,0-1.072-.011-.234.077-.3.3-.3q4.853.009,9.7,0c1,0,2,.006,3.007,0a11.677,11.677,0,0,1,6.028,1.538,11.975,11.975,0,0,1,3.708,3.327,12.324,12.324,0,0,1-.737,15.778,12.861,12.861,0,0,1-5.11,3.574,11.856,11.856,0,0,1-5.355.764,13.5,13.5,0,0,1-5.164-1.47,11.788,11.788,0,0,1-3.371-2.61A11.269,11.269,0,0,1,193.4,155.3a12.238,12.238,0,0,1-.467-3.586c0-.993.006-1.987,0-2.98,0-.245.053-.348.321-.332a10.757,10.757,0,0,0,1.176,0c.245-.011.311.086.309.32-.011.924,0,1.848-.006,2.772a10.8,10.8,0,0,0,.5,3.631,9.845,9.845,0,0,0,4.52,5.446,11.14,11.14,0,0,0,6.033,1.488,10.145,10.145,0,0,0,5.459-1.794,11.366,11.366,0,0,0,4.426-5.635,9.864,9.864,0,0,0,.612-3.242,10.779,10.779,0,0,0-.31-2.769,11.155,11.155,0,0,0-2.461-4.754,9.961,9.961,0,0,0-4.129-2.849,8.893,8.893,0,0,0-3.012-.574c-2.153-.007-4.307,0-6.46,0Z" transform="translate(-169.207 -120.023)" fill="#f4aa07"></path><path id="Path_8" data-name="Path 8" d="M1038.186,179.712V172.6c0-.227.058-.3.293-.3q1.592.018,3.185,0a.49.49,0,0,1,.451.236q3.054,4.287,6.117,8.574c.044.062.082.165.168.143.113-.029.065-.147.065-.225v-8.394c0-.328,0-.328.337-.328h2.2c.2,0,.272.048.272.265q-.009,7.139,0,14.276c0,.229-.083.279-.29.277-.735-.009-1.482-.011-2.222,0a.49.49,0,0,1-.457-.228q-1.96-2.757-3.939-5.5l-3.393-4.739c-.044-.061-.082-.158-.173-.122s-.039.122-.039.186v10.067c0,.342,0,.341-.347.341-.646,0-1.291-.01-1.935.006-.235,0-.3-.072-.294-.3C1038.188,184.454,1038.186,182.084,1038.186,179.712Z" transform="translate(-911.013 -149.477)" fill="#232d42"></path><path id="Path_9" data-name="Path 9" d="M920.257,31.033a7.693,7.693,0,0,1,7.665-7.673,7.708,7.708,0,1,1-.358,15.407C923.793,38.618,920.061,35.2,920.257,31.033Zm3.093.033a4.586,4.586,0,1,0,9.171-.047,4.666,4.666,0,0,0-4.566-4.543,4.616,4.616,0,0,0-4.6,4.592Z" transform="translate(-807.528 -18.778)" fill="#232d42"></path><path id="Path_10" data-name="Path 10" d="M610,180.13v-7.059c0-.245.063-.334.321-.334,2.258.01,4.516-.018,6.772.015a4.68,4.68,0,0,1,3.782,1.749,4.376,4.376,0,0,1,.876,2.233,5.252,5.252,0,0,1-.381,2.837,4.1,4.1,0,0,1-2.689,2.373c-.261.077-.222.153-.1.326q1.741,2.48,3.471,4.968c.047.069.151.122.091.222-.045.074-.145.039-.219.039h-3.138a.441.441,0,0,1-.412-.211c-1.1-1.592-2.231-3.185-3.334-4.777a.608.608,0,0,0-.62-.314,5.789,5.789,0,0,1-.857,0c-.229-.015-.3.061-.3.293.01,1.561,0,3.12.011,4.68,0,.245-.059.336-.32.332q-1.319-.022-2.641,0c-.245,0-.312-.072-.311-.315Q610,183.66,610,180.13Zm3.248-2.668v1.726c0,.576-.062.5.5.49.932-.01,1.866.051,2.8-.034a2.061,2.061,0,0,0,1.6-.755,2.463,2.463,0,0,0,.2-2.532,1.856,1.856,0,0,0-1.748-1.039c-1.034-.078-2.071-.053-3.108-.062-.206,0-.245.091-.245.269,0,.648-.006,1.292,0,1.937Z" transform="translate(-535.281 -149.856)" fill="#232d42"></path><path id="Path_11" data-name="Path 11" d="M531.167,33.307a.438.438,0,0,0-.061.32c0,1.6-.006,3.207,0,4.81,0,.245-.064.331-.322.326-.837-.016-1.673-.013-2.51,0-.236,0-.294-.077-.294-.3q.007-7.384,0-14.771c0-.222.065-.309.3-.307,1.726.007,3.452-.018,5.178.01a5.39,5.39,0,0,1,2.12,10.306c-.195.088-.224.171-.1.35q1.562,2.222,3.112,4.45c.043.061.136.113.093.2s-.156.055-.236.055c-1.046,0-2.092,0-3.138.007a.567.567,0,0,1-.538-.277c-.865-1.254-1.739-2.5-2.612-3.751ZM531.1,28.8v2.039c0,.18.051.245.238.245q.98-.015,1.96,0a2.316,2.316,0,0,0,2.208-3.1,2.288,2.288,0,0,0-2.119-1.47h-2.039c-.2,0-.252.069-.245.258,0,.665-.009,1.345-.009,2.025Z" transform="translate(-463.308 -18.796)" fill="#232d42"></path><path id="Path_12" data-name="Path 12" d="M778.11,179.684v-7.059c0-.245.056-.325.316-.325q5.074.015,10.146,0c.271,0,.339.072.333.336-.018.706-.012,1.412,0,2.118,0,.212-.054.285-.278.284-2.327-.009-4.655,0-6.982-.006-.336,0-.336,0-.336.329v2.667c0,.227.066.3.3.3,2.031-.009,4.062,0,6.093-.011.245,0,.321.066.317.31q-.02,1.163,0,2.327c0,.218-.07.283-.287.282-2.039-.007-4.079,0-6.118-.01-.224,0-.307.054-.3.29q.021,1.268,0,2.536c0,.233.071.3.3.3,2.562-.009,5.125,0,7.687-.012.272,0,.339.082.333.342-.017.688-.015,1.377,0,2.065,0,.245-.055.332-.32.332q-5.451-.013-10.9,0c-.245,0-.287-.088-.286-.3Q778.116,183.226,778.11,179.684Z" transform="translate(-682.799 -149.475)" fill="#232d42"></path><path id="Path_13" data-name="Path 13" d="M732.14,31.111V23.762c0-.342,0-.342.348-.342h4.864a5.352,5.352,0,0,1,3.66,1.29,5.192,5.192,0,0,1,1.837,3.218,5.254,5.254,0,0,1-1.7,4.886,5.109,5.109,0,0,1-3.168,1.376c-.819.06-1.638.021-2.45.027-.208,0-.268.062-.267.268.009,1.334,0,2.667.01,4,0,.245-.064.316-.31.312q-1.255-.022-2.51,0c-.245,0-.307-.08-.307-.315Q732.146,34.8,732.14,31.111Zm3.117-2.286c0,.67.009,1.347,0,2.011,0,.223.07.28.283.276.653-.012,1.307-.02,1.96,0a2.385,2.385,0,0,0,2.256-1.786,2.3,2.3,0,0,0-2.18-2.784c-.688-.009-1.377,0-2.064,0-.195,0-.257.058-.255.252C735.262,27.467,735.257,28.146,735.257,28.825Z" transform="translate(-642.46 -18.831)" fill="#232d42"></path><path id="Path_14" data-name="Path 14" d="M199.628,165.62h-6.356c-.254,0-.336-.07-.322-.322.02-.382.01-.767,0-1.15,0-.168.058-.245.229-.232h11.9a11.1,11.1,0,0,1,3.307.439,9.089,9.089,0,0,1,4.067,2.553,9.186,9.186,0,0,1,2.1,3.721,8.488,8.488,0,0,1,.01,5.045,10.749,10.749,0,0,1-4.625,5.962,8.031,8.031,0,0,1-4.368,1.328,8.951,8.951,0,0,1-4.125-.991,9.22,9.22,0,0,1-4.682-5.278,7.35,7.35,0,0,1-.4-2.542c.01-1.116,0-2.232,0-3.348,0-.222.059-.312.3-.3.4.018.8.016,1.2,0,.224-.009.284.078.282.289-.007.98.012,1.96,0,2.929a6.969,6.969,0,0,0,1.639,4.81,7.363,7.363,0,0,0,5.1,2.713,6.808,6.808,0,0,0,5.366-1.992,8.97,8.97,0,0,0,2.46-3.707,7.1,7.1,0,0,0,.167-4.165,7.542,7.542,0,0,0-2.222-3.8,7.258,7.258,0,0,0-3.8-1.847,10.726,10.726,0,0,0-1.771-.111Z" transform="translate(-169.314 -142.116)" fill="#f4aa07"></path><path id="Path_15" data-name="Path 15" d="M419.623,38.9a7.465,7.465,0,0,1-5.91-2.637,6.932,6.932,0,0,1-1.721-3.406,7.842,7.842,0,0,1,.6-5.011A7.257,7.257,0,0,1,413.7,26.2a7.562,7.562,0,0,1,3.618-2.367,7.717,7.717,0,0,1,3.944-.1,7.806,7.806,0,0,1,3.449,1.81c.269.245.266.245.015.49-.592.592-1.187,1.18-1.771,1.777-.136.138-.222.134-.367.007a4.54,4.54,0,0,0-3.944-1.111,4.667,4.667,0,0,0-3.681,3.92,4.6,4.6,0,0,0,3.954,5.121,4.484,4.484,0,0,0,3.7-1.178c.116-.105.194-.108.3,0,.632.637,1.265,1.274,1.906,1.9.156.153.065.227-.048.332A7.415,7.415,0,0,1,419.623,38.9Z" transform="translate(-361.386 -18.924)" fill="#232d42"></path><path id="Path_16" data-name="Path 16" d="M887.62,179.711v-7.086c0-.245.062-.325.32-.325q5.087.015,10.174,0c.245,0,.314.067.31.307-.015.715-.012,1.429,0,2.145,0,.212-.055.285-.28.284-2.327-.009-4.655,0-6.982-.006-.328,0-.328,0-.328.338,0,.881.006,1.76,0,2.641,0,.235.061.318.31.318,2.022-.01,4.042,0,6.068-.012.256,0,.334.076.329.326q-.016,1.137,0,2.275c0,.234-.062.321-.31.32-2.024-.01-4.042,0-6.068-.011-.245,0-.332.053-.331.316.011,1.752,0,3.5.012,5.256,0,.254-.083.307-.315.3-.857-.011-1.727-.013-2.589,0-.245,0-.312-.061-.311-.3Q887.621,183.255,887.62,179.711Z" transform="translate(-778.896 -149.475)" fill="#232d42"></path><path id="Path_17" data-name="Path 17" d="M36.837,44.341h4.916c.343,0,.343,0,.343.354,0,.383-.006.768,0,1.151,0,.2-.05.294-.28.294-3.1-.007-6.207,0-9.309-.007a8.135,8.135,0,0,1-5.241-1.921,9.735,9.735,0,0,1-3.278-4.893,8.7,8.7,0,0,1,.233-5.687,10.262,10.262,0,0,1,2.68-3.97,8.612,8.612,0,0,1,4.777-2.327,8.179,8.179,0,0,1,1.068-.056q4.538,0,9.074-.009c.269,0,.35.078.336.342-.022.367,0,.748-.006,1.123,0,.326-.015.341-.339.341H33.5c-.392,0-.784,0-1.176.01a6.421,6.421,0,0,0-3.8,1.434,8.168,8.168,0,0,0-3.051,4.787,6.915,6.915,0,0,0,.341,4.132,7.775,7.775,0,0,0,3.811,4.231,6.186,6.186,0,0,0,2.844.674C33.925,44.339,35.38,44.343,36.837,44.341Z" transform="translate(-20.725 -22.21)" fill="#f4aa07"></path><path id="Path_18" data-name="Path 18" d="M630.95,35.293c0-.924-.021-1.847.009-2.769a2.277,2.277,0,0,0-.321-1.21c-1.128-2.059-2.244-4.124-3.365-6.187-.274-.5-.544-1.011-.833-1.507-.122-.2-.049-.245.142-.245h3.033a.35.35,0,0,1,.349.211c.735,1.369,1.486,2.735,2.231,4.1.055.1.113.2.162.3.029.064.05.14.134.141s.1-.088.13-.146q.665-1.215,1.325-2.43.529-.98,1.057-1.952a.368.368,0,0,1,.367-.225c1,.011,2,0,3.006,0,.277,0,.287.022.162.252q-1.629,3-3.262,5.987c-.378.7-.752,1.393-1.139,2.082a.823.823,0,0,0-.1.423q0,3.164.006,6.327c0,.238-.058.315-.3.311q-1.256-.022-2.51,0c-.238,0-.292-.075-.289-.3C630.956,37.4,630.95,36.348,630.95,35.293Z" transform="translate(-549.655 -18.788)" fill="#232d42"></path><path id="Path_19" data-name="Path 19" d="M836.344,32.652v5.8c0,.229-.06.3-.293.3q-1.254-.02-2.511,0c-.257,0-.345-.061-.344-.334q.012-5.791,0-11.584c0-.343,0-.342-.342-.342h-3.191c-.217,0-.287-.065-.284-.283q.016-1.282,0-2.562c0-.223.076-.279.288-.279q5.087.007,10.174,0c.234,0,.321.058.316.307q-.023,1.254,0,2.511c0,.252-.087.307-.318.306-1.063-.01-2.126,0-3.185-.01-.258,0-.323.085-.322.331C836.348,28.764,836.344,30.708,836.344,32.652Z" transform="translate(-727.789 -18.787)" fill="#232d42"></path><path id="Path_20" data-name="Path 20" d="M199.346,188.336H193.2c-.309,0-.318-.02-.311-.326.007-.356,0-.714,0-1.071-.006-.2.05-.3.279-.3,4.062.006,8.125,0,12.187.01a5.8,5.8,0,0,1,4.383,2.115,7.3,7.3,0,0,1,1.592,2.763,5.423,5.423,0,0,1,.071,3.089,6.972,6.972,0,0,1-2.783,3.982,5.5,5.5,0,0,1-4.351.913,6.247,6.247,0,0,1-3.457-1.819,5.032,5.032,0,0,1-1.5-3.54c-.009-1.167,0-2.336-.006-3.5,0-.192.058-.263.255-.258.409.012.819.017,1.225,0,.245-.011.321.069.318.311-.011,1.053.027,2.109-.012,3.163a3.924,3.924,0,0,0,2.989,3.865,4.091,4.091,0,0,0,2.418.054,4.844,4.844,0,0,0,2.058-7.759,4.329,4.329,0,0,0-2.111-1.521,3.641,3.641,0,0,0-1.131-.169Z" transform="translate(-169.261 -162.059)" fill="#f4aa07"></path><path id="Path_21" data-name="Path 21" d="M60.358,67.667H55.937a5.048,5.048,0,0,1-3.64-1.52,6.263,6.263,0,0,1-1.96-4.346,6.029,6.029,0,0,1,2.854-5.606,4.636,4.636,0,0,1,2.538-.786c3.2-.02,6.4-.011,9.6-.018.212,0,.271.08.265.279-.011.4-.016.8,0,1.2.012.256-.085.328-.333.328-3.062-.007-6.124,0-9.187-.01a3.721,3.721,0,0,0-2.779,1.12,4.459,4.459,0,0,0-1.166,4.239A4.231,4.231,0,0,0,53.9,65.264a3.168,3.168,0,0,0,1.73.6c.924.02,1.848.013,2.772.015h6.8c.331,0,.337.007.338.338,0,.375-.012.751,0,1.124.01.245-.051.337-.318.334C63.6,67.661,61.98,67.667,60.358,67.667Z" transform="translate(-44.166 -46.885)" fill="#f4aa07"></path><path id="Path_22" data-name="Path 22" d="M734.9,180.13v7.086c0,.2-.043.282-.258.279q-1.373-.013-2.745,0c-.207,0-.267-.07-.267-.274q.01-7.085,0-14.171c0-.229.072-.3.3-.3.888.01,1.777.012,2.667,0,.254,0,.3.093.3.323Q734.9,176.6,734.9,180.13Z" transform="translate(-642.013 -149.87)" fill="#232d42"></path><path id="Path_23" data-name="Path 23" d="M994.242,180.13v7.085c0,.225-.076.282-.287.28q-1.36-.013-2.719,0c-.207,0-.267-.07-.266-.274q.007-7.085,0-14.17c0-.229.07-.3.3-.3q1.334.017,2.668,0c.254,0,.3.092.3.322Q994.237,176.6,994.242,180.13Z" transform="translate(-869.586 -149.87)" fill="#232d42"></path><path id="Path_24" data-name="Path 24" d="M4.326,5.483a4.105,4.105,0,0,0,.795-.612,11.5,11.5,0,0,1,3.653-1.96,13.061,13.061,0,0,1,3.953-.563q4.3,0,8.606-.007c.273,0,.344.076.327.337-.022.347,0,.7,0,1.046,0,.3-.016.314-.309.272a1.852,1.852,0,0,0-.261-.011c-2.9,0-5.806-.017-8.709.006a10.135,10.135,0,0,0-4.3.92,10.686,10.686,0,0,0-4.9,4.777,11.181,11.181,0,0,0-.992,2.757,10.808,10.808,0,0,0-.245,1.96,12.494,12.494,0,0,0,.122,2.3,11.185,11.185,0,0,0,.614,2.375,10.689,10.689,0,0,0,1.165,2.2,10.243,10.243,0,0,0,3.346,3.125,9.368,9.368,0,0,0,2.839,1.08,11.109,11.109,0,0,0,2.226.225q4.432.01,8.866,0c.478,0,.478,0,.478.49,0,.279-.015.559,0,.837.016.245-.067.312-.31.311-1.837-.009-3.675,0-5.519,0H12.791a13.488,13.488,0,0,1-4.3-.573,11.323,11.323,0,0,1-2.707-1.33A12.074,12.074,0,0,1,.859,18.512a14.161,14.161,0,0,1-.423-2.352,10.977,10.977,0,0,1-.075-1.689,17.264,17.264,0,0,1,.312-2.318A13.007,13.007,0,0,1,1.733,9.092,11.882,11.882,0,0,1,3.382,6.562c.239-.277.484-.549.747-.8.05-.048.107-.094.092-.176Z" transform="translate(-0.307 -0.333)" fill="#f4a801"></path></g></svg> 