<svg class="svg-icon markets-insider-logo logo-vertically-center" role="img" xmlns="http://www.w3.org/2000/svg" width="308" height="105" viewBox="0 0 103 33">                   
            <g class="logo-INSIDER logo-vertically-center-icon-fill" fill="#111" fill-rule="evenodd">
              <path d="M9.024 33h2.083V19.937H9.024V33zM17.354 32.805h2.126V24.56L28.46 33V20.133h-2.124v8.104l-8.982-8.3v12.868zM34.121 29.641c1.203.928 2.644 1.464 4.19 1.464 1.504 0 2.557-.516 2.557-1.649 0-.989-.666-1.38-1.848-1.813l-1.912-.66c-1.762-.617-3.094-1.524-3.094-3.605 0-2.225 2.02-3.44 4.448-3.44 1.482 0 2.836.37 3.889 1.03v2.204c-1.096-.803-2.3-1.36-3.846-1.36-1.333 0-2.321.495-2.321 1.525 0 .927.623 1.298 1.72 1.669l2.126.741c2.063.722 3.008 1.834 3.008 3.668 0 2.308-2.04 3.585-4.727 3.585-1.762 0-3.266-.494-4.19-1.113v-2.246zM47.898 33h2.082V19.937h-2.082V33zM61.741 31.022c2.685 0 4.122-1.766 4.122-4.553 0-2.809-1.437-4.574-4.122-4.574h-2.654v9.127h2.654zm-4.82-11.084h4.904c3.768 0 6.203 2.553 6.203 6.53 0 3.979-2.435 6.532-6.203 6.532h-4.903V19.937zM80.523 19.938v1.957h-5.545v3.143h4.971v1.936h-4.97v4.048h5.544V33h-7.635V19.937h7.635zM88.201 25.852h2.384c1.41 0 2.207-.787 2.207-2 0-1.212-.797-2-2.207-2h-2.384v4zm0 1.85V33h-2.124V19.937h4.55c2.594 0 4.268 1.362 4.268 3.915 0 2.191-.934 3.447-2.915 3.766L96.49 33h-2.411l-4.367-5.298h-1.511zM93.018 3.44c0 2.081 1.333 2.988 3.094 3.607l1.913.659c1.181.432 1.847.824 1.847 1.813 0 1.133-1.052 1.648-2.556 1.648-1.547 0-2.987-.536-4.19-1.463v2.246c.924.618 2.427 1.113 4.19 1.113 2.685 0 4.726-1.278 4.726-3.586 0-1.833-.945-2.946-3.008-3.667l-2.127-.741c-1.096-.372-1.719-.742-1.719-1.67 0-1.03.989-1.524 2.32-1.524 1.548 0 2.751.556 3.847 1.36V1.03C100.302.37 98.949 0 97.466 0c-2.428 0-4.448 1.216-4.448 3.44zM65.946 0v13.063h7.636v-1.977h-5.544V7.034h4.972V5.1h-4.972V1.956h5.544V0h-7.636zM36.28 5.914h2.544c1.503 0 2.353-.787 2.353-2 0-1.212-.85-2-2.353-2H36.28v4zm0 1.851v5.298h-2.266V0h4.853c2.768 0 4.554 1.362 4.554 3.914 0 2.192-.996 3.447-3.11 3.766l4.81 5.383H42.55l-4.658-5.298H36.28zM52.199 5.68L57.448 0H60.2l-5.91 6.255 6.102 6.808h-2.816l-5.377-5.978v5.978H49.98V0h2.219v5.68zM78.44 0h11.108v1.958h-4.426v11.104h-2.256V1.959H78.44V0zM21.066 9.514l2.179-5.003 2.178 5.003h-4.357zm5.903 3.549h2.186L23.255 0l-5.9 13.063h2.166l.727-1.67h5.993l.728 1.67zM11.041 5.639v7.423h2.148V0L6.595 6.962 0 0v13.063h2.148V5.638l4.447 4.693L11.04 5.64z" clip-rule="evenodd"></path>
            </g>
          </svg>
