<svg width="111" height="38" viewBox="0 0 111 38" fill="none" xmlns="http://www.w3.org/2000/svg">
<path d="M54.479 12.6364C54.479 11.9819 54.243 11.4813 53.771 11.1348C53.299 10.7806 52.45 10.411 51.222 10.026C49.995 9.6332 49.023 9.2482 48.307 8.8709C46.356 7.839 45.381 6.4491 45.381 4.7011C45.381 3.7925 45.64 2.9839 46.16 2.2755C46.687 1.5593 47.438 1.0011 48.414 0.600601C49.397 0.200201 50.498 0 51.718 0C52.945 0 54.039 0.219501 54.999 0.658401C55.959 1.0896 56.702 1.7018 57.229 2.4949C57.764 3.2881 58.032 4.189 58.032 5.1978H54.491C54.491 4.4278 54.243 3.831 53.748 3.4074C53.252 2.9762 52.556 2.7606 51.659 2.7606C50.794 2.7606 50.121 2.9416 49.641 3.3035C49.161 3.6577 48.921 4.1274 48.921 4.7127C48.921 5.2594 49.2 5.7176 49.759 6.0872C50.325 6.4568 51.155 6.8033 52.249 7.1268C54.263 7.7197 55.73 8.4551 56.651 9.3329C57.571 10.2108 58.032 11.3042 58.032 12.6133C58.032 14.0687 57.469 15.2122 56.344 16.0439C55.219 16.8678 53.705 17.2798 51.801 17.2798C50.479 17.2798 49.275 17.0449 48.189 16.5752C47.104 16.0978 46.274 15.4471 45.699 14.6231C45.133 13.7992 44.85 12.8443 44.85 11.7586H48.402C48.402 13.6144 49.535 14.5423 51.801 14.5423C52.642 14.5423 53.299 14.3767 53.771 14.0456C54.243 13.7068 54.479 13.237 54.479 12.6364Z" fill="#7A7A7A"/>
<path d="M73.822 12.1975L76.135 0.230999H79.663L75.852 17.0488H72.288L69.491 5.7984L66.694 17.0488H63.13L59.318 0.230999H62.847L65.171 12.1744L68.004 0.230999H71.001L73.822 12.1975Z" fill="#7A7A7A"/>
<path d="M90.768 13.5836H84.561L83.381 17.0488H79.616L86.012 0.230999H89.293L95.725 17.0488H91.96L90.768 13.5836ZM85.517 10.7768H89.812L87.653 4.4817L85.517 10.7768Z" fill="#7A7A7A"/>
<path d="M100.87 11.1233V17.0488H97.33V0.230999H104.033C105.323 0.230999 106.456 0.461999 107.432 0.924099C108.415 1.3861 109.17 2.0445 109.698 2.8992C110.225 3.7463 110.488 4.7127 110.488 5.7984C110.488 7.4463 109.91 8.7477 108.754 9.7025C107.605 10.6497 106.012 11.1233 103.974 11.1233H100.87ZM100.87 8.3165H104.033C104.969 8.3165 105.681 8.1009 106.169 7.6696C106.665 7.2384 106.913 6.6224 106.913 5.8215C106.913 4.9976 106.665 4.3315 106.169 3.8233C105.673 3.315 104.989 3.0532 104.116 3.0378H100.87V8.3165Z" fill="#7A7A7A"/>
<path d="M55.166 32.9904C55.166 32.1064 54.849 31.4088 54.214 30.8974C53.58 30.3787 52.419 29.8892 50.732 29.4289C49.045 28.9614 47.814 28.4537 47.038 27.9057C45.933 27.1314 45.38 26.1159 45.38 24.8593C45.38 23.6393 45.892 22.6494 46.914 21.8896C47.944 21.1226 49.258 20.739 50.855 20.739C51.938 20.739 52.904 20.9436 53.755 21.3527C54.614 21.7618 55.278 22.3316 55.748 23.0622C56.218 23.7927 56.453 24.6073 56.453 25.5059H55.065C55.065 24.4174 54.684 23.5443 53.923 22.8868C53.162 22.222 52.139 21.8896 50.855 21.8896C49.609 21.8896 48.616 22.1636 47.877 22.7115C47.138 23.2521 46.769 23.9608 46.769 24.8374C46.769 25.6483 47.101 26.3095 47.765 26.8209C48.43 27.3323 49.493 27.7852 50.956 28.1797C52.419 28.5669 53.528 28.9724 54.281 29.3961C55.035 29.8125 55.603 30.3129 55.983 30.8974C56.364 31.4818 56.554 32.1722 56.554 32.9685C56.554 34.225 56.039 35.2332 55.009 35.993C53.987 36.7528 52.636 37.1326 50.956 37.1326C49.807 37.1326 48.751 36.9317 47.788 36.5299C46.832 36.1281 46.105 35.5656 45.604 34.8424C45.112 34.1191 44.865 33.2899 44.865 32.3548H46.243C46.243 33.4799 46.672 34.3675 47.53 35.0177C48.389 35.6679 49.531 35.993 50.956 35.993C52.225 35.993 53.244 35.719 54.013 35.1711C54.781 34.6232 55.166 33.8963 55.166 32.9904Z" fill="#7A7A7A"/>
<path d="M60.68 30.4152V36.9135H59.303V20.9582H64.856C66.551 20.9582 67.887 21.3819 68.865 22.2293C69.85 23.0768 70.342 24.242 70.342 25.725C70.342 27.2227 69.868 28.3806 68.92 29.1988C67.98 30.0097 66.614 30.4152 64.823 30.4152H60.68ZM60.68 29.2755H64.856C66.192 29.2755 67.211 28.965 67.913 28.3441C68.614 27.7231 68.965 26.8574 68.965 25.747C68.965 24.6438 68.614 23.7672 67.913 23.117C67.219 22.4595 66.23 22.1234 64.946 22.1088H60.68V29.2755Z" fill="#7A7A7A"/>
<path d="M80.458 32.4425H73.058L71.378 36.9135H69.934L76.103 20.9582H77.413L83.582 36.9135H82.149L80.458 32.4425ZM73.483 31.2919H80.022L76.752 22.6019L73.483 31.2919Z" fill="#7A7A7A"/>
<path d="M97.169 31.9384C96.982 33.6187 96.366 34.9044 95.321 35.7957C94.284 36.687 92.899 37.1326 91.168 37.1326C89.958 37.1326 88.887 36.8368 87.954 36.245C87.029 35.6533 86.312 34.8168 85.805 33.7356C85.297 32.647 85.04 31.4051 85.032 30.0097V27.9386C85.032 26.5213 85.286 25.2648 85.793 24.169C86.301 23.0731 87.029 22.2293 87.977 21.6376C88.932 21.0385 90.029 20.739 91.268 20.739C93.015 20.739 94.392 21.2029 95.4 22.1307C96.415 23.0512 97.004 24.326 97.169 25.9552H95.78C95.437 23.2448 93.933 21.8896 91.268 21.8896C89.79 21.8896 88.611 22.4302 87.73 23.5115C86.857 24.5927 86.42 26.0867 86.42 27.9934V29.944C86.42 31.785 86.846 33.2534 87.697 34.3492C88.555 35.4451 89.712 35.993 91.168 35.993C92.608 35.993 93.694 35.6569 94.426 34.9848C95.157 34.3054 95.609 33.2899 95.78 31.9384H97.169Z" fill="#7A7A7A"/>
<path d="M109.289 29.2646H101.664V35.7738H110.431V36.9135H100.287V20.9582H110.375V22.1088H101.664V28.1249H109.289V29.2646Z" fill="#7A7A7A"/>
<path fill-rule="evenodd" clip-rule="evenodd" d="M38.303 18.5652C38.303 28.7825 29.84 37.0652 19.4014 37.0652C8.9624 37.0652 0.5 28.7825 0.5 18.5652C0.5 8.3479 8.9624 0.0652008 19.4014 0.0652008C29.84 0.0652008 38.303 8.3479 38.303 18.5652ZM30.742 11.0459C30.742 12.3642 29.65 13.433 28.303 13.433C26.956 13.433 25.864 12.3642 25.864 11.0459C25.864 9.7275 26.956 8.6588 28.303 8.6588C29.65 8.6588 30.742 9.7275 30.742 11.0459ZM19.2794 11.0457C21.704 11.0457 23.669 9.7633 23.669 8.1812C23.669 6.5992 21.704 5.3167 19.2794 5.3167C16.8549 5.3167 14.8894 6.5992 14.8894 8.1812C14.8894 9.7633 16.8549 11.0457 19.2794 11.0457Z" fill="#7A7A7A"/>
</svg>
