<svg width="553" height="94" viewBox="0 0 553 94" fill="none" xmlns="http://www.w3.org/2000/svg">
<path d="M10.1383 77.832C3.50233 71.5472 0 62.4387 0 50.7798V5.875H26.7283V49.869C26.7283 55.5162 27.65 59.8883 29.862 62.4387C32.074 64.9891 34.9312 66.1732 38.8022 66.1732C42.6732 66.1732 45.8068 64.898 47.7423 62.4387C49.9543 59.8883 50.876 55.5162 50.876 49.869V5.875H77.2357V50.4155C77.2357 62.0744 73.7333 71.1828 67.0973 77.7409C60.0927 84.299 50.876 87.487 38.5257 87.487C26.3597 87.5781 16.8665 84.4812 10.1383 77.832ZM145.9 28.2819H122.674V5.875H195.762V27.9175H172.536V87.487H145.808L145.9 28.2819ZM220.278 82.5684C213.827 79.1983 208.297 74.2797 204.426 68.0859C200.647 61.8011 198.711 54.8786 198.711 47.0453C198.711 39.212 200.647 32.2896 204.426 26.0048C208.204 19.7199 213.642 14.9835 220.278 11.5222C226.914 7.42343 234.564 5.875 243.136 5.875C251.707 5.875 259.357 7.78778 265.993 11.249C272.445 14.6191 277.975 19.5377 281.846 25.7315C285.625 31.7431 287.56 38.9388 287.56 46.7721C287.56 54.6054 285.625 61.5278 281.846 67.8127C278.067 74.0976 272.629 78.834 265.993 82.2952C259.357 85.7564 251.707 87.6692 243.136 87.6692C234.564 87.5781 226.914 86.0297 220.278 82.5684ZM251.984 64.0782C254.749 62.4387 256.961 59.9794 258.343 57.1558C259.91 54.3321 260.555 50.8709 260.555 46.7721C260.555 42.6733 259.91 39.2121 258.343 36.3884C256.776 33.5648 254.564 31.0144 251.984 29.466C249.403 27.9175 246.269 26.9156 243.044 26.9156C236.592 26.9156 230.693 30.559 227.744 36.2973C226.177 39.121 225.532 42.5822 225.532 46.681C225.532 50.7798 226.454 54.241 227.744 57.0647C229.311 59.8883 231.523 62.4387 234.103 63.9871C236.684 65.5356 239.818 66.5375 243.044 66.5375C246.269 66.2643 249.495 65.6267 251.984 64.0782ZM297.514 6.05715H336.593C345.533 6.05715 353.091 7.60561 360.095 10.7936C366.547 13.7994 371.985 18.4447 375.948 24.2741C379.727 30.2857 381.662 38.5745 381.662 46.4988C381.662 54.3321 379.727 63.6228 375.948 69.6344C372.169 75.646 367.008 80.0181 360.095 83.1149C353.459 86.2118 345.441 87.8514 336.593 87.8514H297.514V6.05715ZM335.579 67.6305C343.321 67.6305 346.27 65.0802 349.773 61.8922C353.275 58.7042 354.842 52.5104 354.842 46.4988C354.842 40.4872 353.275 35.7508 349.773 32.2896C346.27 29.1927 341.938 26.6423 335.579 26.6423C329.219 26.6423 324.15 26.6423 324.15 26.6423V67.5395C324.15 67.5395 327.837 67.6305 335.579 67.6305ZM443.967 72.1848H413.828L407.837 87.8514H380.833L415.738 5.875H442.097L476.133 88.1246H448.483C448.483 88.2157 443.967 72.1848 443.967 72.1848ZM436.686 53.3302L429.036 33.5648L421.386 53.3302H436.686ZM523.138 57.429V87.8514H496.41V56.7914L466.548 5.875H494.843L511.064 34.2024L527.285 5.875H553C553 5.96608 523.138 57.429 523.138 57.429Z" fill="#0D0C22"/>
<path fill-rule="evenodd" clip-rule="evenodd" d="M99.54 36.8439C108.193 36.8439 115.208 29.9112 115.208 21.3594C115.208 12.8076 108.193 5.875 99.54 5.875C90.8866 5.875 83.8717 12.8076 83.8717 21.3594C83.8717 29.9112 90.8866 36.8439 99.54 36.8439ZM99.54 28.6462C103.612 28.6462 106.913 25.3838 106.913 21.3594C106.913 17.335 103.612 14.0726 99.54 14.0726C95.4678 14.0726 92.1667 17.335 92.1667 21.3594C92.1667 25.3838 95.4678 28.6462 99.54 28.6462Z" fill="#0D0C22"/>
<path fill-rule="evenodd" clip-rule="evenodd" d="M99.54 36.8438C108.193 36.8438 115.208 29.9112 115.208 21.3594C115.208 12.8076 108.193 5.875 99.54 5.875C90.8866 5.875 83.8717 12.8076 83.8717 21.3594C83.8717 29.9112 90.8866 36.8438 99.54 36.8438ZM99.54 28.6462C103.612 28.6462 106.913 25.3838 106.913 21.3594C106.913 17.335 103.612 14.0726 99.54 14.0726C95.4678 14.0726 92.1667 17.335 92.1667 21.3594C92.1667 25.3838 95.4678 28.6462 99.54 28.6462Z" fill="#F86F03"/>
</svg>
